# Blender v2.79 (sub 0) OBJ File: 'L4D2Nav.blend'
# www.blender.org
o Plane_Plane.001
v -619.640137 0.000000 772.559265
v 619.640137 0.000000 772.559265
v -619.640137 0.000000 -619.640137
v 619.640137 0.000000 -619.640137
v -186.638596 0.000000 772.559265
v 291.156189 0.000000 -619.640137
v 619.640137 0.000000 -365.811615
v -186.638596 0.000000 -365.811615
v 291.156189 0.000000 -365.811615
v -330.302460 0.000000 -619.640137
v -330.302460 0.000000 -365.811615
v 125.004456 0.000000 -365.811615
v -619.640137 0.000000 -293.644684
v 619.640137 0.000000 -257.561218
v -330.302460 0.000000 -293.644684
v 619.640137 0.000000 -145.099518
v -186.638596 0.000000 -145.099518
v -330.302460 0.000000 -145.099518
v 125.004456 0.000000 -145.099518
v 619.640137 0.000000 72.326477
v -619.640137 0.000000 103.570923
v -132.678345 0.000000 103.570923
v 125.004448 0.000000 -10.356651
v 619.640137 0.000000 162.295837
v -186.638596 0.000000 38.340199
v 291.156189 0.000000 162.295837
v -330.302460 0.000000 38.340199
v -186.638596 0.000000 103.570923
v -77.321709 0.000000 -145.099518
v 619.640137 0.000000 443.450134
v 291.156189 0.000000 443.450134
v 444.199829 0.000000 772.559265
v 444.199829 0.000000 -365.811615
v 444.199829 0.000000 -257.561218
v 444.199829 0.000000 -145.099518
v 444.199829 0.000000 72.326477
v 444.199829 0.000000 162.295837
v 444.199829 0.000000 443.450134
v -619.640137 0.000000 570.605957
v 619.640137 0.000000 570.605957
v -186.638596 0.000000 570.605957
v 291.156189 0.000000 570.605957
v -481.527588 0.000000 570.605957
v 444.199829 0.000000 570.605957
v -77.321709 0.000000 -10.356651
v -77.321709 0.000000 38.340199
v -481.527588 0.000000 103.570923
v -330.302460 0.000000 103.570923
v -132.678345 0.000000 570.605957
v -132.678345 0.000000 185.720001
v -330.302460 0.000000 185.720001
v -481.527588 0.000000 288.416809
v -132.678345 0.000000 288.416809
v -330.302460 0.000000 288.416809
v -26.346394 0.000000 -365.811615
v -26.346394 0.000000 -145.099518
vt 1.000000 0.234159
vt 0.766528 0.234159
vt 0.766528 0.182322
vt 0.766528 0.000000
vt 1.000000 0.000000
vt 0.141566 0.260077
vt 0.000000 0.260077
vt 0.000000 0.182322
vt 0.141566 0.182322
vt 0.766528 0.340857
vt 0.650602 0.340857
vt 0.650602 0.182322
vt 0.521259 0.182322
vt 0.399131 0.182322
vt 0.265060 0.182322
vt 0.265060 0.000000
vt 0.521259 0.340857
vt 0.399131 0.340857
vt 0.141566 0.340857
vt 0.000000 0.340857
vt 0.141566 0.497031
vt 0.000000 0.497031
vt 0.766528 0.472619
vt 0.650602 0.472619
vt 0.562392 0.472619
vt 0.562392 0.437641
vt 0.562392 0.340857
vt 0.888554 0.652246
vt 0.888554 0.519474
vt 1.000000 0.519474
vt 1.000000 0.854939
vt 0.888554 0.854939
vt 0.141566 0.561655
vt 0.000000 0.561655
vt 0.766528 0.519474
vt 0.650602 0.519474
vt 0.766528 0.652246
vt 0.650602 0.854939
vt 0.607061 0.854939
vt 0.607061 0.652246
vt 0.141566 0.854939
vt 0.000000 0.854939
vt 0.000000 0.763605
vt 0.141566 0.763605
vt 0.265060 0.854939
vt 0.265060 0.763605
vt 0.000000 0.000000
vt 0.141566 1.000000
vt 0.000000 1.000000
vt 1.000000 1.000000
vt 0.650602 1.000000
vt 0.265060 0.561655
vt 0.399131 0.437641
vt 0.607061 0.578480
vt 0.766528 0.578480
vt 0.607061 0.519474
vn 0.0000 1.0000 0.0000
s off
f 13/1/1 15/2/1 11/3/1 10/4/1 3/5/1
f 34/6/1 14/7/1 7/8/1 33/9/1
f 18/10/1 17/11/1 8/12/1 11/3/1 15/2/1
f 8/12/1 55/13/1 12/14/1 9/15/1 6/16/1 10/4/1 11/3/1
f 55/13/1 56/17/1 19/18/1 12/14/1
f 35/19/1 16/20/1 14/7/1 34/6/1
f 36/21/1 20/22/1 16/20/1 35/19/1
f 27/23/1 25/24/1 46/25/1 45/26/1 29/27/1 17/11/1 18/10/1
f 52/28/1 47/29/1 21/30/1 39/31/1 43/32/1
f 37/33/1 24/34/1 20/22/1 36/21/1
f 48/35/1 28/36/1 25/24/1 27/23/1
f 54/37/1 52/28/1 43/32/1 41/38/1 49/39/1 53/40/1
f 47/29/1 48/35/1 27/23/1 18/10/1 15/2/1 13/1/1 21/30/1
f 44/41/1 40/42/1 30/43/1 38/44/1
f 42/45/1 44/41/1 38/44/1 31/46/1
f 9/15/1 33/9/1 7/8/1 4/47/1 6/16/1
f 32/48/1 2/49/1 40/42/1 44/41/1
f 1/50/1 5/51/1 41/38/1 43/32/1 39/31/1
f 31/46/1 38/44/1 30/43/1 24/34/1 37/33/1 26/52/1
f 45/26/1 23/53/1 19/18/1 56/17/1 29/27/1
f 54/37/1 53/40/1 50/54/1 51/55/1
f 52/28/1 54/37/1 51/55/1 48/35/1 47/29/1
f 51/55/1 50/54/1 22/56/1 28/36/1 48/35/1
f 17/11/1 29/27/1 56/17/1 55/13/1 8/12/1
