# Blender v2.79 (sub 0) OBJ File: 'PathMesh.blend'
# www.blender.org
o Plane
v -7.419984 -0.000001 23.720087
v 47.571602 0.000000 24.267817
v -7.270078 0.000000 -7.270078
v 47.571602 0.000000 -7.270078
v 20.150761 0.000000 -58.641544
v 20.150761 0.000000 -7.270078
v 47.571602 0.000000 -58.641544
v -7.270078 0.000000 -58.641544
v 92.404877 0.000000 24.267817
v 92.404877 0.000000 -58.641544
v 312.331696 0.000000 24.267817
v 312.331696 0.000000 -58.641544
v 179.459244 0.000000 -158.974747
v 312.331696 0.000000 -259.307953
v 179.459244 0.000000 -58.641544
v 179.459244 0.000000 -259.307953
v 92.404861 0.000000 -158.974747
v 202.368286 0.000000 24.267817
v 312.331696 0.000000 199.219635
v 202.368286 0.000000 199.219635
v 558.209900 0.000000 24.267817
v 558.209900 0.000000 -58.641544
v 312.456024 -0.000000 -431.943146
v 179.583557 -0.000000 -431.943146
v 311.266357 -0.000000 -345.625580
v 650.989624 -0.000000 -428.558167
v 650.832092 -0.000000 -342.240570
v 315.843567 -0.000000 -690.331787
v 182.971100 -0.000000 -690.331787
v 523.330261 -0.000000 -343.933075
v 646.770081 -0.000000 -178.406387
v 519.268250 -0.000000 -180.098892
v 315.841034 -0.000000 -561.137451
v 811.055542 -133.757294 -686.269775
v 807.670593 -133.757294 -557.075439
v 182.968582 -0.000000 -561.137451
v 31.781002 -0.000000 -431.943146
v 35.166027 -0.000000 -561.137451
v 877.672485 -133.757294 -683.020142
v 874.287476 -133.757294 -553.825867
v 796.296936 -133.757294 -58.261185
v 862.913818 -133.757294 -55.011581
v 792.911926 -133.757294 32.005604
v 859.528809 -133.757294 35.255207
v 178.393890 -0.000000 -345.625580
v -194.001572 -127.355354 -693.382568
v -194.063751 -127.355354 -817.126465
v -88.079254 -127.355354 -817.126465
v -88.017082 -127.355354 -693.382568
v 318.551575 -0.000000 -827.085999
v 185.679108 -0.000000 -827.085999
v -84.374451 -127.355354 -259.307953
v -85.439812 -127.355354 -345.625580
v -193.741409 -127.355354 -259.307953
v -194.806763 -127.355354 -345.625580
vt 0.085100 0.462795
vt 0.100462 0.462822
vt 0.100441 0.478141
vt 0.125464 0.478186
vt 0.125443 0.493505
vt 0.100420 0.493459
vt 0.125519 0.437822
vt 0.085134 0.437749
vt 0.223432 0.315137
vt 0.223330 0.389365
vt 0.174458 0.389277
vt 0.085219 0.376318
vt 0.125688 0.314960
vt 0.125586 0.389189
vt 0.174391 0.437910
vt 0.000084 0.314733
vt 0.085303 0.314887
vt 0.125876 0.177601
vt 0.265476 0.315808
vt 0.307420 0.389448
vt 0.265374 0.390037
vt 0.264814 0.197338
vt 0.264087 0.126108
vt 0.306132 0.126095
vt 0.370353 0.387671
vt 0.370455 0.313442
vt 0.433283 0.387783
vt 0.184281 0.128233
vt 0.433385 0.313554
vt 0.368814 0.038996
vt 0.431747 0.037218
vt 0.370240 0.470240
vt 0.307307 0.472017
vt 0.430215 0.000000
vt 0.367282 0.001777
vt 0.125834 0.044910
vt 0.124302 0.007692
vt 0.081863 0.046722
vt 0.080331 0.009504
vt 0.085491 0.177528
vt 0.223091 0.537056
vt 0.494799 0.539617
vt 0.434443 0.598681
vt 0.434524 0.539473
vt 0.499898 0.386390
vt 0.265135 0.537728
vt 0.223007 0.598154
vt 0.265051 0.598825
vt 0.085325 0.493516
vt 0.125485 0.462867
vt 0.000000 0.376164
vt 0.307522 0.315219
vt 0.185008 0.199463
vt 0.494718 0.598825
vt 0.499999 0.312162
vn 0.0000 1.0000 0.0000
vn 0.2607 0.9654 0.0068
vn 0.4951 0.8688 0.0000
vn -0.4347 0.9006 0.0054
vn -0.4253 0.9050 0.0002
vn 0.2624 0.9650 0.0000
vn 0.4897 0.8717 0.0184
vn -0.4220 0.9065 -0.0084
s off
f 2/1/1 4/2/1 6/3/1
f 4/2/1 5/4/1 6/3/1
f 6/3/1 8/5/1 3/6/1
f 10/7/1 4/2/1 9/8/1
f 14/9/1 16/10/1 13/11/1
f 18/12/1 12/13/1 15/14/1
f 10/7/1 13/11/1 17/15/1
f 18/12/1 19/16/1 11/17/1
f 11/17/1 22/18/1 12/13/1
f 25/19/1 24/20/1 45/21/1
f 30/22/1 27/23/1 26/24/1
f 36/25/1 33/26/1 29/27/1
f 30/22/1 31/28/1 27/23/1
f 28/29/2 35/30/2 34/31/2
f 24/20/1 38/32/1 37/33/1
f 35/30/1 39/34/1 34/31/1
f 40/35/1 41/36/1 42/37/1
f 42/37/1 43/38/1 44/39/1
f 43/38/3 22/18/3 21/40/3
f 45/21/4 52/41/4 16/10/4
f 48/42/1 46/43/1 49/44/1
f 28/29/1 51/45/1 29/27/1
f 29/27/5 48/42/5 49/44/5
f 53/46/1 54/47/1 52/41/1
f 55/48/1 49/44/1 46/43/1
f 3/6/1 1/49/1 6/3/1
f 1/49/1 2/1/1 6/3/1
f 4/2/1 7/50/1 5/4/1
f 6/3/1 5/4/1 8/5/1
f 7/50/1 4/2/1 10/7/1
f 4/2/1 2/1/1 9/8/1
f 13/11/1 15/14/1 12/13/1
f 12/13/1 14/9/1 13/11/1
f 15/14/1 10/7/1 9/8/1
f 18/12/1 11/17/1 12/13/1
f 15/14/1 9/8/1 18/12/1
f 10/7/1 15/14/1 13/11/1
f 18/12/1 20/51/1 19/16/1
f 11/17/1 21/40/1 22/18/1
f 45/21/1 16/10/1 25/19/1
f 16/10/1 14/9/1 25/19/1
f 25/19/1 23/52/1 24/20/1
f 26/24/1 23/52/1 30/22/1
f 23/52/1 25/19/1 30/22/1
f 36/25/1 24/20/1 23/52/1
f 23/52/1 33/26/1 36/25/1
f 33/26/1 28/29/1 29/27/1
f 30/22/1 32/53/1 31/28/1
f 28/29/6 33/26/6 35/30/6
f 24/20/1 36/25/1 38/32/1
f 35/30/1 40/35/1 39/34/1
f 40/35/1 35/30/1 41/36/1
f 42/37/1 41/36/1 43/38/1
f 43/38/7 41/36/7 22/18/7
f 45/21/4 53/46/4 52/41/4
f 48/42/1 47/54/1 46/43/1
f 28/29/1 50/55/1 51/45/1
f 29/27/8 51/45/8 48/42/8
f 53/46/1 55/48/1 54/47/1
f 55/48/1 53/46/1 49/44/1
