# Blender v2.79 (sub 6) OBJ File: 'PROTOTIPO_CIUDAD.blend'
# www.blender.org
o Plane_Plane.011
v 101.403976 -22.344875 -406.727905
v -193.508759 -22.344875 -406.727905
v -228.216476 -22.344875 -406.727905
v -239.534821 -22.344875 -406.727905
v -274.638397 -22.344875 -406.727905
v -220.918060 -22.344875 -310.846924
v -269.284149 -22.344875 -310.846924
v -306.870605 -22.344875 -406.727905
v -312.521851 -22.344875 -406.727905
v -328.358704 -22.344875 110.389145
v -328.358704 -22.344875 97.676163
v -328.358704 -22.344875 84.963181
v -317.614624 -22.344875 110.389145
v -317.614624 -22.344875 84.963181
v -317.614624 -22.344875 72.250183
v -312.521851 -22.344875 -398.130402
v -306.870575 -22.344875 123.102127
v -306.870575 -22.344875 110.389145
v -306.870575 -22.344875 72.250183
v -306.870575 -22.344875 59.537197
v -307.876953 -22.344875 -314.401794
v -307.876953 -22.344875 -334.565491
v -286.137207 -22.344875 -334.565491
v -286.137238 -22.344875 -314.401794
v -269.284149 -22.344875 -314.401794
v -269.284180 -22.344875 -334.565491
v -307.876984 -22.344875 -398.130402
v -296.126495 -22.344875 72.250183
v -296.126495 -22.344875 59.537197
v -296.126495 -22.344875 46.824211
v -296.126495 -22.344875 -271.000519
v -296.126495 -22.344875 -283.713531
v -286.137238 -22.344875 -310.846924
v -285.382446 -22.344875 123.102127
v -285.382446 -22.344875 110.389145
v -285.382446 -22.344875 72.250183
v -285.382446 -22.344875 46.824211
v -285.382446 -22.344875 8.685246
v -285.382446 -22.344875 -249.651123
v -285.382446 -22.344875 -258.287537
v -285.382446 -22.344875 -271.000519
v -307.876953 -22.344875 -310.846924
v -274.638367 -22.344875 8.685246
v -274.638367 -22.344875 -29.453718
v -271.369965 -22.344875 -249.651123
v -274.682343 -22.344875 -249.651123
v -274.682343 -22.344875 -232.861557
v -274.638397 -22.344875 -334.565491
v -263.894287 -22.344875 135.815109
v -263.894287 -22.344875 123.102127
v -263.894287 -22.344875 -29.453718
v -263.894287 -22.344875 -67.592682
v -263.894287 -22.344875 -105.731636
v -263.894287 -22.344875 -156.583603
v -263.894287 -22.344875 -169.296600
v -263.894287 -22.344875 -182.009598
v -263.894318 -22.344875 -194.722580
v -263.894318 -22.344875 -215.066071
v -263.894318 -22.344875 -220.148560
v -271.369995 -22.344875 -271.000519
v -263.894318 -22.344875 -283.713531
v -263.894318 -22.344875 -296.426514
v -253.150238 -22.344875 -105.731636
v -253.150253 -22.344875 -131.157623
v -253.150253 -22.344875 -156.583603
v -248.760101 -22.344875 -215.066071
v -248.760101 -22.344875 -220.148560
v -248.760101 -22.344875 -232.861557
v -248.760101 -22.344875 -249.651123
v -242.406189 -22.344875 -232.861557
v -242.406189 -22.344875 -249.651123
v -242.406189 -22.344875 -255.317886
v -242.406189 -22.344875 -271.000519
v -242.406189 -22.344875 -283.713531
v -239.534805 -22.344875 -334.565491
v -231.662109 -22.344875 135.815109
v -231.662109 -22.344875 123.102127
v -231.662125 -22.344875 -182.009598
v -231.662125 -22.344875 -194.722580
v -231.662125 -22.344875 -215.066071
v -231.662125 -22.344875 -220.148560
v -228.216461 -22.344875 -334.565491
v -220.918030 -22.344875 123.102127
v -220.918045 -22.344875 8.685246
v -220.918045 -22.344875 -29.453718
v -220.918045 -22.344875 -67.592682
v -220.918060 -22.344875 -296.426514
v -220.918060 -22.344875 -314.401794
v -220.918060 -22.344875 -334.565491
v -210.173981 -22.344875 -67.592682
v -210.173981 -22.344875 -105.731636
v -210.173981 -22.344875 -131.157623
v -216.132050 -22.344875 -220.148560
v -216.132050 -22.344875 -232.861557
v -199.429916 -22.344875 -131.157623
v -199.429916 -22.344875 -156.583603
v -193.707779 -22.344875 -232.861557
v -193.707779 -22.344875 -271.000519
v -193.508759 -22.344875 -334.565491
v -193.508759 -22.344875 -347.278473
v -188.685822 -22.344875 -156.583603
v -188.685822 -22.344875 -169.296600
v -188.685837 -22.344875 -182.009598
v -188.685837 -22.344875 -220.148560
v -188.685837 -22.344875 -232.861557
v -81.245132 -22.344875 -232.861557
v -81.245132 -22.344875 -271.000519
v -81.245178 -22.344875 -347.278473
v -16.780685 -22.344875 -220.148560
v -16.780685 -22.344875 -232.861557
v 4.707458 -22.344875 -201.079071
v -6.036621 -22.344875 -220.148560
v -6.036621 -22.344875 -232.861557
v -6.036652 -22.344875 -296.426514
v -6.036682 -22.344875 -338.415283
v -6.036682 -22.344875 -347.278473
v 4.707458 -22.344875 -194.722580
v 4.707458 -22.344875 -220.148560
v 4.707443 -22.344875 -232.861557
v 4.707428 -22.344875 -258.287537
v 4.707397 -22.344875 -296.426514
v 4.707382 -22.344875 -338.415283
v 4.707367 -22.344875 -347.278473
v -6.036591 -22.344875 -201.079071
v 36.939682 -22.344875 -194.722580
v 36.939682 -22.344875 -258.287537
v 36.939682 -22.344875 -271.000519
v 71.610489 -22.344875 -175.009964
v 71.610489 -22.344875 -194.722580
v 34.681686 -22.344875 -347.278473
v 96.375870 -22.344875 -29.453718
v 96.375870 -22.344875 -95.538521
v 101.404129 -22.344875 -194.722580
v 101.404129 -22.344875 -271.000519
v 101.404068 -22.344875 -347.278473
v 96.375839 -22.344875 -116.974709
v 112.148209 -22.344875 -131.157623
v 112.148209 -22.344875 -143.870621
v 112.148209 -22.344875 -156.583603
v 112.148209 -22.344875 -169.296600
v 96.375839 -22.344875 -169.296600
v 96.375839 -22.344875 -175.009964
v 122.892288 -22.344875 -24.405323
v 122.892288 -22.344875 -29.453718
v 122.892288 -22.344875 -95.538521
v 115.332596 -22.344875 -169.296600
v 122.892288 -22.344875 -169.296600
v 96.375839 -22.344875 -194.722580
v 122.892288 -22.344875 -194.722580
v 167.373795 -22.344875 -34.966476
v 167.373795 -22.344875 -41.044510
v 144.380417 -22.344875 -24.405323
v 144.380417 -22.344875 -28.724590
v 144.380417 -22.344875 -43.770790
v 155.124466 -22.344875 -28.724590
v 155.124466 -22.344875 -43.770790
v 167.373795 -22.344875 -32.893700
v 167.373795 -22.344875 -42.050797
v 155.124466 -22.344875 -42.050797
v 155.124466 -22.344875 -32.893700
v 208.844772 -22.344875 -95.538521
v 208.844772 -22.344875 -116.974709
v 201.546951 -22.344875 -116.974709
v -269.152130 -22.344875 -220.148560
v -269.152130 -22.344875 -232.861557
v -248.760101 -22.344875 -255.317886
v 4.707367 -22.344875 -342.846893
v 34.681686 -22.344875 -342.846893
v 96.375839 -22.344875 -156.583603
v 96.375839 -22.344875 -143.870621
v 96.375839 -22.344875 -131.157623
v 115.332565 -22.344875 -156.583603
v 107.061813 -22.344875 -116.974709
v 107.061813 -22.344875 -131.157623
v 208.844772 -22.344875 -149.984955
v 201.546951 -22.344875 -149.984955
v 204.320938 -22.344875 -149.984955
v 208.844772 -22.344875 -170.997559
v 204.320938 -22.344875 -170.997559
v 193.727036 -22.344875 -95.538521
v 203.910751 -21.854927 -95.538521
v 193.727036 -22.344875 -68.385803
v 203.910751 -21.854927 -68.385803
v 198.818893 -22.099901 -68.385803
v 193.727036 -22.344875 -37.883953
v 198.818893 -22.099901 -37.883953
v 198.818893 -22.099901 -53.134876
v 201.364822 -21.977415 -68.385803
v 201.364853 -21.977415 -53.134876
v 122.892288 -22.344875 -46.249641
v 144.380417 -22.344875 -46.249634
v 172.662582 -22.344875 -34.966476
v 172.662582 -22.344875 -41.044510
v 172.662582 -22.344875 -40.000313
v 172.662582 -22.344875 -35.954033
v 179.877640 -22.344875 -40.000313
v 179.877640 -22.344875 -35.954033
v 204.854446 -22.344875 -406.727905
v 204.854446 -22.344875 -194.722580
v -245.101105 -22.344875 -310.846924
v -269.284149 -22.344875 -307.290527
v -245.101105 -22.344875 -307.290527
v -220.918060 -22.344875 -330.296631
v -193.508759 -22.344875 -330.296661
v -81.245178 -22.344875 -406.727905
vt 0.753280 0.015847
vt 0.746569 0.015847
vt 0.745115 0.000000
vt 0.753280 0.000000
vt 0.620929 0.170173
vt 0.690809 0.170173
vt 0.690809 0.176725
vt 0.655869 0.176725
vt 0.620929 0.176725
vt 0.077616 0.672163
vt 0.077616 0.689041
vt 0.059918 0.689041
vt 0.059918 0.685220
vt 0.059918 0.674017
vt 0.059918 0.672163
vt 0.093139 0.696725
vt 0.077616 0.696725
vt 0.077616 0.668992
vt 0.093139 0.668992
vt 0.124186 0.704686
vt 0.093139 0.704686
vt 0.093139 0.664423
vt 0.124186 0.664424
vt 0.124186 0.695381
vt 0.124186 0.573576
vt 0.162497 0.573576
vt 0.162497 0.695381
vt 0.135108 0.461059
vt 0.135108 0.437627
vt 0.139709 0.437627
vt 0.139709 0.461059
vt 0.124186 0.437627
vt 0.124186 0.390762
vt 0.155232 0.390762
vt 0.162497 0.390762
vt 0.162497 0.427096
vt 0.162497 0.437627
vt 0.162497 0.461059
vt 0.162497 0.484491
vt 0.139709 0.484491
vt 0.155232 0.250169
vt 0.248372 0.250169
vt 0.248372 0.273601
vt 0.248372 0.390762
vt 0.198279 0.390762
vt 0.155232 0.000000
vt 0.368280 0.000000
vt 0.581328 0.000000
vt 0.581328 0.109575
vt 0.419127 0.109576
vt 0.310465 0.109576
vt 0.294941 0.109576
vt 0.251634 0.109576
vt 0.155232 0.109576
vt 0.162497 0.507923
vt 0.147058 0.507923
vt 0.139709 0.507923
vt 0.294941 0.273601
vt 0.294941 0.320466
vt 0.294941 0.343898
vt 0.294941 0.379046
vt 0.294941 0.390762
vt 0.325988 0.343898
vt 0.310465 0.343898
vt 0.310465 0.320466
vt 0.325988 0.320466
vt 0.294941 0.203305
vt 0.310465 0.203305
vt 0.310465 0.125912
vt 0.294941 0.125912
vt 0.294941 0.117744
vt 0.419127 0.250169
vt 0.419127 0.320466
vt 0.589883 0.250169
vt 0.589883 0.320466
vt 0.574359 0.320466
vt 0.636452 0.414194
vt 0.683022 0.414194
vt 0.683022 0.437627
vt 0.683022 0.461059
vt 0.667499 0.461059
vt 0.589883 0.461059
vt 0.574359 0.461059
vt 0.574359 0.437627
vt 0.574359 0.414195
vt 0.605406 0.343898
vt 0.636452 0.343898
vt 0.636452 0.367330
vt 0.636452 0.390762
vt 0.574359 0.343898
vt 0.667499 0.507923
vt 0.605406 0.507923
vt 0.589883 0.507923
vt 0.631474 0.000000
vt 0.631474 0.133008
vt 0.620929 0.133008
vt 0.581328 0.133008
vt 0.605406 0.554788
vt 0.667499 0.554788
vt 0.683022 0.554788
vt 0.683022 0.625085
vt 0.620929 0.625085
vt 0.605406 0.625085
vt 0.620929 0.765678
vt 0.698545 0.765678
vt 0.714068 0.765678
vt 0.714068 0.835974
vt 0.714068 0.882839
vt 0.714068 0.953136
vt 0.714068 0.976568
vt 0.683022 0.976568
vt 0.636452 0.976568
vt 0.620929 0.976568
vt 0.620929 0.695381
vt 0.683022 0.695381
vt 0.698545 0.695381
vt 0.690809 0.133008
vt 0.620929 0.140876
vt 0.647827 0.133008
vt 0.636452 1.000000
vt 0.683022 1.000000
vt 0.647827 0.000000
vt 0.683022 0.390762
vt 0.667499 0.367330
vt 0.683022 0.367330
vt 0.667499 0.320466
vt 0.651976 0.320466
vt 0.651976 0.297033
vt 0.667499 0.297033
vt 0.698545 0.000000
vt 0.698545 0.133008
vt 0.729592 0.835974
vt 0.729592 0.859407
vt 0.729592 0.882839
vt 0.667499 0.343898
vt 0.683022 0.343898
vt 0.693823 0.297033
vt 0.698609 0.297033
vt 0.698609 0.320466
vt 0.690619 0.320466
vt 0.729592 0.250169
vt 0.714068 0.250169
vt 0.693823 0.250169
vt 0.651976 0.250169
vt 0.651976 0.226737
vt 0.683022 0.226737
vt 0.729592 0.226737
vt 0.605406 0.320466
vt 0.746569 0.133008
vt 0.715159 0.133008
vt 0.745115 0.882839
vt 0.760638 0.882839
vt 0.760638 0.906271
vt 0.760638 0.953136
vt 0.745115 0.953136
vt 0.776161 0.906271
vt 0.776161 0.929703
vt 0.776161 0.953136
vt 0.745115 0.859407
vt 0.715159 0.170173
vt 0.746569 0.170173
vt 0.746569 0.176725
vt 0.715159 0.176725
vt 0.745115 0.976568
vt 0.005765 0.000000
vt 0.005765 0.390762
vt 0.714068 0.273601
vt 0.714068 0.297033
vt 0.690619 0.343898
vt 0.667499 0.282350
vt 0.651976 0.282350
vt 0.310465 0.379046
vt 0.251634 0.117744
vt 0.021842 0.573576
vt 0.007127 0.573576
vt 0.000000 0.573576
vt 0.000000 0.534065
vt 0.010544 0.534065
vt 0.147058 0.534065
vt 0.162497 0.534065
vt 0.198279 0.427096
vt 0.000000 0.473222
vt 0.006536 0.473221
vt 0.010544 0.473222
vt 0.000000 0.420540
vt 0.006536 0.420540
vt 0.021842 0.623623
vt 0.014485 0.623623
vt 0.010806 0.623623
vt 0.007127 0.623623
vt 0.021842 0.679843
vt 0.014485 0.679843
vt 0.014485 0.651733
vt 0.010806 0.651733
vt 0.052277 0.685220
vt 0.052277 0.683400
vt 0.052277 0.675942
vt 0.052277 0.674017
vt 0.041852 0.683400
vt 0.041852 0.675942
vt 0.690809 0.183280
vt 0.655869 0.183280
vt 0.581328 0.140876
vt 0.620929 0.203304
vt 0.683022 0.203304
vn 0.0000 1.0000 0.0000
vn 0.0000 1.0000 -0.0015
vn -0.0481 0.9988 0.0000
s off
f 16/1/1 27/2/1 8/3/1 9/4/1
f 88/5/1 25/6/1 7/7/1 200/8/1 6/9/1
f 159/10/1 160/11/1 157/12/1 150/13/1 151/14/1 158/15/1
f 153/16/1 155/17/1 160/11/1 159/10/1 156/18/1 154/19/1
f 143/20/1 152/21/1 153/16/1 154/19/1 191/22/1 190/23/1 144/24/1
f 144/24/1 190/23/1 145/25/1 132/26/1 131/27/1
f 172/28/1 146/29/1 140/30/1 139/31/1
f 147/32/1 149/33/1 133/34/1 148/35/1 142/36/1 141/37/1 140/30/1 146/29/1
f 139/31/1 169/38/1 170/39/1 138/40/1
f 141/37/1 169/38/1 139/31/1 140/30/1
f 134/41/1 127/42/1 126/43/1 125/44/1 129/45/1 148/35/1 133/34/1
f 1/46/1 205/47/1 2/48/1 100/49/1 108/50/1 116/51/1 123/52/1 130/53/1 135/54/1
f 138/40/1 170/39/1 171/55/1 174/56/1 137/57/1
f 125/44/1 126/43/1 120/58/1 119/59/1 118/60/1 111/61/1 117/62/1
f 109/63/1 112/64/1 118/60/1 119/59/1 113/65/1 110/66/1
f 119/59/1 120/58/1 121/67/1 114/68/1 113/65/1
f 115/69/1 122/70/1 167/71/1 123/52/1 116/51/1
f 116/51/1 108/50/1 107/72/1 106/73/1 110/66/1 113/65/1 114/68/1 115/69/1
f 107/72/1 98/74/1 97/75/1 105/76/1 106/73/1
f 78/77/1 56/78/1 55/79/1 54/80/1 65/81/1 96/82/1 101/83/1 102/84/1 103/85/1
f 93/86/1 81/87/1 80/88/1 79/89/1 78/77/1 103/85/1 104/90/1
f 96/82/1 65/81/1 64/91/1 92/92/1 95/93/1
f 2/48/1 3/94/1 82/95/1 89/96/1 99/97/1 100/49/1
f 91/98/1 63/99/1 53/100/1 52/101/1 86/102/1 90/103/1
f 92/92/1 64/91/1 63/99/1 91/98/1
f 84/104/1 43/105/1 38/106/1 37/107/1 36/108/1 35/109/1 34/110/1 50/111/1 77/112/1 83/113/1
f 85/114/1 51/115/1 44/116/1 43/105/1 84/104/1
f 86/102/1 52/101/1 51/115/1 85/114/1
f 26/117/1 25/6/1 88/5/1 203/118/1 89/96/1 82/95/1 75/119/1
f 76/120/1 77/112/1 50/111/1 49/121/1
f 82/95/1 3/94/1 4/122/1 75/119/1
f 57/123/1 79/89/1 80/88/1 66/124/1 58/125/1
f 68/126/1 70/127/1 71/128/1 69/129/1
f 4/122/1 5/130/1 48/131/1 26/117/1 75/119/1
f 36/108/1 37/107/1 30/132/1 29/133/1 28/134/1
f 58/125/1 66/124/1 67/135/1 59/136/1
f 68/126/1 69/129/1 45/137/1 46/138/1 47/139/1 165/140/1
f 31/141/1 41/142/1 60/143/1 73/144/1 74/145/1 61/146/1 32/147/1
f 93/86/1 104/90/1 105/76/1 97/75/1 94/148/1
f 5/130/1 8/3/1 27/2/1 22/149/1 23/150/1 48/131/1
f 28/134/1 19/151/1 15/152/1 14/153/1 13/154/1 18/155/1 35/109/1 36/108/1
f 13/154/1 14/153/1 12/156/1 11/157/1 10/158/1
f 19/151/1 28/134/1 29/133/1 20/159/1
f 24/160/1 21/161/1 42/162/1 33/163/1
f 48/131/1 23/150/1 24/160/1 25/6/1 26/117/1
f 23/150/1 22/149/1 21/161/1 24/160/1
f 17/164/1 34/110/1 35/109/1 18/155/1
f 198/165/1 1/46/1 135/54/1 134/41/1 133/34/1 149/33/1 199/166/1
f 46/138/1 45/137/1 60/143/1 41/142/1 40/167/1 39/168/1
f 67/135/1 68/126/1 165/140/1 164/169/1 59/136/1
f 166/170/1 69/129/1 71/128/1 72/171/1
f 111/61/1 118/60/1 112/64/1 124/172/1
f 168/173/1 130/53/1 123/52/1 167/71/1
f 132/26/2 145/25/2 180/174/2 181/175/2 161/176/2 162/177/2 163/178/2 173/179/2 136/180/2
f 128/181/1 142/36/1 148/35/1 129/45/1
f 173/179/1 174/56/1 171/55/1 136/180/1
f 163/178/1 162/177/1 175/182/1 177/183/1 176/184/1
f 177/183/1 175/182/1 178/185/1 179/186/1
f 181/175/3 180/174/3 182/187/3 184/188/3 188/189/3 183/190/3
f 184/188/3 182/187/3 185/191/3 186/192/3 187/193/3
f 188/189/3 184/188/3 187/193/3 189/194/3
f 151/14/1 150/13/1 192/195/1 195/196/1 194/197/1 193/198/1
f 194/197/1 195/196/1 197/199/1 196/200/1
f 200/8/1 7/7/1 201/201/1 202/202/1
f 204/203/1 99/97/1 89/96/1 203/118/1
f 61/146/1 74/145/1 73/144/1 72/171/1 71/128/1 70/127/1 94/148/1 97/75/1 98/74/1 87/204/1 62/205/1
