# Blender v2.79 (sub 0) OBJ File: 'PROTOTIPO_CIUDAD.blend'
# www.blender.org
o Plane.001_Plane.012
v -270.344147 3.851300 620.567932
v -220.313293 3.851300 620.567932
v -287.441223 3.851300 620.567932
v -287.441223 3.851300 574.647522
v -287.441223 3.851300 601.651245
v -315.251770 3.851300 574.647522
v -315.251770 3.851300 601.651245
v -301.346497 3.851300 601.651245
v -287.441223 3.851300 610.255737
v -301.346497 3.851300 610.255737
v -270.344147 3.851300 456.524475
v -229.101242 3.851300 456.524475
v -270.344147 3.851300 546.197937
v -287.441223 3.851300 546.197937
v -287.441223 3.851300 560.422729
v -305.449738 3.851300 574.647522
v -305.449738 3.851300 560.422729
v -305.449738 3.851300 567.535156
v -310.350739 3.851300 574.647522
v -310.350739 3.851300 567.535156
v -315.251770 3.851300 578.105347
v -315.251770 3.851300 598.174988
v -325.265198 3.851300 578.105347
v -325.265198 3.851300 598.174988
v -296.445496 3.851300 560.422729
v -287.441223 3.851300 551.464233
v -296.445496 4.949485 551.464233
v -278.892700 3.851300 546.197937
v -270.344147 3.851300 488.971222
v -278.892700 3.851300 488.971252
v -283.166962 3.851300 546.197937
v -278.892700 3.851300 517.592834
v -283.166962 3.851300 517.592834
v -283.166962 3.851300 539.146973
v -287.441223 3.851300 539.146912
v -258.924683 3.851300 456.524475
v -229.101242 3.851300 310.651855
v -258.924683 3.851300 310.651855
v -206.583893 3.851300 456.524475
v -206.583893 3.851300 310.651855
v -189.659302 3.851300 270.204041
v -189.659302 3.851300 310.651855
v -206.583893 3.851300 345.170074
v -189.659302 3.851300 345.170074
v -229.101242 3.851300 296.193268
v -229.101242 3.851300 276.256836
v -264.422302 3.851300 296.193268
v -264.422302 3.851300 276.256836
v -229.101242 3.851300 270.204041
v -246.761765 3.851300 276.256836
v -189.659302 3.851300 214.511566
v -246.761765 3.851300 240.083801
v -270.392303 3.851300 276.256836
v -270.392303 3.851300 240.083801
v -270.392303 3.851300 258.170319
v -276.978638 3.851300 240.083801
v -276.978638 3.851300 258.170319
v -246.761765 3.851300 258.170319
v -189.659302 3.851300 255.524506
v -215.241287 3.851300 258.170319
v -215.241287 3.851300 270.204041
v -215.241287 3.851300 234.028229
v -246.761765 3.851300 234.028229
v -240.876709 3.851300 234.028229
v -215.241287 3.851300 191.507935
v -240.876709 3.851300 191.507935
v -240.876709 3.851300 219.970306
v -240.876709 3.851300 199.632904
v -262.839172 1.414660 219.970306
v -262.839172 1.414660 199.632904
v -262.839172 1.414660 203.284302
v -288.835968 1.414660 219.970306
v -288.835968 1.414660 203.284302
v -262.839172 1.414660 227.453064
v -288.835968 1.414660 227.453064
v -215.241287 3.851300 203.936646
v -189.659302 3.851300 203.936646
v -23.587723 3.851300 214.511566
v -23.587723 3.851300 255.524506
vn 0.0000 1.0000 -0.0000
vn 0.0608 0.9963 0.0611
vn -0.1103 0.9939 0.0000
s off
f 1//1 13//1 28//1 31//1 14//1 26//1 15//1 4//1 5//1 9//1 3//1
f 5//1 4//1 16//1 19//1 6//1 21//1 22//1 7//1 8//1
f 5//1 8//1 10//1 9//1
f 12//1 39//1 43//1 40//1 37//1 38//1 36//1
f 17//1 18//1 16//1 4//1 15//1 25//1
f 20//1 19//1 16//1 18//1
f 22//1 21//1 23//1 24//1
f 27//2 25//2 15//2 26//2
f 30//1 32//1 28//1 13//1 29//1
f 33//1 34//1 31//1 28//1 32//1
f 14//1 31//1 34//1 35//1
f 44//1 42//1 40//1 43//1
f 2//1 12//1 36//1 11//1 29//1 13//1 1//1
f 45//1 46//1 50//1 48//1 47//1
f 55//1 54//1 56//1 57//1
f 52//1 54//1 55//1 53//1 48//1 50//1 58//1
f 40//1 42//1 41//1 61//1 49//1 46//1 45//1 37//1
f 62//1 60//1 61//1 41//1 59//1 51//1 77//1 76//1
f 64//1 62//1 76//1 65//1 66//1 68//1 67//1
f 67//3 68//3 70//3 71//3 69//3
f 69//1 71//1 73//1 72//1
f 69//1 72//1 75//1 74//1
f 60//1 62//1 64//1 63//1 52//1 58//1
f 51//1 59//1 79//1 78//1
