# Blender v2.79 (sub 0) OBJ File: 'Test.blend'
# www.blender.org
o Plane
v -7.419984 -0.000001 23.720087
v 47.571602 0.000000 24.267817
v -7.270078 0.000000 -7.270078
v 47.571602 0.000000 -7.270078
v 20.150761 0.000000 -58.641544
v 20.150761 0.000000 -7.270078
v 47.571602 0.000000 -58.641544
v -7.270078 0.000000 -58.641544
v 92.404877 0.000000 24.267817
v 92.404877 0.000000 -58.641544
v 312.331696 0.000000 24.267817
v 312.331696 0.000000 -58.641544
v 179.459244 0.000000 -158.974747
v 312.331696 0.000000 -259.307953
v 179.459244 0.000000 -58.641544
v 179.459244 0.000000 -259.307953
v 92.404861 0.000000 -158.974747
v 202.368286 0.000000 24.267817
v 312.331696 0.000000 199.219635
v 202.368286 0.000000 199.219635
v 558.209900 0.000000 24.267817
v 558.209900 0.000000 -58.641544
v 479.325256 -0.000000 -431.943146
v 346.452759 -0.000000 -431.943146
v 395.828461 -0.000000 -345.625580
v 734.328857 -0.000000 -428.558167
v 650.832092 -0.000000 -342.240570
v 486.095245 -0.000000 -690.331787
v 353.222778 -0.000000 -690.331787
v 523.330261 -0.000000 -343.933075
v 646.770081 -0.000000 -178.406387
v 519.268250 -0.000000 -180.098892
v 482.710236 -0.000000 -561.137451
v 811.055542 0.000000 -686.269775
v 807.670593 0.000000 -557.075439
v 349.837799 -0.000000 -561.137451
v 211.052628 -0.000000 -431.943146
v 214.437653 -0.000000 -561.137451
v 877.672485 0.000000 -683.020142
v 874.287476 0.000000 -553.825867
v 796.296936 0.000000 -58.261185
v 862.913818 0.000000 -55.011581
v 792.911926 0.000000 32.005604
v 859.528809 0.000000 35.255207
v 262.955994 -0.000000 -345.625580
v -127.899185 0.000000 -259.307953
v -44.402431 -0.000000 -345.625580
v -127.899185 0.000000 -660.092529
v -44.402431 -0.000000 -582.575867
v 49.475060 0.000000 -776.536682
v 132.971817 -0.000000 -699.020020
v 488.803253 -0.000000 -827.085999
v 355.930786 -0.000000 -827.085999
vt 0.880188 0.828999
vt 0.825502 0.829532
vt 0.825502 0.798803
vt 0.852770 0.798803
vt 0.880039 0.798803
vt 0.825502 0.748748
vt 0.852770 0.748748
vt 0.880039 0.748748
vt 0.780917 0.829532
vt 0.780917 0.748748
vt 0.694345 0.748748
vt 0.562208 0.748748
vt 0.562208 0.553225
vt 0.694345 0.553225
vt 0.694345 0.650987
vt 0.671562 0.829532
vt 0.562208 0.829532
vt 0.780917 0.650987
vt 0.671563 1.000000
vt 0.562208 1.000000
vt 0.317693 0.829532
vt 0.317693 0.748748
vt 0.479174 0.469120
vt 0.396140 0.385015
vt 0.528276 0.385015
vt 0.611310 0.469120
vt 0.352379 0.470769
vt 0.225584 0.472418
vt 0.142549 0.388313
vt 0.392774 0.259132
vt 0.389408 0.133249
vt 0.521544 0.133249
vt 0.524910 0.259132
vt 0.356418 0.630404
vt 0.229623 0.632053
vt 0.069614 0.263090
vt 0.066248 0.137207
vt 0.659560 0.259132
vt 0.662926 0.385015
vt 0.003366 0.266256
vt 0.000000 0.140373
vt 0.080925 0.749119
vt 0.014677 0.752285
vt 0.084291 0.837072
vt 0.018043 0.840238
vt 0.916966 0.469120
vt 1.000000 0.553225
vt 0.916966 0.238243
vt 1.000000 0.162713
vt 0.740574 0.124783
vt 0.823608 0.049254
vt 0.386715 0.000000
vt 0.518851 0.000000
vn -0.0000 1.0000 0.0000
s off
f 1/1/1 2/2/1 4/3/1 6/4/1 3/5/1
f 6/4/1 4/3/1 7/6/1 5/7/1
f 3/5/1 6/4/1 5/7/1 8/8/1
f 4/3/1 2/2/1 9/9/1 10/10/1 7/6/1
f 15/11/1 12/12/1 14/13/1 16/14/1 13/15/1
f 10/10/1 9/9/1 18/16/1 11/17/1 12/12/1 15/11/1
f 10/10/1 15/11/1 13/15/1 17/18/1
f 11/17/1 18/16/1 20/19/1 19/20/1
f 12/12/1 11/17/1 21/21/1 22/22/1
f 16/14/1 14/13/1 25/23/1 23/24/1 24/25/1 45/26/1
f 23/24/1 25/23/1 30/27/1 27/28/1 26/29/1
f 24/25/1 23/24/1 33/30/1 28/31/1 29/32/1 36/33/1
f 27/28/1 30/27/1 32/34/1 31/35/1
f 28/31/1 33/30/1 35/36/1 34/37/1
f 24/25/1 36/33/1 38/38/1 37/39/1
f 34/37/1 35/36/1 40/40/1 39/41/1
f 40/40/1 35/36/1 41/42/1 42/43/1
f 42/43/1 41/42/1 43/44/1 44/45/1
f 21/21/1 43/44/1 41/42/1 22/22/1
f 16/14/1 45/26/1 47/46/1 46/47/1
f 46/47/1 47/46/1 49/48/1 48/49/1
f 48/49/1 49/48/1 51/50/1 50/51/1
f 29/32/1 28/31/1 52/52/1 53/53/1
f 51/50/1 29/32/1 53/53/1 50/51/1
