# Blender v2.79 (sub 0) OBJ File: 'PathMesh.blend'
# www.blender.org
o Plane
v -348.852814 81.460670 337.653259
v -293.861237 81.460670 338.200989
v -348.702911 81.460670 306.663116
v -293.861237 81.460670 306.663116
v -321.282074 81.460670 255.291641
v -321.282074 81.460670 306.663116
v -293.861237 81.460670 255.291641
v -348.702911 81.460670 255.291641
v -249.027969 81.460670 338.200989
v -249.027969 81.460670 255.291641
v -29.101141 81.460670 338.200989
v -29.101141 81.460670 255.291641
v -161.973602 81.460670 154.958435
v -29.101141 81.460670 54.625233
v -161.973602 81.460670 255.291641
v -161.973602 81.460670 54.625233
v -249.027969 81.460670 154.958435
v -139.064560 81.460670 338.200989
v -29.101141 81.460670 513.152832
v -139.064560 81.460670 513.152832
v 216.777069 81.460670 338.200989
v 216.777069 81.460670 255.291641
v -28.976812 81.460670 -118.009979
v -161.849289 81.460670 -118.009979
v -30.166481 81.460670 -31.692387
v 309.556763 81.460670 -114.624977
v 309.399231 81.460670 -28.307390
v -25.589293 81.460670 -376.398590
v -158.461746 81.460670 -376.398590
v 181.897415 81.460670 -29.999889
v 305.337219 81.460670 135.526794
v 177.835403 81.460670 133.834290
v -25.591816 81.460670 -247.204285
v 469.622681 -52.296619 -372.336578
v 466.237701 -52.296619 -243.142273
v -158.464264 81.460670 -247.204285
v -309.651855 81.460670 -118.009979
v -306.266815 81.460670 -247.204285
v 536.239624 -52.296619 -369.086975
v 532.854614 -52.296619 -239.892670
v 454.864075 -52.296619 255.671997
v 521.481018 -52.296619 258.921600
v 451.479095 -52.296619 345.938782
v 518.096008 -52.296619 349.188385
v -163.038956 81.460670 -31.692387
v -535.434448 -45.894684 -379.449402
v -535.496582 -45.894684 -503.193268
v -429.512085 -45.894684 -503.193268
v -429.449921 -45.894684 -379.449402
v -22.881262 81.460670 -513.152832
v -155.753738 81.460670 -513.152832
v -425.807312 -45.894684 54.625233
v -426.872650 -45.894684 -31.692387
v -535.174255 -45.894684 54.625233
v -536.239624 -45.894684 -31.692387
vt 0.085325 0.493516
vt 0.085100 0.462795
vt 0.100462 0.462822
vt 0.100441 0.478141
vt 0.100420 0.493459
vt 0.125485 0.462867
vt 0.125464 0.478186
vt 0.125443 0.493505
vt 0.085134 0.437749
vt 0.125519 0.437822
vt 0.125586 0.389189
vt 0.125688 0.314960
vt 0.223432 0.315137
vt 0.223330 0.389365
vt 0.174458 0.389277
vt 0.085219 0.376318
vt 0.085303 0.314887
vt 0.174391 0.437910
vt 0.000000 0.376164
vt 0.000084 0.314733
vt 0.085491 0.177528
vt 0.125876 0.177601
vt 0.265476 0.315808
vt 0.307522 0.315219
vt 0.307420 0.389448
vt 0.265374 0.390037
vt 0.264814 0.197338
vt 0.264087 0.126108
vt 0.306132 0.126095
vt 0.370455 0.313442
vt 0.433385 0.313554
vt 0.433283 0.387783
vt 0.370353 0.387671
vt 0.185008 0.199463
vt 0.184281 0.128233
vt 0.368814 0.038996
vt 0.431747 0.037218
vt 0.370240 0.470240
vt 0.307307 0.472017
vt 0.367282 0.001777
vt 0.430215 0.000000
vt 0.125834 0.044910
vt 0.124302 0.007692
vt 0.081863 0.046722
vt 0.080331 0.009504
vt 0.265135 0.537728
vt 0.223091 0.537056
vt 0.434524 0.539473
vt 0.494799 0.539617
vt 0.494718 0.598825
vt 0.434443 0.598681
vt 0.499999 0.312162
vt 0.499898 0.386390
vt 0.265051 0.598825
vt 0.223007 0.598154
vn 0.0000 1.0000 -0.0000
vn 0.2616 0.9652 0.0034
vn 0.4923 0.8704 0.0096
vn -0.4347 0.9006 0.0054
vn -0.4236 0.9058 -0.0043
s off
f 1/1/1 2/2/1 4/3/1 6/4/1 3/5/1
f 6/4/1 4/3/1 7/6/1 5/7/1
f 3/5/1 6/4/1 5/7/1 8/8/1
f 4/3/1 2/2/1 9/9/1 10/10/1 7/6/1
f 15/11/1 12/12/1 14/13/1 16/14/1 13/15/1
f 10/10/1 9/9/1 18/16/1 11/17/1 12/12/1 15/11/1
f 10/10/1 15/11/1 13/15/1 17/18/1
f 11/17/1 18/16/1 20/19/1 19/20/1
f 12/12/1 11/17/1 21/21/1 22/22/1
f 16/14/1 14/13/1 25/23/1 23/24/1 24/25/1 45/26/1
f 23/24/1 25/23/1 30/27/1 27/28/1 26/29/1
f 24/25/1 23/24/1 33/30/1 28/31/1 29/32/1 36/33/1
f 27/28/1 30/27/1 32/34/1 31/35/1
f 28/31/2 33/30/2 35/36/2 34/37/2
f 24/25/1 36/33/1 38/38/1 37/39/1
f 34/37/1 35/36/1 40/40/1 39/41/1
f 40/40/1 35/36/1 41/42/1 42/43/1
f 42/43/1 41/42/1 43/44/1 44/45/1
f 21/21/3 43/44/3 41/42/3 22/22/3
f 16/14/4 45/26/4 53/46/4 52/47/4
f 49/48/1 48/49/1 47/50/1 46/51/1
f 29/32/1 28/31/1 50/52/1 51/53/1
f 49/48/5 29/32/5 51/53/5 48/49/5
f 52/47/1 53/46/1 55/54/1 54/55/1
f 46/51/1 55/54/1 53/46/1 49/48/1
