# Blender v2.79 (sub 0) OBJ File: 'Test.blend'
# www.blender.org
o Plane
v -7.419984 -0.000001 23.720087
v 47.571602 0.000000 24.267817
v -7.270078 0.000000 -7.270078
v 47.571602 0.000000 -7.270078
v 20.150761 0.000000 -58.641544
v 20.150761 0.000000 -7.270078
v 47.571602 0.000000 -58.641544
v -7.270078 0.000000 -58.641544
v 92.404877 0.000000 24.267817
v 92.404877 0.000000 -58.641544
v 312.331696 0.000000 24.267817
v 312.331696 0.000000 -58.641544
v 179.459244 0.000000 -158.974747
v 312.331696 0.000000 -259.307953
v 179.459244 0.000000 -58.641544
v 179.459244 0.000000 -259.307953
v 92.404861 0.000000 -158.974747
v 202.368286 0.000000 24.267817
v 312.331696 0.000000 199.219635
v 202.368286 0.000000 199.219635
v 558.209900 0.000000 24.267817
v 558.209900 0.000000 -58.641544
v 312.456024 -0.000000 -431.943146
v 179.583557 -0.000000 -431.943146
v 311.266357 -0.000000 -345.625580
v 650.989624 -0.000000 -428.558167
v 650.832092 -0.000000 -342.240570
v 315.843567 -0.000000 -690.331787
v 182.971100 -0.000000 -690.331787
v 523.330261 -0.000000 -343.933075
v 646.770081 -0.000000 -178.406387
v 519.268250 -0.000000 -180.098892
v 315.841034 -0.000000 -561.137451
v 811.055542 -133.757294 -686.269775
v 807.670593 -133.757294 -557.075439
v 182.968582 -0.000000 -561.137451
v 31.781002 -0.000000 -431.943146
v 35.166027 -0.000000 -561.137451
v 877.672485 -133.757294 -683.020142
v 874.287476 -133.757294 -553.825867
v 796.296936 -133.757294 -58.261185
v 862.913818 -133.757294 -55.011581
v 792.911926 -133.757294 32.005604
v 859.528809 -133.757294 35.255207
v 178.393890 -0.000000 -345.625580
v -194.001572 -127.355354 -693.382568
v -194.063751 -127.355354 -817.126465
v -88.079254 -127.355354 -817.126465
v -88.017082 -127.355354 -693.382568
v 318.551575 -0.000000 -827.085999
v 185.679108 -0.000000 -827.085999
v -84.374451 -127.355354 -259.307953
v -85.439812 -127.355354 -345.625580
v -193.741409 -127.355354 -259.307953
v -194.806763 -127.355354 -345.625580
vt 0.170645 0.828604
vt 0.170197 0.777312
vt 0.200921 0.777359
vt 0.200878 0.802934
vt 0.200835 0.828509
vt 0.250966 0.777434
vt 0.250924 0.803009
vt 0.250881 0.828585
vt 0.170266 0.735496
vt 0.251036 0.735618
vt 0.251171 0.654423
vt 0.251377 0.530493
vt 0.446865 0.530788
vt 0.446659 0.654718
vt 0.348915 0.654570
vt 0.170437 0.632934
vt 0.170607 0.530371
vt 0.348780 0.735766
vt 0.000000 0.632677
vt 0.000171 0.530114
vt 0.170989 0.301041
vt 0.251759 0.301163
vt 0.530953 0.531908
vt 0.615045 0.530926
vt 0.614839 0.654855
vt 0.530747 0.655838
vt 0.529634 0.334114
vt 0.528183 0.215191
vt 0.612273 0.215171
vt 0.740911 0.527958
vt 0.866771 0.528146
vt 0.866565 0.652076
vt 0.740704 0.651888
vt 0.370021 0.337662
vt 0.368570 0.218739
vt 0.737649 0.065105
vt 0.863514 0.062138
vt 0.740475 0.789743
vt 0.614610 0.792711
vt 0.734586 0.002967
vt 0.860452 0.000000
vt 0.251690 0.074981
vt 0.248628 0.012842
vt 0.163747 0.078005
vt 0.160685 0.015867
vt 0.530273 0.897994
vt 0.446185 0.896873
vt 0.869052 0.900909
vt 0.989602 0.901148
vt 0.989437 1.000000
vt 0.868887 0.999760
vt 1.000000 0.525821
vt 0.999794 0.649751
vt 0.530104 1.000000
vt 0.446015 0.998879
vn -0.0000 1.0000 0.0000
vn 0.2616 0.9652 0.0034
vn 0.4923 0.8704 0.0096
vn -0.4347 0.9006 0.0054
vn -0.4236 0.9058 -0.0043
s off
f 1/1/1 2/2/1 4/3/1 6/4/1 3/5/1
f 6/4/1 4/3/1 7/6/1 5/7/1
f 3/5/1 6/4/1 5/7/1 8/8/1
f 4/3/1 2/2/1 9/9/1 10/10/1 7/6/1
f 15/11/1 12/12/1 14/13/1 16/14/1 13/15/1
f 10/10/1 9/9/1 18/16/1 11/17/1 12/12/1 15/11/1
f 10/10/1 15/11/1 13/15/1 17/18/1
f 11/17/1 18/16/1 20/19/1 19/20/1
f 12/12/1 11/17/1 21/21/1 22/22/1
f 16/14/1 14/13/1 25/23/1 23/24/1 24/25/1 45/26/1
f 23/24/1 25/23/1 30/27/1 27/28/1 26/29/1
f 24/25/1 23/24/1 33/30/1 28/31/1 29/32/1 36/33/1
f 27/28/1 30/27/1 32/34/1 31/35/1
f 28/31/2 33/30/2 35/36/2 34/37/2
f 24/25/1 36/33/1 38/38/1 37/39/1
f 34/37/1 35/36/1 40/40/1 39/41/1
f 40/40/1 35/36/1 41/42/1 42/43/1
f 42/43/1 41/42/1 43/44/1 44/45/1
f 21/21/3 43/44/3 41/42/3 22/22/3
f 16/14/4 45/26/4 53/46/4 52/47/4
f 49/48/1 48/49/1 47/50/1 46/51/1
f 29/32/1 28/31/1 50/52/1 51/53/1
f 49/48/5 29/32/5 51/53/5 48/49/5
f 52/47/1 53/46/1 55/54/1 54/55/1
f 46/51/1 55/54/1 53/46/1 49/48/1
