# Blender v2.79 (sub 0) OBJ File: 'Test.blend'
# www.blender.org
o Plane
v -0.849319 -0.000000 3.262700
v 6.543478 0.000000 3.338041
v -1.000000 0.000000 -1.000000
v 6.543478 0.000000 -1.000000
v 2.771739 0.000000 -8.066151
v 2.771739 0.000000 -1.000000
v 6.543478 0.000000 -8.066151
v -1.000000 0.000000 -8.066151
v 12.710300 0.000000 3.338041
v 12.710300 0.000000 -8.066151
vn -0.0000 1.0000 0.0000
s off
f 1//1 2//1 4//1 6//1 3//1
f 6//1 4//1 7//1 5//1
f 3//1 6//1 5//1 8//1
f 4//1 2//1 9//1 10//1 7//1
