# Blender v2.79 (sub 0) OBJ File: 'TwoSquares.blend'
# www.blender.org
o Plane
v -9.619741 0.000000 26.053394
v 9.619741 0.000000 26.053394
v -9.619741 0.000000 -9.619741
v 9.619741 0.000000 -9.619741
v 9.619741 0.000000 8.216826
v 28.682449 0.000000 8.216826
v 9.619741 0.000000 46.181118
v 28.682449 0.000000 46.181118
v -9.619741 0.000000 8.216826
v -32.478775 0.000000 8.216826
v -9.619741 0.000000 -27.714819
v -32.478775 0.000000 -27.714819
vt 0.062878 0.438248
vt 0.377448 0.290800
vt 0.688320 0.419036
vt 0.999192 0.547272
vt 0.684622 0.694719
vt 0.373750 0.566483
vt 0.026644 0.146093
vt 0.338324 0.000000
vt 1.000000 0.272943
vt 1.000000 0.824813
vt 0.626250 1.000000
vt 0.000000 0.741670
vn 0.0000 1.0000 0.0000
s off
f 1/1/1 2/2/1 5/3/1 4/4/1 3/5/1 9/6/1
f 2/2/1 7/7/1 8/8/1 6/9/1 5/3/1
f 3/5/1 11/10/1 12/11/1 10/12/1 9/6/1
