# Blender v2.79 (sub 0) OBJ File: 'UnityNavmesh.blend'
# www.blender.org
o Cube.002
v 491.179535 -30.183479 -39.872658
v 491.179535 3.935613 -39.872658
v 491.179535 -30.183479 -287.946716
v 491.179535 3.935613 -287.946716
v 581.489075 -30.183479 -39.872658
v 581.489075 3.935613 -39.872658
v 581.489075 -30.183479 -287.946716
v 581.489075 3.935613 -287.946716
v 491.179535 -30.183479 -208.613190
v 491.179535 3.935613 -208.613190
v 581.489075 -30.183479 -208.613190
v 581.489075 3.935613 -208.613190
v 763.519287 3.935613 -287.946716
v 763.519287 -30.183479 -287.946716
v 763.519287 -30.183479 -208.613190
v 763.519287 3.935613 -208.613190
v 688.403198 3.935613 -287.946716
v 688.403198 -30.183479 -287.946716
v 688.403198 3.935613 -208.613190
v 688.403198 -30.183479 -208.613190
v 763.519287 3.935613 -520.340393
v 763.519287 -30.183479 -520.340393
v 688.403198 3.935613 -520.340393
v 688.403198 -30.183479 -520.340393
v 491.179535 3.935613 -427.013000
v 491.179535 -30.183479 -427.013000
v 581.489075 -30.183479 -427.013000
v 581.489075 3.935613 -427.013000
v 763.519287 3.935613 -623.936890
v 763.519287 -30.183479 -623.936890
v 688.403198 3.935613 -623.936890
v 688.403198 -30.183479 -623.936890
v 500.423828 3.935613 -520.340393
v 500.423828 -30.183479 -520.340393
v 500.423828 3.935613 -623.936890
v 500.423828 -30.183479 -623.936890
v -22.892578 -28.726866 -463.499023
v -22.892578 8.205073 -463.499023
v -22.892578 -28.726866 -571.236694
v -22.892578 8.205073 -571.236694
v 163.640076 -28.726866 -463.499023
v 163.640076 8.205073 -463.499023
v 163.640076 -28.726866 -571.236694
v 163.640076 8.205073 -571.236694
v 59.805573 -28.726866 -571.236694
v 59.805573 8.205073 -571.236694
v 59.805573 -28.726866 -463.499023
v 59.805573 8.205073 -463.499023
v -22.892578 8.205073 -752.047668
v -22.892578 -28.726866 -752.047668
v 59.805573 -28.726866 -752.047668
v 59.805573 8.205073 -752.047668
v 74.707672 -30.183479 -39.872665
v 74.707672 3.935611 -39.872665
v 74.707672 -30.183479 -287.946716
v 74.707672 3.935611 -287.946716
v 165.017212 -30.183479 -39.872665
v 165.017212 3.935611 -39.872665
v 165.017212 -30.183479 -287.946716
v 165.017212 3.935611 -287.946716
v 74.707672 3.935611 -374.563171
v 74.707672 -30.183479 -374.563171
v 165.017212 -30.183479 -374.563171
v 165.017212 3.935611 -374.563171
v 330.067139 3.935611 -287.946716
v 330.067139 -30.183479 -287.946716
v 330.067139 3.935611 -374.563171
v 330.067139 -30.183479 -374.563171
v 258.699646 3.935611 -287.946716
v 258.699646 3.935611 -374.563171
v 258.699646 -30.183479 -374.563171
v 258.699646 -30.183479 -287.946716
v 330.067139 3.935611 -613.997681
v 330.067139 -30.183479 -613.997681
v 258.699646 -30.183479 -613.997681
v 258.699646 3.935611 -613.997681
v 330.067139 -30.183479 -560.171082
v 330.067139 3.935611 -560.171082
v 258.699646 3.935611 -560.171082
v 258.699646 -30.183479 -560.171082
vn -1.0000 0.0000 0.0000
vn 1.0000 0.0000 0.0000
vn 0.0000 0.0000 1.0000
vn 0.0000 -1.0000 0.0000
vn 0.0000 1.0000 0.0000
vn 0.0000 0.0000 -1.0000
s off
f 10//1 3//1 9//1
f 7//2 28//2 8//2
f 12//2 5//2 11//2
f 6//3 1//3 5//3
f 11//4 1//4 9//4
f 10//5 6//5 12//5
f 4//5 12//5 8//5
f 7//4 9//4 3//4
f 13//5 23//5 17//5
f 2//1 9//1 1//1
f 13//2 15//2 14//2
f 19//5 13//5 17//5
f 18//4 15//4 20//4
f 20//3 16//3 19//3
f 11//3 19//3 12//3
f 7//4 20//4 11//4
f 12//5 17//5 8//5
f 8//6 18//6 7//6
f 21//5 31//5 23//5
f 17//1 24//1 18//1
f 14//2 21//2 13//2
f 18//4 22//4 14//4
f 25//6 27//6 26//6
f 3//4 27//4 7//4
f 8//5 25//5 4//5
f 4//1 26//1 3//1
f 31//6 30//6 32//6
f 24//4 30//4 22//4
f 22//2 29//2 21//2
f 31//5 33//5 23//5
f 33//1 36//1 34//1
f 32//6 35//6 31//6
f 24//4 36//4 32//4
f 23//3 34//3 24//3
f 38//1 39//1 37//1
f 46//6 43//6 45//6
f 44//2 41//2 43//2
f 48//3 37//3 47//3
f 43//4 47//4 45//4
f 40//5 48//5 46//5
f 46//5 42//5 44//5
f 45//4 37//4 39//4
f 42//3 47//3 41//3
f 46//5 49//5 40//5
f 49//6 51//6 50//6
f 40//1 50//1 39//1
f 45//2 52//2 46//2
f 39//4 51//4 45//4
f 54//1 55//1 53//1
f 60//5 61//5 56//5
f 60//2 57//2 59//2
f 58//3 53//3 57//3
f 59//4 53//4 55//4
f 56//5 58//5 60//5
f 61//6 63//6 62//6
f 56//1 62//1 55//1
f 69//5 67//5 70//5
f 55//4 63//4 59//4
f 66//2 67//2 65//2
f 71//4 66//4 72//4
f 72//3 65//3 69//3
f 77//2 73//2 78//2
f 64//6 71//6 63//6
f 59//3 69//3 60//3
f 63//4 72//4 59//4
f 60//5 70//5 64//5
f 76//6 74//6 75//6
f 79//1 75//1 80//1
f 80//4 74//4 77//4
f 78//5 76//5 79//5
f 67//5 79//5 70//5
f 71//4 77//4 68//4
f 70//1 80//1 71//1
f 68//2 78//2 67//2
f 10//1 4//1 3//1
f 7//2 27//2 28//2
f 12//2 6//2 5//2
f 6//3 2//3 1//3
f 11//4 5//4 1//4
f 10//5 2//5 6//5
f 4//5 10//5 12//5
f 7//4 11//4 9//4
f 13//5 21//5 23//5
f 2//1 10//1 9//1
f 13//2 16//2 15//2
f 19//5 16//5 13//5
f 18//4 14//4 15//4
f 20//3 15//3 16//3
f 11//3 20//3 19//3
f 7//4 18//4 20//4
f 12//5 19//5 17//5
f 8//6 17//6 18//6
f 21//5 29//5 31//5
f 17//1 23//1 24//1
f 14//2 22//2 21//2
f 18//4 24//4 22//4
f 25//6 28//6 27//6
f 3//4 26//4 27//4
f 8//5 28//5 25//5
f 4//1 25//1 26//1
f 31//6 29//6 30//6
f 24//4 32//4 30//4
f 22//2 30//2 29//2
f 31//5 35//5 33//5
f 33//1 35//1 36//1
f 32//6 36//6 35//6
f 24//4 34//4 36//4
f 23//3 33//3 34//3
f 38//1 40//1 39//1
f 46//6 44//6 43//6
f 44//2 42//2 41//2
f 48//3 38//3 37//3
f 43//4 41//4 47//4
f 40//5 38//5 48//5
f 46//5 48//5 42//5
f 45//4 47//4 37//4
f 42//3 48//3 47//3
f 46//5 52//5 49//5
f 49//6 52//6 51//6
f 40//1 49//1 50//1
f 45//2 51//2 52//2
f 39//4 50//4 51//4
f 54//1 56//1 55//1
f 60//5 64//5 61//5
f 60//2 58//2 57//2
f 58//3 54//3 53//3
f 59//4 57//4 53//4
f 56//5 54//5 58//5
f 61//6 64//6 63//6
f 56//1 61//1 62//1
f 69//5 65//5 67//5
f 55//4 62//4 63//4
f 66//2 68//2 67//2
f 71//4 68//4 66//4
f 72//3 66//3 65//3
f 77//2 74//2 73//2
f 64//6 70//6 71//6
f 59//3 72//3 69//3
f 63//4 71//4 72//4
f 60//5 69//5 70//5
f 76//6 73//6 74//6
f 79//1 76//1 75//1
f 80//4 75//4 74//4
f 78//5 73//5 76//5
f 67//5 78//5 79//5
f 71//4 80//4 77//4
f 70//1 79//1 80//1
f 68//2 77//2 78//2
