# Blender v2.79 (sub 0) OBJ File: 'cuboGrande.blend'
# www.blender.org
mtllib cuboGrande.mtl
o Cube
v 23.379488 -23.379488 -23.379486
v 23.379488 -23.379488 23.379488
v -23.379490 -23.379488 23.379484
v -23.379480 -23.379488 -23.379496
v 23.379499 23.379488 -23.379475
v 23.379473 23.379488 23.379501
v -23.379496 23.379488 23.379480
v -23.379486 23.379488 -23.379488
vt 0.000000 6.417455
vt 3.208726 6.417455
vt 3.208727 9.626181
vt 0.000000 9.626181
vt 6.417453 3.208728
vt 6.417453 6.417455
vt 3.208727 6.417454
vt 3.208727 3.208728
vt 6.417454 3.208726
vt 3.208728 3.208727
vt 3.208727 0.000000
vt 6.417453 0.000000
vt 0.000000 3.208728
vt 0.000000 0.000001
vt 3.208726 0.000000
vt 3.208727 3.208726
vt 9.626181 3.208727
vt 6.417455 3.208727
vt 6.417454 0.000001
vt 9.626181 0.000000
vt 0.000000 3.208728
vt 3.208726 3.208728
vt 3.208727 6.417453
vt 0.000000 6.417455
vn 0.0000 -1.0000 -0.0000
vn 0.0000 1.0000 0.0000
vn 1.0000 0.0000 0.0000
vn -0.0000 -0.0000 1.0000
vn -1.0000 -0.0000 -0.0000
vn 0.0000 0.0000 -1.0000
usemtl Material
s off
f 1/1/1 2/2/1 3/3/1 4/4/1
f 5/5/2 8/6/2 7/7/2 6/8/2
f 1/9/3 5/10/3 6/11/3 2/12/3
f 2/13/4 6/14/4 7/15/4 3/16/4
f 3/17/5 7/18/5 8/19/5 4/20/5
f 5/21/6 1/22/6 4/23/6 8/24/6
