# Blender v2.80 (sub 44) OBJ File: ''
# www.blender.org
o FLOR_NO_MOLONA_Circle.008
v -0.016422 -0.153475 0.002978
v -0.009261 -0.153475 -0.009426
v -0.002100 -0.153475 0.002978
v -0.003777 0.033963 0.000580
v 0.001461 0.023578 0.000580
v -0.001147 0.028749 -0.004638
v 0.014558 0.017916 0.061052
v 0.006138 0.013810 0.021739
v -0.012516 0.073436 -0.034977
v -0.012952 0.052958 -0.009906
v 0.010644 0.004568 -0.009906
v 0.029783 -0.013308 0.033026
v -0.008446 0.043717 0.021739
v -0.019677 0.088122 0.001322
v 0.026337 -0.006240 -0.032744
v -0.015171 0.078881 0.032966
v -0.000718 0.049241 -0.054534
v -0.001154 0.028763 -0.029463
v 0.014538 0.017955 -0.052301
v -0.000026 0.047822 0.061052
v 0.034290 -0.022550 0.001381
vt 0.189096 0.244649
vt 0.307550 0.000000
vt 0.396286 0.180908
vt 0.916893 0.000000
vt 0.915785 0.061902
vt 0.881509 0.030683
vt 0.834409 0.876765
vt 0.916893 0.865416
vt 1.000000 0.031636
vt 1.000000 0.883546
vt 0.536362 0.318347
vt 0.618407 0.572536
vt 0.415740 0.467027
vt 0.146997 0.581332
vt 0.201123 0.421479
vt 0.012029 0.430060
vt 0.739024 0.186861
vt 0.794853 0.053268
vt 0.834409 1.000000
vt 0.739024 0.994870
vt 0.100359 0.063740
vt 0.916893 0.894871
vt 0.965961 0.000000
vt 0.739024 0.423860
vt 0.361614 0.626880
vt 0.000000 0.253229
vt 0.598952 0.049424
vt 0.834409 0.000000
vn -0.7671 -0.6369 0.0768
vn 0.8929 0.4503 0.0000
vn 0.8826 -0.0269 -0.4693
vn 0.8662 -0.0242 -0.4991
vn 0.8832 -0.0270 -0.4682
vn -0.8650 0.0516 -0.4991
vn -0.8696 0.0524 -0.4910
vn -0.8649 0.0516 -0.4993
vn -0.9744 -0.2110 0.0771
vn -0.9349 -0.2667 -0.2341
vn -0.7719 -0.5824 -0.2548
vn -0.7720 -0.5824 -0.2548
vn -0.8743 -0.4264 0.2318
vn 0.0202 0.0148 0.9997
vn 0.0002 0.0136 0.9999
vn -0.0030 0.0105 0.9999
vn -0.8988 -0.4383 0.0000
vn 0.8658 -0.0242 -0.4998
vn -0.8697 0.0524 -0.4907
vn 0.0224 0.0113 0.9997
s 1
f 11/1/1 12/2/1 8/3/1
f 4/4/2 5/5/2 6/6/2
f 5/5/3 2/7/4 6/6/5
f 1/8/6 6/9/7 2/10/8
f 13/11/9 14/12/9 10/13/9
f 10/13/10 17/14/10 18/15/10
f 19/16/11 11/1/11 18/15/12
f 8/3/13 20/17/13 13/11/13
f 5/18/14 1/19/15 3/20/16
f 18/15/17 11/1/17 8/3/17
f 11/1/1 21/21/1 12/2/1
f 5/5/3 3/22/18 2/7/4
f 1/8/6 4/23/19 6/9/7
f 13/11/9 16/24/9 14/12/9
f 10/13/10 9/25/10 17/14/10
f 19/16/11 15/26/11 11/1/11
f 8/3/13 7/27/13 20/17/13
f 5/18/14 4/28/20 1/19/15
f 13/11/17 10/13/17 8/3/17
f 10/13/17 18/15/17 8/3/17
