# Blender v2.79 (sub 0) OBJ File: 'TrainingArea2.blend'
# www.blender.org
mtllib TrainingArea2.mtl
o Cube
v 251.129700 -0.205788 -251.129684
v 251.129700 -0.205788 251.129700
v -251.129730 -0.205788 251.129654
v -251.129608 -0.205788 -251.129791
v 251.129822 0.205788 -251.129562
v 251.129532 0.205788 251.129852
v -251.129791 0.205788 251.129608
v -251.129684 0.205788 -251.129700
vt 0.005655 2.544769
vt 1.277868 2.544769
vt 1.277868 3.816982
vt 0.005655 3.816982
vt 2.550081 1.272556
vt 2.550081 2.544769
vt 1.277868 2.544769
vt 1.277868 1.272556
vt 2.550081 1.272555
vt 1.277868 1.272556
vt 1.277868 0.000343
vt 2.550081 0.000343
vt 0.005655 1.272556
vt 0.005655 0.000343
vt 1.277867 0.000343
vt 1.277868 1.272555
vt 3.822294 1.272556
vt 2.550081 1.272556
vt 2.550081 0.000343
vt 3.822294 0.000343
vt 0.005655 1.272556
vt 1.277868 1.272556
vt 1.277868 2.544768
vt 0.005655 2.544769
vn 0.0000 -1.0000 0.0000
vn 0.0000 1.0000 0.0000
vn 1.0000 0.0001 0.0000
vn -0.0000 -0.0001 1.0000
vn -1.0000 -0.0001 -0.0000
vn 0.0000 0.0003 -1.0000
usemtl Material
s off
f 1/1/1 2/2/1 3/3/1 4/4/1
f 5/5/2 8/6/2 7/7/2 6/8/2
f 1/9/3 5/10/3 6/11/3 2/12/3
f 2/13/4 6/14/4 7/15/4 3/16/4
f 3/17/5 7/18/5 8/19/5 4/20/5
f 5/21/6 1/22/6 4/23/6 8/24/6
