# Blender v2.79 (sub 0) OBJ File: 'TrainingArea2.blend'
# www.blender.org
mtllib TrainingArea2.mtl
o Cube
v 114.957260 1.245691 -114.957253
v 114.957260 1.245691 114.957260
v -114.957275 1.245691 114.957237
v -114.957222 1.245691 -114.957298
v 114.957314 -1.245691 -114.957199
v 114.957184 -1.245691 114.957329
v -114.957298 -1.245691 114.957222
v -114.957253 -1.245691 -114.957260
vt 0.000000 8.594845
vt 0.000000 12.892266
vt 4.297422 12.892266
vt 4.297421 8.594845
vt 8.594844 4.297423
vt 4.297422 4.297424
vt 4.297422 8.594845
vt 8.594843 8.594845
vt 8.594845 4.297421
vt 8.594844 0.000000
vt 4.297422 0.000000
vt 4.297423 4.297422
vt 0.000000 4.297423
vt 4.297422 4.297421
vt 4.297421 0.000000
vt 0.000000 0.000002
vt 12.892266 4.297422
vt 12.892266 0.000000
vt 8.594845 0.000001
vt 8.594845 4.297422
vt 0.000000 4.297423
vt 0.000000 8.594845
vt 4.297422 8.594844
vt 4.297421 4.297423
vn 0.0000 1.0000 0.0000
vn 0.0000 -1.0000 -0.0000
vn 1.0000 -0.0000 0.0000
vn -0.0000 0.0000 1.0000
vn -1.0000 0.0000 -0.0000
vn 0.0000 -0.0000 -1.0000
usemtl Material
s off
f 1/1/1 4/2/1 3/3/1 2/4/1
f 5/5/2 6/6/2 7/7/2 8/8/2
f 1/9/3 2/10/3 6/11/3 5/12/3
f 2/13/4 3/14/4 7/15/4 6/16/4
f 3/17/5 4/18/5 8/19/5 7/20/5
f 5/21/6 8/22/6 4/23/6 1/24/6
