# Blender v2.79 (sub 0) OBJ File: 'TrainingArea.blend'
# www.blender.org
o Cube_Cube.001
v -59.857330 -2.758121 59.857330
v -59.857330 -0.758121 59.857330
v -59.857330 -2.758121 -59.857330
v -59.857330 -0.758121 -59.857330
v 59.857330 -2.758121 59.857330
v 59.857330 -0.758121 59.857330
v 59.857330 -2.758121 -59.857330
v 59.857330 -0.758121 -59.857330
v -59.857330 -2.758121 -54.596344
v -59.857330 -2.758121 54.596344
v -59.857330 -0.758121 54.596344
v -59.857330 -0.758121 -54.596344
v 59.857330 -2.758121 54.596344
v 59.857330 -2.758121 -54.596344
v 59.857330 -0.758121 -54.596344
v 59.857330 -0.758121 54.596344
v 54.613766 -2.758121 -59.857330
v -54.613766 -2.758121 -59.857330
v -54.613766 -0.758121 -59.857330
v 54.613766 -0.758121 -59.857330
v -54.613766 -2.758121 59.857330
v 54.613766 -2.758121 59.857330
v 54.613766 -0.758121 59.857330
v -54.613766 -0.758121 59.857330
v -54.613766 -0.758121 -54.596344
v 54.613766 -0.758121 -54.596344
v -54.613766 -0.758121 54.596344
v 54.613766 -0.758121 54.596344
v 54.613766 -2.758121 -54.596344
v -54.613766 -2.758121 -54.596344
v 54.613766 -2.758121 54.596344
v -54.613766 -2.758121 54.596344
v -59.857330 18.055233 -54.596344
v -59.857330 18.055233 -59.857330
v 54.613766 18.055233 -59.857330
v 59.857330 18.055233 -59.857330
v 59.857330 18.055233 54.596344
v 59.857330 18.055233 59.857330
v -54.613766 18.055233 59.857330
v -59.857330 18.055233 59.857330
v -59.857330 18.055233 54.596344
v 59.857330 18.055233 -54.596344
v 54.613766 18.055233 -54.596344
v 54.613766 18.055233 54.596344
v -54.613766 18.055233 -59.857330
v 54.613766 18.055233 59.857330
v -54.613766 18.055233 -54.596344
v -54.613766 18.055233 54.596344
vt 8.694144 71.094299
vt 9.093781 78.652153
vt 8.694145 78.652153
vt 18.585865 7.557855
vt 18.187553 0.000001
vt 18.585865 0.000000
vt 27.680964 7.557856
vt 27.281328 0.000000
vt 27.680964 0.000001
vt 17.789242 71.094299
vt 18.187555 78.652153
vt 17.789244 78.652153
vt 78.652145 7.225716
vt 78.253838 7.557854
vt 78.253838 7.225716
vt 52.969383 0.000000
vt 44.672245 71.094299
vt 44.672237 0.000000
vt 26.883007 7.557855
vt 18.585875 78.652153
vt 27.281326 78.652153
vt 27.281328 7.557856
vt 78.652145 0.000001
vt 78.253838 0.332138
vt 78.253838 0.000001
vt 78.652145 0.332138
vt 36.375092 7.557855
vt 35.975456 0.000000
vt 36.375092 0.000000
vt 35.975452 7.557855
vt 0.000014 71.094307
vt 0.399651 78.652153
vt 0.000016 78.652153
vt 0.399650 71.094307
vt 69.956696 0.332138
vt 69.558388 7.225715
vt 69.558388 0.332138
vt 69.956696 7.225716
vt 69.956696 0.000000
vt 69.558388 0.000000
vt 27.281321 7.557855
vt 26.883015 78.652153
vt 77.852882 22.011484
vt 69.558388 15.115709
vt 77.852882 15.115707
vt 8.694130 0.000000
vt 36.375099 71.094307
vt 44.672230 0.000000
vt 44.672241 71.094299
vt 0.399636 0.000000
vt 9.492101 71.094307
vt 17.789236 0.000000
vt 69.558388 7.557853
vt 69.956696 7.557853
vt 9.093789 71.094307
vt 9.492102 78.652153
vt 9.093790 78.652153
vt 26.883007 0.000000
vt 27.281321 0.000000
vt 78.652145 14.783568
vt 78.253838 15.115705
vt 78.253838 14.783568
vt 78.652145 7.557854
vt 78.253838 7.889991
vt 78.253838 7.557854
vt 78.652145 7.889991
vt 69.956696 7.889992
vt 69.558388 14.783569
vt 69.558388 7.889992
vt 69.956696 7.557855
vt 69.558388 7.557855
vt 69.956696 14.783569
vt 69.558388 15.115707
vt 69.956696 15.115707
vt 9.093765 0.000000
vt 9.093780 71.094299
vt 35.975452 78.652153
vt 52.969398 71.094307
vt 61.263882 0.000000
vt 61.263893 71.094299
vt 18.187546 0.000000
vt 18.187553 71.094299
vt 27.680964 78.652153
vt 9.492093 0.000000
vt 69.558388 0.000000
vt 61.263893 71.094307
vt 61.263893 0.000001
vt 18.187563 78.652153
vt 18.187555 7.557855
vt 78.652145 7.557854
vt 52.969387 71.094299
vt 27.281328 78.652153
vt 69.558388 22.011486
vt 36.375092 0.000000
vt 0.000000 0.000000
vt 78.652145 15.115705
vt 36.375092 78.652153
vt 52.969387 0.000000
vt 9.093781 0.000000
vt 69.558388 71.094307
vn -1.0000 0.0000 0.0000
vn 0.0000 0.0000 -1.0000
vn 1.0000 0.0000 0.0000
vn 0.0000 0.0000 1.0000
vn 0.0000 -1.0000 0.0000
vn 0.0000 1.0000 0.0000
s off
f 12/1/1 3/2/1 9/3/1
f 20/4/2 7/5/2 17/6/2
f 16/7/3 5/8/3 13/9/3
f 24/10/4 1/11/4 21/12/4
f 13/13/5 22/14/5 31/15/5
f 27/16/2 44/17/2 28/18/2
f 19/19/2 35/20/2 20/4/2
f 16/7/3 38/21/3 6/22/3
f 7/23/5 29/24/5 17/25/5
f 14/26/5 31/15/5 29/24/5
f 8/27/3 14/28/3 7/29/3
f 15/30/3 13/9/3 14/28/3
f 2/31/1 10/32/1 1/33/1
f 11/34/1 9/3/1 10/32/1
f 30/35/5 10/36/5 9/37/5
f 29/24/5 32/38/5 30/35/5
f 18/39/5 9/37/5 3/40/5
f 17/25/5 30/35/5 18/39/5
f 4/41/2 45/42/2 19/19/2
f 25/43/6 28/44/6 26/45/6
f 11/34/1 33/46/1 12/1/1
f 26/47/4 47/48/4 25/49/4
f 2/31/1 41/50/1 11/34/1
f 23/51/4 39/52/4 24/10/4
f 32/38/5 1/53/5 10/36/5
f 31/15/5 21/54/5 32/38/5
f 6/55/4 22/56/4 5/57/4
f 23/51/4 21/12/4 22/56/4
f 4/41/2 18/58/2 3/59/2
f 19/19/2 17/6/2 18/58/2
f 41/60/6 39/61/6 48/62/6
f 34/63/6 47/64/6 45/65/6
f 33/66/6 48/62/6 47/64/6
f 43/67/6 37/68/6 42/69/6
f 35/70/6 42/69/6 36/71/6
f 45/65/6 43/67/6 35/70/6
f 44/72/6 38/73/6 37/68/6
f 48/62/6 46/74/6 44/72/6
f 12/1/1 34/75/1 4/76/1
f 8/27/3 42/77/3 15/30/3
f 28/78/1 43/79/1 26/80/1
f 24/10/4 40/81/4 2/82/4
f 15/30/3 37/83/3 16/7/3
f 6/55/4 46/84/4 23/51/4
f 25/85/3 48/86/3 27/87/3
f 20/4/2 36/88/2 8/89/2
f 12/1/1 4/76/1 3/2/1
f 20/4/2 8/89/2 7/5/2
f 16/7/3 6/22/3 5/8/3
f 24/10/4 2/82/4 1/11/4
f 13/13/5 5/90/5 22/14/5
f 27/16/2 48/91/2 44/17/2
f 19/19/2 45/42/2 35/20/2
f 16/7/3 37/83/3 38/21/3
f 7/23/5 14/26/5 29/24/5
f 14/26/5 13/13/5 31/15/5
f 8/27/3 15/30/3 14/28/3
f 15/30/3 16/7/3 13/9/3
f 2/31/1 11/34/1 10/32/1
f 11/34/1 12/1/1 9/3/1
f 30/35/5 32/38/5 10/36/5
f 29/24/5 31/15/5 32/38/5
f 18/39/5 30/35/5 9/37/5
f 17/25/5 29/24/5 30/35/5
f 4/41/2 34/92/2 45/42/2
f 25/43/6 27/93/6 28/44/6
f 11/34/1 41/50/1 33/46/1
f 26/47/4 43/94/4 47/48/4
f 2/31/1 40/95/1 41/50/1
f 23/51/4 46/84/4 39/52/4
f 32/38/5 21/54/5 1/53/5
f 31/15/5 22/14/5 21/54/5
f 6/55/4 23/51/4 22/56/4
f 23/51/4 24/10/4 21/12/4
f 4/41/2 19/19/2 18/58/2
f 19/19/2 20/4/2 17/6/2
f 41/60/6 40/96/6 39/61/6
f 34/63/6 33/66/6 47/64/6
f 33/66/6 41/60/6 48/62/6
f 43/67/6 44/72/6 37/68/6
f 35/70/6 43/67/6 42/69/6
f 45/65/6 47/64/6 43/67/6
f 44/72/6 46/74/6 38/73/6
f 48/62/6 39/61/6 46/74/6
f 12/1/1 33/46/1 34/75/1
f 8/27/3 36/97/3 42/77/3
f 28/78/1 44/98/1 43/79/1
f 24/10/4 39/52/4 40/81/4
f 15/30/3 42/77/3 37/83/3
f 6/55/4 38/99/4 46/84/4
f 25/85/3 47/100/3 48/86/3
f 20/4/2 35/20/2 36/88/2
