# Blender v2.79 (sub 6) OBJ File: 'SCNEARY.blend'
# www.blender.org
o Cube.006_Cube.008
v -35.053425 -55.376900 10.713337
v -35.053425 -1.265333 10.713337
v -35.053425 -55.376900 -69.041092
v -35.053425 -1.265333 -69.041092
v 52.443768 -55.376900 10.713337
v 52.443768 -1.265333 10.713337
v 52.443768 -55.376900 -69.041092
v 52.443768 -1.265333 -69.041092
v 33.437538 -55.376900 -69.041092
v 33.437538 -1.265333 -69.041092
v 33.437538 -55.376900 10.713337
v 33.437538 -1.265333 10.713337
v 16.535357 -55.376900 -69.041092
v 16.535357 -1.265333 10.713337
v 16.535357 -1.265333 -69.041092
v 16.535357 -55.376900 10.713337
v 33.437538 -1.265333 -88.064079
v 52.443768 -1.265333 -88.064079
v 52.443768 -55.376900 -88.064079
v 33.437538 -55.376900 -88.064079
v -35.053425 -55.376900 74.036804
v -35.053425 -1.265333 74.036804
v 16.535357 -1.265333 74.036804
v 16.535357 -55.376900 74.036804
v -35.053425 -55.376900 -69.041092
v -35.053425 -55.376900 10.713337
v -35.053425 -1.265333 10.713337
v -35.053425 -1.265333 -69.041092
v -301.144928 -55.376900 -69.041092
v -301.144928 -55.376900 10.713337
v -301.144928 -1.265333 10.713337
v -301.144928 -1.265333 -69.041092
v 247.829254 -1.265333 -69.041092
v 247.829254 -55.376900 -69.041092
v 247.829254 -55.376900 10.713337
v 247.829254 -1.265333 10.713337
vn 0.0000 0.0000 1.0000
vn 1.0000 0.0000 0.0000
vn 0.0000 1.0000 0.0000
vn 0.0000 -1.0000 0.0000
vn 0.0000 0.0000 -1.0000
vn -1.0000 0.0000 0.0000
s off
f 2//1 28//1 27//1
f 7//2 18//2 8//2
f 6//3 33//3 8//3
f 2//3 23//3 14//3
f 7//4 11//4 9//4
f 4//3 14//3 15//3
f 10//3 6//3 8//3
f 9//4 16//4 13//4
f 6//1 11//1 5//1
f 15//5 9//5 13//5
f 4//5 13//5 3//5
f 13//4 1//4 3//4
f 15//3 12//3 10//3
f 12//1 16//1 11//1
f 17//5 19//5 20//5
f 8//3 17//3 10//3
f 9//4 19//4 7//4
f 10//6 20//6 9//6
f 23//1 21//1 24//1
f 14//2 24//2 16//2
f 1//6 22//6 2//6
f 16//4 21//4 1//4
f 28//3 31//3 27//3
f 3//1 26//1 25//1
f 4//1 25//1 28//1
f 1//1 27//1 26//1
f 31//6 29//6 30//6
f 26//4 29//4 25//4
f 25//5 32//5 28//5
f 27//1 30//1 26//1
f 33//2 35//2 34//2
f 8//5 34//5 7//5
f 5//1 36//1 6//1
f 7//4 35//4 5//4
f 2//1 4//1 28//1
f 7//2 19//2 18//2
f 6//3 36//3 33//3
f 2//3 22//3 23//3
f 7//4 5//4 11//4
f 4//3 2//3 14//3
f 10//3 12//3 6//3
f 9//4 11//4 16//4
f 6//1 12//1 11//1
f 15//5 10//5 9//5
f 4//5 15//5 13//5
f 13//4 16//4 1//4
f 15//3 14//3 12//3
f 12//1 14//1 16//1
f 17//5 18//5 19//5
f 8//3 18//3 17//3
f 9//4 20//4 19//4
f 10//6 17//6 20//6
f 23//1 22//1 21//1
f 14//2 23//2 24//2
f 1//6 21//6 22//6
f 16//4 24//4 21//4
f 28//3 32//3 31//3
f 3//1 1//1 26//1
f 4//1 3//1 25//1
f 1//1 2//1 27//1
f 31//6 32//6 29//6
f 26//4 30//4 29//4
f 25//5 29//5 32//5
f 27//1 31//1 30//1
f 33//2 36//2 35//2
f 8//5 33//5 34//5
f 5//1 35//1 36//1
f 7//4 34//4 35//4
