# Blender v2.79 (sub 6) OBJ File: ''
# www.blender.org
o Cube.016_Cube.025
v -17.915928 -0.235154 4.670337
v -17.915924 -1.574409 10.182798
v -17.915928 -1.574413 4.670337
v -25.805565 -1.574409 10.182801
v -17.915924 -0.235150 10.182798
v -25.805565 -0.235150 10.182801
v -33.230869 -0.235150 10.182801
v -33.230873 -1.574413 4.670347
v -33.230873 -0.235154 4.670340
v -25.805567 -1.574413 4.670340
v -33.230873 -0.235154 -2.858497
v -25.805567 0.935534 -2.858497
v -25.805567 -0.235154 -2.858497
v -33.378819 8.534076 -57.101746
v -33.378819 6.890286 -67.183838
v -33.378819 6.890285 -57.101746
v -33.378819 8.534076 -67.183838
v -25.474600 6.890286 -67.183838
v -25.474600 8.534076 -57.101746
v -25.474600 6.890285 -42.873798
v -25.474600 6.890285 -57.101746
v -25.474600 8.534075 -42.873798
v -33.378819 6.890285 -42.873798
v -25.474600 8.534076 -67.183838
v -7.388138 6.890285 -57.101746
v -33.378819 8.534075 -42.873798
v -7.388138 8.534076 -67.183838
v -7.388138 6.890286 -67.183838
v -7.388138 8.534076 -57.101746
v -33.230873 -1.574413 -2.858497
v -25.805567 -1.574413 -2.858497
v -25.805567 0.935534 4.670340
v -25.805565 0.935539 10.182801
v -33.230869 -1.574409 10.182808
v -33.230873 3.807387 -4.672400
v -33.230873 -1.574412 -12.921699
v -33.230873 -1.574413 -4.672395
v -33.230873 3.807388 -12.921702
v -25.805567 -1.574412 -12.921699
v -25.805567 3.807387 -4.672400
v -25.805567 -1.574413 -4.672395
v -25.805567 3.807388 -12.921702
v -33.230873 4.907879 -14.723567
v -33.230873 -1.574412 -23.158489
v -33.230873 -1.574412 -14.723565
v -33.230873 4.907880 -23.158493
v -25.805567 -1.574412 -23.158489
v -25.805567 4.907879 -14.723567
v -25.805567 -1.574412 -14.723565
v -25.805567 4.907880 -23.158493
v -33.230873 6.073138 -24.694172
v -33.230873 -1.574412 -33.118889
v -33.230873 -1.574412 -24.694164
v -33.230873 6.073138 -33.118893
v -25.805567 -1.574412 -33.118889
v -25.805567 6.073138 -24.694172
v -25.805567 -1.574412 -24.694164
v -25.805567 6.073138 -33.118893
v -33.230873 7.393472 -34.437592
v -33.230873 -1.574411 -40.638550
v -33.230873 -1.574411 -34.437580
v -33.230873 7.393473 -40.638557
v -25.805567 -1.574411 -40.638550
v -25.805567 7.393472 -34.437592
v -25.805567 -1.574411 -34.437580
v -25.805567 7.393473 -40.638557
v -25.805567 -0.235154 4.670340
v -33.230869 0.935539 10.182801
v -25.805567 2.531852 4.670340
v -33.230873 0.935534 4.670340
v -33.230873 0.935534 -2.858497
v -33.230873 2.531852 -2.858497
v -25.805567 2.531852 -2.858497
v -33.230873 2.531852 4.670340
vt -15.176053 17.518070
vt -16.353720 22.449732
vt -16.353720 17.518070
vt 24.961819 11.848875
vt 26.139482 4.790496
vt 26.139486 11.848875
vt 26.139486 18.491838
vt 16.259752 -14.016047
vt 17.437424 -18.947699
vt 17.437420 -14.016039
vt -19.873495 3.816726
vt -15.026159 -3.241653
vt -15.026159 3.816726
vt 24.393051 -19.850950
vt 23.363613 -26.493917
vt 24.393051 -26.493917
vt 24.961819 17.519367
vt 23.516367 26.539194
vt 23.516365 17.519367
vt 24.603012 4.304560
vt 26.048464 -2.766856
vt 26.048462 4.304560
vt 9.133598 25.056450
vt 10.579052 12.327579
vt 10.579052 25.056450
vt -3.649427 26.125460
vt -2.203975 19.054039
vt -2.203973 26.125460
vt -13.982692 -19.422501
vt -26.493917 -26.493917
vt -13.982692 -26.493917
vt 7.394152 -3.241650
vt -5.117076 -10.313072
vt 7.394152 -10.313070
vt 16.259752 -3.241650
vt 16.259752 -10.313072
vt -5.117076 -19.422503
vt -5.117076 -26.493917
vt -13.982687 -3.241653
vt 24.961815 4.790496
vt 23.516365 4.790496
vt 16.134163 27.493917
vt 17.579617 18.474085
vt 17.579617 27.493917
vt 26.048468 -2.766856
vt 27.493917 -18.947706
vt 27.493917 -2.766856
vt 24.603012 -2.766856
vt 26.048462 -18.947706
vt 16.259752 -26.493917
vt 16.259756 -7.280449
vt 25.570715 -26.493917
vt 25.570715 -19.850950
vt -18.786861 22.126942
vt -17.757429 17.195280
vt -17.757427 22.126942
vt -26.493916 10.459693
vt -19.873487 10.459693
vt -18.786863 10.459693
vt -19.964531 17.195280
vt -19.964531 10.459693
vt -15.026151 10.459686
vt 19.870565 -11.567561
vt 24.603006 -18.947702
vt 24.603006 -11.567556
vt -10.293710 20.350590
vt -15.026151 26.993557
vt -15.026151 20.350590
vt 22.548653 25.456583
vt 17.816212 18.076441
vt 22.548653 18.076435
vt 24.603006 -11.567556
vt 19.870565 -4.924590
vt 19.870565 -11.567556
vt 11.286821 4.624428
vt 17.816206 -2.755717
vt 17.816206 4.624428
vt -26.493917 17.839838
vt -19.964535 10.459693
vt -19.964531 17.839838
vt -15.026151 20.350590
vt -9.326001 12.804382
vt -9.326001 20.350590
vt 23.516365 4.790496
vt 17.816212 11.433463
vt 17.816212 4.790496
vt 16.259752 -26.493916
vt 21.959904 -18.947706
vt 16.259752 -18.947706
vt 23.516356 -2.755717
vt 17.816206 3.887253
vt 17.816206 -2.755717
vt 4.757438 4.790496
vt 11.286819 -2.755717
vt 11.286821 4.790493
vt -1.771944 4.790496
vt 4.757438 -2.755716
vt 4.757438 4.790496
vt -8.496765 12.318443
vt -1.771954 4.781366
vt -1.771954 12.318450
vt 11.286825 4.790496
vt 17.816212 11.632289
vt 11.286825 11.632289
vt -8.496758 -2.755717
vt -1.771955 4.781363
vt -8.496765 4.781363
vt 17.816206 18.474083
vt 11.286825 11.632289
vt 17.816206 11.632289
vt -1.771946 12.327582
vt 4.757438 4.790496
vt 4.757438 12.327582
vt 4.757445 12.327579
vt 11.286825 4.790496
vt 11.286821 12.327579
vt -1.771944 12.327586
vt 3.680827 20.350597
vt -1.771947 20.350603
vt -15.026151 -3.241653
vt -8.496765 4.781363
vt -15.026151 4.781363
vt 9.133598 12.327582
vt 3.680830 20.350597
vt 3.680827 12.327579
vt -8.496772 12.804379
vt -15.026151 4.781363
vt -8.496772 4.781363
vt 17.816212 11.433469
vt 23.268988 18.076435
vt 17.816212 18.076435
vt -21.041145 24.482801
vt -26.493917 17.839842
vt -21.041143 17.839838
vt -16.353720 17.518068
vt -15.176054 10.459693
vt -15.176054 17.518068
vt 16.134163 18.474085
vt 11.286825 25.532461
vt 11.286825 18.474087
vt -3.649428 19.054039
vt -8.496765 25.696999
vt -8.496765 19.054039
vt -17.757429 10.459693
vt -16.353722 17.195280
vt 27.168922 18.491838
vt -18.786863 17.195280
vt 18.466856 -14.016039
vt 18.466858 -7.280449
vt 17.437420 -7.280449
vt -8.496765 19.054039
vt -1.967381 12.318450
vt -1.967381 19.054039
vt 19.870565 -7.280451
vt -10.293709 20.350590
vt -8.889997 26.993557
vt -10.293706 26.993557
vt 23.363613 -19.850950
vt 21.959906 -26.493917
vt -15.176054 22.449736
vt 24.961819 4.790496
vt 24.961819 18.491838
vt 16.259756 -18.947706
vt -19.873501 -3.241650
vt 24.961819 26.539194
vt 9.133598 12.327579
vt -3.649428 19.054039
vt -26.493917 -19.422501
vt -5.117076 -3.241650
vt -5.117076 -3.241654
vt 16.134167 18.474085
vt 26.048464 -18.947706
vt 24.603012 -18.947706
vt 7.394148 -26.493917
vt -26.493917 3.816726
vt 19.870565 -18.947706
vt -10.293710 26.993557
vt 17.816212 25.456585
vt 24.603006 -4.924590
vt 11.286821 -2.755716
vt -26.493917 10.459693
vt -15.026151 12.804379
vt 23.516363 11.433466
vt 21.959904 -26.493917
vt 23.516359 3.887253
vt 4.757438 -2.755716
vt -1.771947 -2.755717
vt -8.496765 4.781363
vt 17.816212 4.790496
vt -1.771949 -2.755717
vt 11.286825 18.474085
vt -1.771947 4.790496
vt 4.757438 4.790496
vt 3.680827 12.327579
vt -8.496765 -3.241653
vt 9.133598 20.350599
vt -15.026151 12.804379
vt 23.268988 11.433466
vt -26.493916 24.482805
vt -16.353720 10.459693
vt 16.134163 25.532463
vt -3.649428 25.697006
vt -16.353722 10.459693
vt 27.168921 11.848875
vt 18.466858 -18.947699
vt -8.496765 12.318450
vt 19.870565 -14.016039
vt -8.889998 20.350590
vt 21.959906 -19.850950
vn 1.0000 0.0000 -0.0000
vn 0.0000 0.0000 1.0000
vn -1.0000 -0.0000 0.0000
vn 0.0000 -1.0000 0.0000
vn 0.0000 0.0000 -1.0000
vn 0.0000 1.0000 0.0000
s 1
f 1/1/1 2/2/1 3/3/1
f 4/4/2 5/5/2 6/6/2
f 7/7/2 4/4/2 6/6/2
f 8/8/3 7/9/3 9/10/3
f 10/11/4 2/12/4 4/13/4
f 11/14/5 12/15/5 13/16/5
f 14/17/3 15/18/3 16/19/3
f 17/20/5 18/21/5 15/22/5
f 19/23/1 20/24/1 21/25/1
f 22/26/2 23/27/2 20/28/2
f 21/29/4 23/30/4 16/31/4
f 14/32/6 22/33/6 19/34/6
f 17/35/6 19/34/6 24/36/6
f 18/37/4 16/31/4 15/38/4
f 18/37/4 25/39/4 21/29/4
f 26/40/3 16/19/3 23/41/3
f 27/42/1 25/43/1 28/44/1
f 21/45/2 29/46/2 19/47/2
f 24/48/5 28/49/5 18/21/5
f 19/34/6 27/50/6 24/36/6
f 9/10/3 30/51/3 8/8/3
f 11/14/5 31/52/5 30/53/5
f 6/54/1 32/55/1 33/56/1
f 30/57/4 10/11/4 8/58/4
f 13/59/1 10/60/1 31/61/1
f 8/58/4 4/13/4 34/62/4
f 35/63/3 36/64/3 37/65/3
f 38/66/5 39/67/5 36/68/5
f 39/69/1 40/70/1 41/71/1
f 40/72/2 37/73/2 41/74/2
f 39/75/4 37/76/4 36/77/4
f 38/78/6 40/79/6 42/80/6
f 43/81/3 44/82/3 45/83/3
f 46/84/5 47/85/5 44/86/5
f 47/87/1 48/88/1 49/89/1
f 48/90/2 45/91/2 49/92/2
f 47/93/4 45/94/4 44/95/4
f 46/96/6 48/97/6 50/98/6
f 51/99/3 52/100/3 53/101/3
f 54/102/5 55/103/5 52/104/5
f 55/105/1 56/106/1 57/107/1
f 56/108/2 53/109/2 57/110/2
f 55/111/4 53/112/4 52/113/4
f 54/114/6 56/115/6 58/116/6
f 59/117/3 60/118/3 61/119/3
f 62/120/5 63/121/5 60/122/5
f 63/123/1 64/124/1 65/125/1
f 64/126/2 61/127/2 65/128/2
f 63/129/4 61/130/4 60/131/4
f 62/132/6 64/133/6 66/134/6
f 67/135/5 3/136/5 10/137/5
f 6/138/6 1/139/6 67/140/6
f 32/141/6 68/142/6 33/143/6
f 12/144/1 69/145/1 32/55/1
f 6/6/2 68/146/2 7/7/2
f 13/59/1 32/55/1 67/147/1
f 7/9/3 70/148/3 9/10/3
f 9/10/3 71/149/3 11/150/3
f 72/151/6 69/152/6 73/153/6
f 70/148/3 72/154/3 71/149/3
f 32/155/2 74/156/2 70/157/2
f 71/158/5 73/159/5 12/15/5
f 1/1/1 5/160/1 2/2/1
f 4/4/2 2/161/2 5/5/2
f 7/7/2 34/162/2 4/4/2
f 8/8/3 34/163/3 7/9/3
f 10/11/4 3/164/4 2/12/4
f 11/14/5 71/158/5 12/15/5
f 14/17/3 17/165/3 15/18/3
f 17/20/5 24/48/5 18/21/5
f 19/23/1 22/166/1 20/24/1
f 22/26/2 26/167/2 23/27/2
f 21/29/4 20/168/4 23/30/4
f 14/32/6 26/169/6 22/33/6
f 17/35/6 14/32/6 19/34/6
f 18/37/4 21/29/4 16/31/4
f 18/37/4 28/170/4 25/39/4
f 26/40/3 14/17/3 16/19/3
f 27/42/1 29/171/1 25/43/1
f 21/45/2 25/172/2 29/46/2
f 24/48/5 27/173/5 28/49/5
f 19/34/6 29/174/6 27/50/6
f 9/10/3 11/150/3 30/51/3
f 11/14/5 13/16/5 31/52/5
f 6/54/1 67/147/1 32/55/1
f 30/57/4 31/175/4 10/11/4
f 13/59/1 67/147/1 10/60/1
f 8/58/4 10/11/4 4/13/4
f 35/63/3 38/176/3 36/64/3
f 38/66/5 42/177/5 39/67/5
f 39/69/1 42/178/1 40/70/1
f 40/72/2 35/179/2 37/73/2
f 39/75/4 41/180/4 37/76/4
f 38/78/6 35/181/6 40/79/6
f 43/81/3 46/182/3 44/82/3
f 46/84/5 50/183/5 47/85/5
f 47/87/1 50/184/1 48/88/1
f 48/90/2 43/185/2 45/91/2
f 47/93/4 49/186/4 45/94/4
f 46/96/6 43/187/6 48/97/6
f 51/99/3 54/188/3 52/100/3
f 54/102/5 58/189/5 55/103/5
f 55/105/1 58/190/1 56/106/1
f 56/108/2 51/191/2 53/109/2
f 55/111/4 57/192/4 53/112/4
f 54/114/6 51/193/6 56/115/6
f 59/117/3 62/194/3 60/118/3
f 62/120/5 66/195/5 63/121/5
f 63/123/1 66/196/1 64/124/1
f 64/126/2 59/197/2 61/127/2
f 63/129/4 65/198/4 61/130/4
f 62/132/6 59/199/6 64/133/6
f 67/135/5 1/200/5 3/136/5
f 6/138/6 5/201/6 1/139/6
f 32/141/6 70/202/6 68/142/6
f 12/144/1 73/203/1 69/145/1
f 6/6/2 33/204/2 68/146/2
f 13/59/1 12/144/1 32/55/1
f 7/9/3 68/205/3 70/148/3
f 9/10/3 70/148/3 71/149/3
f 72/151/6 74/206/6 69/152/6
f 70/148/3 74/207/3 72/154/3
f 32/155/2 69/208/2 74/156/2
f 71/158/5 72/209/5 73/159/5
