# Blender v2.79 (sub 0) OBJ File: 'PROTOTIPO_CIUDAD.blend'
# www.blender.org
o Plane.001_Plane.009
v -344.487091 -31.847950 42.609608
v -319.005035 -31.847950 49.375359
v -344.298492 -31.847950 41.899246
v -318.816437 -31.847950 48.664997
v -344.298492 -15.807293 41.899246
v -344.487091 -15.807293 42.609608
v -319.005035 -15.807293 49.375359
v -318.816437 -15.807293 48.664997
vt 0.000000 1.000000
vt 0.339704 0.500000
vt 0.339704 1.000000
vt 0.000000 0.000000
vt 0.339704 0.500000
vt 0.000000 0.500000
vt 1.000000 0.500000
vt 0.669852 0.000000
vt 1.000000 0.000000
vt 0.669852 0.500000
vt 1.000000 1.000000
vt 0.669852 1.000000
vt 0.339704 0.000000
vt 0.669852 0.500000
vt 0.339704 0.500000
vt 0.339704 0.500000
vt 0.669852 1.000000
vt 0.339704 1.000000
vt 0.000000 0.500000
vt 0.339704 0.000000
vt 1.000000 0.500000
vt 0.669852 0.000000
vt 0.669852 0.500000
vn 0.0000 -1.0000 0.0000
vn 0.0000 1.0000 -0.0000
vn -0.9665 0.0000 -0.2566
vn 0.2566 0.0000 -0.9665
vn -0.2566 0.0000 0.9665
vn 0.9665 0.0000 0.2566
s off
f 3/1/1 2/2/1 1/3/1
f 7/4/2 5/5/2 6/6/2
f 1/7/3 5/8/3 3/9/3
f 3/10/4 8/11/4 4/12/4
f 2/13/5 6/14/5 1/15/5
f 4/16/6 7/17/6 2/18/6
f 3/1/1 4/19/1 2/2/1
f 7/4/2 8/20/2 5/5/2
f 1/7/3 6/14/3 5/8/3
f 3/10/4 5/21/4 8/11/4
f 2/13/5 7/22/5 6/14/5
f 4/16/6 8/23/6 7/17/6
