# Blender v2.79 (sub 0) OBJ File: ''
# www.blender.org
o Plane.001_Plane.009
v -12.646729 -8.020327 -3.738060
v 12.646729 -8.020327 3.738052
v -12.835327 -8.020327 -3.027699
v 12.646729 8.020330 3.738053
v -12.646729 8.020330 -3.738060
v -12.835327 8.020330 -3.027698
v 12.835327 8.020330 3.027691
v 12.835327 -8.020327 3.027691
vt 0.000000 1.000000
vt 0.339704 0.500000
vt 0.339704 1.000000
vt 0.000000 0.000000
vt 0.339704 0.500000
vt 0.000000 0.500000
vt 1.000000 0.500000
vt 0.669852 0.000000
vt 1.000000 0.000000
vt 0.669852 0.500000
vt 1.000000 1.000000
vt 0.669852 1.000000
vt 0.339704 0.000000
vt 0.669852 0.500000
vt 0.339704 0.500000
vt 0.339704 0.500000
vt 0.669852 1.000000
vt 0.339704 1.000000
vt 0.000000 0.500000
vt 0.339704 0.000000
vt 1.000000 0.500000
vt 0.669852 0.000000
vt 0.669852 0.500000
vn 0.0000 -1.0000 -0.0000
vn 0.0000 1.0000 0.0000
vn -0.9665 -0.0000 -0.2566
vn 0.2566 0.0000 -0.9665
vn -0.2566 -0.0000 0.9665
vn 0.9665 0.0000 0.2566
s 1
f 1/1/1 2/2/1 3/3/1
f 4/4/2 5/5/2 6/6/2
f 3/7/3 5/8/3 1/9/3
f 1/10/4 7/11/4 8/12/4
f 2/13/5 6/14/5 3/15/5
f 8/16/6 4/17/6 2/18/6
f 1/1/1 8/19/1 2/2/1
f 4/4/2 7/20/2 5/5/2
f 3/7/3 6/14/3 5/8/3
f 1/10/4 5/21/4 7/11/4
f 2/13/5 4/22/5 6/14/5
f 8/16/6 7/23/6 4/17/6
