# Blender v2.79 (sub 0) OBJ File: 'algo.blend'
# www.blender.org
mtllib algo.mtl
o Cube_Cube.001
v -21.816298 -36.088791 27.236187
v -21.816298 -12.072495 27.236187
v -21.816298 -36.088791 -7.448810
v -21.816298 -1.403796 -7.448810
v 12.868700 -36.088791 27.236187
v 12.868700 -12.072495 27.236187
v 12.868700 -36.088791 -7.448810
v 12.868700 -1.403796 -7.448810
v -21.816298 -1.403796 -37.084297
v -21.816298 -36.088791 -37.084297
v 12.868700 -36.088791 -37.084297
v 12.868700 -1.403796 -37.084297
v -21.816298 10.606636 -7.448810
v 12.868700 10.606636 -7.448810
v -21.816298 10.606636 -37.084297
v 12.868700 10.606636 -37.084297
v 35.510601 -1.403796 -7.448810
v 35.510601 -1.403796 -37.084297
v 35.510601 10.606636 -7.448810
v 35.510601 10.606636 -37.084297
v -21.816298 17.249336 -19.759865
v 12.868700 17.249336 -19.759865
v -21.816298 22.295353 -37.084297
v 12.868700 22.295353 -37.084297
v 25.923376 -19.167774 -7.448810
v 25.923376 -36.088791 -7.448810
v 25.923376 -36.088791 27.236187
v 25.923376 -19.167774 27.236187
v -21.816298 26.644114 -17.023487
v 12.868700 26.644114 -17.023487
v -21.816298 31.690134 -34.347919
v 12.868700 31.690134 -34.347919
v -21.816298 28.852015 -16.380400
v 12.868700 28.852015 -16.380400
v -21.816298 33.898037 -33.704834
v 12.868700 33.898037 -33.704834
v -21.816298 33.509346 -15.023878
v 12.868700 33.509346 -15.023878
v -21.816298 38.555367 -32.348309
v 12.868700 38.555367 -32.348309
v -21.816298 36.696541 -43.312897
v 12.868700 36.696541 -43.312897
v -21.816298 41.353874 -41.956375
v 12.868700 41.353874 -41.956375
v -21.816298 -36.088791 45.361462
v -21.816298 -20.807871 33.842228
v 12.868700 -20.807871 33.842228
v 12.868700 -36.088791 45.361462
v -21.816298 -27.787115 56.374107
v -21.816298 -12.506193 44.854866
v 12.868700 -12.506193 44.854866
v 12.868700 -27.787115 56.374107
v -21.816298 -23.068424 62.633720
v -21.816298 -7.787501 51.114479
v 12.868700 -7.787501 51.114479
v 12.868700 -23.068424 62.633720
v 12.868700 -5.993711 39.945557
v -21.816298 -5.993711 39.945557
v 12.868700 -1.275019 46.205170
v -21.816298 -1.275019 46.205170
vt 0.411156 0.374521
vt 0.283649 0.374521
vt 0.227007 0.190390
vt 0.411156 0.190390
vt 0.864435 0.829877
vt 0.864435 0.645746
vt 0.927562 0.645746
vt 0.927562 0.829877
vt 0.238851 0.631738
vt 0.046254 0.631738
vt 0.047196 0.561205
vt 0.218406 0.548901
vt 0.411156 0.470742
vt 0.330027 0.409591
vt 0.411156 0.157152
vt 0.595304 0.157152
vt 0.595304 0.341080
vt 0.411156 0.341081
vt 0.238851 0.815869
vt 0.046254 0.815869
vt 0.411156 0.896896
vt 0.411156 0.713800
vt 0.595304 0.713800
vt 0.595304 0.896896
vt 0.227007 0.033066
vt 0.411156 0.033066
vt 0.821953 0.191662
vt 0.821953 0.375793
vt 0.664614 0.375793
vt 0.664614 0.191662
vt 0.411156 0.000000
vt 0.595304 0.000000
vt 0.163242 0.033066
vt 0.163242 0.190390
vt 0.127975 0.125035
vt 0.101185 0.033066
vt 0.238851 0.920890
vt 0.238851 0.763738
vt 0.359061 0.763738
vt 0.359061 0.920890
vt 0.411156 0.650399
vt 0.595304 0.650398
vt 0.927562 0.829877
vt 0.927562 0.987202
vt 0.863796 0.987202
vt 0.863796 0.829877
vt 0.715514 0.650398
vt 0.715514 0.713800
vt 0.864435 0.525548
vt 0.927562 0.525548
vt 0.944567 0.000000
vt 0.944567 0.151528
vt 0.824357 0.151528
vt 0.824357 0.000000
vt 0.294236 0.611911
vt 0.377480 0.659323
vt 0.351767 0.704460
vt 0.268523 0.657048
vt 0.411156 0.588696
vt 0.595304 0.588696
vt 0.251155 0.556283
vt 0.391890 0.598967
vt 0.927562 0.709679
vt 0.927562 0.525548
vt 1.000000 0.525548
vt 1.000000 0.709679
vt 0.089837 1.000000
vt 0.000000 1.000000
vt 0.000000 0.815869
vt 0.089836 0.815869
vt 0.927562 0.892775
vt 0.927562 0.709679
vt 0.996871 0.803452
vt 0.996871 0.892775
vt 0.733923 0.375793
vt 0.733923 0.502010
vt 0.664614 0.502010
vt 0.664614 0.413082
vt 0.664614 0.157152
vt 0.664614 0.341080
vt 0.345724 0.715068
vt 0.262480 0.667656
vt 0.089837 1.000000
vt 0.089837 0.815869
vt 0.141267 0.815869
vt 0.141267 1.000000
vt 0.078097 0.139562
vt 0.051306 0.047592
vt 0.411156 0.537564
vt 0.595304 0.537564
vt 0.153354 1.000000
vt 0.153354 0.815869
vt 0.178850 0.815869
vt 0.178850 1.000000
vt 0.066374 0.142976
vt 0.039584 0.051006
vt 0.411156 0.525548
vt 0.595304 0.525548
vt 0.715514 0.709679
vt 0.715514 0.525548
vt 0.811308 0.525548
vt 0.811308 0.709679
vt 0.041648 0.150177
vt 0.014858 0.058207
vt 0.864435 0.525548
vt 0.864435 0.709679
vt 0.332977 0.737444
vt 0.249734 0.690032
vt 0.855992 0.709679
vt 0.855992 0.893810
vt 0.830642 0.893810
vt 0.830642 0.709679
vt 0.000000 0.007201
vt 0.024727 0.000000
vt 0.359061 0.947869
vt 0.359061 0.763738
vt 0.410712 0.763738
vt 0.410712 0.947869
vt 0.391890 0.741362
vt 0.379143 0.763738
vt 0.932022 0.191662
vt 0.932022 0.375793
vt 0.882005 0.375793
vt 0.882005 0.191662
vt 0.595304 0.437196
vt 0.411156 0.437196
vt 0.000000 0.815869
vt 0.000000 0.631738
vt 0.722540 0.000000
vt 0.824357 0.076746
vt 0.766212 0.076835
vt 0.664614 0.076835
vt 0.664614 0.150048
vt 0.766212 0.150048
vt 0.766212 0.191662
vt 0.664614 0.191662
vt 0.595304 0.493528
vt 0.411156 0.493528
vt 0.367081 0.529205
vt 0.285952 0.468053
vt 0.715514 0.709679
vt 0.796238 0.709679
vt 0.796238 0.893810
vt 0.715514 0.893810
vt 0.595304 0.525548
vt 0.411156 0.525548
vt 0.342029 0.562435
vt 0.260900 0.501283
vt 0.809511 0.150048
vt 0.809511 0.191662
vt 0.850383 0.191662
vt 0.850383 0.375793
vt 0.821953 0.375793
vt 0.821953 0.191662
vt 0.226324 0.475221
vt 0.251376 0.441991
vt 0.830642 0.709679
vt 0.830642 0.893810
vn -1.0000 0.0000 0.0000
vn 0.0000 0.0000 1.0000
vn 0.6853 0.7198 0.1107
vn 0.0000 -1.0000 0.0000
vn 0.0000 0.9558 0.2940
vn 0.0000 0.0000 -1.0000
vn 1.0000 0.0000 0.0000
vn 0.0000 1.0000 0.0000
vn 0.0000 0.8801 0.4749
vn 0.0000 -0.2796 0.9601
vn 0.0000 0.2796 -0.9601
vn 0.0000 0.9601 0.2796
vn 0.0000 -0.9601 -0.2796
vn 0.0000 0.7985 -0.6020
vn 0.0000 0.6032 0.7976
vn 0.0000 -0.7985 0.6020
vn 0.0000 0.6020 0.7985
vn 0.0000 -0.6020 -0.7985
usemtl Material.001
s off
f 1/1/1 2/2/1 4/3/1 3/4/1
f 4/5/2 8/6/2 14/7/2 13/8/2
f 8/9/3 6/10/3 28/11/3 25/12/3
f 2/2/1 1/1/1 45/13/1 46/14/1
f 3/15/4 7/16/4 5/17/4 1/18/4
f 8/9/5 4/19/5 2/20/5 6/10/5
f 10/21/6 9/22/6 12/23/6 11/24/6
f 3/4/1 4/3/1 9/25/1 10/26/1
f 8/27/7 7/28/7 11/29/7 12/30/7
f 7/16/4 3/15/4 10/31/4 11/32/4
f 15/33/1 13/34/1 21/35/1 23/36/1
f 8/37/4 12/38/4 18/39/4 17/40/4
f 12/23/6 9/22/6 15/41/6 16/42/6
f 9/25/1 4/3/1 13/34/1 15/33/1
f 17/43/7 18/44/7 20/45/7 19/46/7
f 12/23/6 16/42/6 20/47/6 18/48/6
f 14/7/2 8/6/2 17/49/2 19/50/2
f 16/51/8 14/52/8 19/53/8 20/54/8
f 22/55/7 24/56/7 32/57/7 30/58/7
f 16/42/6 15/41/6 23/59/6 24/60/6
f 14/61/7 16/62/7 24/56/7 22/55/7
f 13/63/9 14/64/9 22/65/9 21/66/9
f 26/67/7 25/68/7 28/69/7 27/70/7
f 7/71/6 8/72/6 25/73/6 26/74/6
f 6/75/2 5/76/2 27/77/2 28/78/2
f 5/17/4 7/16/4 26/79/4 27/80/4
f 30/58/7 32/57/7 36/81/7 34/82/7
f 21/83/10 22/84/10 30/85/10 29/86/10
f 23/36/1 21/35/1 29/87/1 31/88/1
f 24/60/11 23/59/11 31/89/11 32/90/11
f 33/91/10 34/92/10 38/93/10 37/94/10
f 29/86/10 30/85/10 34/92/10 33/91/10
f 31/88/1 29/87/1 33/95/1 35/96/1
f 32/90/11 31/89/11 35/97/11 36/98/11
f 37/99/12 38/100/12 40/101/12 39/102/12
f 35/96/1 33/95/1 37/103/1 39/104/1
f 39/102/12 40/101/12 44/105/12 43/106/12
f 34/82/7 36/81/7 40/107/7 38/108/7
f 42/109/11 41/110/11 43/111/11 44/112/11
f 35/96/1 39/104/1 43/113/1 41/114/1
f 36/115/13 35/116/13 41/117/13 42/118/13
f 40/107/7 36/81/7 42/119/7 44/120/7
f 47/121/14 46/122/14 50/123/14 51/124/14
f 1/18/4 5/17/4 48/125/4 45/126/4
f 6/10/15 2/20/15 46/127/15 47/128/15
f 5/129/7 6/130/7 47/131/7 48/132/7
f 52/133/7 51/134/7 55/135/7 56/136/7
f 48/132/7 47/131/7 51/134/7 52/133/7
f 45/126/16 48/125/16 52/137/16 49/138/16
f 46/14/1 45/13/1 49/139/1 50/140/1
f 56/141/17 55/142/17 54/143/17 53/144/17
f 49/138/16 52/137/16 56/145/16 53/146/16
f 50/140/1 49/139/1 53/147/1 54/148/1
f 55/135/7 51/134/7 57/149/7 59/150/7
f 57/151/14 58/152/14 60/153/14 59/154/14
f 50/140/1 54/148/1 60/155/1 58/156/1
f 54/143/17 55/142/17 59/157/17 60/158/17
f 51/124/18 50/123/18 58/152/18 57/151/18
