# Blender v2.79 (sub 0) OBJ File: 'PROTOTIPO_CIUDAD.blend'
# www.blender.org
o Plane
v -41.610104 0.000000 31.327438
v 40.839497 0.000000 31.327438
v -31.016249 0.000000 -51.122158
v 30.245644 0.000000 -51.122158
v -31.016249 0.000000 -205.960159
v 19.763027 0.000000 -205.960159
v -24.592812 0.000000 -174.992569
v -24.592812 0.000000 -144.024948
v -24.592812 0.000000 -113.057350
v -24.592812 0.000000 -82.089752
v 25.753407 0.000000 -82.089760
v 25.753407 0.000000 -113.057365
v 25.753407 0.000000 -144.024963
v 25.753407 0.000000 -174.992584
v -31.016249 0.000000 -205.960159
v 19.763027 0.000000 -205.960159
v -61.592693 0.000000 -275.211060
v -10.813416 0.000000 -304.940582
vn 0.0000 1.0000 0.0000
vn 0.0000 0.0000 1.0000
s off
f 2//1 3//1 1//1
f 7//1 6//1 5//1
f 4//1 10//1 3//1
f 11//1 9//1 10//1
f 12//1 8//1 9//1
f 13//1 7//1 8//1
f 5//2 16//2 15//2
f 15//1 18//1 17//1
f 2//1 4//1 3//1
f 7//1 14//1 6//1
f 4//1 11//1 10//1
f 11//1 12//1 9//1
f 12//1 13//1 8//1
f 13//1 14//1 7//1
f 5//2 6//2 16//2
f 15//1 16//1 18//1
o Cube.001
v 1.645407 -1.645407 -1.645407
v 1.645407 -1.645407 1.645407
v -1.645407 -1.645407 1.645406
v -1.645406 -1.645407 -1.645407
v 1.645407 1.645407 -1.645406
v -1.645406 1.645407 -1.645407
v -1.645407 1.645407 1.645406
v 1.645406 1.645407 1.645408
vt 0.333333 0.666667
vt 0.000000 1.000000
vt 0.000000 0.666667
vt 0.666667 0.333333
vt 0.333333 0.666667
vt 0.333333 0.333333
vt 0.333333 0.333333
vt 0.666667 0.000000
vt 0.666667 0.333333
vt 0.000000 0.000000
vt 0.333333 0.333333
vt 0.000000 0.333333
vt 0.666667 0.333333
vt 1.000000 0.000000
vt 1.000000 0.333333
vt 0.333333 0.333333
vt 0.000000 0.666667
vt 0.000000 0.333333
vt 0.333333 1.000000
vt 0.666667 0.666667
vt 0.333333 0.000000
vt 0.333333 0.000000
vt 0.666667 0.000000
vt 0.333333 0.666667
vn 0.0000 -1.0000 -0.0000
vn -0.0000 1.0000 0.0000
vn 1.0000 0.0000 0.0000
vn -0.0000 -0.0000 1.0000
vn -1.0000 0.0000 -0.0000
vn 0.0000 0.0000 -1.0000
s 1
f 20/1/3 22/2/3 19/3/3
f 23/4/4 25/5/4 26/6/4
f 23/7/5 20/8/5 19/9/5
f 26/10/6 21/11/6 20/12/6
f 25/13/7 22/14/7 21/15/7
f 19/16/8 24/17/8 23/18/8
f 20/1/3 21/19/3 22/2/3
f 23/4/4 24/20/4 25/5/4
f 23/7/5 26/21/5 20/8/5
f 26/10/6 25/22/6 21/11/6
f 25/13/7 24/23/7 22/14/7
f 19/16/8 22/24/8 24/17/8
