# Blender v2.80 (sub 44) OBJ File: ''
# www.blender.org
o ROCA2_Sphere.000
v -0.072827 -1.726090 -5.355322
v 3.674336 -1.163198 -3.635741
v 3.849742 -1.745405 -3.819667
v -0.062270 0.625245 -4.082175
v 2.167073 1.715728 -2.128472
v 4.062389 1.319748 -4.023795
v 3.114929 -2.617883 -3.084849
v -0.072827 -2.731015 -4.662480
v 4.163601 -0.466179 -4.125007
v -0.062270 -0.461291 -5.913260
v -0.062270 3.214441 -1.947344
v -0.062270 2.824535 0.100878
v 1.414738 3.290163 -1.376134
v -0.072827 -3.262595 -2.407913
v 1.690256 -3.245847 -1.660174
v -0.062270 -1.188043 -5.556899
v -0.062270 2.319790 -3.758804
v -0.072827 -3.290163 0.102913
v 5.040918 1.012511 0.100876
v 5.269121 -0.549566 0.100876
v 1.709796 2.699288 0.100876
v 4.299725 -2.558260 0.102913
v 2.041917 -2.882305 0.102913
v 6.361899 -1.239047 0.100876
v 2.830058 1.493237 0.100876
v 6.214194 -1.905624 0.102913
v 1.050461 2.329134 1.213610
v 2.026391 1.545728 2.189544
v 1.307457 -2.726068 1.483201
v 3.990406 -1.788498 4.166158
v 3.215146 0.815465 3.378302
v 2.830863 -2.441208 3.006614
v 3.995799 -0.496859 4.158957
v 4.431561 -1.234461 4.594720
v -0.072827 -1.765588 5.743490
v -0.072827 -2.492506 4.325959
v -0.062270 -0.583178 5.172309
v -0.062270 2.454344 1.741645
v -0.072827 -3.052457 2.394877
v -0.062270 -1.198334 5.913260
v -0.062270 1.493237 2.993212
v -0.062270 0.688023 4.433095
v -1.786888 -3.179287 1.816980
v -3.649193 -1.149113 3.687808
v -2.249472 1.664802 2.288084
v -3.864917 -1.705436 3.895015
v -2.877778 0.540538 2.916393
v -3.152450 -2.550630 3.182545
v -3.291212 -0.648463 3.329829
v -1.482328 3.139915 1.520937
v -5.428381 -1.703849 0.102913
v -3.210811 1.712159 0.100876
v -4.111021 0.568722 0.100876
v -3.706936 -2.233505 0.102913
v -5.674482 -0.513255 0.100876
v -1.875742 2.776529 0.100876
v -2.312123 -3.001894 0.102913
v -6.361900 -1.230757 0.100876
v -3.260597 0.768393 -3.097458
v -4.238440 -0.475263 -4.075306
v -1.344920 2.777412 -1.181778
v -1.832512 -3.241234 -1.656775
v -3.723679 -1.156123 -3.560543
v -2.257272 1.674232 -2.094134
v -3.260109 -1.520155 -3.084378
v -3.043388 -2.482798 -2.867654
vt 0.153256 0.895993
vt 0.119278 0.717110
vt 0.144200 0.718493
vt 0.695681 0.000000
vt 0.648953 0.115486
vt 0.528705 0.074929
vt 0.192836 0.717837
vt 0.204097 0.873504
vt 0.284660 0.684778
vt 0.288891 0.888531
vt 0.204097 0.697130
vt 0.756027 0.068907
vt 0.794695 0.158039
vt 0.706167 0.120232
vt 0.361971 0.317273
vt 0.312156 0.459124
vt 0.289096 0.369532
vt 0.091177 0.913227
vt 0.127041 0.901909
vt 0.498373 0.937129
vt 0.569168 0.844596
vt 0.569168 0.976761
vt 0.261038 0.256651
vt 0.081521 0.717409
vt 0.035125 0.543277
vt 0.106285 0.537850
vt 0.719618 0.192570
vt 0.155289 0.429194
vt 0.209929 0.339952
vt 0.536171 0.103771
vt 0.548767 0.285938
vt 0.498373 0.312136
vt 0.664617 0.223426
vt 0.164350 0.509257
vt 0.568778 0.269108
vt 0.204097 0.571059
vt 0.767188 0.229786
vt 0.740729 0.295508
vt 0.172399 0.276837
vt 0.924979 0.960611
vt 0.887271 0.791035
vt 0.953583 0.956075
vt 0.709998 0.373767
vt 0.000000 0.316510
vt 0.074347 0.300042
vt 0.684245 0.431830
vt 0.669836 0.464282
vt 0.035333 0.116114
vt 0.091830 0.152374
vt 0.874099 0.398294
vt 0.825284 0.229903
vt 0.169076 0.200592
vt 0.884916 0.434335
vt 0.844077 0.290157
vt 0.870165 0.583582
vt 0.896876 0.587601
vt 0.867707 0.357070
vt 0.233862 0.146486
vt 0.513839 0.799716
vt 0.680438 0.771634
vt 0.513058 0.844596
vt 0.512775 0.586577
vt 0.594038 0.635917
vt 0.509530 0.660186
vt 0.482781 0.503830
vt 0.470848 0.673518
vt 0.441571 0.674166
vt 0.629390 0.692921
vt 0.498373 0.736391
vt 1.000000 0.644025
vt 1.000000 0.805340
vt 0.953583 0.764814
vt 0.663752 0.743104
vt 0.884916 0.188275
vt 0.482781 0.860456
vt 0.672359 0.556308
vt 0.730878 0.591353
vt 0.212565 0.057239
vt 0.392188 0.038513
vt 0.350019 0.108683
vt 0.810178 0.626716
vt 0.870348 0.124111
vt 0.315630 0.166469
vt 0.851019 0.649086
vt 0.601173 0.522148
vt 0.766326 0.464282
vt 0.851019 0.466072
vt 0.822267 0.080286
vt 0.374546 0.228811
vt 0.962440 0.409835
vt 0.997064 0.230057
vt 0.997064 0.434583
vt 0.688573 0.472891
vt 0.498373 0.193625
vt 0.467734 0.201617
vt 0.422838 0.503830
vt 0.441571 0.617615
vt 0.397207 0.615144
vt 0.694998 0.946646
vt 0.620757 0.848398
vt 0.694998 0.844596
vt 0.441571 0.807099
vt 0.417320 0.798606
vt 0.569168 0.977416
vt 0.620757 0.844596
vt 0.620757 1.000000
vt 0.373382 0.774020
vt 0.288891 0.503830
vt 0.453127 0.207667
vt 0.994684 0.000000
vt 0.994684 0.204616
vt 0.963489 0.188557
vt 0.962440 0.434583
vt 0.884916 0.434584
vt 0.890135 0.305780
vt 0.963489 0.158929
vt 0.884916 0.029754
vt 0.963489 0.000000
vt 0.452934 0.370319
vt 0.788383 0.844596
vt 0.799412 0.910780
vt 0.734894 0.910780
vt 0.000000 0.715064
vt 0.132750 0.503830
vt 0.324409 0.503830
vt 0.109206 0.503830
vt 0.851019 0.801499
vt 0.995584 0.644025
vt 0.953583 0.597740
vt 0.995584 0.464282
vt 0.548342 0.563429
vt 0.953583 0.464282
vt 0.201793 0.009257
vt 0.205244 0.021353
vt 0.415259 0.000000
vt 0.373382 0.887726
vt 0.288891 0.699395
vt 0.323990 0.698955
vt 0.610965 0.472835
vt 0.734894 0.986235
vt 0.694998 0.936615
vt 0.734894 0.844596
vt 0.834080 0.950483
vt 0.799412 0.907852
vt 0.834080 0.844596
vt 0.489637 0.388134
vt 0.957087 0.305780
vt 0.884916 0.194816
vt 0.957087 0.158929
vt 0.428874 0.967590
vt 0.373382 0.940245
vt 0.428874 0.807099
vt 0.373382 0.503830
vn 0.4348 -0.2675 -0.8599
vn 0.3537 0.3249 -0.8771
vn 0.3396 0.3748 -0.8627
vn 0.3807 0.5515 -0.7422
vn 0.0603 0.8407 -0.5381
vn -0.1511 0.9265 -0.3447
vn 0.3601 -0.5777 -0.7325
vn 0.2693 -0.7057 -0.6553
vn 0.3932 -0.5219 -0.7570
vn 0.1799 0.7228 -0.6672
vn 0.0680 0.3006 -0.9513
vn 0.2120 0.8404 -0.4987
vn -0.1218 0.9750 0.1856
vn 0.1415 -0.9587 -0.2466
vn 0.1395 -0.9570 -0.2545
vn 0.1309 -0.9488 -0.2873
vn 0.4036 -0.4450 -0.7994
vn 0.3012 -0.6525 -0.6953
vn 0.4213 -0.3993 -0.8143
vn 0.4289 0.7061 -0.5634
vn 0.4138 0.6877 -0.5965
vn 0.4931 0.7800 -0.3852
vn 0.0142 -0.9998 -0.0110
vn 0.9694 0.0843 -0.2307
vn 0.9623 0.1227 -0.2427
vn 0.9586 0.1400 -0.2480
vn 0.0658 0.9309 0.3593
vn 0.0659 0.9327 0.3547
vn 0.0660 0.9336 0.3523
vn 0.2550 -0.9669 -0.0003
vn 0.2352 -0.9715 0.0307
vn 0.1399 -0.9749 0.1731
vn 0.8090 -0.5278 -0.2586
vn 0.5922 0.7156 -0.3703
vn 0.5010 0.7940 -0.3442
vn 0.8251 0.5597 -0.0777
vn 0.8120 0.5770 -0.0880
vn 0.7246 0.6730 -0.1483
vn 0.1869 -0.9689 0.1625
vn 0.8078 0.3406 -0.4811
vn 0.8073 -0.1331 -0.5749
vn 0.7967 0.3867 -0.4644
vn 0.2199 0.9752 0.0241
vn 0.2180 0.9756 0.0268
vn 0.2232 0.9746 0.0196
vn 0.5438 -0.8072 -0.2296
vn 0.3734 -0.8989 -0.2291
vn 0.6433 -0.7317 -0.2254
vn 0.5715 0.7373 0.3602
vn 0.5639 0.7549 0.3348
vn 0.5054 0.8453 0.1732
vn 0.1853 -0.9606 0.2073
vn 0.8502 -0.2530 0.4618
vn 0.6641 -0.6872 0.2945
vn 0.8591 -0.1889 0.4756
vn 0.2667 0.9495 0.1650
vn 0.3165 0.9356 0.1563
vn 0.2092 0.9622 0.1744
vn 0.3172 -0.9271 0.1998
vn 0.3195 -0.9263 0.1998
vn 0.3212 -0.9257 0.1998
vn 0.8634 0.2569 0.4341
vn 0.8090 0.5082 0.2954
vn 0.7684 0.5959 0.2334
vn 0.0660 0.9344 0.3500
vn 0.1069 -0.9869 0.1209
vn 0.1029 -0.9872 0.1220
vn 0.0477 -0.9894 0.1373
vn 0.5505 0.8039 0.2251
vn 0.7274 0.6451 0.2339
vn 0.5202 0.8245 0.2226
vn 0.1558 -0.9078 0.3894
vn 0.1921 -0.8858 0.4225
vn 0.2177 -0.8685 0.4454
vn 0.1988 0.5631 0.8021
vn 0.2317 0.5153 0.8251
vn 0.1854 0.5815 0.7921
vn 0.2095 0.9538 0.2152
vn 0.1768 -0.9749 0.1352
vn 0.1698 -0.9716 0.1647
vn 0.2118 -0.9769 -0.0291
vn 0.2218 0.6131 0.7582
vn 0.1557 0.7388 0.6557
vn 0.2312 0.5925 0.7717
vn 0.2433 0.8105 0.5328
vn 0.2532 0.8051 0.5365
vn 0.1732 0.8453 0.5054
vn 0.2903 -0.9518 0.0987
vn 0.2098 -0.6693 0.7127
vn 0.3336 -0.3268 0.8842
vn 0.3466 -0.2749 0.8968
vn 0.1221 0.8839 0.4515
vn 0.1393 0.8748 0.4641
vn 0.1071 0.8914 0.4405
vn -0.0656 -0.9501 0.3049
vn -0.0773 -0.9469 0.3120
vn -0.0228 -0.9602 0.2784
vn -0.3603 0.7162 0.5977
vn -0.3639 0.7028 0.6113
vn -0.3599 0.7178 0.5960
vn -0.0486 0.6560 0.7532
vn -0.0299 0.6235 0.7812
vn -0.1329 0.7861 0.6037
vn 0.0388 -0.9939 0.1031
vn -0.5134 -0.1811 0.8388
vn -0.4037 0.4006 0.8225
vn -0.3856 0.4496 0.8057
vn -0.2791 0.7796 0.5606
vn -0.2501 0.6838 0.6855
vn -0.2949 0.8340 0.4664
vn -0.2302 -0.8464 0.4802
vn -0.2279 -0.7759 0.5882
vn -0.2250 -0.7319 0.6432
vn -0.4489 0.4448 0.7750
vn -0.4469 0.4341 0.7822
vn -0.4497 0.4490 0.7721
vn 0.4002 0.8939 0.2017
vn -0.8665 0.3237 0.3800
vn -0.4872 -0.7935 0.3646
vn -0.8267 0.4476 0.3410
vn -0.7347 0.5911 0.3329
vn -0.7388 0.5868 0.3316
vn -0.7415 0.5838 0.3306
vn -0.5580 -0.8078 0.1902
vn -0.3902 -0.9201 0.0354
vn -0.2938 -0.9548 -0.0454
vn -0.7467 0.5373 0.3921
vn -0.5886 0.6958 0.4117
vn -0.5181 0.7486 0.4137
vn -0.0257 0.9702 -0.2411
vn -0.4461 -0.8950 0.0059
vn -0.4565 -0.8895 0.0205
vn -0.4817 -0.8745 0.0571
vn -0.5661 0.6952 0.4429
vn -0.6310 0.6200 0.4662
vn -0.6379 0.6112 0.4685
vn -0.7370 0.6450 0.2019
vn -0.7200 0.6605 0.2127
vn -0.5986 0.7508 0.2793
vn -0.1274 -0.9898 -0.0634
vn -0.6041 0.7842 -0.1417
vn -0.6496 0.7347 -0.1958
vn -0.6723 0.7053 -0.2248
vn -0.0265 0.9996 -0.0103
vn -0.4919 -0.8703 -0.0255
vn -0.4961 -0.8677 -0.0315
vn -0.4825 -0.8758 -0.0124
vn -0.7142 0.5174 -0.4714
vn -0.7447 -0.6005 -0.2913
vn -0.6442 0.6172 -0.4516
vn -0.6105 0.7453 -0.2682
vn -0.6122 0.7442 -0.2673
vn -0.5996 0.7521 -0.2735
vn -0.1270 -0.9869 0.0996
vn -0.4224 -0.8469 -0.3232
vn -0.3827 -0.8709 -0.3083
vn -0.3743 -0.8757 -0.3051
vn -0.6975 0.6711 -0.2511
vn -0.6438 0.7466 -0.1676
vn -0.6026 0.7903 -0.1109
vn -0.4162 -0.8731 -0.2538
vn -0.8352 -0.5000 -0.2290
vn -0.9477 -0.2562 -0.1902
vn -0.5101 0.7645 -0.3940
vn -0.5111 0.7656 -0.3907
vn -0.5142 0.7690 -0.3798
vn -0.0168 -0.9998 -0.0110
vn -0.2735 -0.8410 -0.4668
vn -0.5454 -0.3652 -0.7545
vn -0.5692 -0.2786 -0.7736
vn -0.3039 0.6621 -0.6850
vn -0.5109 0.3863 -0.7679
vn -0.1429 0.8015 -0.5807
vn -0.5176 -0.3377 -0.7862
vn -0.5279 -0.4556 -0.7168
vn -0.5119 -0.2967 -0.8062
vn -0.1992 0.7519 -0.6284
vn -0.2144 0.8101 -0.5457
vn -0.2218 0.8386 -0.4976
vn -0.2177 0.9588 0.1825
vn -0.1981 -0.9325 -0.3020
vn -0.2040 -0.9394 -0.2754
vn -0.1771 -0.9040 -0.3891
vn -0.3015 -0.6787 -0.6697
vn -0.4217 -0.4478 -0.7885
vn -0.4425 -0.3948 -0.8052
vn 0.4344 -0.3235 -0.8407
vn 0.6097 0.1486 -0.7786
vn 0.2434 -0.7365 -0.6311
vn 0.0046 0.0568 -0.9984
vn 0.1465 -0.9628 -0.2270
vn 0.2862 -0.6769 -0.6782
vn 0.2846 0.5206 -0.8049
vn 0.9719 0.0679 -0.2255
vn 0.3160 -0.9435 -0.0998
vn 0.7285 -0.6542 -0.2035
vn 0.9010 0.4337 -0.0065
vn 0.7971 -0.1784 -0.5769
vn 0.2123 0.9766 0.0343
vn 0.3142 -0.9218 -0.2271
vn 0.6114 0.5679 0.5512
vn 0.6374 -0.7199 0.2745
vn 0.4153 0.8993 0.1372
vn 0.3162 -0.9274 0.1998
vn 0.8634 0.1261 0.4885
vn 0.1412 -0.9837 0.1111
vn 0.7702 0.5933 0.2340
vn 0.1405 -0.9162 0.3752
vn 0.2504 0.4867 0.8369
vn 0.1421 -0.9507 0.2757
vn 0.1417 0.7616 0.6323
vn 0.3538 0.7418 0.5697
vn 0.1977 -0.6934 0.6929
vn 0.1636 0.8610 0.4815
vn -0.1041 -0.9389 0.3281
vn -0.3646 0.6999 0.6142
vn 0.0688 0.4319 0.8993
vn -0.5145 -0.2371 0.8241
vn -0.2128 0.5646 0.7975
vn -0.2302 -0.8659 0.4441
vn -0.4458 0.4283 0.7860
vn -0.4256 -0.8383 0.3409
vn -0.7309 0.5952 0.3341
vn -0.6219 -0.7401 0.2561
vn -0.8310 0.4170 0.3682
vn -0.4308 -0.9023 -0.0154
vn -0.5532 0.7087 0.4380
vn -0.8576 0.5027 0.1090
vn -0.5662 0.8182 -0.0995
vn -0.5017 -0.8641 -0.0395
vn -0.6786 -0.6943 -0.2397
vn -0.6279 0.7338 -0.2594
vn -0.4270 -0.8439 -0.3249
vn -0.7411 0.5835 -0.3320
vn -0.2849 -0.9261 -0.2472
vn -0.5046 0.7584 -0.4125
vn -0.2419 -0.8700 -0.4297
vn -0.6247 0.1464 -0.7670
vn -0.5289 -0.4817 -0.6987
vn -0.1837 0.6928 -0.6974
vn -0.2148 -0.9506 -0.2241
vn -0.2835 -0.7055 -0.6496
s 1
f 1/1/1 2/2/2 3/3/3
f 4/4/4 5/5/5 6/6/6
f 1/1/7 7/7/8 8/8/9
f 4/9/10 9/10/11 10/11/12
f 11/12/13 12/13/13 13/14/13
f 14/15/14 7/16/15 15/17/16
f 10/18/17 2/2/18 16/19/19
f 11/20/20 5/21/21 17/22/22
f 18/23/23 14/15/23 15/17/23
f 9/24/24 19/25/25 20/26/26
f 13/14/27 12/13/28 21/27/29
f 15/17/30 22/28/31 23/29/32
f 2/30/33 20/31/34 24/32/35
f 5/5/36 21/27/37 25/33/38
f 18/23/39 15/17/39 23/29/39
f 2/2/40 26/34/41 3/3/42
f 5/5/43 19/35/44 6/6/45
f 3/3/46 22/36/47 7/7/48
f 25/33/49 27/37/50 28/38/51
f 18/23/52 23/29/52 29/39/52
f 24/40/53 30/41/54 26/42/55
f 25/33/56 31/43/57 19/35/58
f 22/28/59 30/44/60 32/45/61
f 20/31/62 31/43/63 33/46/64
f 21/27/29 12/13/28 27/37/65
f 23/29/66 32/45/67 29/39/68
f 20/31/69 34/47/70 24/32/71
f 32/45/72 35/48/73 36/49/74
f 31/43/75 37/50/76 33/46/77
f 27/37/78 12/13/78 38/51/78
f 32/45/79 39/52/80 29/39/81
f 33/46/82 40/53/83 34/47/84
f 27/37/85 41/54/86 28/38/87
f 18/23/88 29/39/88 39/52/88
f 30/41/89 40/55/90 35/56/91
f 28/38/92 42/57/93 31/43/94
f 36/49/95 43/58/96 39/52/97
f 37/59/98 44/60/99 40/61/100
f 38/62/101 45/63/102 41/64/103
f 18/23/104 39/52/104 43/58/104
f 35/65/105 44/66/106 46/67/107
f 41/64/108 47/68/109 42/69/110
f 36/70/111 46/71/112 48/72/113
f 42/69/114 49/73/115 37/59/116
f 38/51/117 12/13/117 50/74/117
f 44/66/118 51/75/119 46/67/120
f 47/68/121 52/76/122 53/77/123
f 48/78/124 51/79/125 54/80/126
f 49/73/127 53/77/128 55/81/129
f 50/74/130 12/13/130 56/82/130
f 43/58/131 54/80/132 57/83/133
f 44/60/134 55/81/135 58/84/136
f 45/63/137 56/85/138 52/76/139
f 18/23/140 43/58/140 57/83/140
f 55/81/141 59/86/142 60/87/143
f 56/82/144 12/13/144 61/88/144
f 54/80/145 62/89/146 57/83/147
f 55/90/148 63/91/149 58/92/150
f 56/85/151 64/93/152 52/76/153
f 18/23/154 57/83/154 62/89/154
f 51/79/155 63/94/156 65/95/157
f 53/77/158 64/93/159 59/86/160
f 54/96/161 65/97/162 66/98/163
f 64/99/164 11/100/165 17/101/166
f 18/23/167 62/89/167 14/15/167
f 65/97/168 16/102/169 1/103/170
f 64/104/171 4/105/172 59/106/173
f 65/97/174 8/107/175 66/98/176
f 60/108/177 4/9/178 10/11/179
f 61/88/180 12/13/180 11/12/180
f 66/109/181 14/15/182 62/89/183
f 63/110/184 10/111/185 16/112/186
f 1/1/1 16/19/187 2/2/2
f 4/113/4 17/114/188 5/115/5
f 1/1/7 3/3/189 7/7/8
f 4/116/10 6/117/190 9/118/11
f 14/15/14 8/119/191 7/16/15
f 10/18/17 9/24/192 2/2/18
f 11/120/20 13/121/193 5/122/21
f 9/24/24 6/123/194 19/25/25
f 15/17/30 7/16/195 22/28/31
f 2/2/33 9/24/196 20/26/34
f 5/5/36 13/14/197 21/27/37
f 2/2/40 24/124/198 26/34/41
f 5/5/43 25/33/199 19/35/44
f 3/125/46 26/126/200 22/28/47
f 25/33/49 21/27/201 27/37/50
f 24/40/53 34/127/202 30/41/54
f 25/33/56 28/38/203 31/43/57
f 22/28/59 26/126/204 30/44/60
f 20/128/62 19/129/205 31/130/63
f 23/29/66 22/28/206 32/45/67
f 20/31/69 33/46/207 34/47/70
f 32/45/72 30/44/208 35/48/73
f 31/43/75 42/57/209 37/50/76
f 32/45/79 36/49/210 39/52/80
f 33/46/82 37/50/211 40/53/83
f 27/37/85 38/51/212 41/54/86
f 30/41/89 34/127/213 40/55/90
f 28/38/92 41/54/214 42/57/93
f 36/49/95 48/78/215 43/58/96
f 37/59/98 49/73/216 44/60/99
f 38/62/101 50/131/217 45/63/102
f 35/56/105 40/55/218 44/132/106
f 41/64/108 45/63/219 47/68/109
f 36/49/111 35/48/220 46/133/112
f 42/69/114 47/68/221 49/73/115
f 44/134/118 58/135/222 51/79/119
f 47/68/121 45/63/223 52/76/122
f 48/78/124 46/133/224 51/79/125
f 49/73/127 47/68/225 53/77/128
f 43/58/131 48/78/226 54/80/132
f 44/60/134 49/73/227 55/81/135
f 45/63/137 50/131/228 56/85/138
f 55/81/141 53/77/229 59/86/142
f 54/80/145 66/109/230 62/89/146
f 55/136/148 60/137/231 63/138/149
f 56/85/151 61/139/232 64/93/152
f 51/79/155 58/135/233 63/94/156
f 53/140/158 52/141/234 64/142/159
f 54/80/161 51/79/235 65/95/162
f 64/143/164 61/144/236 11/145/165
f 65/95/168 63/94/237 16/146/169
f 64/147/171 17/148/238 4/149/172
f 65/97/174 1/103/239 8/107/175
f 60/150/177 59/151/240 4/152/178
f 66/109/181 8/119/241 14/15/182
f 63/138/184 60/137/242 10/153/185
