# Blender v2.80 (sub 44) OBJ File: ''
# www.blender.org
o Cube.065_Cube.066
v 14.054824 -10.155563 -1.280537
v 17.729753 9.205427 -1.280537
v 14.054824 9.205427 -1.280537
v 17.729753 -10.155563 -1.280537
v 17.729753 9.205427 -1.779462
v 17.729753 -10.155563 -1.779462
v 14.054852 9.205427 -1.779462
v -16.139759 -9.159690 0.686208
v -16.139759 10.201301 0.686208
v -16.139757 -9.159690 6.517024
v 14.054852 -10.155563 -1.779462
v -16.139757 10.201301 6.517025
vt 0.000000 0.106422
vt 0.660458 0.016472
vt 0.656799 0.122894
vt 0.983067 0.000000
vt 1.000000 0.561214
vt 0.983067 0.561214
vt 0.983067 0.561214
vt 0.858347 0.000000
vt 0.983067 0.000000
vt 0.003659 0.983528
vt 0.858347 0.561214
vt 0.660458 0.000000
vt 0.858347 0.000000
vt 0.003659 0.000000
vt 1.000000 0.000000
vt 0.858347 0.561214
vt 0.660458 1.000000
vt 0.660458 0.561214
vn 0.0000 -0.0000 1.0000
vn 1.0000 -0.0000 0.0000
vn 0.0000 0.0000 -1.0000
vn 0.0650 -0.0000 0.9979
s 1
f 1/1/1 2/2/1 3/3/1
f 4/4/2 5/5/2 2/6/2
f 6/7/3 7/8/3 5/9/3
f 3/3/4 8/10/4 1/1/4
f 9/11/2 10/12/2 8/13/2
f 1/1/1 4/14/1 2/2/1
f 4/4/2 6/15/2 5/5/2
f 6/7/3 11/16/3 7/8/3
f 3/3/4 9/17/4 8/10/4
f 9/11/2 12/18/2 10/12/2
