# Blender v2.80 (sub 43) OBJ File: '103.blend'
# www.blender.org
o Plane.002_Plane.000
v -0.550963 0.000000 -0.550963
v 0.550963 5.321897 -0.550963
v 0.550963 0.000000 -0.550963
v 0.550963 -0.000000 0.550963
v -0.550963 5.321897 0.550963
v -0.550963 -0.000000 0.550963
v 0.550963 5.321897 0.550963
v -0.550963 5.321897 -0.550963
vt 0.333334 1.000000
vt 0.666667 0.000000
vt 0.666667 1.000000
vt 1.000000 0.000000
vt 0.666667 1.000000
vt 0.666667 0.000000
vt 0.333333 0.000000
vt 0.000000 1.000000
vt 0.000000 0.000000
vt 0.333334 0.000000
vt 1.000000 1.000000
vt 0.333334 1.000000
vn 0.0000 0.0000 -1.0000
vn 0.0000 -0.0000 1.0000
vn 1.0000 -0.0000 0.0000
s 1
f 1/1/1 2/2/1 3/3/1
f 4/4/2 5/5/2 6/6/2
f 3/7/3 7/8/3 4/9/3
f 1/1/1 8/10/1 2/2/1
f 4/4/2 7/11/2 5/5/2
f 3/7/3 2/12/3 7/8/3
