# Blender v2.80 (sub 44) OBJ File: ''
# www.blender.org
o PISOS_PB_PLANO_Plane.000
v -14.537508 -2.499999 -7.221288
v -14.537508 -2.499999 -4.094313
v -14.245544 -2.499999 -7.221288
v 11.126408 -2.499996 -18.051043
v -5.082250 2.500004 -18.051043
v -5.082250 -2.499996 -18.051043
v 25.849274 -2.500005 22.448624
v 25.849274 2.500005 -22.448624
v 25.849274 -2.499995 -22.448624
v -25.849274 -2.499996 -18.051043
v -25.849274 2.500001 -4.094312
v -25.849274 -2.499999 -4.094313
v 11.126408 -2.499995 -22.448624
v 11.126408 2.500004 -18.051043
v -13.710414 -2.500003 14.348625
v -13.710414 2.499995 22.448624
v -13.710414 -2.500005 22.448624
v -5.082250 2.499995 22.448624
v -5.082250 -2.500005 22.448624
v -5.082250 -2.499997 -13.995535
v -4.449898 2.500003 -13.995535
v -4.449898 -2.499997 -13.995535
v -5.082250 -2.499995 -22.351381
v -5.082250 2.500005 -22.351381
v -13.710414 -2.499999 -4.094313
v -13.710414 2.500000 -2.871955
v -13.710414 -2.500000 -2.871956
v -14.537504 -2.499996 -18.051043
v -25.849274 2.500004 -18.051043
v -4.449898 2.499995 22.448624
v -4.449898 -2.500005 22.448624
v -24.519707 -2.500000 -2.871956
v -24.519707 2.499999 8.781170
v -24.519707 -2.500001 8.781170
v -13.710414 2.499999 8.781170
v -13.710414 -2.500001 8.781170
v -24.519707 2.500000 -2.871955
v -13.710414 2.499998 10.348623
v -13.710414 -2.500002 10.348623
v -14.537508 2.500001 -4.094312
v -14.537506 0.447340 -7.844666
v -14.537506 -1.555219 -7.844667
v -14.537504 2.500004 -18.051043
v -14.537506 2.500001 -7.844666
v -13.710414 0.447340 -7.844666
v -14.537504 0.447343 -18.051043
v -13.710414 0.447343 -18.051043
v -13.710414 2.500001 -7.844666
v -13.710414 2.500004 -18.051043
v -13.710414 -1.555219 -7.844667
v -14.002378 -2.499999 -7.221288
v -14.002378 1.500001 -4.094312
v -14.002378 -2.499999 -4.094313
v -14.245544 -2.499999 -4.094313
v -14.245544 1.500001 -7.221287
v -13.787382 1.500001 -7.221287
v -13.787382 2.500001 -4.094312
v -13.787382 1.500001 -4.094312
v -14.002378 1.500001 -7.221287
v -14.460540 1.500001 -7.221287
v -14.460540 2.500001 -4.094312
v -14.460540 2.500001 -7.221287
v -14.537508 2.500001 -7.221287
v -14.245544 1.500001 -4.094312
v -13.710414 2.500001 -4.094312
v -14.460540 1.500001 -4.094312
v -13.710414 2.499997 14.348625
v -13.710414 0.889228 10.348623
v -13.710414 -1.555216 -18.051043
v -14.537504 -1.555216 -18.051043
v -13.710414 -2.499999 -7.221288
v -14.210193 -2.500003 14.348625
v 25.849274 2.499995 22.448624
v 11.126408 2.500005 -22.448624
v -5.082250 2.500003 -13.995535
v -13.787382 2.500001 -7.221287
v -13.710414 2.500001 -7.221287
v -13.710414 0.889227 14.348625
v -13.710414 2.500005 -22.351381
v -13.710414 -2.499995 -22.351381
v -14.210193 -2.500002 10.348623
vt 0.696319 0.850806
vt 0.696319 0.898547
vt 0.691820 0.850806
vt 0.870622 0.685464
vt 0.947667 0.932928
vt 0.870622 0.932928
vt 0.768865 0.685464
vt 0.691820 0.000000
vt 0.768865 0.000000
vt 0.077045 0.769003
vt 0.154090 0.982086
vt 0.077045 0.982086
vt 0.684121 0.769003
vt 0.616359 0.845340
vt 0.616359 0.769003
vt 0.845910 0.680073
vt 0.768865 0.556407
vt 0.845910 0.556407
vt 1.000000 0.594319
vt 0.922955 0.462589
vt 1.000000 0.462589
vt 0.960357 0.680073
vt 0.970101 0.603736
vt 0.970101 0.680073
vt 0.912174 0.680073
vt 0.845910 0.603736
vt 0.912174 0.603736
vt 0.966502 0.841289
vt 0.947667 0.917625
vt 0.947667 0.841289
vt 0.308179 0.769003
vt 0.385224 0.941704
vt 0.308179 0.941704
vt 0.922955 0.462589
vt 1.000000 0.000000
vt 1.000000 0.462589
vt 0.231135 0.946916
vt 0.154090 0.769003
vt 0.231135 0.769003
vt 0.845910 0.000000
vt 0.922955 0.556407
vt 0.845910 0.556407
vt 0.616359 0.934033
vt 0.539314 0.769003
vt 0.616359 0.769003
vt 0.462269 0.769003
vt 0.539314 0.934033
vt 0.462269 0.934033
vt 0.768865 0.556407
vt 0.845910 0.000000
vt 0.845910 0.556407
vt 0.688695 0.845340
vt 0.664542 0.921677
vt 0.664542 0.845340
vt 0.308179 0.773460
vt 0.231135 0.946162
vt 0.231135 0.773460
vt 0.416854 0.924828
vt 0.447711 0.924828
vt 0.462269 0.934345
vt 0.385224 0.769003
vt 0.385224 0.924828
vt 0.947667 0.685464
vt 0.960411 0.841289
vt 0.947667 0.841289
vt 0.000000 0.778520
vt 0.031629 0.934345
vt 0.000000 0.934345
vt 0.845910 0.603736
vt 0.858655 0.573162
vt 0.858655 0.603736
vt 0.960357 0.603736
vt 0.912174 0.664806
vt 0.912174 0.603736
vt 0.616359 0.906409
vt 0.664542 0.845340
vt 0.664542 0.906409
vt 0.732049 0.946287
vt 0.716640 0.898547
vt 0.732049 0.898547
vt 0.750771 0.946287
vt 0.747458 0.898547
vt 0.750771 0.898547
vt 0.732049 0.946287
vt 0.747458 0.898547
vt 0.747458 0.946287
vt 0.971287 0.664806
vt 0.971287 0.680073
vt 0.970101 0.680073
vt 0.750771 0.898547
vt 0.754084 0.946287
vt 0.750771 0.946287
vt 0.969815 0.902358
vt 0.966502 0.902358
vt 0.966502 0.841289
vt 0.687434 0.784270
vt 0.687434 0.769003
vt 0.688620 0.769003
vt 0.246544 0.772285
vt 0.308179 0.769003
vt 0.691820 0.898547
vt 0.716640 0.959616
vt 0.691820 0.959616
vt 0.960411 0.685464
vt 0.973156 0.841289
vt 0.960411 0.841289
vt 0.858655 0.603736
vt 0.871399 0.573162
vt 0.871399 0.603736
vt 0.062487 0.934345
vt 0.062487 0.778520
vt 0.077045 0.769003
vt 0.505372 0.165030
vt 0.567008 0.157399
vt 0.567008 0.165030
vt 0.696319 0.685464
vt 0.870622 0.685464
vt 0.870622 0.898547
vt 0.691820 0.898547
vt 0.947666 0.685464
vt 0.691820 0.685464
vt 0.154090 0.769003
vt 0.684121 0.845340
vt 0.768865 0.680073
vt 0.922955 0.594319
vt 0.960357 0.603736
vt 0.845910 0.680073
vt 0.966502 0.917625
vt 0.922955 0.000000
vt 0.154090 0.946916
vt 0.922955 0.000000
vt 0.539314 0.934033
vt 0.539314 0.769003
vt 0.768865 0.000000
vt 0.688695 0.921677
vt 0.308179 0.946162
vt 0.447711 0.769003
vt 0.462269 0.769003
vt 0.385224 0.934345
vt 0.416854 0.769003
vt 0.960411 0.685464
vt 0.031629 0.778520
vt 0.845910 0.573162
vt 0.960357 0.664806
vt 0.616359 0.845340
vt 0.716640 0.946287
vt 0.747458 0.946287
vt 0.732049 0.898547
vt 0.970101 0.603736
vt 0.974600 0.603736
vt 0.974600 0.664806
vt 0.754084 0.898547
vt 0.971001 0.841289
vt 0.971001 0.917625
vt 0.969815 0.917625
vt 0.688620 0.845340
vt 0.684121 0.845340
vt 0.684121 0.784270
vt 0.231135 0.772285
vt 0.246544 0.769003
vt 0.716640 0.898547
vt 0.973156 0.685464
vt 0.858655 0.573162
vt 0.000000 1.000000
vt 0.077045 1.000000
vt 0.000000 0.769003
vt 0.234638 0.165030
vt 0.234637 0.160572
vt 0.282821 0.160572
vt 0.282821 0.165030
vt 0.001498 0.296759
vt 0.001498 0.165030
vt 0.067762 0.296759
vt 0.130253 0.296759
vt 0.301656 0.165030
vt 0.000000 0.769003
vt 0.000000 0.544223
vt 0.067762 0.544223
vt 0.691820 0.306414
vt 0.691820 0.769003
vt 0.301656 0.000000
vt 0.481219 0.000000
vt 0.481219 0.165030
vt 0.130253 0.306414
vt 0.691820 0.165030
vt 0.691820 0.296759
vt 0.505372 0.157399
vn 0.0000 1.0000 0.0000
vn 0.0000 0.0000 1.0000
vn -1.0000 0.0000 0.0000
vn 1.0000 -0.0000 0.0000
vn 0.0000 0.0000 -1.0000
vn 0.0000 -1.0000 -0.0000
s 1
f 1/1/1 2/2/1 3/3/1
f 4/4/2 5/5/2 6/6/2
f 7/7/3 8/8/3 9/9/3
f 10/10/4 11/11/4 12/12/4
f 13/13/4 14/14/4 4/15/4
f 15/16/4 16/17/4 17/18/4
f 17/19/5 18/20/5 19/21/5
f 20/22/5 21/23/5 22/24/5
f 23/25/3 5/26/3 24/27/3
f 25/28/4 26/29/4 27/30/4
f 28/31/2 29/32/2 10/33/2
f 30/34/5 7/35/5 31/36/5
f 32/37/4 33/38/4 34/39/4
f 22/40/4 30/41/4 31/42/4
f 34/43/5 35/44/5 36/45/5
f 27/46/2 37/47/2 32/48/2
f 18/49/3 20/50/3 19/51/3
f 36/52/4 38/53/4 39/54/4
f 2/55/5 11/56/5 40/57/5
f 41/58/3 42/59/3 1/60/3
f 43/61/3 41/58/3 44/62/3
f 45/63/6 46/64/6 47/65/6
f 48/66/4 47/67/4 49/68/4
f 42/69/5 45/70/5 50/71/5
f 51/72/4 52/73/4 53/74/4
f 54/75/3 55/76/3 3/77/3
f 56/78/4 57/79/4 58/80/4
f 59/81/6 58/82/6 52/83/6
f 60/84/3 61/85/3 62/86/3
f 60/87/2 62/88/2 63/89/2
f 64/90/6 60/91/6 55/92/6
f 56/93/2 59/94/2 51/95/2
f 58/96/5 57/97/5 65/98/5
f 66/99/5 54/100/5 2/55/5
f 67/101/4 68/102/4 38/103/4
f 42/104/1 69/105/1 70/106/1
f 46/107/2 69/108/2 47/109/2
f 69/110/4 50/111/4 71/112/4
f 39/113/1 72/114/1 15/115/1
f 1/1/1 28/116/1 10/117/1
f 10/117/1 12/118/1 1/1/1
f 12/118/1 2/2/1 1/1/1
f 2/2/1 54/119/1 3/3/1
f 4/4/2 14/120/2 5/5/2
f 7/7/3 73/121/3 8/8/3
f 10/10/4 29/122/4 11/11/4
f 13/13/4 74/123/4 14/14/4
f 15/16/4 67/124/4 16/17/4
f 17/19/5 16/125/5 18/20/5
f 20/22/5 75/126/5 21/23/5
f 23/25/3 6/127/3 5/26/3
f 25/28/4 65/128/4 26/29/4
f 28/31/2 43/61/2 29/32/2
f 30/34/5 73/129/5 7/35/5
f 32/37/4 37/130/4 33/38/4
f 22/40/4 21/131/4 30/41/4
f 34/43/5 33/132/5 35/44/5
f 27/46/2 26/133/2 37/47/2
f 18/49/3 75/134/3 20/50/3
f 36/52/4 35/135/4 38/53/4
f 2/55/5 12/136/5 11/56/5
f 70/137/3 28/138/3 42/59/3
f 28/138/3 1/60/3 42/59/3
f 1/60/3 63/139/3 41/58/3
f 63/139/3 44/62/3 41/58/3
f 43/61/3 46/140/3 41/58/3
f 45/63/6 41/141/6 46/64/6
f 48/66/4 45/142/4 47/67/4
f 42/69/5 41/143/5 45/70/5
f 51/72/4 59/144/4 52/73/4
f 54/75/3 64/145/3 55/76/3
f 56/78/4 76/146/4 57/79/4
f 59/81/6 56/147/6 58/82/6
f 60/84/3 66/148/3 61/85/3
f 63/89/2 1/149/2 60/87/2
f 1/149/2 3/150/2 60/87/2
f 3/150/2 55/151/2 60/87/2
f 64/90/6 66/152/6 60/91/6
f 51/95/2 71/153/2 56/93/2
f 71/153/2 77/154/2 56/93/2
f 77/154/2 76/155/2 56/93/2
f 65/98/5 25/156/5 58/96/5
f 25/156/5 53/157/5 58/96/5
f 53/157/5 52/158/5 58/96/5
f 2/55/5 40/57/5 66/99/5
f 40/57/5 61/159/5 66/99/5
f 66/99/5 64/160/5 54/100/5
f 67/101/4 78/161/4 68/102/4
f 42/104/1 50/162/1 69/105/1
f 46/107/2 70/163/2 69/108/2
f 79/164/4 49/68/4 47/67/4
f 79/164/4 47/67/4 80/165/4
f 47/67/4 69/110/4 80/165/4
f 48/66/4 77/166/4 45/142/4
f 77/166/4 71/112/4 45/142/4
f 50/111/4 45/142/4 71/112/4
f 80/165/4 69/110/4 71/112/4
f 71/167/1 51/168/1 53/169/1
f 71/167/1 53/169/1 25/170/1
f 23/171/1 80/172/1 6/173/1
f 80/172/1 71/167/1 20/174/1
f 6/173/1 80/172/1 20/174/1
f 71/167/1 25/170/1 20/174/1
f 25/170/1 27/175/1 20/174/1
f 9/176/1 13/177/1 4/178/1
f 31/179/1 7/180/1 4/178/1
f 7/180/1 9/176/1 4/178/1
f 27/175/1 32/181/1 34/182/1
f 27/175/1 34/182/1 36/183/1
f 22/184/1 31/179/1 4/178/1
f 17/185/1 19/186/1 15/115/1
f 19/186/1 20/174/1 36/183/1
f 15/115/1 19/186/1 39/113/1
f 20/174/1 22/184/1 6/173/1
f 22/184/1 4/178/1 6/173/1
f 27/175/1 36/183/1 20/174/1
f 39/113/1 81/187/1 72/114/1
f 36/183/1 39/113/1 19/186/1
