# Blender v2.80 (sub 44) OBJ File: ''
# www.blender.org
o PISOS_PB_ASCENSOR.001_Plane.024
v -0.140985 1.694615 0.773543
v -0.010076 -1.694615 0.773542
v -0.140985 -1.694615 0.773542
v -0.010076 1.694615 1.506979
v -0.010076 -1.694615 1.506979
v -0.010076 -1.694615 -1.501974
v -0.010076 1.694615 -0.773542
v -0.010076 -1.694615 -0.773543
v -0.024297 -1.694615 2.002630
v 0.140985 1.694615 2.002630
v -0.024297 1.694615 2.002630
v -0.140985 -1.694615 -0.773543
v -0.140985 1.694615 -0.773542
v 0.140985 -1.694615 -2.002630
v 0.140985 1.694615 -1.501974
v 0.140985 -1.694615 -1.501974
v 0.140985 -1.694615 1.506979
v 0.140985 -1.694615 2.002630
v -0.010076 1.694615 -1.501974
v -0.024297 1.694615 -2.002630
v -0.024297 -1.694615 -2.002630
v 0.140985 1.694615 -2.002630
v -0.010076 1.694615 0.773543
v 0.140985 1.694615 1.506979
vt 0.973283 0.000000
vt 1.000000 0.686591
vt 0.973283 0.686591
vt 0.315747 0.686591
vt 0.465435 0.000000
vt 0.465435 0.686591
vt 0.614101 0.000000
vt 0.465435 0.686591
vt 0.465435 0.000000
vt 0.817439 0.000000
vt 0.851172 0.686591
vt 0.817439 0.686591
vt 0.946565 0.000000
vt 0.973283 0.686591
vt 0.946565 0.686591
vt 0.716281 0.000000
vt 0.614101 0.686591
vt 0.614101 0.000000
vt 0.817439 0.000000
vt 0.716281 0.686591
vt 0.716281 0.000000
vt 0.884905 0.000000
vt 0.915735 0.686591
vt 0.884905 0.686591
vt 0.915735 0.000000
vt 0.946565 0.686591
vt 0.915735 0.686591
vt 0.851172 0.000000
vt 0.884905 0.686591
vt 0.851172 0.686591
vt 0.094183 0.686591
vt 0.063352 0.787000
vt 0.060450 0.686591
vt 0.060450 0.788014
vt 0.029620 0.686591
vt 0.060450 0.686591
vt 0.026717 0.686591
vt 0.000000 1.000000
vt 0.000000 0.686591
vt 0.315747 0.000000
vt 0.000000 0.686591
vt 0.000000 0.000000
vt 1.000000 0.000000
vt 0.315747 0.000000
vt 0.614101 0.686591
vt 0.851172 0.000000
vt 0.973283 0.000000
vt 0.716281 0.686591
vt 0.817439 0.686591
vt 0.915735 0.000000
vt 0.946565 0.000000
vt 0.884905 0.000000
vt 0.094183 0.787000
vt 0.026717 0.788014
vt 0.026717 1.000000
vt 0.315747 0.686591
vn 0.0000 0.0000 -1.0000
vn 1.0000 -0.0000 0.0000
vn 0.0000 0.0000 1.0000
vn 0.0000 1.0000 0.0000
vn 0.0000 -1.0000 0.0000
s 1
f 1/1/1 2/2/1 3/3/1
f 2/4/2 4/5/2 5/6/2
f 6/7/2 7/8/2 8/9/2
f 9/10/3 10/11/3 11/12/3
f 12/13/3 7/14/3 13/15/3
f 14/16/2 15/17/2 16/18/2
f 17/19/2 10/20/2 18/21/2
f 6/22/3 15/23/3 19/24/3
f 4/25/1 17/26/1 5/27/1
f 20/28/1 14/29/1 21/30/1
f 10/31/4 4/32/4 11/33/4
f 22/34/4 19/35/4 15/36/4
f 1/37/5 7/38/5 23/39/5
f 12/40/2 1/41/2 3/42/2
f 1/1/1 23/43/1 2/2/1
f 2/4/2 23/44/2 4/5/2
f 6/7/2 19/45/2 7/8/2
f 9/10/3 18/46/3 10/11/3
f 12/13/3 8/47/3 7/14/3
f 14/16/2 22/48/2 15/17/2
f 17/19/2 24/49/2 10/20/2
f 6/22/3 16/50/3 15/23/3
f 4/25/1 24/51/1 17/26/1
f 20/28/1 22/52/1 14/29/1
f 10/31/4 24/53/4 4/32/4
f 22/34/4 20/54/4 19/35/4
f 1/37/5 13/55/5 7/38/5
f 12/40/2 13/56/2 1/41/2
