# Blender v2.80 (sub 44) OBJ File: ''
# www.blender.org
o ESCALERA_CUNurbsPath
v 4.622537 -2.378687 -0.872588
v 5.143327 -2.378686 -3.793175
v 4.622537 -2.378686 -3.793175
v 5.143327 -2.643153 -0.872588
v 5.143327 -2.643153 -3.793175
v 4.101747 -2.080887 -0.872588
v 4.622537 -2.080886 -3.793175
v 4.101747 -2.080886 -3.793175
v 4.622537 -2.080887 -0.872588
v 3.580956 -1.783088 -0.872588
v 4.101747 -1.783088 -3.793175
v 3.580956 -1.783088 -3.793175
v 4.101747 -1.783088 -0.872588
v 2.539376 -1.187489 -0.872588
v 3.060166 -1.187489 -3.793175
v 2.539376 -1.187489 -3.793175
v 3.060166 -1.187489 -0.872588
v 3.060166 -1.485289 -3.793175
v 1.497796 -0.591891 -0.872588
v 2.018586 -0.591891 -3.793175
v 1.497796 -0.591891 -3.793175
v 2.018586 -0.591891 -0.872588
v 2.018586 -0.889690 -3.793175
v 0.977006 -0.043153 -0.872587
v 0.977006 -0.294091 -3.793175
v 0.977006 -0.043153 -3.793175
v -2.205922 0.260760 -0.878197
v -5.143327 -0.037040 -0.878197
v -5.143327 0.260760 -0.878197
v -5.143325 0.260760 -0.364340
v -2.205922 0.856358 0.677238
v -5.143327 0.856358 0.156450
v -5.143327 0.856358 0.677240
v -2.205922 0.856358 0.156450
v -5.143325 0.558559 0.156450
v -2.205922 1.154158 1.198029
v -5.143327 1.154158 0.677240
v -5.143327 1.154158 1.198030
v -2.205922 1.154158 0.677238
v -5.143325 1.451956 1.718819
v -2.205922 1.451956 1.198029
v -5.143327 1.451956 1.198030
v -5.143325 1.749756 2.239609
v -2.205922 1.749756 1.718819
v -5.143327 1.749756 1.718821
v -2.205922 2.047555 2.760399
v -5.143327 2.047555 2.239611
v -5.143327 2.047555 2.760401
v -2.205922 2.047555 2.239609
v -5.143325 2.345355 3.281189
v -2.205922 2.345355 2.760399
v -5.143327 2.345355 2.760401
v -5.143325 2.643154 3.801979
v -2.205922 2.643154 3.281189
v -5.143327 2.643154 3.281189
v -2.205920 2.643154 3.801979
v -5.143325 -2.643154 3.801978
v -2.205920 -2.643154 3.801978
v 3.060166 -1.485289 -0.872588
v 3.580956 -1.485289 -3.793175
v 2.539376 -0.889690 -0.872588
v 2.539376 -0.889690 -3.793175
v -2.205922 1.451956 1.718819
v -2.205920 1.749756 2.239609
v 1.497796 -0.294091 -0.872588
v 1.497796 -0.294091 -3.793175
v -2.205922 -2.643153 -0.878197
v -2.205922 0.558559 -0.364340
v -5.143327 0.558559 -0.364340
v -2.205922 -0.037040 -0.798714
v -5.143325 -0.037040 -3.801979
v 5.143327 -2.378687 -0.872588
v 2.018586 -0.889690 -0.872586
v 0.977006 -0.294091 -0.872586
v -2.205922 0.260760 -0.364340
v -2.205920 0.558559 0.156450
v -2.205920 2.345355 3.281189
v 3.580956 -1.485289 -0.872588
vt 0.478245 0.613339
vt 0.521774 0.857077
vt 0.478245 0.857076
vt 1.000000 0.245150
vt 0.977895 0.488887
vt 0.977895 0.245150
vt 0.391185 0.613339
vt 0.434715 0.857077
vt 0.391186 0.857077
vt 0.962934 0.754859
vt 0.938042 0.511122
vt 0.962934 0.511122
vt 0.434715 0.613339
vt 0.478245 0.857077
vt 0.434715 0.857077
vt 0.609027 0.756263
vt 0.633918 1.000000
vt 0.609027 1.000000
vt 0.859697 0.243737
vt 0.903226 0.487474
vt 0.859697 0.487474
vt 0.953099 0.000000
vt 0.977990 0.243737
vt 0.953099 0.243737
vt 0.859697 0.000000
vt 0.903226 0.243737
vt 0.859697 0.243737
vt 0.987825 0.754859
vt 0.962934 0.511122
vt 0.987825 0.511122
vt 0.977990 0.000000
vt 0.998964 0.243737
vt 0.977990 0.243737
vt 0.903226 0.000010
vt 0.928120 0.245150
vt 0.903231 0.245150
vt 0.870204 0.756263
vt 0.913154 0.511122
vt 0.913154 0.756263
vt 0.783145 0.511122
vt 0.826674 0.756263
vt 0.783145 0.756263
vt 0.913154 0.511122
vt 0.938042 0.756263
vt 0.913154 0.756263
vt 0.289048 0.441168
vt 0.332577 0.686308
vt 0.289048 0.686308
vt 0.270407 0.686309
vt 0.295295 0.931449
vt 0.270407 0.931449
vt 0.739615 0.756263
vt 0.783145 0.511122
vt 0.783145 0.756263
vt 0.953099 0.245141
vt 0.928210 0.000000
vt 0.953099 0.000001
vt 0.652556 0.511122
vt 0.609027 0.756263
vt 0.609027 0.511122
vt 0.270407 0.931449
vt 0.245518 0.686309
vt 0.270407 0.686309
vt 0.652556 0.511122
vt 0.696086 0.756263
vt 0.652556 0.756263
vt 0.928115 0.245150
vt 0.953004 0.490291
vt 0.928115 0.490290
vt 0.696086 0.756263
vt 0.739615 0.511122
vt 0.739615 0.756263
vt 0.928115 0.490291
vt 0.903227 0.245150
vt 0.928115 0.245150
vt 0.245518 0.686308
vt 0.289048 0.441168
vt 0.289048 0.686309
vt 0.245518 0.882336
vt 0.000000 0.441168
vt 0.245518 0.441169
vt 0.332577 0.931449
vt 0.307689 0.686308
vt 0.332577 0.686309
vt 0.870204 0.754859
vt 0.826674 0.511122
vt 0.870204 0.511122
vt 0.962933 0.754859
vt 0.938042 0.998596
vt 0.938042 0.754859
vt 0.521774 0.857077
vt 0.565304 0.613340
vt 0.565304 0.857077
vt 0.217068 0.099411
vt 0.260597 0.074558
vt 0.391185 0.441168
vt 0.851565 0.754859
vt 0.826674 0.998596
vt 0.826674 0.754859
vt 0.608833 0.613339
vt 0.565304 0.857076
vt 0.565304 0.613339
vt 0.609027 0.000011
vt 0.537140 0.482953
vt 0.512249 0.439490
vt 0.977895 0.488887
vt 0.953004 0.245150
vt 0.977895 0.245150
vt 0.332577 0.686308
vt 0.376107 0.441168
vt 0.376107 0.686309
vt 0.376107 0.931449
vt 0.351218 0.686309
vt 0.609027 0.265622
vt 0.859697 0.000351
vt 0.859697 0.511122
vt 0.521774 0.613339
vt 1.000000 0.488887
vt 0.434715 0.613339
vt 0.938042 0.754859
vt 0.478245 0.613339
vt 0.633918 0.756263
vt 0.903226 0.243737
vt 0.977990 0.000000
vt 0.903226 0.000000
vt 0.962934 0.754859
vt 0.998964 0.000000
vt 0.928210 0.000000
vt 0.870204 0.511122
vt 0.826674 0.511122
vt 0.938042 0.511123
vt 0.332577 0.441168
vt 0.295296 0.686309
vt 0.739615 0.511122
vt 0.928210 0.245140
vt 0.652556 0.756263
vt 0.245518 0.931449
vt 0.696086 0.511122
vt 0.953004 0.245150
vt 0.696086 0.511122
vt 0.903226 0.490290
vt 0.245518 0.441168
vt 0.000000 0.882335
vt 0.307689 0.931449
vt 0.826674 0.754859
vt 0.962933 0.998596
vt 0.521774 0.613339
vt 0.006643 0.223675
vt 0.000000 0.198822
vt 0.042950 0.198822
vt 0.042950 0.173970
vt 0.086479 0.173970
vt 0.086479 0.149117
vt 0.130009 0.149117
vt 0.130009 0.124264
vt 0.173538 0.124264
vt 0.173538 0.099411
vt 0.217068 0.074558
vt 0.260597 0.049706
vt 0.304127 0.049706
vt 0.304127 0.024853
vt 0.347656 0.024853
vt 0.347656 0.000000
vt 0.391185 0.000000
vt 0.000000 0.441168
vt 0.851565 0.998596
vt 0.608833 0.857077
vt 0.609027 0.613339
vt 0.586922 0.613339
vt 0.586922 0.569877
vt 0.562031 0.569877
vt 0.562031 0.526415
vt 0.537140 0.526415
vt 0.512249 0.482953
vt 0.487357 0.439491
vt 0.487357 0.396028
vt 0.462466 0.396028
vt 0.462466 0.352566
vt 0.437575 0.352566
vt 0.437575 0.309104
vt 0.412684 0.309104
vt 0.412684 0.265642
vt 0.391710 0.265642
vt 0.391185 0.000000
vt 0.953004 0.488887
vt 0.332577 0.441168
vt 0.351218 0.931449
vt 0.615317 0.510771
vt 0.615584 0.000000
vn 0.0000 1.0000 0.0000
vn 1.0000 0.0000 0.0000
vn 0.0000 0.0000 -1.0000
vn 0.0000 -0.0000 1.0000
vn -0.0008 -0.0014 1.0000
vn -0.0002 -0.0002 1.0000
vn 0.0010 1.0000 0.0004
vn 0.0015 1.0000 -0.0005
vn 0.0005 1.0000 -0.0005
vn 0.0261 -0.2578 -0.9658
vn -0.0004 -0.0005 1.0000
vn -0.0002 -0.0001 1.0000
vn -0.0002 -0.0003 1.0000
vn 0.0232 0.0000 0.9997
vn 0.0207 -0.0305 0.9993
vn -0.0008 -0.0015 1.0000
vn 0.0019 1.0000 0.0000
s 1
f 1/1/1 2/2/1 3/3/1
f 2/4/2 4/5/2 5/6/2
f 6/7/1 7/8/1 8/9/1
f 9/10/2 3/11/2 7/12/2
f 10/13/1 11/14/1 12/15/1
f 13/16/2 8/17/2 11/18/2
f 14/19/1 15/20/1 16/21/1
f 17/22/2 18/23/2 15/24/2
f 19/25/1 20/26/1 21/27/1
f 22/28/2 23/29/2 20/30/2
f 24/31/2 25/32/2 26/33/2
f 27/34/3 28/35/3 29/36/3
f 30/37/1 27/38/1 29/39/1
f 31/40/1 32/41/1 33/42/1
f 34/43/3 35/44/3 32/45/3
f 36/46/1 37/47/1 38/48/1
f 39/49/3 33/50/3 37/51/3
f 40/52/1 41/53/1 42/54/1
f 41/55/3 38/56/3 42/57/3
f 43/58/1 44/59/1 45/60/1
f 44/61/3 40/62/3 45/63/3
f 46/64/1 47/65/1 48/66/1
f 49/67/3 43/68/3 47/69/3
f 50/70/1 51/71/1 52/72/1
f 51/73/3 48/74/3 52/75/3
f 53/76/1 54/77/1 55/78/1
f 56/79/4 57/80/4 58/81/4
f 54/82/3 50/83/3 55/84/3
f 59/85/1 60/86/1 18/87/1
f 60/88/2 10/89/2 12/90/2
f 23/91/1 61/92/1 62/93/1
f 63/94/2 64/95/2 58/96/2
f 62/97/2 14/98/2 16/99/2
f 25/100/1 65/101/1 66/102/1
f 67/103/5 10/104/6 59/105/6
f 65/106/2 21/107/2 66/108/2
f 35/109/1 68/110/1 69/111/1
f 68/112/3 30/113/3 69/111/3
f 70/114/7 26/115/8 71/116/9
f 1/1/1 72/117/1 2/2/1
f 2/4/2 72/118/2 4/5/2
f 6/7/1 9/119/1 7/8/1
f 9/10/2 1/120/2 3/11/2
f 10/13/1 13/121/1 11/14/1
f 13/16/2 6/122/2 8/17/2
f 14/19/1 17/123/1 15/20/1
f 17/22/2 59/124/2 18/23/2
f 19/25/1 22/125/1 20/26/1
f 22/28/2 73/126/2 23/29/2
f 24/31/2 74/127/2 25/32/2
f 27/34/10 70/128/10 28/35/10
f 30/37/1 75/129/1 27/38/1
f 31/40/1 34/130/1 32/41/1
f 34/43/3 76/131/3 35/44/3
f 36/46/1 39/132/1 37/47/1
f 39/49/3 31/133/3 33/50/3
f 40/52/1 63/134/1 41/53/1
f 41/55/3 36/135/3 38/56/3
f 43/58/1 64/136/1 44/59/1
f 44/61/3 63/137/3 40/62/3
f 46/64/1 49/138/1 47/65/1
f 49/67/3 64/139/3 43/68/3
f 50/70/1 77/140/1 51/71/1
f 51/73/3 46/141/3 48/74/3
f 53/76/1 56/142/1 54/77/1
f 56/79/4 53/143/4 57/80/4
f 54/82/3 77/144/3 50/83/3
f 59/85/1 78/145/1 60/86/1
f 60/88/2 78/146/2 10/89/2
f 23/91/1 73/147/1 61/92/1
f 70/148/2 27/149/2 75/150/2
f 75/150/2 68/151/2 76/152/2
f 76/152/2 34/153/2 31/154/2
f 31/154/2 39/155/2 36/156/2
f 36/156/2 41/157/2 63/94/2
f 63/94/2 44/158/2 64/95/2
f 64/95/2 49/159/2 46/160/2
f 46/160/2 51/161/2 77/162/2
f 77/162/2 54/163/2 56/164/2
f 56/164/2 58/96/2 77/162/2
f 58/96/2 67/165/2 76/152/2
f 77/162/2 58/96/2 46/160/2
f 67/165/2 70/148/2 75/150/2
f 76/152/2 31/154/2 58/96/2
f 31/154/2 36/156/2 58/96/2
f 67/165/2 75/150/2 76/152/2
f 64/95/2 46/160/2 58/96/2
f 36/156/2 63/94/2 58/96/2
f 62/97/2 61/166/2 14/98/2
f 25/100/1 74/167/1 65/101/1
f 4/168/4 72/169/4 1/170/4
f 1/170/11 9/171/4 6/172/6
f 6/172/6 13/173/4 10/104/6
f 10/104/6 78/174/4 59/105/6
f 59/105/6 17/175/4 14/176/12
f 14/176/12 61/177/4 73/178/12
f 73/178/12 22/179/4 19/180/6
f 19/180/6 65/181/4 74/182/13
f 74/182/14 24/183/14 70/184/14
f 70/184/15 67/103/15 74/182/15
f 67/103/5 4/168/16 1/170/11
f 1/170/11 6/172/6 67/103/5
f 6/172/6 10/104/6 67/103/5
f 19/180/6 74/182/13 67/103/5
f 59/105/6 14/176/12 67/103/5
f 14/176/12 73/178/12 67/103/5
f 73/178/12 19/180/6 67/103/5
f 65/106/2 19/185/2 21/107/2
f 35/109/1 76/186/1 68/110/1
f 68/112/3 75/187/3 30/113/3
f 71/116/9 28/188/1 70/114/7
f 70/114/7 24/189/17 26/115/8
