# Blender v2.80 (sub 44) OBJ File: ''
# www.blender.org
o MURO_Cube.002
v 3.888811 -1.538447 1.244881
v -3.888811 1.538447 1.244881
v -3.888811 -1.538447 1.244881
v -3.504915 1.538447 0.822338
v 3.888811 -1.538447 0.822338
v -3.504915 -1.538447 0.822338
v -3.888811 1.538447 -1.244881
v 3.888811 1.538447 0.822338
v -3.504915 0.491741 -1.244881
v -3.504917 1.538447 -1.244881
v -3.888811 -1.538447 -1.244881
v 3.888811 1.538447 1.244881
v -3.504917 -1.538447 -1.244881
vt 0.000000 0.000000
vt 0.287271 0.742804
vt 0.000000 0.742804
vt 0.287271 0.706140
vt 0.574542 0.000000
vt 0.574542 0.706140
vt 0.806996 0.000000
vt 0.767546 0.036664
vt 0.574542 0.000000
vt 0.806996 0.293860
vt 0.846447 0.587720
vt 0.806996 0.587720
vt 1.000000 0.193894
vt 0.806996 0.293860
vt 0.806996 0.000000
vt 0.806996 0.587720
vt 0.842838 0.587720
vt 0.842838 0.687685
vt 0.519725 1.000000
vt 0.287271 0.706140
vt 0.519725 0.706140
vt 0.287271 0.000000
vt 0.287271 0.000000
vt 0.806996 0.742804
vt 0.767546 0.742804
vt 0.574542 0.036664
vt 0.846447 0.293860
vt 1.000000 0.000000
vt 1.000000 0.293860
vt 0.842838 0.881579
vt 0.806996 0.881579
vt 0.287271 1.000000
vn 0.0000 -0.0000 1.0000
vn 0.0000 0.0000 -1.0000
vn 0.0000 1.0000 0.0000
vn 1.0000 -0.0000 0.0000
vn -1.0000 -0.0000 0.0000
s 1
f 1/1/1 2/2/1 3/3/1
f 4/4/2 5/5/2 6/6/2
f 2/7/3 4/8/3 7/9/3
f 8/10/4 1/11/4 5/12/4
f 9/13/4 4/14/4 6/15/4
f 7/16/2 10/17/2 9/18/2
f 11/19/5 2/20/5 7/21/5
f 1/1/1 12/22/1 2/2/1
f 4/4/2 8/23/2 5/5/2
f 2/7/3 12/24/3 4/8/3
f 12/24/3 8/25/3 4/8/3
f 4/8/3 10/26/3 7/9/3
f 8/10/4 12/27/4 1/11/4
f 6/15/4 13/28/4 9/13/4
f 9/13/4 10/29/4 4/14/4
f 13/30/2 11/31/2 9/18/2
f 11/31/2 7/16/2 9/18/2
f 11/19/5 3/32/5 2/20/5
