# Blender v2.80 (sub 44) OBJ File: ''
# www.blender.org
o MURO_Cube.007
v -0.191948 1.538444 12.524892
v -0.191948 -1.538444 -12.524895
v -0.191948 -1.538450 12.524892
v 0.191948 1.538444 12.524894
v 0.191948 -1.538450 12.524894
v 0.191948 1.538450 -12.524893
v 0.191948 -1.538444 -12.524893
v -0.191948 1.538450 -12.524895
vt 0.000001 1.000000
vt 0.444536 0.000000
vt 0.444536 1.000000
vt 0.944536 0.122831
vt 1.000000 0.245662
vt 0.944536 0.245662
vt 0.944537 0.122831
vt 1.000000 0.000000
vt 1.000000 0.122831
vt 0.889073 0.000000
vt 0.444536 1.000000
vt 0.444537 0.000000
vt 0.944536 1.000000
vt 0.889073 1.000000
vt 0.000000 0.000000
vt 1.000000 0.122831
vt 0.944536 0.000000
vn -1.0000 0.0000 0.0000
vn -0.0000 0.0000 1.0000
vn 0.0000 0.0000 -1.0000
vn 1.0000 0.0000 0.0000
vn -0.0000 1.0000 0.0000
s 1
f 1/1/1 2/2/1 3/3/1
f 4/4/2 3/5/2 5/6/2
f 2/7/3 6/8/3 7/9/3
f 6/10/4 5/11/4 7/12/4
f 6/10/5 1/13/5 4/14/5
f 1/1/1 8/15/1 2/2/1
f 4/4/2 1/16/2 3/5/2
f 2/7/3 8/17/3 6/8/3
f 6/10/4 4/14/4 5/11/4
f 6/10/5 8/17/5 1/13/5
