# Blender v2.80 (sub 44) OBJ File: ''
# www.blender.org
o MURO_Cube.000
v 17.488014 1.524470 13.967424
v 17.488014 -1.552418 -13.598528
v 17.488014 -1.552424 13.967424
v 17.871910 1.524470 13.967424
v 17.871910 -1.552424 13.967424
v -17.871910 -1.524469 -13.967424
v 17.871910 1.524476 -13.967424
v 17.871910 -1.552418 -13.967424
v -13.769468 1.550738 -13.598528
v -17.871910 -1.524469 -13.598528
v -13.769468 -1.526156 -13.598528
v 17.488014 1.524476 -13.598528
v -13.358371 -1.539287 -13.598528
v -13.358371 1.537607 -13.598528
v -13.358371 1.537605 -6.279654
v -13.358371 -1.539289 -6.279654
v -13.769468 -1.526158 -6.279654
v -13.769468 0.731754 -6.279654
v -17.871910 1.552424 -13.598528
v -13.769468 1.550736 -6.279654
v -17.871910 1.552424 -13.967424
vt 0.923503 0.724880
vt 1.000000 0.000000
vt 1.000000 0.724880
vt 0.933724 0.917339
vt 0.943268 0.998249
vt 0.933724 0.998249
vt 0.770510 0.939927
vt 0.694013 0.000063
vt 0.770509 0.000000
vt 0.847006 0.811211
vt 0.770510 0.919056
vt 0.770510 0.811177
vt 0.847006 0.000034
vt 0.770510 0.811143
vt 0.770510 0.000000
vt 0.684859 0.821490
vt 0.684848 0.010402
vt 0.694013 0.000312
vt 0.847006 0.000000
vt 0.923503 0.734581
vt 0.847006 0.734581
vt 0.923503 0.724880
vt 1.000000 0.917339
vt 0.923503 0.917339
vt 0.923503 0.734581
vt 0.923503 0.927039
vt 0.867368 0.927039
vt 0.770510 0.919089
vt 0.779681 1.000000
vt 0.770510 1.000000
vt 0.923503 0.917684
vt 0.933724 0.917339
vt 0.933724 0.938875
vt 0.923503 0.000000
vt 0.943268 0.917339
vt 0.694013 0.939991
vt 0.847006 0.919089
vt 0.847006 0.811177
vt 0.000000 0.010094
vt 0.000000 0.000000
vt 0.694013 0.940179
vt 0.684848 0.940175
vt 0.684847 0.832304
vt 0.503017 0.832222
vt 0.503029 0.821409
vt 0.923503 0.000000
vt 1.000000 0.724880
vt 0.847006 0.927039
vt 0.847006 0.734581
vt 0.779681 0.919089
vt 0.933724 0.998249
vt 0.923503 0.998595
vn -1.0000 0.0000 0.0000
vn 0.0000 0.0000 1.0000
vn 0.0000 0.0000 -1.0000
vn 0.0004 1.0000 0.0004
vn 0.0002 1.0000 0.0002
vn 1.0000 0.0000 0.0000
vn 0.0000 1.0000 0.0000
vn 0.0008 0.9995 0.0306
vn 0.0004 1.0000 0.0000
vn 0.0319 0.9995 0.0000
vn 0.0301 0.9432 -0.3307
s 1
f 1/1/1 2/2/1 3/3/1
f 4/4/2 3/5/2 5/6/2
f 6/7/3 7/8/3 8/9/3
f 9/10/2 10/11/2 11/12/2
f 12/13/2 13/14/2 2/15/2
f 14/16/4 12/17/5 7/18/5
f 8/19/6 4/20/6 5/21/6
f 13/22/6 15/23/6 16/24/6
f 11/25/1 17/26/1 18/27/1
f 19/28/1 6/29/1 10/30/1
f 15/31/2 20/32/2 18/33/2
f 1/1/1 12/34/1 2/2/1
f 4/4/2 1/35/2 3/5/2
f 6/7/3 21/36/3 7/8/3
f 9/10/2 19/37/2 10/11/2
f 12/13/2 14/38/2 13/14/2
f 1/39/7 4/40/7 12/17/5
f 4/40/7 7/18/5 12/17/5
f 7/18/8 21/41/8 14/16/8
f 21/41/9 19/42/9 9/43/9
f 9/43/10 20/44/10 14/16/10
f 20/44/10 15/45/10 14/16/10
f 21/41/11 9/43/11 14/16/11
f 8/19/6 7/46/6 4/20/6
f 13/22/6 14/47/6 15/23/6
f 20/48/1 9/49/1 18/27/1
f 9/49/1 11/25/1 18/27/1
f 19/28/1 21/50/1 6/29/1
f 17/51/2 16/52/2 18/33/2
f 16/52/2 15/31/2 18/33/2
