# Blender v2.80 (sub 44) OBJ File: '118.blend'
# www.blender.org
o Coches_parking.322_Cube.027_Cube.323
v -35.281647 0.293220 0.382711
v -35.281647 -0.293220 -0.382711
v -35.281647 -0.293220 0.382711
v -35.281647 0.293220 -0.382711
v 35.281647 -0.293220 -0.382711
v 35.281647 0.293220 -0.382711
v 35.281647 -0.293220 0.382711
v 35.281647 0.293220 0.382711
vt 1.000000 0.000000
vt 0.767726 0.010847
vt 0.767726 0.000000
vt 0.535452 1.000000
vt 0.767721 0.000000
vt 0.767726 1.000000
vt 0.767726 0.021695
vt 1.000000 0.010847
vt 1.000000 0.021695
vt 0.535443 0.000000
vt 0.303173 1.000000
vt 0.303169 0.000000
vt 0.303169 1.000000
vt 0.000000 0.000000
vt 0.303164 0.000000
vt 1.000000 0.010847
vt 0.535447 0.000000
vt 0.767726 0.010847
vt 0.535447 1.000000
vt 0.000005 1.000000
vn -1.0000 -0.0000 0.0000
vn 0.0000 0.0000 -1.0000
vn 1.0000 0.0000 0.0000
vn 0.0000 -0.0000 1.0000
vn 0.0000 1.0000 0.0000
s 1
f 1/1/1 2/2/1 3/3/1
f 4/4/2 5/5/2 2/6/2
f 6/7/3 7/8/3 5/9/3
f 8/10/4 3/11/4 7/12/4
f 4/13/5 8/14/5 6/15/5
f 1/1/1 4/16/1 2/2/1
f 4/4/2 6/17/2 5/5/2
f 6/7/3 8/18/3 7/8/3
f 8/10/4 1/19/4 3/11/4
f 4/13/5 1/20/5 8/14/5
