# Blender v2.80 (sub 44) OBJ File: ''
# www.blender.org
o Coches_parking.001_Cube.027_Cube.488
v -18.719622 0.669873 29.837297
v -18.719707 -0.711472 -29.838234
v -18.719622 -0.711474 29.837297
v -18.719707 0.669875 -29.838234
v 18.719622 -0.669873 -29.837297
v 18.719622 0.711474 -29.837297
v 18.719707 -0.669875 29.838234
v 18.719707 0.711472 29.838234
vt 0.903548 0.000000
vt 0.871397 0.999983
vt 0.871397 0.000000
vt 0.935699 0.627372
vt 0.967849 0.000026
vt 0.967849 0.627397
vt 0.935698 0.000000
vt 0.903548 0.999983
vt 0.903548 0.000000
vt 1.000000 0.627372
vt 0.967849 0.000026
vt 1.000000 0.000000
vt 0.000000 0.000017
vt 0.871397 0.999983
vt 0.000000 1.000000
vt 0.903548 0.999983
vt 0.935698 0.999983
vt 0.967849 0.627397
vt 0.871397 0.000000
vn -1.0000 0.0000 0.0000
vn 0.0000 0.0000 -1.0000
vn 1.0000 0.0000 -0.0000
vn -0.0000 0.0000 1.0000
vn -0.0011 1.0000 0.0000
s 1
f 1/1/1 2/2/1 3/3/1
f 4/4/2 5/5/2 2/6/2
f 6/7/3 7/8/3 5/9/3
f 7/10/4 1/11/4 3/12/4
f 6/13/5 1/14/5 8/15/5
f 1/1/1 4/16/1 2/2/1
f 4/4/2 6/7/2 5/5/2
f 6/7/3 8/17/3 7/8/3
f 7/10/4 8/18/4 1/11/4
f 6/13/5 4/19/5 1/14/5
