# Blender v2.80 (sub 44) OBJ File: ''
# www.blender.org
o Coches_parking.002_Cube.027_Cube.485
v 14.277090 3.211034 17.150127
v -14.271947 -7.117477 17.149139
v 14.281959 -7.117477 17.150127
v -14.275425 2.332389 -16.838352
v -13.741938 3.225531 -16.838352
v -14.276712 3.225280 -16.838352
v 14.281915 -7.117475 -17.149139
v 14.277046 3.211037 -17.149139
v -19.113070 3.225278 22.958714
v -14.276815 3.229414 17.149139
v 19.113127 4.554847 22.960037
v 19.113974 3.211035 22.960037
v 19.113916 3.211037 -22.958714
v 19.113070 4.554849 -22.958714
v -16.574705 7.117475 20.417894
v 16.570658 7.117477 -20.417894
v -16.574757 7.117477 -20.419043
v -19.113127 3.225280 -22.960037
v -19.113974 4.554849 -22.960037
v -14.276859 3.229416 -17.150127
v -14.273381 -1.916183 16.837364
v -13.737319 -6.758432 16.837364
v -14.272094 -6.758684 16.837364
v -13.034317 3.215229 -17.150084
v 13.909887 -2.248537 -17.149153
v -14.276670 3.225278 16.837364
v 13.911476 -7.117476 -15.562208
v 13.909389 -2.248537 -15.562208
v -14.271991 -7.117475 -16.838333
v -14.271947 -7.117477 16.837370
v -13.738650 -1.915929 -16.838352
v -13.738606 -1.915931 16.837364
v -13.740607 2.332638 16.837364
v -13.741895 3.225529 16.837364
v -13.737363 -6.758429 -16.838352
v -14.272138 -6.758681 -16.838352
v -14.275382 2.332387 16.837364
v -14.273425 -1.916181 -16.838352
v -13.740650 2.332640 -16.838352
v -13.034302 -1.902358 -17.150114
v -13.033192 -7.117476 -15.563169
v -13.032946 -7.117475 -17.150114
v -13.034548 -1.902357 -15.563169
v -19.113916 4.554847 22.958714
v 16.570709 7.117475 20.419043
v 13.909891 3.215229 -17.149153
v 13.911974 -7.117475 -17.149153
v -14.271991 -7.117475 -17.150127
vt 0.709300 0.871805
vt 0.833637 0.513130
vt 0.833637 0.871866
vt 0.339655 0.588134
vt 0.333217 0.576923
vt 0.339655 0.576916
vt 0.709079 0.943987
vt 0.584742 0.513069
vt 0.709079 0.513069
vt 0.058227 0.072993
vt 0.460184 0.000017
vt 0.401965 0.073005
vt 0.983823 0.480264
vt 1.000000 0.000017
vt 1.000000 0.480281
vt 0.890060 0.000000
vt 0.906237 0.576899
vt 0.890059 0.576899
vt 0.460184 0.000015
vt 0.859196 0.513054
vt 0.460184 0.513069
vt 0.983823 0.480298
vt 1.000000 0.960546
vt 0.983994 0.960563
vt 0.401965 0.503923
vt 0.460184 0.576916
vt 0.000000 0.576899
vt 0.000000 0.000000
vt 0.320342 0.576917
vt 0.326779 0.637755
vt 0.320342 0.637756
vt 0.387006 0.503923
vt 0.065945 0.581590
vt 0.000221 0.576977
vt 0.124558 0.576916
vt 0.460234 0.940070
vt 0.460184 0.513069
vt 0.460234 0.516986
vt 0.313904 0.576916
vt 0.294800 0.638086
vt 0.294800 0.576916
vt 0.580423 0.940070
vt 0.584742 0.516986
vt 0.584742 0.940070
vt 0.124558 0.576916
vt 0.182853 1.000000
vt 0.124558 1.000000
vt 0.256383 1.000000
vt 0.245634 0.576916
vt 0.256383 0.576916
vt 0.275696 0.576916
vt 0.269258 1.000000
vt 0.269258 0.576916
vt 0.262820 1.000000
vt 0.256383 0.576916
vt 0.262820 0.576916
vt 0.333217 0.576923
vt 0.326779 0.588134
vt 0.326779 0.576916
vt 0.320342 0.576917
vt 0.313904 0.637755
vt 0.313904 0.576916
vt 0.852741 0.513069
vt 0.859179 0.936153
vt 0.852741 0.936153
vt 0.269258 0.576916
vt 0.262820 1.000000
vt 0.262820 0.576916
vt 0.000000 0.935713
vt 0.000171 0.920103
vt 0.061777 0.920103
vt 0.245634 0.915435
vt 0.187020 0.576942
vt 0.245634 0.576916
vt 0.275696 0.576916
vt 0.294800 0.642436
vt 0.275696 0.642436
vt 0.852741 0.513071
vt 0.833637 0.851589
vt 0.833637 0.513069
vt 0.936979 0.576899
vt 0.906237 0.031923
vt 0.936979 0.000000
vt 0.952985 0.512250
vt 0.859196 0.031922
vt 0.983994 0.000000
vt 0.952985 0.448311
vt 0.953133 0.031889
vt 0.952985 0.576899
vt 0.470983 0.940070
vt 0.470983 0.516986
vt 0.522128 0.940070
vt 0.000171 0.581590
vt 0.709079 0.513069
vt 0.333217 0.588140
vt 0.584742 0.943987
vt 0.906237 0.000000
vt 0.859196 0.000000
vt 1.000000 0.480281
vt 0.058227 0.503911
vt 0.326779 0.576916
vt 0.062647 0.503911
vt 0.124558 0.581564
vt 0.460184 0.943987
vt 0.313904 0.638086
vt 0.580423 0.516986
vt 0.182853 0.576916
vt 0.245634 1.000000
vt 0.275696 1.000000
vt 0.256383 1.000000
vt 0.333217 0.588140
vt 0.320342 0.637756
vt 0.859179 0.513069
vt 0.269258 1.000000
vt 0.124558 0.920085
vt 0.124558 0.935652
vt 0.182853 0.915452
vt 0.294800 0.576916
vt 0.852741 0.851595
vt 0.906237 0.544977
vt 0.953133 0.928672
vt 0.859196 0.544976
vt 0.952985 0.000000
vt 0.584742 0.513069
vt 0.522128 0.516986
vt 0.584742 0.943987
vn -0.0000 -0.0000 1.0000
vn 1.0000 0.0005 -0.0000
vn -0.0003 -1.0000 -0.0006
vn 0.0005 -1.0000 0.0004
vn 0.0001 -1.0000 -0.0006
vn 1.0000 0.0006 -0.0000
vn -0.0000 1.0000 0.0000
vn 0.0000 0.0000 -1.0000
vn 0.0009 -1.0000 -0.0000
vn 0.0000 -1.0000 -0.0000
vn -0.0002 -1.0000 0.0002
vn -0.0003 -1.0000 -0.0009
vn -0.0001 -1.0000 0.0001
vn -0.0004 -1.0000 -0.0013
vn -0.9994 -0.0353 0.0000
vn -0.9994 -0.0354 0.0000
vn -0.9994 -0.0349 0.0000
vn -1.0000 -0.0004 -0.0003
vn -1.0000 -0.0004 0.0000
vn -1.0000 -0.0003 0.0000
vn -1.0000 -0.0014 0.0000
vn 0.0005 -1.0000 -0.0000
vn -0.0005 1.0000 0.0000
vn 1.0000 0.0003 0.0002
vn -0.0128 -0.9999 -0.0000
vn -0.7103 0.7039 0.0000
vn 0.0000 0.7041 -0.7101
vn 0.7099 0.7043 -0.0000
vn -0.0000 0.7041 0.7101
vn -1.0000 -0.0006 0.0000
vn -1.0000 -0.0011 -0.0005
vn -1.0000 -0.0008 0.0003
vn -1.0000 -0.0005 -0.0003
vn -0.0114 -0.9999 -0.0095
vn -0.0000 -1.0000 0.0007
vn -0.0114 -0.9999 0.0102
vn -0.9994 -0.0356 0.0000
vn -1.0000 -0.0003 -0.0001
vn -1.0000 -0.0014 0.0005
vn -1.0000 -0.0006 0.0028
vn -1.0000 -0.0004 0.0019
vn -1.0000 -0.0004 0.0004
vn -1.0000 -0.0006 -0.0028
vn -1.0000 -0.0014 -0.0004
vn -1.0000 -0.0003 0.0002
vn -1.0000 -0.0005 -0.0023
s 1
f 1/1/1 2/2/1 3/3/1
f 4/4/1 5/5/1 6/6/1
f 1/7/2 7/8/2 8/9/2
f 1/10/3 9/11/4 10/12/5
f 11/13/1 9/14/1 12/15/1
f 11/16/6 13/17/6 14/18/6
f 15/19/7 16/20/7 17/21/7
f 14/22/8 18/23/8 19/24/8
f 20/25/9 9/11/4 18/26/9
f 1/10/3 13/27/10 12/28/11
f 21/29/8 22/30/8 23/31/8
f 13/27/12 24/32/13 18/26/14
f 25/33/8 8/34/8 7/35/8
f 26/36/15 20/37/16 6/38/17
f 25/39/18 27/40/18 28/41/18
f 23/42/19 29/43/19 30/44/19
f 31/45/20 22/46/20 32/47/20
f 5/48/21 33/49/21 34/50/21
f 21/51/22 31/52/22 32/53/22
f 23/54/23 35/55/23 36/56/23
f 37/57/8 34/58/8 33/59/8
f 38/60/1 35/61/1 31/62/1
f 37/63/23 39/64/23 4/65/23
f 26/66/22 5/67/22 34/68/22
f 20/69/8 24/70/8 40/71/8
f 41/72/8 28/73/8 27/74/8
f 40/75/24 41/76/24 42/77/24
f 40/78/25 28/79/25 43/80/25
f 44/81/26 17/82/26 19/83/26
f 19/24/27 16/84/27 14/22/27
f 14/18/28 45/85/28 11/16/28
f 44/86/29 45/87/29 15/88/29
f 19/83/30 9/89/30 44/81/30
f 37/90/31 4/91/32 21/92/33
f 40/71/8 46/93/8 25/33/8
f 1/1/1 10/94/1 2/2/1
f 4/4/1 39/95/1 5/5/1
f 1/7/2 3/96/2 7/8/2
f 1/10/3 12/28/11 9/11/4
f 11/13/1 44/86/1 9/14/1
f 11/16/6 12/97/6 13/17/6
f 15/19/7 45/98/7 16/20/7
f 14/22/8 13/99/8 18/23/8
f 20/25/9 10/12/5 9/11/4
f 1/10/3 8/100/10 13/27/10
f 21/29/8 32/101/8 22/30/8
f 13/27/34 8/100/34 46/102/34
f 46/102/35 24/32/13 13/27/12
f 24/32/36 20/25/36 18/26/36
f 7/35/8 47/103/8 25/33/8
f 25/33/8 46/93/8 8/34/8
f 26/36/15 10/104/37 20/37/16
f 25/39/18 47/105/18 27/40/18
f 23/42/19 36/106/38 29/43/19
f 31/45/20 35/107/20 22/46/20
f 5/48/21 39/108/21 33/49/21
f 21/51/22 38/109/22 31/52/22
f 23/54/23 22/110/23 35/55/23
f 37/57/8 26/111/8 34/58/8
f 38/60/1 36/112/1 35/61/1
f 37/63/23 33/113/23 39/64/23
f 26/66/22 6/114/22 5/67/22
f 40/71/8 42/115/8 48/116/8
f 48/116/8 20/69/8 40/71/8
f 41/72/8 43/117/8 28/73/8
f 40/75/24 43/118/24 41/76/24
f 40/78/25 25/119/25 28/79/25
f 44/81/26 15/120/26 17/82/26
f 19/24/27 17/121/27 16/84/27
f 14/18/28 16/122/28 45/85/28
f 44/86/29 11/13/29 45/87/29
f 19/83/30 18/123/30 9/89/30
f 6/38/39 20/37/40 4/91/32
f 20/37/40 48/124/41 38/125/42
f 4/91/32 20/37/40 38/125/42
f 48/124/41 29/43/19 36/106/38
f 48/124/41 36/106/38 38/125/42
f 10/104/43 26/36/44 37/90/31
f 21/92/33 23/42/45 2/126/46
f 23/42/19 30/44/19 2/126/19
f 4/91/32 38/125/42 21/92/33
f 2/126/46 10/104/43 21/92/33
f 10/104/43 37/90/31 21/92/33
f 40/71/8 24/70/8 46/93/8
