# Blender v2.80 (sub 44) OBJ File: '128.blend'
# www.blender.org
o Sphere.002_Sphere.005
v 3.765772 1.437127 2.885713
v 4.118888 3.439636 2.103641
v 3.368053 4.702579 1.126060
v 5.069097 2.807143 3.764228
v 5.751320 2.801952 3.757802
v 6.094204 4.156214 2.702989
v 7.774581 -2.707620 3.955837
v 7.800221 -1.388903 3.981239
v 7.158232 -2.381688 4.396389
v 7.902918 -4.078563 4.134796
v 7.877119 -3.208652 4.071803
v 5.294230 -3.905243 5.637469
v 6.465588 -4.653109 6.527081
v 5.476571 -1.690125 4.148916
v 7.080359 0.829175 4.163551
v 7.803408 4.261129 4.946937
v 7.811484 1.296013 4.057156
v 7.806234 2.177613 4.266186
v 7.837768 3.145885 4.861031
v 7.829560 7.444733 0.457227
v 7.839378 7.274133 -0.001320
v 6.886642 7.314283 -0.819549
v 7.888596 6.906515 -0.818454
v 7.863762 7.347057 0.233957
v 7.918686 7.269056 0.123839
v 7.557066 6.770334 -1.918132
v 7.806868 7.551862 2.596825
v 7.848502 7.486806 1.167248
v 5.749306 6.114927 2.070318
v 4.681406 6.603017 -0.892619
v -3.928438 -5.356226 -4.052992
v -7.864797 -5.864793 -4.802926
v -7.490662 -6.905971 -4.226264
v 7.889584 6.752931 3.791960
v 7.795199 7.097076 3.394556
v 1.834050 2.335828 1.118642
v 1.767215 0.295014 2.331145
v 3.006231 2.512169 2.619858
v 1.721910 6.447023 -1.136342
v 5.691184 7.029361 -3.443918
v 1.578567 5.231470 0.625950
v -7.957139 -6.736512 -4.881335
v -6.970239 -4.924579 -6.814270
v -7.536837 -6.861708 -6.422606
v -5.868617 -5.173756 -8.431433
v -7.061344 -6.882617 -6.768135
v -5.822348 -6.531466 -7.981925
v -6.454845 -6.688868 -7.079765
v -4.164382 -1.326118 -7.777279
v -4.351660 -3.687238 -8.276209
v -4.917270 -1.157967 -5.686376
v 3.917909 -3.051514 4.334663
v 7.852356 5.000620 3.549313
v 7.955660 4.382577 4.134660
v 2.114891 -4.824987 5.176045
v 0.970266 -5.024563 5.150677
v 2.406245 -6.356193 7.431252
v -2.515703 3.224520 -6.441848
v 3.042745 2.910219 -5.499664
v 3.512280 5.102044 -4.118435
v 2.811455 5.794897 -5.483027
v 0.139715 5.858160 -4.661674
v -1.235550 2.546115 -4.629870
v 0.085093 3.468946 -5.643643
v -0.615561 0.532431 -4.778146
v 2.854618 -0.137563 1.006782
v 0.008441 5.642090 -5.956038
v 4.015658 6.101729 -5.823174
v 4.784988 2.626256 -1.514292
v 6.058791 0.448014 -2.315966
v 4.715322 0.342463 0.373505
v -4.978271 -5.546726 5.214252
v -3.145507 -5.016375 7.113786
v -4.382071 -5.290381 3.672296
v 1.658176 -4.378474 1.183183
v 4.333566 -2.782289 0.248057
v 2.564929 -5.515005 -1.118310
v -1.982864 4.742253 -4.498309
v 5.325370 2.527193 -4.355292
v -4.437429 -6.667202 5.753397
v -3.270422 -5.525867 8.498110
v -1.826247 -0.397844 -5.337461
v -2.273064 3.017105 -3.899258
v 5.379916 -6.207200 7.673203
v 7.811084 -5.091157 6.528970
v -3.464618 -0.793973 -4.683425
v -2.000169 -3.247672 -4.505272
v -3.391421 -3.566373 -5.004687
v -0.208769 -3.201876 2.707893
v 0.886232 5.456919 -0.713011
v 0.949327 3.424730 0.151213
v -0.401672 -4.322561 -4.598612
v 0.458990 -5.197343 -4.502536
v 0.039933 -2.912314 -5.537098
v -6.998232 -6.679107 2.660352
v -6.862210 -6.799383 3.419223
v -7.007179 -6.128355 1.693205
v -6.477426 -5.777730 4.948572
v -3.245387 -6.171705 -2.591903
v 1.408173 -5.717244 -3.195986
v 1.308904 -6.942307 8.921097
v 0.231588 -6.652143 7.668622
v 0.923002 -6.822033 8.337963
v 3.359359 -6.113476 11.289232
v 4.306370 -4.394055 9.873453
v -1.588309 -5.271348 7.335552
v 1.154946 -6.233699 9.194332
v -5.945390 -7.088323 -1.041076
v -6.450597 -6.917616 0.162969
v -1.691276 -5.583380 -1.094446
v -0.634157 -4.461008 1.485451
v 2.081185 -3.287524 -5.138696
v 4.160826 -3.874672 -1.392196
v -3.109663 -6.242911 7.574357
v 7.625904 -6.086741 3.352422
v 3.773375 -3.325490 -5.451455
v 5.918957 -2.682086 -2.645730
v 2.874122 -3.442116 5.819055
v 2.448479 -1.578531 4.142521
v 0.219299 -2.783303 3.777442
v 3.139744 5.306602 -7.201594
v -1.078882 1.631689 -9.006866
v -0.246206 -2.547683 -10.690075
v -2.073446 -6.362296 -9.657610
v -3.572279 -6.441000 -9.075981
v -1.071115 -3.649396 5.847750
v 2.819881 -4.459923 7.129462
v 0.784979 -4.336957 8.128990
v 1.966894 -6.453703 8.234045
v 4.988006 -4.959848 8.552517
v 2.245425 -6.379459 -11.289232
v 0.721961 -6.281106 -10.808386
v 4.063052 -4.147212 6.435030
v -0.373518 -7.551862 7.149229
v 2.001182 -5.649471 10.521843
v 4.441062 -6.749402 5.840441
v 3.996136 -6.881643 9.047920
v 5.937763 4.790661 -5.853809
v 7.430897 6.707045 -3.129286
v 7.660172 6.028037 -3.554598
v 7.780749 4.473017 -4.364480
v 7.815534 2.778640 -5.052676
v 7.691845 1.549073 -6.538699
v 7.775735 -0.446149 -7.882736
v 3.882802 2.326247 -9.343437
v 6.489358 -6.355737 -9.599693
v 5.526708 -2.426670 -10.321413
v 7.677859 -6.312047 -8.769573
v 7.615175 -1.453322 -8.574022
v 5.191445 -6.463602 -10.199530
v 4.483385 -6.154826 -10.651186
v 3.617315 -6.446832 -10.534338
v -0.638865 -6.338377 -10.144125
v -2.404931 -5.010880 5.242261
v -6.800450 -6.622700 1.323748
v -3.491748 -4.933706 4.252813
v -3.989064 -5.056451 0.787140
v -5.402382 -5.578753 1.357957
v -2.331269 -6.038306 1.696203
v -6.682729 -6.866907 4.051144
v -6.036539 -6.825974 4.968709
v -5.540086 -6.885981 5.192141
v -3.439304 -6.498749 -1.687740
v -5.553571 -7.078246 -1.596968
v -5.377583 -7.041417 -2.232057
v 6.676156 -6.632465 3.308225
v 3.738618 -0.133230 -7.155972
v 1.969012 -6.968545 9.456980
v 2.771648 -6.970850 9.676361
v 1.538937 -6.926007 9.202627
v 1.969761 3.311484 -0.633194
v 0.971276 -1.658868 -5.650007
v -6.365234 -4.716145 -5.708847
v -6.043880 -7.009210 -3.050302
v -7.801216 -6.873020 -5.614534
v -6.627473 -7.061726 -3.350039
vt 0.765558 0.341371
vt 0.799847 0.396720
vt 0.795309 0.448991
vt 0.824096 0.344980
vt 0.842139 0.338036
vt 0.863629 0.383987
vt 0.820441 0.159412
vt 0.835750 0.190929
vt 0.803179 0.174607
vt 0.818912 0.117268
vt 0.822124 0.143574
vt 0.725314 0.155567
vt 0.735175 0.112425
vt 0.770160 0.220524
vt 0.850878 0.257953
vt 0.918825 0.334198
vt 0.876423 0.256602
vt 0.890573 0.277626
vt 0.905087 0.306010
vt 0.943818 0.501436
vt 0.942443 0.514595
vt 0.912382 0.531925
vt 0.941628 0.538621
vt 0.944003 0.508087
vt 0.945317 0.511800
vt 0.928851 0.566985
vt 0.952966 0.444589
vt 0.947536 0.482600
vt 0.882208 0.441192
vt 0.845730 0.527567
vt 0.309447 0.857716
vt 0.354621 0.957677
vt 0.324637 0.978287
vt 0.951466 0.406420
vt 0.951621 0.420553
vt 0.718886 0.413378
vt 0.691598 0.353440
vt 0.756827 0.378644
vt 0.759848 0.537865
vt 0.873093 0.601224
vt 0.753169 0.482810
vt 0.355030 0.982419
vt 0.415321 0.940211
vt 0.396941 0.991788
vt 0.460836 0.949775
vt 0.412915 0.993047
vt 0.460384 0.982945
vt 0.431639 0.990449
vt 0.508016 0.847790
vt 0.498925 0.913583
vt 0.453730 0.820742
vt 0.711734 0.210045
vt 0.919497 0.374117
vt 0.926756 0.353730
vt 0.072294 0.746340
vt 0.098505 0.753653
vt 0.061977 0.800873
vt 0.545648 0.730113
vt 0.320640 0.155879
vt 0.238084 0.085748
vt 0.297288 0.026279
vt 0.408661 0.007920
vt 0.484283 0.137048
vt 0.411051 0.123546
vt 0.462273 0.223114
vt 0.022861 0.260462
vt 0.108916 0.336176
vt 0.044102 0.371037
vt 0.603268 0.667844
vt 0.668729 0.637982
vt 0.702959 0.639905
vt 0.178850 0.210769
vt 0.226911 0.256774
vt 0.162904 0.294217
vt 0.272214 0.798083
vt 0.207217 0.809050
vt 0.280002 0.751066
vt 0.214230 0.455824
vt 0.205260 0.361804
vt 0.279029 0.415173
vt 0.535099 0.665428
vt 0.254590 0.196298
vt 0.260781 0.840568
vt 0.207014 0.826305
vt 0.505456 0.260937
vt 0.594074 0.635401
vt 0.535340 0.111395
vt 0.502222 0.041122
vt 0.700533 0.058168
vt 0.763429 0.094531
vt 0.575629 0.281337
vt 0.480952 0.375727
vt 0.542494 0.404141
vt 0.130454 0.531592
vt 0.730398 0.514354
vt 0.708058 0.460024
vt 0.405069 0.382173
vt 0.373533 0.381888
vt 0.410919 0.329826
vt 0.362826 0.785357
vt 0.351821 0.802099
vt 0.366762 0.761461
vt 0.309515 0.802922
vt 0.451882 0.540186
vt 0.340834 0.407319
vt 0.093924 0.874761
vt 0.134131 0.861911
vt 0.111473 0.871469
vt 0.617076 0.066256
vt 0.633148 0.091694
vt 0.172743 0.822600
vt 0.081268 0.853785
vt 0.416164 0.702670
vt 0.399173 0.733185
vt 0.522982 0.499203
vt 0.352762 0.534816
vt 0.219946 0.546173
vt 0.352132 0.326735
vt 0.256018 0.362269
vt 0.210639 0.841991
vt 0.830065 0.052324
vt 0.317444 0.306333
vt 0.257935 0.306118
vt 0.663524 0.190694
vt 0.680281 0.264844
vt 0.084100 0.581510
vt 0.133532 0.685598
vt 0.682488 0.684052
vt 0.597575 0.788889
vt 0.622737 0.892839
vt 0.565006 0.987215
vt 0.522902 0.986437
vt 0.160226 0.760755
vt 0.023736 0.774255
vt 0.115304 0.809948
vt 0.067854 0.820024
vt 0.666244 0.088246
vt 0.689611 0.990221
vt 0.646417 0.987827
vt 0.682996 0.153781
vt 0.151447 0.879888
vt 0.584085 0.074985
vt 0.730348 0.010046
vt 0.649496 0.039498
vt 0.883352 0.691274
vt 0.921692 0.599147
vt 0.930699 0.620072
vt 0.823067 0.669203
vt 0.943749 0.666307
vt 0.958296 0.714146
vt 0.824537 0.739346
vt 0.761637 0.661616
vt 0.833198 0.688528
vt 0.830802 0.803245
vt 0.712085 0.768040
vt 0.810705 0.971278
vt 0.763341 0.877532
vt 0.848491 0.963204
vt 0.824871 0.835628
vt 0.773611 0.980555
vt 0.750404 0.975810
vt 0.731473 0.991555
vt 0.605564 0.988770
vt 0.037259 0.877500
vt 0.211407 0.762969
vt 0.380648 0.758602
vt 0.166706 0.667300
vt 0.248201 0.749355
vt 0.325409 0.692254
vt 0.341964 0.726159
vt 0.275895 0.664217
vt 0.337991 0.813707
vt 0.311497 0.827550
vt 0.297526 0.834774
vt 0.273633 0.642864
vt 0.379369 0.633471
vt 0.421371 0.684497
vt 0.432022 0.667709
vt 0.627995 0.158567
vt 0.031428 0.726231
vt 0.818323 0.025816
vt 0.432396 0.580600
vt 0.329969 0.245058
vt 0.078248 0.887615
vt 0.591043 0.025310
vt 0.613856 0.032974
vt 0.088561 0.881577
vt 0.011796 0.187177
vt 0.027948 0.080244
vt 0.067464 0.025443
vt 0.068395 0.181915
vt 0.788135 0.660875
vt 0.394382 0.288379
vt 0.372735 0.815989
vt 0.390584 0.916152
vt 0.434158 0.776442
vt 0.253140 0.853287
vt 0.278534 0.942514
vt 0.225249 0.866003
vt 0.249754 0.926383
vt 0.374305 0.989158
vt 0.493506 0.688072
vt 0.291193 0.958725
vn -0.2224 0.2943 0.9295
vn -0.4932 0.4197 0.7619
vn -0.3539 0.5290 0.7713
vn -0.3635 0.3946 0.8439
vn -0.3312 0.3542 0.8746
vn -0.4910 0.4620 0.7385
vn 0.6841 0.2524 0.6843
vn 0.4540 0.0439 0.8899
vn 0.3615 0.3052 0.8810
vn 0.9983 0.0055 0.0586
vn -0.6722 0.0336 0.7396
vn 0.0124 0.8012 0.5983
vn 0.2776 0.6625 0.6957
vn -0.1643 0.2891 0.9431
vn 0.3015 -0.1646 0.9391
vn -0.4406 0.5041 0.7428
vn 0.2406 -0.1585 0.9576
vn 0.6111 -0.3818 0.6934
vn -0.4224 -0.1319 0.8968
vn 0.0376 0.9914 -0.1254
vn 0.3606 0.8714 -0.3327
vn -0.0245 0.9970 -0.0734
vn 0.3603 0.8846 -0.2959
vn 0.4407 0.8435 -0.3071
vn 0.5260 0.7954 -0.3011
vn 0.3088 0.9297 -0.2006
vn -0.5545 0.7961 0.2423
vn -0.0774 0.9958 -0.0490
vn -0.5760 0.5749 0.5812
vn -0.2384 0.9325 0.2713
vn -0.3682 0.6118 0.7001
vn -0.8563 0.5038 0.1141
vn -0.4371 0.4643 0.7703
vn -0.6496 0.2004 0.7334
vn -0.6179 0.5964 0.5124
vn -0.8651 0.0010 0.5015
vn -0.9512 0.2987 0.0776
vn -0.2336 0.5055 0.8306
vn -0.5583 0.8296 0.0063
vn 0.0553 0.9508 -0.3048
vn -0.4683 0.4799 0.7419
vn -0.9689 0.2279 0.0962
vn -0.8698 0.4289 -0.2437
vn -0.8817 0.0977 -0.4615
vn -0.3213 0.0424 -0.9460
vn -0.4983 -0.4006 -0.7689
vn -0.5644 -0.1392 -0.8137
vn -0.3459 -0.5465 -0.7627
vn -0.7686 0.2740 -0.5781
vn -0.5225 0.2650 -0.8104
vn -0.8984 0.3717 0.2338
vn 0.1806 0.6639 0.7257
vn -0.5332 0.4334 0.7265
vn 0.9044 0.3632 0.2238
vn -0.5427 0.5477 0.6368
vn 0.3143 0.7886 0.5285
vn -0.5287 0.8262 0.1946
vn -0.7193 0.5513 -0.4227
vn -0.2261 -0.2677 0.9366
vn -0.8210 -0.5656 0.0782
vn -0.4386 0.7370 0.5143
vn -0.0327 0.7455 0.6657
vn 0.4369 -0.1128 0.8924
vn 0.4756 -0.3355 0.8131
vn 0.0770 -0.0443 0.9960
vn -0.5415 -0.1352 -0.8297
vn -0.3172 0.8515 -0.4175
vn 0.1196 0.8774 -0.4645
vn -0.7000 -0.5444 -0.4622
vn -0.9860 -0.1283 -0.1070
vn -0.6189 -0.1833 -0.7637
vn -0.4826 0.7303 0.4836
vn -0.2826 0.9211 0.2677
vn -0.1486 0.9877 -0.0481
vn -0.3465 0.6524 -0.6740
vn -0.8136 0.2750 -0.5122
vn -0.4495 0.8788 -0.1602
vn -0.5312 0.6462 0.5480
vn -0.8451 -0.3914 0.3640
vn -0.7453 -0.1169 0.6564
vn -0.1781 0.1102 0.9778
vn -0.0846 -0.0142 0.9963
vn -0.1290 0.1466 0.9808
vn 0.6837 -0.6143 0.3939
vn 0.7611 -0.0530 0.6465
vn -0.1092 -0.0707 0.9915
vn -0.0283 0.3593 0.9328
vn -0.2634 0.2767 0.9242
vn -0.6441 0.6485 -0.4057
vn -0.9656 0.2097 -0.1540
vn -0.9696 -0.2443 -0.0170
vn 0.3172 0.5532 0.7703
vn 0.2548 0.8405 0.4781
vn 0.1197 0.2018 0.9721
vn -0.9440 0.2828 0.1698
vn -0.9756 0.1296 0.1773
vn -0.8565 0.4722 -0.2087
vn -0.6516 0.4909 0.5784
vn -0.2923 0.8712 0.3944
vn -0.3082 0.8916 0.3318
vn -0.6803 -0.3748 0.6298
vn -0.5295 -0.4968 0.6876
vn -0.1262 -0.9848 -0.1196
vn 0.1681 -0.1964 0.9660
vn 0.4252 0.7235 0.5438
vn -0.1286 0.3678 0.9210
vn -0.5275 0.2455 0.8133
vn -0.6930 0.5525 -0.4631
vn -0.9145 0.1100 -0.3893
vn -0.2930 0.9459 -0.1392
vn -0.3984 0.8005 -0.4478
vn -0.0782 0.6227 0.7786
vn -0.7289 0.6758 -0.1092
vn -0.0337 -0.6608 0.7498
vn 0.6924 -0.6958 0.1908
vn -0.3078 0.7374 0.6012
vn -0.8876 0.4602 -0.0174
vn -0.4945 0.6316 0.5971
vn -0.1208 0.5347 0.8364
vn -0.4453 0.7345 0.5122
vn 0.1070 0.7201 -0.6856
vn -0.3906 0.4416 -0.8077
vn -0.2643 0.1598 -0.9511
vn -0.4111 0.0138 -0.9115
vn -0.3940 0.1518 -0.9065
vn -0.1327 0.9461 0.2954
vn -0.8506 0.4626 0.2500
vn 0.2949 0.8000 0.5225
vn 0.0889 0.9959 -0.0168
vn 0.8297 0.3909 0.3985
vn 0.0210 -0.0013 -0.9998
vn -0.3594 -0.0637 -0.9310
vn 0.3121 0.9084 0.2782
vn -0.1835 -0.1768 0.9670
vn -0.7350 0.3144 0.6007
vn 0.3549 -0.9268 0.1228
vn 0.5726 -0.7450 0.3422
vn 0.5187 0.5509 -0.6538
vn 0.2890 0.8723 -0.3944
vn 0.5175 0.5292 -0.6724
vn 0.6237 0.3558 -0.6960
vn 0.7035 0.4317 -0.5646
vn 0.6373 0.4733 -0.6081
vn 0.5398 0.4170 -0.7312
vn 0.2244 0.4599 -0.8591
vn 0.5112 -0.0325 -0.8588
vn 0.3707 0.1658 -0.9138
vn 0.5952 0.0086 -0.8035
vn 0.5122 0.3269 -0.7942
vn 0.4669 -0.0654 -0.8819
vn 0.3867 -0.1271 -0.9134
vn 0.2218 -0.8494 -0.4789
vn -0.3703 -0.0947 -0.9241
vn -0.4562 0.8899 -0.0009
vn -0.9480 -0.2416 -0.2072
vn -0.5482 0.7981 0.2501
vn 0.0506 0.9631 -0.2642
vn -0.3679 0.8968 -0.2455
vn -0.2152 0.9464 -0.2408
vn -0.9248 -0.1225 0.3602
vn -0.5789 -0.2284 0.7828
vn -0.3564 0.0486 0.9331
vn -0.3224 0.9466 -0.0044
vn -0.3104 0.9138 -0.2620
vn -0.3125 0.9320 0.1837
vn 0.4519 -0.8157 0.3612
vn -0.2612 -0.0111 0.9652
vn -0.5247 -0.5451 0.6538
vn 0.0357 -0.8878 0.4589
vn 0.2415 0.9372 -0.2516
vn -0.4462 -0.3717 -0.8141
vn 0.2670 0.1330 0.9545
vn -0.6711 0.6032 0.4310
vn -0.4269 0.7071 0.5637
vn -0.8365 0.4785 -0.2670
vn -0.3073 0.8376 0.4517
s 1
f 1/1/1 2/2/2 3/3/3
f 4/4/4 5/5/5 6/6/6
f 2/2/2 4/4/4 6/6/6
f 7/7/7 8/8/8 9/9/9
f 10/10/10 11/11/11 7/7/7
f 9/9/9 12/12/12 13/13/13
f 9/9/9 13/13/13 7/7/7
f 14/14/14 12/12/12 9/9/9
f 8/8/8 15/15/15 9/9/9
f 16/16/16 5/5/5 14/14/14
f 16/16/16 6/6/6 5/5/5
f 15/15/15 14/14/14 9/9/9
f 17/17/17 18/18/18 15/15/15
f 8/8/8 17/17/17 15/15/15
f 19/19/19 15/15/15 18/18/18
f 16/16/16 14/14/14 15/15/15
f 16/16/16 15/15/15 19/19/19
f 20/20/20 21/21/21 22/22/22
f 21/21/21 23/23/23 22/22/22
f 21/21/21 20/20/20 24/24/24
f 24/24/24 25/25/25 21/21/21
f 22/22/22 23/23/23 26/26/26
f 22/22/22 27/27/27 28/28/28
f 28/28/28 20/20/20 22/22/22
f 27/27/27 22/22/22 29/29/29
f 30/30/30 29/29/29 22/22/22
f 31/31/31 32/32/32 33/33/33
f 29/29/29 34/34/34 35/35/35
f 29/29/29 35/35/35 27/27/27
f 36/36/36 37/37/37 38/38/38
f 39/39/39 30/30/30 40/40/40
f 41/41/41 3/3/3 30/30/30
f 42/42/42 43/43/43 44/44/44
f 44/44/44 45/45/45 46/46/46
f 47/47/47 48/48/48 45/45/45
f 46/46/46 45/45/45 48/48/48
f 49/49/49 50/50/50 51/51/51
f 12/12/12 14/14/14 52/52/52
f 38/38/38 3/3/3 36/36/36
f 51/51/51 50/50/50 45/45/45
f 53/53/53 16/16/16 54/54/54
f 55/55/55 56/56/56 57/57/57
f 49/49/49 51/51/51 58/58/58
f 59/59/59 60/60/60 61/61/61
f 61/61/61 62/62/62 63/63/63
f 64/64/64 63/63/63 65/65/65
f 6/6/6 53/53/53 29/29/29
f 36/66/36 66/67/66 37/68/37
f 67/69/67 61/70/61 68/71/68
f 69/72/69 70/73/70 71/74/71
f 72/75/72 73/76/73 74/77/74
f 75/78/75 76/79/76 77/80/77
f 78/81/78 67/69/67 58/58/58
f 60/60/60 59/59/59 79/82/79
f 80/83/80 81/84/81 72/75/72
f 65/65/65 63/63/63 82/85/82
f 61/70/61 67/69/67 62/86/62
f 83/87/83 63/63/63 78/88/78
f 62/86/62 67/69/67 78/81/78
f 84/89/84 85/90/85 13/13/13
f 63/63/63 83/87/83 86/91/86
f 87/92/87 82/85/82 88/93/88
f 76/79/76 75/78/75 89/94/89
f 64/64/64 59/59/59 61/61/61
f 82/85/82 87/92/87 65/65/65
f 41/41/41 90/95/90 91/96/91
f 92/97/92 93/98/93 94/99/94
f 95/100/95 96/101/96 97/102/97
f 96/101/96 98/103/98 97/102/97
f 99/104/99 100/105/100 92/97/92
f 101/106/101 102/107/102 103/108/103
f 104/109/104 84/89/84 105/110/105
f 106/111/106 102/107/102 107/112/107
f 78/81/78 58/58/58 51/51/51
f 97/102/97 108/113/108 109/114/109
f 87/92/87 88/93/88 31/115/31
f 77/80/77 110/116/110 111/117/111
f 112/118/112 100/105/100 113/119/113
f 81/84/81 80/83/80 114/120/114
f 85/90/85 7/7/7 13/13/13
f 84/89/84 115/121/115 85/90/85
f 41/41/41 91/96/91 36/36/36
f 106/111/106 81/84/81 114/120/114
f 116/122/116 113/119/113 117/123/117
f 111/117/111 75/78/75 77/80/77
f 63/63/63 64/64/64 61/61/61
f 45/45/45 44/44/44 43/43/43
f 65/65/65 59/59/59 64/64/64
f 41/41/41 36/36/36 3/3/3
f 37/37/37 118/124/118 119/125/119
f 119/125/119 1/1/1 38/38/38
f 55/55/55 37/126/37 120/127/120
f 47/47/47 45/45/45 50/50/50
f 121/128/121 67/69/67 68/71/68
f 50/50/50 122/129/122 123/130/123
f 124/131/124 50/50/50 123/130/123
f 125/132/125 50/50/50 124/131/124
f 41/41/41 30/30/30 39/39/39
f 3/3/3 29/29/29 30/30/30
f 29/29/29 2/2/2 6/6/6
f 1/1/1 119/125/119 52/52/52
f 126/133/126 56/56/56 120/127/120
f 55/55/55 57/57/57 127/134/127
f 53/53/53 34/34/34 29/29/29
f 38/38/38 1/1/1 3/3/3
f 58/58/58 67/69/67 122/129/122
f 5/5/5 4/4/4 14/14/14
f 56/56/56 128/135/128 129/136/129
f 122/129/122 67/69/67 121/128/121
f 130/137/130 105/110/105 84/89/84
f 78/88/78 63/63/63 62/62/62
f 123/130/123 131/138/131 132/139/132
f 133/140/133 130/137/130 12/12/12
f 102/107/102 106/111/106 134/141/134
f 104/109/104 105/110/105 135/142/135
f 133/140/133 12/12/12 52/52/52
f 7/7/7 85/90/85 10/10/10
f 136/143/136 84/89/84 137/144/137
f 14/14/14 1/1/1 52/52/52
f 136/143/136 115/121/115 84/89/84
f 115/121/115 10/10/10 85/90/85
f 40/40/40 30/30/30 22/22/22
f 56/56/56 129/136/129 57/57/57
f 130/137/130 84/89/84 13/13/13
f 130/137/130 133/140/133 105/110/105
f 16/16/16 53/53/53 6/6/6
f 138/145/138 139/146/139 140/147/140
f 68/148/68 40/40/40 138/145/138
f 138/145/138 141/149/141 142/150/142
f 138/145/138 140/147/140 141/149/141
f 143/151/143 138/152/138 142/153/142
f 144/154/144 138/152/138 143/151/143
f 68/71/68 138/152/138 145/155/145
f 146/156/146 147/157/147 148/158/148
f 147/157/147 149/159/149 148/158/148
f 150/160/150 151/161/151 147/157/147
f 121/128/121 68/71/68 145/155/145
f 152/162/152 131/138/131 151/161/151
f 151/161/151 131/138/131 147/157/147
f 123/130/123 145/155/145 131/138/131
f 153/163/153 123/130/123 132/139/132
f 123/130/123 122/129/122 145/155/145
f 122/129/122 121/128/121 145/155/145
f 124/131/124 123/130/123 153/163/153
f 49/49/49 122/129/122 50/50/50
f 58/58/58 122/129/122 49/49/49
f 47/47/47 50/50/50 125/132/125
f 37/37/37 119/125/119 38/38/38
f 75/78/75 111/117/111 89/94/89
f 56/56/56 126/133/126 128/135/128
f 119/125/119 118/124/118 133/140/133
f 128/135/128 126/133/126 106/111/106
f 57/57/57 129/136/129 135/164/135
f 106/111/106 107/112/107 128/135/128
f 73/76/73 120/127/120 154/165/154
f 97/102/97 109/114/109 155/166/155
f 106/111/106 126/133/126 73/76/73
f 154/165/154 89/167/89 156/168/156
f 74/77/74 73/76/73 154/165/154
f 157/169/157 158/170/158 74/77/74
f 73/76/73 72/75/72 81/84/81
f 74/77/74 154/165/154 156/168/156
f 126/133/126 120/127/120 73/76/73
f 74/77/74 159/171/159 157/169/157
f 74/77/74 98/103/98 72/75/72
f 98/103/98 160/172/160 161/173/161
f 161/173/161 162/174/162 98/103/98
f 96/101/96 160/172/160 98/103/98
f 98/103/98 162/174/162 72/75/72
f 89/167/89 159/171/159 156/168/156
f 89/94/89 111/117/111 159/175/159
f 159/171/159 74/77/74 156/168/156
f 157/169/157 159/171/159 163/176/163
f 110/116/110 159/175/159 111/117/111
f 97/102/97 164/177/164 108/113/108
f 163/176/163 158/170/158 157/169/157
f 97/102/97 158/170/158 163/176/163
f 155/166/155 95/100/95 97/102/97
f 97/102/97 163/176/163 164/177/164
f 163/176/163 165/178/165 164/177/164
f 105/110/105 127/179/127 135/142/135
f 127/179/127 105/110/105 118/124/118
f 37/126/37 55/55/55 118/180/118
f 150/160/150 147/157/147 146/156/146
f 147/157/147 144/154/144 149/159/149
f 145/155/145 138/152/138 144/154/144
f 145/155/145 144/154/144 147/157/147
f 138/145/138 40/40/40 139/146/139
f 139/146/139 40/40/40 26/26/26
f 40/40/40 22/22/22 26/26/26
f 115/121/115 136/143/136 166/181/166
f 106/111/106 114/120/114 134/141/134
f 89/167/89 120/127/120 37/126/37
f 55/55/55 120/127/120 56/56/56
f 55/55/55 127/134/127 118/180/118
f 99/104/99 163/182/163 110/116/110
f 163/182/163 159/175/159 110/116/110
f 77/80/77 100/105/100 110/116/110
f 100/105/100 77/80/77 113/119/113
f 70/73/70 79/82/79 117/123/117
f 167/183/167 117/123/117 79/82/79
f 113/119/113 77/80/77 76/79/76
f 116/122/116 117/123/117 167/183/167
f 79/82/79 59/59/59 167/183/167
f 131/138/131 145/155/145 147/157/147
f 107/112/107 135/164/135 129/136/129
f 102/107/102 101/106/101 107/112/107
f 168/184/168 135/164/135 107/112/107
f 168/185/168 169/186/169 104/109/104
f 168/184/168 107/112/107 101/106/101
f 135/164/135 127/134/127 57/57/57
f 101/106/101 170/187/170 168/184/168
f 135/142/135 168/185/168 104/109/104
f 119/125/119 133/140/133 52/52/52
f 1/1/1 14/14/14 4/4/4
f 12/12/12 130/137/130 13/13/13
f 137/144/137 84/89/84 104/109/104
f 137/144/137 104/109/104 169/186/169
f 118/124/118 105/110/105 133/140/133
f 1/1/1 4/4/4 2/2/2
f 41/41/41 39/39/39 90/95/90
f 89/94/89 66/67/66 76/79/76
f 37/68/37 66/67/66 89/94/89
f 91/188/91 66/67/66 36/66/36
f 90/189/90 39/190/39 60/60/60
f 117/123/117 71/74/71 70/73/70
f 171/191/171 91/188/91 90/189/90
f 90/189/90 69/72/69 171/191/171
f 66/67/66 171/191/171 71/74/71
f 69/72/69 71/74/71 171/191/171
f 72/75/72 162/174/162 80/83/80
f 69/72/69 90/189/90 60/60/60
f 158/170/158 97/102/97 98/103/98
f 68/148/68 61/192/61 39/39/39
f 66/67/66 71/74/71 76/79/76
f 3/3/3 2/2/2 29/29/29
f 94/99/94 172/193/172 65/65/65
f 167/183/167 65/65/65 172/193/172
f 70/73/70 69/72/69 79/82/79
f 154/165/154 120/127/120 89/167/89
f 94/99/94 93/98/93 172/193/172
f 81/84/81 106/111/106 73/76/73
f 107/112/107 129/136/129 128/135/128
f 87/92/87 94/99/94 65/65/65
f 82/85/82 63/63/63 86/91/86
f 32/32/32 88/194/88 173/195/173
f 88/194/88 86/196/86 173/195/173
f 99/197/99 31/31/31 33/33/33
f 174/198/174 163/199/163 33/33/33
f 33/33/33 32/32/32 42/42/42
f 33/33/33 163/199/163 99/197/99
f 158/170/158 98/103/98 74/77/74
f 174/198/174 165/200/165 163/199/163
f 40/40/40 68/148/68 39/39/39
f 88/194/88 32/32/32 31/31/31
f 92/97/92 87/92/87 99/104/99
f 31/115/31 99/104/99 87/92/87
f 82/85/82 86/91/86 88/93/88
f 44/44/44 175/201/175 42/42/42
f 51/51/51 86/196/86 83/202/83
f 94/99/94 87/92/87 92/97/92
f 91/188/91 171/191/171 66/67/66
f 172/193/172 112/118/112 167/183/167
f 176/203/176 174/198/174 33/33/33
f 167/183/167 112/118/112 116/122/116
f 42/42/42 173/195/173 43/43/43
f 65/65/65 167/183/167 59/59/59
f 60/60/60 39/190/39 61/61/61
f 32/32/32 173/195/173 42/42/42
f 83/202/83 78/81/78 51/51/51
f 110/116/110 100/105/100 99/104/99
f 93/98/93 92/97/92 100/105/100
f 113/119/113 116/122/116 112/118/112
f 112/118/112 172/193/172 93/98/93
f 76/79/76 71/74/71 113/119/113
f 93/98/93 100/105/100 112/118/112
f 173/195/173 86/196/86 51/51/51
f 51/51/51 43/43/43 173/195/173
f 71/74/71 117/123/117 113/119/113
f 79/82/79 69/72/69 60/60/60
f 45/45/45 43/43/43 51/51/51
