# Blender v2.80 (sub 49) OBJ File: ''
# www.blender.org
o ZBrushPolyMesh3D.001
v -2.629528 3.401459 6.908252
v -2.371656 2.039174 6.181925
v -0.943961 0.729241 4.462030
v -3.471414 1.483153 4.478055
v -1.359500 0.578075 4.545560
v -1.265879 0.107318 4.845682
v -3.748600 2.332902 3.835679
v -0.980406 -1.078648 3.088190
v -0.829510 1.882155 4.340887
v 0.189494 -1.279720 2.435472
v -2.360914 -0.215678 1.532087
v -2.933136 0.184476 2.872740
v -2.187351 -0.921624 2.589858
v 0.309903 -0.178374 1.151036
v -0.079787 0.512076 3.078884
v -2.266929 2.395571 2.564107
v -1.458881 0.115382 0.994919
v -1.092821 -3.683912 1.420055
v 0.500541 -4.857944 0.633380
v -0.322991 -2.848118 2.350787
v 0.992149 -0.781539 1.485721
v 2.442988 -1.990897 1.637668
v -1.758152 -2.830780 1.224515
v -0.218817 -0.080580 1.049964
v -0.668046 -1.525279 1.969198
v -1.535348 -0.978473 -0.393439
v -1.732575 -3.133569 0.738867
v 0.785081 -0.168152 -0.645583
v 3.467819 -0.847341 -0.811446
v 2.580906 -0.771474 0.445450
v 1.763366 -0.464016 0.560730
v 3.347509 2.194329 0.334567
v 2.354160 2.074391 0.152921
v -0.363285 -4.931877 -0.671874
v 0.886167 -4.597549 -1.287576
v -1.153742 -0.010150 -0.237590
v -1.519501 -2.727604 -0.526204
v 4.101970 0.870047 -0.032284
v 4.323850 0.975696 -1.373059
v -1.082463 0.459618 -0.910233
v 2.527830 -3.992080 -0.480310
v 2.103467 -4.218830 0.172607
v 1.288078 0.202109 -1.414711
v -2.665426 0.659405 -1.270282
v 0.106626 0.223606 -1.835305
v -2.295666 2.061288 -1.479846
v 2.390440 -0.982437 -1.862067
v 2.705027 -2.728296 -1.209523
v -2.095558 -1.473741 -1.987060
v -0.202383 -3.283748 -2.061672
v -0.898217 2.077374 -2.397658
v -1.647316 3.210051 -2.171860
v 1.172904 -1.453237 -1.698655
v 0.868313 -1.295003 -1.651101
v -2.669377 -0.527993 -2.502966
v -3.605971 2.556601 -2.115917
v 2.875146 3.031653 -2.396698
v 1.869857 2.228579 -1.343391
v -2.967362 0.611893 -1.960822
v 3.644682 1.807196 -2.663448
v 5.527418 2.158437 -2.018682
v 5.146025 1.939459 -1.357337
v -0.506272 0.043618 -3.034163
v -2.103650 0.537976 -3.512056
v -1.487442 -0.615236 -3.395783
v 3.495621 2.556127 -2.694468
v 3.485995 2.549038 -2.705575
v 3.397169 3.394274 -2.704241
v -1.648514 2.005316 -3.858139
v -1.221618 0.270138 -3.540393
v -2.790781 1.600994 -3.997243
v -3.863551 2.467434 -4.113979
v -1.053545 2.420264 3.490409
v 1.013229 -2.520275 2.349580
v 1.243426 -3.794254 1.604902
v 4.744323 3.003271 -0.164190
v -3.593634 1.837241 -3.037893
vt 0.560334 0.482644
vt 0.579298 0.564761
vt 0.534708 0.690375
vt 0.317135 0.882272
vt 0.422219 0.836135
vt 0.422219 0.959106
vt 0.579298 0.770383
vt 0.598034 0.651924
vt 0.598034 0.792750
vt 0.620920 0.596128
vt 0.579298 0.558717
vt 0.620920 0.482644
vt 0.553306 0.690246
vt 0.577644 0.697846
vt 0.556081 0.812233
vt 0.486401 0.650941
vt 0.512716 0.852708
vt 0.869236 0.832210
vt 0.846987 0.633863
vt 0.891881 0.703056
vt 0.902162 0.640762
vt 0.428337 0.859238
vt 0.475887 0.756956
vt 0.786951 0.774996
vt 0.794425 0.619237
vt 0.745385 0.349498
vt 0.697167 0.452433
vt 0.686770 0.301601
vt 0.058449 0.627172
vt 0.045097 0.584137
vt 0.153127 0.593572
vt 0.785760 0.308853
vt 0.770043 0.180984
vt 0.913094 0.511036
vt 0.659035 0.669262
vt 0.673209 0.513540
vt 0.715441 0.702859
vt 0.317135 0.840872
vt 0.226045 0.809885
vt 0.280970 0.732758
vt 0.799204 0.336905
vt 0.704740 0.780917
vt 0.742010 0.715349
vt 0.783134 0.743859
vt 0.912007 1.000000
vt 0.786951 0.997346
vt 0.910392 0.969813
vt 0.484198 0.174037
vt 0.609825 0.267302
vt 0.529639 0.247153
vt 0.786951 0.777107
vt 0.073939 0.660336
vt 0.099291 0.827193
vt 0.050053 0.802059
vt 0.777542 0.480203
vt 0.748005 0.511036
vt 0.632615 0.718973
vt 0.854077 0.930839
vt 0.912007 0.832210
vt 0.561088 0.361119
vt 0.630135 0.379574
vt 0.238312 0.695553
vt 0.153127 0.737188
vt 0.231306 0.664796
vt 0.616643 0.087338
vt 0.579195 0.063850
vt 0.632615 0.033214
vt 0.866029 0.226797
vt 0.799204 0.105279
vt 0.899115 0.183989
vt 0.306810 0.617738
vt 0.632615 0.887612
vt 0.654362 0.781906
vt 0.684622 0.843713
vt 0.258621 0.554104
vt 0.220405 0.172257
vt 0.151014 0.130333
vt 0.245073 0.072363
vt 0.072839 0.210695
vt 0.412276 0.693972
vt 0.424664 0.836135
vt 0.362714 0.761263
vt 0.802998 0.832340
vt 0.177897 0.879787
vt 0.222890 0.840872
vt 0.222890 0.981582
vt 0.377450 0.024448
vt 0.400307 0.122289
vt 0.282435 0.168353
vt 0.153127 0.959038
vt 0.736418 0.780917
vt 0.340125 0.598611
vt 0.424664 0.637435
vt 0.317135 0.494391
vt 0.895440 0.000000
vt 0.953768 0.257758
vt 0.852333 0.079022
vt 0.289868 0.179265
vt 0.352564 0.494391
vt 0.378568 0.586828
vt 0.102039 0.294593
vt 0.000000 0.259322
vt 0.009946 0.238092
vt 0.736418 0.894233
vt 0.634628 0.930542
vt 0.953767 0.035507
vt 0.799204 0.310418
vt 0.895845 0.318995
vt 0.829917 0.373072
vt 0.335644 0.300021
vt 0.403024 0.298300
vt 0.932448 0.003237
vt 0.620920 0.523639
vt 0.621650 0.482644
vt 0.621650 0.523815
vt 0.067533 0.369450
vt 0.088167 0.330970
vt 0.903577 0.374975
vt 0.818028 0.415330
vt 0.343039 0.428516
vt 0.368979 0.336395
vt 0.398064 0.362690
vt 0.405689 0.434578
vt 0.428337 0.494391
vt 0.661210 0.086022
vt 0.775877 0.000000
vt 0.799204 0.113425
vt 0.701127 0.194891
vt 0.913094 0.817612
vt 0.445045 0.660609
vt 0.579298 0.913327
vt 0.786951 0.620182
vt 0.756540 0.511036
vt 0.046789 0.494391
vt 0.105733 0.537195
vt 0.632615 0.314745
vt 0.639809 0.393653
vt 0.008687 0.645275
vt 0.428337 0.117114
vt 0.486290 0.060859
vt 0.987445 0.354738
vt 0.909427 0.416392
vt 0.903577 0.287510
vt 0.930261 0.257758
vt 0.987445 0.263084
vt 0.117074 0.660877
vt 0.180818 0.735943
vt 0.533810 0.000000
vt 0.153127 0.775216
vt 0.000000 0.658812
vt 0.143832 0.896728
vt 0.275212 0.000000
vt 0.551980 0.482644
vt 0.632615 0.443225
vt 0.317135 0.702417
vt 0.941957 0.257734
vt 0.428337 0.014557
vt 0.208215 0.501795
vt 0.598034 0.734254
vt 0.610904 0.651924
vt 0.610904 0.737203
vt 0.428055 0.623246
vt 0.424664 0.605118
vt 0.428055 0.494391
vt 0.866970 0.497756
vt 0.411709 0.518475
vt 0.692345 0.994389
vt 0.903577 0.271131
vt 0.837192 0.257758
vt 0.631645 0.651924
vt 0.579298 0.651924
vt 0.630062 0.596128
vn 0.7210 -0.1620 0.6737
vn 0.2979 -0.4832 0.8233
vn 0.6553 -0.3120 0.6879
vn -0.8220 -0.3883 0.4166
vn 0.4685 -0.2339 0.8519
vn 0.4363 -0.2784 0.8556
vn -0.9898 -0.0251 -0.1399
vn 0.0220 -0.6098 0.7922
vn 0.9011 0.1436 0.4092
vn 0.5703 0.0650 0.8189
vn -0.7057 -0.1568 -0.6909
vn -0.8713 -0.4894 0.0367
vn -0.7539 -0.5559 0.3503
vn 0.4931 0.8643 0.0991
vn 0.9472 0.2280 0.2255
vn -0.2130 0.5604 -0.8003
vn -0.1936 0.0479 -0.9799
vn -0.5204 -0.6773 0.5201
vn 0.0500 -0.9276 0.3702
vn -0.1034 -0.4534 0.8853
vn 0.3934 0.7356 0.5515
vn 0.7264 0.0700 0.6837
vn -0.9644 -0.2027 0.1697
vn 0.0482 0.9301 -0.3641
vn -0.6493 0.2960 -0.7006
vn -0.9010 0.0603 0.4295
vn -0.9342 -0.3567 -0.0016
vn -0.2188 0.9754 0.0268
vn 0.9194 -0.3797 -0.1028
vn 0.5574 0.2389 0.7951
vn -0.0142 0.6207 0.7839
vn 0.1983 0.0207 0.9799
vn -0.5905 0.3051 0.7472
vn -0.4225 -0.8661 -0.2673
vn 0.2407 -0.7553 -0.6096
vn -0.3614 0.6941 0.6226
vn -0.9214 -0.3207 -0.2193
vn 0.7074 -0.3033 0.6385
vn 0.7835 -0.5865 -0.2055
vn 0.2277 0.7198 0.6558
vn 0.7729 -0.6153 -0.1550
vn 0.6119 -0.7424 0.2728
vn -0.8223 0.3395 -0.4568
vn -0.6671 -0.0427 0.7437
vn 0.7879 0.6003 -0.1374
vn -0.0986 0.3263 0.9401
vn 0.2930 -0.3286 -0.8979
vn 0.6422 -0.2962 -0.7070
vn -0.8357 -0.5286 -0.1486
vn -0.1632 -0.4341 -0.8860
vn 0.8883 0.4343 0.1493
vn 0.5023 0.4436 0.7422
vn -0.3206 -0.4207 -0.8486
vn 0.2959 0.0967 -0.9503
vn -0.8710 -0.4080 -0.2736
vn -0.8295 -0.1242 0.5445
vn -0.5457 0.0473 -0.8367
vn -0.9362 0.2764 -0.2171
vn -0.9226 -0.3714 0.1042
vn 0.1515 -0.2447 -0.9577
vn 0.3297 -0.7735 -0.5412
vn 0.7102 -0.7023 -0.0487
vn 0.7065 0.0074 -0.7077
vn -0.4846 -0.4477 -0.7515
vn -0.0791 -0.4246 -0.9019
vn -0.8722 -0.1922 -0.4498
vn 0.0822 -0.0390 -0.9958
vn 0.3288 0.0270 -0.9440
vn 0.4543 0.0390 -0.8900
vn 0.3143 -0.1657 -0.9347
vn -0.2784 -0.4289 -0.8594
vn -0.4378 -0.6286 -0.6428
vn 0.7382 0.6089 -0.2902
vn 0.2932 -0.1768 0.9396
vn 0.3568 -0.6003 0.7157
vn 0.6785 -0.1600 0.7170
vn -0.7840 -0.5993 -0.1615
s 1
f 1/1/1 2/2/2 3/3/3
f 2/4/2 4/5/4 5/6/5
f 5/7/5 4/8/4 6/9/6
f 7/10/7 4/11/4 2/12/2
f 5/13/5 6/14/6 8/15/8
f 3/3/3 5/13/5 8/15/8
f 9/16/9 3/3/3 10/17/10
f 3/3/3 8/15/8 10/17/10
f 7/18/7 11/19/11 12/20/12
f 11/19/11 13/21/13 12/20/12
f 10/17/10 14/22/14 15/23/15
f 16/24/16 11/19/11 7/18/7
f 11/19/11 16/24/16 17/25/17
f 18/26/18 19/27/19 20/28/20
f 21/29/21 10/30/10 22/31/22
f 23/32/23 18/26/18 13/33/13
f 11/19/11 23/34/23 13/21/13
f 17/35/17 16/36/16 24/37/24
f 23/38/23 25/39/25 26/40/26
f 23/32/23 27/41/27 18/26/18
f 28/42/28 14/43/14 21/44/21
f 23/45/23 26/46/26 27/47/27
f 22/48/22 29/49/29 30/50/30
f 28/42/28 21/44/21 31/51/31
f 31/52/31 32/53/32 33/54/33
f 34/55/34 35/56/35 19/27/19
f 36/57/36 14/43/14 28/42/28
f 26/46/26 37/58/37 27/47/27
f 27/47/27 37/58/37 34/59/34
f 38/60/38 29/49/29 39/61/39
f 36/62/36 28/63/28 40/64/40
f 41/65/41 42/66/42 35/67/35
f 28/68/28 33/69/33 43/70/43
f 40/64/40 44/71/44 36/62/36
f 40/72/40 28/73/28 45/74/45
f 44/71/44 40/64/40 46/75/46
f 47/76/47 29/77/29 48/78/48
f 47/76/47 39/79/39 29/77/29
f 49/80/49 50/81/50 37/82/37
f 34/59/34 37/58/37 50/83/50
f 51/84/51 52/85/52 40/86/40
f 48/78/48 35/87/35 50/88/50
f 48/78/48 53/89/53 47/76/47
f 45/90/45 51/84/51 40/86/40
f 45/74/45 28/73/28 54/91/54
f 49/80/49 44/92/44 55/93/55
f 46/75/46 56/94/56 44/71/44
f 43/70/43 57/95/57 53/96/53
f 58/97/58 57/95/57 43/70/43
f 50/88/50 54/98/54 48/78/48
f 44/92/44 56/99/56 59/100/59
f 60/101/60 61/102/61 62/103/62
f 63/104/63 51/105/51 45/74/45
f 57/95/57 60/106/60 53/96/53
f 59/107/59 64/108/64 55/109/55
f 63/110/63 54/98/54 65/111/65
f 66/112/66 60/106/60 57/95/57
f 67/113/67 60/114/60 66/115/66
f 68/116/68 60/101/60 67/117/67
f 55/109/55 65/118/65 49/119/49
f 69/120/69 63/110/63 70/121/70
f 70/121/70 64/122/64 71/123/71
f 71/123/71 69/120/69 70/121/70
f 69/120/69 71/123/71 72/124/72
f 9/16/9 1/1/1 3/3/3
f 2/2/2 5/13/5 3/3/3
f 6/125/6 4/126/4 12/127/12
f 6/125/6 13/33/13 8/128/8
f 13/33/13 6/125/6 12/127/12
f 9/16/9 10/17/10 15/23/15
f 7/18/7 12/20/12 4/129/4
f 73/130/73 9/16/9 15/23/15
f 20/131/20 10/17/10 8/15/8
f 15/132/15 24/37/24 73/133/73
f 16/36/16 73/133/73 24/37/24
f 8/128/8 18/26/18 20/28/20
f 10/30/10 20/134/20 74/135/74
f 10/30/10 74/135/74 22/31/22
f 13/33/13 18/26/18 8/128/8
f 74/136/74 20/28/20 75/137/75
f 14/138/14 10/30/10 21/29/21
f 22/48/22 74/139/74 75/140/75
f 75/137/75 20/28/20 19/27/19
f 15/132/15 14/43/14 24/37/24
f 25/141/25 23/142/23 11/143/11
f 17/144/17 25/141/25 11/143/11
f 75/140/75 42/66/42 22/48/22
f 21/29/21 22/31/22 31/52/31
f 17/144/17 24/145/24 25/141/25
f 31/52/31 22/31/22 30/146/30
f 22/48/22 42/66/42 41/65/41
f 25/39/25 24/147/24 36/62/36
f 36/57/36 24/37/24 14/43/14
f 26/40/26 25/39/25 36/62/36
f 42/66/42 75/140/75 19/148/19
f 32/53/32 31/52/31 30/146/30
f 22/48/22 41/65/41 29/49/29
f 32/53/32 30/146/30 38/149/38
f 19/27/19 18/26/18 34/55/34
f 31/52/31 33/54/33 28/150/28
f 32/53/32 38/149/38 76/151/76
f 30/50/30 29/49/29 38/60/38
f 35/67/35 42/66/42 19/148/19
f 27/41/27 34/55/34 18/26/18
f 48/78/48 29/77/29 41/152/41
f 76/153/76 38/60/38 62/154/62
f 26/40/26 36/62/36 44/71/44
f 62/154/62 38/60/38 39/61/39
f 58/97/58 43/70/43 33/69/33
f 26/155/26 44/92/44 49/80/49
f 49/80/49 37/82/37 26/155/26
f 35/87/35 48/78/48 41/152/41
f 28/68/28 43/70/43 54/156/54
f 35/87/35 34/157/34 50/88/50
f 40/64/40 52/158/52 46/75/46
f 54/159/54 43/160/43 53/161/53
f 54/162/54 53/163/53 48/164/48
f 47/76/47 62/103/62 39/79/39
f 44/92/44 59/100/59 55/93/55
f 47/76/47 60/101/60 62/103/62
f 65/111/65 54/98/54 50/88/50
f 60/101/60 47/76/47 53/89/53
f 54/91/54 63/104/63 45/74/45
f 68/116/68 61/102/61 60/101/60
f 49/119/49 65/118/65 50/165/50
f 56/99/56 77/166/77 59/100/59
f 64/108/64 65/118/65 55/109/55
f 65/111/65 70/121/70 63/110/63
f 69/167/69 51/105/51 63/104/63
f 59/107/59 71/168/71 64/108/64
f 64/122/64 70/121/70 65/111/65
f 77/169/77 71/168/71 59/107/59
f 77/170/77 72/171/72 71/172/71
