# Blender v2.80 (sub 45) OBJ File: 'foco.blend'
# www.blender.org
o Cylinder
v -0.000019 0.495561 -0.023183
v -0.000019 0.495542 -0.122676
v -0.191292 0.457514 -0.023176
v -0.191292 0.457496 -0.122669
v -0.353445 0.349167 -0.023156
v -0.353445 0.349148 -0.122649
v -0.461793 0.187014 -0.023126
v -0.461793 0.186995 -0.122619
v -0.499839 -0.004259 -0.023090
v -0.499839 -0.004278 -0.122583
v -0.461793 -0.195532 -0.023055
v -0.461793 -0.195551 -0.122548
v -0.353446 -0.357685 -0.023024
v -0.353446 -0.357704 -0.122517
v -0.191292 -0.466033 -0.023004
v -0.191292 -0.466051 -0.122497
v -0.000020 -0.504079 -0.022997
v -0.000020 -0.504098 -0.122490
v 0.191253 -0.466033 -0.023004
v 0.191253 -0.466051 -0.122497
v 0.353406 -0.357686 -0.023024
v 0.353406 -0.357704 -0.122517
v 0.461754 -0.195532 -0.023055
v 0.461754 -0.195551 -0.122548
v 0.499800 -0.004260 -0.023090
v 0.499800 -0.004278 -0.122583
v 0.461754 0.187013 -0.023126
v 0.461754 0.186995 -0.122619
v 0.353407 0.349167 -0.023156
v 0.353407 0.349148 -0.122649
v 0.191253 0.457514 -0.023176
v 0.191253 0.457496 -0.122669
v -0.000019 0.495561 -0.023183
v -0.191292 0.457514 -0.023176
v -0.191292 0.457496 -0.122669
v -0.000019 0.495542 -0.122676
v -0.353445 0.349167 -0.023156
v -0.353445 0.349148 -0.122649
v -0.461793 0.187014 -0.023126
v -0.461793 0.186995 -0.122619
v -0.499839 -0.004259 -0.023090
v -0.499839 -0.004278 -0.122583
v -0.461793 -0.195532 -0.023055
v -0.461793 -0.195551 -0.122548
v -0.353446 -0.357685 -0.023024
v -0.353446 -0.357704 -0.122517
v -0.191292 -0.466033 -0.023004
v -0.191292 -0.466051 -0.122497
v -0.000020 -0.504079 -0.022997
v -0.000020 -0.504098 -0.122490
v 0.191253 -0.466033 -0.023004
v 0.191253 -0.466051 -0.122497
v 0.353406 -0.357686 -0.023024
v 0.353406 -0.357704 -0.122517
v 0.461754 -0.195532 -0.023055
v 0.461754 -0.195551 -0.122548
v 0.499800 -0.004260 -0.023090
v 0.499800 -0.004278 -0.122583
v 0.461754 0.187013 -0.023126
v 0.461754 0.186995 -0.122619
v 0.353407 0.349167 -0.023156
v 0.353407 0.349148 -0.122649
v 0.191253 0.457514 -0.023176
v 0.191253 0.457496 -0.122669
v -0.000019 0.495561 -0.023183
v -0.191292 0.457514 -0.023176
v -0.191292 0.457496 -0.122669
v -0.000019 0.495542 -0.122676
v -0.353445 0.349167 -0.023156
v -0.353445 0.349148 -0.122649
v -0.461793 0.187014 -0.023126
v -0.461793 0.186995 -0.122619
v -0.499839 -0.004259 -0.023090
v -0.499839 -0.004278 -0.122583
v -0.461793 -0.195532 -0.023055
v -0.461793 -0.195551 -0.122548
v -0.353446 -0.357685 -0.023024
v -0.353446 -0.357704 -0.122517
v -0.191292 -0.466033 -0.023004
v -0.191292 -0.466051 -0.122497
v -0.000020 -0.504079 -0.022997
v -0.000020 -0.504098 -0.122490
v 0.191253 -0.466033 -0.023004
v 0.191253 -0.466051 -0.122497
v 0.353406 -0.357686 -0.023024
v 0.353406 -0.357704 -0.122517
v 0.461754 -0.195532 -0.023055
v 0.461754 -0.195551 -0.122548
v 0.499800 -0.004260 -0.023090
v 0.499800 -0.004278 -0.122583
v 0.461754 0.187013 -0.023126
v 0.461754 0.186995 -0.122619
v 0.353407 0.349167 -0.023156
v 0.353407 0.349148 -0.122649
v 0.191253 0.457514 -0.023176
v 0.191253 0.457496 -0.122669
v -0.000019 0.608585 -0.023204
v -0.234545 0.561935 -0.023195
v -0.433366 0.429087 -0.023171
v -0.566214 0.230266 -0.023134
v -0.612864 -0.004259 -0.023090
v -0.566214 -0.238785 -0.023047
v -0.433366 -0.437606 -0.023010
v -0.234545 -0.570454 -0.022985
v -0.000020 -0.617104 -0.022976
v 0.234506 -0.570454 -0.022985
v 0.433327 -0.437606 -0.023010
v 0.566175 -0.238785 -0.023047
v 0.612825 -0.004260 -0.023090
v 0.566175 0.230266 -0.023134
v 0.433327 0.429087 -0.023171
v 0.234506 0.561935 -0.023195
v -0.191292 0.457478 -0.216574
v -0.000019 0.495525 -0.216581
v 0.234506 0.561899 -0.216594
v 0.191253 0.457478 -0.216574
v -0.000019 0.608549 -0.216602
v -0.353445 0.349131 -0.216554
v -0.433366 -0.437642 -0.216408
v -0.353446 -0.357721 -0.216423
v -0.461793 0.186978 -0.216524
v -0.191292 -0.466069 -0.216402
v -0.234545 -0.570490 -0.216383
v -0.499839 -0.004295 -0.216488
v -0.461793 -0.195568 -0.216453
v -0.000020 -0.504115 -0.216395
v 0.433327 -0.437642 -0.216408
v 0.353406 -0.357722 -0.216423
v 0.191253 -0.466069 -0.216402
v 0.461754 -0.195568 -0.216453
v 0.566175 -0.238821 -0.216445
v -0.234545 0.561899 -0.216594
v -0.433366 0.429051 -0.216569
v 0.499800 -0.004295 -0.216488
v 0.461754 0.186977 -0.216524
v 0.353407 0.349131 -0.216554
v -0.566214 0.230230 -0.216532
v -0.612864 -0.004295 -0.216488
v -0.566214 -0.238821 -0.216445
v -0.000020 -0.617140 -0.216374
v 0.234506 -0.570490 -0.216383
v 0.612825 -0.004296 -0.216488
v 0.566175 0.230230 -0.216532
v 0.433327 0.429051 -0.216569
v -0.461793 0.187070 0.281300
v -0.499839 -0.004202 0.281335
v -0.461793 -0.195475 0.281371
v 0.461754 -0.195476 0.281371
v 0.499800 -0.004203 0.281335
v 0.566175 -0.238728 0.281379
v 0.461754 0.187070 0.281300
v -0.566214 0.230323 0.281292
v -0.612864 -0.004202 0.281335
v -0.566214 -0.238728 0.281379
v 0.612825 -0.004203 0.281335
v 0.566175 0.230323 0.281292
v -0.566214 0.230302 0.090484
v -0.461793 0.187050 0.169736
v -0.499839 -0.004223 0.169771
v -0.461793 -0.195496 0.169807
v -0.566214 -0.238749 0.090572
v 0.461754 0.187040 0.173588
v 0.499800 -0.004233 0.173623
v 0.566175 0.230292 0.117781
v 0.461754 -0.195506 0.173659
v 0.566175 -0.238759 0.117868
v 0.123817 -0.195475 0.281371
v 0.123817 0.187060 0.281300
v -0.075129 0.187058 0.281300
v -0.075129 -0.195475 0.281371
v 0.061785 0.111173 0.374242
v 0.061785 -0.119525 0.374285
v -0.015346 -0.119525 0.374285
v -0.015346 0.111178 0.374242
v 0.047624 0.058407 0.554535
v 0.047624 -0.066741 0.554559
v 0.005782 -0.066741 0.554559
v 0.005782 0.058410 0.554535
vt 0.000000 0.000000
vt 0.000000 0.000000
vt 0.000000 0.000000
vt 0.000000 0.000000
vt 0.000000 0.000000
vt 0.000000 0.000000
vt 0.000000 0.000000
vt 0.000000 0.000000
vt 0.000000 0.000000
vt 0.000000 0.000000
vt 0.000000 0.000000
vt 0.000000 0.000000
vt 0.000000 0.000000
vt 0.000000 0.000000
vt 0.000000 0.000000
vt 0.000000 0.000000
vt 0.000000 0.000000
vt 0.000000 0.000000
vt 0.000000 0.000000
vt 0.000000 0.000000
vt 0.000000 0.000000
vt 0.000000 0.000000
vt 0.000000 0.000000
vt 0.000000 0.000000
vt 0.000000 0.000000
vt 0.000000 0.000000
vt 0.000000 0.000000
vt 0.000000 0.000000
vt 0.000000 0.000000
vt 0.000000 0.000000
vt 0.000000 0.000000
vt 0.000000 0.000000
vt 0.000000 0.000000
vt 0.000000 0.000000
vt 0.000000 0.000000
vt 0.000000 0.000000
vt 0.678108 0.025689
vt 0.725575 0.264320
vt 0.486944 0.311786
vt 0.000000 0.000000
vt 0.000000 0.000000
vt 0.000000 0.000000
vt 0.000000 0.000000
vt 0.135174 0.413788
vt 0.337475 0.548962
vt 0.202302 0.751264
vt 0.000000 0.000000
vt 0.000000 0.000000
vt 0.000000 0.000000
vt 0.000000 0.000000
vt 0.000000 0.000000
vt 0.000000 0.000000
vt 0.000000 0.000000
vt 0.000000 0.000000
vt 0.000000 0.000000
vt 0.000000 0.000000
vt 0.000000 0.000000
vt 0.000000 0.000000
vt 0.000000 0.000000
vt 0.000000 0.000000
vt 0.000000 0.000000
vt 0.000000 0.000000
vt 0.000000 0.000000
vt 0.000000 0.000000
vt 0.000000 0.000000
vt 0.000000 0.000000
vt 0.000000 0.000000
vt 0.000000 0.000000
vt 0.000000 0.000000
vt 0.000000 0.000000
vt 0.000000 0.000000
vt 0.000000 0.000000
vt 0.000000 0.000000
vt 0.000000 0.000000
vt 0.000000 0.000000
vt 0.000000 0.000000
vt 0.000000 0.000000
vt 0.000000 0.000000
vt 0.000000 0.000000
vt 0.000000 0.000000
vt 0.000000 0.000000
vt 0.000000 0.000000
vt 0.000000 0.000000
vt 0.000000 0.000000
vt 0.000000 0.000000
vt 0.000000 0.000000
vt 0.000000 0.000000
vt 0.000000 0.000000
vt 0.000000 0.000000
vt 0.000000 0.000000
vt 0.000000 0.000000
vt 0.000000 0.000000
vt 0.000000 0.000000
vt 0.511845 0.389147
vt 0.467842 0.358717
vt 0.522918 0.347308
vt 0.339305 0.711069
vt 0.370253 0.762915
vt 0.337951 0.763029
vt 0.617009 0.532365
vt 0.594162 0.613091
vt 0.578105 0.532365
vt 0.473318 0.927729
vt 0.406749 0.849995
vt 0.473318 0.849995
vt 0.965656 0.903868
vt 0.933333 0.836740
vt 0.965656 0.836740
vt 0.038401 0.864788
vt 0.000000 0.895835
vt 0.000000 0.864788
vt 0.812509 0.410712
vt 0.853436 0.337475
vt 0.868324 0.373418
vt 0.922620 0.000004
vt 0.856050 0.061467
vt 0.856050 0.000004
vt 0.403931 0.891496
vt 0.371607 0.951928
vt 0.371607 0.891496
vt 0.775214 0.598203
vt 0.723214 0.532365
vt 0.762118 0.532365
vt 0.667399 0.654018
vt 0.630105 0.598203
vt 0.933333 0.907796
vt 0.901009 0.840780
vt 0.933333 0.840780
vt 0.723214 0.373418
vt 0.639890 0.383203
vt 0.708326 0.337475
vt 0.775214 0.466527
vt 0.784999 0.383203
vt 0.000000 0.000000
vt 0.000000 0.000000
vt 0.000000 0.000000
vt 0.000000 0.000000
vt 0.000000 0.000000
vt 0.000000 0.000000
vt 0.000000 0.000000
vt 0.000000 0.000000
vt 0.000000 0.000000
vt 0.337475 0.556533
vt 0.404584 0.477498
vt 0.404001 0.556300
vt 0.338058 0.477731
vt 0.406245 0.413788
vt 0.922620 0.061467
vt 0.856050 0.139200
vt 0.922620 0.139200
vt 0.856050 0.221371
vt 0.922620 0.221371
vt 0.856050 0.295468
vt 0.989190 0.000000
vt 0.922620 0.058200
vt 0.922620 0.000000
vt 0.989190 0.058200
vt 0.922620 0.134243
vt 0.989190 0.216550
vt 0.922620 0.216550
vt 0.989190 0.292593
vt 0.406749 0.989191
vt 0.473318 0.989191
vt 0.473318 0.767825
vt 0.406749 0.693727
vt 0.473318 0.693727
vt 0.406245 0.710722
vt 0.338058 0.638431
vt 0.404584 0.638198
vt 0.337475 0.827298
vt 0.369777 0.827184
vt 0.594162 0.451639
vt 0.630105 0.466527
vt 0.868324 0.691313
vt 0.784999 0.681528
vt 0.812509 0.654018
vt 0.739272 0.451639
vt 0.933333 0.774722
vt 0.965656 0.774722
vt 0.403931 0.824480
vt 0.371607 0.824480
vt 0.667399 0.410712
vt 0.723214 0.691313
vt 0.639890 0.681528
vt 0.739272 0.613091
vt 0.901009 0.777382
vt 0.933333 0.777382
vt 0.111312 0.349943
vt 0.031498 0.324090
vt 0.063845 0.302476
vt 0.349943 0.302476
vt 0.324090 0.382291
vt 0.302476 0.349943
vt 0.173330 0.038157
vt 0.089698 0.031498
vt 0.165740 0.000000
vt 0.302476 0.063845
vt 0.382291 0.089698
vt 0.349943 0.111312
vt 0.000000 0.248048
vt 0.038157 0.240458
vt 0.248048 0.413788
vt 0.240458 0.375632
vt 0.248048 0.000000
vt 0.240458 0.038157
vt 0.063845 0.111312
vt 0.111312 0.063845
vt 0.375632 0.240458
vt 0.382291 0.324090
vt 0.165740 0.413788
vt 0.089698 0.382291
vt 0.038157 0.173330
vt 0.031498 0.089698
vt 0.413788 0.165740
vt 0.413788 0.248048
vt 0.324090 0.031498
vt 0.173330 0.375632
vt 0.000000 0.165740
vt 0.375632 0.173330
vt 0.933333 0.968228
vt 0.901009 0.907796
vt 0.933333 0.727255
vt 0.965656 0.727255
vt 0.965656 0.965886
vt 0.933333 0.903868
vt 0.403931 0.710956
vt 0.371607 0.761083
vt 0.371607 0.710956
vt 0.337951 0.894091
vt 0.371607 0.953127
vt 0.339305 0.953240
vt 0.901009 0.727255
vt 0.933333 0.727255
vt 0.403931 0.761083
vt 0.370253 0.893978
vt 0.820283 0.766160
vt 0.901009 0.743313
vt 0.886121 0.779256
vt 0.592993 0.779256
vt 0.658831 0.727255
vt 0.658831 0.766160
vt 0.739557 0.743313
vt 0.820283 0.727255
vt 0.724669 0.779256
vt 0.739557 0.743313
vt 0.751264 0.061467
vt 0.816942 0.000000
vt 0.521823 0.849995
vt 0.578105 0.927729
vt 0.104786 0.814661
vt 0.038401 0.751264
vt 0.104786 0.751264
vt 0.104786 0.864788
vt 0.065678 0.895839
vt 0.038401 0.814661
vt 0.225161 0.864788
vt 0.292871 0.914912
vt 0.225161 0.914915
vt 0.292871 0.978309
vt 0.225161 0.978312
vt 0.578105 0.375420
vt 0.570383 0.337475
vt 0.578105 0.685943
vt 0.513328 0.569355
vt 0.104787 0.751264
vt 0.136773 0.831433
vt 0.104786 0.864785
vt 0.886118 0.895577
vt 0.754445 0.895577
vt 0.104786 0.864785
vt 0.157516 0.898357
vt 0.135451 0.897700
vt 0.592997 0.912349
vt 0.724669 0.912349
vt 0.230816 0.763372
vt 0.292871 0.812481
vt 0.230816 0.831835
vt 0.198829 0.864785
vt 0.198829 0.776170
vt 0.198829 0.813309
vt 0.473058 0.539447
vt 0.499335 0.505363
vt 0.149730 0.960208
vt 0.934162 0.681562
vt 0.868324 0.668467
vt 0.868324 0.350572
vt 0.416732 0.575359
vt 0.413788 0.561901
vt 0.439477 0.264320
vt 0.439477 0.073156
vt 0.413789 0.202302
vt 0.413788 0.135174
vt 0.486944 0.025689
vt 0.548962 0.000000
vt 0.616090 0.000000
vt 0.725575 0.073155
vt 0.751264 0.135174
vt 0.751264 0.202302
vt 0.678108 0.311786
vt 0.616090 0.337475
vt 0.548962 0.337475
vt 0.000000 0.616090
vt 0.000000 0.548962
vt 0.025689 0.486944
vt 0.073155 0.439477
vt 0.202302 0.413788
vt 0.264320 0.439477
vt 0.311786 0.486944
vt 0.337475 0.616090
vt 0.311786 0.678108
vt 0.264320 0.725575
vt 0.135174 0.751264
vt 0.073155 0.725575
vt 0.025689 0.678108
vt 0.475564 0.396662
vt 0.406749 0.927729
vt 0.403931 0.951928
vt 0.339719 0.414022
vt 0.922620 0.295468
vt 0.989190 0.134243
vt 0.922620 0.292593
vt 0.406749 0.767825
vt 0.339719 0.710956
vt 0.853436 0.727255
vt 0.708326 0.727255
vt 0.901009 0.968228
vt 0.933333 0.965886
vt 0.578105 0.743313
vt 0.754445 0.779256
vt 0.816942 0.139196
vt 0.751264 0.139200
vt 0.751264 0.000004
vt 0.521823 0.989191
vt 0.578105 0.849995
vt 0.578105 0.989191
vt 0.104786 0.895835
vt 0.292871 0.864784
vt 0.540526 0.693727
vt 0.136773 0.762971
vt 0.161700 0.866481
vt 0.292871 0.775341
vt 0.198829 0.751264
vt 0.478483 0.564256
vt 0.161700 0.960565
vt 0.934162 0.337475
vt 1.000000 0.350570
vt 1.000000 0.668465
vn 0.0000 0.0000 1.0000
vn 0.0000 -0.0002 -1.0000
vn -0.0000 0.0002 1.0000
vn -0.3828 0.9238 -0.0002
vn -0.8315 0.5556 -0.0001
vn 0.9808 0.1951 -0.0000
vn 0.5556 -0.8315 0.0002
vn 0.3827 0.9239 -0.0002
vn -0.9808 0.1951 -0.0000
vn -0.5556 -0.8315 0.0002
vn 0.8315 0.5556 -0.0001
vn -0.5556 0.8315 -0.0002
vn -0.9808 -0.1951 0.0000
vn -0.8315 -0.5556 0.0001
vn -0.1951 -0.9808 0.0002
vn 0.1951 -0.9808 0.0002
vn 0.8315 -0.5556 0.0001
vn 0.9808 -0.1951 0.0000
vn 0.5556 0.8315 -0.0002
vn 0.1951 0.9808 -0.0002
vn -0.1951 0.9808 -0.0002
vn 0.3828 0.9238 -0.0002
vn -0.3827 0.9239 -0.0002
vn 0.0000 1.0000 -0.0001
vn 0.8317 0.0001 0.5552
vn 0.0000 -0.7742 0.6329
vn -0.9932 0.0000 0.1164
vn -0.8410 0.0001 0.5410
vn 0.9969 0.0000 0.0783
vn -0.0000 0.7746 0.6325
vn -0.0000 -0.9597 0.2810
vn 0.0042 -0.0010 -1.0000
vn 0.0001 0.9597 0.2809
vn -0.3827 0.9239 -0.0003
vn 0.3827 0.9239 -0.0001
vn -0.9808 0.1951 -0.0001
vn -0.9808 -0.1951 0.0001
vn 0.3827 0.9239 -0.0003
vn -0.3827 0.9239 -0.0001
vn 0.0000 1.0000 -0.0002
vn -0.0000 1.0000 -0.0003
vn 0.0001 0.7746 0.6324
vn 0.0042 -0.0002 -1.0000
vn 0.0039 0.0006 -1.0000
s off
f 13/1/1 43/2/1 45/3/1
f 20/4/1 54/5/1 52/6/1
f 21/7/1 51/8/1 53/9/1
f 2/10/1 35/11/1 36/12/1
f 28/13/1 62/14/1 60/15/1
f 10/16/1 44/17/1 42/18/1
f 3/19/1 33/20/1 34/21/1
f 29/22/1 59/23/1 61/24/1
f 11/25/1 41/26/1 43/2/1
f 18/27/1 52/6/1 50/28/1
f 19/29/1 49/30/1 51/8/1
f 26/31/1 60/15/1 58/32/1
f 8/33/1 42/18/1 40/34/1
f 27/35/1 57/36/1 59/23/1
f 22/37/2 14/38/2 6/39/2
f 9/40/1 39/41/1 41/26/1
f 16/42/1 50/28/1 48/43/1
f 7/44/3 15/45/3 23/46/3
f 39/41/1 69/47/1 71/48/1
f 64/49/1 68/50/1 96/51/1
f 46/52/1 80/53/1 78/54/1
f 33/20/1 95/55/1 65/56/1
f 47/57/1 77/58/1 79/59/1
f 54/5/1 88/60/1 86/61/1
f 35/11/1 70/62/1 67/63/1
f 55/64/1 85/65/1 87/66/1
f 37/67/1 66/68/1 69/47/1
f 62/14/1 96/51/1 94/69/1
f 44/17/1 78/54/1 76/70/1
f 63/71/1 93/72/1 95/55/1
f 45/3/1 75/73/1 77/58/1
f 52/6/1 86/61/1 84/74/1
f 53/9/1 83/75/1 85/65/1
f 36/12/1 67/63/1 68/50/1
f 31/76/1 61/24/1 63/71/1
f 12/77/1 46/52/1 44/17/1
f 30/78/1 64/49/1 62/14/1
f 5/79/1 34/21/1 37/67/1
f 23/80/1 53/9/1 55/64/1
f 4/81/1 38/82/1 35/11/1
f 22/83/1 56/84/1 54/5/1
f 15/85/1 45/3/1 47/57/1
f 1/86/1 63/71/1 33/20/1
f 14/87/1 48/43/1 46/52/1
f 32/88/1 36/12/1 64/49/1
f 7/89/1 37/67/1 39/41/1
f 25/90/1 55/64/1 57/36/1
f 6/91/1 40/34/1 38/82/1
f 24/92/1 58/32/1 56/84/1
f 17/93/1 47/57/1 49/30/1
f 162/94/4 156/95/4 164/96/4
f 88/97/5 128/98/5 86/99/5
f 81/100/3 104/101/3 105/102/3
f 109/103/6 143/104/6 110/105/6
f 70/106/7 113/107/7 67/108/7
f 158/109/8 152/110/8 145/111/8
f 69/112/3 100/113/3 71/114/3
f 137/115/9 101/116/9 100/117/9
f 94/118/10 116/119/10 136/120/10
f 95/121/3 97/122/3 65/123/3
f 77/124/3 104/101/3 79/125/3
f 78/126/11 125/127/11 76/128/11
f 87/129/3 107/130/3 108/131/3
f 66/132/3 99/133/3 69/112/3
f 57/36/1 87/66/1 89/134/1
f 38/82/1 72/135/1 70/62/1
f 56/84/1 90/136/1 88/60/1
f 49/30/1 79/59/1 81/137/1
f 48/43/1 82/138/1 80/53/1
f 41/26/1 71/48/1 73/139/1
f 59/23/1 89/134/1 91/140/1
f 40/34/1 74/141/1 72/135/1
f 58/32/1 92/142/1 90/136/1
f 51/8/1 81/137/1 83/75/1
f 50/28/1 84/74/1 82/138/1
f 43/2/1 73/139/1 75/73/1
f 61/24/1 91/140/1 93/72/1
f 34/21/1 65/56/1 66/68/1
f 42/18/1 76/70/1 74/141/1
f 60/15/1 94/69/1 92/142/1
f 132/143/12 99/144/12 98/145/12
f 133/146/5 100/147/5 99/144/5
f 138/148/13 102/149/13 101/116/13
f 139/150/14 103/151/14 102/149/14
f 119/152/10 104/153/10 103/151/10
f 123/154/15 105/155/15 104/156/15
f 140/157/16 106/158/16 105/155/16
f 106/158/7 127/159/7 107/160/7
f 131/161/17 107/160/17 127/159/17
f 131/162/18 109/103/18 108/163/18
f 143/104/11 111/164/11 110/105/11
f 111/164/19 115/165/19 112/166/19
f 112/167/20 117/168/20 97/169/20
f 84/170/12 128/98/12 129/171/12
f 81/100/3 106/172/3 83/173/3
f 91/174/3 111/175/3 93/176/3
f 66/132/3 97/122/3 98/177/3
f 67/108/16 114/178/16 68/179/16
f 92/180/14 136/120/14 135/181/14
f 85/182/3 106/172/3 107/130/3
f 75/183/3 103/184/3 77/124/3
f 93/176/3 112/185/3 95/121/3
f 76/128/6 124/186/6 74/187/6
f 126/188/2 123/189/2 122/190/2
f 134/191/2 131/192/2 130/193/2
f 118/194/2 137/195/2 133/196/2
f 114/197/2 115/198/2 116/199/2
f 122/190/2 119/200/2 120/201/2
f 130/193/2 127/202/2 128/203/2
f 118/194/2 132/204/2 113/205/2
f 124/206/2 137/195/2 121/207/2
f 135/208/2 142/209/2 134/191/2
f 126/188/2 141/210/2 140/211/2
f 125/212/2 138/213/2 124/206/2
f 135/208/2 144/214/2 143/215/2
f 113/205/2 117/216/2 114/197/2
f 128/203/2 141/210/2 129/217/2
f 120/201/2 139/218/2 125/212/2
f 136/219/2 115/198/2 144/214/2
f 80/220/19 120/221/19 78/126/19
f 68/179/15 116/222/15 96/223/15
f 72/224/17 118/225/17 70/106/17
f 88/226/9 134/227/9 130/228/9
f 82/229/20 122/230/20 80/231/20
f 74/187/18 121/232/18 72/233/18
f 92/180/13 134/227/13 90/234/13
f 82/229/21 129/171/21 126/235/21
f 149/236/3 156/237/3 151/238/3
f 145/239/3 153/240/3 146/241/3
f 149/236/3 150/242/3 155/243/3
f 147/244/3 153/240/3 154/245/3
f 153/246/9 157/247/9 101/116/9
f 164/248/6 155/249/6 109/103/6
f 73/250/6 160/251/6 75/252/6
f 71/253/22 157/254/22 158/109/22
f 71/253/18 159/255/18 73/250/18
f 87/256/9 163/257/9 89/258/9
f 89/258/13 162/259/13 91/260/13
f 91/261/23 164/96/23 110/262/23
f 162/94/24 158/263/24 169/264/24
f 168/265/25 172/266/25 167/267/25
f 149/236/3 168/268/3 167/269/3
f 170/270/26 172/271/26 173/272/26
f 117/168/21 98/145/21 97/169/21
f 169/273/3 146/241/3 170/274/3
f 173/275/27 178/276/27 174/277/27
f 169/278/28 173/275/28 174/277/28
f 172/266/29 175/279/29 176/280/29
f 169/264/30 171/281/30 168/282/30
f 172/271/31 177/283/31 173/272/31
f 159/284/32 158/285/32 162/286/32
f 171/281/33 178/287/33 175/288/33
f 13/1/1 11/25/1 43/2/1
f 20/4/1 22/83/1 54/5/1
f 21/7/1 19/29/1 51/8/1
f 2/10/1 4/81/1 35/11/1
f 28/13/1 30/78/1 62/14/1
f 10/16/1 12/77/1 44/17/1
f 3/19/1 1/86/1 33/20/1
f 29/22/1 27/35/1 59/23/1
f 11/25/1 9/40/1 41/26/1
f 18/27/1 20/4/1 52/6/1
f 19/29/1 17/93/1 49/30/1
f 26/31/1 28/13/1 60/15/1
f 8/33/1 10/16/1 42/18/1
f 27/35/1 25/90/1 57/36/1
f 6/39/2 4/289/2 30/290/2
f 4/289/2 2/291/2 30/290/2
f 2/291/2 32/292/2 30/290/2
f 30/290/2 28/293/2 26/294/2
f 26/294/2 24/295/2 30/290/2
f 24/295/2 22/37/2 30/290/2
f 22/37/2 20/296/2 18/297/2
f 18/297/2 16/298/2 22/37/2
f 16/298/2 14/38/2 22/37/2
f 14/38/2 12/299/2 10/300/2
f 10/300/2 8/301/2 6/39/2
f 14/38/2 10/300/2 6/39/2
f 6/39/2 30/290/2 22/37/2
f 9/40/1 7/89/1 39/41/1
f 16/42/1 18/27/1 50/28/1
f 31/302/3 1/303/3 3/304/3
f 3/304/3 5/305/3 7/44/3
f 7/44/3 9/306/3 15/45/3
f 9/306/3 11/307/3 15/45/3
f 11/307/3 13/308/3 15/45/3
f 15/45/3 17/309/3 19/310/3
f 19/310/3 21/311/3 23/46/3
f 23/46/3 25/312/3 27/313/3
f 27/313/3 29/314/3 31/302/3
f 31/302/3 3/304/3 7/44/3
f 15/45/3 19/310/3 23/46/3
f 23/46/3 27/313/3 31/302/3
f 31/302/3 7/44/3 23/46/3
f 39/41/1 37/67/1 69/47/1
f 64/49/1 36/12/1 68/50/1
f 46/52/1 48/43/1 80/53/1
f 33/20/1 63/71/1 95/55/1
f 47/57/1 45/3/1 77/58/1
f 54/5/1 56/84/1 88/60/1
f 35/11/1 38/82/1 70/62/1
f 55/64/1 53/9/1 85/65/1
f 37/67/1 34/21/1 66/68/1
f 62/14/1 64/49/1 96/51/1
f 44/17/1 46/52/1 78/54/1
f 63/71/1 61/24/1 93/72/1
f 45/3/1 43/2/1 75/73/1
f 52/6/1 54/5/1 86/61/1
f 53/9/1 51/8/1 83/75/1
f 36/12/1 35/11/1 67/63/1
f 31/76/1 29/22/1 61/24/1
f 12/77/1 14/87/1 46/52/1
f 30/78/1 32/88/1 64/49/1
f 5/79/1 3/19/1 34/21/1
f 23/80/1 21/7/1 53/9/1
f 4/81/1 6/91/1 38/82/1
f 22/83/1 24/92/1 56/84/1
f 15/85/1 13/1/1 45/3/1
f 1/86/1 31/76/1 63/71/1
f 14/87/1 16/42/1 48/43/1
f 32/88/1 2/10/1 36/12/1
f 7/89/1 5/79/1 37/67/1
f 25/90/1 23/80/1 55/64/1
f 6/91/1 8/33/1 40/34/1
f 24/92/1 26/31/1 58/32/1
f 17/93/1 15/85/1 47/57/1
f 162/94/34 151/315/34 156/95/34
f 88/97/5 130/228/5 128/98/5
f 81/100/3 79/125/3 104/101/3
f 109/103/6 142/316/6 143/104/6
f 70/106/7 118/225/7 113/107/7
f 158/109/35 157/254/35 152/110/35
f 69/112/3 99/133/3 100/113/3
f 137/115/9 138/148/9 101/116/9
f 94/118/10 96/317/10 116/119/10
f 95/121/3 112/185/3 97/122/3
f 77/124/3 103/184/3 104/101/3
f 78/126/11 120/221/11 125/127/11
f 87/129/3 85/182/3 107/130/3
f 66/132/3 98/177/3 99/133/3
f 57/36/1 55/64/1 87/66/1
f 38/82/1 40/34/1 72/135/1
f 56/84/1 58/32/1 90/136/1
f 49/30/1 47/57/1 79/59/1
f 48/43/1 50/28/1 82/138/1
f 41/26/1 39/41/1 71/48/1
f 59/23/1 57/36/1 89/134/1
f 40/34/1 42/18/1 74/141/1
f 58/32/1 60/15/1 92/142/1
f 51/8/1 49/30/1 81/137/1
f 50/28/1 52/6/1 84/74/1
f 43/2/1 41/26/1 73/139/1
f 61/24/1 59/23/1 91/140/1
f 34/21/1 33/20/1 65/56/1
f 42/18/1 44/17/1 76/70/1
f 60/15/1 62/14/1 94/69/1
f 132/143/12 133/146/12 99/144/12
f 133/146/5 137/318/5 100/147/5
f 138/148/13 139/150/13 102/149/13
f 139/150/14 119/152/14 103/151/14
f 119/152/10 123/319/10 104/153/10
f 123/154/15 140/157/15 105/155/15
f 140/157/16 141/320/16 106/158/16
f 106/158/7 141/320/7 127/159/7
f 131/161/17 108/321/17 107/160/17
f 131/162/18 142/316/18 109/103/18
f 143/104/11 144/322/11 111/164/11
f 111/164/19 144/322/19 115/165/19
f 112/167/20 115/323/20 117/168/20
f 84/170/12 86/99/12 128/98/12
f 81/100/3 105/102/3 106/172/3
f 91/174/3 110/324/3 111/175/3
f 66/132/3 65/123/3 97/122/3
f 67/108/16 113/107/16 114/178/16
f 92/180/14 94/118/14 136/120/14
f 85/182/3 83/173/3 106/172/3
f 75/183/3 102/325/3 103/184/3
f 93/176/3 111/175/3 112/185/3
f 76/128/6 125/127/6 124/186/6
f 126/188/2 140/211/2 123/189/2
f 134/191/2 142/209/2 131/192/2
f 118/194/2 121/207/2 137/195/2
f 114/197/2 117/216/2 115/198/2
f 122/190/2 123/189/2 119/200/2
f 130/193/2 131/192/2 127/202/2
f 118/194/2 133/196/2 132/204/2
f 124/206/2 138/213/2 137/195/2
f 135/208/2 143/215/2 142/209/2
f 126/188/2 129/217/2 141/210/2
f 125/212/2 139/218/2 138/213/2
f 135/208/2 136/219/2 144/214/2
f 113/205/2 132/204/2 117/216/2
f 128/203/2 127/202/2 141/210/2
f 120/201/2 119/200/2 139/218/2
f 136/219/2 116/199/2 115/198/2
f 80/220/19 122/326/19 120/221/19
f 68/179/15 114/178/15 116/222/15
f 72/224/17 121/327/17 118/225/17
f 88/226/9 90/234/9 134/227/9
f 82/229/20 126/235/20 122/230/20
f 74/187/18 124/186/18 121/232/18
f 92/180/13 135/181/13 134/227/13
f 82/229/21 84/170/21 129/171/21
f 149/236/3 155/243/3 156/237/3
f 145/239/3 152/328/3 153/240/3
f 149/236/3 148/329/3 150/242/3
f 147/244/3 146/241/3 153/240/3
f 100/117/36 101/116/36 157/247/36
f 101/116/37 102/149/37 161/330/37
f 161/330/13 154/331/13 153/246/13
f 101/116/13 161/330/13 153/246/13
f 152/332/9 157/247/9 153/246/9
f 108/163/18 109/103/18 166/333/18
f 109/103/6 110/105/6 164/248/6
f 166/333/18 109/103/18 155/249/18
f 164/248/6 156/334/6 155/249/6
f 155/249/18 150/335/18 166/333/18
f 73/250/6 159/255/6 160/251/6
f 71/253/38 100/336/38 157/254/38
f 71/253/18 158/109/18 159/255/18
f 87/256/9 165/337/9 163/257/9
f 89/258/13 163/257/13 162/259/13
f 91/261/39 162/94/39 164/96/39
f 145/338/40 169/264/40 158/263/40
f 169/264/40 168/282/40 162/94/40
f 168/282/41 151/315/41 162/94/41
f 168/265/25 171/339/25 172/266/25
f 167/269/3 148/329/3 149/236/3
f 149/236/3 151/238/3 168/268/3
f 170/270/26 167/340/26 172/271/26
f 117/168/21 132/143/21 98/145/21
f 145/239/3 146/241/3 169/273/3
f 146/241/3 147/244/3 170/274/3
f 173/275/27 177/341/27 178/276/27
f 169/278/28 170/342/28 173/275/28
f 172/266/29 171/339/29 175/279/29
f 169/264/42 174/343/42 171/281/42
f 172/271/31 176/344/31 177/283/31
f 162/286/2 163/345/2 165/346/2
f 165/346/43 160/347/43 162/286/43
f 160/347/44 159/284/44 162/286/44
f 171/281/33 174/343/33 178/287/33
