# Blender v2.79 (sub 6) OBJ File: 'MAPA_NUEVO.blend'
# www.blender.org
o ------------------------SUELOCONBRECHA------------------------_Plane.010
v -102.914139 41.323929 136.974335
v -50.109295 41.323929 50.063644
v -3.307013 48.473316 48.162766
v 0.841522 41.323929 14.233437
v 57.261597 41.323929 24.418604
v 50.795822 41.323929 -37.480389
v 104.020317 41.323929 -36.141800
v 154.655228 41.323929 -129.994247
v 137.385483 41.323929 -11.611449
v 86.980057 49.489506 6.437808
v 106.382278 41.323929 66.886276
v 39.558556 40.783260 73.534805
v 40.276134 41.323929 110.004623
v 5.778374 45.558731 99.057556
v -14.698162 47.786373 100.862694
v -60.705109 41.323929 126.497032
v 134.179138 -12.837100 -13.027591
v 151.687866 3.071050 -120.085434
v 124.126205 -49.489506 -20.732334
v 137.385483 20.286512 -11.611449
v 154.655228 23.815292 -129.994247
v 78.159561 -12.837104 -4.327413
v 114.073257 -12.837104 -28.437071
v 86.980057 23.815296 6.437808
v 69.339058 -49.489506 -15.092629
v 63.277225 -11.693595 -23.129080
v 104.020317 23.815294 -36.141800
v 79.527893 23.815296 50.779758
v 69.854576 -12.837100 39.200527
v 54.416023 -14.624171 21.651171
v 50.795822 28.153580 -37.480389
v 65.832489 -49.489506 34.794003
v 57.261597 27.734600 24.418604
v 20.144951 26.513695 64.085861
v 19.320839 -12.837104 38.886940
v 7.001293 -12.837104 22.451271
v 0.841522 23.815294 14.233437
v 3.214885 17.648800 90.487633
v 13.161060 -49.489506 30.669104
v -45.779495 33.750702 110.893677
v -3.307013 19.239239 48.162766
v -1.953409 -12.837104 73.917831
v -3.344940 -12.837104 56.230869
v -50.109295 23.815294 50.063644
v -2.649171 -49.489506 65.074348
v -102.914139 23.815294 136.974335
v -44.842010 -12.837104 89.844391
v -55.965927 -15.882433 45.417427
v -46.597786 -49.489506 66.963638
v -100.462830 6.715423 133.926941
v -29.500668 44.498814 117.630127
v -32.348080 41.323929 23.440939
v 135.824219 41.323929 17.676424
v 71.623352 41.323933 104.160461
v 193.746170 41.323929 67.472740
v 193.746155 41.323929 152.197830
v -193.746170 41.323929 152.197861
v -107.441849 41.323929 152.197891
v 193.746140 41.323929 -152.188751
v -193.746170 41.323929 -152.197891
v 320.632172 41.323929 251.873489
v -320.632172 41.323929 251.873535
v -177.806427 41.323929 251.873596
v -320.632172 41.323929 -251.873596
vt 0.820299 0.214738
vt 0.842257 0.377592
vt 0.762292 0.223122
vt 0.870210 0.213597
vt 0.845405 0.407998
vt 0.819629 0.556133
vt 0.762292 0.561039
vt 0.901113 0.213597
vt 0.873083 0.393062
vt 0.985824 0.498738
vt 0.903288 0.455523
vt 0.988232 0.445900
vt 0.908532 0.401802
vt 0.990640 0.393062
vt 0.925250 0.774366
vt 0.847165 0.732565
vt 0.928121 0.716252
vt 0.909230 0.535658
vt 0.990640 0.536676
vt 0.876966 0.551227
vt 0.876966 0.393062
vt 0.903288 0.551719
vt 0.903288 0.393555
vt 0.838654 0.766763
vt 0.775829 0.813947
vt 0.771712 0.754669
vt 0.978249 0.654503
vt 0.914442 0.702197
vt 0.910424 0.643871
vt 0.845130 0.729898
vt 0.762292 0.716252
vt 0.922380 0.832480
vt 0.850568 0.791131
vt 0.928121 0.857866
vt 0.845130 0.856161
vt 0.771547 0.869209
vt 0.841892 0.825522
vt 0.845130 0.884281
vt 0.985586 0.592309
vt 0.270226 0.422096
vt 0.303914 0.361490
vt 0.283841 0.450763
vt 0.987141 0.572093
vt 0.900925 0.580632
vt 0.902433 0.561039
vt 0.852668 0.929224
vt 0.937341 0.981562
vt 0.845130 0.981562
vt 0.976458 0.269686
vt 0.909506 0.221812
vt 0.988991 0.213597
vt 0.243459 0.475886
vt 0.215064 0.421037
vt 0.903666 0.361506
vt 0.987009 0.331316
vt 0.988991 0.351414
vt 0.926849 0.928216
vt 0.854441 0.875522
vt 0.930413 0.875257
vt 0.905309 0.278712
vt 0.901113 0.335612
vt 0.903580 0.166349
vt 0.863698 0.170811
vt 0.875925 0.089780
vt 0.952573 1.000000
vt 0.994074 0.946061
vt 1.000000 0.998419
vt 0.933110 0.717569
vt 0.977579 0.759314
vt 0.928931 0.743359
vt 0.937341 0.931698
vt 1.000000 0.890577
vt 0.928526 0.800190
vt 0.903580 0.135587
vt 0.811687 0.107054
vt 0.913760 0.138778
vt 0.984056 0.105859
vt 0.984610 0.149297
vt 0.928121 0.857021
vt 0.981260 0.808836
vt 0.984558 0.865378
vt 0.203598 0.525935
vt 0.229140 0.503817
vt 0.213276 0.550015
vt 0.900925 0.716252
vt 0.874606 0.566195
vt 0.900925 0.566849
vt 0.762292 0.944956
vt 0.786700 0.884281
vt 0.786700 0.954624
vt 0.822511 0.007838
vt 0.846900 0.000000
vt 0.983801 0.056419
vt 0.913428 0.112762
vt 0.903580 0.054869
vt 0.762292 0.119134
vt 0.821508 0.174652
vt 0.768940 0.183585
vt 0.918212 0.000075
vt 0.848810 0.709423
vt 0.874606 0.715598
vt 0.816271 0.561039
vt 0.762292 0.585663
vt 0.223940 0.373960
vt 0.231790 0.472990
vt 0.190000 0.572689
vt 0.359947 0.480259
vt 0.345979 0.530103
vt 0.308932 0.486734
vt 0.305674 0.556777
vt 0.280382 0.321759
vt 0.354880 0.277543
vt 0.372214 0.351176
vt 0.399201 0.275198
vt 0.438256 0.405238
vt 0.151377 0.190556
vt 0.000151 0.748551
vt 0.000678 0.000000
vt 0.150968 0.772490
vt 0.151059 0.642878
vt 0.611593 0.772489
vt 0.000000 0.963046
vt 0.898802 0.393062
vt 0.905284 0.504572
vt 0.987141 0.709996
vt 0.849449 0.875257
vt 0.899551 0.213597
vt 0.984558 0.716252
vt 0.946311 0.875257
vt 0.173287 0.635480
vt 0.984610 0.000000
vt 0.174101 0.636079
vt 0.279587 0.190556
vt 0.611989 0.190556
vt 0.436286 0.325306
vt 0.578362 0.249263
vt 0.344594 0.395528
vt 0.762292 0.963046
vn -0.9518 0.2849 -0.1133
vn -0.9841 0.1015 -0.1459
vn 0.8556 0.3202 0.4067
vn -0.9895 0.0000 -0.1444
vn -0.1459 0.3109 -0.9392
vn -0.0976 0.3020 -0.9483
vn 0.0996 0.2308 0.9679
vn -0.3371 0.0000 -0.9415
vn 0.8756 0.1004 0.4724
vn 0.8801 0.0000 0.4748
vn -0.9412 0.2984 -0.1582
vn 0.9592 0.1969 0.2027
vn -0.6409 0.7061 0.3011
vn 0.1063 0.2324 0.9668
vn -0.0251 0.0000 0.9997
vn -0.9653 0.2522 -0.0679
vn 0.9789 -0.0781 0.1886
vn -0.1339 0.6673 -0.7327
vn 0.9946 0.0000 -0.1039
vn -0.1907 0.3411 -0.9205
vn -0.0737 0.3306 0.9409
vn -0.5376 0.8432 -0.0019
vn -0.1777 0.0000 0.9841
vn 0.0764 0.2059 -0.9756
vn -0.1870 0.1849 0.9648
vn -0.2789 0.3052 -0.9105
vn -0.8345 0.3656 -0.4123
vn 0.9926 0.0000 0.1214
vn -0.8463 0.1401 -0.5140
vn 0.9699 0.1955 0.1450
vn -0.1224 -0.3832 -0.9155
vn -0.2392 0.3958 -0.8866
vn 0.0406 0.0000 0.9992
vn 0.9024 0.1172 0.4147
vn -0.4631 0.8528 -0.2416
vn 0.8546 0.0000 0.5192
vn -0.2409 0.0000 -0.9705
vn -0.4274 0.0989 -0.8986
vn -0.1958 -0.0855 0.9769
vn -0.0417 0.2351 -0.9711
vn -0.2027 0.4878 0.8491
vn 0.8542 0.0300 0.5190
vn -0.4271 0.4935 -0.7577
vn 0.8438 0.4359 0.3130
vn -0.0028 0.9999 -0.0148
vn 0.1292 0.9453 0.2994
vn 0.1046 0.7607 0.6406
vn -0.0590 0.9753 -0.2127
vn -0.1543 0.9826 -0.1029
vn 0.1448 0.9857 0.0867
vn 0.1629 0.9866 0.0087
vn -0.0089 0.9999 -0.0083
vn 0.0000 1.0000 0.0000
vn -0.9872 0.0735 -0.1418
vn -0.3317 0.0723 -0.9406
vn -0.1489 0.2424 -0.9587
vn 0.1063 0.2231 0.9690
vn -0.9430 0.2798 -0.1799
vn 0.9406 0.3329 0.0661
vn -0.9862 0.0000 -0.1657
vn 0.0041 0.3400 0.9404
vn -0.9740 0.1292 -0.1858
vn 0.9592 0.2650 -0.0984
vn -0.0732 0.7337 -0.6756
vn 0.0052 0.5392 -0.8422
vn 0.0248 0.2227 0.9746
vn -0.5629 0.8221 -0.0849
vn 0.0062 0.1187 -0.9929
vn 0.0143 -0.0661 0.9977
vn 0.3206 0.2510 -0.9133
vn -0.8067 0.3306 -0.4899
vn -0.8823 0.2392 -0.4054
vn 0.9537 0.0723 0.2921
vn -0.3026 0.4942 -0.8149
vn 0.9326 0.2208 0.2856
vn -0.4172 0.5943 -0.6875
vn -0.2489 0.7562 -0.6051
vn -0.5046 0.3470 -0.7906
vn 0.0631 0.2434 0.9679
vn -0.2983 0.5157 -0.8032
vn 0.0417 0.2351 0.9711
vn 0.8589 -0.1827 0.4784
vn 0.0641 0.9820 0.1778
s off
f 17/1/1 18/2/1 19/3/1
f 20/4/2 18/2/2 17/1/2
f 18/5/3 23/6/3 19/7/3
f 9/8/4 21/9/4 20/4/4
f 24/10/5 17/11/5 22/12/5
f 22/12/6 19/13/6 25/14/6
f 23/15/7 25/16/7 19/17/7
f 9/18/8 24/10/8 10/19/8
f 27/20/9 18/5/9 21/21/9
f 7/22/10 21/21/10 8/23/10
f 24/24/11 29/25/11 28/26/11
f 30/27/12 25/28/12 26/29/12
f 10/30/13 28/26/13 11/31/13
f 27/32/14 26/33/14 23/15/14
f 7/34/15 31/35/15 27/32/15
f 32/36/16 22/37/16 25/38/16
f 26/29/17 33/39/17 30/27/17
f 12/40/18 28/41/18 34/42/18
f 5/43/19 31/44/19 6/45/19
f 29/46/20 34/47/20 28/48/20
f 30/49/21 39/50/21 32/51/21
f 12/40/22 38/52/22 13/53/22
f 4/54/23 33/55/23 5/56/23
f 35/57/24 32/58/24 39/59/24
f 36/60/25 33/55/25 37/61/25
f 14/62/26 38/63/26 40/64/26
f 34/65/27 42/66/27 38/67/27
f 4/68/28 41/69/28 37/70/28
f 35/71/29 45/72/29 42/66/29
f 41/69/30 36/73/30 37/70/30
f 15/74/31 14/62/31 40/64/31
f 38/63/32 47/75/32 40/64/32
f 2/76/33 41/77/33 3/78/33
f 39/79/34 43/80/34 45/81/34
f 51/82/35 15/83/35 40/84/35
f 1/85/36 44/86/36 2/87/36
f 1/88/37 16/89/37 46/90/37
f 40/64/38 50/91/38 46/92/38
f 43/93/39 44/94/39 48/95/39
f 49/96/40 42/97/40 45/98/40
f 49/99/41 43/93/41 48/95/41
f 50/100/42 44/86/42 46/101/42
f 49/96/43 50/91/43 47/75/43
f 48/102/44 50/100/44 49/103/44
f 13/53/45 54/104/45 12/40/45
f 51/82/46 14/105/46 15/83/46
f 13/53/47 51/82/47 16/106/47
f 4/107/48 52/108/48 3/109/48
f 3/109/49 52/108/49 2/110/49
f 11/111/50 53/112/50 10/113/50
f 10/113/51 53/112/51 9/114/51
f 12/40/52 54/104/52 11/111/52
f 52/108/53 4/107/53 6/115/53
f 56/116/53 11/111/53 54/104/53
f 56/116/53 63/117/53 61/118/53
f 57/119/53 63/117/53 58/120/53
f 60/121/53 62/122/53 57/119/53
f 20/4/54 21/9/54 18/2/54
f 9/8/4 8/123/4 21/9/4
f 24/10/55 20/124/55 17/11/55
f 22/12/56 17/11/56 19/13/56
f 23/15/57 26/33/57 25/16/57
f 9/18/8 20/124/8 24/10/8
f 27/20/3 23/6/3 18/5/3
f 7/22/10 27/20/10 21/21/10
f 24/24/58 22/37/58 29/25/58
f 30/27/59 32/125/59 25/28/59
f 10/30/60 24/24/60 28/26/60
f 27/32/61 31/35/61 26/33/61
f 7/34/15 6/126/15 31/35/15
f 32/36/62 29/25/62 22/37/62
f 26/29/63 31/44/63 33/39/63
f 12/40/64 11/111/64 28/41/64
f 5/43/19 33/39/19 31/44/19
f 29/46/65 35/57/65 34/47/65
f 30/49/66 36/60/66 39/50/66
f 12/40/67 34/42/67 38/52/67
f 4/54/23 37/61/23 33/55/23
f 35/57/68 29/46/68 32/58/68
f 36/60/69 30/49/69 33/55/69
f 14/62/70 13/127/70 38/63/70
f 34/65/71 35/71/71 42/66/71
f 4/68/28 3/128/28 41/69/28
f 35/71/72 39/129/72 45/72/72
f 41/69/73 43/80/73 36/73/73
f 38/63/74 42/97/74 47/75/74
f 2/76/33 44/94/33 41/77/33
f 39/79/75 36/73/75 43/80/75
f 46/130/76 16/106/76 40/84/76
f 16/106/77 51/82/77 40/84/77
f 1/85/36 46/101/36 44/86/36
f 40/64/78 47/75/78 50/91/78
f 43/93/79 41/77/79 44/94/79
f 49/96/80 47/75/80 42/97/80
f 49/99/81 45/131/81 43/93/81
f 50/100/82 48/102/82 44/86/82
f 13/53/83 14/105/83 51/82/83
f 60/121/53 57/119/53 2/110/53
f 57/119/53 58/120/53 1/132/53
f 57/119/53 1/132/53 2/110/53
f 9/114/53 55/133/53 59/134/53
f 6/115/53 7/135/53 8/136/53
f 8/136/53 9/114/53 59/134/53
f 60/121/53 2/110/53 52/108/53
f 8/136/53 59/134/53 60/121/53
f 4/107/53 5/137/53 6/115/53
f 6/115/53 8/136/53 60/121/53
f 60/121/53 52/108/53 6/115/53
f 1/132/53 58/120/53 16/106/53
f 58/120/53 56/116/53 13/53/53
f 16/106/53 58/120/53 13/53/53
f 56/116/53 55/133/53 11/111/53
f 55/133/53 9/114/53 53/112/53
f 55/133/53 53/112/53 11/111/53
f 54/104/53 13/53/53 56/116/53
f 56/116/53 58/120/53 63/117/53
f 57/119/53 62/122/53 63/117/53
f 60/121/53 64/138/53 62/122/53
