# Blender v2.80 (sub 42) OBJ File: 'foco.blend'
# www.blender.org
o Cylinder
v -0.000683 0.492649 -0.119689
v -0.500503 -0.007152 -0.020103
v -0.462457 -0.198425 -0.020068
v -0.462457 -0.198444 -0.119561
v -0.354109 -0.360578 -0.020037
v -0.191956 -0.468926 -0.020017
v -0.191956 -0.468944 -0.119510
v 0.190589 -0.468926 -0.020017
v 0.352743 -0.360579 -0.020037
v 0.461090 -0.198444 -0.119561
v 0.352743 0.346274 -0.020169
v -0.191956 0.454621 -0.020189
v -0.191956 0.454603 -0.119682
v -0.354109 0.346274 -0.020169
v -0.354109 0.346255 -0.119662
v -0.462456 0.184121 -0.020139
v -0.462456 0.184102 -0.119632
v -0.354109 -0.360597 -0.119530
v -0.000683 -0.506991 -0.119503
v 0.352743 -0.360597 -0.119530
v 0.461090 -0.198425 -0.020068
v 0.461090 0.184120 -0.020139
v 0.461090 0.184102 -0.119632
v 0.190590 0.454603 -0.119682
v -0.000683 0.492667 -0.020196
v -0.500503 -0.007171 -0.119596
v -0.000683 -0.506972 -0.020010
v 0.190589 -0.468944 -0.119510
v 0.499137 -0.007153 -0.020103
v 0.499137 -0.007171 -0.119596
v 0.352743 0.346255 -0.119662
v 0.190590 0.454621 -0.020189
v -0.000683 0.605692 -0.020217
v -0.235208 0.559042 -0.020208
v -0.434029 0.426194 -0.020184
v -0.566877 0.227373 -0.020147
v -0.613527 -0.007152 -0.020103
v -0.566877 -0.241678 -0.020060
v -0.434030 -0.440499 -0.020023
v -0.235209 -0.573347 -0.019998
v -0.000683 -0.619997 -0.019989
v 0.233842 -0.573347 -0.019998
v 0.432663 -0.440499 -0.020023
v 0.565511 -0.241678 -0.020060
v 0.612161 -0.007153 -0.020103
v 0.565511 0.227373 -0.020147
v 0.432663 0.426194 -0.020184
v 0.233842 0.559042 -0.020208
v -0.191956 0.454585 -0.213587
v -0.000683 0.492631 -0.213594
v 0.233842 0.559006 -0.213607
v 0.190590 0.454585 -0.213587
v -0.000683 0.605656 -0.213615
v -0.354109 0.346238 -0.213567
v -0.434030 -0.440535 -0.213421
v -0.354109 -0.360614 -0.213436
v -0.462456 0.184085 -0.213537
v -0.191956 -0.468962 -0.213415
v -0.235209 -0.573383 -0.213396
v -0.500503 -0.007188 -0.213501
v -0.462457 -0.198461 -0.213466
v -0.000683 -0.507008 -0.213408
v 0.432663 -0.440535 -0.213421
v 0.352743 -0.360615 -0.213436
v 0.190589 -0.468962 -0.213415
v 0.461090 -0.198461 -0.213466
v 0.565511 -0.241714 -0.213458
v -0.235208 0.559006 -0.213607
v -0.434029 0.426158 -0.213582
v 0.499137 -0.007189 -0.213501
v 0.461090 0.184084 -0.213537
v 0.352743 0.346238 -0.213567
v -0.566877 0.227337 -0.213545
v -0.613527 -0.007188 -0.213501
v -0.566877 -0.241714 -0.213458
v -0.000683 -0.620033 -0.213387
v 0.233842 -0.573383 -0.213396
v 0.612161 -0.007189 -0.213501
v 0.565511 0.227337 -0.213545
v 0.432663 0.426158 -0.213582
v -0.462456 0.184177 0.284287
v -0.500503 -0.007095 0.284322
v -0.462457 -0.198368 0.284358
v 0.461090 -0.198369 0.284358
v 0.499137 -0.007096 0.284322
v 0.565511 -0.241621 0.284366
v 0.461090 0.184177 0.284287
v -0.566877 0.227430 0.284279
v -0.613527 -0.007095 0.284322
v -0.566877 -0.241621 0.284366
v 0.612161 -0.007096 0.284322
v 0.565511 0.227430 0.284279
v -0.566877 0.227409 0.093471
v -0.462456 0.184157 0.172723
v -0.500503 -0.007116 0.172759
v -0.462457 -0.198389 0.172794
v -0.566877 -0.241642 0.093559
v 0.461090 0.184147 0.176575
v 0.499137 -0.007126 0.176610
v 0.565511 0.227399 0.120768
v 0.461090 -0.198399 0.176646
v 0.565511 -0.241652 0.120855
v 0.122739 -0.198369 0.284358
v 0.123568 0.184156 0.284287
v 0.122739 0.184147 0.171892
v -0.075793 0.184156 0.172723
v -0.075793 0.184165 0.284287
v -0.075793 -0.198368 0.284358
v 0.061122 0.108280 0.377229
v 0.061122 -0.122418 0.377272
v -0.016009 -0.122418 0.377272
v -0.016009 0.108285 0.377229
v 0.046960 0.055514 0.557522
v 0.046960 -0.069634 0.557546
v 0.005118 -0.069634 0.557546
v 0.005119 0.055517 0.557522
vt 0.000000 0.549552
vt 0.202519 0.414234
vt 0.337838 0.616753
vt 0.450215 0.277083
vt 0.543424 0.052056
vt 0.768451 0.145265
vt 0.546756 0.454326
vt 0.510101 0.423079
vt 0.566419 0.422687
vt 0.939477 0.911746
vt 0.972288 0.962973
vt 0.939933 0.962927
vt 0.609333 0.038946
vt 0.528520 0.016075
vt 0.609333 0.000000
vt 0.614954 0.571672
vt 0.681752 0.490859
vt 0.681592 0.571672
vt 0.873142 0.720994
vt 0.903870 0.782551
vt 0.871542 0.782319
vt 0.548083 0.763750
vt 0.510101 0.802483
vt 0.509657 0.764018
vt 0.487549 0.332958
vt 0.414234 0.291987
vt 0.786842 0.656234
vt 0.853282 0.577917
vt 0.853478 0.656328
vt 0.871542 0.912282
vt 0.905470 0.961365
vt 0.873142 0.961133
vt 0.675242 0.370293
vt 0.609333 0.422349
vt 0.609333 0.383403
vt 0.460010 0.061852
vt 0.936754 0.000000
vt 0.968739 0.055875
vt 0.936383 0.055875
vt 0.758656 0.061852
vt 0.804433 0.130361
vt 0.528520 0.406274
vt 0.460010 0.360497
vt 0.338317 0.765543
vt 0.406293 0.709152
vt 0.404929 0.765079
vt 0.787400 0.718990
vt 0.854036 0.719084
vt 0.786646 0.577823
vt 0.853478 0.495787
vt 0.786842 0.495693
vt 0.854036 0.422443
vt 0.407069 0.709152
vt 0.338527 0.648776
vt 0.405107 0.649254
vt 0.404418 0.572264
vt 0.337838 0.571786
vt 0.405107 0.489904
vt 0.340489 0.414234
vt 0.407069 0.414711
vt 0.615114 0.652485
vt 0.682206 0.720994
vt 0.615568 0.720994
vt 0.681752 0.652484
vt 0.615114 0.490859
vt 0.682206 0.422349
vt 0.339682 1.000000
vt 0.404929 0.922233
vt 0.406293 0.999536
vt 0.337838 0.840367
vt 0.404450 0.839903
vt 0.906974 0.721220
vt 0.938205 0.766606
vt 0.905861 0.766832
vt 0.690146 0.016075
vt 0.675242 0.052056
vt 0.731117 0.332958
vt 0.804433 0.291987
vt 0.758656 0.360497
vt 0.543424 0.370293
vt 0.903308 0.849722
vt 0.870980 0.849491
vt 0.939477 0.780812
vt 0.972288 0.721040
vt 0.971833 0.780858
vt 0.731117 0.089391
vt 0.487549 0.089391
vt 0.414234 0.130361
vt 0.690146 0.406274
vt 0.968609 0.121784
vt 0.936252 0.121784
vt 0.302802 0.063914
vt 0.382702 0.089795
vt 0.350319 0.111432
vt 0.111432 0.063914
vt 0.031532 0.089794
vt 0.089795 0.031532
vt 0.240717 0.376036
vt 0.324439 0.382702
vt 0.248315 0.414234
vt 0.111432 0.350319
vt 0.031532 0.324439
vt 0.063914 0.302802
vt 0.414233 0.165919
vt 0.376036 0.173517
vt 0.173517 0.038198
vt 0.165919 0.000000
vt 0.165919 0.414233
vt 0.173517 0.376036
vt 0.350319 0.302802
vt 0.302802 0.350319
vt 0.038198 0.173517
vt 0.063914 0.111432
vt 0.248315 0.000000
vt 0.324439 0.031532
vt 0.414233 0.248315
vt 0.382702 0.324439
vt 0.038198 0.240717
vt 0.000000 0.165919
vt 0.089794 0.382702
vt 0.240717 0.038198
vt 0.376036 0.240717
vt 0.000000 0.248315
vt 0.905861 0.895003
vt 0.939317 0.957824
vt 0.906974 0.958049
vt 0.903870 0.912513
vt 0.936383 0.187693
vt 0.969110 0.243568
vt 0.936754 0.243568
vt 0.971673 0.847841
vt 0.971833 0.911791
vt 0.905470 0.827856
vt 0.938205 0.894778
vt 0.968739 0.187693
vt 0.939317 0.847795
vt 0.937814 0.827631
vt 0.080763 0.791017
vt 0.161626 0.768321
vt 0.146644 0.804270
vt 0.695767 0.759940
vt 0.614954 0.737069
vt 0.695767 0.720994
vt 0.014826 0.803985
vt 0.080848 0.752072
vt 0.776580 0.737069
vt 0.761676 0.773051
vt 0.958173 0.578065
vt 0.892626 0.656389
vt 0.786486 0.571671
vt 0.730306 0.652484
vt 0.480687 0.868392
vt 0.414364 0.802484
vt 0.480817 0.802483
vt 0.614510 0.763287
vt 0.575821 0.802027
vt 0.480817 0.934301
vt 0.414234 0.868392
vt 0.324041 0.883097
vt 0.256102 0.819054
vt 0.323881 0.819147
vt 0.256262 0.752072
vt 0.324041 0.752164
vt 0.614510 0.453855
vt 0.614954 0.422349
vt 0.509657 0.567670
vt 0.509657 0.454585
vt 0.509657 0.634466
vt 0.548369 0.567679
vt 0.548083 0.634199
vt 0.146384 0.920574
vt 0.014573 0.920574
vt 0.548264 0.898441
vt 0.497609 0.865328
vt 0.523812 0.865328
vt 0.629862 0.906287
vt 0.761676 0.906287
vt 0.223832 0.859348
vt 0.161626 0.799213
vt 0.223832 0.780386
vt 0.256102 0.752072
vt 0.838749 0.747159
vt 0.776580 0.808458
vt 0.776581 0.765334
vt 0.476871 0.582709
vt 0.514043 0.802483
vt 0.804433 0.198111
vt 0.804435 0.129701
vt 0.936252 0.013109
vt 0.414234 0.597658
vt 0.414234 0.583638
vt 0.870980 0.852805
vt 0.870980 0.720994
vt 0.312122 0.678837
vt 0.135319 0.752072
vt 0.264604 0.726355
vt 0.202519 0.752072
vt 0.073234 0.726355
vt 0.025716 0.678838
vt 0.000000 0.616753
vt 0.025716 0.487468
vt 0.073234 0.439950
vt 0.135319 0.414234
vt 0.264604 0.439950
vt 0.312122 0.487468
vt 0.337838 0.549552
vt 0.437105 0.211174
vt 0.450215 0.145265
vt 0.781561 0.211174
vt 0.768451 0.277083
vt 0.905470 0.721226
vt 0.969110 0.000000
vt 0.339682 0.709616
vt 0.787400 0.422349
vt 0.340489 0.708675
vt 0.338527 0.489426
vt 0.615568 0.422349
vt 0.338317 0.922697
vt 0.939317 0.720994
vt 0.939933 0.720994
vt 0.629858 0.773051
vt 0.000000 0.767971
vt 0.892626 0.495848
vt 0.958369 0.495936
vt 0.958369 0.656477
vt 0.730306 0.490859
vt 0.786645 0.490859
vt 0.786645 0.652484
vt 0.614954 0.801753
vt 0.414364 0.934301
vt 0.256262 0.883005
vt 0.480817 0.898441
vt 0.161626 0.842048
vt 0.256102 0.883000
vt 0.838747 0.826653
vt 0.476871 0.608552
vt 0.499828 0.802483
vt 0.804434 0.013111
vt 0.870343 0.000000
vt 0.936252 0.331346
vt 0.870344 0.344457
vt 0.804434 0.331348
vn 0.0000 -0.0002 -1.0000
vn -0.0000 0.0002 1.0000
vn -0.3828 0.9238 -0.0002
vn -0.8315 0.5556 -0.0001
vn 0.9808 0.1951 -0.0000
vn 0.5556 -0.8315 0.0002
vn 0.3827 0.9239 -0.0002
vn -0.9808 0.1951 -0.0000
vn -0.5556 -0.8315 0.0002
vn 0.8315 0.5556 -0.0001
vn -0.5556 0.8315 -0.0002
vn -0.9808 -0.1951 0.0000
vn -0.8315 -0.5556 0.0001
vn -0.1951 -0.9808 0.0002
vn 0.1951 -0.9808 0.0002
vn 0.8315 -0.5556 0.0001
vn 0.9808 -0.1951 0.0000
vn 0.5556 0.8315 -0.0002
vn 0.1951 0.9808 -0.0002
vn -0.1951 0.9808 -0.0002
vn 0.3828 0.9238 -0.0002
vn -0.3827 0.9239 -0.0002
vn -0.0001 1.0000 -0.0003
vn 0.0000 1.0000 -0.0001
vn -0.0000 -0.7742 0.6329
vn 0.0000 1.0000 -0.0002
vn -0.9932 0.0000 0.1164
vn -0.8410 0.0001 0.5410
vn 0.9969 0.0000 0.0783
vn 0.0000 0.7746 0.6324
vn -0.0000 -0.9597 0.2810
vn -0.0042 -0.0161 -0.9999
vn 0.0001 0.9597 0.2809
vn 0.8328 -0.0017 0.5536
vn -0.3827 0.9239 -0.0003
vn 0.3827 0.9239 -0.0001
vn -0.9808 -0.1951 0.0001
vn -0.9808 0.1951 -0.0001
vn 0.3827 0.9239 -0.0003
vn -0.3827 0.9239 -0.0001
vn 0.0001 0.7746 0.6324
vn 0.0138 0.0026 -0.9999
vn 0.0113 -0.0024 -0.9999
vn 0.0042 -0.0044 -1.0000
vn 0.8300 0.0001 0.5578
s off
f 20/1/1 18/2/1 15/3/1
f 16/4/2 6/5/2 21/6/2
f 98/7/3 92/8/3 100/9/3
f 10/10/4 64/11/4 20/12/4
f 27/13/2 40/14/2 41/15/2
f 78/16/5 46/17/5 45/18/5
f 15/19/6 49/20/6 13/21/6
f 94/22/7 88/23/7 81/24/7
f 14/25/2 36/26/2 16/4/2
f 73/27/8 37/28/8 36/29/8
f 24/30/9 72/31/9 31/32/9
f 32/33/2 33/34/2 25/35/2
f 6/5/2 39/36/2 40/14/2
f 18/37/10 61/38/10 4/39/10
f 21/6/2 43/40/2 44/41/2
f 14/25/2 34/42/2 35/43/2
f 68/44/11 35/45/11 34/46/11
f 69/47/4 36/29/4 35/48/4
f 74/49/12 38/50/12 37/28/12
f 75/51/13 39/52/13 38/50/13
f 39/53/9 59/54/9 40/55/9
f 59/54/14 41/56/14 40/55/14
f 76/57/15 42/58/15 41/56/15
f 42/58/6 63/59/6 43/60/6
f 67/61/16 43/62/16 63/63/16
f 44/64/17 78/16/17 45/18/17
f 79/65/10 47/66/10 46/17/10
f 80/67/18 48/68/18 47/69/18
f 48/68/19 53/70/19 33/71/19
f 20/72/11 65/73/11 28/74/11
f 27/13/2 42/75/2 8/76/2
f 11/77/2 46/78/2 47/79/2
f 12/80/2 33/34/2 34/42/2
f 13/21/15 50/81/15 1/82/15
f 23/83/13 72/84/13 71/85/13
f 8/76/2 43/40/2 9/86/2
f 5/87/2 38/88/2 39/36/2
f 11/77/2 48/89/2 32/33/2
f 4/39/5 60/90/5 26/91/5
f 62/92/1 59/93/1 58/94/1
f 66/95/1 78/96/1 67/97/1
f 54/98/1 73/99/1 69/100/1
f 50/101/1 51/102/1 52/103/1
f 58/94/1 55/104/1 56/105/1
f 64/106/1 67/97/1 63/107/1
f 54/98/1 68/108/1 49/109/1
f 60/110/1 73/99/1 57/111/1
f 71/112/1 78/96/1 70/113/1
f 62/92/1 77/114/1 76/115/1
f 60/110/1 75/116/1 74/117/1
f 72/118/1 79/119/1 71/112/1
f 49/109/1 53/120/1 50/101/1
f 64/106/1 77/114/1 65/121/1
f 56/105/1 75/116/1 61/122/1
f 72/118/1 51/102/1 80/123/1
f 7/124/18 56/125/18 18/126/18
f 1/82/14 52/127/14 24/30/14
f 17/128/16 54/129/16 15/130/16
f 10/10/8 70/131/8 66/132/8
f 19/133/19 58/134/19 7/124/19
f 26/91/17 57/135/17 17/128/17
f 30/136/12 71/85/12 70/131/12
f 28/74/20 62/137/20 19/133/20
f 85/138/2 92/139/2 87/140/2
f 82/141/2 88/142/2 89/143/2
f 84/144/2 91/145/2 85/138/2
f 82/141/2 90/146/2 83/147/2
f 37/28/8 89/148/8 93/149/8
f 45/18/17 91/150/17 102/151/17
f 2/152/5 96/153/5 3/154/5
f 16/155/21 93/156/21 94/22/21
f 16/157/17 95/158/17 2/152/17
f 21/159/8 99/160/8 29/161/8
f 29/161/12 98/162/12 22/163/12
f 22/164/22 100/9/22 46/165/22
f 98/7/23 104/166/23 87/167/23
f 107/168/24 105/169/24 106/170/24
f 85/138/2 104/171/2 103/172/2
f 108/173/25 110/174/25 111/175/25
f 53/70/20 34/46/20 33/71/20
f 107/176/2 82/141/2 108/177/2
f 81/24/26 106/170/26 94/22/26
f 111/178/27 116/179/27 112/180/27
f 107/181/28 111/178/28 112/180/28
f 110/182/29 113/183/29 114/184/29
f 107/168/30 109/185/30 104/166/30
f 110/174/31 115/186/31 111/175/31
f 106/187/32 105/188/32 101/189/32
f 109/185/33 116/190/33 113/191/33
f 104/192/34 110/182/34 103/193/34
f 15/3/1 13/194/1 31/195/1
f 13/194/1 1/196/1 31/195/1
f 1/196/1 24/197/1 31/195/1
f 31/195/1 23/198/1 30/199/1
f 30/199/1 10/200/1 31/195/1
f 10/200/1 20/1/1 31/195/1
f 20/1/1 28/201/1 19/202/1
f 19/202/1 7/203/1 20/1/1
f 7/203/1 18/2/1 20/1/1
f 18/2/1 4/204/1 26/205/1
f 26/205/1 17/206/1 15/3/1
f 18/2/1 26/205/1 15/3/1
f 15/3/1 31/195/1 20/1/1
f 32/33/2 25/35/2 12/80/2
f 12/80/2 14/25/2 16/4/2
f 16/4/2 2/207/2 6/5/2
f 2/207/2 3/208/2 6/5/2
f 3/208/2 5/87/2 6/5/2
f 6/5/2 27/13/2 8/76/2
f 8/76/2 9/86/2 21/6/2
f 21/6/2 29/209/2 22/210/2
f 22/210/2 11/77/2 32/33/2
f 32/33/2 12/80/2 16/4/2
f 6/5/2 8/76/2 21/6/2
f 21/6/2 22/210/2 32/33/2
f 32/33/2 16/4/2 21/6/2
f 98/7/35 87/167/35 92/8/35
f 10/10/4 66/132/4 64/11/4
f 27/13/2 6/5/2 40/14/2
f 78/16/5 79/65/5 46/17/5
f 15/19/6 54/211/6 49/20/6
f 94/22/36 93/156/36 88/23/36
f 14/25/2 35/43/2 36/26/2
f 73/27/8 74/49/8 37/28/8
f 24/30/9 52/127/9 72/31/9
f 32/33/2 48/89/2 33/34/2
f 6/5/2 5/87/2 39/36/2
f 18/37/10 56/212/10 61/38/10
f 21/6/2 9/86/2 43/40/2
f 14/25/2 12/80/2 34/42/2
f 68/44/11 69/213/11 35/45/11
f 69/47/4 73/27/4 36/29/4
f 74/49/12 75/51/12 38/50/12
f 75/51/13 55/214/13 39/52/13
f 39/53/9 55/215/9 59/54/9
f 59/54/14 76/57/14 41/56/14
f 76/57/15 77/216/15 42/58/15
f 42/58/6 77/216/6 63/59/6
f 67/61/16 44/64/16 43/62/16
f 44/64/17 67/61/17 78/16/17
f 79/65/10 80/217/10 47/66/10
f 80/67/18 51/218/18 48/68/18
f 48/68/19 51/218/19 53/70/19
f 20/72/11 64/219/11 65/73/11
f 27/13/2 41/15/2 42/75/2
f 11/77/2 22/210/2 46/78/2
f 12/80/2 25/35/2 33/34/2
f 13/21/15 49/20/15 50/81/15
f 23/83/13 31/220/13 72/84/13
f 8/76/2 42/75/2 43/40/2
f 5/87/2 3/208/2 38/88/2
f 11/77/2 47/79/2 48/89/2
f 4/39/5 61/38/5 60/90/5
f 62/92/1 76/115/1 59/93/1
f 66/95/1 70/113/1 78/96/1
f 54/98/1 57/111/1 73/99/1
f 50/101/1 53/120/1 51/102/1
f 58/94/1 59/93/1 55/104/1
f 64/106/1 66/95/1 67/97/1
f 54/98/1 69/100/1 68/108/1
f 60/110/1 74/117/1 73/99/1
f 71/112/1 79/119/1 78/96/1
f 62/92/1 65/121/1 77/114/1
f 60/110/1 61/122/1 75/116/1
f 72/118/1 80/123/1 79/119/1
f 49/109/1 68/108/1 53/120/1
f 64/106/1 63/107/1 77/114/1
f 56/105/1 55/104/1 75/116/1
f 72/118/1 52/103/1 51/102/1
f 7/124/18 58/134/18 56/125/18
f 1/82/14 50/81/14 52/127/14
f 17/128/16 57/135/16 54/129/16
f 10/10/8 30/136/8 70/131/8
f 19/133/19 62/137/19 58/134/19
f 26/91/17 60/90/17 57/135/17
f 30/136/12 23/83/12 71/85/12
f 28/74/20 65/73/20 62/137/20
f 85/138/2 91/145/2 92/139/2
f 82/141/2 81/221/2 88/142/2
f 84/144/2 86/222/2 91/145/2
f 82/141/2 89/143/2 90/146/2
f 37/28/37 38/50/37 97/223/37
f 97/223/12 90/224/12 89/148/12
f 89/148/8 88/225/8 93/149/8
f 93/149/38 36/29/38 37/28/38
f 37/28/12 97/223/12 89/148/12
f 45/18/5 46/17/5 100/226/5
f 100/226/5 92/227/5 91/150/5
f 91/150/17 86/228/17 102/151/17
f 102/151/17 44/64/17 45/18/17
f 45/18/5 100/226/5 91/150/5
f 2/152/5 95/158/5 96/153/5
f 16/155/39 36/229/39 93/156/39
f 16/157/17 94/230/17 95/158/17
f 21/159/8 101/231/8 99/160/8
f 29/161/12 99/160/12 98/162/12
f 22/164/40 98/7/40 100/9/40
f 98/7/24 105/169/24 104/166/24
f 107/168/24 104/166/24 105/169/24
f 103/172/2 84/144/2 85/138/2
f 85/138/2 87/140/2 104/171/2
f 108/173/25 103/232/25 110/174/25
f 53/70/20 68/44/20 34/46/20
f 81/221/2 82/141/2 107/176/2
f 82/141/2 83/147/2 108/177/2
f 81/24/24 107/168/24 106/170/24
f 111/178/27 115/233/27 116/179/27
f 107/181/28 108/234/28 111/178/28
f 110/182/29 109/235/29 113/183/29
f 107/168/41 112/236/41 109/185/41
f 110/174/31 114/237/31 115/186/31
f 98/238/42 99/239/42 105/188/42
f 99/239/43 101/189/43 105/188/43
f 101/189/44 96/240/44 106/187/44
f 96/240/1 95/241/1 106/187/1
f 95/241/1 94/242/1 106/187/1
f 109/185/33 112/236/33 116/190/33
f 104/192/45 109/235/45 110/182/45
