# Blender v2.80 (sub 44) OBJ File: 'BACKUP_Autopista.blend'
# www.blender.org
o Columnas.004_Group13566.004
v 1.714345 10.965338 -1.069784
v -1.714347 10.965338 -1.069784
v -1.434604 -10.965338 0.860097
v -1.434604 -10.965338 -0.860096
v 1.434596 -10.965338 -0.860096
v 1.434599 2.632289 0.860097
v -1.434602 2.632290 -0.860096
v -1.434602 2.632290 0.860097
v 1.434596 -10.965338 0.860097
v 1.434599 2.902677 -0.860096
v 1.434599 3.773811 0.860097
v -1.434602 2.902678 -0.860096
v -1.434602 3.773810 0.860097
v 1.434599 2.902677 0.860097
v 1.434600 8.715519 -0.860096
v -1.434601 8.715519 0.860097
v -1.434601 4.044196 0.860097
v 1.434600 8.994170 -0.860096
v -1.641282 10.390768 -1.015016
v -1.434601 8.994170 0.860097
v 1.434600 8.994170 0.860097
v -1.641282 10.390768 1.015017
v 1.676251 10.665881 -1.041230
v 1.714345 10.965338 1.069785
v -1.676252 10.665881 -1.041230
v -1.676252 10.665881 1.041232
v 1.676251 10.665881 1.041232
v -1.714347 10.965338 1.069785
v 1.569242 4.044195 -0.994739
v 1.569242 3.773809 -0.994739
v 1.569242 3.773811 0.994740
v 1.434599 4.044196 -0.860096
v 1.569242 4.044195 0.994740
v 1.434599 4.044196 0.860097
v 1.434599 3.773809 -0.860096
v -1.434602 3.773810 -0.860096
v -1.569245 3.773810 -0.994739
v -1.569245 3.773810 0.994740
v -1.434602 4.044196 -0.860096
v -1.569245 4.044196 -0.994739
v -1.569245 4.044196 0.994740
v 1.569242 2.902677 0.994740
v 1.569242 2.632289 -0.994739
v 1.434598 2.632289 -0.860096
v 1.569242 2.632289 0.994740
v -1.569245 2.632290 0.994740
v -1.434602 2.902678 0.860097
v -1.569245 2.632290 -0.994739
v -1.569245 2.902678 -0.994739
v 1.569242 2.902677 -0.994739
v -1.569245 2.902678 0.994740
v 1.569243 8.994170 0.994740
v 1.569243 8.715519 -0.994739
v 1.434600 8.715519 0.860097
v 1.569243 8.715519 0.994740
v -1.569244 8.994170 0.994740
v 1.569243 8.994170 -0.994739
v -1.569244 8.715519 -0.994739
v -1.569244 8.715519 0.994740
v -1.434601 8.994170 -0.860096
v -1.569244 8.994170 -0.994739
v -1.434601 8.715519 -0.860096
v 1.773272 10.361366 -1.147469
v 1.808244 10.636479 -1.173683
v 1.808244 10.636479 1.173683
v -1.773267 10.361366 1.147469
v 1.773272 10.361366 1.147468
v 1.641281 10.390768 1.015017
v 1.641281 10.390768 -1.015016
v -1.773267 10.361366 -1.147468
v -1.808241 10.636479 -1.173683
v -1.808241 10.636479 1.173683
vt 0.934275 0.000000
vt 0.808616 0.203210
vt 0.808616 0.000000
vt 0.101028 0.805450
vt 0.000000 0.975501
vt 0.000000 0.805450
vt 0.438049 0.000000
vt 0.337021 0.805105
vt 0.337021 0.000000
vt 0.000000 0.805450
vt 0.168510 0.000000
vt 0.168511 0.805450
vt 0.539077 0.000000
vt 0.438049 0.805105
vt 0.438049 0.000000
vt 0.337021 0.805450
vt 0.168511 0.000000
vt 0.337021 0.000000
vt 0.942209 0.389221
vt 0.891097 0.491173
vt 0.891097 0.389221
vt 0.976594 0.373261
vt 0.925460 0.203210
vt 0.976594 0.203210
vt 0.979679 0.655360
vt 0.928567 0.553408
vt 0.979679 0.553408
vt 0.152162 0.975501
vt 0.101028 0.805450
vt 0.152162 0.805450
vt 0.808616 0.000000
vt 0.707588 0.276585
vt 0.707588 0.000000
vt 0.707588 0.276704
vt 0.539078 0.000000
vt 0.707588 0.000000
vt 0.707588 0.553289
vt 0.808616 0.276704
vt 0.808616 0.553289
vt 0.539078 0.553408
vt 0.707588 0.276704
vt 0.707588 0.553408
vt 0.808616 0.398403
vt 0.891097 0.509536
vt 0.808616 0.500355
vt 0.337021 0.987750
vt 0.254740 0.805450
vt 0.337021 0.817700
vt 0.172258 0.814632
vt 0.254740 0.925765
vt 0.172258 0.916584
vt 0.453865 0.817354
vt 0.536146 0.999655
vt 0.453865 0.987405
vt 0.944731 0.871393
vt 0.962401 0.996508
vt 0.944731 0.994815
vt 0.951908 0.200953
vt 0.951908 0.002258
vt 0.962401 0.966486
vt 0.980070 0.841371
vt 0.980070 0.968178
vt 0.946201 0.657618
vt 0.928567 0.858570
vt 0.928567 0.655360
vt 0.984136 0.117912
vt 1.000000 0.000000
vt 1.000000 0.117912
vt 0.819631 0.561388
vt 0.928567 0.553408
vt 0.920659 0.561388
vt 0.785876 0.771583
vt 0.676940 0.763603
vt 0.793784 0.763603
vt 0.992465 0.389221
vt 0.976594 0.203210
vt 0.992465 0.203210
vt 0.928567 0.739419
vt 0.920659 0.731439
vt 0.684848 0.941634
vt 0.684848 0.771583
vt 0.968265 0.000000
vt 0.984136 0.186011
vt 0.968265 0.186011
vt 0.793784 0.949614
vt 0.785876 0.941634
vt 0.819631 0.731439
vt 0.811723 0.553408
vt 0.995934 0.959282
vt 0.980070 0.841371
vt 0.995934 0.841371
vt 0.676940 0.949614
vt 0.811723 0.739419
vt 0.944432 0.976482
vt 0.928567 0.858570
vt 0.944432 0.858570
vt 0.445957 0.983136
vt 0.337021 0.991116
vt 0.344929 0.983136
vt 0.816524 0.211190
vt 0.925460 0.203210
vt 0.917552 0.211190
vt 0.962401 0.655360
vt 0.978272 0.841371
vt 0.962401 0.841371
vt 0.337021 0.805105
vt 0.344929 0.813085
vt 0.816524 0.381241
vt 0.808616 0.203210
vt 0.152162 0.805450
vt 0.168033 0.991461
vt 0.152162 0.991461
vt 0.925460 0.389221
vt 0.917552 0.381241
vt 0.445957 0.813085
vt 0.453864 0.991116
vt 0.995543 0.655360
vt 0.979679 0.537448
vt 0.995543 0.537448
vt 0.808616 0.389221
vt 0.453864 0.805105
vt 0.978272 0.655360
vt 0.994621 0.773272
vt 0.978272 0.773272
vt 0.648013 0.945779
vt 0.539078 0.953759
vt 0.546985 0.945779
vt 0.920659 0.747399
vt 0.811723 0.739419
vt 0.928567 0.739419
vt 0.655921 0.767749
vt 0.672277 0.953759
vt 0.655921 0.953759
vt 0.539078 0.767749
vt 0.546985 0.775729
vt 0.819631 0.917449
vt 0.819631 0.747399
vt 0.951908 0.000000
vt 0.968265 0.186011
vt 0.951908 0.186011
vt 0.928567 0.925429
vt 0.920659 0.917449
vt 0.648013 0.775729
vt 0.655921 0.953759
vt 0.991024 0.507133
vt 0.974675 0.389221
vt 0.991024 0.389221
vt 0.811723 0.925429
vt 0.655921 0.767749
vt 0.958442 0.389221
vt 0.942209 0.526790
vt 0.942209 0.390775
vt 0.803944 0.755780
vt 0.676940 0.763603
vt 0.684719 0.755780
vt 0.546857 0.759926
vt 0.676940 0.767749
vt 0.539078 0.767749
vt 0.946201 0.869700
vt 0.962401 0.657433
vt 0.962401 0.867628
vt 0.676940 0.553408
vt 0.684719 0.561231
vt 0.669161 0.759926
vt 0.676940 0.553408
vt 0.793784 0.765676
vt 0.809984 0.977944
vt 0.793784 0.975871
vt 0.539078 0.553408
vt 0.546857 0.561231
vt 0.811723 0.553408
vt 0.811723 0.763603
vt 0.958442 0.390775
vt 0.974675 0.528344
vt 0.958442 0.526790
vt 0.669161 0.561231
vt 0.803944 0.561231
vt 0.934275 0.203210
vt 0.101028 0.975501
vt 0.438049 0.805105
vt 0.000000 0.000000
vt 0.539078 0.805105
vt 0.168511 0.805450
vt 0.942209 0.491173
vt 0.925460 0.373261
vt 0.928567 0.655360
vt 0.101028 0.975501
vt 0.808616 0.276585
vt 0.539078 0.276704
vt 0.539078 0.276704
vt 0.891097 0.389221
vt 0.254740 1.000000
vt 0.254740 0.805450
vt 0.536146 0.805105
vt 0.962401 0.869700
vt 0.962401 0.843063
vt 0.946201 0.856313
vt 0.984136 0.000000
vt 0.976594 0.389221
vt 0.984136 0.000000
vt 0.980070 0.959282
vt 0.928567 0.976482
vt 0.978272 0.655360
vt 0.168033 0.805450
vt 0.979679 0.655360
vt 0.994621 0.655360
vt 0.672277 0.767749
vt 0.968265 0.000000
vt 0.974675 0.507133
vt 0.958442 0.528344
vt 0.946201 0.655360
vt 0.809984 0.763603
vt 0.974675 0.389221
vn 0.0000 1.0000 0.0000
vn 0.0000 -1.0000 0.0000
vn 1.0000 -0.0000 0.0000
vn -0.0000 0.0000 -1.0000
vn -1.0000 0.0000 0.0000
vn 0.0000 -0.0000 1.0000
vn 0.9892 -0.1464 -0.0000
vn -0.0000 -0.1103 -0.9939
vn -0.9892 -0.1464 0.0000
vn 0.0000 -0.1103 0.9939
vn 0.9920 -0.1262 0.0000
vn -0.0000 -0.0949 -0.9955
vn -0.9920 -0.1262 0.0000
vn 0.0000 -0.0949 0.9955
vn 0.9920 -0.1261 -0.0000
vn -0.2174 -0.9761 -0.0000
vn 0.2174 0.9761 -0.0000
vn -0.0000 -0.9762 -0.2167
vn 0.0000 0.9762 0.2167
vn 0.0000 0.9762 -0.2167
vn 0.0000 -0.9762 0.2167
vn -0.9920 -0.1261 0.0000
vn -0.2174 0.9761 0.0000
vn 0.2174 -0.9761 0.0000
s off
f 1/1/1 28/2/1 24/3/1
f 4/4/2 9/5/2 3/6/2
f 5/7/3 6/8/3 9/9/3
f 4/10/4 44/11/4 5/12/4
f 3/13/5 7/14/5 4/15/5
f 3/16/6 6/17/6 8/18/6
f 14/19/3 35/20/3 11/21/3
f 12/22/4 35/23/4 10/24/4
f 47/25/5 36/26/5 12/27/5
f 14/28/6 13/29/6 47/30/6
f 32/31/3 54/32/3 34/33/3
f 32/34/4 62/35/4 15/36/4
f 17/37/5 62/38/5 39/39/5
f 34/40/6 16/41/6 17/42/6
f 18/43/7 68/44/7 21/45/7
f 60/46/8 69/47/8 18/48/8
f 20/49/9 19/50/9 60/51/9
f 21/52/10 22/53/10 20/54/10
f 23/55/11 24/56/11 27/57/11
f 25/58/12 1/1/12 23/59/12
f 25/60/13 28/61/13 2/62/13
f 26/63/14 24/64/14 28/65/14
f 29/66/3 31/67/3 30/68/3
f 35/69/2 31/70/2 11/71/2
f 32/72/1 33/73/1 29/74/1
f 41/75/6 31/76/6 33/77/6
f 11/71/2 38/78/2 13/79/2
f 17/80/1 33/73/1 34/81/1
f 37/82/4 29/83/4 30/84/4
f 32/72/1 40/85/1 39/86/1
f 36/87/2 30/88/2 35/69/2
f 38/89/5 40/90/5 37/91/5
f 17/80/1 40/85/1 41/92/1
f 13/79/2 37/93/2 36/87/2
f 42/94/3 43/95/3 50/96/3
f 44/97/2 45/98/2 6/99/2
f 14/100/1 50/101/1 10/102/1
f 51/103/6 45/104/6 42/105/6
f 6/99/2 46/106/2 8/107/2
f 47/108/1 42/109/1 14/100/1
f 48/110/4 50/111/4 43/112/4
f 10/102/1 49/113/1 12/114/1
f 7/115/2 43/116/2 44/97/2
f 46/117/5 49/118/5 48/119/5
f 47/108/1 49/113/1 51/120/1
f 8/107/2 48/121/2 7/115/2
f 52/122/3 53/123/3 57/124/3
f 15/125/2 55/126/2 54/127/2
f 18/128/1 52/129/1 57/130/1
f 56/131/6 55/132/6 52/133/6
f 54/127/2 59/134/2 16/135/2
f 20/136/1 52/129/1 21/137/1
f 58/138/4 57/139/4 53/140/4
f 18/128/1 61/141/1 60/142/1
f 62/143/2 53/144/2 15/125/2
f 59/145/5 61/146/5 58/147/5
f 20/136/1 61/141/1 56/148/1
f 62/143/2 59/134/2 58/149/2
f 64/150/15 67/151/15 63/152/15
f 69/153/16 67/154/16 68/155/16
f 23/156/17 65/157/17 64/158/17
f 65/159/14 66/160/14 67/161/14
f 68/155/18 66/162/18 22/163/18
f 27/164/19 72/165/19 65/157/19
f 70/166/12 64/167/12 63/168/12
f 23/156/20 71/169/20 25/170/20
f 69/153/21 70/171/21 63/172/21
f 66/173/22 71/174/22 70/175/22
f 25/170/23 72/165/23 26/176/23
f 19/177/24 66/162/24 70/171/24
f 1/1/1 2/178/1 28/2/1
f 4/4/2 5/179/2 9/5/2
f 5/7/3 44/180/3 6/8/3
f 4/10/4 7/181/4 44/11/4
f 3/13/5 8/182/5 7/14/5
f 3/16/6 9/183/6 6/17/6
f 14/19/3 10/184/3 35/20/3
f 12/22/4 36/185/4 35/23/4
f 47/25/5 13/186/5 36/26/5
f 14/28/6 11/187/6 13/29/6
f 32/31/3 15/188/3 54/32/3
f 32/34/4 39/189/4 62/35/4
f 17/37/5 16/41/5 62/38/5
f 34/40/6 54/190/6 16/41/6
f 18/43/7 69/191/7 68/44/7
f 60/46/8 19/192/8 69/47/8
f 20/49/9 22/193/9 19/50/9
f 21/52/10 68/194/10 22/53/10
f 23/55/11 1/195/11 24/56/11
f 25/58/12 2/178/12 1/1/12
f 25/60/13 26/196/13 28/61/13
f 26/63/14 27/197/14 24/64/14
f 29/66/3 33/198/3 31/67/3
f 35/69/2 30/88/2 31/70/2
f 32/72/1 34/81/1 33/73/1
f 41/75/6 38/199/6 31/76/6
f 11/71/2 31/70/2 38/78/2
f 17/80/1 41/92/1 33/73/1
f 37/82/4 40/200/4 29/83/4
f 32/72/1 29/74/1 40/85/1
f 36/87/2 37/93/2 30/88/2
f 38/89/5 41/201/5 40/90/5
f 17/80/1 39/86/1 40/85/1
f 13/79/2 38/78/2 37/93/2
f 42/94/3 45/202/3 43/95/3
f 44/97/2 43/116/2 45/98/2
f 14/100/1 42/109/1 50/101/1
f 51/103/6 46/203/6 45/104/6
f 6/99/2 45/98/2 46/106/2
f 47/108/1 51/120/1 42/109/1
f 48/110/4 49/204/4 50/111/4
f 10/102/1 50/101/1 49/113/1
f 7/115/2 48/121/2 43/116/2
f 46/117/5 51/205/5 49/118/5
f 47/108/1 12/114/1 49/113/1
f 8/107/2 46/106/2 48/121/2
f 52/122/3 55/206/3 53/123/3
f 15/125/2 53/144/2 55/126/2
f 18/128/1 21/137/1 52/129/1
f 56/131/6 59/207/6 55/132/6
f 54/127/2 55/126/2 59/134/2
f 20/136/1 56/148/1 52/129/1
f 58/138/4 61/208/4 57/139/4
f 18/128/1 57/130/1 61/141/1
f 62/143/2 58/149/2 53/144/2
f 59/145/5 56/209/5 61/146/5
f 20/136/1 60/142/1 61/141/1
f 62/143/2 16/135/2 59/134/2
f 64/150/15 65/210/15 67/151/15
f 69/153/16 63/172/16 67/154/16
f 23/156/17 27/164/17 65/157/17
f 65/159/14 72/211/14 66/160/14
f 68/155/18 67/154/18 66/162/18
f 27/164/19 26/176/19 72/165/19
f 70/166/12 71/212/12 64/167/12
f 23/156/20 64/158/20 71/169/20
f 69/153/21 19/177/21 70/171/21
f 66/173/22 72/213/22 71/174/22
f 25/170/23 71/169/23 72/165/23
f 19/177/24 22/163/24 66/162/24
