# Blender v2.80 (sub 41) OBJ File: 'AutopistaV2.blend'
# www.blender.org
o Plane.006_Plane.005
v -20.532185 1.513041 12.381577
v 10.917304 1.513041 12.381577
v -20.532185 1.513041 -11.084259
v 9.662399 1.513041 -13.050993
v -20.532185 1.513041 4.559633
v -20.532185 1.513041 -0.915729
v 0.602100 1.513041 12.381577
v -7.033718 1.513041 12.381577
v -7.033718 1.513041 -11.989834
v 0.602100 1.513041 -12.563513
v 10.917304 1.513041 2.362777
v 10.917304 1.513041 -4.650383
v 0.602100 1.513041 3.219024
v 0.602100 1.513041 -3.194764
v -7.033718 1.513041 -2.371348
v -7.033718 1.513041 3.703386
v 0.602100 -10.514743 3.219024
v 0.602100 -10.514743 -3.194764
v -7.033718 -10.514743 -2.371348
v -7.033718 -10.514743 3.703386
v 21.892458 1.513041 11.039616
v 21.892458 1.513041 -13.051003
v 21.892458 1.513041 1.020815
v 21.892458 1.513041 -5.992346
vt 0.389760 0.566667
vt 0.000000 1.000000
vt 0.000000 0.566667
vt 1.000000 0.000000
vt 0.610240 0.333333
vt 0.610240 0.000000
vt 0.610240 0.566667
vt 0.389760 1.000000
vt 1.000000 0.566667
vt 0.610240 1.000000
vt 1.000000 0.333333
vt 0.389760 0.333333
vt 0.389760 0.000000
vt 0.389760 0.333333
vt 0.000000 0.333333
vt 0.000000 0.000000
vt 0.610240 0.566667
vt 0.389760 0.566667
vt 0.610240 0.333333
vt 1.000000 0.000000
vt 1.000000 0.333333
vt 1.000000 0.566667
vt 1.000000 1.000000
vt 1.000000 1.000000
vn 0.0000 1.0000 0.0000
vn -0.0633 0.0000 -0.9980
vn 0.1072 0.0000 0.9942
vn 1.0000 0.0000 0.0000
vn -1.0000 0.0000 0.0000
s off
f 15/1/1 3/2/1 6/3/1
f 2/4/1 13/5/1 7/6/1
f 14/7/1 9/8/1 15/1/1
f 12/9/1 10/10/1 14/7/1
f 11/11/1 14/7/1 13/5/1
f 7/6/1 16/12/1 8/13/1
f 13/5/2 20/14/2 16/12/2
f 8/13/1 5/15/1 1/16/1
f 16/12/1 6/3/1 5/15/1
f 15/1/3 18/17/3 14/7/3
f 16/12/4 19/18/4 15/1/4
f 14/7/5 17/19/5 13/5/5
f 11/11/1 21/20/1 23/21/1
f 12/9/1 23/21/1 24/22/1
f 12/9/1 22/23/1 4/24/1
f 15/1/1 9/8/1 3/2/1
f 2/4/1 11/11/1 13/5/1
f 14/7/1 10/10/1 9/8/1
f 12/9/1 4/24/1 10/10/1
f 11/11/1 12/9/1 14/7/1
f 7/6/1 13/5/1 16/12/1
f 13/5/2 17/19/2 20/14/2
f 8/13/1 16/12/1 5/15/1
f 16/12/1 15/1/1 6/3/1
f 15/1/3 19/18/3 18/17/3
f 16/12/4 20/14/4 19/18/4
f 14/7/5 18/17/5 17/19/5
f 11/11/1 2/4/1 21/20/1
f 12/9/1 11/11/1 23/21/1
f 12/9/1 24/22/1 22/23/1
