# Blender v2.80 (sub 44) OBJ File: ''
# www.blender.org
o Plane.006_Plane.005
v -7.033718 1.513041 -2.371348
v -20.532185 1.513041 -11.084259
v -20.532185 1.513041 -0.915729
v 10.917304 1.513040 12.381577
v 0.602100 1.513041 3.219024
v 0.602100 1.513040 12.381577
v 0.602100 1.513041 -3.194764
v -7.033718 1.513041 -11.989834
v 10.917304 1.513041 -4.650383
v 0.602100 1.513042 -12.563513
v 10.917304 1.513041 2.362777
v -7.033718 1.513041 3.703386
v -7.033718 1.513040 12.381577
v -7.033718 -10.514743 3.703386
v -20.532185 1.513041 4.559633
v -20.532185 1.513040 12.381577
v 0.602100 -10.514743 -3.194764
v -7.033718 -10.514743 -2.371348
v 0.602100 -10.514743 3.219023
v 21.892458 1.513041 11.039616
v 21.892458 1.513041 1.020815
v 21.892458 1.513041 -5.992346
v 21.892458 1.513042 -13.051003
v 9.662399 1.513042 -13.050993
vt 0.281628 0.318175
vt 0.051864 0.000000
vt 0.320014 0.000000
vt 0.670671 0.741302
vt 0.429049 0.498161
vt 0.670671 0.498161
vt 0.259914 0.498161
vt 0.027984 0.318175
vt 0.221529 0.741302
vt 0.012855 0.498161
vt 0.406470 0.741302
vt 0.441822 0.318175
vt 0.670671 0.318175
vt 0.872436 0.283509
vt 0.670671 0.567019
vt 0.670671 0.283509
vt 0.464402 0.000000
vt 0.670671 0.000000
vt 0.670671 0.283509
vt 0.873199 0.000000
vt 0.873199 0.283509
vt 0.839806 0.850528
vt 1.000000 0.567019
vt 1.000000 0.850528
vt 0.839806 0.567019
vt 0.670671 0.850528
vt 0.670671 0.567019
vt 0.635283 1.000000
vt 0.371081 1.000000
vt 0.186141 1.000000
vt 0.000000 1.000000
vt 0.000000 0.711723
vt 0.872436 0.567019
vt 0.670671 0.000000
vt 0.839806 0.567019
vt 0.839806 0.850528
vn -0.0000 1.0000 0.0000
vn -0.0633 0.0000 -0.9980
vn 0.1072 -0.0000 0.9942
vn 1.0000 -0.0000 0.0000
vn -1.0000 -0.0000 0.0000
s 1
f 1/1/1 2/2/1 3/3/1
f 4/4/1 5/5/1 6/6/1
f 7/7/1 8/8/1 1/1/1
f 9/9/1 10/10/1 7/7/1
f 11/11/1 7/7/1 5/5/1
f 6/6/1 12/12/1 13/13/1
f 5/14/2 14/15/2 12/16/2
f 13/13/1 15/17/1 16/18/1
f 12/12/1 3/3/1 15/17/1
f 1/19/3 17/20/3 7/21/3
f 12/22/4 18/23/4 1/24/4
f 7/25/5 19/26/5 5/27/5
f 11/11/1 20/28/1 21/29/1
f 9/9/1 21/29/1 22/30/1
f 9/9/1 23/31/1 24/32/1
f 1/1/1 8/8/1 2/2/1
f 4/4/1 11/11/1 5/5/1
f 7/7/1 10/10/1 8/8/1
f 9/9/1 24/32/1 10/10/1
f 11/11/1 9/9/1 7/7/1
f 6/6/1 5/5/1 12/12/1
f 5/14/2 19/33/2 14/15/2
f 13/13/1 12/12/1 15/17/1
f 12/12/1 1/1/1 3/3/1
f 1/19/3 18/34/3 17/20/3
f 12/22/4 14/35/4 18/23/4
f 7/25/5 17/36/5 19/26/5
f 11/11/1 4/4/1 20/28/1
f 9/9/1 11/11/1 21/29/1
f 9/9/1 22/30/1 23/31/1
