# Blender v2.80 (sub 44) OBJ File: ''
# www.blender.org
o ORIGINAL_CUBezierCurve.003
v 0.526051 -0.781345 -3.462189
v 0.229964 -0.781346 -2.973079
v 0.229964 -0.781345 -3.462189
v 0.324847 -0.882036 -3.484547
v 0.526051 -0.781346 -2.380484
v 0.229964 -0.781346 -1.891373
v 0.229964 -0.781346 -2.380484
v 0.324847 -0.882037 -2.402842
v 0.324847 -0.882037 -1.869015
v 0.526051 -0.781346 -1.298778
v 0.229964 -0.781346 -0.809668
v 0.229964 -0.781346 -1.298778
v 0.324847 -0.882037 -1.321136
v 0.526051 -0.781346 -0.217073
v 0.229964 -0.781346 0.272039
v 0.229964 -0.781346 -0.217073
v 0.324847 -0.882037 -0.239431
v 0.324847 -0.882037 0.294396
v 0.526051 -0.781346 0.864632
v 0.229964 -0.781346 1.353743
v 0.229964 -0.781346 0.864632
v 0.324847 -0.882036 0.842275
v 0.324847 -0.882036 1.376100
v 0.526051 -0.781346 1.946337
v 0.229964 -0.781346 2.435448
v 0.229964 -0.781346 1.946337
v 0.324847 -0.882036 1.923979
v 0.324847 -0.882036 2.457805
v 0.229964 -0.781346 3.028043
v 0.526051 -0.781347 3.517152
v 0.229964 -0.781347 3.517153
v 0.324847 -0.882037 3.005685
v 0.526051 -0.781346 3.028043
v 0.324847 -0.882037 3.539510
v 0.225451 0.883058 -3.762707
v 0.225451 0.283884 3.762707
v 0.225451 0.283885 -3.762707
v 0.526051 -0.574580 -3.762707
v 0.526051 -0.574582 3.762707
v 0.526051 -0.781346 -0.809668
v -0.225451 0.283885 -3.762707
v -0.225451 0.883057 3.762708
v -0.225451 0.283884 3.762707
v -0.225451 0.883058 -3.762707
v 0.526051 -0.781346 -1.891373
v 0.526051 -0.881404 -1.869156
v 0.526051 -0.781346 2.435448
v 0.526051 -0.881404 2.457665
v 0.324847 -0.882037 -2.950721
v 0.526051 -0.781346 -2.973079
v 0.526051 -0.881404 -2.950861
v 0.526051 -0.781346 0.272039
v 0.526051 -0.881404 0.294254
v 0.526051 -0.881405 3.539371
v 0.324847 -0.882037 -0.787310
v 0.526051 -0.881404 -0.787451
v 0.526051 -0.781346 1.353743
v 0.526051 -0.881404 1.375960
v -0.229964 -0.781346 -2.973079
v -0.526051 -0.781345 -3.462189
v -0.229964 -0.781345 -3.462189
v -0.324847 -0.882036 -3.484547
v -0.324847 -0.882037 -2.950721
v -0.229964 -0.781346 -1.891373
v -0.526051 -0.781346 -2.380484
v -0.229964 -0.781346 -2.380484
v -0.324847 -0.882037 -2.402842
v -0.324847 -0.882037 -1.869015
v -0.229964 -0.781346 -0.809668
v -0.526051 -0.781346 -1.298778
v -0.229964 -0.781346 -1.298778
v -0.324847 -0.882037 -1.321136
v -0.324847 -0.882037 -0.787310
v -0.229964 -0.781346 0.272039
v -0.526051 -0.781346 -0.217073
v -0.229964 -0.781346 -0.217073
v -0.324847 -0.882037 -0.239431
v -0.324847 -0.882037 0.294396
v -0.229964 -0.781346 1.353743
v -0.526051 -0.781346 0.864632
v -0.229964 -0.781346 0.864632
v -0.324847 -0.882036 0.842275
v -0.324847 -0.882036 1.376100
v -0.229964 -0.781346 2.435448
v -0.526051 -0.781346 1.946337
v -0.229964 -0.781346 1.946337
v -0.324847 -0.882036 1.923979
v -0.324847 -0.882036 2.457805
v -0.229964 -0.781346 3.028043
v -0.526051 -0.781347 3.517152
v -0.526051 -0.781346 3.028043
v -0.324847 -0.882037 3.005685
v -0.324847 -0.882037 3.539510
v -0.229964 -0.781347 3.517153
v -0.526051 -0.574580 -3.762707
v -0.526051 -0.781346 1.353743
v -0.526051 -0.574582 3.762707
v -0.526051 -0.781346 -1.891373
v -0.526051 -0.781346 2.435448
v -0.526051 -0.781346 -2.973079
v -0.526051 -0.781346 0.272039
v -0.526051 -0.781346 -0.809668
v -0.526051 -0.881403 -3.762708
v 0.526051 -0.881403 -3.484407
v 0.526051 -0.881404 -2.402701
v 0.526051 -0.881404 -1.320996
v 0.526051 -0.881404 -0.239290
v 0.526051 -0.881404 0.842416
v 0.526051 -0.881404 1.924121
v 0.526051 -0.881404 3.005826
v 0.225451 0.883057 3.762708
v 0.526051 -0.881403 -3.762708
v 0.526051 -0.881405 3.762707
v -0.526051 -0.881405 3.762707
v -0.526051 -0.881403 -3.484407
v -0.526051 -0.881404 -2.402701
v -0.526051 -0.881404 -1.320996
v -0.526051 -0.881404 -0.239290
v -0.526051 -0.881404 0.842416
v -0.526051 -0.881404 1.924121
v -0.526051 -0.881404 3.005826
v -0.526051 -0.881405 3.539371
v -0.526051 -0.881404 -2.950861
v -0.526051 -0.881404 2.457665
v -0.526051 -0.881404 -1.869156
v -0.526051 -0.881404 1.375960
v -0.526051 -0.881404 -0.787451
v -0.526051 -0.881404 0.294254
vt 0.894653 0.591338
vt 0.941521 0.526344
vt 0.941521 0.591338
vt 0.970370 0.804872
vt 0.954055 0.831609
vt 0.954055 0.792264
vt 0.932512 0.724298
vt 0.951441 0.792264
vt 0.932512 0.789293
vt 0.800915 0.656333
vt 0.847784 0.591339
vt 0.847784 0.656333
vt 0.929897 0.804872
vt 0.913582 0.831609
vt 0.913582 0.792264
vt 0.894653 0.792264
vt 0.913582 0.724298
vt 0.913582 0.789293
vt 0.847784 0.786322
vt 0.894653 0.721328
vt 0.894653 0.786322
vt 0.986685 0.773281
vt 0.970370 0.800017
vt 0.970370 0.760672
vt 0.960451 0.594309
vt 0.941521 0.526344
vt 0.960451 0.529315
vt 0.800915 0.591339
vt 0.847784 0.526344
vt 0.847784 0.591339
vt 0.910968 0.804872
vt 0.894653 0.831609
vt 0.894653 0.792264
vt 0.913582 0.792264
vt 0.932512 0.724298
vt 0.932512 0.789293
vt 0.847784 0.656333
vt 0.894653 0.591338
vt 0.894653 0.656333
vt 1.000000 0.209333
vt 0.983685 0.236070
vt 0.983685 0.196725
vt 0.960451 0.597280
vt 0.979380 0.529315
vt 0.979380 0.594309
vt 0.800915 0.721328
vt 0.847784 0.656333
vt 0.847784 0.721328
vt 1.000000 0.012608
vt 0.983685 0.039345
vt 0.983685 0.000000
vt 0.951441 0.792264
vt 0.970370 0.724298
vt 0.970370 0.789293
vt 0.894653 0.656333
vt 0.941521 0.721327
vt 0.894653 0.721327
vt 0.976766 0.680825
vt 0.960451 0.707562
vt 0.960451 0.668217
vt 0.960451 0.597280
vt 0.941521 0.665245
vt 0.941522 0.600251
vt 0.282819 0.000000
vt 0.190443 1.000000
vt 0.190444 0.000000
vt 0.047303 0.000000
vt 0.047303 1.000000
vt 0.015426 0.471155
vt 0.015426 0.392409
vt 0.919873 0.383017
vt 0.848498 0.461349
vt 0.848498 0.383017
vt 0.848498 0.078332
vt 0.919873 0.000000
vt 0.919873 0.078332
vt 0.729540 0.000000
vt 0.800915 1.000000
vt 0.729539 1.000000
vt 0.847784 0.798930
vt 0.864099 0.825667
vt 0.847886 0.825667
vt 0.983685 0.051953
vt 1.000000 0.078690
vt 0.983788 0.078690
vt 0.957836 0.473958
vt 0.974151 0.500694
vt 0.957939 0.500694
vt 0.976766 0.680825
vt 0.993081 0.707562
vt 0.976868 0.707562
vt 0.983685 0.288023
vt 1.000000 0.314760
vt 0.983787 0.314760
vt 0.941521 0.680825
vt 0.957836 0.707561
vt 0.941624 0.707561
vt 0.983685 0.327368
vt 1.000000 0.354104
vt 0.983788 0.354104
vt 0.894652 0.461349
vt 0.941521 0.526344
vt 0.894652 0.526344
vt 0.951441 0.831609
vt 0.935126 0.804872
vt 0.951441 0.792264
vt 0.967456 0.209838
vt 0.983685 0.141873
vt 0.983685 0.212809
vt 0.847784 0.461349
vt 0.894653 0.526344
vt 0.847784 0.526344
vt 0.990466 0.500694
vt 0.974151 0.473958
vt 0.990466 0.461349
vt 0.983685 0.002971
vt 0.967456 0.070937
vt 0.967456 0.000000
vt 0.800915 0.721328
vt 0.847784 0.786322
vt 0.800915 0.786322
vt 0.986685 0.760672
vt 0.970370 0.733936
vt 0.986685 0.721327
vt 0.983685 0.073908
vt 0.967456 0.141873
vt 0.967456 0.070937
vt 0.800915 0.461349
vt 0.847784 0.526344
vt 0.800915 0.526344
vt 0.880414 0.825667
vt 0.864099 0.798930
vt 0.880414 0.786322
vt 0.960451 0.600251
vt 0.976680 0.668217
vt 0.960451 0.665246
vt 0.847784 0.656333
vt 0.894653 0.721328
vt 0.847784 0.721328
vt 1.000000 0.196725
vt 0.983685 0.169988
vt 1.000000 0.157380
vt 0.983685 0.422647
vt 0.967456 0.354682
vt 0.983685 0.357653
vt 0.847784 0.526344
vt 0.894653 0.591338
vt 0.847784 0.591338
vt 0.986685 0.839362
vt 0.970370 0.812626
vt 0.986685 0.800017
vt 0.967456 0.286717
vt 0.983685 0.354682
vt 0.967456 0.351711
vt 0.894653 0.656333
vt 0.941521 0.591339
vt 0.941521 0.656333
vt 0.817230 0.825667
vt 0.800915 0.798931
vt 0.817230 0.786322
vt 0.967456 0.215780
vt 0.983685 0.283746
vt 0.967457 0.280775
vt 0.468170 0.000000
vt 0.562998 1.000000
vt 0.468170 1.000000
vt 0.331378 1.000000
vt 0.298654 0.385105
vt 0.298654 0.320111
vt 0.331378 0.000000
vt 0.992995 0.609889
vt 0.976680 0.636625
vt 0.976680 0.597280
vt 1.000000 0.130643
vt 0.983685 0.157380
vt 0.983685 0.118035
vt 0.957836 0.473958
vt 0.941521 0.500694
vt 0.941521 0.461349
vt 0.995695 0.538952
vt 0.979380 0.565689
vt 0.979380 0.526344
vt 0.983685 0.105426
vt 1.000000 0.078690
vt 1.000000 0.118035
vt 0.833545 0.798931
vt 0.817230 0.825667
vt 0.817230 0.786322
vt 1.000000 0.248678
vt 0.983685 0.275415
vt 0.983685 0.236070
vt 0.697690 0.963037
vt 0.729539 1.000000
vt 0.594847 0.963037
vt 0.894653 0.526344
vt 0.970268 0.831609
vt 0.951441 0.721327
vt 0.800915 0.591339
vt 0.929794 0.831609
vt 0.894653 0.721327
vt 0.847784 0.721328
vt 0.986583 0.800017
vt 0.941521 0.597280
vt 0.800915 0.526344
vt 0.910865 0.831609
vt 0.913582 0.721327
vt 0.847784 0.591338
vt 0.999898 0.236070
vt 0.960451 0.526344
vt 0.800915 0.656333
vt 0.999898 0.039345
vt 0.951441 0.721327
vt 0.941521 0.656333
vt 0.976663 0.707562
vt 0.960451 0.668217
vt 0.282818 1.000000
vt 0.000000 0.036981
vt 0.000000 0.000000
vt 0.015426 0.039934
vt 0.000000 1.000000
vt 0.015426 0.967370
vt 0.000000 0.970322
vt 0.000000 0.180722
vt 0.000000 0.107881
vt 0.015426 0.104928
vt 0.015426 0.902375
vt 0.000000 0.899423
vt 0.000000 0.826582
vt 0.015426 0.823629
vt 0.015426 0.758635
vt 0.015426 0.183674
vt 0.000000 0.755683
vt 0.000000 0.682842
vt 0.015426 0.248669
vt 0.000000 0.324462
vt 0.000000 0.251621
vt 0.015426 0.327414
vt 0.015426 0.679889
vt 0.015426 0.614895
vt 0.000000 0.611943
vt 0.000000 0.539101
vt 0.000000 0.468202
vt 0.000000 0.395361
vt 0.015426 0.536149
vt 0.800915 0.270787
vt 0.800915 0.230675
vt 0.967456 0.270787
vt 0.967456 0.230675
vt 0.919873 0.461349
vt 0.967456 0.190563
vt 0.967456 0.230675
vt 0.800915 0.190563
vt 0.800915 0.230675
vt 0.848498 0.000000
vt 0.800915 0.000000
vt 0.864099 0.786322
vt 1.000000 0.039345
vt 0.974151 0.461349
vt 0.993081 0.668217
vt 1.000000 0.275415
vt 0.957836 0.668217
vt 1.000000 0.314760
vt 0.941521 0.461349
vt 0.935229 0.831609
vt 0.967456 0.144844
vt 0.894653 0.461349
vt 0.974254 0.500694
vt 0.983685 0.067966
vt 0.847784 0.721328
vt 0.970473 0.760672
vt 0.983685 0.138902
vt 0.847784 0.461349
vt 0.864201 0.825667
vt 0.976680 0.597280
vt 0.894653 0.656333
vt 0.983788 0.196725
vt 0.967456 0.425618
vt 0.894653 0.526344
vt 0.970473 0.839362
vt 0.983685 0.283746
vt 0.894653 0.591338
vt 0.801017 0.825667
vt 0.983685 0.212809
vt 0.562998 0.000000
vt 0.282819 1.000000
vt 0.298654 0.960066
vt 0.282819 0.963019
vt 0.282819 0.029678
vt 0.282819 0.000000
vt 0.298654 0.032630
vt 0.298654 0.528845
vt 0.298654 0.895072
vt 0.282819 0.892119
vt 0.298654 0.816326
vt 0.282819 0.819278
vt 0.298654 0.097624
vt 0.282819 0.173418
vt 0.282819 0.100577
vt 0.298654 0.176370
vt 0.298654 0.751331
vt 0.282819 0.748379
vt 0.282819 0.675538
vt 0.298654 0.672586
vt 0.282819 0.317158
vt 0.282819 0.244317
vt 0.298654 0.241365
vt 0.298654 0.607591
vt 0.282819 0.604639
vt 0.282819 0.531798
vt 0.298654 0.463851
vt 0.282819 0.460899
vt 0.282819 0.388057
vt 0.992892 0.636625
vt 0.999898 0.157380
vt 0.957734 0.500694
vt 0.995592 0.565689
vt 0.983788 0.078690
vt 0.833442 0.825667
vt 0.999898 0.275415
vt 0.562998 0.000000
vt 0.729539 0.000000
vt 0.697690 0.029659
vt 0.729539 0.029678
vt 0.594847 0.029659
vt 0.562998 0.029678
vt 0.562998 0.173418
vt 0.562998 0.100577
vt 0.594847 0.100595
vt 0.594847 0.173399
vt 0.697690 0.100595
vt 0.729539 0.100577
vt 0.729539 0.173418
vt 0.594847 0.244336
vt 0.697690 0.173399
vt 0.562998 0.317158
vt 0.562998 0.244317
vt 0.697690 0.244336
vt 0.729539 0.244317
vt 0.729539 0.317158
vt 0.594847 0.317140
vt 0.562998 0.460899
vt 0.562998 0.388057
vt 0.594847 0.388076
vt 0.594847 0.460880
vt 0.697690 0.317140
vt 0.697690 0.388076
vt 0.729539 0.388057
vt 0.729539 0.460899
vt 0.697690 0.460880
vt 0.594847 0.531816
vt 0.562998 0.604639
vt 0.562998 0.531798
vt 0.594847 0.604620
vt 0.697690 0.531816
vt 0.729539 0.531798
vt 0.697690 0.604620
vt 0.729539 0.604639
vt 0.594847 0.675556
vt 0.697690 0.675556
vt 0.729539 0.675538
vt 0.697690 0.748360
vt 0.729539 0.748379
vt 0.562998 0.748379
vt 0.562998 0.675538
vt 0.594847 0.748360
vt 0.697690 0.819297
vt 0.729539 0.819278
vt 0.729539 0.892119
vt 0.697690 0.892101
vt 0.562998 0.892119
vt 0.562998 0.819278
vt 0.594847 0.819297
vt 0.594847 0.892101
vt 0.562998 1.000000
vt 0.562998 0.963019
vt 0.729539 0.963019
vn 0.0000 -1.0000 -0.0000
vn 0.0000 -0.2168 0.9762
vn 0.7278 0.6858 0.0000
vn 1.0000 -0.0000 0.0000
vn 0.9438 0.3305 0.0000
vn 0.0000 0.0000 -1.0000
vn 0.0000 -0.0000 1.0000
vn 0.0000 1.0000 0.0000
vn -0.0000 -0.2168 -0.9762
vn -0.0000 -0.2167 -0.9762
vn -0.7278 0.6858 0.0000
vn -1.0000 0.0000 0.0000
vn -0.9438 0.3305 0.0000
vn -0.0006 -1.0000 -0.0011
vn -0.0013 -1.0000 -0.0014
vn 0.0006 -1.0000 -0.0011
vn 0.0015 -1.0000 0.0015
vn -0.0015 -1.0000 0.0015
vn -0.0006 -1.0000 0.0014
vn -0.0031 -1.0000 0.0000
vn 0.0006 -1.0000 0.0014
vn 0.0031 -1.0000 0.0000
vn 0.0010 -1.0000 -0.0000
vn -0.0010 -1.0000 -0.0000
vn 0.0013 -1.0000 -0.0014
s 1
f 1/1/1 2/2/1 3/3/1
f 4/4/2 1/5/2 3/6/2
f 2/7/3 4/8/3 3/9/3
f 5/10/1 6/11/1 7/12/1
f 8/13/2 5/14/2 7/15/2
f 9/16/3 7/17/3 6/18/3
f 10/19/1 11/20/1 12/21/1
f 13/22/2 10/23/2 12/24/2
f 11/25/3 13/26/3 12/27/3
f 14/28/1 15/29/1 16/30/1
f 17/31/2 14/32/2 16/33/2
f 18/34/3 16/35/3 15/36/3
f 19/37/1 20/38/1 21/39/1
f 22/40/2 19/41/2 21/42/2
f 23/43/3 21/44/3 20/45/3
f 24/46/1 25/47/1 26/48/1
f 27/49/2 24/50/2 26/51/2
f 28/52/3 26/53/3 25/54/3
f 29/55/1 30/56/1 31/57/1
f 32/58/2 33/59/2 29/60/2
f 34/61/3 29/62/3 31/63/3
f 35/64/4 36/65/4 37/66/4
f 38/67/5 36/65/5 39/68/5
f 14/69/4 40/70/4 38/67/4
f 41/71/6 35/72/6 37/73/6
f 36/74/7 42/75/7 43/76/7
f 42/77/8 35/78/8 44/79/8
f 9/80/9 45/81/9 46/82/9
f 28/83/9 47/84/9 48/85/9
f 49/86/9 50/87/9 51/88/9
f 18/89/9 52/90/10 53/91/10
f 34/92/9 30/93/9 54/94/9
f 55/95/9 40/96/9 56/97/9
f 23/98/9 57/99/9 58/100/9
f 59/101/1 60/102/1 61/103/1
f 60/104/2 62/105/2 61/106/2
f 59/107/11 62/108/11 63/109/11
f 64/110/1 65/111/1 66/112/1
f 65/113/2 67/114/2 66/115/2
f 64/116/11 67/117/11 68/118/11
f 69/119/1 70/120/1 71/121/1
f 70/122/2 72/123/2 71/124/2
f 69/125/11 72/126/11 73/127/11
f 74/128/1 75/129/1 76/130/1
f 75/131/2 77/132/2 76/133/2
f 76/134/11 78/135/11 74/136/11
f 79/137/1 80/138/1 81/139/1
f 80/140/2 82/141/2 81/142/2
f 81/143/11 83/144/11 79/145/11
f 84/146/1 85/147/1 86/148/1
f 85/149/2 87/150/2 86/151/2
f 86/152/11 88/153/11 84/154/11
f 89/155/1 90/156/1 91/157/1
f 91/158/2 92/159/2 89/160/2
f 89/161/11 93/162/11 94/163/11
f 43/164/12 44/165/12 41/166/12
f 95/167/13 43/164/13 41/166/13
f 80/168/12 96/169/12 97/170/12
f 68/171/9 98/172/9 64/173/9
f 88/174/9 99/175/9 84/176/9
f 63/177/9 100/178/9 59/179/9
f 78/180/9 101/181/10 74/182/9
f 93/183/9 90/184/9 94/185/9
f 73/186/9 102/187/9 69/188/9
f 83/189/9 96/190/9 79/191/9
f 62/192/14 103/193/15 4/194/16
f 1/1/1 50/195/1 2/2/1
f 4/4/2 104/196/2 1/5/2
f 2/7/3 49/197/3 4/8/3
f 5/10/1 45/198/1 6/11/1
f 8/13/2 105/199/2 5/14/2
f 9/16/3 8/200/3 7/17/3
f 10/19/1 40/201/1 11/20/1
f 13/22/2 106/202/2 10/23/2
f 11/25/3 55/203/3 13/26/3
f 14/28/1 52/204/1 15/29/1
f 17/31/2 107/205/2 14/32/2
f 18/34/3 17/206/3 16/35/3
f 19/37/1 57/207/1 20/38/1
f 22/40/2 108/208/2 19/41/2
f 23/43/3 22/209/3 21/44/3
f 24/46/1 47/210/1 25/47/1
f 27/49/2 109/211/2 24/50/2
f 28/52/3 27/212/3 26/53/3
f 29/55/1 33/213/1 30/56/1
f 32/58/2 110/214/2 33/59/2
f 34/61/3 32/215/3 29/62/3
f 35/64/4 111/216/4 36/65/4
f 38/67/5 37/66/5 36/65/5
f 104/217/4 112/218/4 1/219/4
f 112/218/4 38/67/4 1/219/4
f 39/68/4 113/220/4 30/221/4
f 113/220/4 54/222/4 30/221/4
f 105/223/4 51/224/4 50/225/4
f 50/225/4 1/219/4 38/67/4
f 38/67/4 39/68/4 14/69/4
f 39/68/4 30/221/4 33/226/4
f 33/226/4 110/227/4 48/228/4
f 39/68/4 33/226/4 47/229/4
f 24/230/4 39/68/4 47/229/4
f 105/223/4 50/225/4 5/231/4
f 50/225/4 38/67/4 5/231/4
f 33/226/4 48/228/4 47/229/4
f 24/230/4 109/232/4 58/233/4
f 45/234/4 5/231/4 38/67/4
f 106/235/4 46/236/4 45/234/4
f 10/237/4 106/235/4 45/234/4
f 39/68/4 24/230/4 57/238/4
f 19/239/4 39/68/4 57/238/4
f 24/230/4 58/233/4 57/238/4
f 19/239/4 108/240/4 53/241/4
f 10/237/4 45/234/4 38/67/4
f 107/242/4 56/243/4 40/70/4
f 40/70/4 10/237/4 38/67/4
f 39/68/4 19/239/4 52/244/4
f 14/69/4 39/68/4 52/244/4
f 19/239/4 53/241/4 52/244/4
f 14/69/4 107/242/4 40/70/4
f 37/73/6 38/245/6 41/71/6
f 38/245/6 112/246/6 95/247/6
f 41/71/6 38/245/6 95/247/6
f 112/246/6 103/248/6 95/247/6
f 41/71/6 44/249/6 35/72/6
f 43/76/7 97/250/7 36/74/7
f 97/250/7 114/251/7 39/252/7
f 36/74/7 97/250/7 39/252/7
f 114/251/7 113/253/7 39/252/7
f 36/74/7 111/254/7 42/75/7
f 42/77/8 111/255/8 35/78/8
f 9/80/9 6/256/9 45/81/9
f 28/83/9 25/257/9 47/84/9
f 49/86/9 2/258/9 50/87/9
f 18/89/9 15/259/9 52/90/10
f 34/92/9 31/260/9 30/93/9
f 55/95/9 11/261/9 40/96/9
f 23/98/9 20/262/9 57/99/9
f 59/101/1 100/263/1 60/102/1
f 60/104/2 115/264/2 62/105/2
f 59/107/11 61/265/11 62/108/11
f 64/110/1 98/266/1 65/111/1
f 65/113/2 116/267/2 67/114/2
f 64/116/11 66/268/11 67/117/11
f 69/119/1 102/269/1 70/120/1
f 70/122/2 117/270/2 72/123/2
f 69/125/11 71/271/11 72/126/11
f 74/128/1 101/272/1 75/129/1
f 75/131/2 118/273/2 77/132/2
f 76/134/11 77/274/11 78/135/11
f 79/137/1 96/275/1 80/138/1
f 80/140/2 119/276/2 82/141/2
f 81/143/11 82/277/11 83/144/11
f 84/146/1 99/278/1 85/147/1
f 85/149/2 120/279/2 87/150/2
f 86/152/11 87/280/11 88/153/11
f 89/155/1 94/281/1 90/156/1
f 91/158/2 121/282/2 92/159/2
f 89/161/11 92/283/11 93/162/11
f 43/164/12 42/284/12 44/165/12
f 95/167/13 97/170/13 43/164/13
f 95/167/12 103/285/12 60/286/12
f 103/285/12 115/287/12 60/286/12
f 122/288/12 114/289/12 90/290/12
f 114/289/12 97/170/12 90/290/12
f 97/170/12 95/167/12 75/291/12
f 95/167/12 60/286/12 100/292/12
f 100/292/12 123/293/12 65/294/12
f 123/293/12 116/295/12 65/294/12
f 95/167/12 100/292/12 65/294/12
f 91/296/12 90/290/12 97/170/12
f 124/297/12 121/298/12 91/296/12
f 99/299/12 124/297/12 91/296/12
f 98/300/12 125/301/12 117/302/12
f 95/167/12 65/294/12 98/300/12
f 98/300/12 117/302/12 70/303/12
f 95/167/12 98/300/12 70/303/12
f 99/299/12 91/296/12 97/170/12
f 126/304/12 120/305/12 85/306/12
f 85/306/12 99/299/12 97/170/12
f 95/167/12 70/303/12 102/307/12
f 102/307/12 127/308/12 118/309/12
f 95/167/12 102/307/12 75/291/12
f 96/169/12 126/304/12 85/306/12
f 102/307/12 118/309/12 75/291/12
f 101/310/12 128/311/12 119/312/12
f 101/310/12 119/312/12 80/168/12
f 97/170/12 75/291/12 101/310/12
f 96/169/12 85/306/12 97/170/12
f 97/170/12 101/310/12 80/168/12
f 68/171/9 125/313/9 98/172/9
f 88/174/9 124/314/9 99/175/9
f 63/177/9 123/315/9 100/178/9
f 78/180/9 128/316/10 101/181/10
f 93/183/9 122/317/9 90/184/9
f 73/186/9 127/318/9 102/187/9
f 83/189/9 126/319/9 96/190/9
f 113/320/17 114/321/18 93/322/19
f 114/321/18 122/323/20 93/322/19
f 34/324/21 54/325/22 113/320/17
f 48/326/22 110/327/22 32/328/23
f 34/324/21 113/320/17 93/322/19
f 28/329/23 48/326/22 32/328/23
f 32/328/23 34/324/21 93/322/19
f 92/330/24 121/331/20 124/332/20
f 32/328/23 93/322/19 92/330/24
f 27/333/23 28/329/23 88/334/24
f 28/329/23 32/328/23 88/334/24
f 32/328/23 92/330/24 88/334/24
f 92/330/24 124/332/20 88/334/24
f 58/335/22 109/336/22 27/333/23
f 87/337/24 120/338/20 126/339/20
f 27/333/23 88/334/24 87/337/24
f 23/340/23 58/335/22 27/333/23
f 53/341/22 108/342/22 22/343/23
f 23/340/23 27/333/23 87/337/24
f 18/344/23 53/341/22 22/343/23
f 22/343/23 23/340/23 83/345/24
f 23/340/23 87/337/24 83/345/24
f 87/337/24 126/339/20 83/345/24
f 82/346/24 119/347/20 128/348/20
f 82/346/24 128/348/20 78/349/24
f 22/343/23 83/345/24 82/346/24
f 17/350/23 18/344/23 78/349/24
f 18/344/23 22/343/23 82/346/24
f 56/351/22 107/352/22 55/353/23
f 107/352/22 17/350/23 55/353/23
f 18/344/23 82/346/24 78/349/24
f 78/349/24 77/354/24 17/350/23
f 77/354/24 118/355/20 73/356/24
f 118/355/20 127/357/20 73/356/24
f 13/358/23 55/353/23 72/359/24
f 55/353/23 17/350/23 73/356/24
f 72/359/24 55/353/23 73/356/24
f 17/350/23 77/354/24 73/356/24
f 72/359/24 117/360/20 68/361/24
f 117/360/20 125/362/20 68/361/24
f 46/363/22 106/364/22 9/365/23
f 106/364/22 13/358/23 9/365/23
f 67/366/24 116/367/20 123/368/20
f 13/358/23 72/359/24 68/361/24
f 67/366/24 123/368/20 63/369/24
f 13/358/23 68/361/24 9/365/23
f 68/361/24 67/366/24 9/365/23
f 51/370/22 105/371/22 8/372/23
f 49/373/23 51/370/22 8/372/23
f 8/372/23 9/365/23 67/366/24
f 67/366/24 63/369/24 49/373/23
f 63/369/24 62/192/14 4/194/16
f 49/373/23 8/372/23 67/366/24
f 112/374/25 104/375/22 4/194/16
f 4/194/16 49/373/23 63/369/24
f 62/192/14 115/376/20 103/193/15
f 103/193/15 112/374/25 4/194/16
