# Blender v2.80 (sub 43) OBJ File: '14.blend'
# www.blender.org
o LOWPOLY_ORIGINAL_CUBezierCurve.003
v 0.526051 -0.781344 -3.462189
v 0.229964 -0.781346 -2.973079
v 0.229964 -0.781344 -3.462189
v 0.324847 -0.882035 -3.484547
v 0.526051 -0.781346 -2.380484
v 0.229964 -0.781346 -1.891373
v 0.229964 -0.781346 -2.380484
v 0.324847 -0.882037 -2.402842
v 0.324847 -0.882037 -1.869015
v 0.526051 -0.781346 -1.298778
v 0.229964 -0.781346 -0.809668
v 0.229964 -0.781346 -1.298778
v 0.324847 -0.882037 -1.321136
v 0.526051 -0.781346 -0.217073
v 0.229964 -0.781346 0.272039
v 0.229964 -0.781346 -0.217073
v 0.324847 -0.882037 -0.239431
v 0.324847 -0.882037 0.294396
v 0.526051 -0.781346 0.864632
v 0.229964 -0.781346 1.353743
v 0.229964 -0.781346 0.864632
v 0.324847 -0.882036 0.842275
v 0.324847 -0.882036 1.376100
v 0.526051 -0.781346 1.946337
v 0.229964 -0.781346 2.435448
v 0.229964 -0.781346 1.946337
v 0.324847 -0.882036 1.923979
v 0.324847 -0.882036 2.457805
v 0.229964 -0.781346 3.028043
v 0.526051 -0.781348 3.517152
v 0.229964 -0.781348 3.517153
v 0.324847 -0.882037 3.005685
v 0.526051 -0.781346 3.028043
v 0.324847 -0.882038 3.539510
v 0.225451 0.883059 -3.762707
v 0.225451 0.283883 3.762707
v 0.225451 0.283886 -3.762707
v 0.526051 -0.574579 -3.762707
v 0.526051 -0.574583 3.762707
v 0.526051 -0.781346 -0.809668
v -0.225451 0.283886 -3.762707
v -0.225451 0.883056 3.762708
v -0.225451 0.283883 3.762707
v -0.225451 0.883059 -3.762707
v 0.526051 -0.781346 -1.891373
v 0.526051 -0.881404 -1.869156
v 0.526051 -0.781346 2.435448
v 0.526051 -0.881404 2.457665
v 0.324847 -0.882037 -2.950721
v 0.526051 -0.781346 -2.973079
v 0.526051 -0.881404 -2.950861
v 0.526051 -0.781346 0.272039
v 0.526051 -0.881404 0.294254
v 0.526051 -0.881406 3.539371
v 0.324847 -0.882037 -0.787310
v 0.526051 -0.881404 -0.787451
v 0.526051 -0.781346 1.353743
v 0.526051 -0.881404 1.375960
v -0.229964 -0.781346 -2.973079
v -0.526051 -0.781344 -3.462189
v -0.229964 -0.781344 -3.462189
v -0.324847 -0.882035 -3.484547
v -0.324847 -0.882037 -2.950721
v -0.229964 -0.781346 -1.891373
v -0.526051 -0.781346 -2.380484
v -0.229964 -0.781346 -2.380484
v -0.324847 -0.882037 -2.402842
v -0.324847 -0.882037 -1.869015
v -0.229964 -0.781346 -0.809668
v -0.526051 -0.781346 -1.298778
v -0.229964 -0.781346 -1.298778
v -0.324847 -0.882037 -1.321136
v -0.324847 -0.882037 -0.787310
v -0.229964 -0.781346 0.272039
v -0.526051 -0.781346 -0.217073
v -0.229964 -0.781346 -0.217073
v -0.324847 -0.882037 -0.239431
v -0.324847 -0.882037 0.294396
v -0.229964 -0.781346 1.353743
v -0.526051 -0.781346 0.864632
v -0.229964 -0.781346 0.864632
v -0.324847 -0.882036 0.842275
v -0.324847 -0.882036 1.376100
v -0.229964 -0.781346 2.435448
v -0.526051 -0.781346 1.946337
v -0.229964 -0.781346 1.946337
v -0.324847 -0.882036 1.923979
v -0.324847 -0.882036 2.457805
v -0.229964 -0.781346 3.028043
v -0.526051 -0.781348 3.517152
v -0.526051 -0.781346 3.028043
v -0.324847 -0.882037 3.005685
v -0.324847 -0.882038 3.539510
v -0.229964 -0.781348 3.517153
v -0.526051 -0.574579 -3.762707
v -0.526051 -0.781346 1.353743
v -0.526051 -0.574583 3.762707
v -0.526051 -0.781346 -1.891373
v -0.526051 -0.781346 2.435448
v -0.526051 -0.781346 -2.973079
v -0.526051 -0.781346 0.272039
v -0.526051 -0.781346 -0.809668
v -0.526051 -0.881402 -3.762708
v 0.526051 -0.881402 -3.484407
v 0.526051 -0.881404 -2.402701
v 0.526051 -0.881404 -1.320996
v 0.526051 -0.881404 -0.239290
v 0.526051 -0.881404 0.842416
v 0.526051 -0.881404 1.924121
v 0.526051 -0.881404 3.005826
v 0.225451 0.883056 3.762708
v 0.526051 -0.881402 -3.762708
v 0.526051 -0.881406 3.762707
v -0.526051 -0.881406 3.762707
v -0.526051 -0.881402 -3.484407
v -0.526051 -0.881404 -2.402701
v -0.526051 -0.881404 -1.320996
v -0.526051 -0.881404 -0.239290
v -0.526051 -0.881404 0.842416
v -0.526051 -0.881404 1.924121
v -0.526051 -0.881404 3.005826
v -0.526051 -0.881406 3.539371
v -0.526051 -0.881404 -2.950861
v -0.526051 -0.881404 2.457665
v -0.526051 -0.881404 -1.869156
v -0.526051 -0.881404 1.375960
v -0.526051 -0.881404 -0.787451
v -0.526051 -0.881404 0.294254
vt 0.750204 0.629346
vt 0.717184 0.694442
vt 0.712436 0.674905
vt 0.691144 0.657285
vt 0.863047 0.391713
vt 0.830099 0.451440
vt 0.823298 0.426784
vt 0.810507 0.408545
vt 0.818328 0.468562
vt 0.809886 0.510696
vt 0.776866 0.575792
vt 0.772118 0.556255
vt 0.750826 0.538636
vt 0.803365 0.747661
vt 0.770417 0.807388
vt 0.763617 0.782732
vt 0.750825 0.764493
vt 0.758646 0.824510
vt 0.909688 0.747661
vt 0.876739 0.807388
vt 0.869939 0.782732
vt 0.857148 0.764493
vt 0.864969 0.824510
vt 0.883429 0.018025
vt 0.850480 0.077751
vt 0.843680 0.053095
vt 0.830889 0.034856
vt 0.838710 0.094873
vt 0.717183 0.764832
vt 0.750204 0.829928
vt 0.712436 0.784369
vt 0.711487 0.749103
vt 0.750204 0.744644
vt 0.691144 0.801988
vt 0.490530 0.000695
vt 0.411048 0.998965
vt 0.411048 0.000695
vt 0.290391 0.000695
vt 0.290390 0.998965
vt 0.262962 0.471034
vt 0.260691 0.392264
vt 0.770375 0.333628
vt 0.691144 0.274004
vt 0.770375 0.274004
vt 0.730893 0.079542
vt 0.790518 0.000311
vt 0.790518 0.079542
vt 0.630897 0.000311
vt 0.690522 0.995426
vt 0.630897 0.995426
vt 0.863047 0.480151
vt 0.849124 0.495794
vt 0.883429 0.106463
vt 0.869506 0.122106
vt 0.711487 0.710170
vt 0.750204 0.714630
vt 0.740398 0.729326
vt 0.803365 0.836100
vt 0.789442 0.851742
vt 0.726719 0.847975
vt 0.771169 0.591521
vt 0.809886 0.595981
vt 0.800080 0.610677
vt 0.909688 0.836100
vt 0.895765 0.851742
vt 0.717184 0.527534
vt 0.750204 0.592630
vt 0.712436 0.547070
vt 0.691144 0.564690
vt 0.711487 0.511805
vt 0.717184 0.408884
vt 0.750204 0.473980
vt 0.712436 0.428421
vt 0.691144 0.446041
vt 0.711487 0.393155
vt 0.776866 0.408884
vt 0.809886 0.473980
vt 0.772118 0.428421
vt 0.750826 0.446041
vt 0.771169 0.393155
vt 0.823578 0.774302
vt 0.856527 0.834029
vt 0.816778 0.798958
vt 0.803987 0.817197
vt 0.811808 0.757180
vt 0.883260 0.418354
vt 0.916208 0.478080
vt 0.876460 0.443010
vt 0.863669 0.461249
vt 0.871490 0.401232
vt 0.830099 0.540770
vt 0.863047 0.600497
vt 0.823298 0.565426
vt 0.810507 0.583665
vt 0.818328 0.523648
vt 0.776865 0.694442
vt 0.809886 0.629346
vt 0.809886 0.714630
vt 0.771169 0.710171
vt 0.750825 0.657285
vt 0.772117 0.674905
vt 0.167090 0.001064
vt 0.246012 0.992300
vt 0.167091 0.992300
vt 0.047283 0.992300
vt 0.014101 0.382320
vt 0.014137 0.317804
vt 0.047282 0.001064
vt 0.750204 0.388696
vt 0.863047 0.512059
vt 0.750204 0.507345
vt 0.856527 0.745590
vt 0.809886 0.388696
vt 0.916208 0.389642
vt 0.603670 0.958645
vt 0.630276 0.995427
vt 0.517758 0.958645
vt 0.726720 0.611298
vt 0.845393 0.374000
vt 0.786402 0.492649
vt 0.785711 0.729948
vt 0.892033 0.729948
vt 0.865774 0.000311
vt 0.740398 0.729948
vt 0.490530 0.998965
vt 0.249343 0.037227
vt 0.249691 0.000311
vt 0.262587 0.040299
vt 0.261927 0.999689
vt 0.270630 0.976673
vt 0.261400 0.978971
vt 0.247988 0.180713
vt 0.248675 0.108001
vt 0.261975 0.105179
vt 0.269476 0.931299
vt 0.260141 0.929474
vt 0.258848 0.878621
vt 0.268077 0.876324
vt 0.266923 0.830951
vt 0.261233 0.183786
vt 0.257590 0.829126
vt 0.256297 0.778281
vt 0.260621 0.248665
vt 0.246634 0.324202
vt 0.247320 0.251487
vt 0.259879 0.327274
vt 0.265525 0.775985
vt 0.264284 0.718506
vt 0.248794 0.715301
vt 0.247571 0.630712
vt 0.249577 0.468464
vt 0.247476 0.395601
vt 0.262962 0.627061
vt 0.883893 0.234254
vt 0.924465 0.234254
vt 0.883893 0.373378
vt 0.924465 0.373378
vt 0.691144 0.333628
vt 0.830267 0.193060
vt 0.830267 0.233633
vt 0.691144 0.193060
vt 0.691144 0.233633
vt 0.730893 0.000311
vt 0.690522 0.000311
vt 0.726720 0.610677
vt 0.726720 0.492027
vt 0.786402 0.492027
vt 0.838872 0.851742
vt 0.898554 0.495794
vt 0.845392 0.618210
vt 0.800080 0.729326
vt 0.246012 0.001064
vt 0.012772 0.992725
vt 0.023610 0.958785
vt 0.012386 0.961422
vt 0.006327 0.029723
vt 0.006876 0.000311
vt 0.019450 0.032894
vt 0.020048 0.525277
vt 0.022932 0.903769
vt 0.011647 0.901409
vt 0.022112 0.837114
vt 0.010888 0.839752
vt 0.018249 0.097307
vt 0.003671 0.172176
vt 0.005017 0.099987
vt 0.016793 0.175347
vt 0.021434 0.782105
vt 0.010151 0.779745
vt 0.009392 0.718100
vt 0.020613 0.715463
vt 0.001014 0.314632
vt 0.002360 0.242440
vt 0.015592 0.239760
vt 0.020048 0.642170
vt 0.000311 0.637788
vt 0.000311 0.529660
vt 0.015362 0.460540
vt 0.002108 0.457820
vt 0.000941 0.385466
vt 0.740399 0.374000
vt 0.849124 0.496416
vt 0.740398 0.492649
vt 0.842604 0.729948
vt 0.786401 0.611298
vt 0.800080 0.374000
vt 0.902285 0.374000
vt 0.491152 0.000311
vt 0.630275 0.000311
vt 0.603669 0.029825
vt 0.630276 0.029843
vt 0.517758 0.029825
vt 0.491152 0.029843
vt 0.491152 0.172882
vt 0.491152 0.100396
vt 0.517758 0.100415
vt 0.517758 0.172863
vt 0.603669 0.100415
vt 0.630276 0.100396
vt 0.630276 0.172882
vt 0.517758 0.243453
vt 0.603669 0.172864
vt 0.491152 0.315920
vt 0.491152 0.243435
vt 0.603669 0.243453
vt 0.630275 0.243435
vt 0.630275 0.315920
vt 0.517758 0.315902
vt 0.491152 0.458959
vt 0.491152 0.386473
vt 0.517758 0.386491
vt 0.517758 0.458940
vt 0.603669 0.315902
vt 0.603669 0.386492
vt 0.630275 0.386473
vt 0.630275 0.458959
vt 0.603669 0.458940
vt 0.517758 0.529530
vt 0.491152 0.601997
vt 0.491152 0.529511
vt 0.517758 0.601978
vt 0.603669 0.529530
vt 0.630275 0.529511
vt 0.603669 0.601978
vt 0.630275 0.601997
vt 0.517758 0.672568
vt 0.603669 0.672568
vt 0.630276 0.672549
vt 0.603669 0.745016
vt 0.630276 0.745035
vt 0.491152 0.745035
vt 0.491152 0.672550
vt 0.517758 0.745016
vt 0.603669 0.815606
vt 0.630276 0.815588
vt 0.630276 0.888073
vt 0.603670 0.888055
vt 0.491152 0.888073
vt 0.491152 0.815588
vt 0.517758 0.815606
vt 0.517758 0.888055
vt 0.491152 0.995427
vt 0.491152 0.958626
vt 0.630276 0.958626
vn 0.0000 -1.0000 -0.0000
vn 0.0000 -0.2168 0.9762
vn 0.7278 0.6858 0.0000
vn 1.0000 0.0000 0.0000
vn 0.9438 0.3305 0.0000
vn 0.0000 0.0000 -1.0000
vn 0.0000 -0.0000 1.0000
vn 0.0000 1.0000 0.0000
vn -0.0000 -0.2168 -0.9762
vn -0.0000 -0.2167 -0.9762
vn -0.7278 0.6858 0.0000
vn -1.0000 -0.0000 0.0000
vn -0.9438 0.3305 0.0000
vn 0.0000 -1.0000 -0.0023
vn 0.0000 -1.0000 0.0028
vn -0.0031 -1.0000 0.0000
vn 0.0031 -1.0000 0.0000
s off
f 1/1/1 2/2/1 3/3/1
f 4/4/2 1/1/2 3/3/2
f 2/2/3 4/4/3 3/3/3
f 5/5/1 6/6/1 7/7/1
f 8/8/2 5/5/2 7/7/2
f 9/9/3 7/7/3 6/6/3
f 10/10/1 11/11/1 12/12/1
f 13/13/2 10/10/2 12/12/2
f 11/11/3 13/13/3 12/12/3
f 14/14/1 15/15/1 16/16/1
f 17/17/2 14/14/2 16/16/2
f 18/18/3 16/16/3 15/15/3
f 19/19/1 20/20/1 21/21/1
f 22/22/2 19/19/2 21/21/2
f 23/23/3 21/21/3 20/20/3
f 24/24/1 25/25/1 26/26/1
f 27/27/2 24/24/2 26/26/2
f 28/28/3 26/26/3 25/25/3
f 29/29/1 30/30/1 31/31/1
f 32/32/2 33/33/2 29/29/2
f 34/34/3 29/29/3 31/31/3
f 35/35/4 36/36/4 37/37/4
f 38/38/5 36/36/5 39/39/5
f 14/40/4 40/41/4 38/38/4
f 41/42/6 35/43/6 37/44/6
f 36/45/7 42/46/7 43/47/7
f 42/48/8 35/49/8 44/50/8
f 9/9/9 45/51/9 46/52/9
f 28/28/9 47/53/9 48/54/9
f 49/55/9 50/56/9 51/57/9
f 18/18/10 52/58/10 53/59/10
f 34/34/9 30/30/9 54/60/9
f 55/61/9 40/62/9 56/63/9
f 23/23/9 57/64/9 58/65/9
f 59/66/1 60/67/1 61/68/1
f 60/67/2 62/69/2 61/68/2
f 59/66/11 62/69/11 63/70/11
f 64/71/1 65/72/1 66/73/1
f 65/72/2 67/74/2 66/73/2
f 64/71/11 67/74/11 68/75/11
f 69/76/1 70/77/1 71/78/1
f 70/77/2 72/79/2 71/78/2
f 69/76/11 72/79/11 73/80/11
f 74/81/1 75/82/1 76/83/1
f 75/82/2 77/84/2 76/83/2
f 76/83/11 78/85/11 74/81/11
f 79/86/1 80/87/1 81/88/1
f 80/87/2 82/89/2 81/88/2
f 81/88/11 83/90/11 79/86/11
f 84/91/1 85/92/1 86/93/1
f 85/92/2 87/94/2 86/93/2
f 86/93/11 88/95/11 84/91/11
f 89/96/1 90/97/1 91/98/1
f 91/98/2 92/99/2 89/96/2
f 89/96/11 93/100/11 94/101/11
f 43/102/12 44/103/12 41/104/12
f 95/105/13 43/102/13 41/104/13
f 80/106/12 96/107/12 97/108/12
f 68/75/9 98/109/9 64/71/9
f 88/95/9 99/110/9 84/91/9
f 63/70/9 100/111/9 59/66/9
f 78/85/9 101/112/9 74/81/9
f 93/100/9 90/97/9 94/101/9
f 73/80/9 102/113/9 69/76/9
f 83/90/9 96/114/9 79/86/9
f 62/115/14 103/116/14 4/117/14
f 1/1/1 50/56/1 2/2/1
f 4/4/2 104/118/2 1/1/2
f 2/2/3 49/55/3 4/4/3
f 5/5/1 45/51/1 6/6/1
f 8/8/2 105/119/2 5/5/2
f 9/9/3 8/8/3 7/7/3
f 10/10/1 40/62/1 11/11/1
f 13/13/2 106/120/2 10/10/2
f 11/11/3 55/61/3 13/13/3
f 14/14/1 52/58/1 15/15/1
f 17/17/2 107/121/2 14/14/2
f 18/18/3 17/17/3 16/16/3
f 19/19/1 57/64/1 20/20/1
f 22/22/2 108/122/2 19/19/2
f 23/23/3 22/22/3 21/21/3
f 24/24/1 47/53/1 25/25/1
f 27/27/2 109/123/2 24/24/2
f 28/28/3 27/27/3 26/26/3
f 29/29/1 33/33/1 30/30/1
f 32/32/2 110/124/2 33/33/2
f 34/34/3 32/32/3 29/29/3
f 35/35/4 111/125/4 36/36/4
f 38/38/5 37/37/5 36/36/5
f 104/126/4 112/127/4 1/128/4
f 112/127/4 38/38/4 1/128/4
f 39/39/4 113/129/4 30/130/4
f 113/129/4 54/131/4 30/130/4
f 105/132/4 51/133/4 50/134/4
f 50/134/4 1/128/4 38/38/4
f 38/38/4 39/39/4 14/40/4
f 39/39/4 30/130/4 33/135/4
f 33/135/4 110/136/4 48/137/4
f 39/39/4 33/135/4 47/138/4
f 24/139/4 39/39/4 47/138/4
f 105/132/4 50/134/4 5/140/4
f 50/134/4 38/38/4 5/140/4
f 33/135/4 48/137/4 47/138/4
f 24/139/4 109/141/4 58/142/4
f 45/143/4 5/140/4 38/38/4
f 106/144/4 46/145/4 45/143/4
f 10/146/4 106/144/4 45/143/4
f 39/39/4 24/139/4 57/147/4
f 19/148/4 39/39/4 57/147/4
f 24/139/4 58/142/4 57/147/4
f 19/148/4 108/149/4 53/150/4
f 10/146/4 45/143/4 38/38/4
f 107/151/4 56/152/4 40/41/4
f 40/41/4 10/146/4 38/38/4
f 39/39/4 19/148/4 52/153/4
f 14/40/4 39/39/4 52/153/4
f 19/148/4 53/150/4 52/153/4
f 14/40/4 107/151/4 40/41/4
f 37/44/6 38/154/6 41/42/6
f 38/154/6 112/155/6 95/156/6
f 41/42/6 38/154/6 95/156/6
f 112/155/6 103/157/6 95/156/6
f 41/42/6 44/158/6 35/43/6
f 43/47/7 97/159/7 36/45/7
f 97/159/7 114/160/7 39/161/7
f 36/45/7 97/159/7 39/161/7
f 114/160/7 113/162/7 39/161/7
f 36/45/7 111/163/7 42/46/7
f 42/48/8 111/164/8 35/49/8
f 9/9/9 6/6/9 45/51/9
f 28/28/9 25/25/9 47/53/9
f 49/55/9 2/2/9 50/56/9
f 18/18/9 15/15/9 52/58/9
f 34/34/9 31/31/9 30/30/9
f 55/61/9 11/11/9 40/62/9
f 23/23/9 20/20/9 57/64/9
f 59/66/1 100/111/1 60/67/1
f 60/67/2 115/165/2 62/69/2
f 59/66/11 61/68/11 62/69/11
f 64/71/1 98/109/1 65/72/1
f 65/72/2 116/166/2 67/74/2
f 64/71/11 66/73/11 67/74/11
f 69/76/1 102/113/1 70/77/1
f 70/77/2 117/167/2 72/79/2
f 69/76/11 71/78/11 72/79/11
f 74/81/1 101/112/1 75/82/1
f 75/82/2 118/168/2 77/84/2
f 76/83/11 77/84/11 78/85/11
f 79/86/1 96/114/1 80/87/1
f 80/87/2 119/169/2 82/89/2
f 81/88/11 82/89/11 83/90/11
f 84/91/1 99/110/1 85/92/1
f 85/92/2 120/170/2 87/94/2
f 86/93/11 87/94/11 88/95/11
f 89/96/1 94/101/1 90/97/1
f 91/98/2 121/171/2 92/99/2
f 89/96/11 92/99/11 93/100/11
f 43/102/12 42/172/12 44/103/12
f 95/105/13 97/108/13 43/102/13
f 95/105/12 103/173/12 60/174/12
f 103/173/12 115/175/12 60/174/12
f 122/176/12 114/177/12 90/178/12
f 114/177/12 97/108/12 90/178/12
f 97/108/12 95/105/12 75/179/12
f 95/105/12 60/174/12 100/180/12
f 100/180/12 123/181/12 65/182/12
f 123/181/12 116/183/12 65/182/12
f 95/105/12 100/180/12 65/182/12
f 91/184/12 90/178/12 97/108/12
f 124/185/12 121/186/12 91/184/12
f 99/187/12 124/185/12 91/184/12
f 98/188/12 125/189/12 117/190/12
f 95/105/12 65/182/12 98/188/12
f 98/188/12 117/190/12 70/191/12
f 95/105/12 98/188/12 70/191/12
f 99/187/12 91/184/12 97/108/12
f 126/192/12 120/193/12 85/194/12
f 85/194/12 99/187/12 97/108/12
f 95/105/12 70/191/12 102/195/12
f 102/195/12 127/196/12 118/197/12
f 95/105/12 102/195/12 75/179/12
f 96/107/12 126/192/12 85/194/12
f 102/195/12 118/197/12 75/179/12
f 101/198/12 128/199/12 119/200/12
f 101/198/12 119/200/12 80/106/12
f 97/108/12 75/179/12 101/198/12
f 96/107/12 85/194/12 97/108/12
f 97/108/12 101/198/12 80/106/12
f 68/75/9 125/201/9 98/109/9
f 88/95/9 124/202/9 99/110/9
f 63/70/9 123/203/9 100/111/9
f 78/85/10 128/204/10 101/112/10
f 93/100/9 122/205/9 90/97/9
f 73/80/9 127/206/9 102/113/9
f 83/90/9 126/207/9 96/114/9
f 113/208/15 114/209/15 93/210/15
f 114/209/16 122/211/16 93/210/16
f 34/212/17 54/213/17 113/208/17
f 48/214/17 110/215/17 32/216/17
f 34/212/15 113/208/15 93/210/15
f 28/217/17 48/214/17 32/216/17
f 32/216/1 34/212/1 93/210/1
f 92/218/16 121/219/16 124/220/16
f 32/216/1 93/210/1 92/218/1
f 27/221/1 28/217/1 88/222/1
f 28/217/1 32/216/1 88/222/1
f 32/216/1 92/218/1 88/222/1
f 92/218/16 124/220/16 88/222/16
f 58/223/17 109/224/17 27/221/17
f 87/225/16 120/226/16 126/227/16
f 27/221/1 88/222/1 87/225/1
f 23/228/17 58/223/17 27/221/17
f 53/229/17 108/230/17 22/231/17
f 23/228/1 27/221/1 87/225/1
f 18/232/17 53/229/17 22/231/17
f 22/231/1 23/228/1 83/233/1
f 23/228/1 87/225/1 83/233/1
f 87/225/16 126/227/16 83/233/16
f 82/234/16 119/235/16 128/236/16
f 82/234/16 128/236/16 78/237/16
f 22/231/1 83/233/1 82/234/1
f 17/238/1 18/232/1 78/237/1
f 18/232/1 22/231/1 82/234/1
f 56/239/17 107/240/17 55/241/17
f 107/240/17 17/238/17 55/241/17
f 18/232/1 82/234/1 78/237/1
f 78/237/1 77/242/1 17/238/1
f 77/242/16 118/243/16 73/244/16
f 118/243/16 127/245/16 73/244/16
f 13/246/1 55/241/1 72/247/1
f 55/241/1 17/238/1 73/244/1
f 72/247/1 55/241/1 73/244/1
f 17/238/1 77/242/1 73/244/1
f 72/247/16 117/248/16 68/249/16
f 117/248/16 125/250/16 68/249/16
f 46/251/17 106/252/17 9/253/17
f 106/252/17 13/246/17 9/253/17
f 67/254/16 116/255/16 123/256/16
f 13/246/1 72/247/1 68/249/1
f 67/254/16 123/256/16 63/257/16
f 13/246/1 68/249/1 9/253/1
f 68/249/1 67/254/1 9/253/1
f 51/258/17 105/259/17 8/260/17
f 49/261/17 51/258/17 8/260/17
f 8/260/1 9/253/1 67/254/1
f 67/254/1 63/257/1 49/261/1
f 63/257/1 62/115/1 4/117/1
f 49/261/1 8/260/1 67/254/1
f 112/262/17 104/263/17 4/117/17
f 4/117/1 49/261/1 63/257/1
f 62/115/16 115/264/16 103/116/16
f 103/116/14 112/262/14 4/117/14
