# Blender v2.80 (sub 41) OBJ File: 'AutopistaV2.blend'
# www.blender.org
o Cube.066_Cube.072
v -0.239938 -0.209277 0.141053
v -0.137166 -0.312049 0.141053
v -0.209837 -0.281948 0.141053
v -0.137166 0.355298 0.141053
v -0.239938 0.252527 0.141053
v -0.209837 0.325197 0.141053
v -0.134121 -0.296740 -0.073090
v -0.224629 -0.206232 -0.073090
v -0.198120 -0.270231 -0.073090
v -0.224629 0.249481 -0.073090
v -0.134121 0.339990 -0.073090
v -0.198120 0.313481 -0.073090
v 0.138287 -0.312049 0.141053
v 0.241059 -0.209277 0.141053
v 0.210958 -0.281948 0.141053
v 0.241059 0.252527 0.141053
v 0.138287 0.355298 0.141053
v 0.210958 0.325197 0.141053
v 0.225750 -0.206232 -0.073090
v 0.135242 -0.296740 -0.073090
v 0.199241 -0.270231 -0.073090
v 0.135242 0.339990 -0.073090
v 0.225750 0.249481 -0.073090
v 0.199241 0.313481 -0.073090
v -0.209837 -0.281948 -0.073090
v -0.137166 -0.312049 -0.073090
v -0.239938 -0.209277 -0.073090
v -0.137166 0.355298 -0.073090
v -0.209837 0.325197 -0.073090
v -0.239938 0.252527 -0.073090
v 0.138287 -0.312049 -0.073090
v 0.210958 -0.281948 -0.073090
v 0.241059 -0.209277 -0.073090
v 0.210958 0.325197 -0.073090
v 0.138287 0.355298 -0.073090
v 0.241059 0.252527 -0.073090
v -0.198120 -0.270231 -0.013218
v -0.134121 -0.296740 -0.013218
v -0.224629 -0.206232 -0.013218
v -0.134121 0.339990 -0.013218
v -0.198120 0.313481 -0.013218
v -0.224629 0.249481 -0.013218
v 0.135242 -0.296740 -0.013218
v 0.199241 -0.270231 -0.013218
v 0.225750 -0.206232 -0.013218
v 0.199241 0.313481 -0.013218
v 0.135242 0.339990 -0.013218
v 0.225750 0.249481 -0.013218
v -0.001486 -0.217345 0.169069
v -0.001486 -0.217345 -0.078923
v 0.086191 -0.181027 0.169069
v 0.086191 -0.181027 -0.078923
v 0.122510 -0.093349 0.169069
v 0.122510 -0.093349 -0.078923
v 0.086191 -0.005670 0.169069
v 0.086191 -0.005670 -0.078923
v -0.001486 0.030647 0.169069
v -0.001486 0.030647 -0.078923
v -0.089162 -0.005670 0.169069
v -0.089162 -0.005670 -0.078923
v -0.125482 -0.093349 0.169069
v -0.125482 -0.093349 -0.078923
v -0.089162 -0.181027 0.169069
v -0.089162 -0.181027 -0.078923
v 0.097082 -0.191919 -0.078922
v -0.001486 -0.232748 -0.078922
v 0.137913 -0.093349 -0.078922
v 0.097082 0.005222 -0.078922
v -0.001486 0.046050 -0.078922
v -0.100055 0.005222 -0.078922
v -0.140886 -0.093349 -0.078922
v -0.100055 -0.191919 -0.078922
v 0.097082 -0.191919 -0.120058
v -0.001486 -0.232748 -0.120058
v 0.137913 -0.093349 -0.120058
v 0.097082 0.005222 -0.120058
v -0.001486 0.046050 -0.120058
v -0.100055 0.005222 -0.120058
v -0.140886 -0.093349 -0.120058
v -0.100055 -0.191919 -0.120058
v 0.042286 0.148925 -0.013221
v -0.001483 0.130794 -0.013221
v 0.060417 0.192695 -0.013221
v 0.042286 0.236466 -0.013221
v -0.001483 0.254596 -0.013221
v -0.045253 0.236466 -0.013221
v -0.063384 0.192695 -0.013221
v -0.045253 0.148925 -0.013221
v 0.042286 0.148925 -0.066175
v -0.001483 0.130794 -0.066175
v 0.060417 0.192695 -0.066175
v 0.042286 0.236466 -0.066175
v -0.001483 0.254596 -0.066175
v -0.045253 0.236466 -0.066175
v -0.063384 0.192695 -0.066175
v -0.045253 0.148925 -0.066175
vt 0.821584 0.500000
vt 0.678416 0.750000
vt 0.678416 0.500000
vt 0.586500 0.500000
vt 0.413500 0.750000
vt 0.413500 0.500000
vt 0.586500 0.000000
vt 0.413500 0.250000
vt 0.413500 0.000000
vt 0.413917 0.493070
vt 0.586083 0.493070
vt 0.586083 0.493070
vt 0.178416 0.750000
vt 0.125000 0.500000
vt 0.178416 0.500000
vt 0.375000 0.000000
vt 0.375000 0.250000
vt 0.875000 0.750000
vt 0.821584 0.750000
vt 0.625000 0.250000
vt 0.625000 0.000000
vt 0.321584 0.500000
vt 0.375000 0.750000
vt 0.321584 0.750000
vt 0.378759 0.494785
vt 0.621241 0.494785
vt 0.625000 0.750000
vt 0.390659 0.271760
vt 0.375000 0.303416
vt 0.386276 0.265645
vt 0.414634 0.257986
vt 0.609342 0.271760
vt 0.625000 0.303416
vt 0.619277 0.305034
vt 0.586500 0.250000
vt 0.613724 0.265645
vt 0.384901 0.486280
vt 0.375000 0.446584
vt 0.380011 0.446025
vt 0.615099 0.486280
vt 0.625000 0.446584
vt 0.380723 0.305034
vt 0.585366 0.257986
vt 0.619989 0.446025
vt 0.585366 0.257986
vt 0.619277 0.305034
vt 0.390659 0.271760
vt 0.380011 0.446025
vt 0.413917 0.493070
vt 0.609342 0.271760
vt 0.414634 0.257986
vt 0.619989 0.446025
vt 0.380723 0.305034
vt 0.615099 0.486280
vt 0.384901 0.486280
vt 1.000000 1.000000
vt 0.875000 0.500000
vt 1.000000 0.500000
vt 0.875000 1.000000
vt 0.750000 0.500000
vt 0.750000 1.000000
vt 0.625000 0.500000
vt 0.625000 1.000000
vt 0.500000 0.500000
vt 0.500000 1.000000
vt 0.375000 0.500000
vt 0.375000 1.000000
vt 0.250000 0.500000
vt 0.250000 1.000000
vt 0.375000 1.000000
vt 0.250000 1.000000
vt 0.125000 0.500000
vt 0.125000 1.000000
vt 0.000000 0.500000
vt 0.500000 1.000000
vt 0.375000 1.000000
vt 0.625000 1.000000
vt 0.125000 1.000000
vt 0.750000 1.000000
vt 0.000000 1.000000
vt 0.000000 1.000000
vt 0.875000 1.000000
vt 0.250000 0.010000
vt 0.419702 0.080294
vt 0.490000 0.250000
vt 0.625000 1.000000
vt 1.000000 1.000000
vt 0.875000 1.000000
vt 0.000000 1.000000
vt 0.250000 1.000000
vt 0.500000 1.000000
vt 0.750000 1.000000
vt 0.125000 1.000000
vt 0.080298 0.419706
vt 0.250000 0.490000
vt 0.250000 0.010000
vt 0.250000 0.010000
vt 0.419702 0.080294
vt 0.490000 0.250000
vt 0.250000 0.490000
vt 0.080298 0.080294
vt 0.010000 0.250000
vt 0.010000 0.250000
vt 0.419702 0.080294
vt 0.419702 0.419706
vt 0.490000 0.250000
vt 0.080298 0.419706
vt 0.080298 0.080294
vt 0.419702 0.419706
vt 0.586500 0.750000
vt 0.125000 0.750000
vt 0.875000 0.500000
vt 0.419702 0.419706
vt 0.250000 0.490000
vt 0.080298 0.419706
vt 0.010000 0.250000
vt 0.080298 0.080294
vt 1.000000 1.000000
vn 0.0000 1.0000 0.0000
vn 1.0000 0.0000 0.0000
vn -1.0000 0.0000 0.0000
vn -0.3827 -0.9239 0.0000
vn -0.9239 -0.3827 0.0000
vn -0.3827 0.9239 0.0000
vn -0.9239 0.3827 0.0000
vn 0.3827 -0.9239 0.0000
vn 0.9239 -0.3827 0.0000
vn 0.3827 0.9239 0.0000
vn 0.9239 0.3827 0.0000
vn 0.0000 -1.0000 0.0000
vn -0.0000 0.0000 -1.0000
vn 0.0000 -0.0000 1.0000
s off
f 28/1/1 17/2/1 35/3/1
f 36/4/2 14/5/2 33/6/2
f 5/7/3 27/8/3 1/9/3
f 19/10/3 48/11/3 23/12/3
f 2/13/4 25/14/4 26/15/4
f 3/16/5 27/8/5 25/17/5
f 28/1/6 6/18/6 4/19/6
f 29/20/7 5/7/7 6/21/7
f 31/22/8 15/23/8 13/24/8
f 32/25/9 14/5/9 15/23/9
f 17/2/10 34/26/10 35/3/10
f 18/27/11 36/4/11 34/26/11
f 31/22/12 2/13/12 26/15/12
f 9/28/13 26/29/13 25/30/13
f 9/28/13 27/8/13 8/31/13
f 12/32/13 28/33/13 11/34/13
f 12/32/13 30/35/13 29/36/13
f 21/37/13 31/38/13 20/39/13
f 21/37/13 33/6/13 32/25/13
f 24/40/13 35/41/13 34/26/13
f 24/40/13 36/4/13 23/12/13
f 20/39/13 26/29/13 7/42/13
f 10/43/13 27/8/13 30/35/13
f 11/34/13 35/41/13 22/44/13
f 23/12/13 33/6/13 19/10/13
f 42/45/13 40/46/13 48/11/13
f 8/31/11 37/47/11 9/28/11
f 7/42/1 43/48/1 20/39/1
f 21/37/7 45/49/7 19/10/7
f 11/34/8 41/50/8 12/32/8
f 10/43/2 39/51/2 8/31/2
f 24/40/4 47/52/4 22/44/4
f 12/32/9 42/45/9 10/43/9
f 22/44/12 40/46/12 11/34/12
f 9/28/10 38/53/10 7/42/10
f 23/12/5 46/54/5 24/40/5
f 20/39/6 44/55/6 21/37/6
f 50/56/8 51/57/8 49/58/8
f 52/59/9 53/60/9 51/57/9
f 54/61/11 55/62/11 53/60/11
f 56/63/10 57/64/10 55/62/10
f 58/65/6 59/66/6 57/64/6
f 60/67/7 61/68/7 59/66/7
f 62/69/14 70/70/14 71/71/14
f 62/69/5 63/72/5 61/68/5
f 64/73/4 49/74/4 63/72/4
f 69/75/6 78/76/6 70/70/6
f 58/65/14 68/77/14 69/75/14
f 62/69/14 72/78/14 64/73/14
f 52/59/14 67/79/14 54/61/14
f 60/67/14 69/75/14 70/70/14
f 64/73/14 66/80/14 50/81/14
f 50/56/14 65/82/14 52/59/14
f 54/61/14 68/77/14 56/63/14
f 77/83/13 76/84/13 75/85/13
f 67/79/11 76/86/11 68/77/11
f 66/87/8 73/88/8 65/82/8
f 72/78/4 74/89/4 66/80/4
f 70/70/7 79/90/7 71/71/7
f 68/77/10 77/91/10 69/75/10
f 65/82/9 75/92/9 67/79/9
f 71/71/5 80/93/5 72/78/5
f 88/94/14 82/95/14 85/96/14
f 93/97/13 92/98/13 91/99/13
f 88/94/4 90/100/4 82/95/4
f 86/101/7 95/102/7 87/103/7
f 84/104/10 93/97/10 85/96/10
f 81/105/9 91/99/9 83/106/9
f 87/103/5 96/107/5 88/94/5
f 85/96/6 94/108/6 86/101/6
f 83/106/11 92/98/11 84/104/11
f 82/95/8 89/109/8 81/105/8
f 28/1/1 4/19/1 17/2/1
f 36/4/2 16/110/2 14/5/2
f 5/7/3 30/35/3 27/8/3
f 19/10/3 45/49/3 48/11/3
f 2/13/4 3/111/4 25/14/4
f 3/16/5 1/9/5 27/8/5
f 28/1/6 29/112/6 6/18/6
f 29/20/7 30/35/7 5/7/7
f 31/22/8 32/25/8 15/23/8
f 32/25/9 33/6/9 14/5/9
f 17/2/10 18/27/10 34/26/10
f 18/27/11 16/110/11 36/4/11
f 31/22/12 13/24/12 2/13/12
f 9/28/13 7/42/13 26/29/13
f 9/28/13 25/30/13 27/8/13
f 12/32/13 29/36/13 28/33/13
f 12/32/13 10/43/13 30/35/13
f 21/37/13 32/25/13 31/38/13
f 21/37/13 19/10/13 33/6/13
f 24/40/13 22/44/13 35/41/13
f 24/40/13 34/26/13 36/4/13
f 20/39/13 31/38/13 26/29/13
f 10/43/13 8/31/13 27/8/13
f 11/34/13 28/33/13 35/41/13
f 23/12/13 36/4/13 33/6/13
f 43/48/13 38/53/13 39/51/13
f 38/53/13 37/47/13 39/51/13
f 39/51/13 42/45/13 45/49/13
f 43/48/13 39/51/13 45/49/13
f 42/45/13 41/50/13 40/46/13
f 40/46/13 47/52/13 48/11/13
f 47/52/13 46/54/13 48/11/13
f 48/11/13 45/49/13 42/45/13
f 45/49/13 44/55/13 43/48/13
f 8/31/11 39/51/11 37/47/11
f 7/42/1 38/53/1 43/48/1
f 21/37/7 44/55/7 45/49/7
f 11/34/8 40/46/8 41/50/8
f 10/43/2 42/45/2 39/51/2
f 24/40/4 46/54/4 47/52/4
f 12/32/9 41/50/9 42/45/9
f 22/44/12 47/52/12 40/46/12
f 9/28/10 37/47/10 38/53/10
f 23/12/5 48/11/5 46/54/5
f 20/39/6 43/48/6 44/55/6
f 50/56/8 52/59/8 51/57/8
f 52/59/9 54/61/9 53/60/9
f 54/61/11 56/63/11 55/62/11
f 56/63/10 58/65/10 57/64/10
f 58/65/6 60/67/6 59/66/6
f 60/67/7 62/69/7 61/68/7
f 62/69/14 60/67/14 70/70/14
f 62/69/5 64/73/5 63/72/5
f 64/73/4 50/81/4 49/74/4
f 69/75/6 77/91/6 78/76/6
f 58/65/14 56/63/14 68/77/14
f 62/69/14 71/71/14 72/78/14
f 52/59/14 65/82/14 67/79/14
f 60/67/14 58/65/14 69/75/14
f 64/73/14 72/78/14 66/80/14
f 50/56/14 66/87/14 65/82/14
f 54/61/14 67/79/14 68/77/14
f 75/85/13 73/113/13 74/114/13
f 74/114/13 80/115/13 75/85/13
f 80/115/13 79/116/13 75/85/13
f 79/116/13 78/117/13 75/85/13
f 78/117/13 77/83/13 75/85/13
f 67/79/11 75/92/11 76/86/11
f 66/87/8 74/118/8 73/88/8
f 72/78/4 80/93/4 74/89/4
f 70/70/7 78/76/7 79/90/7
f 68/77/10 76/86/10 77/91/10
f 65/82/9 73/88/9 75/92/9
f 71/71/5 79/90/5 80/93/5
f 82/95/14 81/105/14 85/96/14
f 81/105/14 83/106/14 85/96/14
f 83/106/14 84/104/14 85/96/14
f 85/96/14 86/101/14 87/103/14
f 87/103/14 88/94/14 85/96/14
f 91/99/13 89/109/13 90/100/13
f 90/100/13 96/107/13 91/99/13
f 96/107/13 95/102/13 91/99/13
f 95/102/13 94/108/13 91/99/13
f 94/108/13 93/97/13 91/99/13
f 88/94/4 96/107/4 90/100/4
f 86/101/7 94/108/7 95/102/7
f 84/104/10 92/98/10 93/97/10
f 81/105/9 89/109/9 91/99/9
f 87/103/5 95/102/5 96/107/5
f 85/96/6 93/97/6 94/108/6
f 83/106/11 91/99/11 92/98/11
f 82/95/8 90/100/8 89/109/8
