# Blender v2.80 (sub 44) OBJ File: ''
# www.blender.org
o BezierCurve.005_CUBezierCurve.005
v -0.759281 0.397942 -0.916646
v -0.451199 -0.356394 -0.916646
v -0.759281 -0.356394 -0.916646
v -0.451199 -0.322523 0.304269
v -0.632737 0.229686 0.304269
v -0.451199 0.229686 0.304269
v -0.451199 0.397942 0.338140
v -0.759281 -0.356394 0.338140
v -0.451199 -0.356394 0.338140
v -0.451199 0.397942 -0.916646
v -0.451199 0.229686 -0.882775
v -0.451199 -0.322523 -0.882775
v -0.632737 0.229686 -0.882775
v -0.632737 -0.322523 0.304269
v -0.632737 -0.322523 -0.882775
v -0.759281 0.397942 0.338140
v -0.587171 -0.035142 0.338976
v -0.119407 -0.055114 0.672647
v -0.591645 -0.046131 0.340272
v -0.119061 -0.033065 0.672794
v -0.591473 -0.024079 0.340222
v -0.123301 -0.028498 0.682972
v -0.602028 -0.019422 0.343279
v -0.127685 -0.033065 0.693089
v -0.612654 -0.023901 0.346357
v -0.129645 -0.044090 0.697220
v -0.617128 -0.034889 0.347653
v -0.612826 -0.045952 0.346407
v -0.602271 -0.050609 0.343350
v -0.128031 -0.055114 0.692942
v -0.123791 -0.059682 0.682764
v -0.117447 -0.044090 0.668516
v 0.876449 -0.073214 0.860410
v 0.876752 -0.051165 0.860546
v 0.875401 -0.046644 0.871509
v 0.873924 -0.051260 0.882416
v 0.873186 -0.062305 0.886878
v 0.873620 -0.073310 0.882280
v 0.874972 -0.077830 0.871317
v 0.877186 -0.062170 0.855947
v 2.114102 -0.086818 0.947842
v 2.114176 -0.064766 0.947957
v 2.113634 -0.060253 0.958993
v 2.113063 -0.064877 0.969981
v 2.112795 -0.075926 0.974486
v 2.112989 -0.086929 0.969866
v 2.113530 -0.091442 0.958830
v 3.311726 -0.071234 0.979742
v 2.114369 -0.075769 0.943337
v 3.311315 -0.060233 0.984352
v 3.310823 -0.055720 0.995390
v 3.310539 -0.060341 1.006390
v 3.310628 -0.071386 1.010911
v 3.311040 -0.082387 1.006300
v 3.311532 -0.086901 0.995262
v 4.188779 -0.034898 1.015077
v 3.311816 -0.082279 0.984262
v 4.187405 -0.023952 1.019632
v 4.186091 -0.019485 1.030621
v 4.185605 -0.024117 1.041609
v 4.186234 -0.035132 1.046161
v 4.187607 -0.046078 1.041607
v 4.188921 -0.050545 1.030618
v -0.587171 0.051743 0.338972
v -0.119407 0.031771 0.672643
v -0.591645 0.040755 0.340268
v -0.119061 0.053820 0.672790
v -0.591474 0.062806 0.340218
v -0.123302 0.058388 0.682969
v -0.602028 0.067464 0.343276
v -0.127686 0.053820 0.693086
v -0.612654 0.062985 0.346354
v -0.129645 0.042795 0.697217
v -0.617128 0.051996 0.347650
v -0.612826 0.040933 0.346403
v -0.602271 0.036276 0.343346
v -0.128032 0.031771 0.692939
v -0.123791 0.027203 0.682761
v -0.117447 0.042795 0.668512
v 0.876449 0.013671 0.860407
v 0.876752 0.035720 0.860542
v 0.875401 0.040241 0.871505
v 0.873923 0.035625 0.882412
v 0.873186 0.024580 0.886875
v 0.873620 0.013576 0.882277
v 0.874972 0.009055 0.871314
v 0.877186 0.024715 0.855944
v 2.114102 0.000067 0.947839
v 2.114176 0.022119 0.947954
v 2.113634 0.026632 0.958989
v 2.113063 0.022008 0.969977
v 2.112795 0.010959 0.974482
v 2.112989 -0.000044 0.969863
v 2.113531 -0.004556 0.958827
v 3.311727 0.015651 0.979738
v 2.114369 0.011116 0.943334
v 3.311315 0.026652 0.984349
v 3.310823 0.031165 0.995386
v 3.310539 0.026544 1.006387
v 3.310629 0.015499 1.010907
v 3.311040 0.004498 1.006297
v 3.311532 -0.000015 0.995259
v 4.188779 0.051987 1.015074
v 3.311816 0.004606 0.984259
v 4.187406 0.062934 1.019628
v 4.186091 0.067400 1.030617
v 4.185605 0.062768 1.041606
v 4.186234 0.051753 1.046158
v 4.187607 0.040807 1.041604
v 4.188922 0.036340 1.030615
v 4.189407 -0.045912 1.019630
v 4.189407 0.040973 1.019626
vt 0.841438 0.000000
vt 0.941198 0.124238
vt 0.841438 0.124224
vt 0.882395 0.309970
vt 0.941179 0.400916
vt 0.882395 0.400907
vt 0.741647 0.397176
vt 0.839888 0.508170
vt 0.741646 0.511835
vt 0.741646 0.392410
vt 0.841439 0.197866
vt 0.841439 0.393511
vt 0.741646 0.196765
vt 0.841438 0.000000
vt 0.841437 0.195661
vt 0.607384 0.005578
vt 0.417110 0.000000
vt 0.662009 0.000000
vt 0.428107 0.201061
vt 0.428107 0.005578
vt 0.662009 0.206639
vt 0.607384 0.201061
vt 0.417110 0.206639
vt 0.596387 0.206639
vt 0.417110 0.402122
vt 0.417110 0.206639
vt 0.941198 0.000650
vt 1.000000 0.185098
vt 0.941198 0.185748
vt 0.941198 0.309970
vt 0.882395 0.124238
vt 0.941198 0.124887
vt 0.882395 0.403075
vt 0.940284 0.484852
vt 0.882395 0.487011
vt 0.941198 0.000015
vt 0.941179 0.309978
vt 0.839888 0.393511
vt 0.741647 0.196765
vt 0.741646 0.001104
vt 0.596387 0.402122
vt 1.000000 0.000000
vt 0.882395 0.309321
vt 0.940284 0.400916
vt 0.658415 0.207359
vt 0.652269 0.288148
vt 0.654850 0.206639
vt 0.659427 0.288208
vt 0.662009 0.206668
vt 0.124224 0.710492
vt 0.208574 0.795009
vt 0.207685 0.796641
vt 0.120477 0.710974
vt 0.205815 0.798310
vt 0.704584 0.089413
vt 0.733082 0.000659
vt 0.736132 0.000000
vt 0.739680 0.000686
vt 0.741646 0.002315
vt 0.708446 0.089573
vt 0.417110 0.001669
vt 0.331847 0.086097
vt 0.415241 0.000000
vt 0.655842 0.288422
vt 0.646444 0.453947
vt 0.653602 0.453999
vt 0.108154 0.543326
vt 0.127012 0.710060
vt 0.104287 0.543316
vt 0.704950 0.257512
vt 0.701828 0.089580
vt 0.312842 0.253330
vt 0.329059 0.085664
vt 0.335594 0.086579
vt 0.315749 0.253273
vt 0.650023 0.454016
vt 0.641903 0.658271
vt 0.649062 0.658286
vt 0.133597 0.339573
vt 0.111061 0.543383
vt 0.129744 0.339413
vt 0.720897 0.460887
vt 0.702206 0.257471
vt 0.708824 0.257471
vt 0.338270 0.457274
vt 0.319616 0.253264
vt 0.341164 0.457083
vt 0.646774 0.855364
vt 0.645484 0.658262
vt 0.650352 0.855352
vt 0.174713 0.143687
vt 0.136493 0.339764
vt 0.170869 0.143481
vt 0.734214 0.655746
vt 0.718148 0.460769
vt 0.724768 0.460807
vt 0.736966 0.655922
vt 0.379380 0.653305
vt 0.345018 0.456924
vt 0.382273 0.653106
vt 0.658449 0.999843
vt 0.643194 0.855432
vt 0.662009 0.999672
vt 0.205654 0.000173
vt 0.177607 0.143886
vt 0.201804 0.000000
vt 0.735030 0.798404
vt 0.740840 0.655878
vt 0.737778 0.798669
vt 0.410341 0.797034
vt 0.386117 0.652900
vt 0.413260 0.796970
vt 0.612899 0.207359
vt 0.606754 0.288148
vt 0.609335 0.206639
vt 0.613912 0.288208
vt 0.616493 0.206668
vt 0.019937 0.710492
vt 0.104287 0.795009
vt 0.103398 0.796641
vt 0.016189 0.710975
vt 0.101528 0.798310
vt 0.664765 0.089413
vt 0.693263 0.000659
vt 0.696313 0.000000
vt 0.699861 0.000686
vt 0.701827 0.002315
vt 0.668627 0.089573
vt 0.312842 0.001669
vt 0.227578 0.086097
vt 0.310973 0.000000
vt 0.610327 0.288422
vt 0.600928 0.453947
vt 0.608087 0.453999
vt 0.003867 0.543326
vt 0.022726 0.710060
vt 0.000000 0.543316
vt 0.665132 0.257512
vt 0.662009 0.089579
vt 0.208574 0.253330
vt 0.224790 0.085664
vt 0.231326 0.086579
vt 0.211480 0.253273
vt 0.604508 0.454016
vt 0.596387 0.658271
vt 0.603547 0.658286
vt 0.029311 0.339573
vt 0.006774 0.543383
vt 0.025457 0.339413
vt 0.681078 0.460887
vt 0.662388 0.257471
vt 0.669005 0.257471
vt 0.234001 0.457274
vt 0.215348 0.253264
vt 0.236896 0.457083
vt 0.601259 0.855364
vt 0.599969 0.658262
vt 0.604836 0.855352
vt 0.070426 0.143687
vt 0.032206 0.339764
vt 0.066582 0.143481
vt 0.694396 0.655746
vt 0.678329 0.460769
vt 0.684949 0.460807
vt 0.697148 0.655922
vt 0.275111 0.653305
vt 0.240749 0.456924
vt 0.278005 0.653106
vt 0.612933 0.999843
vt 0.597679 0.855432
vt 0.616493 0.999672
vt 0.101367 0.000173
vt 0.073319 0.143886
vt 0.097517 0.000000
vt 0.695211 0.798404
vt 0.701021 0.655878
vt 0.697960 0.798669
vt 0.306073 0.797034
vt 0.281849 0.652900
vt 0.308991 0.796971
vt 0.117965 0.711225
vt 0.654879 1.000000
vt 0.208574 0.000237
vt 0.741646 0.798782
vt 0.417110 0.796797
vt 0.013678 0.711225
vt 0.609363 1.000000
vt 0.104287 0.000237
vt 0.701828 0.798782
vt 0.312842 0.796798
vn 0.0000 0.0000 -1.0000
vn 0.0000 -0.0000 1.0000
vn 0.0000 -1.0000 -0.0000
vn 0.0000 1.0000 0.0000
vn 1.0000 0.0000 0.0000
vn 0.5755 -0.0037 -0.8178
vn 0.2527 -0.7335 -0.6310
vn 0.3938 -0.7157 -0.5768
vn 0.2757 0.7338 -0.6209
vn 0.4121 0.7156 -0.5641
vn -0.0050 0.9985 0.0544
vn -0.1053 0.9794 0.1723
vn -0.2765 0.6817 0.6774
vn -0.4795 0.5501 0.6837
vn -0.3928 0.0003 0.9196
vn -0.5826 0.0080 0.8127
vn -0.4968 -0.5406 0.6790
vn -0.1291 -0.9796 0.1538
vn -0.2979 -0.6813 0.6686
vn -0.0363 -0.9985 0.0411
vn 0.3884 0.0003 -0.9215
vn 0.0798 -0.7115 -0.6982
vn 0.0995 0.7168 -0.6902
vn 0.0119 0.9997 0.0201
vn -0.0821 0.6965 0.7129
vn -0.1284 -0.0051 0.9917
vn -0.1012 -0.7035 0.7035
vn -0.0156 -0.9998 0.0078
vn 0.1281 0.0035 -0.9918
vn 0.0331 -0.7069 -0.7066
vn 0.0380 0.7122 -0.7009
vn 0.0031 0.9999 0.0101
vn -0.0335 0.7002 0.7132
vn -0.0505 -0.0068 0.9987
vn -0.0381 -0.7091 0.7041
vn -0.0036 -1.0000 -0.0003
vn 0.0353 0.0003 -0.9994
vn 0.0504 0.0033 -0.9987
vn 0.0090 0.7075 -0.7067
vn -0.0227 0.9997 0.0029
vn -0.0410 0.7018 0.7112
vn -0.0351 -0.0095 0.9993
vn -0.0087 -0.7132 0.7009
vn 0.0228 -0.9997 -0.0053
vn 0.0406 -0.0081 -0.9991
vn 0.0410 -0.7051 -0.7079
vn -0.0001 0.6988 -0.7153
vn -0.0411 0.9991 -0.0062
vn -0.0576 0.7023 0.7096
vn -0.0396 -0.0160 0.9991
vn 0.0020 -0.7209 0.6930
vn 0.0420 -0.9990 -0.0141
vn 0.3939 -0.7156 -0.5769
vn 0.4121 0.7155 -0.5641
vn -0.0050 0.9985 0.0545
vn -0.1053 0.9794 0.1722
vn -0.2765 0.6816 0.6774
vn -0.4967 -0.5407 0.6789
vn -0.1291 -0.9796 0.1537
vn -0.2980 -0.6813 0.6686
vn -0.0821 0.6965 0.7128
vn -0.0156 -0.9998 0.0079
vn 0.0331 -0.7069 -0.7065
vn -0.0410 0.7017 0.7113
vn 0.0410 -0.7052 -0.7078
vn 0.0577 -0.7042 -0.7077
s off
f 1/1/1 2/2/1 3/3/1
f 4/4/1 5/5/1 6/6/1
f 7/7/2 8/8/2 9/9/2
f 2/10/3 8/11/3 3/12/3
f 1/13/4 7/14/4 10/15/4
f 11/16/5 2/17/5 10/18/5
f 4/19/5 2/17/5 12/20/5
f 11/16/5 7/21/5 6/22/5
f 6/22/5 9/23/5 4/19/5
f 13/24/5 14/25/5 15/26/5
f 12/27/4 14/28/4 4/29/4
f 6/30/3 13/31/3 11/32/3
f 11/33/2 15/34/2 12/35/2
f 1/1/1 10/36/1 2/2/1
f 4/4/1 14/37/1 5/5/1
f 7/7/2 16/38/2 8/8/2
f 2/10/3 9/39/3 8/11/3
f 1/13/4 16/40/4 7/14/4
f 11/16/5 12/20/5 2/17/5
f 4/19/5 9/23/5 2/17/5
f 11/16/5 10/18/5 7/21/5
f 6/22/5 7/21/5 9/23/5
f 13/24/5 5/41/5 14/25/5
f 12/27/4 15/42/4 14/28/4
f 6/30/3 5/43/3 13/31/3
f 11/33/2 13/44/2 15/34/2
s 1
f 17/45/6 18/46/7 19/47/8
f 20/48/9 17/45/6 21/49/10
f 22/50/11 21/51/10 23/52/12
f 24/53/13 23/52/12 25/54/14
f 26/55/15 25/56/14 27/57/16
f 28/58/17 26/55/15 27/57/16
f 29/59/18 30/60/19 28/58/17
f 19/61/8 31/62/20 29/63/18
f 32/64/21 33/65/22 18/46/7
f 34/66/23 32/64/21 20/48/9
f 35/67/24 20/68/9 22/50/11
f 36/69/25 22/50/11 24/53/13
f 37/70/26 24/71/13 26/55/15
f 30/60/19 37/70/26 26/55/15
f 31/62/20 38/72/27 30/73/19
f 18/74/7 39/75/28 31/62/20
f 40/76/29 41/77/30 33/65/22
f 42/78/31 40/76/29 34/66/23
f 43/79/32 34/80/23 35/67/24
f 44/81/33 35/67/24 36/69/25
f 45/82/34 36/83/25 37/70/26
f 38/84/27 45/82/34 37/70/26
f 39/75/28 46/85/35 38/72/27
f 33/86/22 47/87/36 39/75/28
f 48/88/37 41/77/30 49/89/38
f 50/90/39 49/89/38 42/78/31
f 51/91/40 42/92/31 43/79/32
f 52/93/41 43/79/32 44/81/33
f 45/82/34 52/94/41 44/95/33
f 46/96/35 53/97/42 45/82/34
f 47/87/36 54/98/43 46/85/35
f 41/99/30 55/100/44 47/87/36
f 56/101/45 57/102/46 48/88/37
f 58/103/47 48/88/37 50/90/39
f 59/104/48 50/105/39 51/91/40
f 60/106/49 51/91/40 52/93/41
f 53/97/42 60/107/49 52/94/41
f 54/108/43 61/109/50 53/97/42
f 55/100/44 62/110/51 54/98/43
f 57/111/46 63/112/52 55/100/44
f 64/113/6 65/114/7 66/115/53
f 67/116/9 64/113/6 68/117/54
f 69/118/55 68/119/54 70/120/56
f 71/121/57 70/120/56 72/122/14
f 73/123/15 72/124/14 74/125/16
f 75/126/58 73/123/15 74/125/16
f 76/127/59 77/128/60 75/126/58
f 66/129/53 78/130/20 76/131/59
f 79/132/21 80/133/22 65/114/7
f 81/134/23 79/132/21 67/116/9
f 82/135/24 67/136/9 69/118/55
f 83/137/61 69/118/55 71/121/57
f 84/138/26 71/139/57 73/123/15
f 77/128/60 84/138/26 73/123/15
f 78/130/20 85/140/27 77/141/60
f 65/142/7 86/143/62 78/130/20
f 87/144/29 88/145/63 80/133/22
f 89/146/31 87/144/29 81/134/23
f 90/147/32 81/148/23 82/135/24
f 91/149/33 82/135/24 83/137/61
f 92/150/34 83/151/61 84/138/26
f 85/152/27 92/150/34 84/138/26
f 86/143/62 93/153/35 85/140/27
f 80/154/22 94/155/36 86/143/62
f 95/156/37 88/145/63 96/157/38
f 97/158/39 96/157/38 89/146/31
f 98/159/40 89/160/31 90/147/32
f 99/161/64 90/147/32 91/149/33
f 92/150/34 99/162/64 91/163/33
f 93/164/35 100/165/42 92/150/34
f 94/155/36 101/166/43 93/153/35
f 88/167/63 102/168/44 94/155/36
f 103/169/45 104/170/65 95/156/37
f 105/171/47 95/156/37 97/158/39
f 106/172/48 97/173/39 98/159/40
f 107/174/49 98/159/40 99/161/64
f 100/165/42 107/175/49 99/162/64
f 101/176/43 108/177/50 100/165/42
f 102/168/44 109/178/51 101/166/43
f 104/179/65 110/180/52 102/168/44
f 17/45/6 32/64/21 18/46/7
f 20/48/9 32/64/21 17/45/6
f 22/50/11 20/68/9 21/51/10
f 24/53/13 22/50/11 23/52/12
f 26/181/15 24/53/13 25/54/14
f 28/58/17 30/60/19 26/55/15
f 29/63/18 31/62/20 30/73/19
f 19/61/8 18/74/7 31/62/20
f 32/64/21 40/76/29 33/65/22
f 34/66/23 40/76/29 32/64/21
f 35/67/24 34/80/23 20/68/9
f 36/69/25 35/67/24 22/50/11
f 37/70/26 36/83/25 24/71/13
f 30/60/19 38/84/27 37/70/26
f 31/62/20 39/75/28 38/72/27
f 18/74/7 33/86/22 39/75/28
f 40/76/29 49/89/38 41/77/30
f 42/78/31 49/89/38 40/76/29
f 43/79/32 42/92/31 34/80/23
f 44/81/33 43/79/32 35/67/24
f 45/82/34 44/95/33 36/83/25
f 38/84/27 46/96/35 45/82/34
f 39/75/28 47/87/36 46/85/35
f 33/86/22 41/99/30 47/87/36
f 48/88/37 57/102/46 41/77/30
f 50/90/39 48/88/37 49/89/38
f 51/91/40 50/105/39 42/92/31
f 52/93/41 51/91/40 43/79/32
f 45/82/34 53/97/42 52/94/41
f 46/96/35 54/108/43 53/97/42
f 47/87/36 55/100/44 54/98/43
f 41/99/30 57/111/46 55/100/44
f 56/101/45 111/182/66 57/102/46
f 58/103/47 56/101/45 48/88/37
f 59/104/48 58/183/47 50/105/39
f 60/106/49 59/104/48 51/91/40
f 53/97/42 61/109/50 60/107/49
f 54/108/43 62/184/51 61/109/50
f 55/100/44 63/112/52 62/110/51
f 57/111/46 111/185/66 63/112/52
f 64/113/6 79/132/21 65/114/7
f 67/116/9 79/132/21 64/113/6
f 69/118/55 67/136/9 68/119/54
f 71/121/57 69/118/55 70/120/56
f 73/186/15 71/121/57 72/122/14
f 75/126/58 77/128/60 73/123/15
f 76/131/59 78/130/20 77/141/60
f 66/129/53 65/142/7 78/130/20
f 79/132/21 87/144/29 80/133/22
f 81/134/23 87/144/29 79/132/21
f 82/135/24 81/148/23 67/136/9
f 83/137/61 82/135/24 69/118/55
f 84/138/26 83/151/61 71/139/57
f 77/128/60 85/152/27 84/138/26
f 78/130/20 86/143/62 85/140/27
f 65/142/7 80/154/22 86/143/62
f 87/144/29 96/157/38 88/145/63
f 89/146/31 96/157/38 87/144/29
f 90/147/32 89/160/31 81/148/23
f 91/149/33 90/147/32 82/135/24
f 92/150/34 91/163/33 83/151/61
f 85/152/27 93/164/35 92/150/34
f 86/143/62 94/155/36 93/153/35
f 80/154/22 88/167/63 94/155/36
f 95/156/37 104/170/65 88/145/63
f 97/158/39 95/156/37 96/157/38
f 98/159/40 97/173/39 89/160/31
f 99/161/64 98/159/40 90/147/32
f 92/150/34 100/165/42 99/162/64
f 93/164/35 101/176/43 100/165/42
f 94/155/36 102/168/44 101/166/43
f 88/167/63 104/179/65 102/168/44
f 103/169/45 112/187/66 104/170/65
f 105/171/47 103/169/45 95/156/37
f 106/172/48 105/188/47 97/173/39
f 107/174/49 106/172/48 98/159/40
f 100/165/42 108/177/50 107/175/49
f 101/176/43 109/189/51 108/177/50
f 102/168/44 110/180/52 109/178/51
f 104/179/65 112/190/66 110/180/52
