# Blender v2.80 (sub 49) OBJ File: ''
# www.blender.org
o SUELO_Cube.052
v 115.216873 1.000003 -10.724548
v 115.216873 -45.943314 -10.724558
v -165.653580 -45.943314 -11.342875
v -165.653580 1.000003 -11.342857
v -165.653580 0.999987 232.888107
v 115.216873 0.999989 229.608902
vt 55.910755 55.910767
vt 46.896786 55.910767
vt 46.896797 0.000000
vt 0.000000 0.000015
vt 46.896786 0.000000
vt 46.267143 55.910637
vt 55.910767 0.000000
vt 0.118747 55.910652
vn 0.0022 0.0000 -1.0000
vn -0.0000 1.0000 0.0000
s 1
f 1/1/1 2/2/1 3/3/1
f 4/4/2 5/5/2 6/6/2
f 1/1/1 3/3/1 4/7/1
f 4/4/2 6/6/2 1/8/2
