# Blender v2.80 (sub 41) OBJ File: ''
# www.blender.org
o SUELO_Cube.052
v 115.216873 1.000002 -10.724548
v -165.653580 -45.943314 -11.342873
v 115.216873 -45.943314 -10.724556
v -165.653580 1.000002 -11.342857
v 115.216873 0.999999 229.608902
v -165.653580 0.999997 232.888107
vt 0.661917 0.000000
vt 0.000000 0.000000
vt 0.000000 1.000000
vt 0.661917 0.999998
vt 1.000000 0.999998
vt 0.953761 0.000000
vt 0.670634 0.000000
vn 0.0022 0.0000 -1.0000
vn -0.0000 1.0000 0.0000
s 1
f 1/1/1 3/2/1 2/3/1
f 4/4/2 6/5/2 5/6/2
f 1/1/1 2/3/1 4/4/1
f 4/4/2 5/6/2 1/7/2
