# Blender v2.80 (sub 44) OBJ File: ''
# www.blender.org
o ZBrushPolyMesh3D.003
v 11.663897 -10.565087 16.114882
v 9.633841 -6.009334 18.591040
v 7.124580 -8.408363 15.570257
v 5.153491 -3.975379 15.238090
v 13.495165 -6.338280 18.935696
v 13.767676 -9.537185 17.462975
v 16.494068 -4.730686 18.822363
v 17.486174 -3.532497 17.037689
v 17.536533 -0.545089 16.454618
v 16.823318 -4.856159 17.297089
v 17.050491 0.491410 16.030210
v 15.491224 0.401534 17.268238
v 16.646187 -6.457400 16.930649
v 16.554396 2.691444 14.894626
v 15.635201 -7.956738 16.899973
v 14.177107 3.244900 14.278273
v 5.568605 -2.020571 14.825230
v 9.152987 -3.903071 15.440941
v 14.502635 -9.719206 15.463984
v 15.639017 -8.730318 15.471018
v 15.474537 3.183609 14.393272
v 5.539580 -6.254653 12.672576
v 16.355515 -7.371136 15.459960
v 8.173904 -0.837005 11.632137
v 11.557549 0.060538 14.390031
v 14.001884 -3.088953 16.865562
v 8.917493 -9.453700 11.601889
v 13.225415 -10.071754 13.870671
v 13.647842 -10.132647 14.410438
v 12.680820 2.920571 13.276690
v 11.558712 2.879713 12.438100
v 8.915229 1.844360 12.061349
v 12.309031 -10.036056 12.672741
v 6.193122 -8.206262 11.009753
v 2.941360 1.816821 10.472420
v 3.132238 0.343815 11.141511
v 9.386321 3.614142 9.789450
v 9.696712 3.499485 11.023364
v 6.671247 4.161809 7.176960
v 5.428994 3.423151 7.065967
v 5.305726 -6.483114 6.440234
v 3.824501 -4.146143 8.015285
v 8.990709 3.270893 7.718913
v 0.648923 4.245173 8.340680
v -0.378554 2.489685 8.148327
v 10.399201 3.025571 8.096276
v 8.888326 -7.577774 9.045935
v 2.653182 -0.972914 6.740599
v -2.170312 3.935368 5.347685
v 0.134652 0.098546 5.842238
v 1.849702 -2.822379 5.029639
v 6.740964 6.142461 4.089735
v 3.362158 6.666950 2.006767
v 3.247094 -5.190119 4.178223
v 9.495085 3.193809 6.661137
v 8.020628 4.148552 5.047533
v -2.387395 0.958386 4.034710
v 8.347275 -4.753620 3.655385
v 9.161610 -4.701499 4.834786
v 8.413444 -6.059864 6.594582
v -4.540046 6.133408 4.565762
v -4.400734 3.889123 4.773738
v 6.429977 -4.843570 2.322388
v -6.789216 5.352916 3.989763
v 5.639182 6.606441 3.399440
v -1.014796 6.285755 4.379515
v -0.568921 -2.655258 2.113800
v 2.975454 6.744991 1.240564
v -5.581109 1.776329 1.450855
v 13.844920 -10.093248 14.558537
v -9.889062 7.829702 0.985960
v -6.074988 7.165500 0.985110
v 4.701727 6.612773 2.497294
v 6.421694 -6.199231 -0.147126
v -10.944192 6.784142 1.142197
v -3.756266 -0.012502 0.822132
v 3.984809 -6.124046 -0.763067
v 7.460464 -4.056868 0.617387
v 1.298511 6.902370 -0.084698
v -4.873071 7.185639 -3.458747
v -7.653460 -0.175849 -0.099014
v -5.142321 -1.757909 -1.779263
v -2.411442 -2.873492 -1.712075
v -0.930812 -1.856396 0.852804
v 0.358864 6.884873 -0.680254
v 7.008827 -4.886368 -0.075276
v 6.929556 -5.597704 -0.837647
v -10.768876 3.894076 -1.253558
v -8.727761 3.464993 1.362015
v 6.757887 -5.656384 -1.619136
v 5.867644 -5.745384 -2.535478
v -12.108926 3.832531 -3.670242
v -1.442078 6.980604 -1.873418
v -0.572076 6.922709 -1.294640
v -2.385003 7.040123 -2.374878
v -12.467124 7.574322 -5.101931
v -8.858112 -2.455761 -2.616266
v -8.217933 -3.390933 -2.969683
v -0.931016 -9.064458 -5.616149
v 4.376382 -7.133815 -4.809299
v -6.277394 7.272353 -3.697042
v -5.281271 -5.616766 -3.853727
v -4.847416 -6.357869 -5.108572
v -2.810884 -6.475259 -2.798266
v 1.363171 -7.685071 -7.028305
v 3.219923 -7.146893 -5.428172
v -4.906054 -6.825118 -6.573944
v -4.643560 -6.368024 -7.099214
v -2.969111 -7.685027 -7.321168
v -4.163874 -7.119051 -7.369806
v -16.512365 6.983360 -7.279500
v -15.561728 4.623521 -6.710904
v -13.393957 4.503885 -5.554554
v -12.158633 7.490859 -6.858982
v -7.790746 7.299781 -6.800391
v -7.846240 7.027102 -8.521433
v -10.513233 6.727374 -10.134810
v -16.919790 5.481155 -9.455725
v -16.406364 5.005868 -8.529440
v -16.943499 6.809509 -10.352568
v -8.249361 6.615336 -9.493837
v -12.298326 6.525616 -10.530083
v -13.176212 6.709537 -11.015276
v -14.645529 6.534831 -11.184692
v 9.971284 -9.265662 11.290049
v 11.300773 -9.627876 11.687814
v 9.274005 -6.665196 7.913599
v 9.231705 3.000156 5.528722
v 8.929222 -5.253797 6.053933
v 7.934023 5.287295 4.491501
v 7.167669 5.260972 4.487195
v 1.797627 -5.105579 0.258115
v 7.871034 -4.179146 2.171743
v 2.160824 6.798755 0.416833
v -11.134805 0.578244 -2.294431
v -10.660135 -0.286212 -1.559833
v -9.877662 -1.245291 -2.106286
v -6.109523 -5.193339 -2.998933
v -3.479793 7.109336 -2.925926
v -12.021706 1.852476 -3.338154
v -11.856295 3.063716 -3.613799
v -7.103651 -4.368872 -3.058428
v -7.077461 7.457508 -4.248579
v 4.731405 -6.546684 -4.537138
v 5.400688 -5.999945 -4.030159
v 4.918305 -6.357146 -4.447927
v -12.757341 4.131631 -4.856618
v -7.167900 7.245688 -6.073893
v -1.275573 -8.071512 -7.468080
v -17.030869 5.630743 -10.192348
v -15.458316 6.001410 -11.025004
vt 0.140868 0.057237
vt 0.237426 0.037321
vt 0.231125 0.133533
vt 0.711487 0.119916
vt 0.641384 0.032565
vt 0.742769 0.000000
vt 0.000000 0.835288
vt 0.029865 0.757005
vt 0.030157 0.892278
vt 0.081582 0.918870
vt 0.101188 0.985515
vt 0.067653 0.884980
vt 0.466687 0.685585
vt 0.504369 0.686499
vt 0.467854 0.714964
vt 0.071526 0.845274
vt 0.451979 0.625798
vt 0.061086 0.803698
vt 0.497068 0.583981
vt 0.232473 0.914919
vt 0.193838 0.885997
vt 0.232473 0.749102
vt 1.000000 0.264580
vt 0.951967 0.202353
vt 1.000000 0.123588
vt 0.081445 0.749102
vt 0.092460 0.779666
vt 0.469463 0.599632
vt 0.631875 0.127573
vt 0.101188 0.815823
vt 0.887750 0.543137
vt 0.863574 0.295590
vt 0.912229 0.399527
vt 0.588550 0.618217
vt 0.573244 0.731634
vt 0.134940 0.185522
vt 0.081184 0.078473
vt 0.080431 0.061750
vt 0.531339 0.562765
vt 0.554719 0.542023
vt 0.622971 0.530036
vt 0.081964 0.115298
vt 0.185103 0.236526
vt 0.740077 0.308513
vt 0.723077 0.272577
vt 0.898267 0.741201
vt 0.956953 0.773489
vt 0.955172 0.838170
vt 0.974094 0.813463
vt 0.913297 0.160703
vt 0.763747 0.226953
vt 0.791694 0.147112
vt 0.825234 0.137561
vt 0.145494 0.338771
vt 0.594698 0.253922
vt 0.533581 0.236053
vt 0.573090 0.122579
vt 0.582213 0.917045
vt 0.612762 0.865711
vt 0.612762 0.958362
vt 0.907293 0.064461
vt 0.951967 0.072706
vt 0.935750 0.193351
vt 0.564921 0.948606
vt 0.108208 0.235748
vt 0.630468 0.333290
vt 0.520803 0.922002
vt 0.451979 0.854253
vt 0.554877 0.812169
vt 0.744071 0.398765
vt 0.681193 0.465233
vt 0.703534 0.381589
vt 0.454304 0.922002
vt 0.566492 0.340138
vt 0.626238 0.382092
vt 0.559533 0.812169
vt 0.289917 0.063746
vt 0.394135 0.000000
vt 0.444300 0.126412
vt 0.515218 0.309501
vt 0.966284 0.521837
vt 0.966284 0.578688
vt 0.951967 0.555395
vt 0.604436 0.443756
vt 0.731516 0.887592
vt 0.715139 0.870628
vt 0.731516 0.816141
vt 0.679198 0.658011
vt 0.719150 0.688816
vt 0.689600 0.736521
vt 0.744071 0.084000
vt 0.787348 0.000000
vt 0.089821 0.290470
vt 0.073121 0.402916
vt 0.722251 0.618468
vt 0.159252 0.412851
vt 0.753656 0.052067
vt 0.329110 0.162807
vt 0.515532 0.410047
vt 0.736773 0.754118
vt 0.451220 0.146262
vt 0.387484 0.692480
vt 0.435326 0.736768
vt 0.363136 0.778900
vt 0.078932 0.055971
vt 0.080964 0.028570
vt 0.237426 0.378421
vt 0.266613 0.221460
vt 0.302630 0.310388
vt 0.743652 0.494505
vt 0.743652 0.559642
vt 0.736773 0.528663
vt 0.031514 0.451746
vt 0.701168 0.500969
vt 0.736773 0.494505
vt 0.532171 0.494505
vt 0.661959 0.489092
vt 0.070098 0.499255
vt 0.996152 0.428926
vt 0.996152 0.497359
vt 0.951967 0.456710
vt 0.446170 0.198361
vt 0.401415 0.364296
vt 0.378998 0.838313
vt 0.299160 0.844946
vt 0.308988 0.771649
vt 0.237426 0.811472
vt 0.241352 0.738380
vt 0.440886 0.224920
vt 0.965351 0.480581
vt 0.971829 0.505238
vt 0.796596 0.660208
vt 0.898267 0.609686
vt 0.864645 0.696986
vt 0.966402 0.521837
vt 0.010381 0.506582
vt 0.974094 0.584619
vt 0.997451 0.579279
vt 0.997451 0.701993
vt 0.431495 0.276882
vt 0.436005 0.251723
vt 0.424387 0.302020
vt 0.744071 0.619511
vt 0.797180 0.749673
vt 0.301945 0.526185
vt 0.363792 0.908056
vt 0.341764 0.908573
vt 0.081471 0.666517
vt 0.000000 0.573144
vt 0.381842 0.393147
vt 0.207220 0.694553
vt 0.177377 0.713005
vt 0.170445 0.638079
vt 0.023817 0.660606
vt 0.013421 0.602107
vt 0.155362 0.742698
vt 0.145039 0.749102
vt 0.103188 0.729353
vt 0.128285 0.747577
vt 0.975835 0.945709
vt 0.917569 0.928307
vt 0.898267 0.873406
vt 0.338319 0.550302
vt 0.411159 0.472201
vt 0.441020 0.501842
vt 0.425003 0.575567
vt 0.648855 0.981108
vt 0.635519 0.956455
vt 0.682387 0.925349
vt 0.320368 0.692480
vt 0.682387 1.000000
vt 0.451979 0.524760
vt 0.740456 0.627696
vt 0.736773 0.584143
vt 0.740456 0.559642
vt 0.395711 0.637252
vt 0.374182 0.665710
vt 0.539864 0.811142
vt 0.622971 0.812169
vt 0.951967 0.473858
vt 0.923838 0.579279
vt 0.124498 0.000000
vt 0.984549 0.264580
vt 0.984549 0.428926
vt 0.951967 0.348452
vt 0.818049 0.479043
vt 0.967975 0.579279
vt 0.974094 0.688258
vt 0.744071 0.154867
vt 0.111091 0.176281
vt 0.089359 0.149210
vt 0.586183 0.494505
vt 0.966048 0.000000
vt 0.089074 0.252188
vt 0.664499 0.816141
vt 0.622971 0.721761
vt 0.554877 0.908266
vt 0.237426 0.939033
vt 0.252237 0.908573
vt 0.252237 0.963170
vt 0.716594 0.838443
vt 0.055574 0.348861
vt 0.743360 0.970390
vt 0.729765 0.942559
vt 0.743360 0.908473
vt 0.731516 0.832260
vt 0.743057 0.816141
vt 0.743057 0.845827
vt 0.451979 0.389681
vt 0.898267 0.778785
vt 0.436070 0.817397
vt 0.046415 0.384791
vt 0.802385 0.778785
vt 0.826003 0.868273
vt 0.744071 0.886829
vt 0.244711 0.707877
vt 0.032784 0.421238
vt 0.131771 0.510834
vt 0.729765 0.908473
vt 0.729765 0.990555
vt 0.682387 0.950161
vt 0.451979 0.174576
vt 0.995095 0.701993
vt 0.995095 0.805017
vt 0.974094 0.773975
vt 0.826003 0.972123
vt 0.823602 0.579279
vt 0.424299 0.905655
vt 0.396917 0.908573
vt 0.006700 0.475639
vt 0.995244 0.937364
vt 0.975834 0.914706
vt 0.995244 0.838170
vt 0.622971 0.846451
vt 0.715139 0.816141
vt 0.715139 0.908473
vt 0.826003 0.847100
vt 0.893108 0.836818
vt 0.826141 0.915797
vt 0.893108 0.920276
vt 0.415582 0.330681
vt 0.779796 0.585856
vt 0.758063 0.606318
vt 0.884079 0.809074
vt 0.874391 0.778785
vt 0.377854 0.416798
vt 0.101188 0.877613
vt 0.193838 0.749102
vt 0.193838 0.910207
vt 0.237426 0.689746
vt 0.451403 0.849485
vt 0.443204 0.834266
vt 0.451403 0.785395
vt 0.436070 0.815535
vt 0.439814 0.829273
vt 0.740421 0.627696
vt 0.740421 0.683244
vt 0.736773 0.660277
vt 0.120008 0.930583
vt 0.408887 0.448901
vt 0.192552 0.948564
vt 0.066559 0.707681
vt 0.975835 0.838170
vt 0.450699 0.785395
vt 0.436070 0.773382
vt 0.450699 0.692480
vt 0.273072 0.633264
vt 0.622971 0.908473
vt 0.653532 0.998770
vt 0.436070 0.891139
vt 0.451586 0.849484
vt 0.451586 0.909552
vn -0.3573 -0.5639 0.7446
vn -0.6484 -0.2340 0.7244
vn 0.2420 -0.3887 0.8890
vn 0.8440 0.0890 0.5289
vn 0.8882 -0.4008 0.2247
vn 0.5125 0.5201 0.6833
vn 0.9626 -0.1570 0.2207
vn 0.5282 0.4805 0.7001
vn 0.5499 -0.3860 0.7407
vn -0.0112 0.7221 0.6917
vn -0.4912 0.2786 0.8253
vn 0.3393 0.8051 0.4865
vn 0.6260 -0.7215 0.2959
vn -0.0333 0.6765 0.7357
vn -0.8997 -0.3846 0.2063
vn 0.7449 -0.3883 0.5425
vn -0.0840 0.7655 0.6379
vn -0.5918 0.1614 0.7897
vn -0.4324 -0.9007 0.0417
vn -0.4328 -0.9005 0.0416
vn -0.4252 -0.9039 0.0459
vn 0.0712 -0.9834 -0.1667
vn -0.5444 0.4813 0.6870
vn -0.3793 0.7978 0.4686
vn 0.1280 -0.9836 -0.1272
vn -0.4242 -0.9044 0.0466
vn -0.8160 0.1480 0.5587
vn -0.9641 0.2654 0.0069
vn -0.8043 0.5380 0.2523
vn 0.2728 0.7825 0.5598
vn 0.2707 0.7802 0.5640
vn 0.2723 0.7819 0.5608
vn -0.5742 0.4418 0.6893
vn 0.2702 0.7796 0.5650
vn -0.3518 -0.8964 -0.2697
vn -0.8534 -0.5204 -0.0305
vn 0.3945 0.8914 -0.2232
vn -0.5456 0.2311 0.8056
vn 0.2200 0.9547 -0.2003
vn 0.1806 -0.7932 -0.5815
vn 0.1792 -0.7945 -0.5802
vn 0.1822 -0.7917 -0.5831
vn -0.9438 -0.2742 0.1848
vn -0.6630 -0.6943 0.2799
vn -0.7014 0.3420 0.6253
vn -0.4853 -0.6587 0.5750
vn -0.8504 -0.1070 0.5151
vn -0.8354 -0.4638 0.2950
vn 0.1920 0.8240 0.5330
vn 0.2651 0.8573 0.4413
vn -0.7444 -0.5665 0.3536
vn 0.7816 0.2215 -0.5831
vn -0.6204 -0.2782 0.7333
vn -0.4689 -0.4814 0.7405
vn 0.5534 -0.7565 -0.3486
vn -0.2500 0.0739 0.9654
vn -0.1961 0.8273 0.5264
vn 0.1435 -0.9323 -0.3320
vn -0.2709 0.0721 0.9599
vn -0.1331 -0.9078 -0.3978
vn -0.5209 0.0322 0.8530
vn 0.1413 0.9030 0.4058
vn -0.5935 -0.5898 0.5476
vn -0.2232 -0.3797 0.8978
vn -0.0249 0.9932 0.1137
vn -0.5559 -0.5978 0.5776
vn 0.3150 -0.9359 0.1578
vn 0.1679 0.9641 0.2059
vn 0.0609 0.9966 -0.0563
vn 0.3515 -0.8211 0.4496
vn -0.3717 0.4906 0.7881
vn -0.3706 0.4917 0.7879
vn -0.3709 0.4914 0.7880
vn -0.6724 -0.5789 0.4613
vn -0.6700 -0.5818 0.4611
vn -0.6727 -0.5785 0.4614
vn -0.0744 -0.9818 0.1745
vn 0.8252 -0.4963 0.2697
vn 0.0378 0.9992 0.0148
vn 0.0750 -0.6676 0.7407
vn 0.0713 -0.6708 0.7382
vn 0.0745 -0.6681 0.7404
vn -0.4071 -0.6432 0.6485
vn -0.3048 -0.7078 0.6373
vn -0.4625 -0.6997 0.5445
vn 0.3406 0.7555 -0.5596
vn 0.8686 -0.4041 0.2868
vn -0.7459 -0.4257 0.5123
vn 0.7002 -0.7068 -0.1007
vn 0.0179 -0.9815 -0.1907
vn -0.7008 0.6711 -0.2420
vn 0.0443 0.9985 0.0333
vn 0.0374 0.9981 0.0481
vn -0.7893 -0.4195 0.4483
vn 0.1704 0.9788 -0.1132
vn -0.4256 -0.5600 0.7108
vn 0.3608 -0.9135 0.1881
vn 0.2680 -0.8904 0.3680
vn 0.0582 0.9981 0.0203
vn -0.4354 -0.8330 0.3414
vn 0.4189 -0.8885 -0.1873
vn -0.5215 -0.8067 0.2781
vn -0.2150 -0.6810 -0.7000
vn -0.4096 -0.8840 -0.2256
vn -0.4695 0.0235 0.8826
vn 0.0453 0.9864 -0.1577
vn 0.0199 0.9759 -0.2174
vn 0.0212 0.9760 -0.2168
vn 0.0214 0.9760 -0.2167
vn -0.8940 -0.2727 0.3556
vn -0.8936 -0.2731 0.3563
vn -0.8938 -0.2729 0.3558
vn 0.0198 0.9759 -0.2175
vn -0.9882 0.0732 0.1345
vn 0.1690 0.8805 -0.4429
vn 0.2292 -0.6974 -0.6790
vn 0.0150 0.9977 -0.0655
vn -0.0548 0.8933 -0.4461
vn -0.1079 0.2688 0.9571
vn -0.1163 -0.4235 0.8984
vn -0.2468 -0.5454 0.8010
vn 0.4790 0.3388 0.8098
vn 0.6619 -0.5264 0.5337
vn -0.8846 0.3407 0.3183
vn 0.3220 -0.9248 0.2026
vn 0.6485 -0.7610 0.0149
vn 0.0215 0.8326 0.5534
vn -0.5601 0.4633 0.6868
vn -0.4442 0.5296 0.7226
vn -0.6441 0.0966 0.7588
vn -0.6870 0.2869 0.6676
vn -0.3893 0.4629 0.7963
vn -0.9405 -0.3117 0.1354
vn -0.6394 0.0540 0.7669
vn -0.8860 -0.4345 0.1617
vn -0.1138 -0.9785 -0.1717
vn -0.0365 -0.7965 -0.6035
vn -0.0568 -0.9416 -0.3320
vn -0.3408 0.6097 0.7156
vn 0.3327 0.7979 0.5026
vn -0.4365 0.3246 0.8391
vn -0.9410 -0.3373 0.0260
vn -0.9050 -0.3281 0.2709
vn -0.3901 0.5445 0.7425
vn 0.1788 -0.7949 -0.5798
vn 0.1415 -0.8615 -0.4877
vn 0.2847 0.7700 0.5710
vn -0.6399 0.5399 0.5469
vn 0.6021 0.7642 0.2314
vn -0.7502 -0.6236 0.2197
vn 0.7168 0.6402 -0.2762
vn 0.8003 -0.5886 -0.1141
vn -0.4462 0.6594 0.6051
vn 0.0333 0.3666 0.9298
vn 0.3129 -0.8653 -0.3916
vn 0.0126 0.4395 0.8981
vn -0.6649 -0.5353 0.5209
vn 0.0190 -0.4033 -0.9149
vn -0.0262 0.9575 0.2872
vn -0.7808 -0.5603 0.2766
vn -0.3720 0.4903 0.7882
vn -0.6696 -0.5821 0.4612
vn -0.5954 -0.5339 0.6004
vn -0.3515 -0.6180 0.7033
vn 0.3399 -0.8351 -0.4325
vn -0.4543 -0.6699 0.5873
vn -0.5074 -0.7751 0.3764
vn -0.7908 -0.0382 0.6109
vn -0.5089 -0.7857 -0.3517
vn -0.0108 0.9913 0.1313
vn 0.3970 -0.9008 -0.1757
vn -0.3733 -0.9202 0.1182
vn -0.2518 -0.4235 0.8702
vn 0.0593 0.9842 0.1667
vn 0.1885 0.9744 -0.1228
vn 0.9093 -0.4004 -0.1133
vn -0.8784 0.2475 0.4089
vn -0.5548 -0.7716 0.3112
vn 0.1248 0.9838 -0.1286
vn -0.5530 -0.1934 0.8104
vn -0.3127 -0.6498 0.6928
vn 0.3502 -0.9020 -0.2526
vn -0.4028 0.4541 0.7947
vn -0.5000 -0.1988 0.8429
vn -0.3563 -0.6014 0.7152
vn -0.0996 -0.8031 0.5875
vn -0.1437 -0.2949 0.9447
vn -0.1621 -0.2684 0.9496
vn 0.0279 0.9972 0.0697
vn -0.8113 -0.0917 0.5774
vn 0.0708 -0.6712 0.7378
vn -0.9144 0.2044 0.3494
vn -0.2669 -0.2548 0.9294
vn -0.1687 -0.7793 0.6035
vn -0.1965 -0.3084 0.9307
vn 0.0132 0.9985 0.0532
vn -0.9201 0.0600 0.3871
vn -0.3658 -0.9249 0.1038
vn -0.8457 -0.2430 0.4751
vn 0.2170 0.9761 0.0129
vn 0.8653 -0.3629 -0.3459
vn 0.6672 -0.7403 -0.0823
vn 0.7412 -0.5490 -0.3864
vn -0.4885 -0.7801 0.3909
vn -0.6044 -0.7856 0.1323
vn 0.3475 -0.6901 -0.6348
vn -0.7908 0.1513 0.5932
vn 0.0284 0.9987 -0.0425
vn 0.0673 0.9907 -0.1183
vn -0.9343 0.3084 -0.1787
vn 0.2059 -0.8460 -0.4919
vn -0.2363 -0.8740 -0.4246
vn 0.0432 0.9984 0.0373
vn -0.1372 0.4435 0.8857
vn -0.6294 -0.5859 0.5104
vn -0.1118 0.9929 -0.0405
vn -0.8930 -0.2737 0.3572
vn -0.9813 0.0955 0.1674
vn -0.3127 0.1983 -0.9289
vn 0.2039 -0.9789 -0.0110
s 1
f 1/1/1 2/2/1 3/3/1
f 4/4/2 3/5/2 2/6/2
f 5/7/3 6/8/3 7/9/3
f 7/9/4 8/10/4 9/11/4
f 10/12/5 8/10/5 7/9/5
f 11/13/6 12/14/6 9/15/6
f 7/9/7 13/16/7 10/12/7
f 11/13/8 14/17/8 12/14/8
f 15/18/9 13/16/9 6/8/9
f 12/14/10 14/17/10 16/19/10
f 17/20/11 4/21/11 2/22/11
f 2/23/12 18/24/12 17/25/12
f 6/8/13 19/26/13 20/27/13
f 14/17/14 21/28/14 16/19/14
f 22/29/15 3/5/15 4/4/15
f 6/8/16 20/27/16 23/30/16
f 5/31/17 24/32/17 18/33/17
f 12/14/18 25/34/18 26/35/18
f 27/36/19 1/1/20 3/3/21
f 28/37/22 29/38/22 1/1/22
f 12/14/23 30/39/23 25/34/23
f 31/40/24 32/41/24 30/39/24
f 28/37/25 1/1/25 33/42/25
f 3/3/21 34/43/26 27/36/19
f 4/4/27 35/44/27 36/45/27
f 24/46/28 32/47/28 37/48/28
f 32/47/29 38/49/29 37/48/29
f 18/33/30 24/32/31 35/50/32
f 24/32/33 37/51/33 39/52/33
f 40/53/34 35/50/32 24/32/31
f 41/54/35 27/36/35 34/43/35
f 42/55/36 41/56/36 34/57/36
f 43/58/37 39/59/37 37/60/37
f 44/61/38 45/62/38 36/63/38
f 37/60/39 46/64/39 43/58/39
f 41/54/40 47/65/41 27/36/42
f 42/55/43 36/45/43 48/66/43
f 45/67/44 48/68/44 36/69/44
f 44/70/45 49/71/45 45/72/45
f 45/67/46 50/73/46 48/68/46
f 48/66/47 51/74/47 42/55/47
f 50/75/48 45/72/48 49/71/48
f 52/76/49 39/59/49 43/58/49
f 44/77/50 40/78/50 53/79/50
f 51/74/51 54/80/51 41/56/51
f 52/81/52 55/82/52 56/83/52
f 57/84/53 50/75/53 49/71/53
f 48/66/54 50/75/54 51/74/54
f 58/85/55 59/86/55 60/87/55
f 61/88/56 62/89/56 49/90/56
f 52/91/57 53/92/57 39/52/57
f 60/93/58 41/54/58 63/94/58
f 61/88/59 64/95/59 62/89/59
f 54/96/60 63/94/60 41/54/60
f 53/92/61 52/91/61 65/97/61
f 66/98/62 44/77/62 53/79/62
f 50/75/63 57/84/63 67/99/63
f 62/89/64 57/100/64 49/90/64
f 53/79/65 68/101/65 66/98/65
f 62/102/66 64/103/66 69/104/66
f 1/1/67 70/105/67 19/106/67
f 71/107/68 61/108/68 72/109/68
f 53/110/69 65/111/69 73/112/69
f 74/113/70 63/94/70 54/96/70
f 71/114/71 75/115/72 64/95/73
f 76/116/74 57/84/75 62/117/76
f 74/113/77 54/96/77 77/118/77
f 63/119/78 74/120/78 78/121/78
f 72/109/79 79/122/79 80/123/79
f 69/104/80 81/124/81 82/125/82
f 76/126/83 69/104/83 82/125/83
f 82/125/84 83/127/84 76/126/84
f 84/128/85 76/126/85 83/127/85
f 85/129/86 80/123/86 79/122/86
f 86/130/87 74/120/87 87/131/87
f 88/132/88 81/133/88 89/134/88
f 90/135/89 87/131/89 74/120/89
f 91/136/90 74/113/90 77/118/90
f 75/137/91 71/138/91 92/139/91
f 93/140/92 80/123/92 94/141/92
f 95/142/93 80/123/93 93/140/93
f 92/143/94 88/132/94 75/144/94
f 96/145/95 71/107/95 72/109/95
f 97/146/96 98/147/96 81/124/96
f 91/136/97 77/118/97 99/148/97
f 99/148/98 100/149/98 91/136/98
f 101/150/99 72/109/99 80/123/99
f 102/151/100 103/152/100 104/153/100
f 105/154/101 106/155/101 99/148/101
f 107/156/102 99/148/102 103/152/102
f 108/157/103 99/148/103 107/156/103
f 109/158/104 99/148/104 110/159/104
f 111/160/105 112/161/105 113/162/105
f 114/163/106 115/164/106 116/165/106
f 117/166/107 114/163/108 116/165/109
f 118/167/110 119/168/111 111/169/112
f 120/170/113 114/163/108 117/166/107
f 120/171/114 118/167/114 111/169/114
f 116/165/115 121/172/115 117/166/115
f 117/173/116 122/174/116 123/175/116
f 123/176/117 120/170/117 117/166/117
f 124/177/118 120/170/118 123/176/118
f 7/178/119 12/14/119 5/179/119
f 5/31/120 2/180/120 6/181/120
f 2/2/121 1/1/121 6/182/121
f 7/178/122 9/15/122 12/14/122
f 7/9/123 6/8/123 13/16/123
f 5/183/124 12/184/124 26/185/124
f 19/106/125 6/182/125 1/1/125
f 15/18/126 6/8/126 23/30/126
f 5/31/127 18/33/127 2/180/127
f 16/19/128 30/39/128 12/14/128
f 26/186/129 24/32/129 5/31/129
f 26/187/130 25/188/130 24/46/130
f 17/189/131 35/44/131 4/4/131
f 30/39/132 32/41/132 25/34/132
f 4/4/133 36/45/133 22/29/133
f 25/188/134 32/47/134 24/46/134
f 3/5/135 22/29/135 34/57/135
f 1/1/136 27/36/136 33/42/136
f 125/190/137 126/191/137 27/36/137
f 27/36/138 126/191/138 33/42/138
f 32/41/139 31/40/139 38/192/139
f 18/24/140 35/193/140 17/25/140
f 36/63/141 35/50/141 44/61/141
f 22/29/142 36/45/142 34/57/142
f 42/55/143 34/57/143 36/45/143
f 40/53/144 24/32/144 39/52/144
f 41/54/40 127/194/145 47/65/41
f 41/54/146 60/93/146 127/194/146
f 44/61/147 35/50/147 40/53/147
f 49/90/148 44/195/148 66/196/148
f 55/197/149 52/76/149 43/58/149
f 42/55/150 51/74/150 41/56/150
f 128/198/151 56/199/151 55/200/151
f 60/87/152 59/86/152 129/201/152
f 39/52/153 53/92/153 40/53/153
f 66/196/154 61/88/154 49/90/154
f 58/202/155 60/93/155 63/94/155
f 56/203/156 130/204/156 52/205/156
f 50/75/157 67/99/157 51/74/157
f 131/206/158 52/207/158 130/208/158
f 66/98/159 72/109/159 61/108/159
f 54/80/160 51/74/160 132/209/160
f 71/114/71 64/95/73 61/88/161
f 76/116/74 67/99/162 57/84/75
f 75/144/163 88/132/163 64/210/163
f 89/211/164 69/104/164 64/103/164
f 63/94/165 133/212/165 58/202/165
f 69/104/166 76/126/166 62/102/166
f 51/213/167 67/214/167 132/215/167
f 89/134/168 64/210/168 88/132/168
f 67/216/169 76/126/169 84/128/169
f 68/101/170 79/122/170 66/98/170
f 78/217/171 133/212/171 63/94/171
f 132/218/172 77/118/172 54/96/172
f 69/219/173 89/220/173 81/221/173
f 79/122/174 72/109/174 66/98/174
f 134/222/175 79/122/175 68/101/175
f 74/120/176 86/130/176 78/121/176
f 83/223/177 67/224/177 84/225/177
f 132/215/178 67/214/178 83/226/178
f 85/129/179 94/141/179 80/123/179
f 81/133/180 88/132/180 135/227/180
f 136/228/181 137/229/181 81/124/181
f 91/136/182 90/230/182 74/113/182
f 135/231/183 136/232/183 81/233/183
f 132/234/184 83/235/184 104/236/184
f 137/229/185 97/146/185 81/124/185
f 99/148/186 77/118/186 132/218/186
f 82/237/187 138/238/187 83/239/187
f 83/239/188 138/238/188 104/240/188
f 95/142/189 139/241/189 80/123/189
f 135/227/190 88/132/190 140/242/190
f 81/124/81 98/147/191 82/125/82
f 88/132/192 141/243/192 140/242/192
f 82/237/193 142/244/193 138/238/193
f 104/153/194 99/148/194 132/218/194
f 98/245/195 142/244/195 82/237/195
f 143/246/196 96/145/196 72/109/196
f 92/247/197 71/248/197 96/249/197
f 102/151/198 104/153/198 138/250/198
f 141/243/199 88/132/199 92/143/199
f 72/109/200 101/150/200 143/246/200
f 100/251/201 144/252/201 91/253/201
f 144/252/202 145/254/202 91/253/202
f 144/252/203 146/255/203 145/254/203
f 103/152/204 99/148/204 104/153/204
f 92/256/205 113/257/205 147/258/205
f 99/148/206 106/155/206 100/149/206
f 92/247/207 96/249/207 113/259/207
f 114/163/208 96/145/208 143/246/208
f 148/260/209 114/163/209 143/246/209
f 113/259/210 96/249/210 114/261/210
f 149/262/211 105/154/211 99/148/211
f 99/148/212 109/158/212 149/262/212
f 115/164/213 114/163/213 148/260/213
f 113/162/214 114/263/214 111/160/214
f 108/264/215 110/265/215 99/266/215
f 120/170/216 111/267/216 114/163/216
f 119/168/111 112/268/217 111/169/112
f 120/171/218 150/269/218 118/167/218
f 151/270/219 120/271/219 124/272/219
f 1/1/220 29/38/220 70/105/220
