# Blender v2.80 (sub 44) OBJ File: ''
# www.blender.org
o Group16769.001
v 0.625323 2.905931 13.270141
v 2.259485 0.765324 11.804354
v 2.656342 3.350626 12.461673
v 0.247381 0.434148 11.707687
v -0.763407 -0.463453 11.374838
v 0.163957 -1.846527 10.336897
v -3.651786 1.402187 11.115327
v -3.042818 -1.551142 9.785529
v -0.828089 -3.861713 8.898327
v -2.172335 5.175262 12.253325
v -4.822646 2.178394 11.684155
v -2.740883 -3.880009 7.513677
v -1.001846 -5.074555 6.647203
v -6.264661 4.994559 10.126781
v -4.129752 -2.360513 7.248742
v -6.794043 2.291954 10.419911
v 2.647838 -0.857828 8.019988
v 3.834047 1.344599 9.850986
v -5.496159 -0.679652 6.810888
v 1.096560 -3.742451 7.792739
v 1.925486 5.860178 12.124306
v 3.296048 5.446424 8.980529
v -5.942405 -0.187916 5.750949
v -7.894193 3.103096 6.821003
v 4.494424 3.309260 7.742359
v 1.416419 -5.354618 4.859813
v 2.856336 -3.515775 4.516309
v 5.463935 0.861416 5.705087
v -7.834533 5.600633 5.671681
v -6.546124 5.804874 7.635664
v -0.160017 5.901649 10.913834
v 2.942349 5.600633 3.384600
v -7.189129 1.258513 6.396174
v -7.859953 1.375476 4.502214
v -4.588999 5.539979 2.431967
v -5.144741 5.971741 7.820752
v -3.513362 -3.899076 5.164956
v -5.289620 -1.094788 4.264646
v 0.284670 -6.489569 4.108973
v 1.663976 5.600633 2.437201
v -1.913900 5.600633 4.937678
v 6.624028 4.453897 1.785560
v 5.233221 5.490984 2.229096
v -2.072260 -5.321446 4.824481
v -4.484612 -2.312807 3.726485
v 2.753651 -7.294186 -0.150549
v 7.133999 1.429918 0.238026
v -6.998878 0.079714 2.216467
v -6.942276 2.731142 1.091897
v -6.968652 5.303226 2.380945
v 5.303090 -1.700900 2.458580
v -0.193500 -6.622664 0.856656
v 3.714387 -4.949529 1.723003
v 5.994422 -4.352019 0.431956
v -1.782340 -5.436825 1.627766
v 2.839875 7.546000 0.181943
v -2.029069 5.775006 1.269448
v -5.241286 5.203370 -0.704324
v -5.166874 4.346557 -4.327210
v -6.653224 0.734240 -0.453376
v 6.175430 7.500773 -1.045117
v 7.565853 6.044836 -0.859511
v -5.372720 -1.270966 0.676095
v -2.237814 6.443579 -1.394280
v 0.436671 -6.387608 -2.299898
v -6.058992 -0.253070 -2.027191
v -4.188928 -2.189115 1.748593
v -2.810173 -3.992640 1.432901
v -4.735003 -1.389197 -1.537933
v -5.909630 1.214589 -3.913650
v -3.027420 -3.732447 -0.802091
v -2.026189 -4.511962 -1.796935
v -0.283527 8.331729 -4.799946
v 3.215504 7.679778 -2.447194
v -2.777319 -3.367694 -2.560436
v 4.873986 -8.146046 -3.986088
v 7.623839 -5.825940 -4.036084
v -4.370610 5.317829 -3.506350
v 7.927679 6.337801 -3.481814
v 1.319492 7.603755 -4.585865
v 4.494070 6.086478 -4.067577
v 8.159387 -1.552275 -3.543444
v 1.429543 -7.184800 -4.957489
v 6.517751 6.161510 -9.029289
v 9.590035 -8.678742 -7.675142
v 9.585315 -3.158997 -7.757033
v -1.771958 7.837310 -8.141729
v -4.412397 6.066792 -7.750151
v -4.770393 0.829632 -6.175121
v -0.693407 -4.543715 -4.982259
v 4.316069 6.251856 -6.495466
v 1.535986 7.907197 -6.720428
v 0.077110 -6.776621 -7.521000
v -2.264061 -2.740612 -6.735238
v 3.322887 6.300276 -8.449916
v 4.634708 6.310274 -9.922315
v 9.615522 6.310092 -7.815422
v -1.452161 -5.154233 -9.392514
v -0.038760 7.580296 -8.525570
v -2.442190 -7.921419 -13.278489
v -1.422634 -8.454612 -12.454754
v 4.864788 -8.589513 -9.730412
v 1.835338 -8.841937 -8.458374
v -3.204674 -2.856024 -9.895520
v 1.946980 6.279442 -11.061066
v -1.839727 6.348877 -12.668207
v -0.978731 6.293401 -10.544587
v -3.594919 5.788779 -10.546349
v -3.965821 1.941294 -13.574982
v -3.565005 -0.854134 -13.356844
v -4.825800 1.980174 -9.169994
v -4.119717 -0.109090 -10.215698
v -2.605322 5.904510 -13.017035
v -3.166187 -3.214880 -13.178679
v 1.857595 -2.183586 7.916289
v -2.305249 6.203316 9.881223
v 7.153165 -8.440539 -6.601871
v -2.927484 -6.742163 -13.612989
vt 0.119098 0.000000
vt 0.165449 0.043271
vt 0.104059 0.031573
vt 0.819286 0.706049
vt 0.777465 0.691889
vt 0.834342 0.666202
vt 0.843373 0.550802
vt 0.871949 0.547027
vt 0.846420 0.579171
vt 0.445041 0.561884
vt 0.428778 0.661507
vt 0.382884 0.603563
vt 0.777465 0.775076
vt 0.825038 0.720698
vt 0.825038 0.778914
vt 0.504998 0.619930
vt 0.370711 0.658733
vt 0.443340 0.682552
vt 0.901283 0.105832
vt 0.862597 0.136714
vt 0.850444 0.086225
vt 0.518185 0.713271
vt 0.904181 0.047568
vt 0.940079 0.097884
vt 0.455805 0.728022
vt 0.202784 0.122164
vt 0.148417 0.093765
vt 0.980041 0.092780
vt 0.814338 0.116607
vt 0.047137 0.030715
vt 0.053879 0.103810
vt 0.529500 0.082101
vt 0.596563 0.000000
vt 0.541088 0.102123
vt 0.616132 0.070125
vt 0.101143 0.139167
vt 0.310981 0.178073
vt 0.264696 0.194841
vt 0.273812 0.116530
vt 0.156261 0.188722
vt 0.675267 0.093017
vt 0.680375 0.057212
vt 0.095971 0.962636
vt 0.030745 0.901908
vt 0.075851 0.790915
vt 0.670913 0.752099
vt 0.630634 0.730617
vt 0.686336 0.717653
vt 0.251792 0.816053
vt 0.261507 0.933761
vt 0.228780 0.929608
vt 0.353133 0.642799
vt 0.353133 0.723122
vt 0.323170 0.695561
vt 0.842936 0.200461
vt 0.817819 0.184968
vt 0.110925 0.779277
vt 0.174954 0.851155
vt 0.576598 0.119520
vt 0.003049 0.734002
vt 0.031858 0.753667
vt 0.896225 0.170009
vt 0.932250 0.150030
vt 0.968847 0.167383
vt 0.353608 0.288832
vt 0.340189 0.184821
vt 0.139542 0.309324
vt 0.069933 0.272630
vt 0.614658 0.675399
vt 0.677739 0.680209
vt 0.610649 0.193651
vt 0.670436 0.165313
vt 0.216775 0.253359
vt 0.872148 0.264795
vt 0.296436 0.257723
vt 0.277288 0.300666
vt 0.907996 0.236552
vt 0.843373 0.552244
vt 0.787481 0.576444
vt 0.777465 0.547027
vt 0.809376 0.301446
vt 0.201923 0.777879
vt 0.287130 0.755540
vt 0.305639 0.828552
vt 0.652396 0.313024
vt 0.564699 0.228099
vt 0.547916 0.171369
vt 0.100163 0.731165
vt 0.033137 0.686432
vt 0.000000 0.322816
vt 0.030783 0.331094
vt 0.623688 0.622298
vt 0.686336 0.654357
vt 0.309112 0.679637
vt 0.843373 0.666202
vt 0.877492 0.330393
vt 0.542719 0.263854
vt 0.518308 0.210824
vt 0.662442 0.619436
vt 0.685659 0.586581
vt 0.722797 0.616221
vt 0.755390 0.600123
vt 0.777465 0.644030
vt 0.578079 0.303022
vt 0.648421 0.554736
vt 0.653219 0.521594
vt 0.694862 0.724019
vt 0.723347 0.708810
vt 0.752218 0.775260
vt 0.224544 0.726683
vt 0.203847 0.650505
vt 0.109175 0.675953
vt 0.937268 0.300452
vt 0.777465 0.547027
vt 0.864105 0.666202
vt 0.864105 0.755450
vt 0.836533 0.726175
vt 0.368906 0.381773
vt 0.308312 0.402682
vt 0.670915 0.236733
vt 0.675546 0.298643
vt 0.023309 0.385482
vt 0.166025 0.643642
vt 0.780942 0.392519
vt 0.090468 0.631787
vt 0.009342 0.623923
vt 0.207159 0.394123
vt 0.867608 0.392349
vt 0.077787 0.519389
vt 0.370711 0.491958
vt 0.241738 0.489615
vt 0.259318 0.590406
vt 0.315489 0.609818
vt 0.286128 0.693847
vt 0.571003 0.355019
vt 0.925976 0.371010
vt 0.963192 0.307195
vt 0.110631 0.584008
vt 0.175413 0.599798
vt 0.914545 0.436310
vt 0.978708 0.391045
vt 0.145973 0.550379
vt 0.126182 0.512784
vt 0.020390 0.484275
vt 0.563203 0.607370
vt 0.563931 0.697339
vt 0.518185 0.673683
vt 0.605258 0.634258
vt 0.222715 0.571758
vt 0.614658 0.521594
vt 0.970197 0.537390
vt 0.812999 0.510842
vt 0.872312 0.472801
vt 0.315489 0.588954
vt 0.316032 0.491958
vt 0.364810 0.573158
vt 0.194259 0.505539
vt 0.290236 0.495541
vt 0.256748 0.533366
vt 0.315489 0.547635
vt 0.600902 0.511998
vt 0.535574 0.510556
vt 0.599206 0.416630
vt 0.551247 0.442410
vt 0.690235 0.448339
vt 0.694862 0.503824
vt 0.480461 0.509709
vt 0.871949 0.615670
vt 0.518185 0.533647
vt 0.458905 0.521594
vt 0.231464 0.057652
vt 0.280975 0.079696
vt 0.235607 0.118954
vt 0.132133 1.000000
vt 0.040955 0.974731
vt 0.834342 0.720698
vt 0.315489 0.771837
vt 0.349049 0.723122
vt 0.349049 0.792209
vt 0.151258 0.955112
vt 0.773187 0.714728
vt 0.752218 0.690049
vt 0.773187 0.644030
vt 1.000000 0.000000
vt 0.238335 0.980694
vt 0.660566 0.006847
vt 0.694126 0.521594
vt 0.694126 0.590889
vt 0.686336 0.554712
vt 0.998231 0.109943
vt 0.573653 0.082827
vt 0.303461 0.901093
vt 0.315489 0.667159
vt 0.726127 0.644030
vt 0.048888 0.252229
vt 0.752218 0.679407
vt 0.000000 0.678540
vt 0.834342 0.755655
vt 0.694862 0.593079
vt 0.517027 0.259648
vt 0.472765 0.289987
vt 0.370711 0.451490
vt 0.694862 0.386561
vt 0.744071 0.456991
vt 0.694862 0.490675
vt 0.729118 0.394872
vt 0.489684 0.378793
vt 0.614658 0.741720
vt 0.364810 0.642799
vt 0.487470 0.440911
vt 1.000000 0.547027
vt 0.309614 0.491958
vt 0.398092 0.521594
vt 0.370711 0.517219
vt 0.000023 0.526006
vn 0.4076 -0.2833 0.8681
vn 0.0483 -0.5390 0.8409
vn 0.1776 -0.5117 0.8406
vn -0.3139 -0.3639 0.8770
vn -0.1912 -0.5062 0.8410
vn -0.4164 -0.1090 0.9026
vn -0.3603 -0.4438 0.8205
vn 0.2068 -0.3559 0.9113
vn -0.3304 -0.8200 0.4673
vn -0.4559 0.2404 0.8569
vn -0.6905 -0.5490 0.4710
vn -0.3115 -0.4428 0.8408
vn 0.6728 -0.6524 0.3489
vn -0.7407 -0.4796 0.4704
vn 0.3019 -0.8488 0.4340
vn 0.8871 0.3049 0.3466
vn 0.8895 0.3003 0.3443
vn 0.8875 0.3040 0.3462
vn -0.8490 -0.5149 0.1186
vn -0.8328 -0.5373 0.1335
vn 0.8899 0.2997 0.3440
vn 0.7630 -0.5277 0.3733
vn 0.9308 0.0717 0.3583
vn 0.9315 0.0723 0.3565
vn 0.9305 0.0807 0.3572
vn 0.4410 -0.7022 0.5589
vn -0.8204 0.2551 0.5117
vn 0.1407 0.9899 0.0184
vn -0.6949 -0.6897 0.2035
vn -0.1060 0.9903 -0.0903
vn -0.8394 -0.5425 -0.0336
vn -0.8388 -0.5432 -0.0370
vn -0.8397 -0.5421 -0.0316
vn 0.3473 -0.7331 0.5847
vn -0.0292 0.9987 -0.0417
vn -0.9996 0.0127 -0.0242
vn 0.6246 0.7589 0.1842
vn -0.7096 -0.6595 -0.2482
vn 0.6298 -0.6104 0.4804
vn 0.9560 0.0112 0.2932
vn -0.6774 -0.7196 0.1527
vn -0.6783 -0.7199 0.1469
vn -0.6789 -0.7203 0.1425
vn -0.9563 0.1231 -0.2651
vn -0.9571 0.1219 -0.2629
vn -0.9538 0.1268 -0.2725
vn 0.9025 -0.3587 0.2384
vn -0.4178 -0.9032 0.0984
vn 0.5278 -0.4247 0.7356
vn -0.6061 -0.7950 -0.0263
vn -0.3646 0.7906 0.4919
vn -0.1991 -0.9775 0.0693
vn -0.0690 0.9964 0.0495
vn 0.8572 -0.1525 0.4919
vn -0.0968 0.9916 -0.0863
vn -0.1270 0.9887 -0.0797
vn -0.9532 0.1277 -0.2742
vn -0.9898 -0.0371 -0.1372
vn 0.2151 0.8035 0.5551
vn 0.5599 0.6067 0.5643
vn 0.9439 -0.0098 0.3302
vn -0.6697 -0.7403 -0.0579
vn -0.3451 0.9118 -0.2227
vn -0.3309 0.7930 0.5115
vn -0.2603 -0.9576 -0.1233
vn -0.8464 -0.5324 0.0144
vn -0.7359 -0.6129 0.2876
vn -0.6158 -0.7761 -0.1359
vn -0.9780 0.0190 -0.2075
vn -0.6317 -0.7747 -0.0288
vn -0.8041 -0.5859 -0.1010
vn -0.2964 0.8972 0.3273
vn 0.0340 0.9979 0.0556
vn -0.6387 -0.7531 -0.1579
vn -0.7442 -0.6433 -0.1800
vn -0.7701 -0.5940 -0.2327
vn 0.5842 -0.6830 0.4384
vn -0.6794 0.7108 -0.1821
vn 0.9896 -0.0618 0.1296
vn 0.4240 0.8971 -0.1243
vn -0.3672 -0.9301 0.0036
vn 0.0613 0.7355 -0.6748
vn 0.9699 0.0266 0.2420
vn -0.3082 -0.9368 0.1659
vn -0.0707 0.9974 -0.0137
vn 0.8823 0.0077 0.4706
vn -0.5348 0.8312 0.1520
vn -0.5606 0.8178 0.1302
vn -0.5624 0.8166 0.1298
vn -0.5607 0.8177 0.1301
vn -0.8734 0.1457 -0.4648
vn -0.7016 -0.6521 -0.2871
vn 0.4270 0.9037 0.0303
vn 0.3889 0.9058 0.1682
vn -0.4519 -0.8868 0.0972
vn -0.6410 -0.7435 -0.1905
vn 0.0531 0.9971 0.0541
vn 0.9471 -0.0010 0.3209
vn -0.8301 -0.5149 0.2141
vn -0.8221 -0.5275 0.2144
vn 0.3285 0.8368 -0.4381
vn -0.8496 -0.3026 0.4319
vn 0.0315 -0.9921 -0.1218
vn -0.7352 -0.4495 0.5074
vn 0.0088 0.9997 0.0226
vn -0.1885 0.9768 0.1019
vn -0.9701 -0.1538 -0.1880
vn -0.9569 -0.2710 -0.1047
vn -0.8759 0.3478 -0.3345
vn -0.9759 -0.1747 -0.1309
vn 0.0438 -0.5158 0.8556
vn 0.3196 0.2171 0.9223
vn 0.5832 -0.6422 0.4975
vn -0.0334 0.3741 0.9268
vn 0.4887 -0.3034 0.8180
vn -0.1490 0.9457 0.2890
vn 0.2174 -0.5451 0.8097
vn 0.6166 -0.6986 0.3629
vn -0.1855 -0.6664 0.7222
vn 0.6969 -0.4585 0.5514
vn 0.7878 -0.2626 0.5572
vn -0.4384 -0.6561 0.6143
vn -0.0639 0.9143 0.3999
vn -0.3339 -0.8304 0.4460
vn -0.5219 0.1924 0.8311
vn -0.6469 -0.6863 0.3325
vn 0.0762 0.9923 -0.0974
vn -0.2454 0.8844 0.3970
vn -0.8973 0.3799 0.2249
vn -0.9191 0.2158 0.3296
vn 0.4096 -0.0532 0.9107
vn -0.1537 0.9344 0.3213
vn 0.1875 0.9767 -0.1042
vn 0.9294 0.0754 0.3613
vn 0.2632 -0.8330 0.4866
vn 0.8087 -0.4269 0.4048
vn -0.2667 0.9271 0.2633
vn 0.0065 0.9927 -0.1205
vn -0.7803 -0.6242 0.0389
vn 0.7661 -0.4893 0.4168
vn -0.8115 -0.5584 0.1722
vn -0.7363 -0.6299 0.2473
vn -0.4986 -0.8498 0.1709
vn 0.8851 0.2816 0.3705
vn -0.6792 -0.7203 0.1412
vn -0.8719 -0.3987 0.2842
vn 0.7550 -0.5477 0.3606
vn -0.0512 0.9962 -0.0700
vn 0.0597 0.9979 0.0237
vn 0.7553 -0.6270 -0.1906
vn 0.0476 0.9961 -0.0749
vn -0.5790 -0.6905 0.4336
vn -0.3410 -0.8839 0.3200
vn 0.6852 -0.5407 0.4880
vn 0.0227 0.9993 -0.0306
vn 0.8148 -0.4740 0.3338
vn 0.9337 0.0793 0.3491
vn -0.0959 0.9888 -0.1146
vn -0.8400 -0.5418 -0.0303
vn -0.9699 0.0703 -0.2330
vn 0.5770 -0.6409 0.5062
vn -0.9489 -0.1059 -0.2974
vn -0.7439 -0.6111 0.2704
vn 0.0325 0.9984 0.0464
vn -0.7709 -0.6352 -0.0470
vn -0.7973 -0.5835 -0.1548
vn -0.7956 -0.5866 -0.1512
vn -0.7960 -0.5860 -0.1520
vn 0.2868 0.8228 0.4906
vn -0.0319 0.9688 0.2457
vn 0.6080 0.5866 0.5350
vn -0.7977 -0.5826 -0.1557
vn -0.7471 -0.6167 -0.2479
vn -0.5303 -0.8375 -0.1317
vn 0.9105 -0.1668 0.3784
vn 0.9101 -0.1626 0.3811
vn 0.9095 -0.1588 0.3842
vn 0.4944 -0.6572 0.5689
vn 0.9097 -0.1583 0.3840
vn -0.3187 0.9132 0.2542
vn -0.3971 0.9137 -0.0861
vn -0.9482 0.1914 -0.2536
vn -0.9514 -0.2020 -0.2325
vn -0.7267 -0.6868 -0.0093
vn 0.5505 -0.6972 0.4592
vn 0.7010 0.6916 0.1740
vn 0.1993 0.9323 -0.3017
vn -0.6190 -0.7644 -0.1805
vn -0.7323 -0.6386 -0.2366
vn -0.0836 0.9957 0.0387
vn -0.3937 -0.7102 -0.5837
vn -0.7542 -0.5946 -0.2787
vn -0.7511 -0.5978 -0.2801
vn -0.7535 -0.5953 -0.2790
vn -0.7508 -0.5980 -0.2804
vn 0.9157 -0.1574 0.3699
vn 0.4460 0.7885 -0.4234
vn -0.6184 -0.7446 -0.2513
vn 0.5457 -0.6349 0.5469
vn -0.8120 0.5734 0.1092
vn -0.5626 0.8165 0.1298
vn 0.1093 0.9922 0.0596
vn 0.2282 -0.7026 0.6741
vn -0.8179 -0.5456 -0.1825
vn -0.9036 -0.4180 0.0934
vn 0.4938 0.8526 0.1713
vn -0.9768 0.0024 -0.2141
vn 0.9316 0.0245 0.3627
vn 0.0438 0.9990 0.0025
vn -0.3449 -0.8632 0.3686
vn -0.9953 0.0832 0.0504
vn 0.5110 0.8256 -0.2392
vn 0.1027 0.9764 -0.1902
vn -0.8183 -0.5747 0.0017
vn 0.0275 -0.9904 0.1354
vn 0.0215 0.9803 -0.1963
vn -0.9563 -0.2785 -0.0893
vn 0.0788 -0.9968 -0.0102
vn -0.7948 -0.5499 0.2566
vn -0.6791 -0.6908 0.2483
vn -0.9357 0.1965 -0.2931
vn 0.2946 0.7378 -0.6074
vn -0.9192 -0.2732 0.2836
vn -0.5648 0.7885 -0.2435
vn -0.5912 -0.6916 0.4149
vn -0.1553 0.8070 -0.5698
vn -0.9524 0.2398 -0.1881
vn 0.0054 0.8421 -0.5393
vn 0.0031 0.9999 -0.0096
vn -0.6614 -0.6255 0.4138
vn -0.4492 0.8826 -0.1386
vn -0.9180 -0.3064 0.2518
vn -0.9316 -0.2838 0.2272
vn -0.9605 -0.0309 -0.2767
vn -0.0577 -0.9943 0.0896
vn -0.0394 0.9990 -0.0217
vn -0.0104 0.9999 -0.0025
s 1
f 1/1/1 2/2/1 3/3/1
f 4/4/2 2/5/2 1/6/2
f 5/7/3 6/8/3 4/9/3
f 1/10/4 7/11/4 5/12/4
f 6/13/5 8/14/5 9/15/5
f 10/16/6 7/11/6 1/10/6
f 5/12/7 7/11/7 8/17/7
f 10/16/8 11/18/8 7/11/8
f 12/19/9 13/20/9 9/21/9
f 10/16/10 14/22/10 11/18/10
f 12/19/11 8/23/11 15/24/11
f 16/25/12 8/17/12 7/11/12
f 17/26/13 18/27/13 2/2/13
f 8/23/14 19/28/14 15/24/14
f 13/20/15 20/29/15 9/21/15
f 21/30/16 3/3/17 22/31/18
f 19/32/19 16/33/19 23/34/19
f 24/35/20 23/34/20 16/33/20
f 3/3/17 25/36/21 22/31/18
f 26/37/22 27/38/22 20/39/22
f 18/27/23 28/40/24 25/36/25
f 18/27/26 17/26/26 27/38/26
f 29/41/27 24/35/27 30/42/27
f 31/43/28 22/44/28 32/45/28
f 33/46/29 34/47/29 23/48/29
f 35/49/30 30/50/30 36/51/30
f 37/52/31 23/53/32 38/54/33
f 39/55/34 26/56/34 13/20/34
f 40/57/35 41/58/35 31/43/35
f 29/41/36 34/59/36 24/35/36
f 22/44/37 42/60/37 43/61/37
f 44/62/38 37/63/38 45/64/38
f 46/65/39 27/38/39 39/66/39
f 47/67/40 42/68/40 28/40/40
f 48/69/41 38/70/42 34/47/43
f 49/71/44 29/41/45 50/72/46
f 51/73/47 47/67/47 28/40/47
f 52/74/48 39/55/48 44/62/48
f 53/75/49 54/76/49 51/73/49
f 55/77/50 52/74/50 44/62/50
f 56/78/51 40/79/51 32/80/51
f 52/74/52 46/81/52 39/55/52
f 57/82/53 35/49/53 41/58/53
f 47/67/54 51/73/54 54/76/54
f 58/83/55 50/84/55 35/49/55
f 58/83/56 35/49/56 57/82/56
f 59/85/57 49/71/44 50/72/46
f 49/71/58 60/86/58 48/87/58
f 56/88/59 43/61/59 61/89/59
f 61/90/60 42/68/60 62/91/60
f 42/68/61 47/67/61 62/91/61
f 48/69/62 63/92/62 45/93/62
f 59/94/63 50/84/63 58/83/63
f 56/78/64 64/95/64 40/79/64
f 65/96/65 46/81/65 52/74/65
f 60/86/66 66/97/66 63/98/66
f 67/99/67 63/92/67 68/100/67
f 66/101/68 69/102/68 63/103/68
f 70/104/69 60/86/69 49/71/69
f 71/105/70 72/106/70 68/100/70
f 55/107/71 68/108/71 72/109/71
f 64/110/72 56/88/72 73/111/72
f 74/112/73 56/88/73 61/89/73
f 72/113/74 52/74/74 55/77/74
f 69/102/75 75/114/75 63/103/75
f 63/115/76 75/116/76 71/117/76
f 76/118/77 77/119/77 54/76/77
f 59/85/78 58/120/78 78/121/78
f 62/91/79 47/67/79 79/122/79
f 80/123/80 73/111/80 56/88/80
f 65/96/81 76/124/81 46/81/81
f 81/125/82 74/112/82 79/126/82
f 79/122/83 47/67/83 82/127/83
f 83/128/84 76/124/84 65/96/84
f 81/125/85 79/126/85 84/129/85
f 77/119/86 85/130/86 86/131/86
f 87/132/87 88/133/87 78/134/87
f 78/134/88 64/110/89 87/132/90
f 89/135/91 70/104/91 59/85/91
f 90/136/92 72/113/92 75/137/92
f 80/123/93 81/125/93 91/138/93
f 73/111/94 80/123/94 92/139/94
f 93/140/95 83/128/95 65/96/95
f 75/137/96 94/141/96 90/136/96
f 95/142/97 84/129/97 96/143/97
f 82/127/98 86/131/98 97/144/98
f 98/145/99 90/146/99 94/147/99
f 93/148/100 90/146/100 98/145/100
f 99/149/101 92/139/101 95/142/101
f 100/150/102 93/148/102 98/145/102
f 101/151/103 102/152/103 103/153/103
f 104/154/104 100/155/104 98/156/104
f 105/157/105 106/158/105 107/159/105
f 106/158/106 108/160/106 107/159/106
f 109/161/107 110/162/107 111/163/107
f 111/163/108 110/162/108 112/164/108
f 108/165/109 113/166/109 109/161/109
f 110/162/110 114/167/110 112/164/110
f 2/168/111 4/9/111 6/8/111
f 21/169/112 1/10/112 3/170/112
f 6/171/113 9/172/113 115/173/113
f 10/16/114 1/10/114 21/169/114
f 115/173/115 9/172/115 20/39/115
f 31/43/116 10/174/116 21/175/116
f 4/4/117 1/6/117 5/176/117
f 6/171/118 17/26/118 2/2/118
f 5/177/119 8/178/119 6/179/119
f 115/173/120 17/26/120 6/171/120
f 18/27/121 3/3/121 2/2/121
f 8/23/122 12/19/122 9/21/122
f 31/43/123 116/180/123 10/174/123
f 7/181/124 11/182/124 16/183/124
f 11/18/125 14/22/125 16/25/125
f 16/184/126 19/28/126 8/23/126
f 22/44/127 31/43/127 21/175/127
f 116/180/128 14/185/128 10/174/128
f 30/42/129 24/35/129 14/186/129
f 24/35/130 16/33/130 14/186/130
f 23/187/131 24/188/131 33/189/131
f 36/51/132 30/50/132 14/185/132
f 31/43/133 41/58/133 116/180/133
f 3/3/134 18/27/23 25/36/25
f 26/56/135 20/29/135 13/20/135
f 20/39/136 27/38/136 115/173/136
f 36/51/137 14/185/137 116/180/137
f 116/180/138 41/58/138 36/51/138
f 23/190/139 15/24/139 19/28/139
f 17/26/140 115/173/140 27/38/140
f 37/63/141 15/24/141 23/190/141
f 15/24/142 37/63/142 12/19/142
f 37/63/143 13/20/143 12/19/143
f 22/31/144 25/36/144 42/68/144
f 23/48/145 34/47/43 38/70/42
f 24/35/146 34/59/146 33/191/146
f 18/27/147 27/38/147 28/40/147
f 29/192/148 30/50/148 35/49/148
f 43/61/149 32/45/149 22/44/149
f 39/66/150 27/38/150 26/37/150
f 41/58/151 35/49/151 36/51/151
f 44/62/152 13/20/152 37/63/152
f 44/62/153 39/55/153 13/20/153
f 53/75/154 28/40/154 27/38/154
f 40/57/155 31/43/155 32/45/155
f 51/73/156 28/40/156 53/75/156
f 25/36/25 28/40/24 42/68/157
f 50/84/158 29/192/158 35/49/158
f 45/193/159 37/52/31 38/54/33
f 34/59/160 29/41/160 49/71/160
f 46/65/161 53/75/161 27/38/161
f 49/71/162 48/87/162 34/59/162
f 48/69/163 45/93/163 38/70/163
f 57/82/164 41/58/164 40/57/164
f 45/64/165 55/77/165 44/62/165
f 68/108/166 55/107/167 45/194/168
f 56/88/169 32/45/169 43/61/169
f 40/57/170 64/110/170 57/82/170
f 61/90/171 43/195/171 42/68/171
f 67/196/172 68/108/166 45/194/168
f 48/87/173 60/86/173 63/98/173
f 45/93/174 63/92/174 67/99/174
f 47/67/175 54/76/176 82/127/177
f 53/75/178 46/65/178 54/76/178
f 54/76/176 77/119/179 82/127/177
f 64/110/180 58/83/180 57/82/180
f 78/134/181 58/83/181 64/110/181
f 59/85/182 70/104/182 49/71/182
f 60/86/183 70/104/183 66/97/183
f 68/100/184 63/92/184 71/105/184
f 46/65/185 76/118/185 54/76/185
f 79/126/186 61/89/186 62/197/186
f 79/126/187 74/112/187 61/89/187
f 65/96/188 52/74/188 72/113/188
f 71/117/189 75/116/189 72/198/189
f 74/112/190 80/123/190 56/88/190
f 66/101/191 70/199/191 69/102/191
f 70/104/192 89/135/193 69/200/194
f 69/200/194 89/135/193 75/201/195
f 86/131/196 82/127/196 77/119/196
f 80/123/197 74/112/197 81/125/197
f 90/136/198 65/96/198 72/113/198
f 76/118/199 117/202/199 77/119/199
f 59/85/200 78/121/200 88/203/200
f 73/111/201 87/132/90 64/110/89
f 84/129/202 91/138/202 81/125/202
f 117/204/203 85/205/203 77/206/203
f 89/135/204 94/207/204 75/201/204
f 90/146/205 93/148/205 65/208/205
f 91/138/206 92/139/206 80/123/206
f 88/203/207 89/135/207 59/85/207
f 82/127/208 97/144/208 79/122/208
f 84/129/209 95/142/209 91/138/209
f 83/128/210 103/153/210 76/124/210
f 88/203/211 111/163/211 89/135/211
f 92/139/212 91/138/212 95/142/212
f 99/149/213 87/132/213 73/111/213
f 89/135/214 112/164/214 94/207/214
f 76/124/215 103/153/215 117/204/215
f 99/149/216 73/111/216 92/139/216
f 111/163/217 112/164/217 89/135/217
f 103/153/218 102/152/218 117/204/218
f 94/209/219 104/154/219 98/156/219
f 93/140/220 103/153/220 83/128/220
f 88/203/221 108/165/221 111/163/221
f 107/159/222 99/149/222 95/142/222
f 94/207/223 112/164/223 104/210/223
f 87/132/224 108/160/224 88/133/224
f 93/140/225 101/151/225 103/153/225
f 107/159/226 108/160/226 87/132/226
f 111/163/227 108/165/227 109/161/227
f 99/149/228 107/159/228 87/132/228
f 95/142/229 105/157/229 107/159/229
f 100/211/230 101/151/230 93/140/230
f 113/212/231 108/160/231 106/158/231
f 104/210/232 118/213/232 100/214/232
f 112/164/233 118/213/233 104/210/233
f 114/167/234 118/213/234 112/164/234
f 117/204/235 102/152/235 85/205/235
f 84/129/236 79/126/236 97/215/236
f 96/143/237 105/157/237 95/142/237
