# Blender v2.79 (sub 6) OBJ File: ''
# www.blender.org
o Cube_Cube.002
v -0.513841 -0.874603 3.682429
v -0.152293 0.810837 3.682429
v -0.513841 -0.874603 -3.762707
v -0.152293 0.810837 -3.762707
v 0.513755 -0.874603 3.682429
v 0.156702 0.810837 3.682429
v 0.513755 -0.874603 -3.762707
v 0.156702 0.810837 -3.762707
vt 0.000000 1.000000
vt 0.296651 0.000000
vt 0.296651 1.000000
vt 0.885378 0.000000
vt 1.000000 0.226381
vt 0.823158 0.226381
vt 0.296651 1.000000
vt 0.593140 0.000000
vt 0.593140 1.000000
vt 0.823158 0.452763
vt 0.937780 0.226381
vt 1.000000 0.452763
vt 0.769982 0.000000
vt 0.593140 1.000000
vt 0.593140 0.000000
vt 0.769982 1.000000
vt 0.823158 0.000000
vt 0.823158 1.000000
vt 0.000000 0.000000
vt 0.938554 0.000000
vt 0.296651 0.000000
vt 0.884604 0.226381
vt 0.769982 1.000000
vt 0.769982 0.000000
vn -0.9778 0.2097 0.0000
vn 0.0000 0.0000 -1.0000
vn 0.9783 0.2072 0.0000
vn 0.0000 0.0000 1.0000
vn 0.0000 -1.0000 0.0000
vn 0.0000 1.0000 0.0000
s off
f 2/1/1 3/2/1 1/3/1
f 4/4/2 7/5/2 3/6/2
f 8/7/3 5/8/3 7/9/3
f 5/10/4 2/11/4 1/12/4
f 7/13/5 1/14/5 3/15/5
f 4/16/6 6/17/6 8/18/6
f 2/1/1 4/19/1 3/2/1
f 4/4/2 8/20/2 7/5/2
f 8/7/3 6/21/3 5/8/3
f 5/10/4 6/22/4 2/11/4
f 7/13/5 5/23/5 1/14/5
f 4/16/6 2/24/6 6/17/6
