# Blender v2.80 (sub 45) OBJ File: ''
# www.blender.org
o Main_suelo.001_Group25469.001
v 6.765484 0.538524 25.779963
v 3.865215 -0.166753 28.572508
v 5.043429 -0.247745 28.375875
v -1.764384 -0.369398 28.127869
v -0.467472 -0.384657 28.397799
v 0.923754 -0.294757 28.741619
v 6.734946 -0.288505 27.655149
v 7.852534 -0.372679 27.455158
v 8.005708 0.538524 23.282690
v 9.527672 -0.283801 27.463491
v 10.920652 -0.234354 27.417610
v 2.764206 -0.129285 28.858355
v -1.246435 0.538524 25.222076
v -22.825480 0.538524 26.970091
v -21.431776 0.538524 26.920954
v -23.160566 0.538524 24.359791
v -2.680430 -0.374141 27.900883
v 2.379478 0.538524 25.001686
v 36.833817 -0.341371 26.703173
v 35.295620 0.538524 25.872492
v 35.453133 -0.008002 26.127419
v -3.902224 -0.246952 27.753317
v -25.561274 0.538524 25.643476
v -24.901018 0.538524 26.056244
v 13.575023 0.538524 20.786858
v 37.178669 0.538524 24.493725
v 34.824425 0.538524 26.002077
v 26.202845 0.538524 25.753128
v 29.061810 0.538524 25.652409
v 26.895964 0.538524 24.058475
v 34.017429 0.538524 23.593534
v -8.296758 -0.388218 25.511873
v -7.750687 -0.425888 25.987358
v -9.460165 0.538524 19.753746
v -8.986089 -0.341162 25.032307
v 22.165716 0.538524 25.653580
v 24.122944 0.538524 25.908457
v -27.391157 0.538524 24.829723
v -26.379930 0.538524 25.159399
v -10.247792 -0.380588 24.526321
v -35.100357 -3.215335 24.592978
v -34.480164 -0.439662 24.886864
v -34.931122 0.420400 24.820694
v 40.557762 -0.440699 24.690119
v 41.451168 -0.065431 24.157635
v -5.605230 0.538524 21.548233
v -30.166925 0.506057 24.466463
v -28.744740 0.445143 24.583212
v -28.177580 0.538524 21.692226
v 18.958902 0.538524 25.535128
v -11.316624 -0.357006 24.159288
v 39.158909 0.538524 20.783100
v 41.709503 -0.487776 23.553322
v 42.834270 -0.427231 19.674568
v 42.617676 0.538524 19.420395
v -34.945255 -5.357902 19.994223
v -35.275532 -5.331571 23.670109
v -35.005856 1.187506 18.226051
v -35.334965 -1.609872 18.848141
v 36.446991 0.538524 17.136423
v -36.010323 -6.158131 16.753235
v -37.856892 -6.622364 14.193944
v -35.646309 -9.229690 16.913530
v -32.194309 0.785084 12.808149
v -28.070715 0.538524 15.330225
v -35.853848 -2.527891 15.061053
v -39.516777 -4.151162 12.327129
v -38.223183 -6.931758 13.379360
v -34.852219 0.181613 12.243753
v -30.814339 0.738550 9.287275
v -12.709883 0.538524 20.567629
v -40.330666 -7.699104 10.226488
v -39.377289 -7.537267 11.666466
v -23.447027 0.538524 10.445452
v -29.400215 0.029631 6.259724
v -37.167938 -1.050318 9.226821
v -40.913860 -3.198278 8.539981
v 38.956367 0.538524 7.542883
v 43.009644 0.538524 10.813820
v 43.002201 0.538524 8.356813
v -41.520645 -3.606380 6.620863
v -41.038643 -5.533272 8.432521
v -39.750137 -0.797844 5.442473
v -41.523262 -5.528074 6.585935
v -33.288857 0.097120 4.524290
v -23.176954 0.538524 3.148874
v -42.151951 -7.034774 4.165628
v -41.724022 -6.517844 6.111234
v -30.905457 0.275613 2.131011
v -37.460419 -0.910834 2.582826
v -41.352543 -4.273266 2.345352
v -41.371117 -5.333118 1.874989
v -41.518032 -5.447244 2.897109
v -37.739956 -1.509616 0.013682
v -33.864304 -0.083645 0.352935
v 37.679348 0.538524 -3.481113
v 42.645760 0.538524 -2.611619
v -38.346664 -3.110979 -2.222007
v -29.653717 0.549719 -0.511419
v -33.611420 0.551387 -1.716396
v -40.068268 -5.594976 -1.600088
v -40.421001 -5.317276 -0.931908
v -40.648521 -8.715028 -5.763099
v -40.907940 -8.532674 -2.142211
v -32.286224 0.995642 -5.417435
v 43.537849 0.538524 -3.936164
v -39.715488 -12.441990 -4.309590
v -40.679790 -10.037110 -3.473159
v -36.484062 -9.221316 -8.596719
v -38.156555 -11.062485 -7.066633
v 43.160889 0.538524 -4.692318
v -37.367619 -4.814351 -6.550189
v -37.773796 -3.628324 -5.496880
v -32.482452 0.021116 -7.452447
v -36.164242 -1.207042 -3.324792
v -26.673887 -0.220291 -5.178332
v -35.508549 -4.471961 -9.944668
v -31.055960 -0.559926 -14.225352
v -36.012745 -7.517778 -11.263491
v -34.693638 -5.401227 -13.539959
v -35.510029 -5.914207 -12.903794
v -34.174511 -5.332516 -17.007751
v -30.040348 -0.270078 -17.575403
v -25.262739 0.538524 -19.555328
v 42.212341 0.538524 -20.523493
v -16.019072 0.538524 -21.735113
v 7.577114 0.538524 -20.882042
v -35.888489 -6.593168 -19.721947
v -35.132099 -6.273769 -17.277937
v -33.419865 -3.306199 -21.789692
v -35.241081 -5.016582 -21.101463
v -36.067635 -7.098865 -20.102365
v -30.586714 0.481476 -22.839752
v -35.772842 -7.040579 -23.630579
v -25.270430 0.538524 -26.330793
v -35.935661 -9.348880 -23.223524
v -36.246742 -9.964679 -20.753424
v -25.869993 0.538524 -25.985201
v -16.031628 0.538524 -26.229334
v -30.824274 -4.981086 -25.230789
v -35.637054 -9.758768 -24.764397
v 36.426270 0.538524 -25.737911
v 32.851833 0.538524 -25.645536
v -30.467482 -4.375395 -25.337406
v -29.455097 -2.076945 -25.439638
v -12.223484 0.538524 -27.191679
v -3.610828 0.538524 -23.827673
v -29.176285 -0.939876 -25.408205
v 29.837418 0.538524 -25.927067
v 9.759315 0.538524 -27.612123
v 11.318222 0.538524 -27.920839
v -13.973814 0.538524 -26.730453
v -5.517963 0.538524 -26.792274
v -2.568726 0.538524 -27.534382
v 1.473791 0.538524 -27.563946
v 16.980045 0.538524 -26.194418
v 14.736704 0.538524 -27.154932
v 13.460667 0.538524 -28.116596
v 6.175975 0.538524 -27.687214
v 2.808108 0.538524 -27.131340
v 10.241601 -0.426966 27.241837
v 11.422843 -0.386706 27.225412
v 11.566093 -0.396254 27.405376
v 6.187508 -0.398820 28.047977
v 16.201271 0.538524 26.115765
v -20.369890 0.538524 26.517853
v -23.969748 0.538524 26.486628
v -19.452736 0.538524 25.918243
v 34.171917 0.538524 25.932564
v 33.170174 0.538524 25.654465
v -6.669228 -0.380077 26.495674
v 31.043842 0.538524 25.506130
v -16.803198 0.538524 22.986488
v 37.675846 -0.403828 26.406206
v -32.833942 -0.245589 24.178289
v -34.593143 -5.317415 24.503054
v -14.098556 -0.385098 24.015469
v -15.171293 -0.426682 24.416458
v -35.777668 -5.333600 16.939257
v -36.875919 -9.152525 14.692921
v -40.728386 -7.248457 8.662331
v 44.397125 0.538524 4.807802
v 42.975407 0.538524 -0.888180
v -40.457039 -9.504601 -2.609946
v -38.748272 -12.324418 -5.885161
v 42.745384 0.538524 -10.566483
v -35.321510 -6.916806 -17.841543
v -35.959991 -7.947584 -20.078480
v -36.141857 -8.547826 -20.736073
v 42.149097 0.538524 -23.054802
v 42.445221 0.538524 -21.650599
v 41.638813 0.538524 -24.477348
v -28.396109 0.452408 -25.840704
v -19.131445 0.538524 -26.763861
v 39.074154 0.538524 -26.322130
v 41.342625 0.538524 -25.713022
v 37.586216 0.538524 -26.029396
v -4.708498 0.538524 -27.203260
vt 0.087375 1.131401
vt 0.007198 1.220131
vt 0.011625 1.185222
vt 1.855906 1.835386
vt 1.854355 1.796333
vt 1.855906 1.753996
vt 0.031001 1.134615
vt 0.035586 1.101492
vt 0.159613 1.092234
vt 0.033690 1.052069
vt 0.033634 1.010928
vt 0.005155 1.307093
vt 0.000000 1.252876
vt 0.112304 1.367054
vt 0.083707 2.005135
vt 0.083676 1.963991
vt 0.160945 2.012299
vt 0.033627 1.412523
vt 0.025977 1.385747
vt 0.114950 1.259914
vt 1.853593 1.656467
vt 1.853593 1.712132
vt 1.842364 1.699520
vt 0.039451 1.448338
vt 0.125682 2.084420
vt 0.112824 2.065382
vt 0.093002 0.233324
vt 0.051072 0.304309
vt 0.054389 0.290281
vt 0.067549 0.558259
vt 0.067483 0.473857
vt 0.116727 0.536058
vt 0.122868 0.325597
vt 0.027040 0.246176
vt 0.109929 1.575641
vt 0.095291 1.560051
vt 0.282077 1.603547
vt 0.124852 1.595447
vt 0.074763 0.677191
vt 0.065180 0.619747
vt 0.151591 2.137528
vt 0.140808 2.108055
vt 0.141037 1.632139
vt 1.727018 1.770924
vt 1.693668 1.848417
vt 1.667712 1.860702
vt 0.082240 0.134324
vt 0.097510 0.107263
vt 0.225135 1.491750
vt 0.165188 2.219008
vt 0.160154 2.177223
vt 0.244835 2.157451
vt 0.153015 1.663261
vt 0.200192 0.171075
vt 1.839310 1.840720
vt 1.825678 1.722325
vt 1.854355 1.858176
vt 0.236660 0.067674
vt 1.854355 1.713128
vt 1.859767 1.349788
vt 1.876706 1.453091
vt 1.819401 1.490156
vt 1.667712 1.344334
vt 1.751827 1.346379
vt 0.310475 0.247241
vt 1.839293 1.609133
vt 1.768035 1.598232
vt 1.842364 1.518133
vt 0.511112 2.266531
vt 0.355091 2.354892
vt 0.432104 2.147679
vt 1.842364 1.713128
vt 1.714805 1.673636
vt 1.751245 1.589341
vt 0.529697 2.344577
vt 0.526026 2.484096
vt 0.443926 2.378228
vt 0.613284 2.222199
vt 1.667712 1.569665
vt 1.705085 1.573149
vt 0.571074 2.006265
vt 0.699948 2.177663
vt 0.619260 2.410256
vt 0.640408 2.520931
vt 0.590376 0.163268
vt 0.489737 0.047160
vt 0.562112 0.044823
vt 1.759170 1.083936
vt 1.782155 1.039797
vt 1.827586 1.088862
vt 0.733820 2.482345
vt 1.837819 1.044178
vt 0.755283 2.290485
vt 1.699416 0.980162
vt 1.894911 0.989712
vt 1.869372 1.036281
vt 0.823499 2.217641
vt 0.785696 1.990709
vt 0.815457 2.411905
vt 1.706680 0.877116
vt 1.820328 0.923704
vt 1.853162 0.914070
vt 1.852359 0.943778
vt 0.890572 2.417736
vt 0.878497 2.303190
vt 1.795742 0.762740
vt 1.736848 0.812181
vt 0.900390 2.177864
vt 0.940081 2.293303
vt 1.871464 0.805827
vt 1.861785 0.827162
vt 1.982935 0.707967
vt 1.962115 0.808656
vt 1.048315 2.250183
vt 0.885548 0.043918
vt 0.923614 0.016237
vt 0.916425 0.189449
vt 2.080194 0.747206
vt 2.010748 0.774116
vt 1.993988 0.585634
vt 2.046792 0.651045
vt 0.946285 0.026564
vt 1.860864 0.638959
vt 1.823405 0.668842
vt 1.705954 0.546210
vt 1.737142 0.703021
vt 1.859138 0.524983
vt 1.955137 0.503258
vt 1.899203 0.420804
vt 1.914346 0.448664
vt 1.748087 0.347950
vt 1.911039 0.320658
vt 1.966684 0.269740
vt 1.943262 0.326687
vt 1.825678 1.713128
vt 1.825678 1.858793
vt 1.775560 1.827765
vt 1.924903 0.220671
vt 1.871429 0.176798
vt 1.751026 0.244808
vt 1.983742 0.262823
vt 1.755605 0.105998
vt 1.997047 0.163589
vt 2.062487 0.182834
vt 2.070192 0.255071
vt 1.558928 2.182167
vt 1.456625 2.028582
vt 1.646651 2.039795
vt 1.656194 2.021758
vt 1.643407 1.749455
vt 1.511023 1.753762
vt 1.925244 0.058840
vt 2.080194 0.138786
vt 1.413574 0.038058
vt 1.573293 0.203235
vt 1.574364 0.308724
vt 1.906824 0.050264
vt 1.836897 0.029768
vt 1.802810 0.024350
vt 1.656779 0.987565
vt 1.460870 1.058911
vt 1.664219 0.941279
vt 1.856142 1.580377
vt 1.856683 1.518133
vt 1.856683 1.633570
vt 1.648836 1.438872
vt 1.667712 1.636170
vt 1.559495 1.385725
vt 1.667565 1.351141
vt 1.664148 1.231915
vt 1.607364 0.776136
vt 1.638034 0.841281
vt 1.667712 0.877905
vt 1.856142 1.656467
vt 1.842364 1.557077
vt 1.856142 1.518133
vt 1.860413 1.753996
vt 1.854355 1.732484
vt 1.860413 1.713128
vt 1.854355 1.839480
vt 1.859772 1.835386
vt 1.859772 1.854759
vt 0.019854 1.151214
vt 0.227217 0.925425
vt 0.067477 0.853535
vt 0.094423 1.932261
vt 0.099161 2.038371
vt 0.111110 1.904595
vt 0.053812 0.323476
vt 0.063065 0.352723
vt 0.079238 1.528673
vt 0.069690 0.415264
vt 0.194650 1.823421
vt 0.034805 0.221067
vt 1.725573 1.877044
vt 1.775560 1.941436
vt 1.775560 1.729479
vt 1.756444 1.713128
vt 0.081653 0.771621
vt 0.261553 1.700212
vt 0.160161 1.745150
vt 0.149429 1.777215
vt 0.159686 2.359887
vt 1.716269 1.518133
vt 1.765845 1.242326
vt 1.852458 1.274672
vt 1.670186 1.173643
vt 1.876706 1.266503
vt 1.792508 1.521600
vt 1.763790 1.173643
vt 1.879099 1.135566
vt 1.874830 1.096341
vt 0.665163 0.000000
vt 0.834437 0.035992
vt 0.954786 2.433999
vt 0.987660 2.367669
vt 1.864861 1.656467
vt 1.864861 1.703290
vt 1.853593 1.685614
vt 1.033591 2.085483
vt 2.080173 0.693244
vt 1.119740 0.032703
vt 1.107075 2.254278
vt 1.667712 0.596548
vt 1.965165 0.315294
vt 2.007713 0.264602
vt 2.028781 0.250455
vt 1.488196 0.037288
vt 1.446524 0.030018
vt 1.530637 0.050854
vt 1.644952 2.114467
vt 1.662438 1.840298
vt 1.587692 0.124553
vt 1.567346 0.058301
vt 1.761487 0.000000
vt 1.580648 0.168730
vt 1.660082 1.414577
vt 1.662792 1.093142
vt 1.402227 2.171865
vt 1.304221 2.205423
vt 1.585853 0.397312
vn 0.0831 0.9786 0.1883
vn 0.0440 0.9735 0.2246
vn 0.1534 0.9129 0.3783
vn -0.0863 0.9512 0.2963
vn -0.1873 -0.4467 0.8748
vn -0.1030 0.9485 0.2997
vn 0.1192 0.9077 0.4023
vn 0.0201 0.8837 0.4676
vn 0.0421 0.9976 0.0547
vn 0.0288 0.9406 0.3382
vn -0.0260 0.9710 0.2375
vn 0.0148 0.9804 0.1966
vn -0.0467 0.9894 0.1374
vn 0.0000 1.0000 0.0000
vn 0.0001 1.0000 0.0011
vn 0.0013 0.9464 0.3231
vn 0.0002 0.9964 0.0848
vn 0.1970 0.8640 0.4633
vn 0.0320 0.9651 0.2598
vn -0.2931 0.3335 0.8960
vn -0.0692 0.9726 0.2219
vn -0.0050 1.0000 -0.0047
vn 0.1272 0.9740 0.1877
vn -0.0765 0.9819 0.1735
vn -0.1006 0.9811 0.1651
vn -0.0103 0.9971 0.0760
vn -0.0664 0.9832 0.1698
vn -0.0252 0.9997 0.0063
vn -0.0738 0.9815 0.1768
vn -0.7522 -0.0424 0.6576
vn 0.0162 0.0814 0.9965
vn -0.5088 0.5679 0.6470
vn 0.1734 0.7307 0.6604
vn 0.3491 0.8823 0.3156
vn -0.0467 0.9959 0.0774
vn 0.0070 0.9956 0.0939
vn -0.0142 0.9995 0.0295
vn 0.0181 0.9996 0.0208
vn -0.0136 0.9767 0.2142
vn 0.0372 0.9984 0.0436
vn 0.9437 0.1816 0.2765
vn 0.9256 0.2715 0.2637
vn 0.3442 0.9296 0.1315
vn -0.9972 -0.0183 0.0729
vn -0.9810 -0.0034 0.1939
vn -0.6130 0.7895 0.0300
vn -0.9945 0.0484 0.0926
vn -0.8112 0.0870 0.5782
vn -0.8244 -0.1358 0.5495
vn -0.8302 -0.1413 0.5393
vn -0.0668 0.9957 -0.0646
vn 0.0379 0.9993 0.0042
vn -0.8804 0.3520 0.3177
vn -0.8096 0.2828 0.5144
vn -0.8316 -0.1893 0.5222
vn -0.4758 0.8795 -0.0120
vn -0.0453 0.9951 -0.0878
vn -0.9140 -0.0719 0.3992
vn -0.8092 -0.1444 0.5695
vn -0.0033 0.9999 -0.0124
vn 0.0116 0.9978 -0.0655
vn -0.4019 0.9063 0.1310
vn -0.8372 0.4344 0.3322
vn -0.9499 0.3113 0.0269
vn -0.9433 0.0043 0.3319
vn -0.5771 0.8151 -0.0497
vn -0.9695 0.0114 0.2449
vn -0.1069 0.9915 -0.0746
vn -0.9655 0.2570 0.0429
vn -0.9765 0.1089 0.1858
vn -0.0794 0.9943 0.0712
vn -0.0287 0.9996 -0.0051
vn -0.3775 0.9050 -0.1959
vn -0.8630 0.4080 -0.2979
vn -0.8743 0.3273 -0.3585
vn -0.9881 0.0765 -0.1335
vn -0.4977 0.8071 -0.3176
vn -0.3298 0.9400 0.0877
vn -0.7254 0.6459 -0.2380
vn 0.0326 0.9993 0.0205
vn -0.3635 0.9265 0.0970
vn -0.8327 0.4282 -0.3511
vn -0.7752 0.5142 -0.3670
vn -0.8637 0.0642 -0.4999
vn -0.9967 0.0816 -0.0006
vn -0.1640 0.9601 -0.2266
vn -0.8388 -0.3669 -0.4022
vn -0.9670 -0.2477 -0.0592
vn -0.7754 0.1095 -0.6219
vn -0.6160 -0.2368 -0.7513
vn -0.6783 0.3707 -0.6344
vn -0.7041 0.5427 -0.4581
vn -0.3515 0.8866 -0.3007
vn -0.6293 0.7700 -0.1047
vn -0.8523 0.4415 -0.2804
vn -0.9784 0.1934 -0.0725
vn -0.7587 0.5133 -0.4012
vn -0.8692 0.4224 -0.2571
vn -0.4960 0.8617 -0.1070
vn -0.7658 0.6403 0.0599
vn -0.8853 0.4492 0.1203
vn -0.8164 0.5484 0.1810
vn -0.7300 0.6386 -0.2434
vn -0.7975 0.6028 -0.0249
vn -0.4562 0.8882 0.0549
vn -0.9867 0.1475 -0.0687
vn -0.5606 0.8029 -0.2025
vn -0.7982 0.3514 -0.4892
vn -0.9875 0.0429 -0.1516
vn -0.9931 0.0646 -0.0979
vn -0.0399 0.9982 0.0454
vn -0.0087 0.9999 -0.0050
vn -0.0012 1.0000 0.0014
vn -0.0062 1.0000 0.0048
vn -0.5906 0.4177 -0.6905
vn -0.7783 0.2082 -0.5923
vn 0.0003 1.0000 -0.0009
vn -0.7164 0.3051 -0.6275
vn -0.7565 0.2704 -0.5954
vn -0.7919 0.2337 -0.5642
vn -0.0019 1.0000 -0.0043
vn 0.0000 -1.0000 0.0000
vn 0.0000 1.0000 0.0003
vn 0.0039 1.0000 -0.0024
vn -0.0006 1.0000 -0.0009
vn -0.0005 1.0000 -0.0003
vn 0.0483 -0.7609 0.6471
vn -0.2385 -0.9612 0.1388
vn 0.2028 0.8857 0.4177
vn -0.0096 0.9996 0.0259
vn -0.0553 0.9981 0.0272
vn -0.1153 0.9808 0.1570
vn 0.0596 0.9931 0.1009
vn 0.2189 0.8966 0.3849
vn 0.1185 -0.4703 0.8745
vn -0.6848 -0.1953 0.7021
vn 0.0299 0.9924 0.1190
vn 0.0368 0.9615 0.2724
vn 0.1681 0.9254 0.3396
vn -0.9412 0.1699 0.2920
vn -0.8529 -0.2392 0.4640
vn -0.9679 -0.1478 0.2035
vn -0.6596 -0.5517 0.5105
vn 0.0095 0.9980 -0.0628
vn -0.7257 -0.3623 -0.5850
vn 0.0042 1.0000 0.0003
vn -0.9559 0.0252 0.2926
vn -0.9980 0.0482 -0.0403
vn -0.9847 0.1701 -0.0369
vn -0.3285 0.9112 -0.2486
s 1
f 1/1/1 2/2/2 3/3/3
f 4/4/4 5/5/5 6/6/6
f 7/7/7 8/8/8 1/1/1
f 9/9/9 10/10/10 11/11/11
f 6/12/6 12/13/12 13/14/13
f 14/15/14 15/16/14 16/17/15
f 13/14/13 17/18/16 4/19/4
f 1/1/1 8/8/8 10/10/10
f 13/14/13 12/13/12 18/20/17
f 19/21/18 20/22/19 21/23/20
f 22/24/21 17/18/16 13/14/13
f 23/25/14 24/26/22 16/17/15
f 26/27/23 27/28/14 20/29/19
f 28/30/14 29/31/14 30/32/14
f 27/28/14 26/27/23 31/33/14
f 26/27/23 20/29/19 19/34/18
f 32/35/24 33/36/25 34/37/26
f 35/38/27 32/35/24 34/37/26
f 36/39/14 37/40/14 30/32/14
f 38/41/28 39/42/14 16/17/15
f 40/43/29 35/38/27 34/37/26
f 41/44/30 42/45/31 43/46/32
f 44/47/33 45/48/34 26/27/23
f 22/24/21 13/14/13 46/49/35
f 47/50/36 48/51/37 49/52/38
f 40/43/29 34/37/26 51/53/39
f 45/48/34 52/54/40 26/27/23
f 53/55/41 54/56/42 45/57/34
f 45/48/34 55/58/43 52/54/40
f 55/59/43 45/57/34 54/56/42
f 56/60/44 57/61/45 41/62/30
f 58/63/46 59/64/47 41/62/30
f 55/58/43 60/65/14 52/54/40
f 61/66/48 62/67/49 63/68/50
f 64/69/51 58/70/46 65/71/52
f 66/72/53 67/73/54 61/66/48
f 67/73/54 62/67/49 61/66/48
f 62/67/49 67/73/54 68/74/55
f 69/75/56 67/76/54 66/77/53
f 70/78/57 69/75/56 64/69/51
f 72/79/58 73/80/59 67/73/54
f 70/78/57 74/81/60 75/82/61
f 69/75/56 76/83/62 77/84/63
f 78/85/14 79/86/14 80/87/14
f 77/88/63 81/89/64 82/90/65
f 83/91/66 76/83/62 70/78/57
f 81/89/64 84/92/67 82/90/65
f 85/93/68 70/78/57 75/82/61
f 81/89/64 77/88/63 83/94/66
f 87/95/69 88/96/70 84/92/67
f 81/89/64 83/94/66 87/95/69
f 89/97/71 75/82/61 86/98/72
f 83/91/66 85/93/68 90/99/73
f 90/100/73 91/101/74 83/94/66
f 91/101/74 92/102/75 93/103/76
f 94/104/77 90/99/73 95/105/78
f 98/106/79 92/102/75 94/107/77
f 99/108/80 100/109/81 89/97/71
f 101/110/82 102/111/83 98/106/79
f 101/110/82 103/112/84 104/113/85
f 105/114/86 100/109/81 99/108/80
f 97/115/14 106/116/14 96/117/14
f 103/112/84 107/118/87 108/119/88
f 101/110/82 98/106/79 103/112/84
f 109/120/89 110/121/90 103/112/84
f 111/122/14 96/117/14 106/116/14
f 112/123/91 103/112/84 113/124/92
f 114/125/93 113/124/92 115/126/94
f 114/125/93 112/123/91 113/124/92
f 112/123/91 117/127/95 109/120/89
f 117/127/95 112/123/91 114/125/93
f 117/127/95 119/128/96 109/120/89
f 120/129/97 121/130/98 118/131/99
f 120/129/97 118/131/99 122/132/100
f 122/132/100 128/133/101 129/134/102
f 122/135/100 130/136/103 131/137/104
f 122/132/100 131/138/104 128/133/101
f 130/139/103 122/132/100 123/140/105
f 128/133/101 131/138/104 132/141/106
f 123/140/105 133/142/107 130/139/103
f 131/138/104 134/143/108 132/141/106
f 136/144/109 137/145/110 134/143/108
f 133/146/107 124/147/111 138/148/112
f 138/148/112 124/147/111 135/149/113
f 134/143/108 131/138/104 130/139/103
f 139/150/14 135/149/113 126/151/114
f 130/139/103 140/152/115 134/143/108
f 134/143/108 140/152/115 141/153/116
f 125/154/117 142/155/14 143/156/14
f 140/152/115 133/142/107 144/157/118
f 133/142/107 145/158/119 144/157/118
f 133/142/107 148/159/120 145/158/119
f 150/160/14 127/161/121 151/162/14
f 152/163/122 139/164/14 146/165/123
f 153/166/124 146/167/123 147/168/125
f 154/169/126 147/168/125 155/170/14
f 151/162/14 156/171/14 157/172/14
f 158/173/14 151/162/14 157/172/14
f 159/174/14 160/175/122 155/176/14
f 2/2/2 18/20/17 12/13/12
f 10/177/10 161/178/127 11/179/11
f 162/180/128 163/181/128 11/182/128
f 1/1/1 164/183/129 7/7/7
f 164/183/129 1/1/1 3/3/3
f 1/1/1 18/20/17 2/2/2
f 25/184/130 11/11/11 165/185/131
f 4/19/4 6/12/6 13/14/13
f 15/16/14 166/186/14 16/17/15
f 24/26/22 167/187/14 16/17/15
f 16/17/15 167/187/14 14/15/14
f 166/186/14 168/188/14 16/17/15
f 169/189/14 31/33/14 170/190/14
f 10/10/10 9/9/9 1/1/1
f 169/189/14 27/28/14 31/33/14
f 171/191/132 46/49/35 33/36/25
f 37/40/14 28/30/14 30/32/14
f 29/31/14 172/192/14 31/33/14
f 170/190/14 31/33/14 172/192/14
f 46/49/35 171/191/132 22/24/21
f 33/36/25 46/49/35 34/37/26
f 173/193/133 16/17/15 168/188/14
f 174/194/134 26/27/23 19/34/18
f 16/17/15 39/42/14 23/25/14
f 174/194/134 44/47/33 26/27/23
f 43/46/32 42/45/31 175/195/135
f 30/32/14 29/31/14 31/33/14
f 175/195/135 47/196/36 43/46/32
f 42/45/31 41/44/30 176/197/136
f 41/44/30 57/198/45 176/197/136
f 49/52/38 48/51/37 38/41/28
f 30/32/14 50/199/14 36/39/14
f 49/52/38 38/41/28 16/17/15
f 9/9/9 18/20/17 1/1/1
f 25/184/130 165/185/131 50/199/14
f 71/200/137 177/201/138 51/53/39
f 18/20/17 46/49/35 13/14/13
f 178/202/139 177/201/138 71/200/137
f 49/52/38 43/203/32 47/50/36
f 52/54/40 31/33/14 26/27/23
f 41/62/30 43/204/32 58/63/46
f 49/52/38 58/70/46 43/203/32
f 41/62/30 59/64/47 56/60/44
f 60/65/14 31/33/14 52/54/40
f 56/60/44 59/64/47 66/205/53
f 65/71/52 58/70/46 49/52/38
f 66/205/53 179/206/140 56/60/44
f 66/205/53 59/64/47 58/63/46
f 79/86/14 60/65/14 55/58/43
f 66/205/53 58/63/46 69/207/56
f 69/75/56 58/70/46 64/69/51
f 179/206/140 66/205/53 61/208/48
f 180/209/141 63/68/50 62/67/49
f 67/73/54 73/80/59 68/74/55
f 74/81/60 70/78/57 64/69/51
f 69/75/56 77/84/63 67/76/54
f 76/83/62 69/75/56 70/78/57
f 67/210/54 77/88/63 72/211/58
f 72/211/58 77/88/63 82/90/65
f 181/212/142 72/211/58 82/90/65
f 77/84/63 76/83/62 83/91/66
f 85/93/68 83/91/66 70/78/57
f 81/89/64 87/95/69 84/92/67
f 83/94/66 91/101/74 87/95/69
f 182/213/14 78/85/14 80/87/14
f 89/97/71 85/93/68 75/82/61
f 90/99/73 85/93/68 89/97/71
f 86/98/72 99/108/80 89/97/71
f 89/97/71 95/105/78 90/99/73
f 94/107/77 91/101/74 90/100/73
f 183/214/14 78/85/14 182/213/14
f 100/109/81 95/105/78 89/97/71
f 91/101/74 94/107/77 92/102/75
f 92/102/75 98/106/79 102/111/83
f 95/105/78 98/215/79 94/104/77
f 183/214/14 97/115/14 78/85/14
f 98/215/79 95/105/78 115/216/94
f 104/217/85 108/218/88 184/219/143
f 115/216/94 95/105/78 100/109/81
f 116/220/144 105/114/86 99/108/80
f 108/119/88 104/113/85 103/112/84
f 103/112/84 185/221/145 107/118/87
f 98/106/79 113/124/92 103/112/84
f 185/221/145 103/112/84 110/121/90
f 115/126/94 113/124/92 98/106/79
f 100/109/81 105/114/86 115/216/94
f 186/222/146 96/117/14 111/122/14
f 109/120/89 103/112/84 112/123/91
f 114/223/93 105/114/86 116/220/144
f 114/125/93 115/126/94 105/224/86
f 117/127/95 114/125/93 118/131/99
f 121/130/98 119/128/96 117/127/95
f 117/127/95 118/131/99 121/130/98
f 129/134/102 128/133/101 187/225/147
f 96/117/14 127/161/121 25/184/130
f 132/141/106 134/143/108 188/226/148
f 134/143/108 189/227/149 188/226/148
f 189/227/149 134/143/108 137/145/110
f 190/228/14 125/154/117 191/229/14
f 190/228/14 192/230/14 125/154/117
f 140/152/115 130/139/103 133/142/107
f 134/143/108 141/153/116 136/144/109
f 193/231/150 133/146/107 138/148/112
f 139/150/14 194/232/14 135/149/113
f 195/233/14 125/154/117 192/230/14
f 195/233/14 192/230/14 196/234/14
f 133/142/107 193/235/150 148/159/120
f 142/155/14 125/154/117 197/236/14
f 146/167/123 139/150/14 126/151/114
f 195/233/14 197/236/14 125/154/117
f 151/162/14 127/161/121 156/171/14
f 198/237/14 153/166/124 147/168/125
f 198/237/14 147/168/125 154/169/126
f 159/238/14 155/170/14 147/168/125
f 147/168/125 146/167/123 126/151/114
f 126/151/114 135/149/113 124/147/111
f 124/147/111 133/146/107 123/239/105
f 123/140/105 122/132/100 118/131/99
f 118/240/99 114/223/93 116/220/144
f 116/220/144 99/108/80 86/98/72
f 86/98/72 75/82/61 74/81/60
f 74/81/60 64/69/51 65/71/52
f 65/71/52 49/52/38 16/17/15
f 173/193/133 178/202/139 71/200/137
f 65/71/52 16/17/15 173/193/133
f 74/81/60 65/71/52 173/193/133
f 71/200/137 51/53/39 34/37/26
f 74/81/60 173/193/133 71/200/137
f 86/98/72 74/81/60 34/37/26
f 74/81/60 71/200/137 34/37/26
f 34/37/26 46/49/35 127/161/121
f 46/49/35 18/20/17 9/9/9
f 123/239/105 118/240/99 124/147/111
f 118/240/99 116/220/144 124/147/111
f 116/220/144 86/98/72 126/151/114
f 86/98/72 34/37/26 127/161/121
f 46/49/35 9/9/9 25/184/130
f 9/9/9 11/11/11 25/184/130
f 25/184/130 50/199/14 30/32/14
f 30/32/14 31/33/14 60/65/14
f 60/65/14 79/86/14 78/85/14
f 78/85/14 97/115/14 96/117/14
f 96/117/14 186/222/146 143/156/14
f 186/222/146 125/154/117 143/156/14
f 96/117/14 143/156/14 149/241/14
f 149/241/14 156/171/14 96/117/14
f 156/171/14 127/161/121 96/117/14
f 127/161/121 150/160/14 159/238/14
f 147/168/125 126/151/114 86/98/72
f 126/151/114 124/147/111 116/220/144
f 127/161/121 159/238/14 147/168/125
f 60/65/14 78/85/14 25/184/130
f 78/85/14 96/117/14 25/184/130
f 127/161/121 147/168/125 86/98/72
f 46/49/35 25/184/130 127/161/121
f 25/184/130 30/32/14 60/65/14
