# Blender v2.80 (sub 44) OBJ File: ''
# www.blender.org
o Plane.001_Plane.003
v 1.000000 -12.864193 -2.176280
v 1.000000 12.864193 2.176280
v 1.000000 -12.864193 2.176279
v -1.000000 -12.864193 -2.176280
v 1.000000 12.864193 -2.176279
v -1.000000 12.864193 2.176280
v -1.000000 -12.864193 2.176279
v -1.000000 12.864193 -2.176279
vt 0.521104 0.000000
vt 0.000001 1.000000
vt 0.000000 0.000000
vt 0.521105 1.000000
vt 0.760553 0.000000
vt 0.760552 1.000000
vt 1.000000 0.000000
vt 0.760553 1.000000
vt 0.760553 0.000000
vt 0.521105 1.000000
vt 0.521105 0.000000
vt 1.000000 1.000000
vn 1.0000 0.0000 0.0000
vn 0.0000 0.0000 -1.0000
vn 0.0000 -0.0000 1.0000
s 1
f 1/1/1 2/2/1 3/3/1
f 4/4/2 5/5/2 1/6/2
f 3/7/3 6/8/3 7/9/3
f 1/1/1 5/10/1 2/2/1
f 4/4/2 8/11/2 5/5/2
f 3/7/3 2/12/3 6/8/3
