# Blender v2.80 (sub 44) OBJ File: ''
# www.blender.org
o Suelo_2.001_Group25469.000
v -11.381873 1.198232 20.651436
v -14.128210 0.083175 19.461176
v -12.438663 0.465405 20.199615
v 14.608300 1.792821 20.265461
v 13.116957 2.517012 16.442518
v 12.672925 1.820409 19.853319
v 5.153204 1.778977 19.479866
v 7.931518 1.937604 19.878357
v 4.542471 2.213736 16.487326
v 19.715576 1.857494 19.012968
v -14.020926 2.422498 17.490417
v 3.644327 1.821336 18.711123
v -8.989673 1.257229 19.809286
v -7.751879 1.517670 18.660229
v -9.954264 2.779775 17.417233
v 2.146329 1.489478 17.786900
v 33.097534 1.941230 18.991405
v 27.167412 2.699872 16.748644
v 30.380262 1.873941 18.894003
v -4.531028 1.894883 15.516122
v -17.626797 -0.980713 17.272093
v -21.389162 -4.769720 17.548788
v -17.616644 -9.103400 17.248514
v -21.608898 -9.179261 17.462772
v 4.958728 1.846170 15.788488
v 9.650039 2.271989 16.893801
v -15.556840 1.182655 15.487110
v -15.054226 0.076117 17.464411
v -17.744198 -1.131129 15.649425
v -13.327903 2.216623 13.998358
v 19.588223 2.337448 18.385305
v 15.909629 1.888116 15.088175
v 26.309931 2.056557 14.216444
v 28.874655 2.754317 11.910684
v 23.545525 1.853490 18.034918
v 38.600025 1.773857 14.911688
v 36.260235 2.370183 17.959974
v 37.568184 1.733241 16.797054
v 7.376709 2.104810 13.944033
v 34.631790 2.581787 12.825047
v 33.549591 2.327887 11.689419
v -21.622889 -5.966344 9.886036
v 2.755467 1.958624 4.760962
v -1.117181 2.139991 15.766689
v -15.692347 1.488690 13.184870
v -17.643698 -1.096835 12.444861
v 13.469597 2.041219 9.330317
v 20.268267 2.190639 12.470058
v -5.290874 2.064668 5.751664
v -15.587728 1.366825 10.403815
v 22.085545 2.080667 9.553088
v 28.207058 2.186218 7.608626
v -14.961341 2.459472 5.250309
v -16.456333 0.452135 9.512193
v 10.742581 1.927801 0.909275
v 31.527893 2.585120 6.093384
v 31.161310 2.406549 8.849178
v -17.665680 -0.773284 8.272794
v -21.035957 -4.518900 5.350281
v 31.565874 2.647174 -1.937871
v -17.233084 -0.112086 8.661633
v -21.720190 -8.718365 10.115044
v 32.749733 2.399381 4.822712
v -21.492296 -8.683728 0.415902
v -20.822781 -2.894585 0.197817
v 23.504139 1.938224 -1.759238
v 2.182719 1.924333 0.088524
v -5.870106 2.080024 -1.217002
v -15.500288 2.094393 -1.435618
v -19.755989 -0.352817 -2.544492
v -21.615637 -4.821114 -3.400110
v 7.953525 1.960744 -8.095078
v 1.246714 1.949576 -9.456935
v -21.691227 -9.341837 -5.263793
v -18.217016 2.069891 -7.375962
v -21.804441 -4.628922 -8.897776
v -20.207335 -0.151437 -6.861767
v -8.990448 2.211176 -4.687934
v 25.980865 1.939990 -5.932724
v 30.882282 2.108572 -3.138376
v 27.306898 1.959718 -5.275856
v 28.840763 2.065135 -4.821040
v 29.856554 1.997455 -4.177296
v -21.223646 -9.136972 -8.325249
v -20.008369 -0.273298 -9.661429
v 16.855289 2.112606 -13.745701
v 12.292126 2.065411 -14.530320
v -5.483439 2.097926 -10.478273
v -13.205684 2.257720 -8.121464
v -15.944670 -1.129304 -11.822601
v 21.640676 2.078484 -10.140951
v 22.705885 1.942485 -8.751662
v -11.187418 1.893405 -11.024213
v -22.313456 -10.641575 -12.708611
v -11.176706 0.462703 -13.697723
v -12.494242 -2.012224 -14.668243
v -20.995291 -1.483427 -13.756431
v -22.173933 -5.532989 -15.540697
v -15.416411 -2.003179 -13.194614
v 8.310784 2.074289 -15.018427
v -9.834444 1.958137 -13.887469
v -17.382200 -1.605816 -12.261374
v 3.186773 2.187399 -15.189771
v -17.666967 -2.832334 -14.345667
v 15.898341 1.630689 -16.017145
v 20.362452 1.979044 -13.331229
v 20.300610 2.056378 -15.756348
v -10.235831 0.737689 -14.112898
v -10.953972 -2.471578 -15.943839
v -7.876114 0.566597 -17.446524
v -12.553563 -2.423522 -14.873302
v -13.886617 -4.666183 -15.585525
v -10.712132 -3.664985 -16.919506
v -4.450135 -0.542452 -19.477449
v -3.560778 2.360566 -13.648762
v -21.696466 -5.981204 -19.091490
v -20.978397 -3.359074 -16.831800
v 12.381070 -1.189359 -20.112494
v 0.349678 -0.204111 -19.718121
v 22.182323 0.560957 -17.505636
v 21.368383 1.475837 -16.532818
v 8.848588 0.085677 -19.131033
v 4.362116 -0.126040 -20.636599
v -13.224531 -6.687231 -18.060625
v -10.998470 -6.314435 -18.685226
v -17.579294 -7.272991 -18.942617
v -17.769192 -5.913951 -16.246021
v 10.957301 -1.041097 -19.987803
v -11.791492 -6.777288 -18.690704
v -8.089970 -2.414158 -18.801149
v -9.019315 -3.089868 -18.388948
v -12.013232 -7.368906 -18.851933
v -12.770494 -7.656028 -19.101952
v 17.045925 -1.054141 -20.291275
v 20.688995 0.137855 -18.579885
v 20.908381 -0.215924 -18.735268
v 20.967470 -0.540096 -19.012638
v 20.691492 -1.094974 -19.249598
v 7.093898 -0.832670 -20.240444
v 15.669520 -1.678159 -20.207590
v -2.078454 -0.557882 -19.649059
v -3.481270 -0.551536 -19.423878
v 8.455561 -1.356293 -19.871624
v 34.937248 1.643710 18.352705
v 26.335659 1.993741 17.906536
v 25.454275 1.703730 18.330603
v 1.966610 1.802105 16.914341
v -6.741662 1.370465 17.701950
v -5.024880 1.585564 17.092716
v 38.832195 1.816085 13.130319
v 32.593292 2.520502 10.172821
v 33.434845 2.354529 0.582732
v 33.323959 2.409536 3.250490
v 33.498135 2.371134 2.034377
v 32.583405 2.466194 -0.915410
v 24.787521 1.962254 -6.838568
v 23.702475 2.060207 -7.857568
v 20.937963 2.095906 -11.605045
v -14.321920 -2.969324 -14.357710
v -21.774546 -9.480406 -18.905432
v -9.999781 -3.675643 -17.583248
v 21.833487 -0.481534 -18.468237
v -10.301417 -5.705528 -18.539864
v 22.703320 -0.167357 -18.426163
v -17.631058 -9.492277 -19.129530
v -7.257849 -0.688603 -18.705557
v -6.071934 -0.467410 -19.078737
v 19.109224 -0.778049 -19.666498
v 14.090281 -1.479742 -20.119398
v 11.943422 -0.887281 -19.900192
vt 0.764576 0.881357
vt 0.741551 0.927392
vt 0.750306 0.898777
vt 0.741551 0.574002
vt 0.672023 0.553059
vt 0.731861 0.541146
vt 0.715999 0.411980
vt 0.726566 0.459433
vt 0.662190 0.405142
vt 0.725532 0.663535
vt 0.782697 0.927392
vt 0.700489 0.386903
vt 0.704318 0.167693
vt 0.685503 0.190468
vt 0.661289 0.154348
vt 0.682046 0.362093
vt 0.741551 0.894217
vt 0.694741 0.794900
vt 0.736462 0.847483
vt 0.633654 0.249831
vt 0.812851 0.775362
vt 0.745557 0.710068
vt 0.812851 0.635035
vt 0.741551 0.633869
vt 0.650083 0.413045
vt 0.675699 0.492701
vt 0.886644 0.699949
vt 0.922427 0.673441
vt 0.929429 0.711481
vt 0.822573 0.605685
vt 0.899190 0.633082
vt 0.821074 0.633869
vt 0.596034 0.100119
vt 0.657448 0.084073
vt 0.714433 0.662223
vt 0.651027 0.602626
vt 0.648307 0.782957
vt 0.610734 0.830104
vt 0.712803 0.730707
vt 0.984092 0.745776
vt 0.984092 0.857672
vt 0.973880 0.797933
vt 0.675576 0.993864
vt 0.727264 0.950075
vt 0.707856 0.973823
vt 0.620330 0.456989
vt 0.633967 0.928187
vt 0.612307 0.910818
vt 0.913855 0.499824
vt 0.977252 0.627974
vt 0.451141 0.388244
vt 0.642406 0.308438
vt 0.578312 0.060133
vt 0.818716 0.550513
vt 0.545621 0.567477
vt 0.609897 0.680950
vt 0.458988 0.248417
vt 0.528876 0.065215
vt 0.560141 0.715715
vt 0.533063 0.823563
vt 0.767379 0.518659
vt 0.741551 0.431068
vt 0.785234 0.501967
vt 0.392328 0.530479
vt 0.510343 0.882715
vt 0.558865 0.873063
vt 0.809251 0.478799
vt 0.882481 0.423140
vt 0.367454 0.892956
vt 0.979095 0.100976
vt 0.977252 0.013601
vt 0.979095 0.000000
vt 0.962715 0.501538
vt 0.489128 0.905234
vt 0.952484 0.334445
vt 0.796694 0.486322
vt 0.848550 0.335703
vt 0.360435 0.753602
vt 0.367250 0.383930
vt 0.334238 0.246742
vt 0.318577 0.081034
vt 0.438429 0.082459
vt 0.292459 0.008319
vt 0.881464 0.271591
vt 0.798161 0.291140
vt 0.228647 0.493149
vt 0.196198 0.379179
vt 0.959410 0.235835
vt 0.209499 0.041283
vt 0.873586 0.176798
vt 0.791997 0.216532
vt 0.746522 0.210775
vt 0.268699 0.197137
vt 0.289172 0.801261
vt 0.344989 0.882453
vt 0.302496 0.823337
vt 0.312519 0.849261
vt 0.325187 0.865981
vt 0.951586 0.183517
vt 0.790961 0.168288
vt 0.139017 0.653343
vt 0.119448 0.575620
vt 0.169859 0.264446
vt 0.202446 0.128593
vt 0.131586 0.084841
vt 0.165499 0.012472
vt 0.209021 0.731512
vt 0.234989 0.748177
vt 0.153067 0.166733
vt 0.977252 0.105989
vt 0.104802 0.169699
vt 0.761200 0.833181
vt 0.802711 0.775362
vt 0.802711 0.863972
vt 0.811410 0.096035
vt 0.884458 0.061265
vt 0.779312 0.782414
vt 0.105895 0.507587
vt 0.812618 0.881357
vt 0.812618 0.930352
vt 0.782697 0.924625
vt 0.090816 0.000000
vt 0.121789 0.060454
vt 0.103784 0.193480
vt 0.096634 0.419513
vt 0.083748 0.057684
vt 0.097181 0.639420
vt 0.150620 0.713256
vt 0.107411 0.715101
vt 0.801829 0.881357
vt 0.741551 0.858738
vt 0.812851 0.856921
vt 0.877544 0.850941
vt 0.825187 0.875777
vt 0.849410 0.846932
vt 0.822308 0.831883
vt 0.885239 0.816000
vt 0.825105 0.807116
vt 0.009659 0.292232
vt 0.042155 0.231079
vt 0.115898 0.301434
vt 0.887629 0.000000
vt 0.841483 0.041529
vt 0.018624 0.582885
vt 0.011406 0.375337
vt 0.920848 0.881311
vt 0.935884 0.927151
vt 0.924877 0.906034
vt 0.032388 0.521195
vt 0.000000 0.445606
vt 0.885239 0.768565
vt 0.845321 0.758747
vt 0.936892 0.736711
vt 0.929429 0.668050
vt 0.972555 0.704422
vt 0.019174 0.558240
vt 0.861459 0.755979
vt 0.813984 0.688093
vt 0.820525 0.633869
vt 0.886644 0.705698
vt 0.885239 0.791092
vt 0.936598 0.816558
vt 0.938046 0.836144
vt 0.868756 0.747219
vt 0.883046 0.745776
vt 0.021211 0.663533
vt 0.960475 0.935896
vt 0.952598 0.936646
vt 0.945744 0.935144
vt 0.938046 0.926687
vt 0.972555 0.668520
vt 0.990223 0.698716
vt 0.974814 0.742855
vt 0.802711 0.831441
vt 0.812629 0.775362
vt 0.812629 0.855745
vt 0.884452 0.892027
vt 0.882250 0.867571
vt 0.884452 0.850941
vt 1.000000 0.677417
vt 0.716356 0.125444
vt 0.974246 0.894815
vt 0.983942 0.870478
vt 0.983942 0.925778
vt 0.916295 0.744188
vt 0.713996 0.778986
vt 0.720328 0.763209
vt 0.666444 0.360123
vt 0.882250 0.907471
vt 0.877544 0.890191
vt 0.882250 0.850941
vt 0.974246 0.924146
vt 0.960475 0.895599
vt 0.974246 0.870478
vt 0.929429 0.633869
vt 0.644170 1.000000
vt 0.584233 0.896197
vt 0.414468 0.922081
vt 0.461848 0.917007
vt 0.440394 0.921447
vt 0.386812 0.909223
vt 0.271599 0.781779
vt 0.252180 0.764321
vt 0.973880 0.745776
vt 0.973880 0.870478
vt 0.938046 0.826196
vt 0.182107 0.721151
vt 0.753354 0.798331
vt 0.885239 0.911800
vt 0.919639 0.861971
vt 0.919639 0.965003
vt 0.972555 0.633869
vt 0.882691 0.850941
vt 0.877544 0.916490
vt 0.949521 0.000398
vt 0.056703 0.724617
vt 0.901667 0.861971
vt 0.935705 0.855907
vt 0.009496 0.333307
vt 0.812851 0.799657
vt 0.935884 0.864603
vt 0.059792 0.744034
vt 0.829963 0.765022
vt 0.919639 0.861971
vt 0.886644 0.743614
vt 0.812851 0.745776
vt 0.915631 0.790693
vt 0.922882 0.770520
vt 0.938046 0.745776
vt 0.942995 0.948979
vt 0.952564 0.904549
vt 0.960475 0.870478
vt 0.885239 0.907844
vt 0.884465 0.880503
vt 0.885239 0.850941
vt 0.802711 0.872389
vt 0.807318 0.855745
vt 0.807318 0.880504
vt 1.000000 0.633869
vn -0.4040 0.0186 0.9146
vn -0.0279 0.9801 0.1965
vn -0.0790 0.9841 0.1591
vn 0.0304 0.9842 0.1746
vn -0.5104 0.5676 0.6460
vn 0.0253 0.9788 0.2032
vn -0.0506 0.9868 0.1537
vn 0.2381 0.8600 0.4514
vn -0.2551 0.9646 0.0672
vn -0.0372 0.9126 0.4071
vn 0.2805 0.8760 0.3924
vn 0.0761 -0.0028 0.9971
vn 0.0540 -0.0222 0.9983
vn 0.0259 0.8910 -0.4532
vn -0.8343 0.3628 0.4151
vn -0.7102 0.7039 -0.0144
vn -0.7100 0.7040 -0.0139
vn -0.0886 0.9932 -0.0761
vn 0.0996 0.9650 -0.2427
vn -0.3558 0.9274 -0.1151
vn -0.2747 0.9500 -0.1483
vn -0.1364 0.7608 -0.6345
vn 0.0759 0.9691 -0.2345
vn 0.6519 0.6613 0.3710
vn -0.0942 0.9954 0.0161
vn -0.3796 0.9116 0.1580
vn -0.9985 0.0493 0.0228
vn 0.2132 0.9766 -0.0274
vn -0.0686 0.9968 -0.0406
vn -0.2584 0.9600 -0.1079
vn -0.7102 0.7038 -0.0147
vn -0.0425 0.9981 0.0446
vn 0.0318 0.9991 0.0275
vn -0.0205 0.9990 -0.0408
vn 0.0192 0.9998 -0.0040
vn 0.0124 0.9999 -0.0063
vn 0.0123 0.9999 -0.0068
vn -0.2773 0.9593 -0.0525
vn -0.0121 0.9998 0.0161
vn -0.7479 0.6620 0.0495
vn 0.0002 0.9999 -0.0160
vn -0.0017 0.9999 -0.0135
vn -0.0012 0.9999 -0.0124
vn 0.2777 0.9556 0.0989
vn -0.7766 0.6223 0.0981
vn -0.3342 0.9397 -0.0722
vn -0.3261 0.9425 -0.0739
vn -0.3317 0.9406 -0.0727
vn -0.6152 -0.0598 0.7861
vn -0.9924 0.0251 -0.1204
vn 0.1588 0.9873 0.0084
vn -0.9905 0.1355 -0.0228
vn -0.7032 0.7080 0.0655
vn -0.0221 0.9996 -0.0154
vn 0.0169 0.9999 -0.0024
vn 0.0014 1.0000 0.0021
vn -0.0041 0.9999 -0.0123
vn -0.0035 0.9999 -0.0130
vn 0.0208 0.9998 0.0022
vn -0.0872 0.9960 0.0174
vn -0.4971 0.8677 -0.0073
vn -0.9231 0.3847 -0.0026
vn -0.9811 0.1192 0.1524
vn -0.0019 1.0000 0.0039
vn -0.0000 1.0000 -0.0036
vn 0.0027 0.9999 0.0116
vn 0.0194 0.9998 0.0010
vn -0.9994 0.0025 0.0346
vn -0.9994 0.0024 0.0347
vn -0.5301 0.8135 0.2391
vn -0.9510 0.2879 0.1128
vn -0.9253 0.3765 0.0449
vn -0.7279 0.6772 0.1077
vn -0.0163 0.9999 0.0033
vn 0.1101 0.9617 -0.2511
vn 0.3100 0.8633 -0.3984
vn -0.0259 0.9996 -0.0149
vn -0.9994 0.0025 0.0344
vn -0.0022 1.0000 0.0029
vn -0.9764 -0.1460 -0.1589
vn -0.7516 0.6545 -0.0819
vn -0.0142 0.9996 0.0224
vn 0.0381 0.9993 0.0035
vn -0.0299 0.9983 0.0503
vn 0.0181 0.9998 -0.0086
vn -0.1552 0.7833 -0.6020
vn 0.1474 0.9889 -0.0162
vn -0.0066 0.9998 0.0182
vn -0.0038 0.9999 0.0144
vn -0.0036 0.9999 0.0142
vn -0.0221 0.9900 -0.1396
vn -0.9590 -0.0894 0.2691
vn 0.0216 0.9998 0.0028
vn -0.4329 0.7941 -0.4267
vn -0.4575 0.5250 -0.7177
vn -0.9636 0.2048 0.1717
vn -0.2960 0.7499 -0.5916
vn 0.0000 0.9999 0.0163
vn 0.0002 0.9999 0.0164
vn -0.7233 0.6076 -0.3281
vn 0.1622 0.9350 -0.3154
vn -0.0363 0.9993 0.0054
vn -0.0094 0.9992 0.0383
vn 0.2415 0.8216 -0.5164
vn 0.0645 0.9703 -0.2330
vn -0.0982 0.9946 0.0342
vn -0.4676 0.5147 -0.7187
vn -0.7558 0.3507 -0.5530
vn -0.4685 0.5080 -0.7228
vn -0.4681 0.5074 -0.7235
vn -0.4650 0.5024 -0.7290
vn -0.4648 0.5021 -0.7293
vn 0.0233 0.8935 -0.4485
vn -0.9027 0.3947 -0.1712
vn -0.1036 0.8585 -0.5022
vn -0.0748 0.9004 -0.4286
vn -0.2193 0.6125 -0.7595
vn 0.0343 0.9015 -0.4314
vn -0.1112 0.9059 -0.4087
vn -0.3099 0.5424 -0.7809
vn -0.3097 0.5503 -0.7754
vn -0.3099 0.5424 -0.7808
vn 0.0821 0.9236 -0.3745
vn 0.6256 0.7135 -0.3155
vn 0.2265 0.8216 -0.5231
vn -0.3100 0.5404 -0.7823
vn 0.2168 0.6025 -0.7681
vn -0.5878 0.3693 -0.7198
vn -0.0454 0.7214 -0.6910
vn -0.0451 0.8404 -0.5400
vn 0.5525 0.5978 -0.5809
vn -0.2003 0.4674 -0.8611
vn 0.2515 0.5118 -0.8215
vn -0.0367 -0.0528 -0.9979
vn -0.0081 -0.9997 -0.0225
vn 0.3665 0.3441 -0.8645
vn 0.1502 0.8604 0.4870
vn -0.1649 0.7671 0.6200
vn -0.0193 0.9948 0.1003
vn 0.3176 -0.0670 0.9459
vn -0.0724 0.9082 0.4122
vn -0.8442 0.3675 0.3902
vn -0.0603 0.9952 0.0768
vn 0.1493 0.7999 0.5813
vn -0.0890 0.8775 0.4712
vn 0.1330 0.9799 0.1484
vn -0.0472 0.8675 0.4951
vn -0.0904 0.9315 0.3524
vn 0.6920 0.0754 0.7179
vn -0.0139 0.8529 0.5219
vn -0.0127 0.9365 0.3504
vn -0.0616 0.9829 0.1736
vn 0.0394 0.9989 -0.0238
vn 0.0282 0.9994 -0.0209
vn 0.0284 0.9994 -0.0215
vn 0.0280 0.9994 -0.0203
vn -0.7216 0.6794 0.1328
vn -0.0901 0.9953 -0.0351
vn 0.0466 0.9790 0.1984
vn 0.0928 0.9947 0.0439
vn 0.1759 0.9833 0.0462
vn -0.9992 0.0368 0.0174
vn 0.0007 0.9999 -0.0162
vn 0.0280 0.9994 -0.0202
vn 0.0885 0.9950 -0.0469
vn 0.0614 0.9981 0.0005
vn -0.7510 0.6555 -0.0795
vn -0.3235 0.9433 -0.0744
vn -0.3986 0.8441 0.3585
vn -0.0035 0.9992 -0.0399
vn -0.7865 0.6154 0.0519
vn -0.5094 0.8523 0.1188
vn 0.0397 0.9990 0.0203
vn -0.6634 0.7393 0.1155
vn -0.0020 0.9999 -0.0128
vn 0.0813 0.9967 0.0081
vn 0.0437 0.9974 -0.0580
vn 0.1389 0.9902 0.0120
vn -0.8013 0.5792 0.1494
vn -0.0833 0.9962 -0.0240
vn -0.7626 0.5947 0.2545
vn 0.1072 0.9941 -0.0160
vn -0.9934 0.1147 -0.0049
vn 0.2330 0.9706 -0.0601
vn 0.0003 1.0000 -0.0074
vn -0.0896 0.9268 -0.3648
vn 0.0006 0.9993 0.0372
vn -0.0038 0.9999 0.0130
vn -0.0946 0.9915 0.0892
vn 0.0126 0.9999 0.0079
vn 0.0692 0.9974 0.0222
vn -0.9264 0.3676 -0.0818
vn -0.1311 0.9913 0.0156
vn -0.1260 0.7404 -0.6603
vn -0.4404 0.8005 -0.4066
vn -0.0029 0.9999 0.0133
vn -0.1116 0.8341 -0.5402
vn -0.9245 0.3812 -0.0004
vn 0.0086 0.9961 0.0878
vn -0.9974 0.0539 0.0481
vn -0.0656 0.9969 0.0428
vn 0.0478 0.9954 -0.0833
vn -0.3904 0.4934 -0.7773
vn 0.0612 0.5224 -0.8505
vn 0.0215 0.9996 0.0175
vn 0.0275 0.9754 -0.2185
vn 0.0380 0.9978 0.0543
vn -0.4460 0.5224 -0.7267
vn 0.6129 0.6761 -0.4090
vn -0.9040 0.3628 -0.2262
vn -0.3785 0.4769 -0.7933
vn -0.0445 0.9219 -0.3849
vn -0.7130 0.4610 -0.5283
vn 0.0546 0.9017 -0.4289
vn -0.9956 -0.0232 -0.0909
vn -0.9907 0.0149 -0.1351
vn -0.0461 0.8233 -0.5657
vn -0.6785 0.3750 -0.6317
vn -0.7070 0.3071 -0.6371
vn -0.4618 0.6225 -0.6318
vn -0.1408 0.8762 -0.4609
vn -0.5899 0.4910 -0.6410
vn -0.1101 0.6939 -0.7116
vn 0.4576 0.7634 -0.4558
vn -0.2039 0.4420 -0.8735
vn -0.2202 0.7005 -0.6788
vn -0.0541 -0.0518 -0.9972
vn -0.0241 0.8436 -0.5364
vn -0.3412 0.5766 -0.7424
vn -0.6525 0.3518 -0.6712
vn -0.3549 0.3673 -0.8597
vn 0.0618 0.0823 -0.9947
vn -0.0262 0.8964 -0.4425
vn -0.1166 0.7757 -0.6203
vn 0.3770 0.6409 -0.6687
vn 0.3109 0.4542 -0.8349
vn 0.1404 0.6470 -0.7494
vn 0.0459 0.8633 -0.5026
vn -0.1307 -0.7538 -0.6439
vn 0.0140 -0.5613 0.8275
vn -0.1006 0.4761 -0.8736
s 1
f 1/1/1 2/2/1 3/3/1
f 4/4/2 5/5/2 6/6/2
f 7/7/3 8/8/3 9/9/3
f 5/5/4 4/4/4 10/10/4
f 1/1/5 11/11/5 2/2/5
f 8/8/6 6/6/6 5/5/6
f 7/7/7 9/9/7 12/12/7
f 13/13/8 14/14/8 15/15/8
f 9/9/9 16/16/9 12/12/9
f 17/17/10 18/18/10 19/19/10
f 15/15/11 14/14/11 20/20/11
f 21/21/12 22/22/12 23/23/12
f 22/22/13 24/24/13 23/23/13
f 25/25/14 9/9/14 26/26/14
f 11/27/15 27/28/15 28/29/15
f 29/30/16 22/31/16 21/32/17
f 30/33/18 11/34/18 15/15/18
f 5/5/19 31/35/19 32/36/19
f 33/37/20 18/18/20 34/38/20
f 33/37/21 35/39/21 18/18/21
f 32/40/22 26/41/22 5/42/22
f 30/33/23 15/15/23 20/20/23
f 36/43/24 37/44/24 38/45/24
f 39/46/25 25/25/25 26/26/25
f 37/44/26 40/47/26 41/48/26
f 22/31/27 42/49/27 24/50/27
f 36/43/28 40/47/28 37/44/28
f 43/51/29 20/20/29 44/52/29
f 45/53/30 11/34/30 30/33/30
f 22/31/16 29/30/16 46/54/31
f 47/55/32 32/36/32 48/56/32
f 30/33/33 20/20/33 43/51/33
f 39/46/34 26/26/34 47/55/34
f 49/57/35 30/33/36 43/51/37
f 50/58/38 45/53/38 30/33/38
f 51/59/39 33/37/39 52/60/39
f 50/61/40 53/62/40 54/63/40
f 43/51/41 39/46/42 55/64/43
f 56/65/44 34/38/44 57/66/44
f 58/67/45 59/68/45 42/49/45
f 60/69/46 52/60/47 34/38/48
f 59/70/49 58/71/49 61/72/49
f 42/49/50 59/68/50 62/73/50
f 63/74/51 60/69/51 56/65/51
f 59/68/52 64/75/52 62/73/52
f 61/76/53 53/62/53 65/77/53
f 66/78/54 51/59/54 52/60/54
f 67/79/55 49/57/35 43/51/37
f 68/80/56 69/81/56 49/57/56
f 55/64/43 51/59/57 66/78/58
f 68/80/59 49/57/35 67/79/55
f 60/69/60 66/78/60 52/60/60
f 53/82/61 69/81/61 70/83/61
f 71/84/62 65/77/62 70/85/62
f 65/77/63 71/84/63 64/75/63
f 67/79/64 55/64/65 72/86/66
f 68/80/59 67/79/55 73/87/67
f 71/84/68 74/88/68 64/75/69
f 70/83/70 69/81/70 75/89/70
f 76/90/71 70/85/71 77/91/71
f 76/90/72 71/84/72 70/85/72
f 70/85/73 75/92/73 77/91/73
f 78/93/74 75/89/74 69/81/74
f 79/94/75 80/95/75 81/96/75
f 82/97/76 80/95/76 83/98/76
f 79/94/77 66/78/77 80/95/77
f 76/90/78 74/88/68 71/84/68
f 73/87/79 67/79/64 72/86/66
f 76/90/80 84/99/80 74/88/80
f 77/91/81 75/92/81 85/100/81
f 86/101/82 87/102/82 66/78/82
f 78/93/83 68/80/83 88/103/83
f 89/104/84 75/89/84 78/93/84
f 88/103/85 89/104/85 78/93/85
f 90/105/86 85/106/86 89/104/86
f 91/107/87 66/78/87 92/108/87
f 66/78/88 91/107/89 86/101/90
f 93/109/91 89/104/91 88/103/91
f 94/110/92 84/99/92 76/90/92
f 88/103/93 68/80/59 73/87/67
f 95/111/94 90/105/94 93/109/94
f 96/112/95 90/113/95 95/114/95
f 85/100/96 97/115/96 98/116/96
f 99/117/97 90/113/97 96/112/97
f 87/102/98 100/118/99 72/86/66
f 93/119/100 101/120/100 95/121/100
f 97/122/101 85/106/101 102/123/101
f 101/124/102 93/109/102 88/103/102
f 103/125/103 73/87/103 72/86/103
f 104/126/104 97/122/104 102/123/104
f 105/127/105 86/101/105 106/128/105
f 105/127/106 106/128/106 107/129/106
f 95/114/107 108/130/107 109/131/107
f 101/132/108 110/133/108 108/134/108
f 111/135/109 109/136/110 112/137/111
f 112/137/111 109/136/110 113/138/112
f 114/139/113 110/140/113 115/141/113
f 116/142/114 98/116/114 117/143/114
f 118/144/115 87/102/115 105/127/115
f 119/145/116 115/141/116 103/125/116
f 120/146/117 107/147/117 121/148/117
f 122/149/118 103/125/118 100/118/118
f 123/150/119 119/145/119 103/125/119
f 124/151/120 113/138/121 125/152/122
f 123/150/123 103/125/123 122/149/123
f 126/153/124 117/154/124 127/155/124
f 128/156/125 122/149/125 87/102/125
f 124/151/120 125/152/122 129/157/126
f 116/158/127 117/159/127 126/160/127
f 110/161/128 130/162/128 131/163/128
f 124/151/129 132/164/129 133/165/129
f 118/144/130 105/127/130 134/166/130
f 135/167/131 136/168/131 137/169/131
f 137/169/132 138/170/132 135/167/132
f 122/171/133 139/172/133 123/173/133
f 140/174/134 118/175/134 134/176/134
f 141/177/135 142/178/135 114/179/135
f 122/171/136 143/180/136 139/172/136
f 1/181/137 13/13/137 15/15/137
f 5/5/138 10/10/138 31/35/138
f 26/26/139 9/9/139 8/8/139
f 144/182/140 37/183/140 17/184/140
f 1/181/141 15/15/141 11/34/141
f 2/185/142 11/27/142 28/29/142
f 8/8/143 5/5/143 26/26/143
f 10/10/144 35/39/144 31/35/144
f 19/19/145 18/18/145 145/186/145
f 31/35/146 35/39/146 33/37/146
f 146/187/147 145/186/147 18/18/147
f 147/188/148 16/16/148 9/9/148
f 14/189/149 148/190/149 20/191/149
f 146/187/150 18/18/150 35/39/150
f 37/44/151 18/18/151 17/17/151
f 148/192/152 149/193/152 20/194/152
f 41/48/153 18/18/153 37/44/153
f 48/56/154 31/35/155 33/37/156
f 45/195/157 27/28/157 11/27/157
f 48/56/158 32/36/158 31/35/158
f 39/46/159 44/52/159 25/25/159
f 41/48/160 34/38/160 18/18/160
f 36/43/161 150/196/161 40/47/161
f 42/49/162 62/73/162 24/50/162
f 39/46/42 43/51/41 44/52/163
f 33/37/156 51/59/164 48/56/154
f 34/38/165 41/48/165 57/66/165
f 47/55/166 26/26/166 32/36/166
f 42/49/167 22/31/167 46/54/167
f 34/38/48 52/60/47 33/37/168
f 151/197/169 57/66/169 41/48/169
f 47/55/170 48/56/170 51/59/170
f 42/49/171 46/54/171 58/67/171
f 53/82/172 50/58/172 30/33/172
f 53/82/173 30/33/173 49/57/173
f 61/76/174 54/63/174 53/62/174
f 51/59/57 55/64/43 47/55/175
f 55/64/43 39/46/42 47/55/175
f 56/65/176 60/69/176 34/38/176
f 49/57/177 69/81/177 53/82/177
f 60/69/178 63/74/178 152/198/178
f 65/77/179 59/68/179 61/76/179
f 152/198/180 63/74/180 153/199/180
f 70/85/181 65/77/181 53/62/181
f 154/200/182 152/198/182 153/199/182
f 59/68/183 65/77/183 64/75/183
f 155/201/184 60/69/184 152/198/184
f 55/64/65 67/79/64 43/51/185
f 80/95/186 66/78/186 60/69/186
f 78/93/187 69/81/187 68/80/187
f 66/78/188 72/86/66 55/64/65
f 66/78/188 87/102/98 72/86/66
f 82/97/189 81/96/189 80/95/189
f 79/94/190 156/202/190 66/78/190
f 157/203/191 66/78/191 156/202/191
f 85/100/192 76/90/192 77/91/192
f 92/108/193 66/78/193 157/203/193
f 89/204/194 85/205/194 75/206/194
f 93/109/195 90/105/195 89/104/195
f 158/207/196 86/101/90 91/107/89
f 102/123/197 85/106/197 90/105/197
f 76/90/198 85/100/198 98/116/198
f 115/141/199 88/103/199 73/87/199
f 98/116/200 94/110/200 76/90/200
f 115/141/201 101/124/201 88/103/201
f 106/128/202 86/101/202 158/207/202
f 96/112/203 159/208/203 99/117/203
f 104/209/204 127/210/204 97/211/204
f 103/125/205 72/86/205 100/118/205
f 105/127/206 87/102/206 86/101/206
f 115/141/207 73/87/207 103/125/207
f 96/112/208 95/114/208 109/131/208
f 127/155/209 117/154/209 97/212/209
f 97/115/210 117/143/210 98/116/210
f 111/135/211 112/137/211 159/213/211
f 110/140/212 101/124/212 115/141/212
f 109/214/213 108/134/213 110/133/213
f 87/102/214 122/149/214 100/118/214
f 94/110/215 98/116/215 160/215/215
f 98/116/216 116/142/216 160/215/216
f 135/216/217 105/127/217 107/129/217
f 109/217/218 110/161/218 131/163/218
f 109/217/219 131/163/219 161/218/219
f 124/151/220 112/137/220 113/138/220
f 141/219/221 115/141/221 119/145/221
f 125/152/222 113/138/222 161/220/222
f 162/221/223 107/147/223 120/146/223
f 135/216/224 107/129/224 162/222/224
f 161/220/225 163/223/225 125/152/225
f 120/146/226 164/224/226 162/221/226
f 116/158/227 165/225/227 160/226/227
f 134/166/228 105/127/228 135/216/228
f 166/227/229 110/161/229 167/228/229
f 110/161/230 166/227/230 130/162/230
f 124/151/231 129/157/231 132/164/231
f 116/158/232 126/160/232 165/225/232
f 114/139/233 115/141/233 141/219/233
f 167/228/234 110/161/234 114/229/234
f 137/169/235 136/168/235 162/230/235
f 168/231/236 135/167/236 138/170/236
f 168/231/237 134/232/237 135/167/237
f 87/102/238 118/144/238 128/156/238
f 140/233/239 169/234/239 118/235/239
f 170/236/240 128/237/240 118/238/240
f 128/239/241 143/180/241 122/171/241
