# Blender v2.80 (sub 44) OBJ File: ''
# www.blender.org
o puertaDerecha_Plane.004
v -0.217677 2.052260 3.307888
v -0.221851 -2.052260 -3.307610
v -0.217677 -2.052260 3.307888
v 0.245568 -1.831625 2.951985
v 0.221851 2.052260 3.307610
v 0.221851 -2.052260 3.307610
v -0.221851 2.052260 -3.307610
v 0.217677 2.052260 -3.307888
v 0.019489 -0.493128 2.952127
v 0.015763 1.831625 -2.952151
v 0.019489 1.831625 2.952127
v 0.241842 1.831625 -2.952293
v 0.217677 -2.052260 -3.307888
v 0.245568 1.831625 2.951985
v 0.241842 -1.831625 -2.952293
v 0.019489 -1.831625 2.952127
v 0.015763 -0.967327 -2.952151
v 0.019489 -0.967327 2.952127
v 0.148981 -0.967327 2.952044
v 0.145256 -0.493128 -2.952234
v 0.148981 -0.493128 2.952044
v 0.015763 -0.493128 -2.952151
v 0.145256 -0.967327 -2.952234
v 0.015763 -1.831625 -2.952151
vt 0.668644 0.000000
vt 0.334322 0.560229
vt 0.334322 0.000000
vt 0.017971 0.530115
vt 0.334322 0.560229
vt 0.000000 0.560229
vt 1.000000 0.000000
vt 0.964199 0.560229
vt 0.964200 0.000000
vt 0.778869 0.500000
vt 0.743069 0.847588
vt 0.743069 0.500000
vt 0.928399 0.000000
vt 0.964199 0.560229
vt 0.928399 0.560229
vt 0.743069 0.500000
vt 0.707268 0.847588
vt 0.707268 0.500000
vt 0.668644 0.500000
vt 0.858000 0.000000
vt 0.858000 0.500000
vt 0.316351 0.030115
vt 0.000000 0.000000
vt 0.334322 0.000000
vt 0.316351 0.530114
vt 0.797284 1.000000
vt 0.815699 0.500000
vt 0.815699 1.000000
vt 0.017971 0.030115
vt 0.797284 1.000000
vt 0.778870 0.500000
vt 0.797284 0.500000
vt 0.858000 0.500000
vt 0.928399 0.000000
vt 0.928399 0.500000
vt 0.668644 1.000000
vt 0.707268 0.500000
vt 0.707268 1.000000
vt 0.844661 0.500000
vt 0.855209 1.000000
vt 0.844661 1.000000
vt 0.844661 0.500000
vt 0.834113 1.000000
vt 0.834114 0.500000
vt 0.826246 0.613350
vt 0.826246 0.573192
vt 0.834113 0.500000
vt 0.018415 0.870449
vt 0.010547 0.797256
vt 0.010547 0.757099
vt 0.668644 0.560229
vt 1.000000 0.560229
vt 0.778869 0.847588
vt 0.964199 0.000000
vt 0.743069 0.847588
vt 0.668644 0.000000
vt 0.797284 0.500000
vt 0.778869 1.000000
vt 0.858000 0.000000
vt 0.668644 0.500000
vt 0.855208 0.500000
vt 0.844661 1.000000
vt 0.834113 0.810220
vt 0.815699 0.810220
vt 0.815699 0.613350
vt 0.815699 0.573192
vt 0.815699 0.500000
vt 0.000000 0.870449
vt 0.000000 0.797256
vt 0.000000 0.560229
vt 0.018415 0.560229
vt 0.000000 0.757099
vn -1.0000 0.0000 0.0006
vn 0.9978 0.0000 0.0665
vn 0.0000 1.0000 0.0000
vn -0.0006 0.0000 -1.0000
vn -0.0000 -1.0000 -0.0000
vn 0.0006 0.0000 1.0000
vn 1.0000 0.0000 -0.0006
vn 0.9977 0.0000 -0.0678
vn 0.9942 0.1079 -0.0006
vn 0.9942 -0.1079 -0.0006
s 1
f 1/1/1 2/2/1 3/3/1
f 4/4/2 5/5/2 6/6/2
f 5/7/3 7/8/3 1/9/3
f 8/10/4 2/11/4 7/12/4
f 2/13/5 6/14/5 3/15/5
f 6/16/6 1/17/6 3/18/6
f 9/19/7 10/20/7 11/21/7
f 12/22/8 13/23/8 8/24/8
f 14/25/9 8/24/9 5/5/9
f 11/26/5 12/27/5 14/28/5
f 15/29/10 6/6/10 13/23/10
f 15/30/3 16/31/3 4/32/3
f 16/33/7 17/34/7 18/35/7
f 19/36/7 20/37/7 21/38/7
f 17/39/5 19/40/5 18/41/5
f 21/42/3 22/43/3 9/44/3
f 20/45/6 23/46/6 15/47/6
f 4/48/4 19/49/4 21/50/4
f 1/1/1 7/51/1 2/2/1
f 4/4/2 14/25/2 5/5/2
f 5/7/3 8/52/3 7/8/3
f 8/10/4 13/53/4 2/11/4
f 2/13/5 13/54/5 6/14/5
f 6/16/6 5/55/6 1/17/6
f 9/19/7 22/56/7 10/20/7
f 12/22/8 15/29/8 13/23/8
f 14/25/9 12/22/9 8/24/9
f 11/26/5 10/57/5 12/27/5
f 15/29/10 4/4/10 6/6/10
f 15/30/3 24/58/3 16/31/3
f 16/33/7 24/59/7 17/34/7
f 19/36/7 23/60/7 20/37/7
f 17/39/5 23/61/5 19/40/5
f 21/42/3 20/62/3 22/43/3
f 15/47/6 12/63/6 20/45/6
f 12/63/6 10/64/6 20/45/6
f 10/64/6 22/65/6 20/45/6
f 23/46/6 17/66/6 24/67/6
f 23/46/6 24/67/6 15/47/6
f 4/48/4 16/68/4 19/49/4
f 16/68/4 18/69/4 19/49/4
f 11/70/4 14/71/4 21/50/4
f 14/71/4 4/48/4 21/50/4
f 21/50/4 9/72/4 11/70/4
