# Blender v2.80 (sub 45) OBJ File: ''
# www.blender.org
o Suelo_2.001_Group25469.000
v -11.381873 1.198230 20.651436
v -14.128210 0.083173 19.461176
v -12.438663 0.465403 20.199615
v 14.608300 1.792819 20.265461
v 13.116957 2.517010 16.442518
v 12.672925 1.820407 19.853319
v 5.153204 1.778975 19.479866
v 7.931518 1.937602 19.878357
v 4.542471 2.213734 16.487326
v 19.715576 1.857492 19.012968
v -14.020926 2.422496 17.490417
v 3.644327 1.821334 18.711123
v -8.989673 1.257227 19.809286
v -7.751879 1.517668 18.660229
v -9.954264 2.779773 17.417233
v 2.146329 1.489476 17.786900
v 33.097534 1.941228 18.991405
v 27.167412 2.699870 16.748644
v 30.380262 1.873939 18.894003
v -4.531028 1.894881 15.516122
v -17.626797 -0.980715 17.272093
v -21.389162 -4.769722 17.548788
v -17.616644 -9.103402 17.248512
v -21.608898 -9.179263 17.462770
v 4.958728 1.846168 15.788488
v 9.650039 2.271987 16.893801
v -15.556840 1.182654 15.487110
v -15.054226 0.076115 17.464411
v -17.744198 -1.131130 15.649425
v -13.327903 2.216622 13.998358
v 19.588223 2.337446 18.385305
v 15.909629 1.888114 15.088175
v 26.309931 2.056556 14.216444
v 28.874655 2.754315 11.910684
v 23.545525 1.853488 18.034918
v 38.600025 1.773856 14.911688
v 36.260235 2.370181 17.959974
v 37.568184 1.733239 16.797054
v 7.376709 2.104809 13.944033
v 34.631790 2.581785 12.825047
v 33.549591 2.327885 11.689419
v -21.622889 -5.966345 9.886035
v 2.755467 1.958623 4.760962
v -1.117181 2.139989 15.766689
v -15.692347 1.488689 13.184870
v -17.643698 -1.096836 12.444861
v 13.469597 2.041219 9.330317
v 20.268267 2.190637 12.470058
v -5.290874 2.064667 5.751665
v -15.587728 1.366823 10.403815
v 22.085545 2.080666 9.553088
v 28.207058 2.186217 7.608626
v -14.961341 2.459471 5.250309
v -16.456333 0.452133 9.512193
v 10.742581 1.927801 0.909275
v 31.527893 2.585119 6.093384
v 31.161310 2.406549 8.849178
v -17.665680 -0.773285 8.272794
v -21.035957 -4.518901 5.350280
v 31.565874 2.647174 -1.937871
v -17.233084 -0.112087 8.661633
v -21.720190 -8.718367 10.115043
v 32.749733 2.399380 4.822712
v -21.492296 -8.683728 0.415901
v -20.822781 -2.894585 0.197817
v 23.504139 1.938224 -1.759238
v 2.182719 1.924333 0.088524
v -5.870106 2.080024 -1.217002
v -15.500288 2.094393 -1.435618
v -19.755989 -0.352817 -2.544492
v -21.615637 -4.821114 -3.400111
v 7.953525 1.960745 -8.095078
v 1.246714 1.949578 -9.456935
v -21.691227 -9.341836 -5.263794
v -18.217016 2.069892 -7.375961
v -21.804441 -4.628921 -8.897777
v -20.207335 -0.151436 -6.861767
v -8.990448 2.211177 -4.687933
v 25.980865 1.939991 -5.932724
v 30.882282 2.108572 -3.138376
v 27.306898 1.959719 -5.275856
v 28.840763 2.065136 -4.821040
v 29.856554 1.997456 -4.177296
v -21.223646 -9.136971 -8.325251
v -20.008369 -0.273296 -9.661429
v 16.855289 2.112607 -13.745701
v 12.292126 2.065412 -14.530320
v -5.483439 2.097928 -10.478273
v -13.205684 2.257721 -8.121464
v -15.944670 -1.129302 -11.822601
v 21.640676 2.078485 -10.140951
v 22.705885 1.942486 -8.751662
v -11.187418 1.893407 -11.024213
v -22.313456 -10.641574 -12.708612
v -11.176706 0.462704 -13.697723
v -12.494242 -2.012223 -14.668243
v -20.995291 -1.483426 -13.756431
v -22.173933 -5.532987 -15.540698
v -15.416411 -2.003177 -13.194614
v 8.310784 2.074290 -15.018427
v -9.834444 1.958138 -13.887469
v -17.382200 -1.605814 -12.261374
v 3.186773 2.187400 -15.189771
v -17.666967 -2.832333 -14.345667
v 15.898341 1.630691 -16.017145
v 20.362452 1.979045 -13.331229
v 20.300610 2.056380 -15.756348
v -10.235831 0.737690 -14.112898
v -10.953972 -2.471576 -15.943839
v -7.876114 0.566599 -17.446524
v -12.553563 -2.423521 -14.873302
v -13.886617 -4.666181 -15.585526
v -10.712132 -3.664983 -16.919506
v -4.450135 -0.542450 -19.477449
v -3.560778 2.360567 -13.648762
v -21.696466 -5.981202 -19.091492
v -20.978397 -3.359072 -16.831800
v 12.381070 -1.189357 -20.112494
v 0.349678 -0.204109 -19.718121
v 22.182323 0.560959 -17.505636
v 21.368383 1.475839 -16.532818
v 8.848588 0.085679 -19.131033
v 4.362116 -0.126038 -20.636599
v -13.224531 -6.687229 -18.060627
v -10.998470 -6.314433 -18.685228
v -17.579294 -7.272989 -18.942619
v -17.769192 -5.913949 -16.246023
v 10.957301 -1.041095 -19.987803
v -11.791492 -6.777286 -18.690706
v -8.089970 -2.414156 -18.801149
v -9.019315 -3.089866 -18.388948
v -12.013232 -7.368904 -18.851934
v -12.770494 -7.656026 -19.101954
v 17.045925 -1.054139 -20.291275
v 20.688995 0.137857 -18.579885
v 20.908381 -0.215922 -18.735268
v 20.967470 -0.540094 -19.012638
v 20.691492 -1.094972 -19.249598
v 7.093898 -0.832668 -20.240444
v 15.669520 -1.678157 -20.207590
v -2.078454 -0.557880 -19.649059
v -3.481270 -0.551534 -19.423878
v 8.455561 -1.356291 -19.871624
v 34.937248 1.643708 18.352705
v 26.335659 1.993739 17.906536
v 25.454275 1.703728 18.330603
v 1.966610 1.802103 16.914341
v -6.741662 1.370463 17.701950
v -5.024880 1.585562 17.092716
v 38.832195 1.816084 13.130319
v 32.593292 2.520500 10.172821
v 33.434845 2.354529 0.582732
v 33.323959 2.409535 3.250490
v 33.498135 2.371134 2.034378
v 32.583405 2.466194 -0.915410
v 24.787521 1.962255 -6.838568
v 23.702475 2.060208 -7.857567
v 20.937963 2.095908 -11.605045
v -14.321920 -2.969323 -14.357711
v -21.774546 -9.480404 -18.905434
v -9.999781 -3.675641 -17.583248
v 21.833487 -0.481532 -18.468237
v -10.301417 -5.705526 -18.539864
v 22.703320 -0.167355 -18.426163
v -17.631058 -9.492275 -19.129532
v -7.257849 -0.688601 -18.705557
v -6.071934 -0.467408 -19.078737
v 19.109224 -0.778047 -19.666498
v 14.090281 -1.479740 -20.119398
v 11.943422 -0.887279 -19.900192
vt 0.967501 1.173851
vt 0.926816 1.255193
vt 0.942285 1.204632
vt 0.926816 0.630761
vt 0.803962 0.593754
vt 0.909695 0.572704
vt 0.881665 0.344470
vt 0.900337 0.428318
vt 0.786587 0.332388
vt 0.898510 0.788963
vt 0.999519 1.255193
vt 0.854261 0.300159
vt 0.861027 -0.087181
vt 0.827780 -0.046937
vt 0.784995 -0.110760
vt 0.821672 0.256320
vt 0.926816 1.196574
vt 0.844103 1.021083
vt 0.917825 1.113996
vt 0.736164 0.057956
vt 1.052802 0.986560
vt 0.933894 0.871185
vt 1.052802 0.738605
vt 0.926816 0.736544
vt 0.765193 0.346352
vt 0.810458 0.487103
vt 1.183193 0.853307
vt 1.246420 0.806467
vt 1.258793 0.873684
vt 1.069981 0.686743
vt 1.205361 0.735154
vt 1.067331 0.736544
vt 0.669690 -0.206581
vt 0.778207 -0.234936
vt 0.878900 0.786646
vt 0.766862 0.681338
vt 0.762056 0.999980
vt 0.695664 1.083287
vt 0.876018 0.907655
vt 1.355382 0.934282
vt 1.355382 1.132000
vt 1.337336 1.026442
vt 0.810239 1.372649
vt 0.901571 1.295274
vt 0.867278 1.337236
vt 0.712621 0.424000
vt 0.736718 1.256599
vt 0.698444 1.225907
vt 1.231274 0.499689
vt 1.343296 0.726128
vt 0.413667 0.302528
vt 0.751629 0.161514
vt 0.638376 -0.277237
vt 1.063165 0.589255
vt 0.580611 0.619230
vt 0.694185 0.819736
vt 0.427533 0.055458
vt 0.551023 -0.268257
vt 0.606268 0.881164
vt 0.558422 1.071730
vt 0.972453 0.532970
vt 0.926816 0.378199
vt 1.004004 0.503476
vt 0.309746 0.553856
vt 0.518275 1.176250
vt 0.604013 1.159195
vt 1.046441 0.462538
vt 1.175836 0.364189
vt 0.265794 1.194346
vt 1.346553 -0.205068
vt 1.343296 -0.359458
vt 1.346553 -0.383491
vt 1.317609 0.502718
vt 0.480790 1.216041
vt 1.299531 0.207468
vt 1.024253 0.475831
vt 1.115882 0.209690
vt 0.253392 0.948110
vt 0.265432 0.294906
vt 0.207101 0.052498
vt 0.179430 -0.240305
vt 0.391204 -0.237786
vt 0.133279 -0.368791
vt 1.174040 0.096406
vt 1.026845 0.130948
vt 0.020524 0.487894
vt -0.036813 0.286511
vt 1.311768 0.033226
vt -0.013309 -0.310544
vt 1.160120 -0.071092
vt 1.015953 -0.000883
vt 0.935600 -0.011054
vt 0.091295 -0.035154
vt 0.127471 1.032322
vt 0.226098 1.175787
vt 0.151014 1.071331
vt 0.168724 1.117137
vt 0.191110 1.146682
vt 1.297944 -0.059219
vt 1.014123 -0.086129
vt -0.137850 0.770953
vt -0.172429 0.633619
vt -0.083354 0.083780
vt -0.025771 -0.156269
vt -0.150981 -0.233578
vt -0.091056 -0.361453
vt -0.014155 0.909078
vt 0.031730 0.938524
vt -0.113024 -0.088877
vt 1.343296 -0.196211
vt -0.198308 -0.083636
vt 0.961536 1.088726
vt 1.034884 0.986560
vt 1.034884 1.143133
vt 1.050256 -0.213799
vt 1.179329 -0.275236
vt 0.993539 0.999021
vt -0.196376 0.513406
vt 1.049272 1.265853
vt 0.999519 1.193911
vt 1.049272 1.173851
vt -0.223021 -0.383491
vt -0.168293 -0.276669
vt -0.200107 -0.041614
vt -0.212741 0.357780
vt -0.235509 -0.281564
vt -0.211773 0.746353
vt -0.117349 0.876819
vt -0.193697 0.880080
vt 1.033327 1.173851
vt 0.926816 1.133883
vt 1.052802 1.130672
vt 1.167113 1.120106
vt 1.074599 1.163991
vt 1.117401 1.113023
vt 1.069513 1.086431
vt 1.180709 1.058366
vt 1.074454 1.042669
vt -0.366424 0.132877
vt -0.309004 0.024822
vt -0.178702 0.149137
vt 1.184933 -0.383491
vt 1.103395 -0.310110
vt -0.350582 0.646456
vt -0.363336 0.279722
vt 1.243630 1.173769
vt 1.270200 1.254768
vt 1.250750 1.217454
vt -0.326261 0.537450
vt -0.383491 0.403887
vt 1.180709 0.974550
vt 1.110176 0.957202
vt 1.271981 0.918265
vt 1.258793 0.796941
vt 1.334995 0.861209
vt -0.349610 0.602909
vt 1.138691 0.952310
vt 1.054804 0.832358
vt 1.066361 0.736544
vt 1.183193 0.863465
vt 1.180709 1.014354
vt 1.271460 1.059352
vt 1.274019 1.093961
vt 1.151585 0.936832
vt 1.176835 0.934282
vt -0.346012 0.788960
vt 1.313650 1.270220
vt 1.299733 1.271546
vt 1.287622 1.268891
vt 1.274019 1.253947
vt 1.334995 0.797771
vt 1.366214 0.851127
vt 1.338987 0.929120
vt 1.034884 1.085650
vt 1.052410 0.986560
vt 1.052410 1.128595
vt 1.179320 1.192704
vt 1.175428 1.149492
vt 1.179320 1.120106
vt 1.383491 0.813493
vt 0.882297 -0.161833
vt 1.337983 1.197631
vt 1.355116 1.154628
vt 1.355116 1.252342
vt 1.235584 0.931476
vt 0.878127 0.992964
vt 0.889316 0.965085
vt 0.794104 0.252840
vt 1.175428 1.219995
vt 1.167113 1.189461
vt 1.175428 1.120106
vt 1.337983 1.249457
vt 1.313650 1.199016
vt 1.337983 1.154628
vt 1.258793 0.736544
vt 0.754745 1.383491
vt 0.648838 1.200073
vt 0.348867 1.245809
vt 0.432586 1.236843
vt 0.394678 1.244689
vt 0.299999 1.223090
vt 0.096419 0.997899
vt 0.062106 0.967050
vt 1.337336 0.934282
vt 1.337336 1.154628
vt 1.274019 1.076382
vt -0.061710 0.890769
vt 0.947673 1.027145
vt 1.180709 1.227643
vt 1.241494 1.139596
vt 1.241494 1.321652
vt 1.334995 0.736544
vt 1.176207 1.120106
vt 1.167113 1.235930
vt 1.294296 -0.382787
vt -0.283298 0.896895
vt 1.209739 1.139596
vt 1.269882 1.128881
vt -0.366711 0.205456
vt 1.052802 1.029488
vt 1.270200 1.144246
vt -0.277839 0.931204
vt 1.083038 0.968288
vt 1.241494 1.139596
vt 1.183193 0.930462
vt 1.052802 0.934282
vt 1.234412 1.013649
vt 1.247225 0.978005
vt 1.274019 0.934282
vt 1.282763 1.293338
vt 1.299672 1.214832
vt 1.313650 1.154628
vt 1.180686 1.220654
vt 1.179320 1.172342
vt 1.180686 1.120106
vt 1.034884 1.158004
vt 1.043025 1.128595
vt 1.043025 1.172344
vt 1.383491 0.736544
vn -0.4040 0.0186 0.9146
vn -0.0279 0.9801 0.1965
vn -0.0790 0.9841 0.1591
vn 0.0304 0.9842 0.1746
vn -0.5104 0.5676 0.6460
vn 0.0253 0.9788 0.2032
vn -0.0506 0.9868 0.1537
vn 0.2381 0.8600 0.4514
vn -0.2551 0.9646 0.0672
vn -0.0372 0.9126 0.4071
vn 0.2805 0.8760 0.3924
vn 0.0761 -0.0028 0.9971
vn 0.0540 -0.0222 0.9983
vn 0.0259 0.8910 -0.4532
vn -0.8343 0.3628 0.4151
vn -0.7102 0.7039 -0.0144
vn -0.7100 0.7040 -0.0139
vn -0.0886 0.9932 -0.0761
vn 0.0996 0.9650 -0.2427
vn -0.3558 0.9274 -0.1151
vn -0.2747 0.9500 -0.1483
vn -0.1364 0.7608 -0.6345
vn 0.0759 0.9691 -0.2345
vn 0.6519 0.6613 0.3710
vn -0.0942 0.9954 0.0161
vn -0.3796 0.9116 0.1580
vn -0.9985 0.0493 0.0228
vn 0.2132 0.9766 -0.0274
vn -0.0686 0.9968 -0.0406
vn -0.2584 0.9600 -0.1079
vn -0.7102 0.7038 -0.0147
vn -0.0425 0.9981 0.0446
vn 0.0318 0.9991 0.0275
vn -0.0205 0.9990 -0.0408
vn 0.0192 0.9998 -0.0040
vn 0.0124 0.9999 -0.0063
vn 0.0123 0.9999 -0.0068
vn -0.2773 0.9593 -0.0525
vn -0.0121 0.9998 0.0161
vn -0.7479 0.6620 0.0495
vn 0.0002 0.9999 -0.0160
vn -0.0017 0.9999 -0.0135
vn -0.0012 0.9999 -0.0124
vn 0.2777 0.9556 0.0989
vn -0.7766 0.6223 0.0981
vn -0.3342 0.9397 -0.0722
vn -0.3261 0.9424 -0.0739
vn -0.3317 0.9406 -0.0727
vn -0.6152 -0.0598 0.7861
vn -0.9924 0.0251 -0.1204
vn 0.1588 0.9873 0.0084
vn -0.9905 0.1355 -0.0228
vn -0.7032 0.7080 0.0655
vn -0.0221 0.9996 -0.0154
vn 0.0169 0.9999 -0.0024
vn 0.0014 1.0000 0.0021
vn -0.0041 0.9999 -0.0123
vn -0.0035 0.9999 -0.0130
vn 0.0208 0.9998 0.0022
vn -0.0872 0.9960 0.0174
vn -0.4971 0.8677 -0.0073
vn -0.9231 0.3847 -0.0026
vn -0.9811 0.1192 0.1524
vn -0.0019 1.0000 0.0039
vn -0.0000 1.0000 -0.0036
vn 0.0027 0.9999 0.0116
vn 0.0194 0.9998 0.0010
vn -0.9994 0.0025 0.0346
vn -0.9994 0.0024 0.0347
vn -0.5301 0.8135 0.2391
vn -0.9510 0.2879 0.1128
vn -0.9253 0.3765 0.0449
vn -0.7279 0.6771 0.1077
vn -0.0163 0.9999 0.0033
vn 0.1101 0.9617 -0.2511
vn 0.3100 0.8633 -0.3984
vn -0.0259 0.9996 -0.0149
vn -0.9994 0.0025 0.0344
vn -0.0022 1.0000 0.0029
vn -0.9764 -0.1460 -0.1589
vn -0.7516 0.6545 -0.0819
vn -0.0142 0.9996 0.0224
vn 0.0381 0.9993 0.0035
vn -0.0299 0.9983 0.0503
vn 0.0181 0.9998 -0.0086
vn -0.1552 0.7833 -0.6020
vn 0.1474 0.9889 -0.0162
vn -0.0066 0.9998 0.0182
vn -0.0038 0.9999 0.0144
vn -0.0036 0.9999 0.0142
vn -0.0221 0.9900 -0.1396
vn -0.9590 -0.0894 0.2691
vn 0.0216 0.9998 0.0028
vn -0.4329 0.7941 -0.4267
vn -0.4575 0.5250 -0.7177
vn -0.9636 0.2048 0.1717
vn -0.2960 0.7499 -0.5916
vn 0.0000 0.9999 0.0163
vn 0.0002 0.9999 0.0164
vn -0.7233 0.6076 -0.3281
vn 0.1622 0.9350 -0.3154
vn -0.0363 0.9993 0.0054
vn -0.0094 0.9992 0.0383
vn 0.2415 0.8216 -0.5164
vn 0.0645 0.9703 -0.2330
vn -0.0982 0.9946 0.0342
vn -0.4676 0.5147 -0.7187
vn -0.7558 0.3507 -0.5530
vn -0.4685 0.5080 -0.7228
vn -0.4681 0.5074 -0.7235
vn -0.4650 0.5024 -0.7290
vn -0.4648 0.5021 -0.7293
vn 0.0233 0.8935 -0.4485
vn -0.9027 0.3947 -0.1712
vn -0.1036 0.8585 -0.5022
vn -0.0748 0.9004 -0.4286
vn -0.2193 0.6125 -0.7595
vn 0.0343 0.9015 -0.4314
vn -0.1112 0.9059 -0.4087
vn -0.3099 0.5424 -0.7809
vn -0.3097 0.5503 -0.7754
vn -0.3099 0.5424 -0.7808
vn 0.0821 0.9236 -0.3745
vn 0.6256 0.7135 -0.3155
vn 0.2265 0.8216 -0.5231
vn -0.3100 0.5404 -0.7823
vn 0.2168 0.6025 -0.7681
vn -0.5878 0.3693 -0.7198
vn -0.0454 0.7214 -0.6910
vn -0.0451 0.8404 -0.5400
vn 0.5525 0.5978 -0.5809
vn -0.2003 0.4674 -0.8611
vn 0.2515 0.5118 -0.8215
vn -0.0367 -0.0528 -0.9979
vn -0.0081 -0.9997 -0.0225
vn 0.3665 0.3441 -0.8645
vn 0.1502 0.8604 0.4870
vn -0.1649 0.7671 0.6200
vn -0.0193 0.9948 0.1003
vn 0.3176 -0.0670 0.9459
vn -0.0724 0.9082 0.4122
vn -0.8442 0.3675 0.3902
vn -0.0603 0.9952 0.0768
vn 0.1493 0.7999 0.5813
vn -0.0890 0.8775 0.4712
vn 0.1330 0.9799 0.1484
vn -0.0472 0.8675 0.4951
vn -0.0904 0.9315 0.3524
vn 0.6920 0.0754 0.7179
vn -0.0139 0.8529 0.5219
vn -0.0127 0.9365 0.3504
vn -0.0616 0.9829 0.1736
vn 0.0394 0.9989 -0.0238
vn 0.0282 0.9994 -0.0209
vn 0.0284 0.9994 -0.0215
vn 0.0280 0.9994 -0.0203
vn -0.7216 0.6794 0.1328
vn -0.0901 0.9953 -0.0351
vn 0.0466 0.9790 0.1984
vn 0.0928 0.9947 0.0439
vn 0.1759 0.9833 0.0462
vn -0.9992 0.0368 0.0174
vn 0.0007 0.9999 -0.0162
vn 0.0280 0.9994 -0.0202
vn 0.0885 0.9950 -0.0469
vn 0.0614 0.9981 0.0005
vn -0.7510 0.6555 -0.0795
vn -0.3235 0.9433 -0.0744
vn -0.3986 0.8441 0.3585
vn -0.0035 0.9992 -0.0399
vn -0.7865 0.6154 0.0519
vn -0.5094 0.8523 0.1188
vn 0.0397 0.9990 0.0203
vn -0.6634 0.7393 0.1155
vn -0.0020 0.9999 -0.0128
vn 0.0813 0.9967 0.0081
vn 0.0437 0.9974 -0.0580
vn 0.1389 0.9902 0.0120
vn -0.8013 0.5792 0.1494
vn -0.0833 0.9962 -0.0240
vn -0.7626 0.5947 0.2545
vn 0.1072 0.9941 -0.0160
vn -0.9934 0.1147 -0.0049
vn 0.2330 0.9706 -0.0601
vn 0.0003 1.0000 -0.0074
vn -0.0896 0.9268 -0.3648
vn 0.0006 0.9993 0.0372
vn -0.0038 0.9999 0.0130
vn -0.0946 0.9915 0.0892
vn 0.0126 0.9999 0.0079
vn 0.0692 0.9974 0.0222
vn -0.9264 0.3676 -0.0818
vn -0.1311 0.9913 0.0156
vn -0.1260 0.7404 -0.6603
vn -0.4404 0.8005 -0.4066
vn -0.0029 0.9999 0.0133
vn -0.1116 0.8341 -0.5402
vn -0.9245 0.3812 -0.0004
vn 0.0086 0.9961 0.0878
vn -0.9974 0.0539 0.0481
vn -0.0656 0.9969 0.0428
vn 0.0478 0.9954 -0.0833
vn -0.3904 0.4934 -0.7773
vn 0.0612 0.5224 -0.8505
vn 0.0215 0.9996 0.0175
vn 0.0275 0.9754 -0.2185
vn 0.0380 0.9978 0.0543
vn -0.4460 0.5224 -0.7267
vn 0.6129 0.6761 -0.4090
vn -0.9040 0.3628 -0.2262
vn -0.3785 0.4769 -0.7933
vn -0.0445 0.9219 -0.3849
vn -0.7130 0.4610 -0.5283
vn 0.0546 0.9017 -0.4289
vn -0.9956 -0.0232 -0.0909
vn -0.9907 0.0149 -0.1351
vn -0.0461 0.8233 -0.5657
vn -0.6785 0.3750 -0.6317
vn -0.7070 0.3071 -0.6371
vn -0.4618 0.6225 -0.6318
vn -0.1408 0.8762 -0.4609
vn -0.5899 0.4910 -0.6410
vn -0.1101 0.6939 -0.7116
vn 0.4576 0.7634 -0.4558
vn -0.2039 0.4420 -0.8735
vn -0.2202 0.7005 -0.6788
vn -0.0541 -0.0518 -0.9972
vn -0.0241 0.8436 -0.5364
vn -0.3412 0.5766 -0.7424
vn -0.6525 0.3518 -0.6712
vn -0.3549 0.3673 -0.8597
vn 0.0618 0.0823 -0.9947
vn -0.0262 0.8964 -0.4425
vn -0.1166 0.7757 -0.6203
vn 0.3770 0.6409 -0.6687
vn 0.3109 0.4542 -0.8349
vn 0.1404 0.6470 -0.7494
vn 0.0459 0.8633 -0.5026
vn -0.1307 -0.7538 -0.6439
vn 0.0140 -0.5613 0.8275
vn -0.1006 0.4761 -0.8736
s 1
f 1/1/1 2/2/1 3/3/1
f 4/4/2 5/5/2 6/6/2
f 7/7/3 8/8/3 9/9/3
f 5/5/4 4/4/4 10/10/4
f 1/1/5 11/11/5 2/2/5
f 8/8/6 6/6/6 5/5/6
f 7/7/7 9/9/7 12/12/7
f 13/13/8 14/14/8 15/15/8
f 9/9/9 16/16/9 12/12/9
f 17/17/10 18/18/10 19/19/10
f 15/15/11 14/14/11 20/20/11
f 21/21/12 22/22/12 23/23/12
f 22/22/13 24/24/13 23/23/13
f 25/25/14 9/9/14 26/26/14
f 11/27/15 27/28/15 28/29/15
f 29/30/16 22/31/16 21/32/17
f 30/33/18 11/34/18 15/15/18
f 5/5/19 31/35/19 32/36/19
f 33/37/20 18/18/20 34/38/20
f 33/37/21 35/39/21 18/18/21
f 32/40/22 26/41/22 5/42/22
f 30/33/23 15/15/23 20/20/23
f 36/43/24 37/44/24 38/45/24
f 39/46/25 25/25/25 26/26/25
f 37/44/26 40/47/26 41/48/26
f 22/31/27 42/49/27 24/50/27
f 36/43/28 40/47/28 37/44/28
f 43/51/29 20/20/29 44/52/29
f 45/53/30 11/34/30 30/33/30
f 22/31/16 29/30/16 46/54/31
f 47/55/32 32/36/32 48/56/32
f 30/33/33 20/20/33 43/51/33
f 39/46/34 26/26/34 47/55/34
f 49/57/35 30/33/36 43/51/37
f 50/58/38 45/53/38 30/33/38
f 51/59/39 33/37/39 52/60/39
f 50/61/40 53/62/40 54/63/40
f 43/51/41 39/46/42 55/64/43
f 56/65/44 34/38/44 57/66/44
f 58/67/45 59/68/45 42/49/45
f 60/69/46 52/60/47 34/38/48
f 59/70/49 58/71/49 61/72/49
f 42/49/50 59/68/50 62/73/50
f 63/74/51 60/69/51 56/65/51
f 59/68/52 64/75/52 62/73/52
f 61/76/53 53/62/53 65/77/53
f 66/78/54 51/59/54 52/60/54
f 67/79/55 49/57/35 43/51/37
f 68/80/56 69/81/56 49/57/56
f 55/64/43 51/59/57 66/78/58
f 68/80/59 49/57/35 67/79/55
f 60/69/60 66/78/60 52/60/60
f 53/82/61 69/81/61 70/83/61
f 71/84/62 65/77/62 70/85/62
f 65/77/63 71/84/63 64/75/63
f 67/79/64 55/64/65 72/86/66
f 68/80/59 67/79/55 73/87/67
f 71/84/68 74/88/68 64/75/69
f 70/83/70 69/81/70 75/89/70
f 76/90/71 70/85/71 77/91/71
f 76/90/72 71/84/72 70/85/72
f 70/85/73 75/92/73 77/91/73
f 78/93/74 75/89/74 69/81/74
f 79/94/75 80/95/75 81/96/75
f 82/97/76 80/95/76 83/98/76
f 79/94/77 66/78/77 80/95/77
f 76/90/78 74/88/68 71/84/68
f 73/87/79 67/79/64 72/86/66
f 76/90/80 84/99/80 74/88/80
f 77/91/81 75/92/81 85/100/81
f 86/101/82 87/102/82 66/78/82
f 78/93/83 68/80/83 88/103/83
f 89/104/84 75/89/84 78/93/84
f 88/103/85 89/104/85 78/93/85
f 90/105/86 85/106/86 89/104/86
f 91/107/87 66/78/87 92/108/87
f 66/78/88 91/107/89 86/101/90
f 93/109/91 89/104/91 88/103/91
f 94/110/92 84/99/92 76/90/92
f 88/103/93 68/80/59 73/87/67
f 95/111/94 90/105/94 93/109/94
f 96/112/95 90/113/95 95/114/95
f 85/100/96 97/115/96 98/116/96
f 99/117/97 90/113/97 96/112/97
f 87/102/98 100/118/99 72/86/66
f 93/119/100 101/120/100 95/121/100
f 97/122/101 85/106/101 102/123/101
f 101/124/102 93/109/102 88/103/102
f 103/125/103 73/87/103 72/86/103
f 104/126/104 97/122/104 102/123/104
f 105/127/105 86/101/105 106/128/105
f 105/127/106 106/128/106 107/129/106
f 95/114/107 108/130/107 109/131/107
f 101/132/108 110/133/108 108/134/108
f 111/135/109 109/136/110 112/137/111
f 112/137/111 109/136/110 113/138/112
f 114/139/113 110/140/113 115/141/113
f 116/142/114 98/116/114 117/143/114
f 118/144/115 87/102/115 105/127/115
f 119/145/116 115/141/116 103/125/116
f 120/146/117 107/147/117 121/148/117
f 122/149/118 103/125/118 100/118/118
f 123/150/119 119/145/119 103/125/119
f 124/151/120 113/138/121 125/152/122
f 123/150/123 103/125/123 122/149/123
f 126/153/124 117/154/124 127/155/124
f 128/156/125 122/149/125 87/102/125
f 124/151/120 125/152/122 129/157/126
f 116/158/127 117/159/127 126/160/127
f 110/161/128 130/162/128 131/163/128
f 124/151/129 132/164/129 133/165/129
f 118/144/130 105/127/130 134/166/130
f 135/167/131 136/168/131 137/169/131
f 137/169/132 138/170/132 135/167/132
f 122/171/133 139/172/133 123/173/133
f 140/174/134 118/175/134 134/176/134
f 141/177/135 142/178/135 114/179/135
f 122/171/136 143/180/136 139/172/136
f 1/181/137 13/13/137 15/15/137
f 5/5/138 10/10/138 31/35/138
f 26/26/139 9/9/139 8/8/139
f 144/182/140 37/183/140 17/184/140
f 1/181/141 15/15/141 11/34/141
f 2/185/142 11/27/142 28/29/142
f 8/8/143 5/5/143 26/26/143
f 10/10/144 35/39/144 31/35/144
f 19/19/145 18/18/145 145/186/145
f 31/35/146 35/39/146 33/37/146
f 146/187/147 145/186/147 18/18/147
f 147/188/148 16/16/148 9/9/148
f 14/189/149 148/190/149 20/191/149
f 146/187/150 18/18/150 35/39/150
f 37/44/151 18/18/151 17/17/151
f 148/192/152 149/193/152 20/194/152
f 41/48/153 18/18/153 37/44/153
f 48/56/154 31/35/155 33/37/156
f 45/195/157 27/28/157 11/27/157
f 48/56/158 32/36/158 31/35/158
f 39/46/159 44/52/159 25/25/159
f 41/48/160 34/38/160 18/18/160
f 36/43/161 150/196/161 40/47/161
f 42/49/162 62/73/162 24/50/162
f 39/46/42 43/51/41 44/52/163
f 33/37/156 51/59/164 48/56/154
f 34/38/165 41/48/165 57/66/165
f 47/55/166 26/26/166 32/36/166
f 42/49/167 22/31/167 46/54/167
f 34/38/48 52/60/47 33/37/168
f 151/197/169 57/66/169 41/48/169
f 47/55/170 48/56/170 51/59/170
f 42/49/171 46/54/171 58/67/171
f 53/82/172 50/58/172 30/33/172
f 53/82/173 30/33/173 49/57/173
f 61/76/174 54/63/174 53/62/174
f 51/59/57 55/64/43 47/55/175
f 55/64/43 39/46/42 47/55/175
f 56/65/176 60/69/176 34/38/176
f 49/57/177 69/81/177 53/82/177
f 60/69/178 63/74/178 152/198/178
f 65/77/179 59/68/179 61/76/179
f 152/198/180 63/74/180 153/199/180
f 70/85/181 65/77/181 53/62/181
f 154/200/182 152/198/182 153/199/182
f 59/68/183 65/77/183 64/75/183
f 155/201/184 60/69/184 152/198/184
f 55/64/65 67/79/64 43/51/185
f 80/95/186 66/78/186 60/69/186
f 78/93/187 69/81/187 68/80/187
f 66/78/188 72/86/66 55/64/65
f 66/78/188 87/102/98 72/86/66
f 82/97/189 81/96/189 80/95/189
f 79/94/190 156/202/190 66/78/190
f 157/203/191 66/78/191 156/202/191
f 85/100/192 76/90/192 77/91/192
f 92/108/193 66/78/193 157/203/193
f 89/204/194 85/205/194 75/206/194
f 93/109/195 90/105/195 89/104/195
f 158/207/196 86/101/90 91/107/89
f 102/123/197 85/106/197 90/105/197
f 76/90/198 85/100/198 98/116/198
f 115/141/199 88/103/199 73/87/199
f 98/116/200 94/110/200 76/90/200
f 115/141/201 101/124/201 88/103/201
f 106/128/202 86/101/202 158/207/202
f 96/112/203 159/208/203 99/117/203
f 104/209/204 127/210/204 97/211/204
f 103/125/205 72/86/205 100/118/205
f 105/127/206 87/102/206 86/101/206
f 115/141/207 73/87/207 103/125/207
f 96/112/208 95/114/208 109/131/208
f 127/155/209 117/154/209 97/212/209
f 97/115/210 117/143/210 98/116/210
f 111/135/211 112/137/211 159/213/211
f 110/140/212 101/124/212 115/141/212
f 109/214/213 108/134/213 110/133/213
f 87/102/214 122/149/214 100/118/214
f 94/110/215 98/116/215 160/215/215
f 98/116/216 116/142/216 160/215/216
f 135/216/217 105/127/217 107/129/217
f 109/217/218 110/161/218 131/163/218
f 109/217/219 131/163/219 161/218/219
f 124/151/220 112/137/220 113/138/220
f 141/219/221 115/141/221 119/145/221
f 125/152/222 113/138/222 161/220/222
f 162/221/223 107/147/223 120/146/223
f 135/216/224 107/129/224 162/222/224
f 161/220/225 163/223/225 125/152/225
f 120/146/226 164/224/226 162/221/226
f 116/158/227 165/225/227 160/226/227
f 134/166/228 105/127/228 135/216/228
f 166/227/229 110/161/229 167/228/229
f 110/161/230 166/227/230 130/162/230
f 124/151/231 129/157/231 132/164/231
f 116/158/232 126/160/232 165/225/232
f 114/139/233 115/141/233 141/219/233
f 167/228/234 110/161/234 114/229/234
f 137/169/235 136/168/235 162/230/235
f 168/231/236 135/167/236 138/170/236
f 168/231/237 134/232/237 135/167/237
f 87/102/238 118/144/238 128/156/238
f 140/233/239 169/234/239 118/235/239
f 170/236/240 128/237/240 118/238/240
f 128/239/241 143/180/241 122/171/241
