# Blender v2.80 (sub 44) OBJ File: ''
# www.blender.org
o casa.001_Plane_Plane.001
v 15.014055 -6.835390 11.929386
v 16.348532 -6.835392 -5.674751
v 16.348532 -5.007027 -5.674751
v 16.348532 -1.244320 -5.674752
v 15.014055 -1.244318 11.929385
v 15.014055 -12.828416 11.929386
v 16.348520 -12.828419 -5.674764
v -9.038086 -6.835392 -11.856404
v -15.306095 -3.852530 -12.013250
v -9.062077 -3.852530 -11.539925
v -14.904130 -7.549079 -12.301077
v -15.282106 -6.835392 -12.329730
v 16.669407 -12.828419 -9.907656
v 16.108852 -7.135044 -9.950149
v 16.669407 -6.835392 -9.907656
v 3.815660 -12.828419 -10.882030
v 16.108852 -12.528768 -9.950149
v -9.411300 -0.440411 -6.933039
v -9.411300 -0.842366 -6.933039
v -10.215122 -0.842364 3.670840
v -15.333054 -5.008518 -7.381935
v -15.655318 -0.842366 -7.406365
v -9.411300 -1.244320 -6.933039
v -9.239731 5.150660 -9.196342
v -9.239731 -0.440412 -9.196342
v 3.614014 -0.440412 -8.221966
v 3.494786 5.150660 -6.649127
v 3.494786 -0.440411 -6.649126
v 3.614014 5.150660 -8.221966
v 16.348532 5.150660 -5.674753
v 16.348532 -0.440411 -5.674752
v 15.014055 -0.440408 11.929385
v 15.014055 5.150661 11.929384
v -16.459143 -0.842364 3.197514
v -16.459143 5.150661 3.197513
v -13.337134 5.150661 3.434176
v 2.160310 5.150661 10.955010
v -10.120664 6.828992 9.328891
v -10.693436 5.150661 9.980637
v 3.614014 -6.835392 -8.221964
v 3.494786 -1.244320 -6.649126
v 3.494786 -6.835392 -6.649126
v -9.411300 -6.835392 -6.933039
v -9.239731 -1.244320 -9.196342
v -9.239731 -6.835392 -9.196341
v 3.614014 -1.244320 -8.221966
v 3.515625 6.828990 -7.691133
v 3.404021 6.828990 -6.218884
v -8.477536 -7.135044 -11.813911
v -8.535293 -12.528767 -11.051997
v -8.477536 -12.528767 -11.813910
v 3.757903 -7.135044 -10.120115
v 3.815660 -7.135044 -10.882030
v -9.038087 -12.828418 -11.856404
v 3.815660 -6.835392 -10.882030
v 3.815660 -12.528768 -10.882030
v 3.757903 -12.528768 -10.120115
v 16.051096 -7.135044 -9.188234
v 16.051096 -12.528768 -9.188233
v -8.535293 -7.135044 -11.051997
v 15.334381 -1.244318 11.976862
v -9.158991 -0.440412 -9.741062
v -9.158991 -1.244320 -9.741062
v 4.112728 -1.244320 -8.769761
v 3.985204 -1.244320 -7.087495
v 3.985204 -0.440411 -7.087495
v 4.112728 -0.440412 -8.769762
v 15.334381 -0.440409 11.976862
v 16.681067 -0.440411 -6.125089
v 16.681067 -1.244320 -6.125089
v -16.937456 -6.835390 9.507314
v -16.937456 -12.828415 9.507313
v 14.430435 6.828992 11.189980
v -8.759928 6.828990 -8.621680
v 15.679568 6.828990 -5.288340
v 2.154887 6.828992 10.259435
v -9.411300 5.150660 -6.933040
v -14.904130 -12.465634 -12.301077
v -15.011196 -10.945826 -10.888686
v -15.353617 -12.465634 -6.371552
v -9.416062 -7.549079 -11.885056
v -9.416062 -12.465634 -11.885056
v -15.282106 -12.828418 -12.329729
v -9.865547 -7.549078 -5.955532
v -9.865547 -12.465634 -5.955531
v -15.353616 -7.549078 -6.371552
v -9.076666 -3.852530 -11.347477
v 3.791669 -3.852530 -10.565551
v 16.630827 -3.852530 -9.398726
v 16.645416 -3.852530 -9.591176
v 3.777081 -3.852530 -10.373104
v -14.998420 -5.008519 -11.796375
v -15.655318 -5.008518 -7.406364
v -15.333054 -6.835392 -7.381936
v -15.389170 -10.945825 -10.917337
v -15.389170 -7.672458 -10.917336
v -16.455946 5.150661 6.141995
v -16.251278 6.937703 3.442056
v -16.251278 5.150661 3.442056
v -13.579490 5.150661 3.644591
v -13.784158 6.937704 6.344527
v -13.784158 5.150661 6.344528
v -13.579490 6.937703 3.644591
v -16.455946 6.937704 6.141994
v -14.000261 6.937703 6.090288
v -16.203983 12.828418 5.923234
v -16.203983 6.937703 5.923235
v -16.035172 12.828418 3.696296
v -16.035172 6.937703 3.696297
v -13.831450 6.937703 3.863349
v -14.000261 12.828418 6.090286
v -13.831450 12.828418 3.863348
v -15.258621 -10.945825 -7.624683
v -15.258621 -7.672458 -7.624683
v -15.636598 -8.006417 -7.653334
v -15.636598 -7.672458 -7.653337
v -15.636598 -10.945825 -7.653336
v 16.630827 -5.007028 -9.398726
v -10.215122 5.150661 3.670839
v -13.815447 5.150661 9.743974
v -16.937456 5.150661 9.507312
v -15.011196 -7.672458 -10.888685
v -15.320683 -3.852530 -11.820804
v -15.320683 -5.008519 -11.820804
v -14.998420 -6.835392 -11.796375
v -16.698299 5.150661 6.352412
vt 0.601807 0.835296
vt 0.601807 0.565373
vt 0.629786 0.565373
vt 0.687366 0.565373
vt 0.687366 0.835296
vt 0.510098 0.835296
vt 0.510098 0.565373
vt 0.842784 0.095739
vt 0.888555 0.000000
vt 0.888555 0.095739
vt 0.831865 0.005796
vt 0.842784 0.000000
vt 0.751092 0.489910
vt 0.838200 0.481315
vt 0.842784 0.489910
vt 0.751092 0.292824
vt 0.755677 0.481315
vt 0.398688 0.759811
vt 0.392537 0.759812
vt 0.392537 0.597224
vt 0.063741 0.920576
vt 0.000000 0.925517
vt 0.006150 0.829778
vt 0.484242 0.794507
vt 0.398688 0.794514
vt 0.704789 0.613252
vt 0.723767 0.526496
vt 0.728888 0.611809
vt 1.000000 0.197085
vt 0.914458 0.000000
vt 1.000000 0.000000
vt 0.945018 0.956918
vt 0.859476 0.759833
vt 0.945018 0.759833
vt 0.945043 0.489910
vt 0.859485 0.489910
vt 0.478067 0.898654
vt 0.386375 0.898654
vt 0.386375 0.850784
vt 0.026399 0.292956
vt 0.000000 0.103795
vt 0.026399 0.095876
vt 0.478067 0.888381
vt 0.502209 0.802915
vt 0.502209 0.888381
vt 0.300832 0.759819
vt 0.386386 0.794515
vt 0.300832 0.794521
vt 0.300832 0.802915
vt 0.386375 1.000000
vt 0.300832 1.000000
vt 0.706330 0.501822
vt 0.728888 0.500470
vt 0.806394 0.866891
vt 0.818089 0.949341
vt 0.806394 0.949341
vt 0.286809 0.871915
vt 0.275114 0.683425
vt 0.286809 0.683425
vt 0.751092 0.095739
vt 0.838200 0.104334
vt 0.755677 0.104334
vt 0.842784 0.292825
vt 0.838200 0.292825
vt 0.755677 0.292824
vt 0.833615 0.866891
vt 0.751092 0.678400
vt 0.833615 0.678400
vt 0.751092 0.489910
vt 0.833615 0.489910
vt 0.298504 0.871915
vt 0.286809 0.683425
vt 0.298504 0.683425
vt 0.286809 0.494934
vt 0.298504 0.494934
vt 0.275114 0.494934
vt 0.286809 0.494934
vt 0.829783 0.949337
vt 0.818089 0.866891
vt 0.829783 0.866892
vt 0.534503 0.165565
vt 0.748420 0.000000
vt 0.751092 0.004170
vt 0.407992 0.162513
vt 0.518864 0.000000
vt 0.525962 0.004539
vt 0.633122 0.337958
vt 0.743994 0.500470
vt 0.621786 0.337709
vt 0.642484 0.322286
vt 0.652473 0.323538
vt 0.699668 0.803791
vt 0.687366 0.777997
vt 0.699668 0.777997
vt 0.738793 0.500471
vt 0.751092 0.703924
vt 0.738793 0.703925
vt 0.111741 0.489994
vt 0.124038 0.494928
vt 0.111767 0.494934
vt 0.687366 0.777997
vt 0.699668 0.500470
vt 0.699668 0.777996
vt 0.525962 0.166253
vt 0.209355 0.000046
vt 0.300832 0.000000
vt 0.309373 0.334906
vt 0.523290 0.500470
vt 0.300832 0.334217
vt 0.417354 0.178184
vt 0.427343 0.176932
vt 0.833615 0.500508
vt 0.888555 0.189107
vt 0.888555 0.000887
vt 0.859476 0.956918
vt 0.833615 0.769585
vt 0.000000 0.480226
vt 0.000000 0.292010
vt 0.510098 0.786327
vt 0.484242 0.759805
vt 0.510098 0.511094
vt 0.585334 0.926213
vt 0.562077 0.904557
vt 0.585334 0.835296
vt 0.831865 0.089944
vt 0.756643 0.005796
vt 0.756643 0.089944
vt 0.751092 0.000000
vt 0.735789 0.919444
vt 0.660567 0.835296
vt 0.735789 0.835296
vt 0.175931 0.829778
vt 0.091692 0.920695
vt 0.091692 0.829778
vt 0.585334 0.926218
vt 0.660567 0.926212
vt 0.175931 0.920695
vt 0.260170 0.829778
vt 0.260170 0.920695
vt 0.959160 0.884081
vt 0.956206 0.788342
vt 0.959160 0.788342
vt 0.959160 0.591256
vt 0.956206 0.394171
vt 0.959160 0.394171
vt 0.956206 0.591256
vt 0.888555 0.292824
vt 0.888555 0.489910
vt 0.728888 0.500470
vt 0.733835 0.568157
vt 0.728888 0.568157
vt 0.779048 0.866891
vt 0.751092 0.934577
vt 0.751092 0.866891
vt 0.183409 0.494941
vt 0.246307 0.516593
vt 0.196218 0.516596
vt 0.779048 0.866893
vt 0.806394 0.908289
vt 0.779048 0.908291
vt 0.727015 0.834742
vt 0.699668 0.793344
vt 0.727015 0.793344
vt 0.298504 0.912882
vt 0.271163 0.871915
vt 0.298504 0.871915
vt 0.478067 0.888395
vt 0.505344 0.929347
vt 0.478067 0.929360
vt 0.922381 0.483990
vt 0.956206 0.394188
vt 0.956206 0.484007
vt 0.733850 0.703302
vt 0.699668 0.793341
vt 0.699668 0.703299
vt 0.699668 0.703299
vt 0.733851 0.613252
vt 0.733851 0.703299
vt 0.922381 0.394171
vt 0.888555 0.484201
vt 0.888555 0.394171
vt 0.510098 0.835296
vt 0.562077 0.854510
vt 0.511986 0.854510
vt 0.265972 0.924749
vt 0.265972 0.929853
vt 0.260170 0.929853
vt 0.508011 0.802915
vt 0.502209 0.852961
vt 0.502209 0.802915
vt 0.265972 0.879825
vt 0.260170 0.829778
vt 0.265972 0.829778
vt 0.246307 0.566639
vt 0.275114 0.494934
vt 0.275114 0.829758
vt 0.738793 0.948501
vt 0.744594 0.898593
vt 0.744594 0.948503
vt 0.738793 0.898590
vt 0.751092 0.703925
vt 0.751092 0.898590
vt 0.155455 0.570432
vt 0.183409 0.829765
vt 0.091705 0.733025
vt 0.629786 0.508274
vt 0.601807 0.500471
vt 0.946123 0.197086
vt 0.974097 0.394171
vt 0.888555 0.394171
vt 0.484242 0.597217
vt 0.063741 0.925518
vt 0.000000 0.829778
vt 0.091692 0.829779
vt 0.091692 0.920576
vt 0.699668 0.527939
vt 0.914458 0.197085
vt 0.386375 0.802915
vt 0.478067 0.802915
vt 0.478067 0.802915
vt 0.386386 0.759812
vt 0.386375 0.802915
vt 0.818089 0.866891
vt 0.275114 0.871915
vt 0.751092 0.866891
vt 0.286809 0.871915
vt 0.818089 0.949336
vt 0.396656 0.162761
vt 0.751092 0.495931
vt 0.398701 0.802914
vt 0.386399 0.802915
vt 0.687366 0.803791
vt 0.751092 0.500470
vt 0.124012 0.489987
vt 0.687366 0.500471
vt 0.026399 0.490037
vt 0.026399 0.048008
vt 0.026399 0.000139
vt 0.209354 0.489944
vt 0.300832 0.489898
vt 0.525962 0.496301
vt 0.833615 0.753169
vt 0.833615 0.957805
vt 0.484242 0.500470
vt 0.510098 0.926213
vt 0.511986 0.904557
vt 0.660567 0.919444
vt 0.175931 0.920695
vt 0.585334 0.835302
vt 0.175931 0.829778
vt 0.956206 0.884081
vt 0.733835 0.500470
vt 0.779048 0.934577
vt 0.196218 0.566643
vt 0.201328 0.566642
vt 0.806394 0.866891
vt 0.699668 0.834742
vt 0.271163 0.912881
vt 0.505344 0.888381
vt 0.922381 0.394171
vt 0.733850 0.793344
vt 0.699668 0.613252
vt 0.922381 0.484201
vt 0.260170 0.879825
vt 0.265972 0.879825
vt 0.508011 0.852961
vt 0.260170 0.879825
vt 0.738793 0.898590
vt 0.738793 0.703925
vt 0.155455 0.502747
vt 0.137766 0.502748
vt 0.137766 0.499797
vt 0.000000 0.829778
vt 0.000000 0.781405
vt 0.000000 0.733032
vt 0.091705 0.570437
vt 0.510098 0.500470
vt 0.647453 0.505323
vt 0.647453 0.508274
vt 0.888555 0.197085
vt 0.974097 0.197086
vn 0.9971 -0.0000 0.0756
vn 0.0752 0.1058 -0.9915
vn 0.0756 -0.0000 -0.9971
vn -0.9971 0.0000 -0.0756
vn -0.0699 0.3817 0.9216
vn 0.7766 -0.6272 0.0589
vn 0.9947 0.0927 0.0453
vn 0.9965 0.0345 0.0755
vn 0.0000 -1.0000 -0.0000
vn 0.0000 1.0000 0.0000
vn 0.0010 -1.0000 -0.0040
vn 0.0730 -0.0000 -0.9973
vn -0.1466 0.0000 0.9892
vn -0.1490 0.0034 0.9888
vn 0.9972 0.0000 0.0742
vn -0.0756 -0.0000 0.9971
vn 0.9321 0.3553 0.0707
vn 0.0720 0.3046 -0.9498
vn 0.7933 0.1911 -0.5780
vn 0.0732 0.2514 -0.9651
vn -0.9522 0.2969 -0.0722
vn 0.6592 -0.1757 -0.7311
vn 0.7585 0.0000 -0.6516
vn 0.9991 0.0409 0.0103
vn -0.1061 -0.6901 0.7159
vn -0.9892 0.0000 -0.1466
vn -0.1506 -0.0008 0.9886
vn 0.0789 0.3139 -0.9462
vn 0.6843 -0.0000 -0.7292
s off
f 1/1/1 2/2/1 3/3/1
f 4/4/1 5/5/1 3/3/1
f 5/5/1 1/1/1 3/3/1
f 1/1/1 6/6/1 2/2/1
f 6/6/1 7/7/1 2/2/1
f 8/8/2 9/9/2 10/10/2
f 8/8/3 11/11/3 12/12/3
f 13/13/3 14/14/3 15/15/3
f 16/16/3 17/17/3 13/13/3
f 18/18/4 19/19/4 20/20/4
f 21/21/3 22/22/3 23/23/3
f 18/18/4 24/24/4 25/25/4
f 26/26/1 27/27/1 28/28/1
f 25/29/3 29/30/3 26/31/3
f 28/32/3 30/33/3 31/34/3
f 32/35/1 30/33/1 33/36/1
f 34/37/3 35/38/3 36/39/3
f 37/40/5 38/41/5 39/42/5
f 40/43/1 41/44/6 42/45/1
f 43/46/4 44/47/4 45/48/4
f 45/49/3 46/50/3 40/51/3
f 27/27/7 47/52/8 48/53/8
f 49/54/1 50/55/1 51/56/1
f 14/57/9 52/58/9 53/59/9
f 54/60/3 49/61/3 51/62/3
f 55/63/3 49/61/3 8/8/3
f 55/63/3 14/14/3 53/64/3
f 16/16/3 51/62/3 56/65/3
f 50/66/3 52/67/3 57/68/3
f 57/68/3 58/69/3 59/70/3
f 51/71/10 57/72/10 56/73/10
f 56/73/10 59/74/10 17/75/10
f 53/59/9 60/76/9 49/77/9
f 17/78/4 58/79/4 14/80/4
f 4/81/9 61/82/11 5/83/9
f 26/84/10 62/85/10 25/86/10
f 46/87/9 63/88/9 64/89/9
f 46/87/9 65/90/9 41/91/9
f 44/47/4 19/19/4 25/25/4
f 66/92/1 64/93/1 67/94/1
f 63/95/12 67/96/12 64/97/12
f 32/98/13 61/99/14 68/100/13
f 61/101/15 69/102/15 68/103/15
f 4/81/9 65/90/9 70/104/9
f 71/105/16 72/106/16 37/40/16
f 31/107/10 68/108/10 69/109/10
f 66/110/10 26/84/10 28/111/10
f 30/33/17 73/112/17 33/36/17
f 29/30/18 74/113/18 47/114/18
f 27/115/19 75/116/20 30/33/20
f 37/40/5 73/117/5 76/118/5
f 74/119/21 77/120/21 38/121/21
f 78/122/1 79/123/1 80/124/1
f 54/60/3 81/125/3 8/8/3
f 54/60/3 78/126/3 82/127/3
f 83/128/3 11/11/3 78/126/3
f 80/129/3 84/130/3 85/131/3
f 78/132/10 85/133/10 82/134/10
f 82/135/4 84/130/4 81/136/4
f 81/137/9 86/138/9 11/139/9
f 9/140/10 87/141/10 10/142/10
f 88/143/10 89/144/10 90/145/10
f 10/142/10 91/146/10 88/143/10
f 8/8/2 88/147/2 55/63/2
f 55/63/2 90/148/2 15/15/2
f 92/149/10 93/150/10 21/151/10
f 94/152/1 92/153/1 21/154/1
f 12/155/4 95/156/4 96/157/4
f 97/158/4 98/159/4 99/160/4
f 100/161/1 101/162/1 102/163/1
f 99/164/3 103/165/3 100/166/3
f 102/167/16 104/168/16 97/169/16
f 105/170/16 106/171/16 107/172/16
f 107/173/4 108/174/4 109/175/4
f 110/176/1 111/177/1 105/178/1
f 109/179/3 112/180/3 110/181/3
f 86/182/1 113/183/1 114/184/1
f 115/185/3 116/186/3 114/187/3
f 95/188/10 113/189/10 79/190/10
f 96/191/9 114/192/9 116/193/9
f 117/194/4 83/195/4 72/196/4
f 79/197/16 96/198/16 95/199/16
f 66/110/10 31/107/10 69/109/10
f 66/200/3 70/201/3 65/202/3
f 93/203/4 71/204/4 34/205/4
f 118/206/1 2/2/1 15/207/1
f 3/208/3 42/209/3 41/210/22
f 8/8/2 12/12/2 9/9/2
f 8/8/3 81/125/3 11/11/3
f 13/13/3 17/17/3 14/14/3
f 16/16/3 56/65/3 17/17/3
f 20/20/4 119/211/4 18/18/4
f 119/211/4 77/120/4 18/18/4
f 21/21/3 93/212/3 22/22/3
f 22/22/3 19/213/3 23/23/3
f 23/23/3 43/214/3 21/21/3
f 43/214/3 94/215/3 21/21/3
f 18/18/4 77/120/4 24/24/4
f 26/26/1 29/216/1 27/27/1
f 25/29/3 24/217/3 29/30/3
f 28/32/3 27/115/3 30/33/3
f 32/35/1 31/34/1 30/33/1
f 119/218/3 20/219/3 36/39/3
f 20/219/3 34/37/3 36/39/3
f 37/40/5 76/118/5 38/41/5
f 40/43/1 46/220/1 41/44/23
f 43/46/4 23/221/4 44/47/4
f 45/49/3 44/222/3 46/50/3
f 27/27/24 29/216/8 47/52/8
f 49/54/1 60/223/1 50/55/1
f 14/57/9 58/224/9 52/58/9
f 54/60/3 8/8/3 49/61/3
f 55/63/3 53/64/3 49/61/3
f 55/63/3 15/15/3 14/14/3
f 16/16/3 54/60/3 51/62/3
f 50/66/3 60/225/3 52/67/3
f 57/68/3 52/67/3 58/69/3
f 51/71/10 50/226/10 57/72/10
f 56/73/10 57/72/10 59/74/10
f 53/59/9 52/58/9 60/76/9
f 17/78/4 59/227/4 58/79/4
f 4/81/9 70/104/9 61/82/25
f 26/84/10 67/228/10 62/85/10
f 46/87/9 44/229/9 63/88/9
f 46/87/9 64/89/9 65/90/9
f 25/25/26 62/230/26 63/231/26
f 63/231/26 44/47/26 25/25/26
f 44/47/4 23/221/4 19/19/4
f 19/19/4 18/18/4 25/25/4
f 66/92/1 65/232/1 64/93/1
f 63/95/12 62/233/12 67/96/12
f 32/98/13 5/234/13 61/99/27
f 61/101/15 70/235/15 69/102/15
f 4/81/9 41/91/9 65/90/9
f 32/98/16 33/236/16 37/40/16
f 39/42/16 120/237/16 71/105/16
f 120/237/16 121/238/16 71/105/16
f 32/98/16 37/40/16 5/234/16
f 37/40/16 39/42/16 71/105/16
f 5/234/16 37/40/16 1/239/16
f 6/240/16 1/239/16 37/40/16
f 6/240/16 37/40/16 72/106/16
f 31/107/10 32/241/10 68/108/10
f 66/110/10 67/228/10 26/84/10
f 30/33/17 75/242/17 73/112/17
f 29/30/18 24/217/18 74/113/18
f 27/115/28 48/243/20 75/116/20
f 37/40/5 33/236/5 73/117/5
f 24/24/21 77/120/21 74/119/21
f 77/120/21 39/244/21 38/121/21
f 78/122/1 11/245/1 79/123/1
f 11/245/1 122/246/1 79/123/1
f 79/123/1 113/183/1 80/124/1
f 54/60/3 82/127/3 81/125/3
f 54/60/3 83/128/3 78/126/3
f 83/128/3 12/12/3 11/11/3
f 80/129/3 86/247/3 84/130/3
f 78/132/10 80/248/10 85/133/10
f 82/135/4 85/249/4 84/130/4
f 81/137/9 84/250/9 86/138/9
f 9/140/10 123/251/10 87/141/10
f 88/143/10 91/146/10 89/144/10
f 10/142/10 87/141/10 91/146/10
f 8/8/2 10/10/2 88/147/2
f 55/63/2 88/147/2 90/148/2
f 92/149/10 124/252/10 93/150/10
f 94/152/1 125/253/1 92/153/1
f 116/254/4 115/255/4 71/204/4
f 12/155/4 83/195/4 95/156/4
f 96/157/4 116/254/4 12/155/4
f 116/254/4 71/204/4 12/155/4
f 97/158/4 104/256/4 98/159/4
f 100/161/1 103/257/1 101/162/1
f 99/164/3 98/258/3 103/165/3
f 102/167/16 101/259/16 104/168/16
f 105/170/16 111/260/16 106/171/16
f 107/173/4 106/261/4 108/174/4
f 110/176/1 112/262/1 111/177/1
f 109/179/3 108/263/3 112/180/3
f 86/182/1 80/124/1 113/183/1
f 114/184/1 122/246/1 86/182/1
f 122/246/1 11/245/1 86/182/1
f 114/187/3 113/264/3 115/185/3
f 113/264/3 117/265/3 115/185/3
f 95/188/10 117/266/10 113/189/10
f 96/191/9 122/267/9 114/192/9
f 72/196/4 71/204/4 117/194/4
f 71/204/4 115/255/4 117/194/4
f 117/194/4 95/156/4 83/195/4
f 79/197/16 122/268/16 96/198/16
f 66/110/10 28/111/10 31/107/10
f 66/200/3 69/269/3 70/201/3
f 124/270/4 123/271/4 9/272/4
f 71/204/4 121/273/4 34/205/4
f 121/273/4 126/274/4 34/205/4
f 126/274/4 35/275/4 34/205/4
f 34/205/4 22/276/4 93/203/4
f 124/270/4 9/272/4 12/155/4
f 93/203/4 124/270/4 12/155/4
f 93/203/4 12/155/4 71/204/4
f 118/206/1 3/3/1 2/2/1
f 2/2/1 7/7/1 13/277/1
f 13/277/1 15/207/1 2/2/1
f 15/207/1 90/278/1 118/206/1
f 90/278/1 89/279/1 118/206/1
f 41/210/29 4/280/3 3/208/3
f 3/208/3 2/281/3 42/209/3
