# Blender v2.80 (sub 44) OBJ File: '2.blend'
# www.blender.org
o casa.001_Plane_Plane.001
v 15.014055 -6.835392 11.929386
v 16.348532 -6.835392 -5.674751
v 16.348532 -5.007027 -5.674751
v 16.348532 -1.244320 -5.674752
v 15.014055 -1.244318 11.929385
v 15.014055 -12.828418 11.929384
v 16.348520 -12.828419 -5.674766
v -9.038086 -6.835392 -11.856404
v -15.306095 -3.852530 -12.013250
v -9.062077 -3.852530 -11.539925
v -14.904130 -7.549078 -12.301077
v -15.282106 -6.835392 -12.329730
v 16.669407 -12.828419 -9.907658
v 16.108852 -7.135044 -9.950149
v 16.669407 -6.835392 -9.907656
v 3.815660 -12.828419 -10.882030
v 16.108852 -12.528768 -9.950150
v -9.411300 -0.440411 -6.933039
v -9.411300 -0.842366 -6.933039
v -10.215122 -0.842364 3.670840
v -15.333054 -5.008518 -7.381935
v -15.655318 -0.842366 -7.406365
v -9.411300 -1.244320 -6.933039
v -9.239731 5.150661 -9.196342
v -9.239731 -0.440412 -9.196342
v 3.614014 -0.440412 -8.221966
v 3.494786 5.150661 -6.649127
v 3.494786 -0.440411 -6.649126
v 3.614014 5.150661 -8.221966
v 16.348532 5.150661 -5.674753
v 16.348532 -0.440411 -5.674752
v 15.014055 -0.440408 11.929385
v 15.014055 5.150661 11.929384
v -16.459143 -0.842364 3.197514
v -16.459143 5.150661 3.197513
v -13.337134 5.150661 3.434176
v 2.160310 5.150661 10.955010
v -10.120664 6.828990 9.328891
v -10.693436 5.150661 9.980637
v 3.614014 -6.835392 -8.221964
v 3.494786 -1.244320 -6.649126
v 3.494786 -6.835392 -6.649127
v -9.411300 -6.835392 -6.933041
v -9.239731 -1.244320 -9.196342
v -9.239731 -6.835392 -9.196341
v 3.614014 -1.244320 -8.221966
v 3.515625 6.828990 -7.691133
v 3.404021 6.828990 -6.218884
v -8.477536 -7.135044 -11.813911
v -8.535293 -12.528765 -11.051999
v -8.477536 -12.528765 -11.813910
v 3.757903 -7.135044 -10.120115
v 3.815660 -7.135044 -10.882030
v -9.038087 -12.828416 -11.856406
v 3.815660 -6.835392 -10.882030
v 3.815660 -12.528768 -10.882030
v 3.757903 -12.528768 -10.120117
v 16.051096 -7.135044 -9.188234
v 16.051096 -12.528768 -9.188235
v -8.535293 -7.135044 -11.051997
v 15.334381 -1.244318 11.976862
v -9.158991 -0.440412 -9.741062
v -9.158991 -1.244320 -9.741062
v 4.112728 -1.244320 -8.769761
v 3.985204 -1.244320 -7.087495
v 3.985204 -0.440411 -7.087495
v 4.112728 -0.440412 -8.769762
v 15.334381 -0.440411 11.976862
v 16.681067 -0.440411 -6.125089
v 16.681067 -1.244320 -6.125089
v -16.937456 -6.835392 9.507314
v -16.937456 -12.828415 9.507311
v 14.430435 6.828990 11.189980
v -8.759928 6.828990 -8.621680
v 15.679568 6.828990 -5.288340
v 2.154887 6.828990 10.259435
v -9.411300 5.150661 -6.933040
v -14.904130 -12.465632 -12.301079
v -15.011196 -10.945826 -10.888688
v -15.353617 -12.465634 -6.371552
v -9.416062 -7.549078 -11.885056
v -9.416062 -12.465632 -11.885056
v -15.282106 -12.828416 -12.329731
v -9.865547 -7.549078 -5.955534
v -9.865547 -12.465634 -5.955533
v -15.353616 -7.549078 -6.371552
v -9.076666 -3.852530 -11.347477
v 3.791669 -3.852530 -10.565551
v 16.630827 -3.852530 -9.398726
v 16.645416 -3.852530 -9.591176
v 3.777081 -3.852530 -10.373104
v -14.998420 -5.008519 -11.796375
v -15.655318 -5.008518 -7.406364
v -15.333054 -6.835392 -7.381938
v -15.389170 -10.945823 -10.917339
v -15.389170 -7.672458 -10.917336
v -16.455946 5.150661 6.141995
v -16.251278 6.937703 3.442056
v -16.251278 5.150661 3.442056
v -13.579490 5.150661 3.644591
v -13.784158 6.937704 6.344527
v -13.784158 5.150661 6.344528
v -13.579490 6.937703 3.644591
v -16.455946 6.937704 6.141994
v -14.000261 6.937703 6.090290
v -16.203983 12.828418 5.923234
v -16.203983 6.937703 5.923235
v -16.035172 12.828418 3.696296
v -16.035172 6.937703 3.696297
v -13.831450 6.937703 3.863349
v -14.000261 12.828418 6.090286
v -13.831450 12.828418 3.863348
v -15.258621 -10.945825 -7.624683
v -15.258621 -7.672458 -7.624683
v -15.636598 -8.006417 -7.653336
v -15.636598 -7.672458 -7.653337
v -15.636598 -10.945825 -7.653337
v 16.630827 -5.007028 -9.398726
v -10.215122 5.150661 3.670839
v -13.815447 5.150661 9.743974
v -16.937456 5.150661 9.507312
v -15.011196 -7.672458 -10.888685
v -15.320683 -3.852530 -11.820804
v -15.320683 -5.008519 -11.820804
v -14.998420 -6.835392 -11.796375
v -16.698299 5.150661 6.352412
vt 0.651889 0.452341
vt 0.363933 0.452341
vt 0.363933 0.422520
vt 0.363933 0.361148
vt 0.651889 0.361148
vt 0.651889 0.550091
vt 0.363932 0.550090
vt 0.932661 0.463283
vt 0.981588 0.361148
vt 0.981588 0.463283
vt 0.750603 0.463283
vt 0.738962 0.367330
vt 0.750602 0.361148
vt 0.652854 0.883791
vt 0.745715 0.874620
vt 0.750602 0.883789
vt 0.652853 0.673539
vt 0.657741 0.874621
vt 0.046485 0.633674
vt 0.046485 0.627118
vt 0.219936 0.627118
vt 0.392122 0.711163
vt 0.386850 0.643211
vt 0.488986 0.649767
vt 0.009464 0.724867
vt 0.009463 0.633674
vt 0.751566 0.571401
vt 0.842760 0.597128
vt 0.751566 0.597128
vt 0.751566 0.361148
vt 0.842760 0.571401
vt 0.842760 0.807381
vt 0.751566 0.807381
vt 0.681862 0.000482
vt 0.590669 0.288438
vt 0.590669 0.000482
vt 0.489949 0.740960
vt 0.489949 0.643211
vt 0.541017 0.643211
vt 0.250517 0.739621
vt 0.220900 0.537880
vt 0.250517 0.529368
vt 0.590669 0.289402
vt 0.681862 0.315129
vt 0.590669 0.315129
vt 0.046485 0.529368
vt 0.009463 0.620561
vt 0.009463 0.529368
vt 0.386850 0.642247
vt 0.597103 0.551054
vt 0.597103 0.642247
vt 0.787854 0.337040
vt 0.764544 0.314791
vt 0.787854 0.308741
vt 0.815653 0.300618
vt 0.803190 0.212644
vt 0.815653 0.212644
vt 0.982552 0.361148
vt 0.995014 0.562229
vt 0.982551 0.562229
vt 0.652854 0.463284
vt 0.745715 0.472452
vt 0.657741 0.472453
vt 0.750603 0.673541
vt 0.745715 0.673541
vt 0.657741 0.673539
vt 0.931698 0.763315
vt 0.843723 0.562232
vt 0.931698 0.562231
vt 0.843723 0.361148
vt 0.931698 0.361148
vt 0.627771 0.551054
vt 0.640234 0.752133
vt 0.627771 0.752133
vt 0.640234 0.953218
vt 0.627770 0.953218
vt 0.995014 0.763314
vt 0.982551 0.763314
vt 0.829079 0.300618
vt 0.816617 0.212644
vt 0.829079 0.212644
vt 0.892289 0.008414
vt 0.897282 0.294198
vt 0.892059 0.293820
vt 0.281729 0.536829
vt 0.291233 0.746417
vt 0.282277 0.747082
vt 0.641197 0.761310
vt 0.650702 0.551719
vt 0.650702 0.768770
vt 0.339360 0.771794
vt 0.346796 0.789788
vt 0.339360 0.797522
vt 0.725569 0.321863
vt 0.712457 0.294345
vt 0.725569 0.294345
vt 0.846512 0.000482
vt 0.859624 0.217530
vt 0.846512 0.217530
vt 0.091675 0.523123
vt 0.104787 0.528405
vt 0.091675 0.528405
vt 0.832436 0.296547
vt 0.845549 0.000482
vt 0.845549 0.296547
vt 0.883361 0.210730
vt 0.891096 0.007917
vt 0.891096 0.215583
vt 0.195981 0.000482
vt 0.293730 0.000482
vt 0.000482 0.312870
vt 0.898479 0.286394
vt 0.903470 0.000482
vt 0.903470 0.294062
vt 0.355195 0.770005
vt 0.347759 0.787998
vt 0.347759 0.762270
vt 0.280765 0.817325
vt 0.251481 0.540674
vt 0.280765 0.529368
vt 0.626807 0.551054
vt 0.598067 0.752795
vt 0.598067 0.552000
vt 0.831473 0.210734
vt 0.803190 0.010885
vt 0.831473 0.000482
vt 0.220900 0.939470
vt 0.220900 0.738675
vt 0.711493 0.305411
vt 0.682826 0.277145
vt 0.711493 0.011788
vt 0.097473 0.725830
vt 0.074370 0.750619
vt 0.000482 0.725831
vt 0.738962 0.457100
vt 0.658770 0.367331
vt 0.658771 0.457101
vt 0.652853 0.361149
vt 0.188207 0.725830
vt 0.098437 0.806022
vt 0.098437 0.725830
vt 0.712457 0.097473
vt 0.802227 0.000482
vt 0.802227 0.097473
vt 0.712457 0.293382
vt 0.792648 0.196391
vt 0.792648 0.293382
vt 0.802227 0.098436
vt 0.712457 0.195427
vt 0.712457 0.098436
vt 0.999518 0.852983
vt 0.995978 0.744444
vt 0.999323 0.744438
vt 0.999421 0.552793
vt 0.996173 0.361154
vt 0.999518 0.361148
vt 0.996076 0.552799
vt 0.981588 0.673536
vt 0.932661 0.673536
vt 0.981588 0.883789
vt 0.932661 0.883789
vt 0.798883 0.268599
vt 0.793612 0.196391
vt 0.798883 0.196391
vt 0.218967 0.725830
vt 0.189170 0.798039
vt 0.189170 0.725830
vt 0.496399 0.000482
vt 0.559986 0.023314
vt 0.509324 0.022783
vt 0.687713 0.352905
vt 0.731877 0.323758
vt 0.731877 0.352905
vt 0.732840 0.308741
vt 0.761988 0.352905
vt 0.732840 0.352905
vt 0.558295 0.741924
vt 0.587443 0.785627
vt 0.558295 0.785627
vt 0.294694 0.791418
vt 0.338397 0.762270
vt 0.338397 0.791418
vt 0.424240 0.741924
vt 0.520321 0.777971
vt 0.424240 0.777971
vt 0.686750 0.360184
vt 0.590669 0.323758
vt 0.686750 0.323758
vt 0.386850 0.838004
vt 0.423277 0.741924
vt 0.423277 0.838004
vt 0.557332 0.741924
vt 0.521285 0.838004
vt 0.521285 0.741924
vt 0.000482 0.806021
vt 0.020979 0.750619
vt 0.020979 0.804009
vt 0.638612 0.316093
vt 0.644059 0.316093
vt 0.644059 0.322275
vt 0.588406 0.795314
vt 0.594589 0.741924
vt 0.594589 0.795314
vt 0.799794 0.322953
vt 0.793612 0.269562
vt 0.799794 0.269563
vt 0.559210 0.074920
vt 0.589706 0.001451
vt 0.589706 0.359454
vt 0.287911 0.748045
vt 0.281729 0.801435
vt 0.281729 0.748045
vt 0.882398 0.208149
vt 0.874663 0.005335
vt 0.882398 0.000482
vt 0.873700 0.000482
vt 0.860588 0.208149
vt 0.860588 0.000482
vt 0.465302 0.081177
vt 0.491564 0.360184
vt 0.394526 0.254926
vt 0.303018 0.422519
vt 0.294694 0.452341
vt 0.324515 0.761307
vt 0.294694 0.551054
vt 0.385887 0.551054
vt 0.932661 0.361148
vt 0.219936 0.724867
vt 0.046485 0.724867
vt 0.386850 0.711163
vt 0.488986 0.643211
vt 0.488986 0.740960
vt 0.392122 0.740960
vt 0.842760 0.361148
vt 0.681862 0.288438
vt 0.592085 0.643211
vt 0.592085 0.740960
vt 0.681862 0.289402
vt 0.046485 0.620562
vt 0.386850 0.551054
vt 0.762951 0.343503
vt 0.803190 0.300618
vt 0.995014 0.361148
vt 0.843723 0.763315
vt 0.640234 0.551054
vt 0.816617 0.300618
vt 0.897282 0.000482
vt 0.291234 0.529368
vt 0.641745 0.551054
vt 0.346796 0.762270
vt 0.000482 0.633674
vt 0.000482 0.620562
vt 0.712457 0.321863
vt 0.859624 0.000482
vt 0.104787 0.523123
vt 0.832436 0.000482
vt 0.883362 0.000482
vt 0.000482 0.523123
vt 0.000482 0.102617
vt 0.000482 0.051549
vt 0.000482 0.000482
vt 0.195981 0.523123
vt 0.293730 0.523123
vt 0.898245 0.000860
vt 0.355195 0.797522
vt 0.251481 0.810215
vt 0.626807 0.761307
vt 0.803190 0.211680
vt 0.250517 0.949874
vt 0.682826 0.314166
vt 0.682826 0.000482
vt 0.097473 0.806023
vt 0.074370 0.804010
vt 0.188207 0.806022
vt 0.712457 0.000482
vt 0.712457 0.196391
vt 0.802227 0.195427
vt 0.996173 0.852988
vt 0.793612 0.268599
vt 0.218967 0.798039
vt 0.508961 0.074347
vt 0.515188 0.074539
vt 0.687713 0.323758
vt 0.761988 0.308741
vt 0.587443 0.741924
vt 0.294694 0.762270
vt 0.520321 0.741924
vt 0.590669 0.360184
vt 0.386850 0.741924
vt 0.557332 0.838004
vt 0.590669 0.322275
vt 0.590669 0.316093
vt 0.588406 0.741924
vt 0.793612 0.322953
vt 0.287911 0.801435
vt 0.874664 0.215584
vt 0.873700 0.208149
vt 0.466280 0.008462
vt 0.447292 0.008206
vt 0.447335 0.005036
vt 0.294694 0.357538
vt 0.295392 0.305570
vt 0.296090 0.253603
vt 0.396873 0.080257
vt 0.294694 0.550090
vt 0.299870 0.403689
vt 0.303018 0.403689
vt 0.385887 0.761307
vt 0.294694 0.761307
vn 0.9971 -0.0000 0.0756
vn 0.0752 0.1058 -0.9915
vn 0.0756 -0.0000 -0.9971
vn -0.9971 0.0000 -0.0756
vn 0.9866 -0.1481 0.0686
vn -0.0699 0.3817 0.9216
vn 0.8907 -0.4523 0.0467
vn 0.9856 0.1686 0.0124
vn 0.9965 0.0345 0.0755
vn 0.0000 -1.0000 -0.0000
vn 0.0000 1.0000 0.0000
vn -0.1346 -0.9906 -0.0226
vn 0.0914 -0.8916 -0.4434
vn 0.0730 -0.0000 -0.9973
vn -0.1466 0.0000 0.9892
vn -0.1459 0.1365 0.9798
vn 0.9980 0.0087 -0.0623
vn 0.9972 0.0000 0.0742
vn -0.0756 -0.0000 0.9971
vn 0.9321 0.3553 0.0707
vn 0.0720 0.3046 -0.9498
vn 0.2187 0.2657 -0.9389
vn 0.0732 0.2514 -0.9651
vn -0.9522 0.2969 -0.0722
vn 0.4639 -0.2164 -0.8590
vn 0.9912 -0.1321 0.0078
vn 0.2184 -0.0347 -0.9752
vn 0.9052 -0.3993 -0.1454
vn 0.9958 0.0567 -0.0714
vn 0.0079 -0.9906 -0.1363
vn -0.9892 0.0000 -0.1466
vn -0.1976 0.1258 0.9722
vn 0.9980 0.0001 -0.0626
vn 0.3749 -0.8916 -0.2539
vn 0.0971 0.3895 -0.9159
vn 0.5183 -0.0214 -0.8549
s off
f 1/1/1 2/2/1 3/3/1
f 4/4/1 5/5/1 3/3/1
f 5/5/1 1/1/1 3/3/1
f 1/1/1 6/6/1 2/2/1
f 6/6/1 7/7/1 2/2/1
f 8/8/2 9/9/2 10/10/2
f 8/11/3 11/12/3 12/13/3
f 13/14/3 14/15/3 15/16/3
f 16/17/3 17/18/3 13/14/3
f 18/19/4 19/20/4 20/21/4
f 21/22/3 22/23/3 23/24/3
f 18/19/4 24/25/4 25/26/4
f 26/27/1 27/28/5 28/29/1
f 25/30/3 29/31/3 26/27/3
f 28/29/3 30/32/3 31/33/3
f 32/34/1 30/35/1 33/36/1
f 34/37/3 35/38/3 36/39/3
f 37/40/6 38/41/6 39/42/6
f 40/43/1 41/44/7 42/45/1
f 43/46/4 44/47/4 45/48/4
f 45/49/3 46/50/3 40/51/3
f 27/52/8 47/53/9 48/54/9
f 49/55/1 50/56/1 51/57/1
f 14/58/10 52/59/10 53/60/10
f 54/61/3 49/62/3 51/63/3
f 55/64/3 49/62/3 8/11/3
f 55/64/3 14/15/3 53/65/3
f 16/17/3 51/63/3 56/66/3
f 50/67/3 52/68/3 57/69/3
f 57/69/3 58/70/3 59/71/3
f 51/72/11 57/73/11 56/74/11
f 56/74/11 59/75/11 17/76/11
f 53/60/10 60/77/10 49/78/10
f 17/79/4 58/80/4 14/81/4
f 4/82/10 61/83/12 5/84/10
f 26/85/11 62/86/11 25/87/11
f 46/88/10 63/89/10 64/90/10
f 46/91/10 65/92/10 41/93/13
f 44/47/4 19/20/4 25/26/4
f 66/94/1 64/95/1 67/96/1
f 63/97/14 67/98/14 64/99/14
f 32/100/15 61/101/16 68/102/15
f 61/103/17 69/104/18 68/105/18
f 4/106/10 65/107/10 70/108/10
f 71/109/19 72/110/19 37/111/19
f 31/112/11 68/113/11 69/114/11
f 66/115/11 26/116/11 28/117/11
f 30/118/20 73/119/20 33/120/20
f 29/121/21 74/122/21 47/123/21
f 27/124/22 75/125/23 30/126/23
f 37/40/6 73/127/6 76/128/6
f 74/129/24 77/130/24 38/131/24
f 78/132/1 79/133/1 80/134/1
f 54/61/3 81/135/3 8/11/3
f 54/61/3 78/136/3 82/137/3
f 83/138/3 11/12/3 78/136/3
f 80/139/3 84/140/3 85/141/3
f 78/142/11 85/143/11 82/144/11
f 82/145/4 84/146/4 81/147/4
f 81/148/10 86/149/10 11/150/10
f 9/151/11 87/152/11 10/153/11
f 88/154/11 89/155/11 90/156/11
f 10/153/11 91/157/11 88/154/11
f 8/8/2 88/158/2 55/159/2
f 55/159/2 90/160/2 15/161/2
f 92/162/11 93/163/11 21/164/11
f 94/165/1 92/166/1 21/167/1
f 12/168/4 95/169/4 96/170/4
f 97/171/4 98/172/4 99/173/4
f 100/174/1 101/175/1 102/176/1
f 99/177/3 103/178/3 100/179/3
f 102/180/19 104/181/19 97/182/19
f 105/183/19 106/184/19 107/185/19
f 107/186/4 108/187/4 109/188/4
f 110/189/1 111/190/1 105/191/1
f 109/192/3 112/193/3 110/194/3
f 86/195/1 113/196/1 114/197/1
f 115/198/3 116/199/3 114/200/3
f 95/201/11 113/202/11 79/203/11
f 96/204/10 114/205/10 116/206/10
f 117/207/4 83/208/4 72/209/4
f 79/210/19 96/211/19 95/212/19
f 66/213/11 31/214/11 69/215/11
f 66/216/3 70/217/3 65/218/3
f 93/219/4 71/220/4 34/221/4
f 118/222/1 2/2/1 15/223/1
f 3/224/3 42/225/3 41/226/25
f 8/8/2 12/227/2 9/9/2
f 8/11/3 81/135/3 11/12/3
f 13/14/3 17/18/3 14/15/3
f 16/17/3 56/66/3 17/18/3
f 20/21/4 119/228/4 18/19/4
f 119/228/4 77/229/4 18/19/4
f 21/22/3 93/230/3 22/23/3
f 22/23/3 19/231/3 23/24/3
f 23/24/3 43/232/3 21/22/3
f 43/232/3 94/233/3 21/22/3
f 18/19/4 77/229/4 24/25/4
f 26/27/1 29/31/1 27/28/26
f 25/30/3 24/234/3 29/31/3
f 28/29/3 27/28/27 30/32/3
f 32/34/1 31/235/1 30/35/1
f 119/236/3 20/237/3 36/39/3
f 20/237/3 34/37/3 36/39/3
f 37/40/6 76/128/6 38/41/6
f 40/43/1 46/238/1 41/44/28
f 43/46/4 23/239/4 44/47/4
f 45/49/3 44/240/3 46/50/3
f 27/52/29 29/241/9 47/53/9
f 49/55/1 60/242/1 50/56/1
f 14/58/10 58/243/10 52/59/10
f 54/61/3 8/11/3 49/62/3
f 55/64/3 53/65/3 49/62/3
f 55/64/3 15/16/3 14/15/3
f 16/17/3 54/61/3 51/63/3
f 50/67/3 60/244/3 52/68/3
f 57/69/3 52/68/3 58/70/3
f 51/72/11 50/245/11 57/73/11
f 56/74/11 57/73/11 59/75/11
f 53/60/10 52/59/10 60/77/10
f 17/79/4 59/246/4 58/80/4
f 4/82/10 70/247/10 61/83/30
f 26/85/11 67/248/11 62/86/11
f 46/88/10 44/249/10 63/89/10
f 46/91/10 64/250/10 65/92/10
f 25/26/31 62/251/31 63/252/31
f 63/252/31 44/47/31 25/26/31
f 44/47/4 23/239/4 19/20/4
f 19/20/4 18/19/4 25/26/4
f 66/94/1 65/253/1 64/95/1
f 63/97/14 62/254/14 67/98/14
f 32/100/15 5/255/15 61/101/32
f 61/103/33 70/256/18 69/104/18
f 4/106/10 41/257/34 65/107/10
f 32/100/19 33/258/19 37/111/19
f 39/259/19 120/260/19 71/109/19
f 120/260/19 121/261/19 71/109/19
f 32/100/19 37/111/19 5/255/19
f 37/111/19 39/259/19 71/109/19
f 5/255/19 37/111/19 1/262/19
f 6/263/19 1/262/19 37/111/19
f 6/263/19 37/111/19 72/110/19
f 31/112/11 32/264/11 68/113/11
f 66/115/11 67/265/11 26/116/11
f 30/118/20 75/266/20 73/119/20
f 29/121/21 24/267/21 74/122/21
f 27/124/35 48/268/23 75/125/23
f 37/40/6 33/269/6 73/127/6
f 24/270/24 77/130/24 74/129/24
f 77/130/24 39/271/24 38/131/24
f 78/132/1 11/272/1 79/133/1
f 11/272/1 122/273/1 79/133/1
f 79/133/1 113/196/1 80/134/1
f 54/61/3 82/137/3 81/135/3
f 54/61/3 83/138/3 78/136/3
f 83/138/3 12/13/3 11/12/3
f 80/139/3 86/274/3 84/140/3
f 78/142/11 80/275/11 85/143/11
f 82/145/4 85/276/4 84/146/4
f 81/148/10 84/277/10 86/149/10
f 9/151/11 123/278/11 87/152/11
f 88/154/11 91/157/11 89/155/11
f 10/153/11 87/152/11 91/157/11
f 8/8/2 10/10/2 88/158/2
f 55/159/2 88/158/2 90/160/2
f 92/162/11 124/279/11 93/163/11
f 94/165/1 125/280/1 92/166/1
f 116/281/4 115/282/4 71/220/4
f 12/168/4 83/208/4 95/169/4
f 96/170/4 116/281/4 12/168/4
f 116/281/4 71/220/4 12/168/4
f 97/171/4 104/283/4 98/172/4
f 100/174/1 103/284/1 101/175/1
f 99/177/3 98/285/3 103/178/3
f 102/180/19 101/286/19 104/181/19
f 105/183/19 111/287/19 106/184/19
f 107/186/4 106/288/4 108/187/4
f 110/189/1 112/289/1 111/190/1
f 109/192/3 108/290/3 112/193/3
f 86/195/1 80/134/1 113/196/1
f 114/197/1 122/273/1 86/195/1
f 122/273/1 11/272/1 86/195/1
f 114/200/3 113/291/3 115/198/3
f 113/291/3 117/292/3 115/198/3
f 95/201/11 117/293/11 113/202/11
f 96/204/10 122/294/10 114/205/10
f 72/209/4 71/220/4 117/207/4
f 71/220/4 115/282/4 117/207/4
f 117/207/4 95/169/4 83/208/4
f 79/210/19 122/295/19 96/211/19
f 66/213/11 28/296/11 31/214/11
f 66/216/3 69/297/3 70/217/3
f 124/298/4 123/299/4 9/300/4
f 71/220/4 121/301/4 34/221/4
f 121/301/4 126/302/4 34/221/4
f 126/302/4 35/303/4 34/221/4
f 34/221/4 22/304/4 93/219/4
f 124/298/4 9/300/4 12/168/4
f 93/219/4 124/298/4 12/168/4
f 93/219/4 12/168/4 71/220/4
f 118/222/1 3/3/1 2/2/1
f 2/2/1 7/7/1 13/305/1
f 13/305/1 15/223/1 2/2/1
f 15/223/1 90/306/1 118/222/1
f 90/306/1 89/307/1 118/222/1
f 41/226/36 4/308/3 3/224/3
f 3/224/3 2/309/3 42/225/3
