# Blender v2.80 (sub 44) OBJ File: ''
# www.blender.org
o Cube.004_Cube.086
v -78.208206 2.881081 39.886124
v -78.208206 -2.881081 -39.886124
v -78.208206 -2.881085 39.886124
v -78.208206 2.881085 -39.886124
v 78.208206 -2.881081 -39.886124
v 78.208206 2.881085 -39.886124
v 78.208206 -2.881085 39.886124
v 78.208206 2.881081 39.886124
vt 1.000000 0.000000
vt 0.967414 0.500000
vt 0.967414 0.000000
vt 0.902243 0.980393
vt 0.934828 0.000000
vt 0.934828 0.980393
vt 1.000000 0.500000
vt 0.967414 1.000000
vt 0.967414 0.500000
vt 0.967414 0.000000
vt 0.934829 0.980393
vt 0.934828 0.000000
vt 0.451121 0.000000
vt 0.902243 0.980394
vt 0.451121 0.980394
vt 0.451121 0.980394
vt 0.000000 0.000000
vt 0.451121 0.000000
vt 1.000000 0.500000
vt 0.902243 0.000000
vt 1.000000 1.000000
vt 0.967414 0.980393
vt 0.902242 0.000000
vt 0.000000 0.980394
vn -1.0000 0.0000 0.0000
vn 0.0000 0.0000 -1.0000
vn 1.0000 0.0000 0.0000
vn 0.0000 0.0000 1.0000
vn 0.0000 -1.0000 -0.0000
vn 0.0000 1.0000 0.0000
s 1
f 1/1/1 2/2/1 3/3/1
f 4/4/2 5/5/2 2/6/2
f 6/7/3 7/8/3 5/9/3
f 8/10/4 3/11/4 7/12/4
f 5/13/5 3/14/5 2/15/5
f 4/16/6 8/17/6 6/18/6
f 1/1/1 4/19/1 2/2/1
f 4/4/2 6/20/2 5/5/2
f 6/7/3 8/21/3 7/8/3
f 8/10/4 1/22/4 3/11/4
f 5/13/5 7/23/5 3/14/5
f 4/16/6 1/24/6 8/17/6
