# Blender v2.80 (sub 45) OBJ File: ''
# www.blender.org
o Cube.001_Cube.007
v 0.750186 -0.217177 2.362179
v -0.750186 -0.217177 2.988329
v -0.750186 -0.217177 2.362179
v -0.750186 -0.217175 -13.697590
v -0.750186 -5.333420 -22.282555
v -0.750186 -5.333423 -5.667707
v -0.750186 7.812704 11.018215
v -0.750186 8.439857 11.018215
v -0.750186 7.812707 -5.667705
v 0.750186 7.812704 11.018215
v 0.750186 -0.217177 2.988329
v 0.750186 7.812707 -5.667705
v -0.750186 8.439860 -5.667705
v -0.750186 8.439863 -22.282553
v 0.750186 -5.333420 -22.282555
v 0.750186 -0.217175 -13.697590
v 0.750186 -5.333423 -5.667707
v 0.750186 -0.217173 -22.282555
v 0.750186 8.439863 -22.282553
v 0.750186 -5.218747 11.018213
v 0.750186 -0.217180 15.504076
v 0.750186 -5.218748 16.411575
v -0.750186 -5.218748 16.411575
v 0.750186 -12.235949 16.411573
v 0.750186 -0.217181 26.697113
v -0.750186 -0.217182 27.984072
v -0.750186 -0.217181 26.697113
v -0.750186 -12.235948 11.018212
v -0.750186 -5.218747 11.018213
v 0.750186 -12.235948 11.018212
v -0.750186 -12.235949 16.411573
v 0.750186 5.554176 27.984072
v -0.750186 8.439855 27.984074
v -0.750186 5.554176 27.984072
v -0.750186 -0.217180 15.504076
v 0.750186 8.439810 16.411577
v -0.750186 2.668497 30.442493
v -0.750186 2.668498 23.268599
v -0.750186 8.439857 16.411577
v 0.750186 5.554146 19.840086
v 0.750186 8.439855 27.984074
v -0.750186 -12.465302 -5.667708
v 0.750186 -12.465302 -5.667708
v 0.750186 -12.465300 -22.282557
v -0.750186 -12.465300 -22.282557
v -0.750186 -1.194293 -2.357669
v -0.750186 -2.326168 -4.134134
v 0.750186 -1.194293 -2.357669
v 0.750186 -2.326168 -4.134134
v 0.750186 -2.278898 9.484643
v 0.750186 -1.172393 7.708178
v -0.750186 -2.278898 9.484643
v -0.750186 -1.172393 7.708178
v 0.750186 -0.467584 -0.119192
v -0.750186 -0.467584 -0.119192
v 0.750186 -3.752416 -5.274696
v -0.750186 -3.752416 -5.274696
v 0.750186 -3.673177 10.625203
v -0.750186 -3.673177 10.625203
v 0.750186 -0.461972 5.469701
v -0.750186 -0.461972 5.469701
v 0.750186 -3.673178 16.914984
v 0.750186 -2.278900 18.375938
v -0.750186 -1.172395 20.651423
v -0.750186 -0.461975 23.518707
v 0.750186 -0.461975 23.518707
v 0.750186 -1.172395 20.651423
v -0.750186 -2.278900 18.375938
v -0.750186 -3.673178 16.914984
v 0.750186 2.668497 30.442493
v 0.750186 -0.217182 27.984072
v 0.750186 2.668482 23.268602
v -0.750186 5.554178 19.840086
v -0.750186 -0.217173 -22.282555
v 0.750186 8.439860 -5.667705
v 0.750186 8.439857 11.018215
vt 1.039356 1.134402
vt 1.056707 1.183453
vt 1.039356 1.183453
vt 0.006036 0.167924
vt -0.232505 0.000658
vt 0.229153 0.000658
vt 0.692785 0.430445
vt 0.692785 0.450948
vt 0.229153 0.430445
vt 0.307215 1.113898
vt 0.530332 0.851377
vt 0.770847 1.113898
vt 0.229153 0.450948
vt -0.232505 0.450948
vt 1.232505 0.684111
vt 0.993965 0.851377
vt 0.770847 0.684111
vt 1.232505 0.851377
vt 1.232505 1.134402
vt 0.307215 0.687860
vt 0.182572 0.851377
vt 0.157356 0.687860
vt 1.031682 1.232505
vt 0.883263 1.183453
vt 1.031682 1.183453
vt 0.710813 1.134402
vt 0.746476 1.183453
vt 0.710813 1.183453
vt 0.239207 1.134402
vt 0.432676 1.183453
vt 0.239207 1.183453
vt 0.307215 0.458447
vt 0.692785 0.004407
vt 0.842644 -0.225007
vt 0.842644 0.004407
vt 0.822228 1.183453
vt 0.883263 1.232505
vt 0.822228 1.232505
vt 0.817428 0.167923
vt 0.157356 1.134400
vt 1.128436 0.167923
vt 1.232505 0.262265
vt 1.033172 0.262265
vt 0.842644 0.450948
vt 0.062092 1.040059
vt -0.164196 1.134402
vt -0.164196 1.040060
vt 1.206147 1.183453
vt 1.055302 1.232505
vt 1.055302 1.183453
vt 0.770847 0.450948
vt 1.232505 0.450948
vt -0.232505 -0.232505
vt 0.229153 -0.232505
vt 0.321125 0.135979
vt 0.271764 0.098974
vt 0.678875 0.819432
vt 0.728236 0.782427
vt 0.349827 0.783973
vt 0.399187 0.820148
vt 0.650173 0.100519
vt 0.600813 0.136694
vt 0.970084 1.134402
vt 0.970084 1.183453
vt 0.906568 1.134402
vt 0.906568 1.183453
vt 0.855026 1.134402
vt 0.855026 1.183453
vt 0.820503 1.134402
vt 1.232505 1.232505
vt 1.232505 1.183453
vt 0.195238 1.134402
vt 0.195238 1.183453
vt 0.152861 1.134402
vt 1.232505 1.183453
vt 1.185542 1.134402
vt 1.232505 1.134402
vt 1.185542 1.183453
vt 1.124966 1.134402
vt 1.124966 1.183453
vt 1.056707 1.134402
vt 0.143368 0.738390
vt 0.102774 0.783973
vt 0.960452 0.136694
vt 1.040122 0.159920
vt 0.622238 1.134402
vt 0.622238 1.183453
vt 0.541331 1.134402
vt 0.541331 1.183453
vt 0.476012 1.134402
vt 0.476012 1.183453
vt 0.432676 1.134402
vt 1.055302 1.232505
vt 1.055302 1.183453
vt -0.128436 0.851377
vt -0.232505 0.945718
vt -0.164196 0.851377
vt -0.033172 0.945718
vt 0.937908 0.356607
vt 1.164196 0.450948
vt 1.164196 0.356606
vt 0.746476 1.134402
vt 0.820503 1.183453
vt 0.716895 1.183453
vt 0.716895 1.232505
vt -0.232505 0.167924
vt 0.452270 0.167923
vt 0.469668 0.167923
vt 0.547730 0.851377
vt 0.770847 1.134402
vt 0.307215 1.134402
vt 0.883263 1.232505
vt 0.432676 1.134402
vt 0.157356 0.458447
vt 0.692785 -0.225007
vt 0.883263 1.183453
vt 1.164196 0.167923
vt 1.206147 1.232505
vt 0.240073 0.052346
vt 0.383323 0.159737
vt 0.616677 0.843190
vt 0.759927 0.735799
vt 0.318135 0.738390
vt 0.461385 0.843374
vt 0.538615 0.159920
vt 0.681865 0.054936
vt 0.820503 1.183453
vt 0.152861 1.183453
vt -0.040122 0.843374
vt 0.039548 0.820148
vt 0.856632 0.054936
vt 0.897226 0.100519
vt 0.432676 1.183453
vt 0.820503 1.134402
vn 0.0000 -1.0000 -0.0000
vn -1.0000 -0.0000 0.0000
vn 1.0000 -0.0000 0.0000
vn 0.0000 -0.0000 1.0000
vn 0.0000 0.0000 -1.0000
vn 0.0000 -0.9949 0.1004
vn 0.0000 -0.9511 0.3088
vn 0.0000 -0.8434 0.5373
vn 0.0000 -0.6245 0.7810
vn 0.0000 -0.2412 0.9705
vn 0.0000 -0.2464 -0.9692
vn 0.0000 -0.6332 -0.7740
vn 0.0000 -0.8488 -0.5287
vn 0.0000 -0.9531 -0.3025
vn 0.0000 -0.9952 -0.0982
vn 0.0000 -0.9970 0.0768
vn 0.0000 -0.9707 0.2405
vn 0.0000 -0.8993 0.4373
vn 0.0000 -0.7234 0.6904
vn 0.0000 -0.3097 0.9508
vn 0.0000 -0.6485 0.7612
vn 0.0000 0.6485 0.7612
s 1
f 1/1/1 2/2/1 3/3/1
f 4/4/2 5/5/2 6/6/2
f 7/7/2 8/8/2 9/9/2
f 10/10/3 11/11/3 12/12/3
f 9/9/2 13/13/2 14/14/2
f 15/15/3 16/16/3 17/17/3
f 16/16/3 18/18/3 19/19/3
f 20/20/3 21/21/3 22/22/3
f 23/23/4 24/24/4 22/25/4
f 25/26/1 26/27/1 27/28/1
f 20/29/5 28/30/5 29/31/5
f 22/22/3 30/32/3 20/20/3
f 29/33/2 31/34/2 23/35/2
f 32/36/4 33/37/4 34/38/4
f 23/35/2 35/39/2 29/33/2
f 10/10/3 36/40/3 21/21/3
f 27/41/2 37/42/2 38/43/2
f 7/7/2 39/44/2 8/8/2
f 40/45/3 41/46/3 32/47/3
f 17/48/4 42/49/4 43/50/4
f 15/15/3 43/51/3 44/52/3
f 6/6/2 45/53/2 42/54/2
f 46/55/2 9/9/2 47/56/2
f 12/12/3 48/57/3 49/58/3
f 21/21/3 50/59/3 51/60/3
f 52/61/2 35/39/2 53/62/2
f 3/3/6 54/63/6 1/1/6
f 55/64/7 48/65/7 54/63/7
f 46/66/8 49/67/8 48/65/8
f 47/68/9 56/69/9 49/67/9
f 57/70/10 17/48/10 56/71/10
f 29/31/11 58/72/11 20/29/11
f 59/73/12 50/74/12 58/72/12
f 52/75/13 51/76/13 50/77/13
f 53/78/14 60/79/14 51/76/14
f 61/80/15 11/81/15 60/79/15
f 62/82/3 21/21/3 63/83/3
f 64/84/2 65/85/2 38/43/2
f 27/28/16 66/86/16 25/26/16
f 65/87/17 67/88/17 66/86/17
f 64/89/18 63/90/18 67/88/18
f 68/91/19 62/92/19 63/90/19
f 69/93/20 22/25/20 62/94/20
f 25/95/3 70/96/3 71/97/3
f 72/98/3 32/47/3 70/96/3
f 73/99/2 33/100/2 39/44/2
f 38/43/2 34/101/2 73/99/2
f 71/102/21 37/103/21 26/27/21
f 70/104/22 34/38/22 37/105/22
f 1/1/1 11/81/1 2/2/1
f 4/4/2 74/106/2 5/5/2
f 8/8/2 13/13/2 9/9/2
f 9/9/2 3/107/2 2/108/2
f 2/108/2 7/7/2 9/9/2
f 11/11/3 1/109/3 12/12/3
f 12/12/3 75/110/3 76/111/3
f 76/111/3 10/10/3 12/12/3
f 14/14/2 74/106/2 4/4/2
f 4/4/2 9/9/2 14/14/2
f 15/15/3 18/18/3 16/16/3
f 75/110/3 12/12/3 19/19/3
f 12/12/3 16/16/3 19/19/3
f 23/23/4 31/112/4 24/24/4
f 25/26/1 71/102/1 26/27/1
f 20/29/5 30/113/5 28/30/5
f 22/22/3 24/114/3 30/32/3
f 29/33/2 28/115/2 31/34/2
f 32/36/4 41/116/4 33/37/4
f 10/10/3 76/111/3 36/40/3
f 27/41/2 26/117/2 37/42/2
f 7/7/2 35/39/2 39/44/2
f 40/45/3 36/40/3 41/46/3
f 17/48/4 6/118/4 42/49/4
f 15/15/3 17/17/3 43/51/3
f 6/6/2 5/5/2 45/53/2
f 4/4/2 6/6/2 57/119/2
f 4/4/2 57/119/2 47/56/2
f 3/107/2 9/9/2 55/120/2
f 9/9/2 4/4/2 47/56/2
f 55/120/2 9/9/2 46/55/2
f 12/12/3 1/109/3 54/121/3
f 12/12/3 54/121/3 48/57/3
f 17/17/3 16/16/3 56/122/3
f 16/16/3 12/12/3 49/58/3
f 56/122/3 16/16/3 49/58/3
f 21/21/3 20/20/3 58/123/3
f 21/21/3 58/123/3 50/59/3
f 11/11/3 10/10/3 60/124/3
f 10/10/3 21/21/3 51/60/3
f 60/124/3 10/10/3 51/60/3
f 7/7/2 2/108/2 61/125/2
f 7/7/2 61/125/2 53/62/2
f 29/33/2 35/39/2 59/126/2
f 35/39/2 7/7/2 53/62/2
f 59/126/2 35/39/2 52/61/2
f 3/3/6 55/64/6 54/63/6
f 55/64/7 46/66/7 48/65/7
f 46/66/8 47/68/8 49/67/8
f 47/68/9 57/127/9 56/69/9
f 57/70/10 6/118/10 17/48/10
f 29/31/11 59/73/11 58/72/11
f 59/73/12 52/128/12 50/74/12
f 52/75/13 53/78/13 51/76/13
f 53/78/14 61/80/14 60/79/14
f 61/80/15 2/2/15 11/81/15
f 72/98/3 25/95/3 66/129/3
f 72/98/3 66/129/3 67/130/3
f 21/21/3 36/40/3 40/45/3
f 40/45/3 72/98/3 67/130/3
f 40/45/3 67/130/3 21/21/3
f 67/130/3 63/83/3 21/21/3
f 22/22/3 21/21/3 62/82/3
f 35/39/2 23/35/2 69/131/2
f 35/39/2 69/131/2 68/132/2
f 73/99/2 39/44/2 35/39/2
f 65/85/2 27/41/2 38/43/2
f 38/43/2 73/99/2 64/84/2
f 73/99/2 35/39/2 64/84/2
f 35/39/2 68/132/2 64/84/2
f 27/28/16 65/87/16 66/86/16
f 65/87/17 64/89/17 67/88/17
f 64/89/18 68/91/18 63/90/18
f 68/91/19 69/133/19 62/92/19
f 69/93/20 23/23/20 22/25/20
f 25/95/3 72/98/3 70/96/3
f 72/98/3 40/45/3 32/47/3
f 73/99/2 34/101/2 33/100/2
f 38/43/2 37/42/2 34/101/2
f 71/102/21 70/134/21 37/103/21
f 70/104/22 32/36/22 34/38/22
