# Blender v2.80 (sub 44) OBJ File: ''
# www.blender.org
o Cube.001_Cube.007
v 0.750186 -0.217177 2.362179
v -0.750186 -0.217177 2.988329
v -0.750186 -0.217177 2.362179
v -0.750186 -0.217176 -13.697590
v -0.750186 -5.333423 -22.282555
v -0.750186 -5.333424 -5.667706
v -0.750186 7.812706 11.018214
v -0.750186 8.439858 11.018214
v -0.750186 7.812706 -5.667706
v 0.750186 7.812706 11.018214
v 0.750186 -0.217177 2.988329
v 0.750186 7.812706 -5.667706
v -0.750186 8.439859 -5.667706
v -0.750186 8.439860 -22.282555
v 0.750186 -5.333423 -22.282555
v 0.750186 -0.217176 -13.697590
v 0.750186 -5.333424 -5.667706
v 0.750186 -0.217176 -22.282555
v 0.750186 8.439860 -22.282555
v 0.750186 -5.218746 11.018214
v 0.750186 -0.217178 15.504076
v 0.750186 -5.218746 16.411575
v -0.750186 -5.218746 16.411575
v 0.750186 -12.235947 16.411575
v 0.750186 -0.217178 26.697113
v -0.750186 -0.217178 27.984072
v -0.750186 -0.217178 26.697113
v -0.750186 -12.235947 11.018213
v -0.750186 -5.218746 11.018214
v 0.750186 -12.235947 11.018213
v -0.750186 -12.235947 16.411575
v 0.750186 5.554180 27.984072
v -0.750186 8.439858 27.984072
v -0.750186 5.554180 27.984072
v -0.750186 -0.217178 15.504076
v 0.750186 8.439812 16.411575
v -0.750186 2.668501 30.442493
v -0.750186 2.668501 23.268599
v -0.750186 8.439858 16.411575
v 0.750186 5.554148 19.840086
v 0.750186 8.439858 27.984072
v -0.750186 -12.465303 -5.667706
v 0.750186 -12.465303 -5.667706
v 0.750186 -12.465302 -22.282555
v -0.750186 -12.465302 -22.282555
v -0.750186 -1.194293 -2.357669
v -0.750186 -2.326169 -4.134134
v 0.750186 -1.194293 -2.357669
v 0.750186 -2.326169 -4.134134
v 0.750186 -2.278898 9.484643
v 0.750186 -1.172392 7.708178
v -0.750186 -2.278898 9.484643
v -0.750186 -1.172392 7.708178
v 0.750186 -0.467584 -0.119192
v -0.750186 -0.467584 -0.119192
v 0.750186 -3.752417 -5.274696
v -0.750186 -3.752417 -5.274696
v 0.750186 -3.673176 10.625204
v -0.750186 -3.673176 10.625204
v 0.750186 -0.461971 5.469701
v -0.750186 -0.461971 5.469701
v 0.750186 -3.673176 16.914984
v 0.750186 -2.278898 18.375938
v -0.750186 -1.172393 20.651423
v -0.750186 -0.461972 23.518707
v 0.750186 -0.461972 23.518707
v 0.750186 -1.172393 20.651423
v -0.750186 -2.278898 18.375938
v -0.750186 -3.673176 16.914984
v 0.750186 2.668501 30.442493
v 0.750186 -0.217178 27.984072
v 0.750186 2.668485 23.268602
v -0.750186 5.554180 19.840086
v -0.750186 -0.217176 -22.282555
v 0.750186 8.439859 -5.667706
v 0.750186 8.439858 11.018214
vt 0.933036 0.131841
vt 0.966518 0.119998
vt 0.966518 0.131841
vt 0.273328 0.837175
vt 0.159154 1.000000
vt 0.159154 0.684877
vt 0.452522 0.368407
vt 0.466518 0.368407
vt 0.452522 0.684877
vt 0.919040 0.631593
vt 0.739846 0.479296
vt 0.919040 0.315122
vt 0.466518 0.684877
vt 0.466518 1.000000
vt 0.625672 0.000000
vt 0.739846 0.162825
vt 0.625672 0.315122
vt 0.739846 0.000000
vt 0.933036 0.000000
vt 0.628231 0.631593
vt 0.739846 0.716673
vt 0.628231 0.733885
vt 1.000000 0.137079
vt 0.966518 0.238389
vt 0.966518 0.137079
vt 0.933036 0.356101
vt 0.966518 0.331758
vt 0.966518 0.356101
vt 0.933036 0.678015
vt 0.966518 0.545954
vt 0.966518 0.678015
vt 0.471636 0.631593
vt 0.161713 0.368407
vt 0.005118 0.266115
vt 0.161713 0.266115
vt 0.966518 0.280051
vt 1.000000 0.238389
vt 1.000000 0.280051
vt 0.273328 0.283327
vt 0.933035 0.733885
vt 0.273328 0.071036
vt 0.337725 0.000000
vt 0.337725 0.136062
vt 0.466518 0.266115
vt 0.868638 0.798911
vt 0.933036 0.953373
vt 0.868639 0.953373
vt 0.966518 0.017992
vt 1.000000 0.120957
vt 0.966518 0.120957
vt 0.466518 0.315122
vt 0.466518 0.000000
vt 0.000000 1.000000
vt 0.000000 0.684877
vt 0.251523 0.622098
vt 0.226264 0.655791
vt 0.718041 0.377902
vt 0.692782 0.344209
vt 0.693837 0.602507
vt 0.718529 0.568814
vt 0.227319 0.397493
vt 0.252012 0.431186
vt 0.933036 0.179126
vt 0.966518 0.179126
vt 0.933036 0.222481
vt 0.966518 0.222481
vt 0.933036 0.257663
vt 0.966518 0.257663
vt 0.933036 0.281228
vt 1.000000 0.000000
vt 0.966518 0.000000
vt 0.933036 0.708027
vt 0.966518 0.708027
vt 0.933036 0.736953
vt 0.966518 0.000000
vt 0.933036 0.032056
vt 0.933036 0.000000
vt 0.966518 0.032056
vt 0.933036 0.073405
vt 0.966518 0.073405
vt 0.933036 0.119998
vt 0.662722 0.743433
vt 0.693837 0.771142
vt 0.252012 0.185701
vt 0.267865 0.131319
vt 0.933036 0.416562
vt 0.966518 0.416562
vt 0.933036 0.471788
vt 0.966518 0.471788
vt 0.933036 0.516374
vt 0.966518 0.516374
vt 0.933036 0.545954
vt 1.000000 0.120957
vt 0.966518 0.120957
vt 0.739846 0.928964
vt 0.804242 1.000000
vt 0.739846 0.953373
vt 0.804242 0.863938
vt 0.402121 0.201089
vt 0.466518 0.046627
vt 0.402121 0.046627
vt 0.933036 0.331758
vt 0.966518 0.281228
vt 0.966518 0.351950
vt 1.000000 0.351950
vt 0.273328 1.000000
vt 0.273328 0.532580
vt 0.273328 0.520704
vt 0.739846 0.467420
vt 0.933036 0.315122
vt 0.933036 0.631593
vt 1.000000 0.238389
vt 0.933036 0.545954
vt 0.471636 0.733885
vt 0.005118 0.368407
vt 0.966518 0.238389
vt 0.273328 0.046627
vt 1.000000 0.017992
vt 0.194436 0.677423
vt 0.267740 0.579643
vt 0.734258 0.420357
vt 0.660954 0.322576
vt 0.662722 0.624139
vt 0.734383 0.526358
vt 0.267865 0.473642
vt 0.196204 0.375861
vt 0.966518 0.281228
vt 0.966518 0.736953
vt 0.734383 0.868681
vt 0.718529 0.814299
vt 0.196204 0.256567
vt 0.227319 0.228858
vt 0.966518 0.545954
vt 0.933036 0.281228
vn 0.0000 -1.0000 -0.0000
vn -1.0000 0.0000 0.0000
vn 1.0000 -0.0000 0.0000
vn 0.0000 0.0000 1.0000
vn 0.0000 0.0000 -1.0000
vn 0.0000 -0.9949 0.1004
vn 0.0000 -0.9511 0.3088
vn 0.0000 -0.8434 0.5373
vn 0.0000 -0.6245 0.7810
vn 0.0000 -0.2412 0.9705
vn 0.0000 -0.2464 -0.9692
vn 0.0000 -0.6332 -0.7740
vn 0.0000 -0.8488 -0.5287
vn 0.0000 -0.9531 -0.3025
vn 0.0000 -0.9952 -0.0982
vn 0.0000 -0.9970 0.0768
vn 0.0000 -0.9707 0.2405
vn 0.0000 -0.8993 0.4373
vn 0.0000 -0.7234 0.6904
vn 0.0000 -0.3097 0.9508
vn 0.0000 -0.6485 0.7612
vn 0.0000 0.6485 0.7612
s 1
f 1/1/1 2/2/1 3/3/1
f 4/4/2 5/5/2 6/6/2
f 7/7/2 8/8/2 9/9/2
f 10/10/3 11/11/3 12/12/3
f 9/9/2 13/13/2 14/14/2
f 15/15/3 16/16/3 17/17/3
f 16/16/3 18/18/3 19/19/3
f 20/20/3 21/21/3 22/22/3
f 23/23/4 24/24/4 22/25/4
f 25/26/1 26/27/1 27/28/1
f 20/29/5 28/30/5 29/31/5
f 22/22/3 30/32/3 20/20/3
f 29/33/2 31/34/2 23/35/2
f 32/36/4 33/37/4 34/38/4
f 23/35/2 35/39/2 29/33/2
f 10/10/3 36/40/3 21/21/3
f 27/41/2 37/42/2 38/43/2
f 7/7/2 39/44/2 8/8/2
f 40/45/3 41/46/3 32/47/3
f 17/48/4 42/49/4 43/50/4
f 15/15/3 43/51/3 44/52/3
f 6/6/2 45/53/2 42/54/2
f 46/55/2 9/9/2 47/56/2
f 12/12/3 48/57/3 49/58/3
f 21/21/3 50/59/3 51/60/3
f 52/61/2 35/39/2 53/62/2
f 3/3/6 54/63/6 1/1/6
f 55/64/7 48/65/7 54/63/7
f 46/66/8 49/67/8 48/65/8
f 47/68/9 56/69/9 49/67/9
f 57/70/10 17/48/10 56/71/10
f 29/31/11 58/72/11 20/29/11
f 59/73/12 50/74/12 58/72/12
f 52/75/13 51/76/13 50/77/13
f 53/78/14 60/79/14 51/76/14
f 61/80/15 11/81/15 60/79/15
f 62/82/3 21/21/3 63/83/3
f 64/84/2 65/85/2 38/43/2
f 27/28/16 66/86/16 25/26/16
f 65/87/17 67/88/17 66/86/17
f 64/89/18 63/90/18 67/88/18
f 68/91/19 62/92/19 63/90/19
f 69/93/20 22/25/20 62/94/20
f 25/95/3 70/96/3 71/97/3
f 72/98/3 32/47/3 70/96/3
f 73/99/2 33/100/2 39/44/2
f 38/43/2 34/101/2 73/99/2
f 71/102/21 37/103/21 26/27/21
f 70/104/22 34/38/22 37/105/22
f 1/1/1 11/81/1 2/2/1
f 4/4/2 74/106/2 5/5/2
f 8/8/2 13/13/2 9/9/2
f 9/9/2 3/107/2 2/108/2
f 2/108/2 7/7/2 9/9/2
f 11/11/3 1/109/3 12/12/3
f 12/12/3 75/110/3 76/111/3
f 76/111/3 10/10/3 12/12/3
f 14/14/2 74/106/2 4/4/2
f 4/4/2 9/9/2 14/14/2
f 15/15/3 18/18/3 16/16/3
f 75/110/3 12/12/3 19/19/3
f 12/12/3 16/16/3 19/19/3
f 23/23/4 31/112/4 24/24/4
f 25/26/1 71/102/1 26/27/1
f 20/29/5 30/113/5 28/30/5
f 22/22/3 24/114/3 30/32/3
f 29/33/2 28/115/2 31/34/2
f 32/36/4 41/116/4 33/37/4
f 10/10/3 76/111/3 36/40/3
f 27/41/2 26/117/2 37/42/2
f 7/7/2 35/39/2 39/44/2
f 40/45/3 36/40/3 41/46/3
f 17/48/4 6/118/4 42/49/4
f 15/15/3 17/17/3 43/51/3
f 6/6/2 5/5/2 45/53/2
f 4/4/2 6/6/2 57/119/2
f 4/4/2 57/119/2 47/56/2
f 3/107/2 9/9/2 55/120/2
f 9/9/2 4/4/2 47/56/2
f 55/120/2 9/9/2 46/55/2
f 12/12/3 1/109/3 54/121/3
f 12/12/3 54/121/3 48/57/3
f 17/17/3 16/16/3 56/122/3
f 16/16/3 12/12/3 49/58/3
f 56/122/3 16/16/3 49/58/3
f 21/21/3 20/20/3 58/123/3
f 21/21/3 58/123/3 50/59/3
f 11/11/3 10/10/3 60/124/3
f 10/10/3 21/21/3 51/60/3
f 60/124/3 10/10/3 51/60/3
f 7/7/2 2/108/2 61/125/2
f 7/7/2 61/125/2 53/62/2
f 29/33/2 35/39/2 59/126/2
f 35/39/2 7/7/2 53/62/2
f 59/126/2 35/39/2 52/61/2
f 3/3/6 55/64/6 54/63/6
f 55/64/7 46/66/7 48/65/7
f 46/66/8 47/68/8 49/67/8
f 47/68/9 57/127/9 56/69/9
f 57/70/10 6/118/10 17/48/10
f 29/31/11 59/73/11 58/72/11
f 59/73/12 52/128/12 50/74/12
f 52/75/13 53/78/13 51/76/13
f 53/78/14 61/80/14 60/79/14
f 61/80/15 2/2/15 11/81/15
f 72/98/3 25/95/3 66/129/3
f 72/98/3 66/129/3 67/130/3
f 21/21/3 36/40/3 40/45/3
f 40/45/3 72/98/3 67/130/3
f 40/45/3 67/130/3 21/21/3
f 67/130/3 63/83/3 21/21/3
f 22/22/3 21/21/3 62/82/3
f 35/39/2 23/35/2 69/131/2
f 35/39/2 69/131/2 68/132/2
f 73/99/2 39/44/2 35/39/2
f 65/85/2 27/41/2 38/43/2
f 38/43/2 73/99/2 64/84/2
f 73/99/2 35/39/2 64/84/2
f 35/39/2 68/132/2 64/84/2
f 27/28/16 65/87/16 66/86/16
f 65/87/17 64/89/17 67/88/17
f 64/89/18 68/91/18 63/90/18
f 68/91/19 69/133/19 62/92/19
f 69/93/20 23/23/20 22/25/20
f 25/95/3 72/98/3 70/96/3
f 72/98/3 40/45/3 32/47/3
f 73/99/2 34/101/2 33/100/2
f 38/43/2 37/42/2 34/101/2
f 71/102/21 70/134/21 37/103/21
f 70/104/22 32/36/22 34/38/22
