# Blender v2.80 (sub 44) OBJ File: ''
# www.blender.org
o Cube.017_Cube.109
v -33.088154 2.284784 0.000000
v -33.088154 -2.284784 -13.256226
v -33.088154 -2.539012 -13.256226
v 33.088154 -2.539012 -13.256226
v 33.088154 2.284784 0.000000
v 33.088154 -2.284785 13.256226
v 33.088154 -2.539013 13.256226
v -33.088154 -2.539013 13.256226
v -33.088154 2.539013 0.000000
v 33.088154 2.539013 0.000000
v 33.088154 -2.284784 -13.256226
v -33.088154 -2.284785 13.256226
vt 0.986236 0.200317
vt 0.903776 0.400634
vt 0.899188 0.400634
vt 0.990824 1.000000
vt 0.995412 0.000000
vt 0.995412 1.000000
vt 0.903775 0.600950
vt 0.986236 0.400634
vt 0.990824 0.400634
vt 1.000000 0.000000
vt 0.995412 1.000000
vt 0.995412 0.000000
vt 0.195030 0.000000
vt 0.449594 1.000000
vt 0.195030 1.000000
vt 0.704157 1.000000
vt 0.449594 0.000000
vt 0.704157 0.000000
vt 0.899188 1.000000
vt 0.899188 0.000000
vt 0.000000 0.000000
vt 0.000000 1.000000
vt 0.986236 0.801267
vt 0.990824 0.801267
vt 0.903775 0.000000
vt 0.899188 0.000000
vt 0.990824 0.200317
vt 0.990824 0.000000
vt 0.899188 0.600950
vt 1.000000 1.000000
vt 0.449594 0.000000
vt 0.449594 1.000000
vn -1.0000 -0.0000 0.0000
vn 0.0000 0.0000 -1.0000
vn 1.0000 0.0000 0.0000
vn 0.0000 0.0000 1.0000
vn 0.0000 -0.9397 -0.3420
vn 0.0000 0.9397 0.3420
vn 0.0000 0.9397 -0.3420
vn 0.0000 -0.9397 0.3420
s 1
f 1/1/1 2/2/1 3/3/1
f 2/4/2 4/5/2 3/6/2
f 5/7/3 6/8/3 7/9/3
f 6/10/4 8/11/4 7/12/4
f 5/13/5 8/14/5 1/15/5
f 9/16/6 6/17/6 10/18/6
f 2/19/7 10/18/7 11/20/7
f 4/21/8 1/15/8 3/22/8
f 11/23/3 5/7/3 4/24/3
f 12/25/1 1/1/1 8/26/1
f 1/1/1 9/27/1 2/2/1
f 2/4/2 11/28/2 4/5/2
f 5/7/3 10/29/3 6/8/3
f 6/10/4 12/30/4 8/11/4
f 5/13/5 7/31/5 8/14/5
f 9/16/6 12/32/6 6/17/6
f 2/19/7 9/16/7 10/18/7
f 4/21/8 5/13/8 1/15/8
f 11/23/3 10/29/3 5/7/3
f 12/25/1 9/27/1 1/1/1
