# Blender v2.80 (sub 41) OBJ File: 'AutopistaV2.blend'
# www.blender.org
o Cube.031_Cube.011
v -16.659426 9.741272 1.114228
v 17.252060 9.741272 1.114228
v -16.659426 9.741272 -1.130855
v 17.252060 9.741272 -1.130855
v 16.403734 -9.738976 1.114228
v -16.659426 -9.738976 1.114228
v -16.659426 -9.738976 -1.130855
v 16.403734 -9.738976 -1.130855
v 0.268795 9.741272 1.528426
v 1.030367 9.741272 1.528426
v 1.030367 -9.738976 1.528426
v 0.268795 -9.738976 1.528426
v 1.030367 -9.738976 -1.130855
v 0.268795 -9.738976 -1.130855
v 0.268795 -9.738976 1.114228
v 1.030367 -9.738976 1.114228
v 0.268795 9.741272 -1.130855
v 1.030367 9.741272 -1.130855
v 1.030367 9.741272 1.114228
v 0.268795 9.741272 1.114228
v 0.268795 9.741272 -1.393185
v 1.030367 9.741272 -1.393185
v 1.030367 -9.738976 -1.393185
v 0.268795 -9.738976 -1.393185
v 15.819771 0.001148 1.114228
v 15.819771 0.001147 -1.130855
v 17.252060 -4.868915 -1.130855
v 17.252060 -4.868914 1.114228
vt 0.799168 0.750000
vt 0.536659 1.000000
vt 0.875000 0.750000
vt 0.536659 1.000000
vt 0.625000 0.924168
vt 0.625000 1.000000
vt 0.536659 0.920757
vt 0.558744 0.750000
vt 0.580829 0.750000
vt 0.558744 0.750000
vt 0.536659 0.750000
vt 0.536659 0.920757
vt 0.536659 0.924168
vt 0.625000 0.924168
vt 0.795757 0.750000
vt 0.795757 0.750000
vt 0.536659 0.924168
vt 0.536659 0.924168
vt 0.536659 0.920757
vt 0.799168 0.750000
vt 0.625000 0.920757
vt 0.536659 0.920757
vt 0.625000 0.920757
vt 0.536659 0.924168
vt 0.580829 0.750000
vt 0.536659 0.750000
vt 0.625000 0.750000
vt 0.625000 0.750000
vn 0.0000 0.0000 -1.0000
vn 0.0000 0.0000 1.0000
vn -1.0000 0.0000 0.0000
vn 1.0000 0.0000 0.0000
vn 0.9594 0.2822 -0.0000
vn 0.9852 -0.1716 0.0000
vn 0.9894 -0.1455 0.0000
s off
f 17/1/1 7/2/1 3/3/1
f 6/4/2 20/5/2 1/6/2
f 16/7/2 28/8/2 25/9/2
f 27/10/1 8/11/1 13/12/1
f 15/13/3 9/14/3 20/5/3
f 13/12/4 22/15/4 18/16/4
f 17/1/3 24/17/3 14/18/3
f 23/19/1 21/20/1 22/15/1
f 19/21/4 11/22/4 16/7/4
f 10/23/2 12/24/2 11/22/2
f 28/8/5 26/25/5 25/9/5
f 5/26/6 27/10/6 28/8/6
f 25/9/7 4/27/7 2/28/7
f 17/1/1 14/18/1 7/2/1
f 6/4/2 15/13/2 20/5/2
f 2/28/2 19/21/2 25/9/2
f 19/21/2 16/7/2 25/9/2
f 16/7/2 5/26/2 28/8/2
f 13/12/1 18/16/1 26/25/1
f 18/16/1 4/27/1 26/25/1
f 26/25/1 27/10/1 13/12/1
f 15/13/3 12/24/3 9/14/3
f 13/12/4 23/19/4 22/15/4
f 17/1/3 21/20/3 24/17/3
f 23/19/1 24/17/1 21/20/1
f 19/21/4 10/23/4 11/22/4
f 10/23/2 9/14/2 12/24/2
f 28/8/5 27/10/5 26/25/5
f 5/26/6 8/11/6 27/10/6
f 25/9/7 26/25/7 4/27/7
