# Blender v2.80 (sub 44) OBJ File: ''
# www.blender.org
o Columnas_Group13566
v 0.827247 -6.292733 -0.495967
v 0.827249 1.487551 0.495967
v 0.827247 -6.292733 0.495967
v -0.827252 -6.292733 -0.495967
v 0.827249 1.487551 -0.495967
v -0.827252 -6.292733 0.495967
v -0.827251 1.487551 -0.495967
v -0.827250 1.487551 0.495967
v 0.827249 1.643468 0.495967
v 0.827249 2.145799 -0.495967
v 0.827249 2.145800 0.495967
v 0.827249 1.643468 -0.495967
v -0.827250 2.145799 -0.495967
v -0.827250 1.643468 0.495967
v -0.827251 1.643468 -0.495967
v -0.827250 2.145799 0.495967
v 0.827249 2.301714 -0.495967
v 0.827249 4.995394 0.495967
v 0.827249 2.301714 0.495967
v -0.827250 2.301714 -0.495967
v 0.827249 4.995394 -0.495967
v -0.827250 2.301714 0.495967
v -0.827250 4.995394 -0.495967
v -0.827250 4.995394 0.495967
v 0.827249 5.156075 -0.495967
v 0.946430 5.961411 0.585301
v 0.827249 5.156075 0.495967
v -0.827250 5.156076 -0.495967
v 0.946429 5.961411 -0.585301
v -0.827250 5.156076 0.495967
v -0.946430 5.961412 -0.585301
v -0.946430 5.961412 0.585301
v 0.966598 6.120053 -0.600417
v 0.988563 6.292732 0.616882
v 0.966598 6.120053 0.600417
v -0.966598 6.120054 -0.600417
v 0.988563 6.292732 -0.616882
v -0.988564 6.292733 0.616883
v -0.988564 6.292733 -0.616882
v -0.966598 6.120054 0.600417
v 0.904890 2.301714 -0.573609
v 0.904890 2.145800 0.573609
v 0.904890 2.145799 -0.573609
v -0.904892 2.301714 0.573609
v 0.904890 2.301714 0.573609
v -0.904892 2.145799 0.573609
v -0.904892 2.145799 -0.573608
v -0.904892 2.301714 -0.573608
v 0.904890 1.643468 0.573609
v 0.904890 1.487551 -0.573609
v 0.904890 1.643468 -0.573609
v 0.904890 1.487551 0.573609
v -0.904892 1.643468 0.573609
v -0.904892 1.487551 0.573609
v -0.904892 1.487551 -0.573608
v -0.904892 1.643468 -0.573608
v 0.904890 5.156075 0.573609
v 0.904890 4.995394 -0.573609
v 0.904890 5.156075 -0.573609
v 0.904890 4.995394 0.573609
v -0.904891 5.156076 0.573609
v -0.904891 4.995394 0.573609
v -0.904891 4.995394 -0.573608
v -0.904891 5.156076 -0.573608
v 1.042708 6.103099 0.676794
v 1.022540 5.944457 -0.661678
v 1.042708 6.103099 -0.676794
v 1.022541 5.944457 0.661678
v -1.022541 5.944458 0.661678
v -1.022541 5.944458 -0.661678
v -1.042708 6.103100 0.676794
v -1.042708 6.103100 -0.676794
vt 0.457584 0.837606
vt 0.563117 0.000000
vt 0.563117 0.837606
vt 0.000000 0.837966
vt 0.176025 0.000000
vt 0.176025 0.837966
vt 0.352050 0.837606
vt 0.457584 0.000000
vt 0.457584 0.837606
vt 0.176025 0.837966
vt 0.352050 0.000000
vt 0.352050 0.837966
vt 0.405441 0.837606
vt 0.352050 0.944501
vt 0.352050 0.837606
vt 0.984041 0.000000
vt 0.930627 0.178295
vt 0.930627 0.000000
vt 0.405441 0.837606
vt 0.458833 0.944501
vt 0.405442 0.944501
vt 0.702691 0.978920
vt 0.649277 0.800625
vt 0.702691 0.800625
vt 0.809445 0.580239
vt 0.703912 0.870234
vt 0.703912 0.580239
vt 0.563117 0.290119
vt 0.739142 0.000000
vt 0.739142 0.290119
vt 0.739142 0.289995
vt 0.844676 0.000000
vt 0.844676 0.289995
vt 0.563117 0.580239
vt 0.739142 0.290119
vt 0.739142 0.580239
vt 0.563117 0.810252
vt 0.649277 0.926773
vt 0.563118 0.917146
vt 0.844676 0.012843
vt 0.930627 0.203982
vt 0.844676 0.191138
vt 0.930835 0.320503
vt 0.844676 0.203982
vt 0.930835 0.213609
vt 0.947147 0.567396
vt 0.861197 0.376257
vt 0.947147 0.389100
vt 0.477290 0.839381
vt 0.495747 0.970561
vt 0.477290 0.968787
vt 0.931500 0.582606
vt 0.949920 0.793302
vt 0.931500 0.790935
vt 0.477290 0.839381
vt 0.458833 0.970561
vt 0.458833 0.837606
vt 0.965567 0.369543
vt 0.947148 0.580239
vt 0.947147 0.367176
vt 0.000000 0.961594
vt 0.016572 0.837966
vt 0.016572 0.961594
vt 0.923239 0.766901
vt 0.809445 0.775268
vt 0.817706 0.766901
vt 0.983421 0.775268
vt 1.000000 0.970297
vt 0.983421 0.970297
vt 0.809445 0.580239
vt 0.817706 0.588606
vt 0.982490 0.355507
vt 0.999069 0.550536
vt 0.982490 0.550536
vt 0.923239 0.588606
vt 0.931500 0.775268
vt 0.033143 0.961594
vt 0.016572 0.837966
vt 0.033143 0.837966
vt 0.931499 0.580239
vt 0.546545 0.837606
vt 0.563117 0.961235
vt 0.546545 0.961235
vt 0.852937 0.571872
vt 0.739142 0.580239
vt 0.747403 0.571872
vt 0.966842 0.775268
vt 0.983421 0.970297
vt 0.966842 0.970297
vt 0.739142 0.385210
vt 0.747403 0.393577
vt 0.949920 0.804971
vt 0.966499 1.000000
vt 0.949920 1.000000
vt 0.852936 0.393577
vt 0.861197 0.580239
vt 0.546545 0.961234
vt 0.529974 0.837606
vt 0.546545 0.837606
vt 0.861197 0.385210
vt 0.512826 0.837606
vt 0.529904 0.961235
vt 0.512826 0.961235
vt 0.817706 0.783635
vt 0.931500 0.775268
vt 0.923239 0.783635
vt 0.983928 0.775268
vt 0.966842 0.580239
vt 0.983928 0.580239
vt 0.923239 0.961930
vt 0.931500 0.970297
vt 0.931500 0.793302
vt 0.948585 0.988330
vt 0.931500 0.988330
vt 0.817706 0.961930
vt 0.809445 0.775268
vt 0.512826 0.961235
vt 0.495747 0.837606
vt 0.512826 0.837606
vt 0.809445 0.970297
vt 0.964749 0.349849
vt 0.947792 0.205611
vt 0.964749 0.203982
vt 0.695786 0.588441
vt 0.563117 0.580239
vt 0.703911 0.580239
vt 0.949920 0.804971
vt 0.966842 0.582412
vt 0.966842 0.802798
vt 0.703912 0.800625
vt 0.695786 0.792423
vt 0.982490 0.578066
vt 0.965568 0.355507
vt 0.982490 0.357680
vt 0.571243 0.588441
vt 0.563117 0.800625
vt 0.947792 0.205611
vt 0.930835 0.349849
vt 0.930835 0.203982
vt 0.571243 0.792423
vt 0.457584 0.000000
vt 0.000000 0.000000
vt 0.176025 0.000000
vt 0.405441 0.944501
vt 0.984041 0.178295
vt 0.458833 0.837606
vt 0.649277 0.978920
vt 0.809445 0.870234
vt 0.563117 0.000000
vt 0.739142 0.000000
vt 0.563117 0.290119
vt 0.649277 0.800625
vt 0.930627 0.000000
vt 0.844676 0.330130
vt 0.861197 0.580239
vt 0.495747 0.837606
vt 0.949920 0.580239
vt 0.477290 0.968787
vt 0.965567 0.577872
vt 0.000000 0.837966
vt 1.000000 0.775268
vt 0.999069 0.355507
vt 0.016572 0.961594
vt 0.563117 0.837606
vt 0.983421 0.775268
vt 0.966499 0.804971
vt 0.529974 0.961234
vt 0.529904 0.837606
vt 0.966842 0.775268
vt 0.948585 0.793302
vt 0.495747 0.961235
vt 0.947792 0.348220
vt 0.949920 0.580239
vt 0.965568 0.580239
vt 0.947792 0.348220
vn 1.0000 -0.0000 0.0000
vn 0.0000 0.0000 -1.0000
vn -1.0000 0.0000 0.0000
vn 0.0000 -0.0000 1.0000
vn 0.9892 -0.1464 0.0000
vn -0.0000 -0.1103 -0.9939
vn -0.9892 -0.1464 0.0000
vn -0.0000 -0.1103 0.9939
vn 0.9920 -0.1262 0.0000
vn -0.0000 -0.0949 -0.9955
vn -0.9920 -0.1262 0.0000
vn 0.0000 -0.0949 0.9955
vn 0.0000 -1.0000 0.0000
vn 0.9920 -0.1261 0.0000
vn -0.2174 -0.9761 0.0000
vn -0.0000 -0.9762 -0.2167
vn -0.0000 -0.9762 0.2167
vn -0.9920 -0.1261 0.0000
vn 0.2174 -0.9761 0.0000
s 1
f 1/1/1 2/2/1 3/3/1
f 4/4/2 5/5/2 1/6/2
f 6/7/3 7/8/3 4/9/3
f 3/10/4 8/11/4 6/12/4
f 9/13/1 10/14/1 11/15/1
f 12/16/2 13/17/2 10/18/2
f 14/19/3 13/20/3 15/21/3
f 9/22/4 16/23/4 14/24/4
f 17/25/1 18/26/1 19/27/1
f 20/28/2 21/29/2 17/30/2
f 22/31/3 23/32/3 20/33/3
f 19/34/4 24/35/4 22/36/4
f 25/37/5 26/38/5 27/39/5
f 28/40/6 29/41/6 25/42/6
f 30/43/7 31/44/7 28/45/7
f 27/46/8 32/47/8 30/48/8
f 33/49/9 34/50/9 35/51/9
f 36/52/10 37/53/10 33/54/10
f 36/55/11 38/56/11 39/57/11
f 40/58/12 34/59/12 38/60/12
f 41/61/1 42/62/1 43/63/1
f 10/64/13 42/65/13 11/66/13
f 44/67/4 42/68/4 45/69/4
f 11/66/13 46/70/13 16/71/13
f 47/72/2 41/73/2 43/74/2
f 13/75/13 43/76/13 10/64/13
f 46/77/3 48/78/3 47/79/3
f 16/71/13 47/80/13 13/75/13
f 49/81/1 50/82/1 51/83/1
f 5/84/13 52/85/13 2/86/13
f 53/87/4 52/88/4 49/89/4
f 2/86/13 54/90/13 8/91/13
f 55/92/2 51/93/2 50/94/2
f 7/95/13 50/96/13 5/84/13
f 54/97/3 56/98/3 55/99/3
f 8/91/13 55/100/13 7/95/13
f 57/101/1 58/102/1 59/103/1
f 21/104/13 60/105/13 18/106/13
f 61/107/4 60/108/4 57/109/4
f 24/110/13 60/105/13 62/111/13
f 63/112/2 59/113/2 58/114/2
f 23/115/13 58/116/13 21/104/13
f 62/117/3 64/118/3 63/119/3
f 24/110/13 63/120/13 23/115/13
f 65/121/14 66/122/14 67/123/14
f 26/124/15 66/125/15 68/126/15
f 65/127/12 69/128/12 68/129/12
f 26/124/16 69/130/16 32/131/16
f 70/132/10 67/133/10 66/134/10
f 29/135/17 70/136/17 66/125/17
f 70/137/18 71/138/18 72/139/18
f 31/140/19 69/130/19 70/136/19
f 1/1/1 5/141/1 2/2/1
f 4/4/2 7/142/2 5/5/2
f 6/7/3 8/11/3 7/8/3
f 3/10/4 2/143/4 8/11/4
f 9/13/1 12/144/1 10/14/1
f 12/16/2 15/145/2 13/17/2
f 14/19/3 16/146/3 13/20/3
f 9/22/4 11/147/4 16/23/4
f 17/25/1 21/148/1 18/26/1
f 20/28/2 23/149/2 21/29/2
f 22/31/3 24/150/3 23/32/3
f 19/34/4 18/151/4 24/35/4
f 25/37/5 29/152/5 26/38/5
f 28/40/6 31/153/6 29/41/6
f 30/43/7 32/154/7 31/44/7
f 27/46/8 26/155/8 32/47/8
f 33/49/9 37/156/9 34/50/9
f 36/52/10 39/157/10 37/53/10
f 36/55/11 40/158/11 38/56/11
f 40/58/12 35/159/12 34/59/12
f 41/61/1 45/160/1 42/62/1
f 10/64/13 43/76/13 42/65/13
f 44/67/4 46/161/4 42/68/4
f 11/66/13 42/65/13 46/70/13
f 47/72/2 48/162/2 41/73/2
f 13/75/13 47/80/13 43/76/13
f 46/77/3 44/163/3 48/78/3
f 16/71/13 46/70/13 47/80/13
f 49/81/1 52/164/1 50/82/1
f 5/84/13 50/96/13 52/85/13
f 53/87/4 54/165/4 52/88/4
f 2/86/13 52/85/13 54/90/13
f 55/92/2 56/166/2 51/93/2
f 7/95/13 55/100/13 50/96/13
f 54/97/3 53/167/3 56/98/3
f 8/91/13 54/90/13 55/100/13
f 57/101/1 60/168/1 58/102/1
f 21/104/13 58/116/13 60/105/13
f 61/107/4 62/169/4 60/108/4
f 24/110/13 18/106/13 60/105/13
f 63/112/2 64/170/2 59/113/2
f 23/115/13 63/120/13 58/116/13
f 62/117/3 61/171/3 64/118/3
f 24/110/13 62/111/13 63/120/13
f 65/121/14 68/172/14 66/122/14
f 26/124/15 29/135/15 66/125/15
f 65/127/12 71/173/12 69/128/12
f 26/124/16 68/126/16 69/130/16
f 70/132/10 72/174/10 67/133/10
f 29/135/17 31/140/17 70/136/17
f 70/137/18 69/175/18 71/138/18
f 31/140/19 32/131/19 69/130/19
