# Blender v2.80 (sub 41) OBJ File: 'AutopistaV2.blend'
# www.blender.org
o Cube.055_Cube.029
v -43.128174 9.963987 9.355939
v -43.128174 9.963987 7.110856
v -42.279850 -9.516261 9.355939
v 42.770733 -10.244104 -4.060855
v 42.770733 9.963987 -4.060855
v -42.279850 -9.516261 7.110856
v -29.516239 9.963987 9.770138
v -30.277813 9.963987 9.770138
v -30.277813 -9.516261 9.770138
v -29.516239 -9.516261 9.770138
v -30.277813 -9.516261 7.110856
v -29.516239 -9.516261 7.110856
v -29.516239 -9.516261 9.355939
v -30.277813 -9.516261 9.355939
v -29.516239 9.963987 7.110856
v -30.277813 9.963987 7.110856
v -30.277813 9.963987 9.355939
v -29.516239 9.963987 9.355939
v -29.516239 9.963987 6.848526
v -30.277813 9.963987 6.848526
v -30.277813 -9.516261 6.848526
v -29.516239 -9.516261 6.848526
v -41.695885 0.223864 9.355939
v -41.695885 0.223863 7.110856
v -43.128174 -4.646199 7.110856
v -43.128174 -4.646198 9.355939
v 9.552443 9.963987 -4.060855
v 9.552443 9.963987 -6.305939
v 9.552443 -10.244104 -6.305939
v 9.552443 -10.244104 -4.060855
v 42.770733 9.963987 -6.305932
v 42.770733 -10.244104 -6.305932
vt 0.536659 1.000000
vt 0.625000 1.000000
vt 0.536659 1.000000
vt 0.536659 0.924168
vt 0.875000 0.750000
vt 0.536659 1.000000
vt 0.558744 0.750000
vt 0.536659 0.750000
vt 0.536659 0.920757
vt 0.536659 0.920757
vt 0.558744 0.750000
vt 0.580829 0.750000
vt 0.625000 0.924168
vt 0.536659 0.924168
vt 0.625000 0.924168
vt 0.795757 0.750000
vt 0.795757 0.750000
vt 0.536659 0.924168
vt 0.799168 0.750000
vt 0.799168 0.750000
vt 0.536659 0.920757
vt 0.536659 0.920757
vt 0.625000 0.920757
vt 0.536659 0.924168
vt 0.625000 0.920757
vt 0.536659 0.750000
vt 0.625000 0.750000
vt 0.580829 0.750000
vt 0.625000 0.750000
vt 0.875000 0.750000
vt 0.625000 1.000000
vt 0.536659 1.000000
vn 0.0000 0.0000 1.0000
vn -0.3248 0.0000 -0.9458
vn -0.0000 0.0000 -1.0000
vn 1.0000 0.0000 0.0000
vn -1.0000 0.0000 0.0000
vn -0.9594 0.2822 -0.0000
vn -0.9852 -0.1716 0.0000
vn -0.9894 -0.1455 0.0000
vn 0.3248 0.0000 0.9458
s off
f 4/1/1 27/2/1 30/3/1
f 12/4/2 28/5/2 29/6/2
f 26/7/1 3/8/1 14/9/1
f 11/10/3 25/11/3 24/12/3
f 7/13/4 13/14/4 18/15/4
f 20/16/5 11/10/5 16/17/5
f 22/18/4 15/19/4 12/4/4
f 19/20/3 21/21/3 20/16/3
f 9/22/5 17/23/5 14/9/5
f 10/24/1 8/25/1 9/22/1
f 26/7/6 24/12/6 25/11/6
f 26/7/7 6/26/7 3/8/7
f 2/27/8 23/28/8 1/29/8
f 31/30/3 29/6/3 28/5/3
f 13/14/9 27/2/9 18/15/9
f 4/1/4 31/30/4 5/31/4
f 4/1/1 5/31/1 27/2/1
f 12/4/2 15/19/2 28/5/2
f 14/9/1 17/23/1 23/28/1
f 17/23/1 1/29/1 23/28/1
f 23/28/1 26/7/1 14/9/1
f 2/27/3 16/17/3 24/12/3
f 16/17/3 11/10/3 24/12/3
f 11/10/3 6/26/3 25/11/3
f 7/13/4 10/24/4 13/14/4
f 20/16/5 21/21/5 11/10/5
f 22/18/4 19/20/4 15/19/4
f 19/20/3 22/18/3 21/21/3
f 9/22/5 8/25/5 17/23/5
f 10/24/1 7/13/1 8/25/1
f 26/7/6 23/28/6 24/12/6
f 26/7/7 25/11/7 6/26/7
f 2/27/8 24/12/8 23/28/8
f 31/30/3 32/32/3 29/6/3
f 13/14/9 30/3/9 27/2/9
f 4/1/4 32/32/4 31/30/4
