# Blender v2.80 (sub 44) OBJ File: ''
# www.blender.org
o Cube.055_Cube.029
v 42.770733 -10.244104 -4.060855
v 9.552443 9.963987 -4.060854
v 9.552443 -10.244104 -4.060855
v -29.516239 -9.516261 7.110856
v 9.552443 9.963987 -6.305939
v 9.552443 -10.244104 -6.305940
v -43.128174 -4.646198 9.355939
v -42.279850 -9.516261 9.355939
v -30.277813 -9.516261 9.355939
v -30.277813 -9.516261 7.110856
v -43.128174 -4.646200 7.110856
v -41.695885 0.223863 7.110856
v -29.516239 9.963987 9.770138
v -29.516239 -9.516261 9.355939
v -29.516239 9.963987 9.355939
v -30.277813 9.963987 6.848526
v -30.277813 9.963987 7.110857
v -29.516239 -9.516261 6.848526
v -29.516239 9.963987 7.110857
v -29.516239 9.963987 6.848526
v -30.277813 -9.516261 6.848526
v -30.277813 -9.516261 9.770138
v -30.277813 9.963987 9.355939
v -29.516239 -9.516261 9.770138
v -30.277813 9.963987 9.770138
v -42.279850 -9.516261 7.110856
v -43.128174 9.963987 7.110857
v -41.695885 0.223864 9.355939
v -43.128174 9.963987 9.355939
v 42.770733 9.963987 -6.305932
v 42.770733 9.963987 -4.060854
v 42.770733 -10.244104 -6.305933
vt 0.351947 1.000000
vt 0.000000 0.546000
vt 0.351946 0.546000
vt 0.691217 1.000000
vt 0.351947 0.454000
vt 0.703893 0.454000
vt 0.703893 0.333517
vt 0.718636 0.266813
vt 0.927215 0.266813
vt 0.703893 0.000000
vt 0.927215 0.066703
vt 0.902324 0.133407
vt 0.972337 0.533626
vt 0.979551 0.266813
vt 0.979551 0.533626
vt 0.997355 0.266813
vt 0.992786 0.533620
vt 0.992786 0.266813
vt 0.972337 0.266813
vt 0.967769 0.533626
vt 0.967769 0.266813
vt 0.992786 0.000000
vt 0.979551 0.266813
vt 0.979551 0.000000
vt 0.992786 0.266806
vt 1.000000 0.000000
vt 1.000000 0.266806
vt 0.966316 0.266813
vt 0.979551 0.000000
vt 0.979551 0.266813
vt 0.927215 0.476887
vt 0.966316 0.410324
vt 0.966316 0.476887
vt 0.966316 0.543671
vt 0.927215 0.543671
vt 0.966316 0.276782
vt 0.927215 0.410324
vt 0.927215 0.276782
vt 0.351947 0.000000
vt 0.339270 0.000000
vt 0.000000 0.000000
vt 0.927215 0.000000
vt 0.966316 0.276782
vt 0.927215 0.276782
vt 0.000000 1.000000
vt 0.351947 1.000000
vt 0.927215 0.533626
vt 0.728784 0.400220
vt 0.703893 0.533626
vt 0.927215 0.266813
vt 0.703893 0.266813
vt 0.912473 0.000000
vt 0.972337 0.266813
vt 0.997355 0.533620
vt 0.972337 0.533626
vt 0.992786 0.266813
vt 0.992786 0.000000
vt 0.966316 0.000000
vt 0.703893 0.000000
vt 0.966316 0.000000
vn 0.0000 -0.0000 1.0000
vn -0.3248 0.0000 -0.9458
vn -0.0000 0.0000 -1.0000
vn 1.0000 0.0000 0.0000
vn -1.0000 -0.0000 0.0000
vn -0.9594 0.2822 -0.0000
vn -0.9852 -0.1716 0.0000
vn -0.9894 -0.1455 0.0000
vn 0.3248 -0.0000 0.9458
s 1
f 1/1/1 2/2/1 3/3/1
f 4/4/2 5/5/2 6/6/2
f 7/7/1 8/8/1 9/9/1
f 10/10/3 11/11/3 12/12/3
f 13/13/4 14/14/4 15/15/4
f 16/16/5 10/17/5 17/18/5
f 18/19/4 19/20/4 4/21/4
f 20/22/3 21/23/3 16/24/3
f 22/25/5 23/26/5 9/27/5
f 24/28/1 25/29/1 22/30/1
f 7/31/6 12/32/6 11/33/6
f 7/31/7 26/34/7 8/35/7
f 27/36/8 28/37/8 29/38/8
f 30/39/3 6/6/3 5/5/3
f 14/40/9 2/2/9 15/41/9
f 1/42/4 30/43/4 31/44/4
f 1/1/1 31/45/1 2/2/1
f 4/4/2 19/46/2 5/5/2
f 9/9/1 23/47/1 28/48/1
f 23/47/1 29/49/1 28/48/1
f 28/48/1 7/7/1 9/9/1
f 27/50/3 17/51/3 12/12/3
f 17/51/3 10/10/3 12/12/3
f 10/10/3 26/52/3 11/11/3
f 13/13/4 24/53/4 14/14/4
f 16/16/5 21/54/5 10/17/5
f 18/19/4 20/55/4 19/20/4
f 20/22/3 18/56/3 21/23/3
f 22/25/5 25/57/5 23/26/5
f 24/28/1 13/58/1 25/29/1
f 7/31/6 28/37/6 12/32/6
f 7/31/7 11/33/7 26/34/7
f 27/36/8 12/32/8 28/37/8
f 30/39/3 32/59/3 6/6/3
f 14/40/9 3/3/9 2/2/9
f 1/42/4 32/60/4 30/43/4
