# Blender v2.80 (sub 41) OBJ File: 'AutopistaV2.blend'
# www.blender.org
o Cube.056_Cube.030
v -9.517928 -9.506104 -4.758466
v -9.517928 9.854886 -4.758466
v 5.674420 -9.506104 -4.758457
v 5.674420 9.854886 -4.758457
v 5.674421 -9.506104 0.615714
v 5.674421 9.854886 0.615714
v 0.182491 9.854886 -4.758471
v 0.944059 9.854886 -4.758471
v 0.944059 -9.506104 -4.758471
v 0.182491 -9.506104 -4.758471
v 0.944059 -9.506104 -5.020802
v 0.182490 -9.506104 -5.020801
v 0.182490 9.854886 -5.020801
v 0.944059 9.854886 -5.020802
v 11.192517 -9.506104 0.615714
v 11.192517 9.854886 0.615714
v -9.517928 -3.954501 -4.758466
v 5.674421 -3.954501 0.615714
v 5.674420 -3.954501 -4.758457
v 0.182491 -3.954501 -4.758471
v 0.944059 -3.954501 -4.758471
v 0.182490 -3.954501 -5.020801
v 0.944059 -3.954501 -5.020802
v 11.192517 -3.954501 0.615714
v 14.229522 9.854886 0.615714
v 14.229522 -3.954501 0.615714
v 11.192517 -9.506104 1.114628
v 11.192517 -3.954501 1.114628
v 14.229522 -3.954501 1.114628
v 5.674422 -9.506104 1.114628
v 5.674422 -3.954501 1.114628
v 11.192517 -2.043432 1.114628
v 14.229522 -2.043432 1.114628
v 5.674422 -2.043432 1.114628
v -0.672563 -9.506104 12.763511
v -0.672563 9.854886 12.763511
v -0.672563 -3.954501 12.763511
vt 0.495649 0.871794
vt 0.625000 0.750000
vt 0.446685 0.750000
vt 0.625000 0.500000
vt 0.446685 0.500000
vt 0.518371 0.928315
vt 0.799168 0.750000
vt 0.496627 0.874227
vt 0.495649 0.871794
vt 0.375000 0.924168
vt 0.496627 0.874227
vt 0.795757 0.750000
vt 0.375000 0.924168
vt 0.446685 0.500000
vt 0.375000 0.500000
vt 0.625000 0.500000
vt 0.799168 0.750000
vt 0.375000 0.920757
vt 0.375000 0.920757
vt 0.795757 0.750000
vt 0.375000 1.000000
vt 0.375000 0.750000
vt 0.625000 0.500000
vt 0.446685 0.500000
vt 0.446685 0.500000
vt 0.446685 0.500000
vt 0.375000 0.500000
vt 0.446685 0.500000
vt 0.375000 0.500000
vt 0.446685 0.500000
vt 0.446685 0.500000
vt 0.446685 0.500000
vt 0.375000 1.000000
vt 0.518371 0.928315
vt 0.875000 0.750000
vt 0.375000 0.500000
vt 0.875000 0.750000
vn 0.0000 0.0000 -1.0000
vn 1.0000 0.0000 -0.0000
vn -1.0000 0.0000 0.0000
vn 0.0000 1.0000 0.0000
vn 0.0000 0.0000 1.0000
vn -0.8927 0.0000 0.4506
s off
f 21/1/1 4/2/1 19/3/1
f 19/3/2 6/4/2 18/5/2
f 17/6/1 7/7/1 20/8/1
f 23/9/1 12/10/1 22/11/1
f 23/9/2 8/12/2 21/1/2
f 22/11/3 10/13/3 20/8/3
f 24/14/1 5/15/1 18/5/1
f 16/16/1 18/5/1 6/4/1
f 13/17/3 20/8/3 7/7/3
f 11/18/2 21/1/2 9/19/2
f 14/20/1 22/11/1 13/17/1
f 1/21/1 20/8/1 10/13/1
f 3/22/2 18/5/2 5/15/2
f 9/19/1 19/3/1 3/22/1
f 25/23/1 24/14/1 16/16/1
f 24/14/4 29/24/4 26/25/4
f 28/26/2 15/27/2 24/14/2
f 31/28/5 27/29/5 28/26/5
f 33/30/5 28/26/5 29/24/5
f 31/28/5 32/31/5 34/32/5
f 35/33/6 17/6/6 1/21/6
f 37/34/6 2/35/6 17/6/6
f 21/1/1 8/12/1 4/2/1
f 19/3/2 4/2/2 6/4/2
f 17/6/1 2/35/1 7/7/1
f 23/9/1 11/18/1 12/10/1
f 23/9/2 14/20/2 8/12/2
f 22/11/3 12/10/3 10/13/3
f 24/14/1 15/27/1 5/15/1
f 16/16/1 24/14/1 18/5/1
f 13/17/3 22/11/3 20/8/3
f 11/18/2 23/9/2 21/1/2
f 14/20/1 23/9/1 22/11/1
f 1/21/1 17/6/1 20/8/1
f 3/22/2 19/3/2 18/5/2
f 9/19/1 21/1/1 19/3/1
f 25/23/1 26/25/1 24/14/1
f 24/14/4 28/26/4 29/24/4
f 28/26/2 27/29/2 15/27/2
f 31/28/5 30/36/5 27/29/5
f 33/30/5 32/31/5 28/26/5
f 31/28/5 28/26/5 32/31/5
f 35/33/6 37/34/6 17/6/6
f 37/34/6 36/37/6 2/35/6
