# Blender v2.80 (sub 44) OBJ File: ''
# www.blender.org
o Cube.056_Cube.030
v 0.944059 -3.954501 -4.758471
v 5.674420 9.854886 -4.758457
v 5.674420 -3.954501 -4.758457
v 5.674421 9.854886 0.615714
v 5.674421 -3.954501 0.615714
v -9.517928 -3.954501 -4.758466
v 0.182491 9.854886 -4.758471
v 0.182491 -3.954501 -4.758471
v 0.944059 -3.954501 -5.020802
v 0.182490 -9.506104 -5.020802
v 0.182490 -3.954501 -5.020801
v 0.944059 9.854886 -4.758471
v 0.182491 -9.506104 -4.758471
v 11.192517 -3.954501 0.615714
v 5.674421 -9.506104 0.615714
v 11.192517 9.854886 0.615714
v 0.182490 9.854886 -5.020801
v 0.944059 -9.506104 -5.020802
v 0.944059 -9.506104 -4.758471
v 0.944059 9.854886 -5.020802
v -9.517928 -9.506104 -4.758466
v 5.674420 -9.506104 -4.758458
v 14.229522 9.854886 0.615714
v 14.229522 -3.954501 1.114628
v 14.229522 -3.954501 0.615714
v 11.192517 -3.954501 1.114628
v 11.192517 -9.506104 0.615714
v 5.674422 -3.954501 1.114628
v 11.192517 -9.506104 1.114628
v 14.229522 -2.043432 1.114628
v 11.192517 -2.043432 1.114628
v 5.674422 -2.043432 1.114628
v -0.672563 -9.506105 12.763511
v -0.672563 -3.954501 12.763511
v -9.517928 9.854886 -4.758465
v 5.674422 -9.506104 1.114628
v -0.672563 9.854885 12.763511
vt 0.139123 0.856629
vt 0.261580 0.500000
vt 0.261580 0.856629
vt 0.139123 0.643371
vt 0.000000 1.000000
vt 0.000000 0.643371
vt 0.494300 0.356629
vt 0.745418 0.000000
vt 0.745418 0.356629
vt 0.986602 0.356629
vt 0.966887 0.500000
vt 0.966887 0.356629
vt 0.993393 0.143371
vt 0.986603 0.500000
vt 0.986602 0.143371
vt 1.000000 0.356629
vt 0.993394 0.500000
vt 0.993394 0.356629
vt 0.888267 0.356629
vt 0.745418 0.500000
vt 0.745418 0.356629
vt 0.888267 0.000000
vt 0.745418 0.000000
vt 1.000000 0.000000
vt 0.993394 0.000000
vt 0.993393 0.000000
vt 0.986602 0.000000
vt 0.986602 0.000000
vt 0.966887 0.000000
vt 0.494300 0.500000
vt 0.745418 0.500000
vt 0.139123 0.500000
vt 0.000000 0.500000
vt 0.139123 1.000000
vt 0.261580 1.000000
vt 0.966887 0.000000
vt 0.467684 0.500000
vt 0.480600 0.578431
vt 0.467684 0.578431
vt 0.454769 0.643371
vt 0.467684 0.500000
vt 0.467684 0.643371
vt 0.405296 0.720937
vt 0.261580 0.578431
vt 0.405296 0.578431
vt 0.454768 0.500000
vt 0.405296 0.500000
vt 0.454769 0.578431
vt 0.454769 0.720936
vt 0.000000 0.500000
vt 0.000000 0.356629
vt 0.494300 0.000000
vt 0.139123 0.500000
vt 0.139123 1.000000
vt 0.986602 0.500000
vt 0.993394 0.500000
vt 1.000000 0.500000
vt 0.888267 0.500000
vt 0.966887 0.356629
vt 0.480600 0.500000
vt 0.454768 0.500000
vt 0.261580 0.720937
vt 0.000000 0.000000
vn 0.0000 0.0000 -1.0000
vn 1.0000 -0.0000 -0.0000
vn -1.0000 -0.0000 0.0000
vn 0.0000 1.0000 0.0000
vn 0.0000 -0.0000 1.0000
vn -0.8927 -0.0000 0.4506
s 1
f 1/1/1 2/2/1 3/3/1
f 3/4/2 4/5/2 5/6/2
f 6/7/1 7/8/1 8/9/1
f 9/10/1 10/11/1 11/12/1
f 9/13/2 12/14/2 1/15/2
f 11/16/3 13/17/3 8/18/3
f 14/19/1 15/20/1 5/21/1
f 16/22/1 5/21/1 4/23/1
f 17/24/3 8/18/3 7/25/3
f 18/26/2 1/15/2 19/27/2
f 20/28/1 11/12/1 17/29/1
f 21/30/1 8/9/1 13/31/1
f 22/32/2 5/6/2 15/33/2
f 19/34/1 3/3/1 22/35/1
f 23/36/1 14/19/1 16/22/1
f 14/37/4 24/38/4 25/39/4
f 26/40/2 27/41/2 14/42/2
f 28/43/5 29/44/5 26/45/5
f 30/46/5 26/45/5 24/47/5
f 28/43/5 31/48/5 32/49/5
f 33/50/6 6/7/6 21/30/6
f 34/51/6 35/52/6 6/7/6
f 1/1/1 12/53/1 2/2/1
f 3/4/2 2/54/2 4/5/2
f 6/7/1 35/52/1 7/8/1
f 9/10/1 18/55/1 10/11/1
f 9/13/2 20/56/2 12/14/2
f 11/16/3 10/57/3 13/17/3
f 14/19/1 27/58/1 15/20/1
f 16/22/1 14/19/1 5/21/1
f 17/24/3 11/16/3 8/18/3
f 18/26/2 9/13/2 1/15/2
f 20/28/1 9/10/1 11/12/1
f 21/30/1 6/7/1 8/9/1
f 22/32/2 3/4/2 5/6/2
f 19/34/1 1/1/1 3/3/1
f 23/36/1 25/59/1 14/19/1
f 14/37/4 26/60/4 24/38/4
f 26/40/2 29/61/2 27/41/2
f 28/43/5 36/62/5 29/44/5
f 30/46/5 31/48/5 26/45/5
f 28/43/5 26/45/5 31/48/5
f 33/50/6 34/51/6 6/7/6
f 34/51/6 37/63/6 35/52/6
