# Blender v2.80 (sub 44) OBJ File: ''
# www.blender.org
o Cube.057_Cube.031
v -25.434258 9.903423 4.242104
v -18.552599 -9.457567 4.242085
v -25.434258 -9.457567 4.242103
v -25.434256 9.903423 9.616275
v -25.434256 -9.457567 9.616275
v -17.791029 9.903423 4.242085
v -8.853152 -9.457567 4.242077
v -17.791029 -9.457567 4.242084
v -17.791029 -9.457567 3.979753
v -18.552599 9.903423 3.979754
v -17.791029 9.903423 3.979754
v -18.552599 9.903423 4.242085
v -18.552599 -9.457567 3.979753
v -29.109188 9.903423 9.616274
v -29.109188 -9.457567 9.616274
v -29.109188 9.903423 10.115199
v -29.109188 -9.457567 10.115199
v -25.434284 9.903423 10.115200
v 10.420403 9.903423 -6.129642
v 10.420403 -10.381758 -6.129643
v 31.119072 -10.381758 -6.887940
v 31.119072 9.903423 -6.887939
v 31.119074 -10.381758 -1.505818
v -8.853152 9.903423 4.242078
v -25.434284 -9.457567 10.115200
v 31.119074 9.903423 -1.505817
vt 0.524761 0.000000
vt 0.702116 0.389640
vt 0.524761 0.389640
vt 0.841347 0.000000
vt 0.980372 0.389640
vt 0.841347 0.389640
vt 0.524760 0.000000
vt 0.023908 0.179201
vt 0.023908 0.000000
vt 1.000000 0.389640
vt 0.980373 0.000000
vt 1.000000 0.000000
vt 0.632734 0.389640
vt 0.639520 0.779279
vt 0.632734 0.779279
vt 0.639520 0.389640
vt 0.646307 0.779279
vt 0.639520 0.779279
vt 0.936058 0.779279
vt 0.841347 0.389640
vt 0.936058 0.389640
vt 0.632734 0.779279
vt 0.619827 0.389640
vt 0.632734 0.389640
vt 0.619827 0.779279
vt 0.524761 0.389640
vt 0.524760 0.583681
vt 0.000000 0.583681
vt 0.000000 1.000000
vt 0.841347 0.408239
vt 0.702116 0.000000
vt 0.841347 0.000000
vt 0.702116 0.000000
vt 0.980372 0.000000
vt 0.524760 0.179201
vt 0.980373 0.389640
vt 0.639520 0.389640
vt 0.646307 0.389640
vt 0.841347 0.779279
vt 0.524761 0.779279
vt 0.524761 1.000000
vt 0.702116 0.408239
vn -0.0000 0.0000 -1.0000
vn -1.0000 0.0000 0.0000
vn 1.0000 0.0000 0.0000
vn -0.0000 0.0000 1.0000
vn -0.4739 0.0000 -0.8806
vn -0.0366 0.0000 -0.9993
s 1
f 1/1/1 2/2/1 3/3/1
f 4/4/2 3/5/2 5/6/2
f 6/7/1 7/8/1 8/9/1
f 9/10/1 10/11/1 11/12/1
f 12/13/2 13/14/2 2/15/2
f 8/16/3 11/17/3 6/18/3
f 5/19/1 14/20/1 4/21/1
f 15/22/2 16/23/2 14/24/2
f 17/25/4 18/26/4 16/23/4
f 7/8/5 19/27/5 20/28/5
f 19/27/6 21/29/6 20/28/6
f 22/30/3 23/31/3 21/32/3
f 1/1/1 12/33/1 2/2/1
f 4/4/2 1/34/2 3/5/2
f 6/7/1 24/35/1 7/8/1
f 9/10/1 13/36/1 10/11/1
f 12/13/2 10/37/2 13/14/2
f 8/16/3 9/38/3 11/17/3
f 5/19/1 15/39/1 14/20/1
f 15/22/2 17/25/2 16/23/2
f 17/25/4 25/40/4 18/26/4
f 7/8/5 24/35/5 19/27/5
f 19/27/6 22/41/6 21/29/6
f 22/30/3 26/42/3 23/31/3
