# Blender v2.80 (sub 44) OBJ File: ''
# www.blender.org
o BottomDer_ZBrush_defualt_group.002
v -13.601210 2.743317 4.260251
v -13.601210 2.963089 -4.260250
v -13.601210 2.743317 -4.260250
v 5.753588 2.743313 -4.260250
v 12.964357 2.963085 -4.260251
v 12.964357 2.743312 -4.260251
v 13.601210 2.963085 4.260250
v 13.601210 2.743312 4.260250
v 3.723477 2.963087 -4.260250
v 5.753588 2.963086 -4.260250
v -8.746748 2.743316 -4.260250
v 3.723477 2.743314 -4.260250
v -8.746748 2.743316 -3.323374
v 3.723477 2.743314 -3.323375
v -10.741289 2.963089 -4.260250
v -10.741289 2.743316 -4.260250
v -8.746748 2.963089 -4.260250
v 13.601208 2.743312 -3.037822
v 13.601210 -2.963089 -4.260251
v 13.601208 2.743312 -4.260251
v -10.741289 2.743314 -3.323374
v -8.746750 -2.963089 -3.323374
v -8.746750 -2.963089 -4.260250
v -10.741289 -2.963089 -4.260250
v -10.741289 -2.963089 -3.323374
v 5.753587 -2.963089 -3.323375
v 5.753588 2.743313 -3.323375
v 5.753587 -2.963089 -4.260250
v 3.723476 -2.963089 -4.260250
v 3.723476 -2.963089 -3.323375
v 13.601208 2.963085 -4.260251
v 12.964357 -2.963089 -3.037822
v 12.964357 2.743312 -3.037822
v 12.964357 -2.963089 -4.260251
v 13.601210 -2.963089 -3.037822
v -13.601210 2.963089 4.260251
vt 0.956350 0.313226
vt 0.967022 0.626452
vt 0.956350 0.626452
vt 0.690874 0.711510
vt 0.701546 0.976588
vt 0.690874 0.976588
vt 1.000000 0.000000
vt 0.989328 1.000000
vt 0.989327 0.000000
vt 0.701546 0.636880
vt 0.701546 0.711510
vt 0.690874 0.178457
vt 0.690874 0.636880
vt 0.413764 1.000000
vt 0.045496 0.821543
vt 0.045496 0.363120
vt 0.690874 0.000000
vt 0.701546 0.105135
vt 0.690874 0.105135
vt 0.701546 0.178457
vt 0.712219 0.268288
vt 0.989327 0.313226
vt 0.712219 0.313226
vt 0.896987 0.313226
vt 0.800130 0.523001
vt 0.800130 0.313226
vt 0.747042 0.732777
vt 0.792537 0.523001
vt 0.792537 0.732777
vt 0.413765 0.105135
vt 0.701546 0.523001
vt 0.747042 0.732777
vt 0.701546 0.732777
vt 0.800130 0.313226
vt 0.701546 0.523001
vt 0.701546 0.313226
vt 0.851492 0.732777
vt 0.896987 0.523001
vt 0.896987 0.732777
vt 0.413765 0.636880
vt 0.942483 0.523001
vt 0.896987 0.732777
vt 0.896987 0.523001
vt 0.701546 1.000000
vt 0.690874 1.000000
vt 0.956350 0.313226
vt 0.896987 0.523001
vt 0.896987 0.313226
vt 0.413765 0.976588
vt 0.851492 0.732777
vt 0.820565 0.523001
vt 0.851492 0.523001
vt 0.701546 0.000000
vt 0.701546 0.313226
vt 0.967022 0.313226
vt 1.000000 1.000000
vt 0.000000 1.000000
vt 0.045496 0.894865
vt 0.000000 0.894865
vt 0.059362 0.000000
vt 0.413765 0.000000
vt 0.059362 0.023412
vt 0.045496 0.288490
vt 0.000000 0.288490
vt 0.000000 0.023412
vt 0.000000 0.821543
vt 0.000000 0.363120
vt 0.701546 0.000000
vt 0.989327 0.268287
vt 0.896987 0.523001
vt 0.747042 0.523001
vt 0.413765 0.178457
vt 0.747042 0.523001
vt 0.800130 0.523001
vt 0.851492 0.523001
vt 0.413765 0.711510
vt 0.942483 0.732777
vt 0.956350 0.523001
vt 0.413765 1.000000
vt 0.820566 0.732777
vt 0.712218 0.000000
vn -1.0000 0.0000 0.0000
vn -0.0000 0.0000 -1.0000
vn 0.0000 0.0000 1.0000
vn -0.0000 -1.0000 0.0000
vn 1.0000 -0.0000 -0.0000
s 1
f 1/1/1 2/2/1 3/3/1
f 4/4/2 5/5/2 6/6/2
f 7/7/3 1/8/3 8/9/3
f 4/4/2 9/10/2 10/11/2
f 11/12/2 9/10/2 12/13/2
f 1/14/4 13/15/4 14/16/4
f 3/17/2 15/18/2 16/19/2
f 16/19/2 17/20/2 11/12/2
f 18/21/5 19/22/5 20/23/5
f 21/24/3 22/25/3 13/26/3
f 13/27/5 23/28/5 11/29/5
f 11/12/2 24/30/2 16/19/2
f 21/31/1 24/32/1 25/33/1
f 14/34/3 26/35/3 27/36/3
f 27/37/5 28/38/5 4/39/5
f 4/4/2 29/40/2 12/13/2
f 12/41/1 30/42/1 14/43/1
f 6/6/2 31/44/2 20/45/2
f 6/46/1 32/47/1 33/48/1
f 20/45/2 34/49/2 6/6/2
f 18/50/3 32/51/3 35/52/3
f 7/53/5 18/21/5 31/54/5
f 1/1/1 36/55/1 2/2/1
f 4/4/2 10/11/2 5/5/2
f 7/7/3 36/56/3 1/8/3
f 4/4/2 12/13/2 9/10/2
f 11/12/2 17/20/2 9/10/2
f 1/14/4 3/57/4 21/58/4
f 3/57/4 16/59/4 21/58/4
f 18/60/4 8/61/4 33/62/4
f 8/61/4 1/14/4 14/16/4
f 33/62/4 8/61/4 27/63/4
f 4/64/4 6/65/4 27/63/4
f 6/65/4 33/62/4 27/63/4
f 27/63/4 8/61/4 14/16/4
f 1/14/4 21/58/4 13/15/4
f 13/15/4 11/66/4 12/67/4
f 13/15/4 12/67/4 14/16/4
f 3/17/2 2/68/2 15/18/2
f 16/19/2 15/18/2 17/20/2
f 18/21/5 35/69/5 19/22/5
f 21/24/3 25/70/3 22/25/3
f 13/27/5 22/71/5 23/28/5
f 11/12/2 23/72/2 24/30/2
f 21/31/1 16/73/1 24/32/1
f 14/34/3 30/74/3 26/35/3
f 27/37/5 26/75/5 28/38/5
f 4/4/2 28/76/2 29/40/2
f 12/41/1 29/77/1 30/42/1
f 6/6/2 5/5/2 31/44/2
f 6/46/1 34/78/1 32/47/1
f 20/45/2 19/79/2 34/49/2
f 18/50/3 33/80/3 32/51/3
f 8/81/5 18/21/5 7/53/5
f 18/21/5 20/23/5 31/54/5
