# Blender v2.80 (sub 44) OBJ File: ''
# www.blender.org
o Door_Group10977.010
v -0.060667 3.039761 -0.615630
v 0.053847 3.039761 -0.615630
v -0.155315 3.039761 -2.729728
v 0.053846 0.209545 -0.615630
v 0.053847 3.039761 2.729728
v 0.053846 -1.602087 1.021650
v -0.060668 -1.602087 1.021650
v -0.060667 -1.602088 2.729728
v -0.060667 3.039761 2.729728
v 0.053846 -1.602088 2.729728
v 0.155315 -1.602087 1.021650
v -0.155316 -3.039761 2.729728
v 0.155315 -3.039761 -2.729728
v 0.155316 0.209545 -0.615630
v 0.155316 3.039761 -0.615630
v 0.155316 3.039761 -2.729728
v -0.155316 -1.602088 2.729728
v -0.155316 -3.039761 -2.729728
v -0.155316 -1.602087 1.021650
v -0.155316 0.209545 -0.615630
v -0.060667 0.209545 -0.615630
v 0.155315 -3.039761 2.729728
v -0.155315 3.039761 -0.615630
v 0.155315 -1.602088 2.729728
vt 0.262939 0.816786
vt 0.270967 0.816786
vt 0.256304 1.000000
vt 0.765473 0.245274
vt 1.000000 0.000000
vt 0.880255 0.402276
vt 0.114782 0.526868
vt 0.234527 0.526868
vt 0.234527 0.929144
vt 0.291830 0.526868
vt 0.298943 0.674895
vt 0.291830 0.674895
vt 0.802391 0.804551
vt 0.809027 0.929144
vt 0.794363 0.804551
vt 0.000000 0.526868
vt 0.148209 0.245274
vt 0.262991 0.402275
vt 0.285194 0.772143
vt 0.278081 0.526868
vt 0.285194 0.526868
vt 0.787250 0.929144
vt 0.765473 0.402276
vt 0.787250 0.402276
vt 0.285194 0.929144
vt 0.278081 0.772143
vt 0.305579 0.674895
vt 0.298943 0.526868
vt 0.305579 0.526868
vt 0.765473 0.526868
vt 0.502482 0.402276
vt 0.617264 0.245274
vt 0.285194 0.526868
vt 0.291830 0.772143
vt 0.285194 0.772143
vt 0.256304 0.526868
vt 0.234527 1.000000
vt 0.234527 0.526868
vt 0.291830 0.929144
vt 0.285194 0.929144
vt 0.262939 0.526868
vt 0.270967 0.526868
vt 0.278081 0.816786
vt 0.278081 1.000000
vt 0.256304 0.816786
vt 0.765473 0.000000
vt 1.000000 0.402276
vt 0.000000 0.929144
vt 0.000000 0.683870
vt 0.298943 0.526868
vt 0.809027 0.804551
vt 0.787250 0.929144
vt 0.787250 0.804551
vt 0.794363 0.402276
vt 0.802391 0.402276
vt 0.000000 0.000000
vt 0.148209 0.000000
vt 0.382736 0.402276
vt 0.382737 0.526868
vt 0.765473 0.929144
vt 0.278081 0.929144
vt 0.298943 0.674895
vt 0.617263 0.000000
vt 0.765473 0.000000
vt 0.382737 0.526868
vt 0.382737 0.402276
vt 0.291830 0.526868
vt 0.256304 1.000000
vn 0.0000 1.0000 0.0000
vn 1.0000 -0.0000 -0.0000
vn -1.0000 0.0000 0.0000
vn 0.0000 -0.0000 1.0000
vn 0.0000 0.0000 -1.0000
vn 0.0000 0.6705 0.7419
vn 0.0000 -1.0000 -0.0000
s 1
f 1/1/1 2/2/1 3/3/1
f 4/4/2 5/5/2 6/6/2
f 7/7/3 8/8/3 9/9/3
f 10/10/1 11/11/1 6/12/1
f 8/13/4 12/14/4 10/15/4
f 13/16/2 14/17/2 11/18/2
f 4/19/4 15/20/4 2/21/4
f 13/22/5 3/23/5 16/24/5
f 6/25/6 14/26/6 4/19/6
f 7/27/1 17/28/1 8/29/1
f 18/30/3 19/31/3 20/32/3
f 1/33/4 20/34/4 21/35/4
f 12/36/7 13/37/7 22/38/7
f 21/35/6 19/39/6 7/40/6
f 1/1/1 9/41/1 5/42/1
f 2/2/1 15/43/1 16/44/1
f 1/1/1 5/42/1 2/2/1
f 3/3/1 23/45/1 1/1/1
f 2/2/1 16/44/1 3/3/1
f 2/46/2 5/5/2 4/4/2
f 5/5/2 10/47/2 6/6/2
f 1/48/3 21/49/3 9/9/3
f 21/49/3 7/7/3 9/9/3
f 10/10/1 24/50/1 11/11/1
f 8/13/4 17/51/4 12/14/4
f 12/14/4 22/52/4 10/15/4
f 22/52/4 24/53/4 10/15/4
f 10/15/4 5/54/4 9/55/4
f 10/15/4 9/55/4 8/13/4
f 13/16/2 16/56/2 14/17/2
f 16/56/2 15/57/2 14/17/2
f 24/58/2 22/59/2 11/18/2
f 22/59/2 13/16/2 11/18/2
f 4/19/4 14/26/4 15/20/4
f 13/22/5 18/60/5 3/23/5
f 6/25/6 11/61/6 14/26/6
f 7/27/1 19/62/1 17/28/1
f 23/63/3 3/64/3 20/32/3
f 3/64/3 18/30/3 20/32/3
f 18/30/3 12/65/3 19/31/3
f 12/65/3 17/66/3 19/31/3
f 1/33/4 23/67/4 20/34/4
f 12/36/7 18/68/7 13/37/7
f 21/35/6 20/34/6 19/39/6
