# Blender v2.79 (sub 6) OBJ File: ''
# www.blender.org
o casa.001_Plane_Plane.001
v 16.348532 -6.835392 -5.674751
v 16.348532 -5.007027 -5.674751
v 15.914778 -12.846906 1.100407
v -13.320636 -7.232926 -12.126830
v -15.076009 -6.505090 -11.493406
v 16.194080 -4.450921 -9.131068
v -9.411301 -0.842366 -6.933039
v -16.074741 -0.840290 5.760303
v -15.687084 -0.843050 -7.408657
v -8.694393 5.756501 -6.745035
v 11.256937 5.941643 2.400218
v -14.081114 5.150661 4.964293
v -9.324329 5.652214 7.634481
v 3.747065 -6.856207 -7.343990
v -12.715138 -12.695394 -7.587165
v -15.815642 -12.856412 1.656059
v -14.904130 -12.465633 -12.301078
v -15.215216 -8.012491 -10.998157
v -15.282106 -12.828417 -12.329730
v -16.455946 6.044182 6.141977
v -14.915382 6.044182 3.543314
v -13.784155 6.044182 6.344510
v -14.000261 6.937703 6.090289
v -16.203983 12.828418 5.923234
v -16.203983 6.937703 5.923235
v -15.300598 12.828418 3.751981
v -14.566024 6.937703 3.807665
v -14.000261 12.828418 6.090286
vt 0.691142 0.971472
vt 0.603239 0.668632
vt 0.632018 0.693828
vt 0.410481 0.687805
vt 0.437115 0.508728
vt 0.410481 0.084469
vt 0.712162 0.259326
vt 0.837634 0.599145
vt 0.737317 0.616166
vt 0.853181 0.000000
vt 0.143556 0.000000
vt 0.410481 0.007440
vt 0.000000 0.136628
vt 0.952891 0.275312
vt 0.853181 0.275312
vt 0.875753 0.000000
vt 0.853180 0.662178
vt 0.845988 0.654085
vt 0.717127 0.649454
vt 0.712162 0.009202
vt 1.000000 0.000637
vt 0.952891 0.119083
vt 0.952891 0.000000
vt 0.945731 0.782281
vt 0.996053 0.662330
vt 0.997709 0.782281
vt 0.946691 0.903118
vt 0.995449 0.784069
vt 0.995449 0.903922
vt 0.400946 0.936818
vt 0.272154 0.911701
vt 0.400946 0.654449
vt 0.259287 0.654598
vt 0.945731 0.662178
vt 0.945731 0.840397
vt 0.848830 0.751419
vt 0.954527 0.565580
vt 0.906649 0.402129
vt 0.954527 0.275312
vt 0.710049 0.649873
vt 0.018344 0.041433
vt 0.410481 0.654449
vt 0.007630 0.559535
vt 0.988584 0.119719
vt 0.988584 0.230855
vt 0.952891 0.207099
vt 0.402184 0.654449
vt 0.408192 0.750195
vt 0.400946 0.750195
vt 0.906649 0.275312
vt 0.906649 0.560616
vt 0.853181 0.368410
vt 0.848830 0.940697
vt 0.712162 0.940697
vt 0.818073 0.926582
vt 0.691142 0.747179
vt 0.705563 0.649873
vt 0.705563 0.773115
vt 0.259287 0.723767
vt 0.000000 1.000000
vt 0.128576 0.654449
vt 1.000000 0.119719
vt 0.946377 0.662178
vt 0.945731 0.782281
vt 0.746999 0.652704
vt 0.259287 0.921559
vt 0.747827 0.662178
vt 0.005562 0.736378
vt 0.691142 0.649873
vt 0.673526 0.000000
vt 0.712162 0.000226
vn 0.4903 0.5348 -0.6882
vn 0.9833 -0.1734 -0.0552
vn 0.9241 0.3750 0.0742
vn 0.7322 -0.5330 -0.4241
vn 0.2833 0.3224 -0.9032
vn 0.1581 0.4379 -0.8850
vn -0.6458 0.2738 -0.7127
vn 0.0528 0.0113 -0.9985
vn -0.7879 -0.1292 0.6021
vn -0.8787 -0.0411 0.4757
vn -0.1335 -0.1554 0.9788
vn 0.9621 -0.0125 0.2725
vn -0.8622 -0.1161 0.4931
vn -0.6964 0.6807 0.2275
vn -0.0805 0.0643 -0.9947
vn 0.0617 0.0146 -0.9980
vn -0.1956 0.3314 -0.9230
vn 0.4151 -0.6863 -0.5973
vn -0.0756 0.0000 0.9971
vn -0.7864 -0.1038 -0.6089
vn 0.9706 -0.0000 -0.2406
vn -0.9135 0.3144 0.2583
vn -0.9336 0.1088 0.3413
vn -0.9819 0.1110 -0.1535
vn 0.0610 0.5883 -0.8063
vn -0.9948 0.0439 -0.0923
vn -0.8170 0.2768 -0.5059
vn -0.6561 0.0498 0.7531
vn 0.2127 0.2546 -0.9434
vn 0.2465 -0.0059 0.9691
vn 0.0167 -0.3126 0.9497
vn 0.6643 -0.6652 -0.3409
vn 0.7908 -0.4715 -0.3902
vn -0.9985 0.0268 -0.0468
vn -0.9233 -0.0000 -0.3841
vn 0.8692 0.1038 -0.4834
vn 0.9990 0.0000 -0.0446
vn 0.1313 0.0000 -0.9913
s 1
f 11/1/1 1/2/2 2/3/3
f 11/1/1 3/4/4 1/2/2
f 10/5/5 11/6/1 14/7/6
f 15/8/7 4/9/8 3/10/4
f 8/11/9 16/12/10 13/13/11
f 17/14/12 18/15/13 16/16/14
f 19/17/15 4/9/8 17/18/16
f 4/9/8 5/19/17 6/20/18
f 23/21/19 24/22/19 25/23/19
f 25/24/20 26/25/20 27/26/20
f 27/27/21 28/28/21 23/29/21
f 8/30/9 12/31/22 7/32/23
f 12/31/22 10/33/24 7/32/23
f 7/34/25 5/35/26 9/36/27
f 5/37/28 7/38/23 10/39/24
f 5/40/29 10/5/5 14/7/6
f 3/10/4 4/9/8 6/20/18
f 13/13/11 12/41/22 8/11/9
f 3/42/30 11/43/30 13/13/30
f 3/42/31 13/13/11 16/12/10
f 17/44/12 4/45/8 18/46/13
f 15/47/7 19/48/32 17/49/33
f 19/17/15 5/19/17 4/9/8
f 17/50/33 16/51/10 15/52/7
f 5/53/26 19/54/34 18/55/13
f 18/56/13 15/57/7 5/58/26
f 15/59/7 8/60/9 5/61/26
f 23/21/19 28/62/19 24/22/19
f 25/24/35 24/63/35 26/25/35
f 27/27/36 26/64/36 28/28/36
f 18/65/13 4/9/8 15/8/7
f 8/60/9 15/59/7 16/66/10
f 16/67/14 18/55/13 19/54/34
f 9/68/27 5/61/26 8/60/9
f 6/69/18 2/3/37 1/2/2
f 3/4/4 6/69/18 1/2/2
f 14/7/6 11/6/1 2/70/3
f 2/70/38 1/71/38 14/7/38
