# Blender v2.79 (sub 6) OBJ File: ''
# www.blender.org
o casa.001_Plane_Plane.001
v 15.110264 -0.842364 11.940063
v 16.348532 -6.835392 -5.674751
v 16.348532 -5.007027 -5.674751
v 15.014055 -12.828417 11.929385
v 16.414728 -12.823991 -9.735390
v -8.723118 -7.228730 -11.687245
v -15.320436 -3.840960 -11.824056
v -14.904130 -7.549078 -12.301077
v -15.266725 -4.997593 -11.820029
v 16.383215 -7.127375 -9.850858
v -9.411301 -0.842366 -6.933039
v -10.215122 -0.842364 3.670840
v -15.590866 -5.008518 -7.401478
v -15.655318 -0.842366 -7.406365
v -9.239731 5.150661 -9.196342
v -9.210199 -0.842366 -9.468716
v 3.436500 6.836982 -6.278249
v 3.551605 6.845747 -7.799082
v 15.879169 6.888256 -5.477802
v 16.548222 -0.842365 -5.945042
v 14.551794 6.874820 11.311019
v -16.459143 -0.842364 3.197514
v -16.459143 5.150661 3.197513
v -10.215123 5.150661 3.670840
v -10.693437 5.150661 9.980637
v -10.120664 6.828991 9.328891
v 3.534529 -6.835392 -7.173406
v 3.737435 -0.842365 -6.834538
v -9.411300 -6.835392 -6.933040
v -9.239731 -6.835392 -9.196341
v 3.862969 -0.842366 -8.495595
v -8.861197 -12.822232 -11.733526
v -16.937456 -6.835391 9.507314
v -16.937456 -12.828415 9.507312
v -8.759928 6.828990 -8.621680
v -14.904130 -12.465633 -12.301078
v -15.173185 -10.945826 -10.900966
v -15.353617 -12.465634 -6.371552
v -15.282106 -12.828417 -12.329730
v -9.865547 -7.549078 -5.955533
v -9.865547 -12.465634 -5.955532
v -15.443999 -7.623106 -7.458689
v 16.630899 -3.845819 -9.399671
v -15.333054 -6.835392 -7.381937
v -15.162386 -7.672457 -10.900146
v -16.455946 5.150661 6.141995
v -16.251278 6.937703 3.442056
v -16.251278 5.150661 3.442056
v -13.579490 5.150661 3.644591
v -13.784158 6.937704 6.344527
v -13.784158 5.150661 6.344528
v -13.579490 6.937703 3.644591
v -16.455946 6.937704 6.141994
v -14.000261 6.937703 6.090289
v -16.203983 12.828418 5.923234
v -16.203983 6.937703 5.923235
v -15.300598 12.828418 3.751981
v -14.566024 6.937703 3.807665
v -14.000261 12.828418 6.090286
v -15.474608 -10.945826 -7.641057
v 16.630827 -5.007028 -9.398726
v -16.937458 5.150661 9.507312
v -14.998420 -6.835392 -11.796375
vt 0.479933 0.384295
vt 0.560341 0.695655
vt 0.535413 0.695156
vt 0.476163 0.699026
vt 0.644662 0.387619
vt 0.644662 0.768380
vt 0.833074 0.115529
vt 0.826839 0.006573
vt 0.876128 0.000952
vt 0.805587 0.910648
vt 0.725396 0.911797
vt 0.725396 0.801952
vt 0.494751 0.813422
vt 0.379429 0.773635
vt 0.494746 0.768800
vt 0.677260 0.480351
vt 0.710916 0.384295
vt 0.709142 0.477224
vt 0.977750 0.667126
vt 0.730058 0.801930
vt 0.725396 0.666845
vt 0.247182 0.669250
vt 0.011834 0.804627
vt 0.000000 0.668848
vt 0.379429 0.687804
vt 0.382847 0.392400
vt 0.367163 0.815645
vt 0.251808 0.815666
vt 0.251808 0.705821
vt 0.610074 0.813391
vt 0.610074 0.773574
vt 0.977975 0.562096
vt 0.729600 0.562163
vt 0.725396 0.113080
vt 0.725464 0.557863
vt 0.115288 0.563827
vt 0.000037 0.563827
vt 0.345782 0.453975
vt 0.644662 0.393631
vt 0.677260 0.384295
vt 0.644662 0.709426
vt 0.251808 0.705799
vt 0.279402 0.688927
vt 0.366276 0.705799
vt 1.000000 0.113124
vt 0.898391 0.106376
vt 0.993026 0.106468
vt 0.001745 0.806485
vt 0.094623 0.904422
vt 0.000000 0.903018
vt 0.724493 0.875414
vt 0.611804 0.777128
vt 0.724493 0.768800
vt 0.840751 0.904386
vt 0.942615 0.802459
vt 0.948470 0.904386
vt 0.254403 0.563827
vt 0.346517 0.647762
vt 0.252766 0.644708
vt 0.898391 0.000000
vt 0.835074 0.557101
vt 0.898394 0.387233
vt 0.919791 0.309892
vt 0.919791 0.387603
vt 0.574678 0.008963
vt 0.689044 0.024858
vt 0.626049 0.024872
vt 0.932779 0.435101
vt 0.898391 0.387612
vt 0.932779 0.387603
vt 0.094623 0.804627
vt 0.118990 0.852440
vt 0.094623 0.852123
vt 0.932789 0.482113
vt 0.898391 0.435117
vt 0.932789 0.435110
vt 0.932758 0.529126
vt 0.898391 0.482119
vt 0.932758 0.482121
vt 0.677260 0.761640
vt 0.719807 0.658408
vt 0.719807 0.761638
vt 0.677260 0.658408
vt 0.720526 0.554785
vt 0.720526 0.657690
vt 0.932529 0.113124
vt 0.932529 0.204685
vt 0.898391 0.138421
vt 0.689075 0.082288
vt 0.725396 0.000037
vt 0.725396 0.384204
vt 0.574882 0.086680
vt 0.610074 0.384234
vt 0.494751 0.273260
vt 0.534860 0.760664
vt 0.567525 0.768800
vt 0.003495 0.595897
vt 0.251808 0.564036
vt 0.494751 0.999970
vt 0.379429 1.000000
vt 0.840751 0.801930
vt 0.840751 0.906106
vt 0.681714 0.387048
vt 0.977747 0.772331
vt 0.251808 0.804138
vt 0.367164 0.705799
vt 0.379429 0.010590
vt 0.378675 0.444804
vt 0.710916 0.554785
vt 0.230499 0.000000
vt 0.345789 0.563827
vt 0.000000 0.001697
vt 0.967553 0.801930
vt 0.677260 0.721665
vt 0.280037 0.648119
vt 0.342423 0.689597
vt 1.000000 0.000000
vt 0.623587 0.000000
vt 0.094623 0.804627
vt 0.610074 0.873625
vt 0.848009 0.801930
vt 0.366158 0.576550
vt 0.898391 0.562096
vt 0.898391 0.309577
vt 0.625112 0.085447
vt 0.898391 0.435110
vt 0.118990 0.804944
vt 0.898391 0.482119
vt 0.898391 0.529124
vt 0.677260 0.658411
vt 0.677397 0.555115
vt 0.926901 0.309577
vt 0.898391 0.208739
vt 0.926901 0.204685
vt 0.379429 0.384295
vt 0.379429 0.273290
vt 0.494751 0.086712
vt 0.519029 0.760364
vt 0.003547 0.563827
vn 0.9966 0.0321 0.0764
vn 0.9982 -0.0197 0.0563
vn 0.9970 -0.0187 0.0745
vn 0.9966 0.0194 0.0801
vn 0.9974 -0.0132 0.0711
vn 0.7524 -0.0237 -0.6582
vn 0.0618 -0.9544 -0.2919
vn -0.3759 -0.2569 -0.8903
vn -0.0191 0.1826 -0.9830
vn -0.6658 0.0867 -0.7411
vn -0.6553 -0.0110 -0.7553
vn 0.0756 -0.0000 -0.9971
vn -0.9970 -0.0003 -0.0776
vn -0.9971 -0.0003 -0.0765
vn -0.9969 -0.0007 -0.0791
vn 0.9972 -0.0006 0.0754
vn 0.9966 0.0335 0.0756
vn 0.9482 0.0243 -0.3168
vn 0.0835 0.0082 -0.9965
vn 0.0819 0.0799 -0.9934
vn 0.0741 0.0628 -0.9953
vn 0.0561 0.2738 -0.9602
vn 0.0673 0.0690 -0.9953
vn 0.0693 -0.0017 -0.9976
vn 0.9936 0.0804 0.0796
vn 0.9938 0.0783 0.0786
vn -0.9971 0.0015 -0.0756
vn 0.1525 -0.2209 -0.9633
vn -0.5986 0.0138 -0.8009
vn -0.2423 0.0643 -0.9681
vn -0.7605 -0.0020 0.6493
vn -0.0756 -0.0000 0.9971
vn -0.9522 0.2969 -0.0722
vn 0.9900 0.0557 0.1298
vn -0.0279 0.6449 0.7637
vn 0.9959 0.0881 0.0207
vn -0.0048 0.0058 -1.0000
vn 0.1774 -0.1154 -0.9773
vn 0.1619 -0.0976 -0.9820
vn 0.0947 0.5384 -0.8374
vn 0.0322 0.9992 -0.0256
vn 0.0671 0.9937 -0.0901
vn -0.9832 0.0125 -0.1823
vn 0.0403 -0.9988 -0.0291
vn 0.0361 0.0317 -0.9988
vn 0.7072 0.0080 -0.7070
vn 0.9875 0.1401 0.0728
vn -0.9995 -0.0159 -0.0264
vn -0.3636 -0.8897 0.2761
vn -0.9971 0.0000 -0.0756
vn 0.9971 0.0000 0.0756
vn -0.7864 -0.1038 -0.6089
vn 0.9706 -0.0000 -0.2406
vn -0.0495 0.8390 -0.5419
vn -0.9976 0.0664 -0.0210
vn -0.9934 0.0860 -0.0753
vn -0.9970 -0.0032 -0.0774
vn 0.9548 -0.0352 -0.2952
vn 0.1086 0.0525 -0.9927
vn 0.6779 -0.1551 -0.7186
vn 0.0194 -0.0026 -0.9998
vn -0.6516 -0.0000 -0.7585
vn -0.8523 -0.0000 -0.5230
vn 0.1025 0.0457 -0.9937
vn 0.0637 0.0746 -0.9952
vn -0.0734 0.2621 0.9623
vn -0.0586 0.0904 0.9942
vn -0.0747 0.3830 0.9207
vn 0.9964 -0.0380 0.0753
vn -0.9969 -0.0000 -0.0791
vn 0.0742 -0.0456 -0.9962
vn -0.0683 0.0317 0.9972
vn -0.7585 0.0000 0.6516
vn -0.0758 -0.0003 0.9971
vn 0.0630 0.3071 -0.9496
vn 0.9827 -0.0479 0.1789
vn 0.0925 -0.0177 -0.9956
vn 0.2571 -0.2071 -0.9439
vn -0.0000 1.0000 0.0000
vn -0.9852 -0.0000 -0.1713
vn 0.0268 -0.9984 -0.0504
vn 0.1578 0.1228 -0.9798
vn 0.9866 0.1450 0.0748
vn -0.9940 -0.0512 -0.0964
vn -0.9233 -0.0000 -0.3841
vn 0.8692 0.1038 -0.4834
vn -0.9964 0.0000 -0.0850
vn 0.0691 -0.0679 -0.9953
vn 0.1162 0.0000 -0.9932
s 1
f 1/1/1 2/2/2 3/3/3
f 20/4/4 1/1/1 3/3/3
f 1/1/1 4/5/5 2/2/2
f 4/5/5 5/6/6 2/2/2
f 6/7/7 8/8/8 9/9/9
f 13/10/10 14/11/11 11/12/12
f 11/13/13 15/14/14 16/15/15
f 31/16/16 17/17/17 28/18/18
f 16/19/19 18/20/20 31/21/21
f 28/22/22 19/23/23 20/24/24
f 1/1/1 19/25/25 21/26/26
f 22/27/12 23/28/12 24/29/12
f 29/30/27 16/15/27 30/31/27
f 30/32/28 31/21/28 27/33/28
f 32/34/29 6/7/30 5/35/6
f 33/36/31 34/37/32 25/38/32
f 35/39/33 15/40/33 26/41/33
f 36/42/34 37/43/35 38/44/36
f 39/45/37 8/46/8 36/47/12
f 38/48/38 40/49/39 41/50/12
f 36/51/40 41/52/41 32/53/42
f 32/54/29 40/55/43 6/56/30
f 6/57/7 42/58/44 8/59/8
f 6/7/30 7/60/45 10/61/46
f 44/62/47 9/63/48 13/64/10
f 9/65/48 37/66/35 45/67/49
f 46/68/50 47/69/50 48/70/50
f 49/71/51 50/72/51 51/73/51
f 48/74/12 52/75/12 49/76/12
f 51/77/32 53/78/32 46/79/32
f 54/80/32 55/81/32 56/82/32
f 56/83/52 57/84/52 58/85/52
f 58/86/53 59/87/53 54/88/53
f 60/89/54 39/90/55 34/91/56
f 13/92/10 33/93/31 22/94/57
f 61/95/58 2/2/2 10/96/46
f 3/97/59 27/98/59 28/22/60
f 6/7/30 9/9/61 7/60/45
f 12/99/62 24/100/63 11/13/13
f 24/100/63 15/14/14 11/13/13
f 11/12/12 29/101/12 13/10/10
f 29/101/12 44/102/12 13/10/10
f 31/16/16 18/103/17 17/17/17
f 16/19/19 15/104/64 18/20/20
f 28/22/22 17/105/65 19/23/23
f 1/1/1 20/4/4 19/25/25
f 12/106/62 22/27/12 24/29/63
f 25/38/66 21/107/67 26/108/68
f 27/109/69 31/16/16 28/18/18
f 29/30/70 11/13/13 16/15/15
f 30/32/71 16/19/19 31/21/21
f 5/35/6 6/7/30 10/61/46
f 1/110/72 21/107/67 25/38/66
f 25/38/32 62/111/73 33/36/31
f 4/112/74 1/110/72 25/38/66
f 4/112/32 25/38/32 34/37/32
f 18/20/75 15/104/75 35/113/75
f 15/40/33 25/114/33 26/41/33
f 36/42/34 8/59/76 37/43/35
f 8/59/76 45/115/49 37/43/35
f 37/43/35 60/116/54 38/44/36
f 32/117/42 39/45/77 36/47/40
f 39/90/37 9/65/9 8/118/8
f 38/48/38 42/119/78 40/49/39
f 36/51/40 38/120/79 41/52/41
f 32/54/29 41/121/80 40/55/43
f 6/57/7 40/122/81 42/58/44
f 10/61/46 7/60/45 43/123/82
f 44/62/83 63/124/83 9/63/83
f 9/65/48 39/90/55 37/66/35
f 45/67/49 42/125/84 9/65/48
f 42/125/84 33/93/31 9/65/48
f 46/68/50 53/126/50 47/69/50
f 49/71/51 52/127/51 50/72/51
f 48/74/12 47/128/12 52/75/12
f 51/77/32 50/129/32 53/78/32
f 54/80/32 59/130/32 55/81/32
f 56/83/85 55/131/85 57/84/85
f 58/132/86 57/133/86 59/134/86
f 42/58/84 38/44/36 60/116/54
f 45/115/49 8/59/76 42/58/84
f 34/91/87 33/93/31 60/89/54
f 33/93/31 42/125/84 60/89/54
f 60/89/54 37/66/35 39/90/55
f 33/93/31 62/135/73 22/94/57
f 62/135/73 23/136/50 22/94/57
f 22/94/57 14/137/11 13/92/10
f 13/92/10 9/65/48 33/93/31
f 61/95/58 3/3/51 2/2/2
f 5/6/6 10/96/46 2/2/2
f 10/96/46 43/138/82 61/95/58
f 28/22/22 20/24/24 3/97/88
f 3/97/89 2/139/89 27/98/89
