# Blender v2.79 (sub 6) OBJ File: ''
# www.blender.org
o valla_casas.001_Plane.004_Plane.000
v -1.971537 0.437057 -0.086208
v 1.971761 -0.743148 -0.086208
v 1.971761 0.437058 -0.086207
v 1.971761 -0.743148 -0.145868
v -1.971537 0.437057 -0.145868
v 1.971761 0.437058 -0.145868
v -1.971537 -0.743148 -0.145868
v -1.971537 -0.743148 -0.086208
v 1.937726 -1.913799 -0.100989
v -1.952088 -1.946660 -0.100990
v 1.937726 -1.946659 -0.100989
v 1.937726 -1.946659 -0.145868
v -1.952088 -1.913800 -0.145868
v 1.937726 -1.913799 -0.145868
v -1.952088 -1.913800 -0.100990
v -1.952088 -1.946660 -0.145868
v -1.952088 1.542993 -0.100990
v 1.937725 1.510133 -0.100990
v 1.937725 1.542993 -0.100990
v 1.937725 1.510133 -0.145868
v -1.952088 1.542993 -0.145868
v 1.937725 1.542993 -0.145868
v -1.952088 1.510133 -0.145868
v -1.952088 1.510133 -0.100990
v 1.937726 1.195755 -0.100990
v -1.952088 1.162894 -0.100990
v 1.937726 1.162895 -0.100990
v 1.937726 1.162895 -0.145868
v -1.952088 1.195754 -0.145868
v 1.937726 1.195755 -0.145868
v -1.952088 1.195754 -0.100990
v -1.952088 1.162894 -0.145868
v -1.971761 1.681769 -0.097245
v -1.971761 -2.191243 -0.145868
v -1.971761 -2.191243 -0.097246
v -1.971761 2.191242 0.097246
v -1.971761 1.681769 -0.145868
v -1.919524 -2.191243 -0.145868
v -1.919525 1.681769 -0.097245
v -1.919524 -2.191243 -0.097246
v -1.919525 2.191242 0.097246
v -1.919525 2.191242 0.145868
v -1.971761 2.191242 0.145868
v -1.919525 1.681769 -0.145868
v -1.485534 1.681769 -0.097245
v -1.485534 -2.191243 -0.145868
v -1.485534 -2.191243 -0.097246
v -1.485534 2.191242 0.097246
v -1.485534 1.681769 -0.145868
v -1.433298 -2.191243 -0.145868
v -1.433298 1.681769 -0.097245
v -1.433298 -2.191243 -0.097246
v -1.433298 2.191242 0.097246
v -1.433298 2.191242 0.145868
v -1.485534 2.191242 0.145868
v -1.433298 1.681769 -0.145868
v -0.999308 1.681769 -0.097245
v -0.999307 -2.191243 -0.145868
v -0.999307 -2.191243 -0.097246
v -0.999308 2.191242 0.097246
v -0.999308 1.681769 -0.145868
v -0.947071 -2.191243 -0.145868
v -0.947071 1.681769 -0.097245
v -0.947071 -2.191243 -0.097246
v -0.947071 2.191242 0.097246
v -0.947071 2.191242 0.145868
v -0.999308 2.191242 0.145868
v -0.947071 1.681769 -0.145868
v -0.513081 1.681769 -0.097245
v -0.513081 -2.191243 -0.145868
v -0.513081 -2.191243 -0.097245
v -0.513081 2.191242 0.097246
v -0.513081 1.681769 -0.145868
v -0.460844 -2.191243 -0.145868
v -0.460845 1.681769 -0.097245
v -0.460844 -2.191243 -0.097245
v -0.460845 2.191242 0.097246
v -0.460845 2.191242 0.145868
v -0.513081 2.191242 0.145868
v -0.460845 1.681769 -0.145868
v -0.026854 1.681769 -0.097245
v -0.026854 -2.191243 -0.145868
v -0.026854 -2.191243 -0.097245
v -0.026854 2.191242 0.097246
v -0.026854 1.681769 -0.145868
v 0.025382 -2.191243 -0.145868
v 0.025382 1.681769 -0.097245
v 0.025382 -2.191243 -0.097245
v 0.025381 2.191242 0.097246
v 0.025381 2.191242 0.145868
v -0.026854 2.191242 0.145868
v 0.025382 1.681769 -0.145868
v 0.459372 1.681769 -0.097245
v 0.459373 -2.191243 -0.145868
v 0.459373 -2.191243 -0.097245
v 0.459372 2.191243 0.097246
v 0.459372 1.681769 -0.145868
v 0.511609 -2.191243 -0.145868
v 0.511609 1.681769 -0.097245
v 0.511609 -2.191243 -0.097245
v 0.511608 2.191243 0.097246
v 0.511608 2.191243 0.145868
v 0.459372 2.191243 0.145868
v 0.511609 1.681769 -0.145868
v 0.945599 1.681769 -0.097245
v 0.945599 -2.191243 -0.145868
v 0.945599 -2.191243 -0.097245
v 0.945598 2.191243 0.097246
v 0.945599 1.681769 -0.145868
v 0.997836 -2.191243 -0.145868
v 0.997835 1.681769 -0.097245
v 0.997836 -2.191243 -0.097245
v 0.997835 2.191243 0.097246
v 0.997835 2.191243 0.145868
v 0.945598 2.191243 0.145868
v 0.997835 1.681769 -0.145868
v 1.431826 1.681769 -0.097245
v 1.431826 -2.191243 -0.145868
v 1.431826 -2.191243 -0.097245
v 1.431825 2.191243 0.097246
v 1.431826 1.681769 -0.145868
v 1.484062 -2.191243 -0.145868
v 1.484062 1.681769 -0.097245
v 1.484062 -2.191243 -0.097245
v 1.484061 2.191243 0.097246
v 1.484061 2.191243 0.145868
v 1.431825 2.191243 0.145868
v 1.484062 1.681769 -0.145868
v 1.918052 1.681769 -0.097245
v 1.918053 -2.191243 -0.145868
v 1.918053 -2.191243 -0.097245
v 1.918052 2.191243 0.097246
v 1.918052 1.681769 -0.145868
v 1.970289 -2.191243 -0.145868
v 1.970289 1.681769 -0.097245
v 1.970289 -2.191243 -0.097245
v 1.970288 2.191243 0.097246
v 1.970288 2.191243 0.145868
v 1.918052 2.191243 0.145868
v 1.970289 1.681769 -0.145868
vt 0.000000 0.000000
vt 0.981192 3.453685
vt 0.000000 3.453685
vt 0.981199 3.453685
vt 1.962392 0.000000
vt 1.962392 3.453685
vt 0.492380 4.487353
vt 0.441948 3.453685
vt 0.492380 3.453685
vt 0.441948 4.487353
vt 0.391523 3.453685
vt 0.441948 3.453685
vt 6.015329 3.453685
vt 6.065754 0.000000
vt 6.065754 3.453685
vt 5.964897 0.000000
vt 6.015329 3.453685
vt 5.964897 3.453685
vt 0.282242 6.860526
vt 0.309561 3.453685
vt 0.309561 6.860526
vt 0.336886 3.453685
vt 0.309561 6.860526
vt 0.309568 3.453685
vt 1.287700 3.492989
vt 1.315471 3.453685
vt 1.315471 3.492989
vt 1.259922 3.453685
vt 1.232151 3.492989
vt 1.232151 3.453685
vt 0.075871 6.860526
vt 0.037932 3.453685
vt 0.075871 3.453685
vt 0.000000 6.860526
vt 0.037932 3.453685
vt 0.037932 6.860526
vt 0.364205 3.453685
vt 0.391523 6.860526
vt 0.364205 6.860526
vt 0.282242 3.453685
vt 0.254923 6.860526
vt 0.254923 3.453685
vt 1.343250 3.453685
vt 1.315471 3.492989
vt 1.315471 3.453685
vt 1.371028 3.453685
vt 1.343250 3.492989
vt 1.343250 3.453685
vt 0.189673 3.453685
vt 0.227605 6.860526
vt 0.189673 6.860526
vt 0.151734 3.453685
vt 0.189673 6.860526
vt 0.151741 6.860526
vt 0.227605 6.860526
vt 0.254923 3.453685
vt 0.254923 6.860526
vt 0.364205 3.453685
vt 0.336886 6.860526
vt 0.336886 3.453685
vt 1.371028 3.492989
vt 1.398799 3.453685
vt 1.398799 3.492989
vt 1.259922 3.492989
vt 1.287700 3.453685
vt 1.287700 3.492989
vt 0.151734 6.860526
vt 0.113802 3.453685
vt 0.151734 3.453685
vt 0.075871 3.453685
vt 0.113802 6.860526
vt 0.075871 6.860526
vt 4.227045 3.389278
vt 4.367335 0.000000
vt 4.408368 0.002360
vt 4.367335 3.844241
vt 4.186005 3.386919
vt 5.923866 3.846601
vt 5.783574 0.457323
vt 5.964897 3.844241
vt 5.923866 0.002360
vt 5.964897 0.000000
vt 6.198217 0.477314
vt 6.154063 0.000000
vt 6.198217 0.000000
vt 1.108853 3.453685
vt 1.067758 3.499431
vt 1.067758 3.453685
vt 0.656772 3.499438
vt 0.697873 3.453685
vt 0.697873 3.499438
vt 6.065762 0.477321
vt 6.109909 3.813732
vt 6.065754 3.813732
vt 6.109909 0.000000
vt 6.109909 0.477321
vt 6.198217 3.813739
vt 6.154063 0.477314
vt 2.892871 3.389278
vt 3.033162 0.000000
vt 3.074201 0.002360
vt 3.033162 3.844241
vt 2.851838 3.386919
vt 5.701502 3.846601
vt 5.561211 0.457323
vt 5.742535 3.844241
vt 5.701502 0.002360
vt 5.742535 0.000000
vt 6.374835 0.477314
vt 6.330681 0.000000
vt 6.374835 0.000000
vt 0.944461 3.453685
vt 0.903367 3.499438
vt 0.903367 3.453685
vt 1.108853 3.499438
vt 1.149954 3.453685
vt 1.149954 3.499438
vt 6.816371 0.477321
vt 6.860526 3.813732
vt 6.816371 3.813732
vt 6.816371 0.000000
vt 6.860526 0.477321
vt 6.374835 3.813739
vt 6.330681 0.477314
vt 4.671764 3.389278
vt 4.812055 0.000000
vt 4.853095 0.002360
vt 4.812055 3.844241
vt 4.630731 3.386919
vt 5.034419 3.846601
vt 4.894127 0.457323
vt 5.075451 3.844241
vt 5.034419 0.002360
vt 5.075451 0.000000
vt 6.507298 3.336418
vt 6.551452 3.813739
vt 6.507298 3.813739
vt 0.615677 3.453685
vt 0.574576 3.499438
vt 0.574576 3.453685
vt 1.149954 3.499438
vt 1.191049 3.453685
vt 1.191049 3.499438
vt 6.595606 3.336418
vt 6.551452 0.000000
vt 6.595606 0.000000
vt 6.595606 3.813732
vt 6.551452 3.336418
vt 6.507298 0.000000
vt 6.551452 3.336418
vt 4.004681 3.389278
vt 4.144972 0.000000
vt 4.186005 0.002360
vt 4.144972 3.844241
vt 3.963648 3.386919
vt 3.700245 3.846601
vt 3.559961 0.457323
vt 3.741284 3.844241
vt 3.700252 0.002360
vt 3.741284 0.000000
vt 6.242372 0.477314
vt 6.198217 0.000000
vt 6.242372 0.000000
vt 0.862265 3.499438
vt 0.903367 3.453685
vt 0.903367 3.499438
vt 0.533481 3.499438
vt 0.574576 3.453685
vt 0.574576 3.499438
vt 6.109916 0.477314
vt 6.154063 3.813732
vt 6.109909 3.813732
vt 6.109916 0.000000
vt 6.154063 0.477314
vt 6.242372 3.813739
vt 6.198217 0.477314
vt 3.782318 3.389278
vt 3.922608 0.000000
vt 3.963648 0.002360
vt 3.922608 3.844241
vt 3.741284 3.386919
vt 4.589692 3.846601
vt 4.449408 0.457323
vt 4.630731 3.844241
vt 4.589699 0.002360
vt 4.630731 0.000000
vt 6.463144 0.477314
vt 6.418989 0.000000
vt 6.463144 0.000000
vt 1.232151 3.453685
vt 1.191049 3.499431
vt 1.191049 3.453685
vt 0.697873 3.499438
vt 0.738968 3.453685
vt 0.738968 3.499438
vt 6.772217 0.477314
vt 6.816371 3.813732
vt 6.772217 3.813732
vt 6.772217 0.000000
vt 6.816371 0.477314
vt 6.463144 3.813739
vt 6.418989 0.477314
vt 3.115235 3.389278
vt 3.255525 0.000000
vt 3.296558 0.002360
vt 3.255525 3.844241
vt 3.074201 3.386919
vt 3.477888 3.846601
vt 3.337598 0.457323
vt 3.518921 3.844241
vt 3.477888 0.002360
vt 3.518921 0.000000
vt 6.418989 0.477321
vt 6.374835 0.000000
vt 6.418989 0.000000
vt 1.026657 3.499438
vt 1.067758 3.453685
vt 1.067758 3.499438
vt 0.615677 3.499438
vt 0.656772 3.453685
vt 0.656772 3.499438
vt 6.639761 3.336418
vt 6.595606 0.000000
vt 6.639761 0.000000
vt 6.639761 3.813739
vt 6.595606 3.336418
vt 6.418989 3.813739
vt 6.374835 0.477321
vt 2.670514 3.389278
vt 2.810799 0.000000
vt 2.851838 0.002360
vt 2.810805 3.844241
vt 2.629475 3.386919
vt 2.588442 3.846601
vt 2.448151 0.457323
vt 2.629475 3.844241
vt 2.588442 0.002360
vt 2.629475 0.000000
vt 6.330681 0.477321
vt 6.286526 0.000000
vt 6.330681 0.000000
vt 0.862265 3.453685
vt 0.821171 3.499438
vt 0.821171 3.453685
vt 0.492380 3.499438
vt 0.533474 3.453685
vt 0.533481 3.499438
vt 6.242372 0.477321
vt 6.286526 3.813739
vt 6.242372 3.813739
vt 6.242372 0.000000
vt 6.286526 0.477321
vt 6.330681 3.813739
vt 6.286526 0.477321
vt 2.225788 3.389278
vt 2.366079 0.000000
vt 2.407111 0.002360
vt 2.366079 3.844241
vt 2.184755 3.386919
vt 5.479138 3.846601
vt 5.338854 0.457323
vt 5.520178 3.844241
vt 5.479138 0.002360
vt 5.520178 0.000000
vt 6.683908 0.477321
vt 6.639761 0.000000
vt 6.683908 0.000000
vt 1.026657 3.453685
vt 0.985563 3.499438
vt 0.985563 3.453685
vt 0.738968 3.499438
vt 0.780069 3.453685
vt 0.780069 3.499438
vt 6.728063 3.336418
vt 6.683915 0.000000
vt 6.728063 0.000000
vt 6.728063 3.813739
vt 6.683908 3.336418
vt 6.683908 3.813739
vt 6.639761 0.477321
vt 2.003424 3.389278
vt 2.143715 0.000000
vt 2.184755 0.002360
vt 2.143715 3.844241
vt 1.962392 3.386919
vt 5.256781 3.846601
vt 5.116491 0.457323
vt 5.297813 3.844241
vt 5.256781 0.002360
vt 5.297813 0.000000
vt 6.507298 0.477321
vt 6.463144 0.000000
vt 6.507298 0.000000
vt 0.985563 3.453685
vt 0.944461 3.499438
vt 0.944461 3.453685
vt 0.780069 3.499438
vt 0.821171 3.453685
vt 0.821171 3.499438
vt 6.728063 0.477321
vt 6.772217 3.813739
vt 6.728069 3.813739
vt 6.772217 0.000000
vt 6.772217 0.477321
vt 6.507298 3.813739
vt 6.463144 0.477321
vt 0.981199 0.000000
vt 0.981199 0.000000
vt 0.441948 4.487353
vt 0.391523 4.487353
vt 6.015329 0.000000
vt 6.015329 0.000000
vt 0.282242 3.453685
vt 0.336886 6.860526
vt 1.287700 3.453685
vt 1.259922 3.492989
vt 0.037939 6.860526
vt 0.000000 3.453685
vt 0.391523 3.453685
vt 0.282242 6.860526
vt 1.343250 3.492989
vt 1.371028 3.492989
vt 0.227605 3.453685
vt 0.189673 3.453685
vt 0.227605 3.453685
vt 0.364205 6.860526
vt 1.371028 3.453685
vt 1.259922 3.453685
vt 0.113802 6.860526
vt 0.113802 3.453685
vt 4.408368 3.846601
vt 5.742535 0.459683
vt 1.108853 3.499431
vt 0.656772 3.453685
vt 6.065762 0.000000
vt 6.154063 3.813739
vt 3.074201 3.846601
vt 5.520178 0.459683
vt 0.944461 3.499438
vt 1.108853 3.453685
vt 6.860526 0.000000
vt 6.330681 3.813739
vt 4.853095 3.846601
vt 4.853095 0.459683
vt 0.615677 3.499438
vt 1.149954 3.453685
vt 6.551452 3.813732
vt 6.551452 0.000000
vt 4.186005 3.846601
vt 3.518921 0.459683
vt 0.862265 3.453685
vt 0.533474 3.453685
vt 6.154063 0.000000
vt 6.198217 3.813739
vt 3.963648 3.846601
vt 4.408368 0.459683
vt 1.232151 3.499431
vt 0.697873 3.453685
vt 6.816371 0.000000
vt 6.418989 3.813739
vt 3.296558 3.846601
vt 3.296558 0.459683
vt 1.026657 3.453685
vt 0.615677 3.453685
vt 6.595606 3.813739
vt 6.374835 3.813739
vt 2.851838 3.846601
vt 2.407111 0.459683
vt 0.862265 3.499438
vt 0.492380 3.453685
vt 6.286526 0.000000
vt 6.286526 3.813739
vt 2.407111 3.846601
vt 5.297813 0.459683
vt 1.026657 3.499438
vt 0.738968 3.453685
vt 6.683915 3.813739
vt 6.639761 3.813739
vt 2.184755 3.846601
vt 5.075451 0.459683
vt 0.985563 3.499438
vt 0.780069 3.453685
vt 6.728063 0.000000
vt 6.463144 3.813739
vn -0.0000 -0.0000 1.0000
vn -0.0000 0.0000 -1.0000
vn -1.0000 0.0000 0.0000
vn 1.0000 0.0000 0.0000
vn 0.0000 -1.0000 0.0000
vn -0.0000 1.0000 0.0000
vn 0.0000 -0.4307 0.9025
vn 0.0000 0.4307 -0.9025
s 1
f 1/1/1 2/2/1 3/3/1
f 4/4/2 5/5/2 6/6/2
f 1/7/3 7/8/3 8/9/3
f 2/10/4 6/11/4 3/12/4
f 2/13/5 7/14/5 4/15/5
f 3/16/6 5/17/6 1/18/6
f 9/19/1 10/20/1 11/21/1
f 12/22/2 13/23/2 14/24/2
f 15/25/3 16/26/3 10/27/3
f 11/28/4 14/29/4 9/30/4
f 10/31/5 12/32/5 11/33/5
f 15/34/6 14/35/6 13/36/6
f 17/37/1 18/38/1 19/39/1
f 20/40/2 21/41/2 22/42/2
f 17/43/3 23/44/3 24/45/3
f 18/46/4 22/47/4 19/48/4
f 24/49/5 20/50/5 18/51/5
f 19/52/6 21/53/6 17/54/6
f 25/55/1 26/56/1 27/57/1
f 28/58/2 29/59/2 30/60/2
f 31/61/3 32/62/3 26/63/3
f 27/64/4 30/65/4 25/66/4
f 26/67/5 28/68/5 27/69/5
f 25/70/6 29/71/6 31/72/6
f 33/73/3 34/74/3 35/75/3
f 33/73/3 36/76/3 37/77/3
f 38/78/4 39/79/4 40/80/4
f 39/79/4 41/81/4 42/82/4
f 33/83/7 42/84/7 43/85/7
f 43/86/6 41/87/6 36/88/6
f 34/89/5 40/90/5 35/91/5
f 37/92/2 38/93/2 34/94/2
f 37/92/8 41/95/8 44/96/8
f 35/97/1 39/98/1 33/83/1
f 45/99/3 46/100/3 47/101/3
f 45/99/3 48/102/3 49/103/3
f 50/104/4 51/105/4 52/106/4
f 51/105/4 53/107/4 54/108/4
f 45/109/7 54/110/7 55/111/7
f 55/112/6 53/113/6 48/114/6
f 46/115/5 52/116/5 47/117/5
f 49/118/2 50/119/2 46/120/2
f 48/121/8 56/122/8 49/118/8
f 47/123/1 51/124/1 45/109/1
f 57/125/3 58/126/3 59/127/3
f 57/125/3 60/128/3 61/129/3
f 62/130/4 63/131/4 64/132/4
f 63/131/4 65/133/4 66/134/4
f 57/135/7 66/136/7 67/137/7
f 67/138/6 65/139/6 60/140/6
f 58/141/5 64/142/5 59/143/5
f 61/144/2 62/145/2 58/146/2
f 60/147/8 68/148/8 61/144/8
f 59/149/1 63/150/1 57/135/1
f 69/151/3 70/152/3 71/153/3
f 69/151/3 72/154/3 73/155/3
f 74/156/4 75/157/4 76/158/4
f 75/157/4 77/159/4 78/160/4
f 69/161/7 78/162/7 79/163/7
f 79/164/6 77/165/6 72/166/6
f 70/167/5 76/168/5 71/169/5
f 73/170/2 74/171/2 70/172/2
f 72/173/8 80/174/8 73/170/8
f 71/175/1 75/176/1 69/161/1
f 81/177/3 82/178/3 83/179/3
f 81/177/3 84/180/3 85/181/3
f 86/182/4 87/183/4 88/184/4
f 87/183/4 89/185/4 90/186/4
f 81/187/7 90/188/7 91/189/7
f 91/190/6 89/191/6 84/192/6
f 82/193/5 88/194/5 83/195/5
f 85/196/2 86/197/2 82/198/2
f 84/199/8 92/200/8 85/196/8
f 83/201/1 87/202/1 81/187/1
f 93/203/3 94/204/3 95/205/3
f 93/203/3 96/206/3 97/207/3
f 98/208/4 99/209/4 100/210/4
f 99/209/4 101/211/4 102/212/4
f 93/213/7 102/214/7 103/215/7
f 103/216/6 101/217/6 96/218/6
f 94/219/5 100/220/5 95/221/5
f 97/222/2 98/223/2 94/224/2
f 96/225/8 104/226/8 97/222/8
f 95/227/1 99/228/1 93/213/1
f 105/229/3 106/230/3 107/231/3
f 105/229/3 108/232/3 109/233/3
f 110/234/4 111/235/4 112/236/4
f 111/235/4 113/237/4 114/238/4
f 105/239/7 114/240/7 115/241/7
f 115/242/6 113/243/6 108/244/6
f 106/245/5 112/246/5 107/247/5
f 109/248/2 110/249/2 106/250/2
f 108/251/8 116/252/8 109/248/8
f 107/253/1 111/254/1 105/239/1
f 117/255/3 118/256/3 119/257/3
f 117/255/3 120/258/3 121/259/3
f 122/260/4 123/261/4 124/262/4
f 123/261/4 125/263/4 126/264/4
f 117/265/7 126/266/7 127/267/7
f 127/268/6 125/269/6 120/270/6
f 118/271/5 124/272/5 119/273/5
f 121/274/2 122/275/2 118/276/2
f 120/277/8 128/278/8 121/274/8
f 119/279/1 123/280/1 117/265/1
f 129/281/3 130/282/3 131/283/3
f 129/281/3 132/284/3 133/285/3
f 134/286/4 135/287/4 136/288/4
f 135/287/4 137/289/4 138/290/4
f 129/291/7 138/292/7 139/293/7
f 139/294/6 137/295/6 132/296/6
f 130/297/5 136/298/5 131/299/5
f 133/300/2 134/301/2 130/302/2
f 133/300/8 137/303/8 140/304/8
f 131/305/1 135/306/1 129/291/1
f 1/1/1 8/307/1 2/2/1
f 4/4/2 7/308/2 5/5/2
f 1/7/3 5/309/3 7/8/3
f 2/10/4 4/310/4 6/11/4
f 2/13/5 8/311/5 7/14/5
f 3/16/6 6/312/6 5/17/6
f 9/19/1 15/313/1 10/20/1
f 12/22/2 16/314/2 13/23/2
f 15/25/3 13/315/3 16/26/3
f 11/28/4 12/316/4 14/29/4
f 10/31/5 16/317/5 12/32/5
f 15/34/6 9/318/6 14/35/6
f 17/37/1 24/319/1 18/38/1
f 20/40/2 23/320/2 21/41/2
f 17/43/3 21/321/3 23/44/3
f 18/46/4 20/322/4 22/47/4
f 24/49/5 23/323/5 20/50/5
f 19/52/6 22/324/6 21/53/6
f 25/55/1 31/325/1 26/56/1
f 28/58/2 32/326/2 29/59/2
f 31/61/3 29/327/3 32/62/3
f 27/64/4 28/328/4 30/65/4
f 26/67/5 32/329/5 28/68/5
f 25/70/6 30/330/6 29/71/6
f 33/73/3 37/77/3 34/74/3
f 33/73/3 43/331/3 36/76/3
f 38/78/4 44/332/4 39/79/4
f 39/79/4 44/332/4 41/81/4
f 33/83/7 39/98/7 42/84/7
f 43/86/6 42/333/6 41/87/6
f 34/89/5 38/334/5 40/90/5
f 37/92/2 44/96/2 38/93/2
f 37/92/8 36/335/8 41/95/8
f 35/97/1 40/336/1 39/98/1
f 45/99/3 49/103/3 46/100/3
f 45/99/3 55/337/3 48/102/3
f 50/104/4 56/338/4 51/105/4
f 51/105/4 56/338/4 53/107/4
f 45/109/7 51/124/7 54/110/7
f 55/112/6 54/339/6 53/113/6
f 46/115/5 50/340/5 52/116/5
f 49/118/2 56/122/2 50/119/2
f 48/121/8 53/341/8 56/122/8
f 47/123/1 52/342/1 51/124/1
f 57/125/3 61/129/3 58/126/3
f 57/125/3 67/343/3 60/128/3
f 62/130/4 68/344/4 63/131/4
f 63/131/4 68/344/4 65/133/4
f 57/135/7 63/150/7 66/136/7
f 67/138/6 66/345/6 65/139/6
f 58/141/5 62/346/5 64/142/5
f 61/144/2 68/148/2 62/145/2
f 60/147/8 65/347/8 68/148/8
f 59/149/1 64/348/1 63/150/1
f 69/151/3 73/155/3 70/152/3
f 69/151/3 79/349/3 72/154/3
f 74/156/4 80/350/4 75/157/4
f 75/157/4 80/350/4 77/159/4
f 69/161/7 75/176/7 78/162/7
f 79/164/6 78/351/6 77/165/6
f 70/167/5 74/352/5 76/168/5
f 73/170/2 80/174/2 74/171/2
f 72/173/8 77/353/8 80/174/8
f 71/175/1 76/354/1 75/176/1
f 81/177/3 85/181/3 82/178/3
f 81/177/3 91/355/3 84/180/3
f 86/182/4 92/356/4 87/183/4
f 87/183/4 92/356/4 89/185/4
f 81/187/7 87/202/7 90/188/7
f 91/190/6 90/357/6 89/191/6
f 82/193/5 86/358/5 88/194/5
f 85/196/2 92/200/2 86/197/2
f 84/199/8 89/359/8 92/200/8
f 83/201/1 88/360/1 87/202/1
f 93/203/3 97/207/3 94/204/3
f 93/203/3 103/361/3 96/206/3
f 98/208/4 104/362/4 99/209/4
f 99/209/4 104/362/4 101/211/4
f 93/213/7 99/228/7 102/214/7
f 103/216/6 102/363/6 101/217/6
f 94/219/5 98/364/5 100/220/5
f 97/222/2 104/226/2 98/223/2
f 96/225/8 101/365/8 104/226/8
f 95/227/1 100/366/1 99/228/1
f 105/229/3 109/233/3 106/230/3
f 105/229/3 115/367/3 108/232/3
f 110/234/4 116/368/4 111/235/4
f 111/235/4 116/368/4 113/237/4
f 105/239/7 111/254/7 114/240/7
f 115/242/6 114/369/6 113/243/6
f 106/245/5 110/370/5 112/246/5
f 109/248/2 116/252/2 110/249/2
f 108/251/8 113/371/8 116/252/8
f 107/253/1 112/372/1 111/254/1
f 117/255/3 121/259/3 118/256/3
f 117/255/3 127/373/3 120/258/3
f 122/260/4 128/374/4 123/261/4
f 123/261/4 128/374/4 125/263/4
f 117/265/7 123/280/7 126/266/7
f 127/268/6 126/375/6 125/269/6
f 118/271/5 122/376/5 124/272/5
f 121/274/2 128/278/2 122/275/2
f 120/277/8 125/377/8 128/278/8
f 119/279/1 124/378/1 123/280/1
f 129/281/3 133/285/3 130/282/3
f 129/281/3 139/379/3 132/284/3
f 134/286/4 140/380/4 135/287/4
f 135/287/4 140/380/4 137/289/4
f 129/291/7 135/306/7 138/292/7
f 139/294/6 138/381/6 137/295/6
f 130/297/5 134/382/5 136/298/5
f 133/300/2 140/304/2 134/301/2
f 133/300/8 132/383/8 137/303/8
f 131/305/1 136/384/1 135/306/1
