# Blender v2.80 (sub 41) OBJ File: 'AutopistaBackup.blend'
# www.blender.org
o Cube.055_Cube.188
v -5.183900 -3.782892 4.120658
v -3.166292 1.845578 2.637172
v -4.917493 -3.782892 -4.211165
v -2.998778 1.845578 -2.601820
v 2.761769 -4.687044 6.248446
v 2.084293 1.845578 2.442082
v 3.414330 -3.782892 -3.944759
v 2.240213 1.845578 -2.434305
v -3.040656 -3.396091 -1.292072
v -3.082535 -3.396091 0.017676
v -3.124413 -3.396091 1.327424
v -3.040656 1.845578 -1.292072
v 3.214525 -3.782892 2.304108
v 3.281127 -3.782892 0.221153
v 3.347728 -3.782892 -1.861803
v 2.198334 1.845578 -1.124557
v 2.156456 1.845578 0.185190
v 2.114577 1.845578 1.494938
v 0.637055 -3.782892 -4.033561
v -2.140219 -3.782892 -4.122363
v -1.252447 1.845578 -2.545981
v 0.493883 1.845578 -2.490143
v -2.406625 -3.782892 4.209461
v 0.370649 -3.782892 4.298263
v 0.326368 1.845578 2.748848
v -1.419962 1.845578 2.693010
v -1.294326 3.511302 -1.236234
v 0.452004 3.511302 -1.180396
v -1.336205 4.595524 0.073514
v 0.410125 4.595524 0.129352
v -1.378083 2.713815 1.383262
v 0.368247 2.713815 1.439100
v 0.452004 -3.396091 -1.180396
v -1.294326 -3.396091 -1.236234
v 0.410125 -3.396091 0.129352
v -1.336205 -3.396091 0.073514
v 0.368247 -3.396091 1.439100
v -1.378083 -3.396091 1.383262
v -3.677589 -0.775256 3.116785
v -3.478391 -0.775256 -3.113117
v 2.751511 -0.775256 -2.913919
v 2.565053 0.087363 2.917554
v 2.701712 -0.775256 -1.356444
v 2.651912 -0.775256 0.201032
v 2.602113 -0.775256 1.758507
v 0.475679 -0.775256 3.249583
v -1.600955 -0.775256 3.183184
v -1.401757 -0.775256 -3.046718
v 0.674877 -0.775256 -2.980319
v -4.917493 -1.698872 -4.211165
v 3.414330 -1.698872 -3.944759
v 2.254673 -1.859165 3.882253
v 3.347728 -1.698872 -1.861803
v 3.281127 -1.698872 0.221153
v 3.214525 -1.698872 2.304108
v 0.370649 -1.698872 4.298263
v -2.406625 -1.698872 4.209461
v -2.140219 -1.698872 -4.122363
v 0.637055 -1.698872 -4.033561
v -5.183900 -1.698872 4.120658
v 1.455583 3.002269 1.286487
v -1.411660 5.849237 1.585009
v 1.568220 3.050603 1.446397
v -1.299023 5.897570 1.744919
v 2.703322 -3.568160 5.126832
v -2.975097 -1.873269 7.165362
v 2.815959 -3.519826 5.286742
v -2.862460 -1.824936 7.325273
v 3.539768 1.989355 1.604423
v -1.697237 2.544274 5.183906
v 3.427131 1.941021 1.444513
v -1.809874 2.495940 5.023995
v -2.279849 0.359669 6.254589
v 2.299217 -1.978644 3.897809
v 2.411854 -1.930310 4.057719
v -2.392485 0.311336 6.094679
v 0.363670 5.256779 0.507107
v 0.476307 5.305113 0.667017
v -0.023251 -2.672381 6.306007
v -0.135887 -2.720714 6.146098
v 0.912845 1.542701 3.725482
v 1.025482 1.591035 3.885393
v -0.046634 -0.833654 4.996243
v 0.066002 -0.785320 5.156154
v -1.602754 5.669995 -1.139871
v -5.752075 7.518562 -3.483637
v -1.714254 5.518840 -0.967876
v -5.863575 7.367407 -3.311641
v 5.341618 -2.806233 -3.213173
v 0.584968 -3.685490 -9.221950
v 5.230117 -2.957388 -3.041177
v 0.473467 -3.836645 -9.049953
v 0.920145 4.388119 -0.488143
v -2.695054 1.765382 -6.180797
v 1.031645 4.539274 -0.660139
v -2.583554 1.916537 -6.352793
v -1.110794 -1.035632 -7.615375
v 4.199249 -0.224734 -3.219953
v 4.087749 -0.375889 -3.047957
v -0.999293 -0.884476 -7.787371
v -3.940617 8.250391 -1.675783
v -4.052118 8.099236 -1.503788
v 2.851792 -3.397017 -6.045565
v 2.963292 -3.245862 -6.217561
v 0.037151 2.601553 -3.559855
v -0.074350 2.450397 -3.387859
v 1.599978 -0.554606 -5.503661
v 1.488478 -0.705761 -5.331666
vt 0.500000 0.416667
vt 0.625000 0.500000
vt 0.500000 0.500000
vt 0.625000 0.687500
vt 0.500000 0.750000
vt 0.500000 0.687500
vt 0.500000 0.916667
vt 0.625000 1.000000
vt 0.500000 1.000000
vt 0.375000 0.687500
vt 0.291667 0.750000
vt 0.291667 0.687500
vt 0.791667 0.500000
vt 0.875000 0.562500
vt 0.791667 0.562500
vt 0.291667 0.500000
vt 0.375000 0.562500
vt 0.291667 0.562500
vt 0.375000 0.625000
vt 0.291667 0.625000
vt 0.500000 0.562500
vt 0.625000 0.562500
vt 0.500000 0.625000
vt 0.208333 0.625000
vt 0.125000 0.687500
vt 0.125000 0.625000
vt 0.208333 0.687500
vt 0.208333 0.562500
vt 0.125000 0.562500
vt 0.208333 0.500000
vt 0.125000 0.500000
vt 0.625000 0.625000
vt 0.708333 0.687500
vt 0.791667 0.625000
vt 0.708333 0.625000
vt 0.708333 0.562500
vt 0.708333 0.500000
vt 0.625000 0.750000
vt 0.791667 0.687500
vt 0.708333 0.750000
vt 0.208333 0.750000
vt 0.125000 0.750000
vt 0.625000 0.833333
vt 0.500000 0.833333
vt 0.625000 0.250000
vt 0.500000 0.333333
vt 0.500000 0.250000
vt 0.625000 0.416667
vt 0.437500 0.416667
vt 0.437500 0.333333
vt 0.437500 0.250000
vt 0.437500 0.833333
vt 0.437500 0.916667
vt 0.437500 0.750000
vt 0.437500 0.625000
vt 0.437500 0.687500
vt 0.437500 0.562500
vt 0.437500 0.500000
vt 0.437500 1.000000
vt 0.375000 0.500000
vt 0.375000 0.416667
vt 0.375000 0.750000
vt 0.375000 1.000000
vt 0.375000 0.916667
vt 0.375000 0.833333
vt 0.375000 0.333333
vt 0.375000 0.250000
vt 0.625000 0.000000
vt 0.500000 0.250000
vt 0.500000 0.000000
vt 0.500000 0.437500
vt 0.625000 0.500000
vt 0.500000 0.500000
vt 0.500000 0.750000
vt 0.500000 0.875000
vt 0.625000 1.000000
vt 0.500000 1.000000
vt 0.312500 0.500000
vt 0.375000 0.750000
vt 0.312500 0.750000
vt 0.875000 0.500000
vt 0.750000 0.750000
vt 0.750000 0.500000
vt 0.687500 0.750000
vt 0.687500 0.500000
vt 0.125000 0.500000
vt 0.250000 0.750000
vt 0.125000 0.750000
vt 0.500000 0.812500
vt 0.625000 0.875000
vt 0.625000 0.250000
vt 0.500000 0.375000
vt 0.625000 0.750000
vt 0.250000 0.500000
vt 0.625000 0.375000
vt 0.375000 0.437500
vt 0.375000 0.375000
vt 0.375000 0.812500
vt 0.375000 0.250000
vt 0.375000 0.875000
vt 0.375000 1.000000
vt 0.375000 0.500000
vt 0.375000 0.000000
vt 0.625000 0.000000
vt 0.500000 0.250000
vt 0.500000 0.000000
vt 0.625000 0.437500
vt 0.500000 0.500000
vt 0.500000 0.437500
vt 0.625000 0.500000
vt 0.500000 0.750000
vt 0.500000 0.875000
vt 0.625000 1.000000
vt 0.500000 1.000000
vt 0.312500 0.500000
vt 0.375000 0.750000
vt 0.312500 0.750000
vt 0.875000 0.500000
vt 0.750000 0.750000
vt 0.750000 0.500000
vt 0.687500 0.500000
vt 0.687500 0.750000
vt 0.250000 0.500000
vt 0.125000 0.750000
vt 0.125000 0.500000
vt 0.500000 0.812500
vt 0.625000 0.875000
vt 0.625000 0.250000
vt 0.500000 0.375000
vt 0.625000 0.812500
vt 0.625000 0.750000
vt 0.250000 0.750000
vt 0.625000 0.375000
vt 0.375000 0.437500
vt 0.375000 0.375000
vt 0.375000 0.812500
vt 0.375000 0.250000
vt 0.375000 0.875000
vt 0.375000 1.000000
vt 0.375000 0.500000
vt 0.375000 0.000000
vt 0.625000 0.916667
vt 0.875000 0.500000
vt 0.791667 0.750000
vt 0.625000 0.333333
vt 0.625000 0.437500
vt 0.875000 0.750000
vt 0.625000 0.812500
vt 0.875000 0.750000
vn 0.0314 0.1858 -0.9821
vn 0.9802 0.1726 -0.0971
vn -0.0314 0.1858 0.9821
vn -0.0935 -0.9866 -0.1334
vn -0.4859 0.5326 -0.6930
vn -0.1019 -0.9866 0.1272
vn -0.1334 -0.9911 -0.0043
vn 0.9821 0.1858 0.0314
vn 0.0000 -1.0000 0.0000
vn -0.0043 -0.9910 0.1341
vn 0.4448 0.8955 0.0142
vn -0.0262 0.5715 0.8202
vn 0.6897 0.7238 0.0221
vn 0.0204 0.7705 -0.6372
vn 0.0000 1.0000 -0.0000
vn 0.0251 0.6183 -0.7855
vn -0.0177 0.8336 0.5520
vn 0.0043 -0.9910 -0.1341
vn 0.0765 0.1913 0.9785
vn 0.0211 0.7513 -0.6596
vn -0.0211 0.7513 0.6596
vn 0.2069 0.7238 0.6582
vn 0.8259 0.5632 0.0264
vn 0.8419 0.1259 0.5248
vn 0.0320 0.0000 -0.9995
vn 0.9312 0.3173 0.1796
vn -0.0320 0.0000 0.9995
vn 0.9995 0.0000 0.0320
vn -0.3953 0.5467 0.7381
vn 0.0980 0.9314 -0.3505
vn 0.4183 0.4581 0.7843
vn -0.1390 -0.9166 0.3749
vn -0.5536 -0.5906 -0.5871
vn 0.8286 -0.1950 -0.5247
vn -0.7732 0.4965 0.3946
vn -0.7958 0.4241 0.4323
vn 0.4352 0.7299 -0.5271
vn -0.4869 -0.2508 -0.8367
vn 0.5536 0.5906 0.5871
vn -0.4183 -0.4581 -0.7843
vn 0.7797 -0.4777 -0.4048
vn 0.4869 0.2508 0.8367
vn 0.6203 0.2801 0.7327
vn -0.4224 -0.6192 -0.6619
vn 0.3663 0.7603 0.5365
vn -0.6203 -0.2801 -0.7327
vn -0.3663 -0.7603 -0.5365
vn 0.4224 0.6192 0.6619
vn 0.7807 0.1702 -0.6013
vn -0.5888 0.7569 0.2835
vn -0.5510 -0.4633 0.6941
vn 0.5491 -0.7713 -0.3218
vn 0.4635 0.5564 -0.6896
vn 0.6624 0.2949 0.6886
vn -0.7785 -0.1254 -0.6149
vn 0.1650 0.6854 0.7093
vn 0.4905 0.6200 -0.6123
vn -0.4635 -0.5564 0.6896
vn 0.5510 0.4633 -0.6941
vn -0.7786 -0.1254 -0.6149
vn 0.7565 0.1627 0.6334
vn -0.4905 -0.6200 0.6123
vn -0.4843 -0.6416 0.5948
vn 0.7204 0.3172 -0.6167
vn -0.4053 -0.6898 0.5999
vn 0.4843 0.6416 -0.5948
vn 0.4053 0.6898 -0.5999
vn -0.7204 -0.3172 0.6167
vn 0.4173 0.5312 0.7374
vn 0.9620 0.2714 0.0308
vn -0.1672 -0.9566 -0.2385
vn 0.6489 0.4249 0.6312
vn 0.7841 0.4902 -0.3807
vn 0.5292 0.5326 -0.6605
vn 0.0963 0.8282 0.5521
vn 0.1640 0.2991 0.9400
vn -0.0437 0.4492 0.8924
vn 0.8680 0.4112 -0.2783
vn 0.8544 0.0000 0.5196
vn 0.2156 0.0000 0.9765
vn 0.5117 0.2642 0.8175
vn -0.5066 -0.5872 -0.6313
vn -0.5117 -0.2642 -0.8175
vn 0.5066 0.5872 0.6313
vn 0.5051 0.2394 0.8292
vn -0.5444 -0.4175 -0.7275
vn 0.7220 0.5110 0.4664
vn -0.5051 -0.2394 -0.8292
vn -0.7220 -0.5110 -0.4664
vn 0.5444 0.4175 0.7275
vn -0.5778 -0.6065 0.5461
vn 0.5032 0.6021 -0.6199
vn 0.4837 0.6000 -0.6372
vn -0.5032 -0.6021 0.6199
vn 0.5778 0.6065 -0.5461
vn -0.4837 -0.6000 0.6372
vn -0.4721 -0.6198 0.6269
vn -0.7401 -0.6132 0.2760
vn 0.4721 0.6198 -0.6269
vn 0.7401 0.6132 -0.2760
s off
f 49/1/1 8/2/1 41/3/1
f 18/4/2 42/5/2 45/6/2
f 47/7/3 2/8/3 39/9/3
f 13/10/4 24/11/4 37/12/4
f 21/13/5 12/14/5 27/15/5
f 19/16/6 15/17/6 33/18/6
f 33/18/7 14/19/7 35/20/7
f 14/19/7 37/12/7 35/20/7
f 8/2/8 43/21/8 41/3/8
f 16/22/8 44/23/8 43/21/8
f 44/23/8 18/4/8 45/6/8
f 36/24/9 11/25/9 10/26/9
f 35/20/9 38/27/9 36/24/9
f 34/28/9 10/26/9 9/29/9
f 33/18/9 36/24/9 34/28/9
f 20/30/10 9/29/10 3/31/10
f 19/16/10 34/28/10 20/30/10
f 17/32/11 32/33/11 18/4/11
f 29/34/12 32/33/12 30/35/12
f 28/36/13 17/32/13 16/22/13
f 27/15/14 30/35/14 28/36/14
f 22/37/15 16/22/15 8/2/15
f 22/37/16 27/15/16 28/36/16
f 32/33/11 6/38/11 18/4/11
f 31/39/17 25/40/17 32/33/17
f 11/25/18 23/41/18 1/42/18
f 38/27/18 24/11/18 23/41/18
f 42/5/19 25/43/19 46/44/19
f 25/43/3 47/7/3 46/44/3
f 4/45/1 48/46/1 40/47/1
f 48/46/1 22/48/1 49/1/1
f 48/46/20 59/49/20 58/50/20
f 40/47/20 58/50/20 50/51/20
f 56/52/21 47/7/21 57/53/21
f 52/54/22 46/44/22 56/52/22
f 54/55/23 45/6/23 55/56/23
f 43/21/23 54/55/23 53/57/23
f 41/3/23 53/57/23 51/58/23
f 57/53/21 39/9/21 60/59/21
f 55/56/24 42/5/24 52/54/24
f 59/49/20 41/3/20 51/58/20
f 59/49/25 7/60/25 19/61/25
f 13/10/26 52/54/26 5/62/26
f 57/53/27 1/63/27 23/64/27
f 51/58/28 15/17/28 7/60/28
f 53/57/28 14/19/28 15/17/28
f 54/55/28 13/10/28 14/19/28
f 52/54/29 24/65/29 5/62/29
f 56/52/27 23/64/27 24/65/27
f 50/51/25 20/66/25 3/67/25
f 58/50/25 19/61/25 20/66/25
f 62/68/30 78/69/30 77/70/30
f 84/71/31 68/72/31 79/73/31
f 68/72/32 80/74/32 79/73/32
f 81/75/33 62/76/33 77/77/33
f 75/78/34 65/79/34 74/80/34
f 64/81/35 72/82/35 70/83/35
f 70/83/36 76/84/36 73/85/36
f 63/86/37 71/87/37 61/88/37
f 83/89/38 72/90/38 81/75/38
f 64/91/39 82/92/39 78/69/39
f 66/93/40 83/89/40 80/74/40
f 73/85/36 66/93/36 68/72/36
f 69/94/41 74/80/41 71/87/41
f 70/95/42 84/71/42 82/92/42
f 82/92/43 75/96/43 69/97/43
f 80/74/44 74/98/44 65/79/44
f 63/99/45 82/92/45 69/97/45
f 74/98/46 81/75/46 71/100/46
f 81/75/47 61/101/47 71/100/47
f 79/73/32 65/79/32 67/102/32
f 75/96/48 79/73/48 67/102/48
f 61/103/49 78/69/49 63/99/49
f 86/104/50 102/105/50 101/106/50
f 97/107/51 103/108/51 108/109/51
f 92/110/52 104/111/52 103/108/52
f 105/112/53 86/113/53 101/114/53
f 99/115/54 89/116/54 98/117/54
f 88/118/55 96/119/55 94/120/55
f 97/121/55 96/119/55 100/122/55
f 93/123/56 85/124/56 87/125/56
f 107/126/57 96/127/57 105/112/57
f 88/128/58 106/129/58 102/105/58
f 104/111/59 100/130/59 107/126/59
f 97/121/60 90/131/60 92/110/60
f 99/115/61 95/132/61 93/123/61
f 94/133/62 108/109/62 106/129/62
f 106/129/63 99/134/63 93/135/63
f 104/111/64 98/136/64 89/116/64
f 87/137/65 106/129/65 93/135/65
f 98/136/66 105/112/66 95/138/66
f 105/112/67 85/139/67 95/138/67
f 103/108/52 89/116/52 91/140/52
f 99/134/68 103/108/68 91/140/68
f 85/141/69 102/105/69 87/137/69
f 49/1/1 22/48/1 8/2/1
f 18/4/70 6/38/70 42/5/70
f 47/7/3 26/142/3 2/8/3
f 13/10/71 5/62/71 24/11/71
f 21/13/15 4/143/15 12/14/15
f 19/16/9 7/60/9 15/17/9
f 33/18/7 15/17/7 14/19/7
f 14/19/7 13/10/7 37/12/7
f 8/2/8 16/22/8 43/21/8
f 16/22/8 17/32/8 44/23/8
f 44/23/8 17/32/8 18/4/8
f 36/24/9 38/27/9 11/25/9
f 35/20/9 37/12/9 38/27/9
f 34/28/9 36/24/9 10/26/9
f 33/18/9 35/20/9 36/24/9
f 20/30/10 34/28/10 9/29/10
f 19/16/10 33/18/10 34/28/10
f 17/32/72 30/35/72 32/33/72
f 29/34/12 31/39/12 32/33/12
f 28/36/73 30/35/73 17/32/73
f 27/15/14 29/34/14 30/35/14
f 22/37/74 28/36/74 16/22/74
f 22/37/16 21/13/16 27/15/16
f 32/33/75 25/40/75 6/38/75
f 31/39/17 26/144/17 25/40/17
f 11/25/18 38/27/18 23/41/18
f 38/27/18 37/12/18 24/11/18
f 42/5/76 6/38/76 25/43/76
f 25/43/3 26/142/3 47/7/3
f 4/45/1 21/145/1 48/46/1
f 48/46/1 21/145/1 22/48/1
f 48/46/20 49/1/20 59/49/20
f 40/47/20 48/46/20 58/50/20
f 56/52/21 46/44/21 47/7/21
f 52/54/77 42/5/77 46/44/77
f 54/55/23 44/23/23 45/6/23
f 43/21/23 44/23/23 54/55/23
f 41/3/23 43/21/23 53/57/23
f 57/53/21 47/7/21 39/9/21
f 55/56/78 45/6/78 42/5/78
f 59/49/20 49/1/20 41/3/20
f 59/49/25 51/58/25 7/60/25
f 13/10/79 55/56/79 52/54/79
f 57/53/27 60/59/27 1/63/27
f 51/58/28 53/57/28 15/17/28
f 53/57/28 54/55/28 14/19/28
f 54/55/28 55/56/28 13/10/28
f 52/54/80 56/52/80 24/65/80
f 56/52/27 57/53/27 23/64/27
f 50/51/25 58/50/25 20/66/25
f 58/50/25 59/49/25 19/61/25
f 62/68/30 64/91/30 78/69/30
f 84/71/81 73/146/81 68/72/81
f 68/72/32 66/93/32 80/74/32
f 81/75/82 72/90/82 62/76/82
f 75/78/34 67/102/34 65/79/34
f 64/81/35 62/147/35 72/82/35
f 70/83/36 72/82/36 76/84/36
f 63/86/37 69/94/37 71/87/37
f 83/89/83 76/148/83 72/90/83
f 64/91/84 70/95/84 82/92/84
f 66/93/83 76/148/83 83/89/83
f 73/85/36 76/84/36 66/93/36
f 69/94/41 75/78/41 74/80/41
f 70/95/81 73/146/81 84/71/81
f 82/92/85 84/71/85 75/96/85
f 80/74/86 83/89/86 74/98/86
f 63/99/87 78/69/87 82/92/87
f 74/98/88 83/89/88 81/75/88
f 81/75/89 77/77/89 61/101/89
f 79/73/32 80/74/32 65/79/32
f 75/96/90 84/71/90 79/73/90
f 61/103/49 77/70/49 78/69/49
f 86/104/50 88/128/50 102/105/50
f 97/107/91 92/110/91 103/108/91
f 92/110/52 90/131/52 104/111/52
f 105/112/92 96/127/92 86/113/92
f 99/115/54 91/140/54 89/116/54
f 88/118/60 86/149/60 96/119/60
f 97/121/55 94/120/55 96/119/55
f 93/123/56 95/132/56 85/124/56
f 107/126/93 100/130/93 96/127/93
f 88/128/94 94/133/94 106/129/94
f 104/111/95 90/131/95 100/130/95
f 97/121/60 100/122/60 90/131/60
f 99/115/61 98/117/61 95/132/61
f 94/133/96 97/107/96 108/109/96
f 106/129/97 108/109/97 99/134/97
f 104/111/59 107/126/59 98/136/59
f 87/137/98 102/105/98 106/129/98
f 98/136/99 107/126/99 105/112/99
f 105/112/100 101/114/100 85/139/100
f 103/108/52 104/111/52 89/116/52
f 99/134/51 108/109/51 103/108/51
f 85/141/69 101/106/69 102/105/69
