# Blender v2.80 (sub 44) OBJ File: '38.blend'
# www.blender.org
o LOWPOLY_Señal_Cylinder.003
v 0.003655 0.000000 -0.387301
v 0.036089 -0.227650 -0.313333
v 0.003655 -0.227650 -0.313333
v 0.036089 -0.368345 -0.119683
v 0.003655 -0.368345 -0.119683
v 0.003655 -0.368345 0.119683
v 0.036089 -0.368345 0.119683
v 0.003655 -0.227650 0.313333
v 0.036089 -0.227650 0.313333
v 0.003655 -0.000000 0.387301
v 0.036089 -0.000000 0.387301
v 0.003655 0.227650 0.313333
v 0.036089 0.227650 0.313333
v 0.003655 0.368345 0.119683
v 0.036089 0.368345 0.119683
v 0.003655 0.368345 -0.119683
v 0.036089 0.368345 -0.119683
v 0.036089 0.227650 -0.313333
v 0.003655 0.227650 -0.313333
v 0.036089 0.000000 -0.387301
vt 0.006737 0.383723
vt 0.123701 0.488922
vt 0.112444 0.509276
vt 0.267074 0.517686
vt 0.269076 0.539159
vt 0.421645 0.480765
vt 0.407523 0.461773
vt 0.519312 0.342968
vt 0.496621 0.334994
vt 0.519312 0.174787
vt 0.496437 0.181509
vt 0.420803 0.041783
vt 0.406921 0.061184
vt 0.259324 0.000150
vt 0.260755 0.024553
vt 0.098488 0.068597
vt 0.994854 0.672792
vt 0.610375 0.952133
vt 0.519612 0.672792
vt 0.023975 0.221605
vt 0.000150 0.215282
vt 0.028761 0.374624
vt 0.994855 0.327208
vt 0.519612 0.327208
vt 0.610375 0.047868
vt 0.115433 0.088931
vt 0.610375 0.547867
vt 0.757233 0.500150
vt 0.904091 0.547867
vt 0.994854 0.827208
vt 0.904091 0.952133
vt 0.757234 0.999850
vt 0.519612 0.827208
vt 0.757233 0.000150
vt 0.904092 0.047867
vt 0.994855 0.172792
vt 0.904092 0.452133
vt 0.757234 0.499850
vt 0.610376 0.452133
vt 0.519612 0.172792
vn 0.0000 -0.3090 -0.9511
vn 0.0000 -0.8090 -0.5878
vn 0.0000 -1.0000 0.0000
vn 0.0000 -0.8090 0.5878
vn 0.0000 -0.3090 0.9511
vn 0.0000 0.3090 0.9511
vn 0.0000 0.8090 0.5878
vn 0.0000 1.0000 0.0000
vn 1.0000 -0.0000 0.0000
vn 0.0000 0.8090 -0.5878
vn 0.0000 0.3090 -0.9511
vn -1.0000 -0.0000 0.0000
s off
f 1/1/1 2/2/1 3/3/1
f 3/3/2 4/4/2 5/5/2
f 4/4/3 6/6/3 5/5/3
f 7/7/4 8/8/4 6/6/4
f 9/9/5 10/10/5 8/8/5
f 11/11/6 12/12/6 10/10/6
f 13/13/7 14/14/7 12/12/7
f 15/15/8 16/16/8 14/14/8
f 17/17/9 9/18/9 4/19/9
f 16/16/10 18/20/10 19/21/10
f 19/21/11 20/22/11 1/1/11
f 6/23/12 14/24/12 19/25/12
f 1/1/1 20/22/1 2/2/1
f 3/3/2 2/2/2 4/4/2
f 4/4/3 7/7/3 6/6/3
f 7/7/4 9/9/4 8/8/4
f 9/9/5 11/11/5 10/10/5
f 11/11/6 13/13/6 12/12/6
f 13/13/7 15/15/7 14/14/7
f 15/15/8 17/26/8 16/16/8
f 4/19/9 2/27/9 20/28/9
f 20/28/9 18/29/9 17/17/9
f 17/17/9 15/30/9 9/18/9
f 15/30/9 13/31/9 9/18/9
f 13/31/9 11/32/9 9/18/9
f 9/18/9 7/33/9 4/19/9
f 4/19/9 20/28/9 17/17/9
f 16/16/10 17/26/10 18/20/10
f 19/21/11 18/20/11 20/22/11
f 19/25/12 1/34/12 6/23/12
f 1/34/12 3/35/12 6/23/12
f 3/35/12 5/36/12 6/23/12
f 6/23/12 8/37/12 10/38/12
f 10/38/12 12/39/12 14/24/12
f 14/24/12 16/40/12 19/25/12
f 6/23/12 10/38/12 14/24/12
