# Blender v2.80 (sub 43) OBJ File: '41.blend'
# www.blender.org
o Door.001_Cube.000
v -1.901460 1.804011 -0.199587
v 0.000000 1.249470 -2.101047
v -1.901460 1.249470 -0.199587
v 1.780427 1.804011 -0.320619
v 2.101047 1.249470 0.000000
v 1.780427 1.249470 -0.320619
v 0.199587 1.804011 1.901460
v 0.000000 1.249470 2.101047
v 0.199587 1.249470 1.901460
v -1.780427 1.804011 0.320619
v -2.101047 1.249470 0.000000
v -1.780427 1.249470 0.320619
v -1.580840 1.804011 0.121032
v -0.121032 1.804011 1.580840
v 0.000000 1.804011 2.101047
v -0.320619 1.804011 1.780427
v -1.901460 -1.804011 -0.199587
v -1.780427 -1.804011 0.320619
v -2.101047 -1.804011 -0.000000
v -0.320619 1.249470 1.780427
v 0.000000 1.804011 -2.101047
v 0.320619 1.249470 -1.780427
v 0.320619 1.804011 -1.780427
v 1.780427 -1.804011 -0.320619
v 0.320619 -1.804011 -1.780427
v 0.000000 -1.804011 -2.101047
v -0.320619 -1.804011 1.780427
v 0.000000 -1.804011 2.101047
v 0.199587 -1.804011 1.901460
v 2.101047 -1.804011 -0.000000
v -0.121032 1.249470 1.580840
v -1.580840 -1.804011 0.121032
v -0.121032 -1.804011 1.580840
v -1.580840 1.249470 0.121032
v 2.101047 1.804011 0.000000
v -2.101047 1.804011 0.000000
vt 0.031665 0.000000
vt 0.333333 0.061642
vt 0.031665 0.061642
vt 0.615800 0.000000
vt 0.666667 0.061642
vt 0.615800 0.061642
vt 0.635002 0.401063
vt 0.666666 0.462705
vt 0.635002 0.462705
vt 0.282467 0.401063
vt 0.333333 0.462705
vt 0.282467 0.462705
vt 1.000000 0.629203
vt 0.949133 0.660579
vt 0.949133 0.629203
vt 0.717533 0.629203
vt 0.666667 0.660579
vt 0.666667 0.629203
vt 0.717533 0.660579
vt 1.000000 0.031376
vt 0.949133 0.000000
vt 1.000000 0.000000
vt 0.000000 0.401063
vt 0.050867 0.462706
vt 0.000000 0.462706
vt 0.050867 0.401063
vt 0.333333 0.000000
vt 0.384200 0.061642
vt 0.384200 0.000000
vt 0.615800 0.401063
vt 0.384200 0.401063
vt 0.333333 0.401063
vt 0.050867 0.802127
vt 0.000000 0.802127
vt 0.333333 0.802127
vt 0.282467 0.802127
vt 0.666666 0.802127
vt 0.635002 0.802127
vt 0.666667 0.401063
vt 0.031665 0.401063
vt 0.666667 0.660579
vt 0.898267 1.000000
vt 0.666667 1.000000
vt 0.929931 0.660579
vt 0.961596 1.000000
vt 0.929931 1.000000
vt 0.961596 0.660579
vt 0.993261 0.890064
vt 0.961596 0.890064
vt 0.898267 0.660579
vt 0.929931 1.000000
vt 0.898267 1.000000
vt 0.717533 0.330289
vt 0.949133 0.031376
vt 0.949133 0.330289
vt 0.000000 0.061642
vt 0.000000 0.401063
vt 0.333333 0.462705
vt 0.333333 0.802127
vt 1.000000 0.330289
vt 0.949133 0.330290
vt 0.717533 0.330290
vt 0.666667 0.330289
vt 1.000000 0.330289
vt 0.666667 0.330289
vt 0.717533 0.031376
vt 0.333333 0.401063
vt 0.000000 0.000000
vt 0.666667 0.000000
vt 0.717533 0.000000
vt 0.666667 0.000000
vt 0.666666 0.401063
vt 0.333333 0.401063
vt 1.000000 0.660579
vt 0.898267 0.660579
vt 0.961596 0.660579
vt 0.993261 0.660579
vt 0.929931 0.660579
vt 0.666667 0.031376
vn -0.7071 -0.0000 -0.7071
vn 0.7071 -0.0000 -0.7071
vn 0.7071 -0.0000 0.7071
vn -0.7071 0.0000 0.7071
vn -0.0000 1.0000 -0.0000
vn 0.0000 -1.0000 -0.0000
s 1
f 1/1/1 2/2/1 3/3/1
f 4/4/2 5/5/2 6/6/2
f 7/7/3 8/8/3 9/9/3
f 10/10/4 11/11/4 12/12/4
f 1/13/5 10/14/5 13/15/5
f 14/16/5 15/17/5 7/18/5
f 13/15/5 16/19/5 14/16/5
f 17/20/6 18/21/6 19/22/6
f 15/23/4 20/24/4 8/25/4
f 16/26/4 12/12/4 20/24/4
f 21/27/2 22/28/2 2/2/2
f 23/29/2 6/6/2 22/28/2
f 22/28/2 24/30/2 25/31/2
f 2/2/2 25/31/2 26/32/2
f 8/25/4 27/33/4 28/34/4
f 12/12/4 19/35/4 18/36/4
f 9/9/3 28/37/3 29/38/3
f 6/6/2 30/39/2 24/30/2
f 3/3/1 26/32/1 17/40/1
f 31/41/4 32/42/4 33/43/4
f 20/44/1 33/45/1 27/46/1
f 12/47/6 31/48/6 20/49/6
f 18/50/3 34/51/3 12/52/3
f 24/53/6 32/54/6 25/55/6
f 11/56/1 17/40/1 19/57/1
f 5/58/3 29/38/3 30/59/3
f 25/55/6 17/20/6 26/60/6
f 23/61/5 14/16/5 4/62/5
f 4/62/5 7/18/5 35/63/5
f 21/64/5 13/15/5 23/61/5
f 30/65/6 33/66/6 24/53/6
f 35/67/3 9/9/3 5/58/3
f 36/68/1 3/3/1 11/56/1
f 33/66/6 28/69/6 27/70/6
f 1/1/1 21/27/1 2/2/1
f 4/4/2 35/71/2 5/5/2
f 7/7/3 15/72/3 8/8/3
f 10/10/4 36/73/4 11/11/4
f 1/13/5 36/74/5 10/14/5
f 14/16/5 16/19/5 15/17/5
f 13/15/5 10/14/5 16/19/5
f 17/20/6 32/54/6 18/21/6
f 15/23/4 16/26/4 20/24/4
f 16/26/4 10/10/4 12/12/4
f 21/27/2 23/29/2 22/28/2
f 23/29/2 4/4/2 6/6/2
f 22/28/2 6/6/2 24/30/2
f 2/2/2 22/28/2 25/31/2
f 8/25/4 20/24/4 27/33/4
f 12/12/4 11/11/4 19/35/4
f 9/9/3 8/8/3 28/37/3
f 6/6/2 5/5/2 30/39/2
f 3/3/1 2/2/1 26/32/1
f 31/41/4 34/75/4 32/42/4
f 20/44/1 31/76/1 33/45/1
f 12/47/6 34/77/6 31/48/6
f 18/50/3 32/78/3 34/51/3
f 24/53/6 33/66/6 32/54/6
f 11/56/1 3/3/1 17/40/1
f 5/58/3 9/9/3 29/38/3
f 25/55/6 32/54/6 17/20/6
f 23/61/5 13/15/5 14/16/5
f 4/62/5 14/16/5 7/18/5
f 21/64/5 1/13/5 13/15/5
f 30/65/6 29/79/6 33/66/6
f 35/67/3 7/7/3 9/9/3
f 36/68/1 1/1/1 3/3/1
f 33/66/6 29/79/6 28/69/6
