# Blender v2.80 (sub 43) OBJ File: '42.blend'
# www.blender.org
o Acera_Cube.000
v 26.408482 0.053162 27.003738
v -20.948816 -0.053166 27.003738
v 26.408482 -0.053166 27.003738
v 26.408482 0.053164 6.334388
v 26.408482 -0.053164 6.334388
v -25.496428 0.053164 -2.674497
v -25.496428 -0.053162 -26.726845
v -25.496428 -0.053164 -2.674497
v 26.408482 0.053166 -27.494806
v -22.616295 0.053162 26.815857
v -22.616297 -0.053166 26.815857
v -24.200159 0.053162 26.261642
v -24.200161 -0.053166 26.261639
v -25.620989 0.053162 25.368874
v -25.620989 -0.053166 25.368874
v -26.807535 0.053162 24.182327
v -26.807539 -0.053166 24.182327
v -27.700302 0.053162 22.761497
v -27.700304 -0.053166 22.761497
v -28.254522 -0.053166 21.177631
v -28.254522 0.053162 21.177631
v -28.442402 -0.053166 19.510153
v -26.654644 -0.053164 6.813416
v -27.395159 0.053164 7.381633
v -26.654644 0.053164 6.813416
v -27.395159 -0.053164 7.381634
v -27.963373 0.053164 8.122147
v -27.963373 -0.053164 8.122147
v -28.320570 0.053164 8.984493
v -28.442402 -0.053164 9.909904
v -28.442402 0.053164 9.909904
v -28.442402 0.053162 19.510153
v -25.393539 -0.053162 -27.110826
v -24.728466 -0.053162 -27.494806
v -26.654644 -0.053164 6.813416
v -26.296736 -0.053164 6.224463
v -16.913607 -0.053164 6.334388
v -25.973862 -0.053164 4.811306
v -25.717625 -0.053164 2.712278
v -25.553114 -0.053164 0.132847
v -25.553114 0.053164 0.132847
v -16.913607 0.053164 6.334388
v -25.717625 0.053164 2.712279
v -25.973862 0.053164 4.811308
v -26.296736 0.053164 6.224463
v -26.654644 0.053164 6.813416
v -25.271496 -0.053162 -27.269873
v -25.393539 0.053166 -27.110826
v -25.271496 0.053166 -27.269873
v -25.470259 0.053166 -26.925611
v -25.470259 -0.053162 -26.925611
v -25.496428 0.053166 -26.726845
v -24.927229 0.053166 -27.468639
v -20.948816 0.053162 27.003738
v 26.408482 -0.053162 -27.494806
v -28.320570 -0.053164 8.984493
v -25.112446 -0.053162 -27.391922
v -24.927229 -0.053162 -27.468639
v -24.728466 0.053166 -27.494806
v -25.112446 0.053166 -27.391922
vt 0.469348 0.092525
vt 0.127249 0.003216
vt 0.474045 0.088066
vt 0.469299 0.334881
vt 0.474045 0.335044
vt 0.014685 0.362777
vt 0.044479 0.564491
vt 0.012826 0.363076
vt 0.459099 0.554099
vt 0.102715 0.001626
vt 0.102705 0.000154
vt 0.082092 0.004922
vt 0.081706 0.003628
vt 0.063530 0.013057
vt 0.062857 0.011918
vt 0.047439 0.025184
vt 0.046532 0.024235
vt 0.034559 0.040488
vt 0.033483 0.039780
vt 0.024241 0.058088
vt 0.025527 0.058542
vt 0.019548 0.079430
vt 0.002570 0.241551
vt 0.011439 0.232663
vt 0.004077 0.241868
vt 0.010181 0.231915
vt 0.017068 0.220163
vt 0.015433 0.219678
vt 0.020596 0.202483
vt 0.018308 0.182563
vt 0.020254 0.182549
vt 0.021113 0.079582
vt 0.542781 0.999846
vt 0.513091 0.993069
vt 0.489281 0.974082
vt 0.502478 0.007133
vt 0.503432 0.003633
vt 0.509517 0.000154
vt 0.543618 0.498664
vt 0.513943 0.492058
vt 0.476737 0.445910
vt 0.490360 0.313184
vt 0.493673 0.307834
vt 0.579589 0.309553
vt 0.496726 0.294954
vt 0.499207 0.275806
vt 0.500865 0.252266
vt 0.501535 0.226643
vt 0.745361 0.972945
vt 0.719725 0.973462
vt 0.663096 0.894570
vt 0.696171 0.974965
vt 0.677004 0.977304
vt 0.664100 0.980253
vt 0.658721 0.983521
vt 0.008038 0.322297
vt 0.002455 0.291656
vt 0.003704 0.291511
vt 0.000169 0.267290
vt 0.001403 0.267231
vt 0.000154 0.250466
vt 0.001388 0.250637
vt 0.004094 0.241902
vt 0.002563 0.241586
vt 0.061014 0.604598
vt 0.056989 0.588190
vt 0.066251 0.599064
vt 0.049967 0.592409
vt 0.050209 0.574728
vt 0.044015 0.576444
vt 0.048790 0.564150
vt 0.971770 0.967747
vt 0.969954 0.970891
vt 0.966811 0.972706
vt 0.126791 0.005184
vt 0.463154 0.559040
vt 0.018448 0.202310
vt 0.474353 0.498973
vt 0.663096 0.498973
vt 0.474353 0.931418
vt 0.630446 0.999846
vt 0.476068 0.946645
vt 0.481129 0.961108
vt 0.500116 0.984917
vt 0.527554 0.998130
vt 0.638896 0.998733
vt 0.653533 0.990283
vt 0.646771 0.995472
vt 0.975858 0.001067
vt 0.975578 0.309343
vt 0.502725 0.005320
vt 0.504552 0.002186
vt 0.506009 0.001078
vt 0.507702 0.000385
vt 0.474943 0.430718
vt 0.474353 0.343137
vt 0.475395 0.334680
vt 0.490437 0.314736
vt 0.478590 0.326782
vt 0.483720 0.319979
vt 0.490074 0.473230
vt 0.481866 0.460321
vt 0.500948 0.483989
vt 0.528409 0.497033
vt 0.975858 0.497701
vt 0.006662 0.322499
vt 0.964995 0.972945
vt 0.972009 0.965932
vt 0.972009 0.498973
vt 0.971069 0.969438
vt 0.968502 0.972005
vt 0.096947 0.611493
vt 0.096990 0.617944
vt 0.086598 0.610383
vt 0.085002 0.616478
vt 0.076329 0.606363
vt 0.073062 0.612285
vn 0.0000 0.0000 1.0000
vn 1.0000 0.0000 0.0000
vn -1.0000 0.0000 0.0000
vn -0.1120 0.0000 0.9937
vn -0.3303 -0.0000 0.9439
vn -0.5320 0.0000 0.8467
vn -0.7071 0.0000 0.7071
vn -0.8467 0.0000 0.5320
vn -0.9439 0.0000 0.3303
vn -0.9937 0.0000 0.1120
vn -0.6088 0.0000 -0.7934
vn -0.7934 0.0000 -0.6088
vn -0.9239 0.0000 -0.3827
vn -0.9914 0.0000 -0.1305
vn 0.0000 1.0000 0.0000
vn 0.0000 -1.0000 -0.0000
vn -0.9998 0.0000 -0.0202
vn -0.9980 0.0000 -0.0636
vn -0.9926 -0.0000 -0.1212
vn -0.9749 0.0000 -0.2227
vn -0.8546 0.0000 -0.5193
vn -0.7933 0.0000 -0.6088
vn -0.4775 0.4781 -0.7372
vn -0.8165 0.0000 -0.5774
vn -0.4784 -0.4782 -0.7365
vn 0.2495 -0.5797 -0.7757
vn -0.7222 0.1563 -0.6738
vn 0.3774 0.4780 -0.7932
vn 0.0166 -0.5546 -0.8319
vn -0.8719 0.1569 -0.4639
vn 0.1312 0.4576 -0.8794
vn -0.1996 -0.5548 -0.8077
vn -0.7198 0.5904 -0.3653
vn -0.1006 0.4573 -0.8836
vn 0.6757 0.0000 -0.7372
vn 0.5774 0.5773 -0.5774
vn 0.5767 -0.5780 -0.5774
vn 0.5546 -0.1635 -0.8159
vn -0.5532 -0.4577 -0.6960
vn -0.4303 0.5547 -0.7122
vn 0.2886 -0.1562 -0.9446
vn -0.7147 -0.4574 -0.5290
vn -0.5995 0.5550 -0.5767
vn 0.0342 -0.1566 -0.9871
vn -0.5192 -0.6789 -0.5192
vn -0.3509 0.6757 -0.6483
s off
f 1/1/1 2/2/1 3/3/1
f 4/4/2 3/3/2 5/5/2
f 6/6/3 7/7/3 8/8/3
f 5/5/2 9/9/2 4/4/2
f 2/2/4 10/10/4 11/11/4
f 11/11/5 12/12/5 13/13/5
f 13/13/6 14/14/6 15/15/6
f 15/15/7 16/16/7 17/17/7
f 17/17/8 18/18/8 19/19/8
f 18/18/9 20/20/9 19/19/9
f 21/21/10 22/22/10 20/20/10
f 23/23/11 24/24/11 25/25/11
f 26/26/12 27/27/12 24/24/12
f 28/28/13 29/29/13 27/27/13
f 29/29/14 30/30/14 31/31/14
f 32/32/3 30/30/3 22/22/3
f 32/33/15 18/34/15 14/35/15
f 7/36/16 33/37/16 34/38/16
f 2/39/16 13/40/16 20/41/16
f 35/42/16 36/43/16 37/44/16
f 36/43/16 38/45/16 37/44/16
f 38/45/16 39/46/16 37/44/16
f 39/46/16 40/47/16 37/44/16
f 40/47/16 8/48/16 37/44/16
f 6/49/15 41/50/15 42/51/15
f 41/50/15 43/52/15 42/51/15
f 43/52/15 44/53/15 42/51/15
f 44/53/15 45/54/15 42/51/15
f 45/54/15 46/55/15 42/51/15
f 8/8/17 41/56/17 6/6/17
f 41/56/18 39/57/18 43/58/18
f 43/58/19 38/59/19 44/60/19
f 44/60/20 36/61/20 45/62/20
f 36/61/21 46/63/21 45/62/21
f 35/64/1 25/25/1 46/63/1
f 47/65/22 48/66/22 49/67/22
f 33/68/13 50/69/13 48/66/13
f 51/70/14 52/71/14 50/69/14
f 53/72/15 49/73/15 50/74/15
f 1/1/1 54/75/1 2/2/1
f 4/4/2 1/1/2 3/3/2
f 6/6/3 52/71/3 7/7/3
f 5/5/2 55/76/2 9/9/2
f 2/2/4 54/75/4 10/10/4
f 11/11/5 10/10/5 12/12/5
f 13/13/6 12/12/6 14/14/6
f 15/15/7 14/14/7 16/16/7
f 17/17/8 16/16/8 18/18/8
f 18/18/9 21/21/9 20/20/9
f 21/21/10 32/32/10 22/22/10
f 23/23/11 26/26/11 24/24/11
f 26/26/12 28/28/12 27/27/12
f 28/28/13 56/77/13 29/29/13
f 29/29/14 56/77/14 30/30/14
f 32/32/3 31/31/3 30/30/3
f 1/78/15 4/79/15 42/51/15
f 46/63/1 25/25/1 24/24/1
f 1/78/15 42/51/15 54/80/15
f 42/51/15 46/55/15 31/81/15
f 54/80/15 42/51/15 32/33/15
f 10/82/15 54/80/15 32/33/15
f 42/51/15 31/81/15 32/33/15
f 14/35/15 12/83/15 10/82/15
f 18/34/15 16/84/15 14/35/15
f 32/33/15 21/85/15 18/34/15
f 29/86/15 31/81/15 24/87/15
f 24/87/15 31/81/15 46/55/15
f 24/87/15 27/88/15 29/86/15
f 14/35/15 10/82/15 32/33/15
f 55/89/16 5/90/16 37/44/16
f 37/44/16 8/48/16 34/38/16
f 8/48/16 7/36/16 34/38/16
f 7/36/16 51/91/16 33/37/16
f 33/37/16 47/92/16 34/38/16
f 47/92/16 57/93/16 34/38/16
f 57/93/16 58/94/16 34/38/16
f 34/38/16 55/89/16 37/44/16
f 22/95/16 30/96/16 37/44/16
f 30/96/16 56/97/16 23/98/16
f 37/44/16 30/96/16 23/98/16
f 56/97/16 28/99/16 23/98/16
f 28/99/16 26/100/16 23/98/16
f 23/98/1 35/42/1 37/44/1
f 20/41/16 22/95/16 2/39/16
f 17/101/16 19/102/16 20/41/16
f 13/40/16 15/103/16 20/41/16
f 15/103/16 17/101/16 20/41/16
f 2/39/16 11/104/16 13/40/16
f 5/90/16 3/105/16 37/44/16
f 3/105/16 2/39/16 37/44/16
f 22/95/16 37/44/16 2/39/16
f 8/8/17 40/106/17 41/56/17
f 41/56/18 40/106/18 39/57/18
f 43/58/19 39/57/19 38/59/19
f 44/60/20 38/59/20 36/61/20
f 36/61/21 35/64/21 46/63/21
f 35/64/1 23/23/1 25/25/1
f 47/65/12 33/68/12 48/66/12
f 33/68/13 51/70/13 50/69/13
f 51/70/14 7/7/14 52/71/14
f 52/107/15 6/49/15 59/108/15
f 6/49/15 42/51/15 59/108/15
f 42/51/15 4/79/15 9/109/15
f 9/109/15 59/108/15 42/51/15
f 59/108/15 53/72/15 52/107/15
f 53/72/15 60/110/15 49/73/15
f 49/73/15 48/111/15 50/74/15
f 50/74/15 52/107/15 53/72/15
f 59/112/23 55/76/24 34/113/25
f 34/113/26 53/114/27 59/112/28
f 58/115/29 60/116/30 53/114/31
f 57/117/32 49/67/33 60/116/34
f 59/112/35 9/9/36 55/76/37
f 34/113/38 58/115/39 53/114/40
f 58/115/41 57/117/42 60/116/43
f 57/117/44 47/65/45 49/67/46
