# Blender v2.80 (sub 41) OBJ File: ''
# www.blender.org
o SecurityCilinder1.002_Cylinder.032
v 0.000000 0.519893 -0.195183
v 0.138015 -0.519893 -0.138015
v 0.000000 -0.519893 -0.195183
v 0.138015 0.519893 -0.138015
v 0.195183 -0.519893 -0.000000
v 0.195183 0.519893 0.000000
v 0.138015 -0.519893 0.138015
v 0.138015 0.519893 0.138015
v 0.000000 -0.519893 0.195183
v 0.000000 0.519893 0.195183
v -0.138015 -0.519893 0.138015
v -0.138015 0.519893 0.138015
v -0.195183 -0.519893 -0.000000
v -0.195183 0.519893 0.000000
v -0.138015 -0.519893 -0.138015
v -0.138015 0.519893 -0.138015
vt 0.184699 0.000000
vt 0.292893 1.000000
vt 0.184699 1.000000
vt 0.292893 0.000000
vt 0.369398 1.000000
vt 0.184699 1.000000
vt 0.076505 0.000000
vt 0.184699 0.000000
vt 0.076505 1.000000
vt 0.000000 0.000000
vt 0.369398 0.000000
vt 0.477592 1.000000
vt 0.369398 1.000000
vt 0.477592 0.000000
vt 0.554097 1.000000
vt 0.815301 0.346851
vt 0.738797 0.101590
vt 0.923496 0.000000
vt 0.554097 0.000000
vt 0.662292 1.000000
vt 0.662291 0.000000
vt 0.738797 1.000000
vt 0.369398 0.000000
vt 0.000000 1.000000
vt 1.000000 0.101591
vt 1.000000 0.245261
vt 0.923495 0.346851
vt 0.738797 0.245260
vt 0.815302 0.000000
vt 0.738796 0.000000
vn 0.3827 0.0000 -0.9239
vn 0.9239 0.0000 -0.3827
vn 0.9239 -0.0000 0.3827
vn 0.3827 -0.0000 0.9239
vn -0.3827 -0.0000 0.9239
vn -0.9239 -0.0000 0.3827
vn 0.0000 1.0000 0.0000
vn -0.9239 0.0000 -0.3827
vn -0.3827 0.0000 -0.9239
s 1
f 1/1/1 2/2/1 3/3/1
f 4/4/2 5/5/2 2/2/2
f 6/6/3 7/7/3 5/8/3
f 8/9/4 9/10/4 7/7/4
f 10/11/5 11/12/5 9/13/5
f 12/14/6 13/15/6 11/12/6
f 14/16/7 10/17/7 6/18/7
f 14/19/8 15/20/8 13/15/8
f 16/21/9 3/22/9 15/20/9
f 1/1/1 4/4/1 2/2/1
f 4/4/2 6/23/2 5/5/2
f 6/6/3 8/9/3 7/7/3
f 8/9/4 10/24/4 9/10/4
f 10/11/5 12/14/5 11/12/5
f 12/14/6 14/19/6 13/15/6
f 6/18/7 4/25/7 1/26/7
f 1/26/7 16/27/7 14/16/7
f 14/16/7 12/28/7 10/17/7
f 10/17/7 8/29/7 6/18/7
f 6/18/7 1/26/7 14/16/7
f 14/19/8 16/21/8 15/20/8
f 16/21/9 1/30/9 3/22/9
