# Blender v2.79 (sub 6) OBJ File: ''
# www.blender.org
o Cylinder.005_Cylinder.033
v -0.569675 0.858568 -0.014708
v -0.569675 -0.681970 -0.081202
v -0.569675 -0.681970 -0.014708
v -0.569675 0.858568 -0.081202
v 0.569676 -0.681970 -0.081202
v 0.569676 0.858568 0.014707
v 0.569676 -0.681970 0.081201
v 0.569676 -0.681970 0.014707
v 0.569676 0.858568 0.081201
v -0.569675 -0.681970 0.081201
v 0.534768 -0.674619 0.014707
v 0.505992 -0.674883 -0.013916
v 0.534768 -0.674619 -0.014708
v -0.569675 0.858568 0.014707
v 0.569676 0.858568 -0.014708
v 0.569676 0.858568 -0.081202
v 0.539021 -0.681838 -0.013916
v 0.569676 -0.681970 -0.014708
v 0.539021 -0.681838 0.076832
v 0.539021 -0.681838 0.013916
v 0.534768 0.851217 -0.014708
v -0.569675 -0.681970 0.014707
v -0.534768 0.851217 0.014707
v -0.534768 -0.674619 0.014707
v -0.569675 0.858568 0.081201
v -0.534768 0.851217 -0.014708
v 0.534768 0.851217 0.014707
v 0.505992 -0.674883 0.013916
v -0.534768 -0.674619 -0.014708
v -0.539020 -0.681838 -0.076832
v -0.539020 -0.681838 -0.013916
v -0.539020 -0.681838 0.076832
v 0.539021 -0.876780 0.076832
v 0.505992 -0.869825 -0.013916
v 0.539021 -0.876780 -0.013916
v 0.539021 -0.876780 0.013916
v -0.505991 -0.674883 -0.013916
v -0.505991 -0.869825 0.013916
v -0.505991 -0.674883 0.013916
v 0.539021 -0.876780 -0.076832
v 0.539021 -0.681838 -0.076832
v -0.539020 -0.681838 0.013916
v -0.539020 -0.876780 0.076832
v -0.539020 -0.876780 0.013916
v -0.539020 -0.876780 -0.013916
v -0.505991 -0.869825 -0.013916
v -0.539020 -0.876780 -0.076832
v 0.505992 -0.869825 0.013916
vt 0.910973 0.000000
vt 0.934212 0.470409
vt 0.910973 0.470409
vt 0.398192 1.000000
vt 0.000000 0.529737
vt 0.398192 0.529737
vt 0.910972 0.470409
vt 0.887733 0.000000
vt 0.910972 0.000000
vt 0.796385 1.000000
vt 0.398192 0.529737
vt 0.796385 0.529737
vt 0.847884 0.735857
vt 0.837827 0.727117
vt 0.847884 0.726875
vt 0.887733 0.818313
vt 0.864494 0.470409
vt 0.887733 0.470409
vt 0.958004 0.818313
vt 0.934765 0.470409
vt 0.958004 0.470409
vt 0.784185 0.061717
vt 0.785671 0.059508
vt 0.796385 0.059473
vt 0.934488 0.818313
vt 0.912776 0.808953
vt 0.934765 0.808953
vt 0.784185 0.527492
vt 0.887733 0.470409
vt 0.864494 0.000000
vt 0.887733 0.000000
vt 0.398192 0.059474
vt 0.385993 0.527493
vt 0.385993 0.061717
vt 0.934212 0.000000
vt 0.957451 0.470409
vt 0.934212 0.470409
vt 0.000000 0.529737
vt 0.398192 0.529737
vt 0.990273 0.796995
vt 0.979992 0.470409
vt 0.990273 0.470409
vt 0.012200 0.061718
vt 0.010714 0.059508
vt 0.022257 0.061631
vt 0.989720 0.465919
vt 0.979439 0.000000
vt 0.989720 0.000000
vt 0.989720 0.000000
vt 1.000000 0.465919
vt 0.989720 0.465919
vt 0.398192 0.529736
vt 0.796385 0.529736
vt 0.398192 0.059473
vt 0.410392 0.527492
vt 0.000000 0.059474
vt 0.012200 0.527493
vt 0.888010 0.470409
vt 0.909722 0.479769
vt 0.887733 0.479769
vt 0.864494 0.658367
vt 0.796385 0.329183
vt 0.864494 0.329183
vt 0.774128 0.002123
vt 0.785671 0.000000
vt 0.796385 0.777419
vt 0.818373 0.717893
vt 0.818373 0.777419
vt 0.828100 0.717893
vt 0.818373 0.777419
vt 0.818373 0.717893
vt 0.862350 0.658367
vt 0.840362 0.717893
vt 0.840362 0.658367
vt 0.911249 0.470409
vt 0.911249 0.818313
vt 0.934488 0.470409
vt 0.912776 0.479769
vt 0.410392 0.061717
vt 0.408906 0.059508
vt 0.420449 0.061631
vt 0.888010 0.818313
vt 0.909722 0.808953
vt 0.911249 0.818313
vt 0.911249 0.470409
vt 0.847885 0.726875
vt 0.837827 0.718135
vt 0.847885 0.717893
vt 0.387479 0.059508
vt 0.958004 0.470409
vt 0.979992 0.799592
vt 0.958004 0.799592
vt 0.408906 0.000000
vt 0.420449 0.002123
vt 0.979439 0.329183
vt 0.957451 0.000000
vt 0.979439 0.000000
vt 1.000000 0.779421
vt 0.990273 0.470409
vt 1.000000 0.470409
vt 0.010714 0.000000
vt 0.375935 0.002123
vt 0.022257 0.002123
vt 0.828100 0.777419
vt 0.837827 0.717893
vt 0.837827 0.777419
vt 0.840362 0.658367
vt 0.818373 0.717893
vt 0.818373 0.658367
vt 0.818373 0.658367
vt 0.796385 0.717893
vt 0.796385 0.658367
vt 0.796385 0.000000
vt 0.864494 0.329183
vt 0.796385 0.329183
vt 0.387479 0.000000
vt 0.934212 0.000000
vt 0.000000 1.000000
vt 0.887733 0.470409
vt 0.398192 1.000000
vt 0.837827 0.735616
vt 0.864494 0.818313
vt 0.934765 0.818313
vt 0.774128 0.061631
vt 0.864494 0.470409
vt 0.957451 0.000000
vt 0.979992 0.796995
vt 0.979439 0.465919
vt 1.000000 0.000000
vt 0.796385 0.658367
vt 0.796385 0.717893
vt 0.828100 0.777419
vt 0.862350 0.717893
vt 0.934765 0.479769
vt 0.887733 0.808953
vt 0.837827 0.726633
vt 0.375935 0.061631
vt 0.979992 0.470409
vt 0.957451 0.329183
vt 0.990273 0.779421
vt 0.828100 0.717893
vt 0.840362 0.717893
vt 0.818373 0.717893
vt 0.864494 0.000000
vn -1.0000 -0.0000 0.0000
vn 0.0000 0.0000 -1.0000
vn 1.0000 0.0000 0.0000
vn 0.0000 -0.0000 1.0000
vn 0.0092 -1.0000 0.0000
vn 0.0000 1.0000 0.0000
vn 0.0262 0.1242 0.9919
vn 0.0260 0.1239 0.9919
vn -0.0043 -1.0000 0.0000
vn 0.0261 0.1241 -0.9919
vn 0.0043 -1.0000 0.0000
vn 0.0000 -0.9995 -0.0302
vn -0.0262 0.1242 0.9919
vn 0.0000 -0.9995 0.0302
vn 0.0000 -0.9995 0.0301
vn -0.0092 -1.0000 0.0000
vn -0.0261 0.1241 -0.9919
vn 0.0000 -1.0000 0.0000
s 1
f 1/1/1 2/2/1 3/3/1
f 4/4/2 5/5/2 2/6/2
f 6/7/3 7/8/3 8/9/3
f 9/10/4 10/11/4 7/12/4
f 11/13/5 12/14/5 13/15/5
f 14/16/6 9/17/6 6/18/6
f 4/19/6 15/20/6 16/21/6
f 13/22/7 17/23/8 18/24/7
f 8/25/9 19/26/9 20/27/9
f 18/24/4 21/28/4 13/22/4
f 16/29/3 18/30/3 5/31/3
f 22/32/2 23/33/2 24/34/2
f 25/35/1 22/36/1 10/37/1
f 6/38/2 23/33/2 14/39/2
f 26/40/6 27/41/6 21/42/6
f 11/43/10 20/44/10 28/45/10
f 21/46/3 11/47/3 13/48/3
f 23/49/1 29/50/1 24/51/1
f 1/52/4 21/28/4 15/53/4
f 3/54/4 26/55/4 1/52/4
f 8/56/2 27/57/2 6/38/2
f 3/58/11 30/59/11 31/60/11
f 32/61/4 33/62/4 19/63/4
f 17/23/4 34/64/4 35/65/4
f 19/66/3 36/67/3 20/68/3
f 37/69/1 38/70/1 39/71/1
f 17/72/3 40/73/3 41/74/3
f 10/75/12 19/26/12 7/76/12
f 22/77/11 32/78/11 10/75/11
f 29/79/13 31/80/13 37/81/13
f 18/82/9 41/83/9 5/84/9
f 2/85/14 41/83/14 30/59/15
f 29/86/16 39/87/16 24/88/16
f 24/34/17 42/89/17 22/32/17
f 36/90/18 43/91/18 44/92/18
f 45/93/4 34/64/4 46/94/4
f 40/95/18 45/96/18 47/97/18
f 34/98/18 38/99/18 46/100/18
f 36/101/2 38/102/2 48/103/2
f 28/104/3 34/105/3 12/106/3
f 42/107/1 43/108/1 32/109/1
f 31/80/4 46/94/4 37/81/4
f 30/110/1 45/111/1 31/112/1
f 41/113/2 47/114/2 30/115/2
f 20/44/2 48/103/2 28/45/2
f 42/89/2 38/102/2 44/116/2
f 1/1/1 4/117/1 2/2/1
f 4/4/2 16/118/2 5/5/2
f 6/7/3 9/119/3 7/8/3
f 9/10/4 25/120/4 10/11/4
f 11/13/5 28/121/5 12/14/5
f 14/16/6 25/122/6 9/17/6
f 4/19/6 1/123/6 15/20/6
f 13/22/7 12/124/7 17/23/8
f 8/25/9 7/76/9 19/26/9
f 18/24/4 15/53/4 21/28/4
f 16/29/3 15/125/3 18/30/3
f 22/32/2 14/39/2 23/33/2
f 25/35/1 14/126/1 22/36/1
f 6/38/2 27/57/2 23/33/2
f 26/40/6 23/127/6 27/41/6
f 11/43/10 8/56/10 20/44/10
f 21/46/3 27/128/3 11/47/3
f 23/49/1 26/129/1 29/50/1
f 1/52/4 26/55/4 21/28/4
f 3/54/4 29/79/4 26/55/4
f 8/56/2 11/43/2 27/57/2
f 3/58/11 2/85/11 30/59/11
f 32/61/4 43/130/4 33/62/4
f 17/23/4 12/124/4 34/64/4
f 19/66/3 33/131/3 36/67/3
f 37/69/1 46/132/1 38/70/1
f 17/72/3 35/133/3 40/73/3
f 10/75/12 32/78/12 19/26/12
f 22/77/11 42/134/11 32/78/11
f 29/79/13 3/54/13 31/80/13
f 18/82/9 17/135/9 41/83/9
f 2/85/14 5/84/14 41/83/14
f 29/86/16 37/136/16 39/87/16
f 24/34/17 39/137/17 42/89/17
f 36/90/18 33/138/18 43/91/18
f 45/93/4 35/65/4 34/64/4
f 40/95/18 35/139/18 45/96/18
f 34/98/18 48/140/18 38/99/18
f 36/101/2 44/116/2 38/102/2
f 28/104/3 48/141/3 34/105/3
f 42/107/1 44/142/1 43/108/1
f 31/80/4 45/93/4 46/94/4
f 30/110/1 47/143/1 45/111/1
f 41/113/2 40/144/2 47/114/2
f 20/44/2 36/101/2 48/103/2
f 42/89/2 39/137/2 38/102/2
