# Blender v2.80 (sub 43) OBJ File: '51.blend'
# www.blender.org
o ESQUINA1_Cube.000
v -8.119752 -0.418044 -8.362515
v -8.119752 -2.338132 -11.347302
v -8.119752 -2.338133 -5.926382
v -8.119752 1.502048 -11.347302
v -5.742857 -0.418043 -11.347302
v -8.119752 -0.418043 -11.347302
v -5.742857 1.502044 4.915464
v -8.119752 -0.418046 4.915464
v -5.742857 -0.418046 4.915464
v -5.742857 -3.375543 -0.505460
v -8.119752 -3.375544 4.915463
v -8.119752 -3.375543 -0.505459
v -8.119752 1.502044 4.915464
v -8.473283 1.647300 -0.556572
v -8.119752 1.501986 -0.505459
v -5.742857 -3.375544 4.915463
v -5.742857 -2.338135 5.813241
v -5.742857 -2.338135 4.915463
v -5.742857 -3.375544 5.813241
v -4.824853 -2.338135 5.813241
v -5.983406 1.647302 -11.913761
v -5.742857 1.502048 -11.347302
v -4.824853 -3.375544 4.915463
v 10.974789 1.502044 7.847962
v 6.011999 1.647299 8.193912
v 5.708243 1.502044 7.847962
v 5.708243 -3.375544 7.847961
v 10.974789 -2.338135 7.847961
v 5.708243 -2.338135 7.847961
v -4.824853 -3.375544 5.813241
v -4.824853 -2.338135 7.847961
v 10.974789 -3.375544 5.813241
v 5.708243 -3.375544 5.813241
v 10.974789 1.502044 5.813242
v 10.974789 -0.418046 7.847962
v 10.974789 -0.418046 5.813242
v -5.021767 1.647299 8.193912
v -5.021767 2.199163 6.062476
v -5.021767 1.647299 6.062476
v -5.983406 1.647299 6.062476
v -5.983406 2.199163 5.122025
v -5.983406 1.647299 5.122025
v 11.528880 1.647299 8.193912
v 6.011999 2.199162 8.193912
v -8.473283 1.647302 -11.913761
v -5.983406 2.199166 -11.913761
v -4.824853 1.502044 7.847962
v -4.824853 1.502044 5.813242
v -5.742857 1.502044 5.813242
v 11.528880 1.647299 6.062476
v -8.473283 1.647299 5.122025
v -5.021767 2.199162 8.193912
v -5.056868 2.199163 6.106903
v -5.983406 2.199163 6.062476
v -6.026285 2.199163 5.158844
v 11.528880 2.199162 8.193912
v 6.066143 2.199162 8.255580
v -8.473283 2.199166 -11.913761
v -6.026285 2.199166 -12.014734
v -8.473283 2.199163 5.122025
v -8.473283 2.199164 -0.556572
v -5.056868 2.199162 8.255580
v -5.056868 2.296690 6.106903
v -6.026285 2.199163 6.106903
v -6.026285 2.296690 5.158844
v 11.627646 2.199162 8.255580
v 6.066143 2.296689 8.255580
v -8.536301 2.199166 -12.014734
v -6.026285 2.296693 -12.014734
v -8.536301 2.199163 5.158844
v 11.627646 2.199163 6.106903
v -8.536301 2.199164 -0.565683
v -8.536301 2.296691 -0.565683
v -6.026285 2.296691 -0.565683
v 0.504638 2.296689 8.255580
v 0.504638 2.296690 6.106903
v -5.056868 2.296690 5.158844
v -8.536301 2.296690 5.158844
v -6.026285 2.296690 6.106903
v 11.627646 2.296689 8.255580
v 10.974789 -2.338135 5.813241
v 10.974789 -3.375544 7.847961
v -4.824853 -0.418046 7.847962
v -4.824853 -0.418046 5.813242
v -5.742857 -0.418046 5.813242
v -5.742857 -3.375541 -11.347303
v -8.119752 -3.375541 -11.347303
v -8.119752 -3.375542 -5.926381
v -8.119752 -2.338136 4.915463
v -8.119752 -2.338135 -0.505459
v -8.536301 2.199165 -6.290208
v -8.536301 2.296693 -12.014734
v -8.536301 2.296692 -6.290208
v -6.026285 2.296692 -6.290208
v -8.473283 2.199165 -6.235167
v -8.473283 1.647301 -6.235167
v -8.119752 1.502046 -5.926381
v -5.742857 -3.375542 -5.926382
v -8.119752 -0.418044 -3.490246
v -7.133796 -0.418045 -2.941594
v -8.119752 -0.418045 -2.941594
v 8.122228 -0.418046 7.847962
v -5.742857 -2.338132 -11.347302
v -7.133796 -1.130710 -5.461121
v -7.133796 -1.545204 -5.926383
v -7.133796 -2.338133 -5.926382
v -8.119752 -0.418045 1.930677
v -8.119752 -1.130711 -0.970719
v -8.119752 -0.784748 -4.922170
v -8.119752 -1.130710 -5.461121
v -8.119752 -0.512021 -2.188787
v -7.133796 -0.512021 -2.188787
v -8.119752 -0.784749 -1.509670
v -7.133796 -0.784749 -1.509670
v -7.133796 -1.130711 -0.970719
v -8.119752 -1.545205 -0.505455
v -7.133796 -1.545205 -0.505455
v -8.119752 -1.545204 -5.926383
v -7.133796 -0.784748 -4.922170
v -8.119752 -0.512020 -4.243053
v -7.133796 -0.512020 -4.243053
v -1.972292 -0.418046 7.847962
v 0.441694 1.502044 7.847962
v 3.294256 -0.418046 7.847962
v 2.855680 -0.418046 7.847962
v 3.294256 -0.418046 6.779956
v 6.066143 2.296690 6.106903
v 11.627646 2.296690 6.106903
v 0.504638 2.199162 8.255580
v -5.056868 2.296689 8.255580
v 0.495116 2.199162 8.193912
v 0.495116 1.647299 8.193912
v 0.441694 -3.375544 5.813241
v -4.824853 -3.375544 7.847961
v 0.441694 -3.375544 7.847961
v 0.441694 -2.338135 7.847961
v 3.919043 -0.517333 6.779956
v 5.708243 -2.338135 6.779955
v 0.441694 -2.338135 6.779955
v 0.765107 -1.130712 7.847962
v 1.148733 -0.867131 7.847962
v 5.001203 -0.867131 7.847962
v 5.384830 -1.130712 7.847962
v 2.230894 -0.517333 6.779956
v 2.855680 -0.418046 6.779956
v 2.230894 -0.517333 7.847962
v 1.648688 -0.675289 6.779956
v 1.648688 -0.675289 7.847962
v 1.148733 -0.867131 6.779956
v 0.765107 -1.130712 6.779956
v 0.441694 -1.545206 6.779955
v 0.441694 -1.545206 7.847961
v 5.708243 -1.545206 6.779955
v 5.708243 -1.545206 7.847961
v 5.384830 -1.130712 6.779956
v 5.001203 -0.867131 6.779956
v 4.501248 -0.675289 6.779956
v 4.501248 -0.675289 7.847962
v 3.919043 -0.517333 7.847962
v 11.528880 2.199164 -1.448792
v 11.528880 2.199163 6.062476
v 10.974789 -0.418045 -1.698025
v 10.974789 -2.338134 -1.698025
v 11.528880 1.647300 -1.448792
v 10.974789 1.502045 -1.698025
v 11.627646 2.296691 -1.404365
v 11.627646 2.199164 -1.404365
v 3.061382 1.647302 -11.913761
v 3.301931 1.502048 -11.347302
v 3.301931 -3.375541 -11.347303
v 3.301931 -2.338132 -11.347302
v 3.018503 2.199166 -12.014734
v 3.301931 -0.418043 -11.347302
v 3.061382 2.199166 -11.913761
v -5.056868 2.296691 -0.565683
v 0.504638 2.296690 5.158844
v -7.133796 -0.418044 -3.490246
v -7.133796 -2.338135 -0.505459
v 10.974789 -3.375543 -1.698026
v 3.018503 2.296693 -12.014734
vt 0.073118 0.688953
vt 0.025648 0.750238
vt 0.025648 0.638934
vt 0.241176 0.650839
vt 0.288646 0.602036
vt 0.288646 0.650839
vt 0.361764 0.612327
vt 0.420528 0.651751
vt 0.361764 0.651751
vt 0.839073 0.524253
vt 0.897818 0.413018
vt 0.897818 0.524284
vt 0.983875 0.067630
vt 0.992703 0.179874
vt 0.983875 0.178897
vt 0.997589 0.513134
vt 0.975393 0.491833
vt 0.997589 0.491833
vt 0.338950 0.650839
vt 0.361646 0.672140
vt 0.338950 0.672140
vt 0.983875 0.401431
vt 0.931166 0.412953
vt 0.925130 0.401399
vt 0.195585 0.759571
vt 0.173396 0.740740
vt 0.195585 0.740728
vt 0.511954 0.007185
vt 0.634700 0.000074
vt 0.642117 0.007255
vt 0.120588 0.524460
vt 0.146236 0.416327
vt 0.146236 0.524460
vt 0.338950 0.750987
vt 0.288646 0.729687
vt 0.338950 0.729687
vt 0.948106 0.737284
vt 0.897818 0.629212
vt 0.948106 0.629185
vt 0.482352 0.570550
vt 0.434882 0.612327
vt 0.434882 0.570550
vt 0.897818 0.737311
vt 0.911462 0.781074
vt 0.897818 0.781074
vt 0.852717 0.746818
vt 0.866361 0.766128
vt 0.852717 0.766128
vt 0.948106 0.412986
vt 0.961749 0.526260
vt 0.948106 0.526260
vt 0.975393 0.649818
vt 0.961750 0.598696
vt 0.975393 0.598696
vt 0.902442 0.007396
vt 0.907399 0.043970
vt 0.902442 0.049159
vt 0.925130 0.049171
vt 0.931166 0.043982
vt 0.498351 0.043749
vt 0.498351 0.000000
vt 0.931166 0.063286
vt 0.992703 0.063319
vt 0.925130 0.067599
vt 0.086862 0.414838
vt 0.085994 0.372001
vt 0.086862 0.371090
vt 0.063095 0.371077
vt 0.062035 0.352529
vt 0.063095 0.351774
vt 0.495910 0.415059
vt 0.360899 0.416252
vt 0.359560 0.414986
vt 0.001558 0.002073
vt 0.062035 0.000034
vt 0.063095 0.002107
vt 0.461020 0.774754
vt 0.447376 0.723631
vt 0.461020 0.723631
vt 0.852717 0.766563
vt 0.839073 0.746818
vt 0.467998 0.766550
vt 0.481641 0.810313
vt 0.467998 0.810313
vt 0.482352 0.416327
vt 0.495996 0.532921
vt 0.482352 0.532921
vt 0.414955 0.712475
vt 0.417366 0.756592
vt 0.414955 0.756592
vt 0.461020 0.723631
vt 0.463431 0.743097
vt 0.461020 0.743097
vt 0.995115 0.000000
vt 0.997526 0.114190
vt 0.995115 0.114190
vt 0.999937 0.237246
vt 0.997526 0.185710
vt 0.999937 0.185710
vt 0.001557 0.351741
vt 0.000000 0.352495
vt 0.062035 0.371988
vt 0.498351 0.372224
vt 0.498351 0.416327
vt 0.000000 0.234997
vt 0.001557 0.235185
vt 0.597109 0.831618
vt 0.542800 0.711466
vt 0.641558 0.795656
vt 0.543612 0.683633
vt 0.605031 0.572350
vt 0.642099 0.603951
vt 0.559967 0.697576
vt 0.414955 0.764011
vt 0.412544 0.712475
vt 0.414955 0.712475
vt 0.419777 0.732379
vt 0.417366 0.712475
vt 0.419777 0.712475
vt 0.997589 0.567209
vt 1.000000 0.611326
vt 0.997589 0.611326
vt 0.992703 0.000000
vt 0.995115 0.117537
vt 0.992703 0.117537
vt 0.387412 0.570550
vt 0.361764 0.612327
vt 0.361764 0.570550
vt 0.288646 0.690263
vt 0.338950 0.690263
vt 0.361646 0.711563
vt 0.338950 0.711563
vt 0.975393 0.452410
vt 0.997589 0.452410
vt 0.361764 0.691174
vt 0.420528 0.712475
vt 0.361764 0.712475
vt 0.336116 0.650839
vt 0.361764 0.602036
vt 0.361764 0.650839
vt 0.000000 0.750238
vt 0.000000 0.638934
vt 0.025648 0.416327
vt 0.000000 0.527630
vt 0.000000 0.416327
vt 0.025648 0.527630
vt 0.992703 0.235075
vt 0.995115 0.352612
vt 0.992703 0.352612
vt 0.995115 0.235075
vt 0.794624 1.000000
vt 0.740316 0.879847
vt 0.839073 0.964038
vt 0.695866 0.915809
vt 0.000000 0.117498
vt 0.000000 0.000000
vt 0.001557 0.118629
vt 0.482352 0.649515
vt 0.495996 0.766109
vt 0.482352 0.766109
vt 0.495996 0.649515
vt 0.992703 0.296430
vt 0.992703 0.412986
vt 0.983875 0.290164
vt 0.897818 0.746818
vt 0.839073 0.635520
vt 0.897818 0.635551
vt 0.961750 0.700416
vt 0.986117 0.711690
vt 0.961750 0.711677
vt 0.073118 0.577650
vt 0.120588 0.638934
vt 0.073118 0.588915
vt 0.975393 0.412986
vt 0.997589 0.412986
vt 0.361646 0.750987
vt 0.338950 0.750987
vt 0.193706 0.474896
vt 0.193706 0.416327
vt 0.288646 0.650839
vt 0.338950 0.650839
vt 0.387412 0.612327
vt 0.420528 0.691174
vt 0.336116 0.602036
vt 0.438147 0.621880
vt 0.448394 0.612327
vt 0.467998 0.612327
vt 0.388168 0.712475
vt 0.412544 0.823778
vt 0.388168 0.823778
vt 0.120588 0.416327
vt 0.073118 0.477611
vt 0.073118 0.416327
vt 0.120588 0.750238
vt 0.073118 0.750238
vt 0.055499 0.537183
vt 0.120587 0.527630
vt 0.064052 0.618315
vt 0.055499 0.629381
vt 0.961808 0.727079
vt 0.986176 0.727092
vt 0.961979 0.740874
vt 0.986347 0.740888
vt 0.962195 0.751754
vt 0.986563 0.751767
vt 0.962455 0.761085
vt 0.215188 0.760972
vt 0.195585 0.740728
vt 0.215188 0.740728
vt 0.234792 0.760972
vt 0.215188 0.740728
vt 0.234792 0.740728
vt 0.986823 0.649831
vt 0.962195 0.659587
vt 0.962455 0.649818
vt 0.986563 0.659600
vt 0.961979 0.670831
vt 0.986347 0.670844
vt 0.961808 0.684914
vt 0.986176 0.684928
vt 0.241176 0.740728
vt 0.193706 0.682159
vt 0.241176 0.632595
vt 0.193706 0.574025
vt 0.241176 0.524460
vt 0.420528 0.766185
vt 0.446923 0.775173
vt 0.420528 0.775187
vt 0.740586 0.524269
vt 0.802005 0.412986
vt 0.839073 0.444587
vt 0.703518 0.492668
vt 0.995115 0.228380
vt 0.997526 0.342570
vt 0.995115 0.342570
vt 0.997526 0.228380
vt 0.223446 0.416178
vt 0.085994 0.416104
vt 0.223211 0.414912
vt 0.948106 0.639534
vt 0.961749 0.752808
vt 0.948106 0.752808
vt 0.961749 0.639534
vt 0.948106 0.521085
vt 0.897818 0.413013
vt 0.948106 0.412986
vt 0.897818 0.521112
vt 0.120588 0.740728
vt 0.146236 0.632595
vt 0.146236 0.740728
vt 0.120588 0.632595
vt 0.771050 0.000147
vt 0.907399 0.000221
vt 0.772279 0.007325
vt 0.241176 0.416327
vt 0.286191 0.687575
vt 0.288646 0.700404
vt 0.241176 0.650839
vt 0.361764 0.712475
vt 0.388168 0.820609
vt 0.361764 0.820609
vt 0.176087 0.625954
vt 0.182603 0.618077
vt 0.182603 0.538978
vt 0.176087 0.531101
vt 0.446986 0.753399
vt 0.446923 0.766171
vt 0.420591 0.753413
vt 0.447087 0.741530
vt 0.420691 0.741545
vt 0.447209 0.731368
vt 0.420813 0.731382
vt 0.447376 0.723631
vt 0.120588 0.765520
vt 0.146992 0.757009
vt 0.146992 0.765520
vt 0.120588 0.757009
vt 0.146992 0.740728
vt 0.146992 0.765520
vt 0.173396 0.749239
vt 0.173396 0.765520
vt 0.146992 0.749239
vt 0.173396 0.740728
vt 0.420981 0.818468
vt 0.447209 0.810443
vt 0.447376 0.818454
vt 0.420813 0.810457
vt 0.447087 0.800081
vt 0.420691 0.800095
vt 0.446986 0.788049
vt 0.420591 0.788063
vt 0.193706 0.740728
vt 0.481641 0.612327
vt 0.481641 0.766550
vt 0.434882 0.416327
vt 0.387412 0.416327
vt 0.511954 0.048948
vt 0.498351 0.197921
vt 0.482352 0.416327
vt 1.000000 0.412986
vt 1.000000 0.567209
vt 0.495910 0.371311
vt 0.498351 0.218052
vt 0.707625 0.412832
vt 0.701589 0.401279
vt 0.975393 0.412986
vt 0.361764 0.416327
vt 0.336116 0.416327
vt 0.999937 0.000000
vt 0.241176 0.602036
vt 0.288646 0.416327
vt 0.285576 0.000154
vt 0.286636 0.002227
vt 0.658725 0.781767
vt 0.658454 0.617894
vt 0.420528 0.612327
vt 0.839073 0.412986
vt 0.975393 0.513134
vt 0.361646 0.650839
vt 0.173396 0.759583
vt 0.120588 0.416327
vt 0.288646 0.750987
vt 0.897818 0.737311
vt 0.482352 0.612327
vt 0.911462 0.737311
vt 0.866361 0.746818
vt 0.961749 0.412986
vt 0.961750 0.649818
vt 0.447376 0.774754
vt 0.839073 0.766563
vt 0.495996 0.416327
vt 0.417366 0.712475
vt 0.463431 0.723631
vt 0.997526 0.000000
vt 0.997526 0.237246
vt 0.498351 0.747428
vt 0.506543 0.652032
vt 0.526444 0.697522
vt 0.412544 0.764011
vt 0.417366 0.732379
vt 0.995115 0.000000
vt 0.839073 0.746786
vt 0.986117 0.700429
vt 0.467998 0.723631
vt 0.420528 0.673611
vt 0.448394 0.723631
vt 0.438147 0.714078
vt 0.429594 0.703012
vt 0.422851 0.689068
vt 0.420528 0.662346
vt 0.422851 0.646890
vt 0.429594 0.632946
vt 0.412544 0.712475
vt 0.070795 0.562193
vt 0.064052 0.548249
vt 0.045251 0.527630
vt 0.045251 0.638934
vt 0.070795 0.604371
vt 0.986823 0.761098
vt 0.195585 0.760972
vt 0.215188 0.760972
vt 0.193706 0.583030
vt 0.288646 0.709409
vt 0.241176 0.758973
vt 0.286192 0.722237
vt 0.282286 0.734191
vt 0.277544 0.744456
vt 0.271027 0.752333
vt 0.260780 0.758973
vt 0.260780 0.650839
vt 0.271027 0.657480
vt 0.277543 0.665356
vt 0.282286 0.675622
vt 0.388168 0.712475
vt 0.165839 0.632595
vt 0.191251 0.595858
vt 0.187346 0.607812
vt 0.191251 0.561197
vt 0.187346 0.549243
vt 0.165839 0.524460
vt 0.420981 0.723645
vt 0.120588 0.740728
vt 0.146992 0.740728
vt 0.467998 0.612327
vt 0.361764 0.416327
vt 0.511954 0.203120
vt 0.997589 0.412986
vt 0.495910 0.217139
vt 0.961750 0.412986
vt 0.997526 0.000000
vt 0.241176 0.416327
vn -1.0000 -0.0000 0.0000
vn 0.0000 0.0000 -1.0000
vn 0.0000 -0.0000 1.0000
vn -0.0000 -1.0000 -0.0000
vn -0.3800 -0.9250 0.0000
vn -0.3802 -0.9249 -0.0000
vn 0.0000 -0.9687 -0.2484
vn 0.0000 -0.9220 0.3871
vn 1.0000 -0.0000 0.0000
vn -0.5936 -0.8047 -0.0000
vn 0.0000 -0.8640 0.5035
vn 0.2536 -0.9673 -0.0000
vn 0.0000 -0.8180 0.5752
vn -0.5169 -0.8560 -0.0000
vn 0.0000 1.0000 0.0000
vn 0.0000 -0.9923 -0.1239
vn 0.0000 -0.9280 -0.3727
vn 0.0000 -0.8415 -0.5402
vn 0.0000 -0.7467 -0.6652
vn 0.0000 -0.7467 0.6652
vn 0.0000 -0.8415 0.5402
vn 0.0000 -0.9280 0.3727
vn 0.0000 -0.9923 0.1239
vn 0.1569 -0.9876 -0.0000
vn 0.2618 -0.9651 -0.0000
vn 0.3582 -0.9336 -0.0000
vn 0.5663 -0.8242 -0.0000
vn 0.7884 -0.6152 -0.0000
vn -0.7884 -0.6152 -0.0000
vn -0.5663 -0.8242 -0.0000
vn -0.3582 -0.9336 -0.0000
vn -0.2618 -0.9651 -0.0000
vn -0.1569 -0.9876 -0.0000
s 1
f 1/1/1 2/2/1 3/3/1
f 4/4/2 5/5/2 6/6/2
f 7/7/3 8/8/3 9/9/3
f 10/10/4 11/11/4 12/12/4
f 13/13/5 14/14/6 15/15/6
f 16/16/1 17/17/1 18/18/1
f 19/19/3 20/20/3 17/21/3
f 4/22/7 21/23/7 22/24/7
f 23/25/4 19/26/4 16/27/4
f 24/28/8 25/29/8 26/30/8
f 27/31/3 28/32/3 29/33/3
f 30/34/1 31/35/1 20/36/1
f 32/37/4 27/38/4 33/39/4
f 34/40/9 35/41/9 36/42/9
f 37/43/1 38/44/1 39/45/1
f 40/46/1 41/47/1 42/48/1
f 43/49/3 44/50/3 25/51/3
f 45/52/2 46/53/2 21/54/2
f 47/55/10 39/56/10 48/57/10
f 49/58/11 39/56/11 40/59/11
f 24/28/12 50/60/12 43/61/12
f 13/13/13 42/62/13 51/63/13
f 49/58/14 42/62/14 7/64/14
f 52/65/4 53/66/4 38/67/4
f 54/68/4 55/69/4 41/70/4
f 56/71/4 57/72/4 44/73/4
f 58/74/4 59/75/4 46/76/4
f 42/77/3 60/78/3 51/79/3
f 39/80/3 54/81/3 40/46/3
f 50/82/9 56/83/9 43/84/9
f 51/85/1 61/86/1 14/87/1
f 62/88/1 63/89/1 53/90/1
f 64/91/1 65/92/1 55/93/1
f 66/94/3 67/95/3 57/96/3
f 68/97/2 69/98/2 59/99/2
f 60/100/4 55/69/4 70/101/4
f 54/68/4 53/66/4 64/102/4
f 56/71/4 71/103/4 66/104/4
f 60/100/4 72/105/4 61/106/4
f 73/107/15 65/108/15 74/109/15
f 63/110/15 75/111/15 76/112/15
f 65/108/15 63/110/15 77/113/15
f 55/114/3 78/115/3 70/116/3
f 53/117/3 79/118/3 64/119/3
f 71/120/9 80/121/9 66/122/9
f 70/123/1 73/124/1 72/125/1
f 81/126/9 82/127/9 32/128/9
f 20/36/1 83/129/1 84/130/1
f 17/21/3 84/131/3 85/132/3
f 18/18/1 85/133/1 9/134/1
f 18/135/3 11/136/3 16/137/3
f 2/138/2 86/139/2 87/140/2
f 3/3/1 87/141/1 88/142/1
f 89/143/1 12/144/1 11/145/1
f 90/146/1 88/142/1 12/144/1
f 91/147/1 92/148/1 68/149/1
f 72/125/1 93/150/1 91/147/1
f 92/151/15 94/152/15 69/153/15
f 93/154/15 74/109/15 94/152/15
f 58/74/4 91/155/4 68/156/4
f 95/157/4 72/105/4 91/155/4
f 96/158/1 58/159/1 45/160/1
f 14/87/1 95/161/1 96/158/1
f 4/22/5 96/162/5 45/163/5
f 97/164/5 14/14/6 96/162/5
f 87/165/4 98/166/4 88/167/4
f 88/167/4 10/10/4 12/12/4
f 99/168/4 100/169/4 101/170/4
f 101/171/1 97/172/1 99/173/1
f 9/134/1 49/174/1 7/175/1
f 85/132/3 48/176/3 49/177/3
f 102/178/3 28/32/3 35/179/3
f 84/130/1 47/180/1 48/181/1
f 36/42/9 28/182/9 81/126/9
f 18/135/3 8/8/3 89/183/3
f 6/6/2 103/184/2 2/138/2
f 104/185/1 105/186/1 106/187/1
f 90/188/15 106/189/15 3/190/15
f 13/191/1 107/192/1 8/193/1
f 1/1/1 4/194/1 6/195/1
f 108/196/1 107/192/1 15/197/1
f 109/198/1 97/172/1 110/199/1
f 100/169/16 111/200/16 101/170/16
f 112/201/17 113/202/17 111/200/17
f 114/203/18 108/204/18 113/202/18
f 115/205/19 116/206/19 108/204/19
f 117/207/2 90/208/2 116/209/2
f 106/210/3 118/211/3 3/212/3
f 105/213/20 110/214/20 118/215/20
f 104/216/21 109/217/21 110/214/21
f 119/218/22 120/219/22 109/217/22
f 121/220/23 99/168/23 120/219/23
f 89/143/1 107/192/1 90/146/1
f 47/221/3 122/222/3 123/223/3
f 123/223/3 124/224/3 26/225/3
f 125/226/4 126/227/4 124/228/4
f 127/229/15 80/230/15 128/231/15
f 76/112/15 67/232/15 127/229/15
f 129/233/3 130/234/3 62/235/3
f 57/96/3 75/236/3 129/233/3
f 52/65/4 129/237/4 62/238/4
f 44/73/4 129/237/4 131/239/4
f 132/240/3 52/241/3 37/242/3
f 25/51/3 131/243/3 132/240/3
f 133/244/4 134/245/4 30/246/4
f 33/39/4 135/247/4 133/244/4
f 134/248/3 136/249/3 31/250/3
f 135/251/3 29/33/3 136/249/3
f 47/55/8 132/252/8 37/253/8
f 26/30/8 132/252/8 123/254/8
f 102/178/3 24/255/3 26/225/3
f 137/256/3 126/257/3 138/258/3
f 29/259/15 139/260/15 136/261/15
f 140/262/3 141/263/3 123/223/3
f 142/264/3 143/265/3 26/225/3
f 125/226/24 144/266/24 145/267/24
f 146/268/25 147/269/25 144/266/25
f 148/270/26 149/271/26 147/269/26
f 141/272/27 150/273/27 149/271/27
f 140/274/28 151/275/28 150/276/28
f 152/277/9 139/278/9 151/275/9
f 29/279/1 153/280/1 138/281/1
f 154/282/29 155/283/29 153/280/29
f 143/284/30 156/285/30 155/286/30
f 142/287/31 157/288/31 156/285/31
f 158/289/32 137/290/32 157/288/32
f 159/291/33 126/227/33 137/290/33
f 31/250/3 122/222/3 83/292/3
f 50/82/9 160/293/9 161/294/9
f 81/126/9 162/295/9 36/42/9
f 32/128/9 163/296/9 81/126/9
f 34/297/12 164/298/12 50/60/12
f 36/42/9 165/299/9 34/40/9
f 71/120/9 166/300/9 128/301/9
f 161/302/4 167/303/4 71/103/4
f 22/24/7 168/304/7 169/305/7
f 46/53/2 168/306/2 21/54/2
f 103/184/2 170/307/2 86/139/2
f 5/5/2 171/308/2 103/184/2
f 69/98/2 172/309/2 59/99/2
f 22/310/2 173/311/2 5/5/2
f 46/76/4 172/312/4 174/313/4
f 65/108/15 175/314/15 74/109/15
f 63/110/15 176/315/15 77/113/15
f 1/1/1 6/195/1 2/2/1
f 4/4/2 22/310/2 5/5/2
f 7/7/3 13/316/3 8/8/3
f 10/10/4 16/317/4 11/11/4
f 13/13/5 51/63/5 14/14/6
f 16/16/1 19/318/1 17/17/1
f 19/19/3 30/319/3 20/20/3
f 4/22/7 45/163/7 21/23/7
f 23/25/4 30/320/4 19/26/4
f 24/28/8 43/61/8 25/29/8
f 27/31/3 82/321/3 28/32/3
f 30/34/1 134/322/1 31/35/1
f 32/37/4 82/323/4 27/38/4
f 34/40/9 24/324/9 35/41/9
f 37/43/1 52/325/1 38/44/1
f 40/46/1 54/326/1 41/47/1
f 43/49/3 56/327/3 44/50/3
f 45/52/2 58/328/2 46/53/2
f 47/55/10 37/253/10 39/56/10
f 49/58/11 48/57/11 39/56/11
f 24/28/12 34/297/12 50/60/12
f 13/13/13 7/64/13 42/62/13
f 49/58/14 40/59/14 42/62/14
f 52/65/4 62/238/4 53/66/4
f 54/68/4 64/102/4 55/69/4
f 56/71/4 66/104/4 57/72/4
f 58/74/4 68/156/4 59/75/4
f 42/77/3 41/329/3 60/78/3
f 39/80/3 38/330/3 54/81/3
f 50/82/9 161/294/9 56/83/9
f 51/85/1 60/331/1 61/86/1
f 62/88/1 130/332/1 63/89/1
f 64/91/1 79/333/1 65/92/1
f 66/94/3 80/334/3 67/95/3
f 68/97/2 92/335/2 69/98/2
f 60/100/4 41/70/4 55/69/4
f 54/68/4 38/67/4 53/66/4
f 56/71/4 161/302/4 71/103/4
f 60/100/4 70/101/4 72/105/4
f 73/107/15 78/336/15 65/108/15
f 63/110/15 130/337/15 75/111/15
f 65/108/15 79/338/15 63/110/15
f 55/114/3 65/339/3 78/115/3
f 53/117/3 63/340/3 79/118/3
f 71/120/9 128/301/9 80/121/9
f 70/123/1 78/341/1 73/124/1
f 81/126/9 28/182/9 82/127/9
f 20/36/1 31/35/1 83/129/1
f 17/21/3 20/20/3 84/131/3
f 18/18/1 17/17/1 85/133/1
f 18/135/3 89/183/3 11/136/3
f 2/138/2 103/184/2 86/139/2
f 3/3/1 2/2/1 87/141/1
f 89/143/1 90/146/1 12/144/1
f 90/146/1 3/3/1 88/142/1
f 91/147/1 93/150/1 92/148/1
f 72/125/1 73/124/1 93/150/1
f 92/151/15 93/154/15 94/152/15
f 93/154/15 73/107/15 74/109/15
f 58/74/4 95/157/4 91/155/4
f 95/157/4 61/106/4 72/105/4
f 96/158/1 95/161/1 58/159/1
f 14/87/1 61/86/1 95/161/1
f 4/22/5 97/164/5 96/162/5
f 97/164/5 15/15/6 14/14/6
f 87/165/4 86/342/4 98/166/4
f 88/167/4 98/166/4 10/10/4
f 99/168/4 177/343/4 100/169/4
f 101/171/1 15/197/1 97/172/1
f 9/134/1 85/133/1 49/174/1
f 85/132/3 84/131/3 48/176/3
f 102/178/3 29/33/3 28/32/3
f 84/130/1 83/129/1 47/180/1
f 36/42/9 35/41/9 28/182/9
f 18/135/3 9/9/3 8/8/3
f 6/6/2 5/5/2 103/184/2
f 106/187/1 178/344/1 100/345/1
f 178/344/1 117/346/1 115/347/1
f 114/348/1 178/344/1 115/347/1
f 114/348/1 112/349/1 178/344/1
f 112/349/1 100/345/1 178/344/1
f 100/345/1 177/350/1 106/187/1
f 177/350/1 121/351/1 106/187/1
f 121/351/1 119/352/1 106/187/1
f 119/352/1 104/185/1 106/187/1
f 90/188/15 178/353/15 106/189/15
f 13/191/1 15/197/1 107/192/1
f 1/1/1 97/172/1 4/194/1
f 15/197/1 101/171/1 111/354/1
f 15/197/1 111/354/1 113/355/1
f 116/356/1 90/146/1 107/192/1
f 15/197/1 113/355/1 108/196/1
f 108/196/1 116/356/1 107/192/1
f 1/1/1 3/3/1 118/357/1
f 1/1/1 118/357/1 110/199/1
f 99/173/1 97/172/1 120/358/1
f 97/172/1 1/1/1 110/199/1
f 120/358/1 97/172/1 109/198/1
f 100/169/16 112/201/16 111/200/16
f 112/201/17 114/203/17 113/202/17
f 114/203/18 115/205/18 108/204/18
f 115/205/19 117/359/19 116/206/19
f 117/207/2 178/360/2 90/208/2
f 106/210/3 105/361/3 118/211/3
f 105/213/20 104/216/20 110/214/20
f 104/216/21 119/218/21 109/217/21
f 119/218/22 121/220/22 120/219/22
f 121/220/23 177/343/23 99/168/23
f 89/143/1 8/193/1 107/192/1
f 47/221/3 83/292/3 122/222/3
f 123/223/3 125/362/3 124/224/3
f 125/226/4 145/267/4 126/227/4
f 127/229/15 67/232/15 80/230/15
f 76/112/15 75/111/15 67/232/15
f 129/233/3 75/236/3 130/234/3
f 57/96/3 67/95/3 75/236/3
f 52/65/4 131/239/4 129/237/4
f 44/73/4 57/72/4 129/237/4
f 132/240/3 131/243/3 52/241/3
f 25/51/3 44/50/3 131/243/3
f 133/244/4 135/247/4 134/245/4
f 33/39/4 27/38/4 135/247/4
f 134/248/3 135/251/3 136/249/3
f 135/251/3 27/31/3 29/33/3
f 47/55/8 123/254/8 132/252/8
f 26/30/8 25/29/8 132/252/8
f 102/178/3 35/179/3 24/255/3
f 126/257/3 145/363/3 139/364/3
f 145/363/3 144/365/3 139/364/3
f 144/365/3 147/366/3 139/364/3
f 147/366/3 149/367/3 139/364/3
f 149/367/3 150/368/3 139/364/3
f 150/368/3 151/369/3 139/364/3
f 139/364/3 138/258/3 126/257/3
f 138/258/3 153/370/3 155/371/3
f 155/371/3 156/372/3 138/258/3
f 156/372/3 157/373/3 138/258/3
f 157/373/3 137/256/3 138/258/3
f 29/259/15 138/374/15 139/260/15
f 122/222/3 136/249/3 152/375/3
f 122/222/3 152/375/3 140/262/3
f 125/362/3 123/223/3 146/376/3
f 123/223/3 122/222/3 140/262/3
f 146/376/3 123/223/3 148/377/3
f 148/377/3 123/223/3 141/263/3
f 26/225/3 124/224/3 159/378/3
f 26/225/3 159/378/3 158/379/3
f 29/33/3 102/178/3 154/380/3
f 102/178/3 26/225/3 143/265/3
f 154/380/3 102/178/3 143/265/3
f 26/225/3 158/379/3 142/264/3
f 125/226/24 146/268/24 144/266/24
f 146/268/25 148/270/25 147/269/25
f 148/270/26 141/272/26 149/271/26
f 141/272/27 140/381/27 150/273/27
f 140/274/28 152/277/28 151/275/28
f 152/277/9 136/382/9 139/278/9
f 29/279/1 154/282/1 153/280/1
f 154/282/29 143/383/29 155/283/29
f 143/284/30 142/287/30 156/285/30
f 142/287/31 158/289/31 157/288/31
f 158/289/32 159/291/32 137/290/32
f 159/291/33 124/228/33 126/227/33
f 31/250/3 136/249/3 122/222/3
f 50/82/9 164/384/9 160/293/9
f 81/126/9 163/296/9 162/295/9
f 32/128/9 179/385/9 163/296/9
f 34/297/12 165/386/12 164/298/12
f 36/42/9 162/295/9 165/299/9
f 71/120/9 167/387/9 166/300/9
f 161/302/4 160/388/4 167/303/4
f 22/24/7 21/23/7 168/304/7
f 46/53/2 174/389/2 168/306/2
f 103/184/2 171/308/2 170/307/2
f 5/5/2 173/311/2 171/308/2
f 69/98/2 180/390/2 172/309/2
f 22/310/2 169/391/2 173/311/2
f 46/76/4 59/75/4 172/312/4
f 65/108/15 77/113/15 175/314/15
f 63/110/15 76/112/15 176/315/15
