# Blender v2.79 (sub 6) OBJ File: ''
# www.blender.org
o STARIS1_Cube.043
v -1.864278 0.805778 -6.432495
v -1.464485 0.805778 6.432495
v -1.464485 0.805778 -6.432495
v 1.733863 -0.742641 -6.432495
v 1.733863 -0.936193 6.432495
v 1.733863 -0.936193 -6.432495
v 1.334070 -0.742641 6.432495
v 1.733863 -0.742641 6.432495
v 1.334070 -0.549088 -6.432495
v 1.334070 -0.549088 6.432495
v 0.934277 -0.549088 -6.432495
v 0.934277 -0.549088 6.432495
v 0.934277 -0.355536 -6.432495
v 0.934277 -0.355536 6.432495
v 0.534483 -0.355536 -6.432495
v 0.534483 -0.355536 6.432495
v 0.534483 -0.161983 -6.432495
v 0.534483 -0.161983 6.432495
v 0.134689 -0.161983 -6.432495
v 0.134689 -0.161983 6.432495
v 0.134689 0.031569 -6.432495
v 0.134690 0.031568 6.432495
v -1.464485 0.612226 6.432495
v -1.464485 0.612226 -6.432495
v -1.064691 0.612226 6.432495
v -1.064691 0.612226 -6.432495
v -1.064691 0.418673 6.432495
v -1.064691 0.418674 -6.432495
v -0.664898 0.418674 6.432495
v -0.664898 0.418674 -6.432495
v -0.664898 0.225121 6.432495
v -0.664898 0.225121 -6.432495
v -0.265103 0.225121 6.432495
v -0.265104 0.225121 -6.432495
v -0.265103 0.031568 6.432495
v -0.265104 0.031569 -6.432495
v -1.864278 0.805778 6.432495
v 1.334070 -0.742641 -6.432495
vt 0.449198 1.000000
vt 0.524064 0.000000
vt 0.524064 1.000000
vt 1.000000 0.000000
vt 0.963755 1.000000
vt 0.963755 0.000000
vt 0.449198 1.000000
vt 0.374332 0.000000
vt 0.449198 0.000000
vt 0.710040 1.000000
vt 0.746285 0.000000
vt 0.746285 1.000000
vt 0.524064 1.000000
vt 0.598929 0.000000
vt 0.598930 1.000000
vt 0.891265 1.000000
vt 0.927510 0.000000
vt 0.927510 1.000000
vt 0.374332 0.000000
vt 0.299466 1.000000
vt 0.299466 0.000000
vt 0.710040 0.000000
vt 0.673795 1.000000
vt 0.673795 0.000000
vt 0.299465 0.000000
vt 0.224600 1.000000
vt 0.224600 0.000000
vt 0.927510 1.000000
vt 0.963755 0.000000
vt 0.963755 1.000000
vt 0.855021 1.000000
vt 0.891265 0.000000
vt 0.891265 1.000000
vt 0.149734 1.000000
vt 0.224599 0.000000
vt 0.224600 1.000000
vt 0.782530 0.000000
vt 0.746285 1.000000
vt 0.746286 0.000000
vt 0.673795 0.000000
vt 0.598930 1.000000
vt 0.598930 0.000000
vt 0.855021 0.000000
vt 0.818776 1.000000
vt 0.818776 0.000000
vt 0.000001 1.000000
vt 0.074866 0.000000
vt 0.074867 1.000000
vt 0.818775 0.000000
vt 0.782530 1.000000
vt 0.782531 0.000000
vt 0.074868 1.000000
vt 0.149733 0.000000
vt 0.149733 1.000000
vt 0.449198 0.000000
vt 1.000000 1.000000
vt 0.374332 1.000000
vt 0.710040 0.000000
vt 0.524064 0.000000
vt 0.891265 0.000000
vt 0.374332 1.000000
vt 0.710040 1.000000
vt 0.299466 1.000000
vt 0.927510 0.000000
vt 0.855021 0.000000
vt 0.149733 0.000000
vt 0.782530 1.000000
vt 0.673795 1.000000
vt 0.855020 1.000000
vt 0.000000 0.000000
vt 0.818775 1.000000
vt 0.074867 0.000000
vn 0.0000 1.0000 0.0000
vn 1.0000 0.0000 0.0000
s 1
f 1/1/1 2/2/1 3/3/1
f 4/4/2 5/5/2 6/6/2
f 4/7/1 7/8/1 8/9/1
f 7/10/2 9/11/2 10/12/2
f 10/13/1 11/14/1 12/15/1
f 12/16/2 13/17/2 14/18/2
f 14/19/1 15/20/1 16/21/1
f 16/22/2 17/23/2 18/24/2
f 18/25/1 19/26/1 20/27/1
f 20/28/2 21/29/2 22/30/2
f 23/31/2 3/32/2 2/33/2
f 24/34/1 25/35/1 26/36/1
f 26/37/2 27/38/2 28/39/2
f 28/40/1 29/41/1 30/42/1
f 30/43/2 31/44/2 32/45/2
f 32/46/1 33/47/1 34/48/1
f 34/49/2 35/50/2 36/51/2
f 36/52/1 22/53/1 21/54/1
f 1/1/1 37/55/1 2/2/1
f 4/4/2 8/56/2 5/5/2
f 4/7/1 38/57/1 7/8/1
f 7/10/2 38/58/2 9/11/2
f 10/13/1 9/59/1 11/14/1
f 12/16/2 11/60/2 13/17/2
f 14/19/1 13/61/1 15/20/1
f 16/22/2 15/62/2 17/23/2
f 18/25/1 17/63/1 19/26/1
f 20/28/2 19/64/2 21/29/2
f 23/31/2 24/65/2 3/32/2
f 24/34/1 23/66/1 25/35/1
f 26/37/2 25/67/2 27/38/2
f 28/40/1 27/68/1 29/41/1
f 30/43/2 29/69/2 31/44/2
f 32/46/1 31/70/1 33/47/1
f 34/49/2 33/71/2 35/50/2
f 36/52/1 35/72/1 22/53/1
