# Blender v2.79 (sub 6) OBJ File: ''
# www.blender.org
o EscaleraNivel2_2_Cube.046
v 1.444123 1.000000 -2.746872
v 1.444123 -1.000000 2.746872
v 1.444123 -1.000000 -2.746872
v -1.444123 1.000000 -2.746872
v 1.444123 1.000000 2.746872
v -1.444123 1.000000 2.746872
vt 1.000000 0.000000
vt 0.590855 1.000000
vt 0.590855 0.000000
vt 0.590855 0.000000
vt 0.000000 1.000000
vt 0.000000 0.000000
vt 1.000000 1.000000
vt 0.590855 1.000000
vn 1.0000 0.0000 0.0000
vn 0.0000 1.0000 0.0000
s 1
f 1/1/1 2/2/1 3/3/1
f 4/4/2 5/5/2 1/6/2
f 1/1/1 5/7/1 2/2/1
f 4/4/2 6/8/2 5/5/2
