# Blender v2.80 (sub 45) OBJ File: 'AutopistaBackup.blend'
# www.blender.org
o PARED_SEMILUNA.001_Cube.059
v 5.399781 -4.035433 1.286129
v 5.399781 4.298491 1.286129
v 5.399781 -4.035433 -1.387801
v 5.399781 4.298491 -1.387801
v -7.521096 -4.035433 1.286129
v -7.521096 4.298491 1.286129
v -7.521096 -4.035433 -1.387801
v -7.521096 4.298491 -1.387801
v 5.399781 2.590087 1.286129
v 5.399781 2.590087 -1.387801
v -7.521096 2.590087 -1.387801
v -7.521096 2.590087 1.286129
v 5.399781 -4.035433 -0.601973
v 5.399781 4.298491 -0.601973
v -7.521096 -4.035433 -0.601973
v -7.521096 4.298491 -0.601973
v -7.521096 2.590087 -0.601973
v 5.399781 2.590087 -0.601973
v 8.768284 -4.035433 -0.601973
v 8.768284 -4.035433 1.286129
v 8.768284 2.590087 1.286129
v 8.768284 2.590087 -0.601973
v 5.399781 0.862174 -1.387801
v -7.521096 0.862174 -1.387801
v -7.521096 0.862174 1.286129
v 5.399781 0.862175 1.286129
v 5.399781 0.862174 -0.601973
v -7.521096 0.862174 -0.601973
v 8.034916 0.862175 1.286129
v 8.034916 0.862174 -0.601973
v 5.399781 -1.586629 -1.387801
v -7.521096 -1.586629 -1.387801
v -7.521096 -1.586629 1.286129
v 5.399781 -1.586629 -0.601973
v -7.521096 -1.586629 -0.601973
v 9.534473 -1.586629 -0.601973
v 5.399781 -1.586629 1.286129
v 9.534473 -1.586629 1.286129
vt 0.500000 0.250000
vt 0.625000 0.125000
vt 0.500000 0.125000
vt 0.500000 0.500000
vt 0.625000 0.250000
vt 0.500000 0.750000
vt 0.625000 0.625000
vt 0.500000 0.625000
vt 0.500000 1.000000
vt 0.625000 0.750000
vt 0.125000 0.750000
vt 0.375000 0.625000
vt 0.125000 0.625000
vt 0.875000 0.625000
vt 0.437500 0.750000
vt 0.437500 0.625000
vt 0.437500 0.500000
vt 0.437500 0.250000
vt 0.437500 0.125000
vt 0.500000 0.000000
vt 0.500000 0.000000
vt 0.875000 0.500000
vt 0.625000 0.500000
vt 0.375000 0.500000
vt 0.125000 0.500000
vt 0.625000 0.000000
vt 0.437500 0.125000
vt 0.437500 0.000000
vt 0.437500 1.000000
vt 0.437500 1.000000
vt 0.406250 0.125000
vt 0.375000 0.125000
vt 0.375000 0.125000
vt 0.125000 0.625000
vt 0.406250 1.000000
vt 0.406250 0.000000
vt 0.406250 0.625000
vt 0.406250 0.500000
vt 0.406250 0.250000
vt 0.406250 0.750000
vt 0.375000 1.000000
vt 0.375000 0.750000
vt 0.375000 0.250000
vt 0.375000 0.000000
vt 0.406250 0.125000
vt 0.375000 1.000000
vt 0.625000 1.000000
vt 0.875000 0.750000
vt 0.500000 0.125000
vt 0.500000 1.000000
vt 0.125000 0.750000
vt 0.406250 1.000000
vn 1.0000 0.0000 0.0000
vn 0.0000 0.0000 -1.0000
vn -1.0000 0.0000 0.0000
vn 0.0000 0.0000 1.0000
vn 0.0000 -1.0000 0.0000
vn 0.0000 1.0000 0.0000
vn 0.9205 -0.3907 0.0000
vn 0.8528 0.5222 -0.0000
vn 0.9544 -0.2986 0.0000
s off
f 10/1/1 14/2/1 18/3/1
f 11/4/2 4/5/2 10/1/2
f 12/6/3 16/7/3 17/8/3
f 9/9/4 6/10/4 12/6/4
f 1/11/5 15/12/5 13/13/5
f 6/10/6 14/14/6 16/7/6
f 25/15/4 9/9/4 12/6/4
f 25/15/3 17/8/3 28/16/3
f 24/17/2 10/1/2 23/18/2
f 23/18/1 18/3/1 27/19/1
f 21/20/6 18/3/6 9/21/6
f 28/16/3 11/4/3 24/17/3
f 16/7/6 4/22/6 8/23/6
f 13/13/5 7/24/5 3/25/5
f 17/8/3 8/23/3 11/4/3
f 18/3/1 2/26/1 9/21/1
f 30/27/7 21/20/7 29/28/7
f 29/29/4 9/9/4 26/30/4
f 34/31/2 19/32/2 13/33/2
f 19/34/5 1/11/5 13/13/5
f 18/3/2 30/27/2 27/19/2
f 37/35/4 29/29/4 26/30/4
f 38/36/8 30/27/8 29/28/8
f 35/37/3 24/17/3 32/38/3
f 31/39/1 27/19/1 34/31/1
f 32/38/2 23/18/2 31/39/2
f 33/40/3 28/16/3 35/37/3
f 37/35/4 25/15/4 33/40/4
f 1/41/4 33/40/4 5/42/4
f 5/42/3 35/37/3 15/12/3
f 7/24/2 31/39/2 3/43/2
f 3/43/1 34/31/1 13/33/1
f 15/12/3 32/38/3 7/24/3
f 20/44/9 36/45/9 38/36/9
f 20/46/4 37/35/4 1/41/4
f 30/27/2 34/31/2 27/19/2
f 10/1/1 4/5/1 14/2/1
f 11/4/2 8/23/2 4/5/2
f 12/6/3 6/10/3 16/7/3
f 9/9/4 2/47/4 6/10/4
f 1/11/5 5/42/5 15/12/5
f 6/10/6 2/48/6 14/14/6
f 25/15/4 26/30/4 9/9/4
f 25/15/3 12/6/3 17/8/3
f 24/17/2 11/4/2 10/1/2
f 23/18/1 10/1/1 18/3/1
f 21/20/6 22/49/6 18/3/6
f 28/16/3 17/8/3 11/4/3
f 16/7/6 14/14/6 4/22/6
f 13/13/5 15/12/5 7/24/5
f 17/8/3 16/7/3 8/23/3
f 18/3/1 14/2/1 2/26/1
f 30/27/7 22/49/7 21/20/7
f 29/29/4 21/50/4 9/9/4
f 34/31/2 36/45/2 19/32/2
f 19/34/5 20/51/5 1/11/5
f 18/3/2 22/49/2 30/27/2
f 37/35/4 38/52/4 29/29/4
f 38/36/8 36/45/8 30/27/8
f 35/37/3 28/16/3 24/17/3
f 31/39/1 23/18/1 27/19/1
f 32/38/2 24/17/2 23/18/2
f 33/40/3 25/15/3 28/16/3
f 37/35/4 26/30/4 25/15/4
f 1/41/4 37/35/4 33/40/4
f 5/42/3 33/40/3 35/37/3
f 7/24/2 32/38/2 31/39/2
f 3/43/1 31/39/1 34/31/1
f 15/12/3 35/37/3 32/38/3
f 20/44/9 19/32/9 36/45/9
f 20/46/4 38/52/4 37/35/4
f 30/27/2 36/45/2 34/31/2
