# Blender v2.80 (sub 41) OBJ File: 'ESCENA.blend'
# www.blender.org
o PARED_SEMILUNA_Cube.054
v 8.031010 4.655151 -1.037073
v 8.031010 2.946747 -2.087698
v 8.031010 2.946747 -1.037073
v 8.031010 4.655151 -2.087697
v 25.305765 2.946747 -2.087698
v 25.305765 4.655151 -1.037073
v 25.305765 2.946747 1.487250
v 25.305765 2.946747 -1.037073
v 25.305765 4.655150 1.487251
v 8.031010 2.946747 1.487250
v 25.305765 -3.678772 -1.037075
v 8.031010 -3.678772 1.487249
v 8.031010 -3.678772 -1.037075
v 25.305765 -3.678772 1.487249
v 25.305765 -3.678772 -2.087699
v 8.031010 -3.678772 -2.087699
v -34.172569 2.946747 1.487250
v 25.305765 4.655151 -2.087697
v 8.031010 4.655150 1.487251
v -31.855099 -0.366013 -1.037074
v -31.855099 -0.366013 1.487250
v -34.172569 -3.678772 -1.037075
v -34.172569 -3.678772 1.487249
v -34.172569 2.946747 -1.037073
vt 0.354057 0.290438
vt 0.371721 0.319161
vt 0.354057 0.319161
vt 0.311616 0.290438
vt 0.340339 0.000000
vt 0.340339 0.290438
vt 0.414162 0.430555
vt 0.371721 0.401832
vt 0.414162 0.401832
vt 0.140117 0.000000
vt 0.111394 0.290438
vt 0.111394 0.000000
vt 0.269175 0.000000
vt 0.311616 0.290438
vt 0.269175 0.290438
vt 0.536615 0.290438
vt 0.494174 0.000000
vt 0.536615 0.000000
vt 0.000000 0.290438
vt 0.000000 0.000000
vt 0.371721 0.290438
vt 0.414162 0.290438
vt 0.451733 0.000000
vt 0.451733 0.290438
vt 0.371721 0.430555
vt 0.354057 0.430555
vt 0.494174 0.000000
vt 0.451733 0.709562
vt 0.451733 0.000000
vt 0.431826 0.401832
vt 0.431826 0.290438
vt 0.554279 0.290438
vt 0.554279 0.000000
vt 0.251511 0.000000
vt 0.251511 0.290438
vt 0.431826 0.430555
vt 0.311616 0.290438
vt 0.311616 0.319161
vt 0.494174 0.290438
vt 0.536615 0.346135
vt 0.494174 0.346135
vt 0.111394 1.000000
vt 0.055697 0.961037
vt 0.251511 0.000000
vt 0.251511 0.709562
vt 0.195814 0.670599
vt 0.269175 1.000000
vt 0.536615 0.401832
vt 0.494174 0.401832
vt 0.371721 0.290438
vt 0.311616 0.000000
vt 0.371721 0.430555
vt 0.140117 0.290438
vt 0.311616 0.000000
vt 0.494174 0.290438
vt 0.494174 0.709562
vt 0.536615 0.290438
vt 0.000000 1.000000
vt 0.140117 0.709562
vt 0.140117 0.000000
vt 0.311616 1.000000
vn -1.0000 0.0000 0.0000
vn 0.0000 0.0000 -1.0000
vn 1.0000 -0.0000 0.0000
vn 0.0000 -0.0000 1.0000
vn 0.0000 -1.0000 -0.0000
vn 0.0000 1.0000 0.0000
vn -0.8194 -0.5732 -0.0000
vn -0.8194 0.5732 0.0000
s 1
f 1/1/1 2/2/1 3/3/1
f 4/4/2 5/5/2 2/6/2
f 6/7/3 7/8/3 8/9/3
f 9/10/4 10/11/4 7/12/4
f 11/13/5 12/14/5 13/15/5
f 1/16/6 9/17/6 6/18/6
f 7/12/4 12/19/4 14/20/4
f 8/9/3 14/21/3 11/22/3
f 2/6/2 15/23/2 16/24/2
f 3/3/1 16/25/1 13/26/1
f 3/27/6 17/28/6 10/29/6
f 5/30/3 11/22/3 15/31/3
f 4/32/6 6/18/6 18/33/6
f 15/34/5 13/15/5 16/35/5
f 18/36/3 8/9/3 5/30/3
f 19/37/1 3/3/1 10/38/1
f 17/39/7 20/40/7 21/41/7
f 10/11/4 17/42/4 21/43/4
f 13/44/2 22/45/2 20/46/2
f 12/14/5 22/47/5 13/15/5
f 21/41/8 22/48/8 23/49/8
f 1/1/1 4/50/1 2/2/1
f 4/4/2 18/51/2 5/5/2
f 6/7/3 9/52/3 7/8/3
f 9/10/4 19/53/4 10/11/4
f 11/13/5 14/54/5 12/14/5
f 1/16/6 19/55/6 9/17/6
f 7/12/4 10/11/4 12/19/4
f 8/9/3 7/8/3 14/21/3
f 2/6/2 5/5/2 15/23/2
f 3/3/1 2/2/1 16/25/1
f 3/27/6 24/56/6 17/28/6
f 5/30/3 8/9/3 11/22/3
f 4/32/6 1/16/6 6/18/6
f 15/34/5 11/13/5 13/15/5
f 18/36/3 6/7/3 8/9/3
f 19/37/1 1/1/1 3/3/1
f 17/39/7 24/57/7 20/40/7
f 23/58/4 12/19/4 21/43/4
f 12/19/4 10/11/4 21/43/4
f 24/59/2 3/60/2 20/46/2
f 3/60/2 13/44/2 20/46/2
f 12/14/5 23/61/5 22/47/5
f 21/41/8 20/40/8 22/48/8
