# Blender v2.80 (sub 44) OBJ File: ''
# www.blender.org
o Circle1_Circle.010
v 1.969999 -0.000001 7.877083
v 1.154486 -1.154487 7.877083
v 1.393000 -1.393001 7.877083
v 1.393000 1.393000 7.877083
v 0.000000 1.632690 7.877083
v 1.154486 1.154485 7.877083
v -1.969999 -0.000000 7.877083
v -1.154486 1.154486 7.877083
v -1.393000 1.393000 7.877083
v 0.000000 -1.970001 7.877083
v -1.154486 -1.154487 7.877083
v -1.393000 -1.393001 7.877083
v 0.000000 -1.632691 7.877083
v 1.632690 -0.000001 7.877083
v 0.000000 1.969999 7.877083
v -1.632690 -0.000001 7.877083
v 1.154486 -1.154486 -7.877083
v 1.969999 0.000001 -7.877083
v 1.393000 -1.393000 -7.877083
v 1.154486 1.154487 -7.877083
v 0.000000 1.970001 -7.877083
v 1.393000 1.393001 -7.877083
v -1.154486 1.154487 -7.877083
v -1.969999 0.000001 -7.877083
v -1.393000 1.393001 -7.877083
v -1.154486 -1.154486 -7.877083
v 0.000000 -1.969999 -7.877083
v -1.393000 -1.393000 -7.877083
v 0.000000 -1.632690 -7.877083
v 1.632690 0.000001 -7.877083
v 0.000000 1.632691 -7.877083
v -1.632690 0.000001 -7.877083
vt 0.207137 0.812311
vt 0.173928 0.873940
vt 0.160212 0.867284
vt 0.273499 0.812311
vt 0.306708 0.873940
vt 0.267817 0.828380
vt 0.273499 1.000000
vt 0.306708 0.938372
vt 0.320424 0.945027
vt 0.160212 0.945027
vt 0.212818 0.983932
vt 0.207137 1.000000
vt 0.173928 0.938371
vt 0.212818 0.828380
vt 0.320424 0.867284
vt 0.267817 0.983932
vt 0.107606 0.828380
vt 0.046925 0.812311
vt 0.113287 0.812311
vt 0.013716 0.873940
vt 0.000000 0.945027
vt 0.000000 0.867284
vt 0.052606 0.983932
vt 0.113287 1.000000
vt 0.046925 1.000000
vt 0.146496 0.938372
vt 0.160212 0.867284
vt 0.160212 0.945027
vt 0.146496 0.873940
vt 0.052606 0.828380
vt 0.013716 0.938371
vt 0.734856 0.812311
vt 0.679857 0.000000
vt 0.734856 0.000000
vt 0.000000 0.000000
vt 0.038890 0.812311
vt 0.000000 0.812311
vt 0.199142 0.812311
vt 0.132780 0.000000
vt 0.199142 0.000000
vt 0.038890 0.000000
vt 0.093889 0.812311
vt 0.246067 0.812311
vt 0.246067 0.000000
vt 0.093890 0.000000
vt 0.132780 0.812311
vt 0.613495 0.812311
vt 0.679857 0.000000
vt 0.679857 0.812311
vt 0.508242 0.812312
vt 0.453244 0.000000
vt 0.508243 0.000000
vt 0.875417 0.000000
vt 0.922341 0.812311
vt 0.875416 0.812311
vt 0.359354 0.000000
vt 0.398244 0.812311
vt 0.359354 0.812311
vt 0.292992 0.000000
vt 0.359354 0.812311
vt 0.292992 0.812311
vt 0.398244 0.000000
vt 0.453243 0.812311
vt 0.246067 0.000000
vt 0.246067 0.812311
vt 1.000000 0.000000
vt 1.000000 0.813588
vt 0.961171 0.811037
vt 0.547133 0.000000
vt 0.613495 0.812311
vt 0.547133 0.812311
vt 0.828492 0.812311
vt 0.875416 0.000000
vt 0.875416 0.812311
vt 0.107605 0.983932
vt 0.679857 0.812311
vt 0.132780 0.812311
vt 0.547133 0.812312
vt 0.613495 0.000000
vt 0.453243 0.812311
vt 0.828492 0.814169
vt 0.781674 0.810457
vt 0.828492 0.000000
vt 0.359354 0.000000
vt 0.453243 0.000000
vt 0.922341 0.000000
vt 0.961171 0.002551
vt 0.922342 0.813588
vt 0.613495 0.000000
vt 0.781674 0.814169
vt 0.734856 0.003712
vt 0.781674 0.000000
vn 0.0000 0.0000 1.0000
vn -0.0000 0.0000 -1.0000
vn -0.3827 0.9239 0.0000
vn 0.3827 0.9239 0.0000
vn -0.9239 -0.3827 -0.0000
vn 0.9239 0.3827 0.0000
vn -0.9239 0.3827 0.0000
vn 0.9239 -0.3827 -0.0000
vn 0.3827 -0.9239 -0.0000
vn -0.3827 -0.9239 -0.0000
s 1
f 1/1/1 2/2/1 3/3/1
f 4/4/1 5/5/1 6/6/1
f 7/7/1 8/8/1 9/9/1
f 10/10/1 11/11/1 12/12/1
f 3/3/1 13/13/1 10/10/1
f 1/1/1 6/6/1 14/14/1
f 9/9/1 5/5/1 15/15/1
f 12/12/1 16/16/1 7/7/1
f 17/17/2 18/18/2 19/19/2
f 20/20/2 21/21/2 22/22/2
f 23/23/2 24/24/2 25/25/2
f 26/26/2 27/27/2 28/28/2
f 29/29/2 19/19/2 27/27/2
f 30/30/2 22/22/2 18/18/2
f 31/31/2 25/25/2 21/21/2
f 24/24/2 26/26/2 28/28/2
f 17/32/3 13/33/3 2/34/3
f 29/35/4 11/36/4 13/37/4
f 24/38/5 12/39/5 7/40/5
f 26/41/6 16/42/6 11/36/6
f 25/43/7 7/40/7 9/44/7
f 32/45/8 8/46/8 16/42/8
f 15/47/3 25/48/3 9/49/3
f 23/50/9 5/51/9 8/52/9
f 22/53/4 15/54/4 4/55/4
f 31/56/10 6/57/10 5/58/10
f 18/59/6 4/60/6 1/61/6
f 20/62/5 14/63/5 6/57/5
f 19/64/8 1/61/8 3/65/8
f 30/66/7 2/67/7 14/68/7
f 27/69/9 3/70/9 10/71/9
f 12/72/10 27/73/10 10/74/10
f 1/1/1 14/14/1 2/2/1
f 4/4/1 15/15/1 5/5/1
f 7/7/1 16/16/1 8/8/1
f 10/10/1 13/13/1 11/11/1
f 3/3/1 2/2/1 13/13/1
f 1/1/1 4/4/1 6/6/1
f 9/9/1 8/8/1 5/5/1
f 12/12/1 11/11/1 16/16/1
f 17/17/2 30/30/2 18/18/2
f 20/20/2 31/31/2 21/21/2
f 23/23/2 32/75/2 24/24/2
f 26/26/2 29/29/2 27/27/2
f 29/29/2 17/17/2 19/19/2
f 30/30/2 20/20/2 22/22/2
f 31/31/2 23/23/2 25/25/2
f 24/24/2 32/75/2 26/26/2
f 17/32/3 29/76/3 13/33/3
f 29/35/4 26/41/4 11/36/4
f 24/38/5 28/77/5 12/39/5
f 26/41/6 32/45/6 16/42/6
f 25/43/7 24/38/7 7/40/7
f 32/78/8 23/50/8 8/52/8
f 15/47/3 21/79/3 25/48/3
f 23/50/9 31/80/9 5/51/9
f 22/81/4 21/82/4 15/83/4
f 31/56/10 20/62/10 6/57/10
f 18/59/6 22/84/6 4/60/6
f 20/62/5 30/85/5 14/63/5
f 19/64/8 18/59/8 1/61/8
f 30/86/7 17/87/7 2/88/7
f 27/69/9 19/89/9 3/70/9
f 12/90/10 28/91/10 27/92/10
