# Blender v2.80 (sub 41) OBJ File: 'AutopistaV2.blend'
# www.blender.org
o Cube.058_Cube.034
v -3.169675 -0.141735 1.587493
v -3.169675 -1.999669 -0.727824
v -3.169675 -0.141735 -0.727824
v 2.310007 -0.906393 1.587493
v 2.310007 0.951541 1.587493
v 2.310007 -0.906393 -0.727824
v 2.310007 0.951541 -0.727824
vt 0.625000 0.250000
vt 0.375000 0.500000
vt 0.375000 0.250000
vt 0.625000 0.500000
vt 0.375000 0.750000
vt 0.875000 0.500000
vt 0.625000 0.750000
vt 0.875000 0.750000
vn 0.0000 0.0000 -1.0000
vn 1.0000 0.0000 0.0000
vn -0.1957 0.9807 0.0000
s off
f 3/1/1 6/2/1 2/3/1
f 7/4/2 4/5/2 6/2/2
f 3/6/3 5/7/3 7/4/3
f 3/1/1 7/4/1 6/2/1
f 7/4/2 5/7/2 4/5/2
f 3/6/3 1/8/3 5/7/3
