# Blender v2.80 (sub 44) OBJ File: ''
# www.blender.org
o Cube.058_Cube.034
v -3.169675 -0.141735 -0.727824
v 2.310007 -0.906393 -0.727824
v -3.169675 -1.999669 -0.727824
v 2.310007 0.951541 -0.727824
v 2.310007 -0.906393 1.587493
v 2.310007 0.951541 1.587493
v -3.169675 -0.141735 1.587493
vt 0.386190 0.938916
vt 0.690100 0.061084
vt 0.690100 1.000000
vt 0.690100 0.389051
vt 1.000000 0.000000
vt 1.000000 0.389050
vt 0.000000 0.000000
vt 0.386190 0.000000
vt 0.690100 0.000000
vt 0.000000 0.938916
vn -0.0000 0.0000 -1.0000
vn 1.0000 -0.0000 0.0000
vn -0.1957 0.9807 0.0000
s 1
f 1/1/1 2/2/1 3/3/1
f 4/4/2 5/5/2 2/6/2
f 1/1/3 6/7/3 4/8/3
f 1/1/1 4/8/1 2/2/1
f 4/4/2 6/9/2 5/5/2
f 1/1/3 7/10/3 6/7/3
