# Blender v2.80 (sub 41) OBJ File: 'AutopistaV2.blend'
# www.blender.org
o Cube.059_Cube.035
v -6.899917 1.619771 2.159334
v -6.899917 -1.619771 -0.907472
v -6.899917 1.619771 -0.907472
v 5.564397 1.619771 2.159334
v 5.564397 -1.619771 -0.907472
v 5.564397 1.619771 -0.907472
v 0.884226 -1.619771 -0.907472
v 0.884226 1.619771 -0.907472
v 0.884226 1.619771 2.159334
v 0.884226 1.619771 -3.222789
v 5.564397 1.619771 -3.222789
v 5.564397 -1.619771 -3.222789
v 0.884226 -1.619771 -3.222789
vt 0.625000 0.500000
vt 0.686277 0.500000
vt 0.686277 0.500000
vt 0.875000 0.500000
vt 0.686277 0.750000
vt 0.625000 0.750000
vt 0.625000 0.250000
vt 0.375000 0.438723
vt 0.375000 0.250000
vt 0.625000 0.438723
vt 0.375000 0.500000
vt 0.375000 0.438723
vt 0.625000 0.438723
vt 0.375000 0.500000
vt 0.625000 0.500000
vt 0.875000 0.750000
vn 0.0000 1.0000 0.0000
vn 0.0000 0.0000 -1.0000
vn -1.0000 0.0000 0.0000
vn 1.0000 0.0000 0.0000
s off
f 6/1/1 10/2/1 8/3/1
f 3/4/1 9/5/1 8/3/1
f 8/3/1 4/6/1 6/1/1
f 3/7/2 7/8/2 2/9/2
f 10/10/2 12/11/2 13/12/2
f 8/13/3 13/12/3 7/8/3
f 5/14/4 11/15/4 6/1/4
f 6/1/1 11/15/1 10/2/1
f 3/4/1 1/16/1 9/5/1
f 8/3/1 9/5/1 4/6/1
f 3/7/2 8/13/2 7/8/2
f 10/10/2 11/15/2 12/11/2
f 8/13/3 10/10/3 13/12/3
f 5/14/4 12/11/4 11/15/4
