# Blender v2.80 (sub 44) OBJ File: ''
# www.blender.org
o Cube.059_Cube.035
v 5.564397 1.619771 -0.907472
v 0.884226 1.619771 -3.222789
v 0.884226 1.619771 -0.907472
v -6.899917 1.619771 -0.907472
v 0.884226 1.619771 2.159334
v 5.564397 1.619771 2.159334
v 0.884226 -1.619771 -0.907472
v -6.899917 -1.619771 -0.907472
v 5.564397 -1.619771 -3.222789
v 0.884226 -1.619771 -3.222789
v 5.564397 -1.619771 -0.907472
v 5.564397 1.619771 -3.222789
v -6.899917 1.619771 2.159334
vt 0.258558 0.000000
vt 0.453758 0.375486
vt 0.258558 0.375486
vt 0.258558 1.000000
vt 0.000000 0.375486
vt 0.000000 0.000000
vt 0.453759 0.624514
vt 0.726879 0.000000
vt 0.726879 0.624514
vt 0.726879 0.375486
vt 1.000000 0.000000
vt 1.000000 0.375486
vt 0.726879 0.375486
vt 0.922080 0.635391
vt 0.726879 0.635391
vt 0.453758 0.624514
vt 0.648959 0.884420
vt 0.453758 0.884420
vt 0.453758 0.000000
vt 0.000000 1.000000
vt 0.453758 0.000000
vt 0.726879 0.000000
vt 0.922080 0.375486
vt 0.648959 0.624514
vn 0.0000 1.0000 0.0000
vn 0.0000 0.0000 -1.0000
vn -1.0000 0.0000 0.0000
vn 1.0000 -0.0000 0.0000
s 1
f 1/1/1 2/2/1 3/3/1
f 4/4/1 5/5/1 3/3/1
f 3/3/1 6/6/1 1/1/1
f 4/7/2 7/8/2 8/9/2
f 2/10/2 9/11/2 10/12/2
f 3/13/3 10/14/3 7/15/3
f 11/16/4 12/17/4 1/18/4
f 1/1/1 12/19/1 2/2/1
f 4/4/1 13/20/1 5/5/1
f 3/3/1 5/5/1 6/6/1
f 4/7/2 3/21/2 7/8/2
f 2/10/2 12/22/2 9/11/2
f 3/13/3 2/23/3 10/14/3
f 11/16/4 9/24/4 12/17/4
