# Blender v2.80 (sub 44) OBJ File: ''
# www.blender.org
o Cube.060_Cube.036
v -13.716949 7.736039 -7.104564
v -0.915597 2.102501 -7.104564
v -13.716949 2.102501 -7.104564
v -13.716949 2.102501 -1.230015
v -0.915597 2.102501 -1.230015
v -13.716949 -1.383862 -1.230015
v -0.915597 -1.383862 -1.230015
v -13.716949 -1.383862 8.687564
v 11.337851 -1.383862 8.687564
v -0.915597 -1.383862 8.687564
v 11.337851 -1.383862 -1.230015
v 15.391509 -1.383862 8.687564
v 15.391509 -1.383862 -5.861647
v 15.391509 -1.383862 -1.230015
v 17.906904 -2.426030 -5.053472
v 17.906904 -2.426030 -0.421839
v 24.973722 -2.426030 -0.421839
v -0.915597 7.736039 -7.104564
v 11.337851 -1.383862 -5.861647
v 24.973722 -2.426030 -5.053472
vt 0.608496 0.661249
vt 0.844109 0.330372
vt 0.844109 0.661249
vt 0.854189 0.330372
vt 0.608496 0.000000
vt 0.854189 0.000000
vt 1.000000 0.330876
vt 0.854189 0.000000
vt 1.000000 0.000000
vt 0.193710 0.669628
vt 0.608496 1.000000
vt 0.193710 1.000000
vt 0.608496 0.353396
vt 0.608496 0.669628
vt 0.193710 0.353396
vt 0.608496 0.248781
vt 0.000000 0.248781
vt 0.193710 0.248781
vt 0.033801 0.182378
vt 0.227511 0.182378
vt 0.227511 0.000000
vt 0.608496 0.330372
vt 0.608496 0.330372
vt 0.854189 0.330876
vt 0.000000 0.353396
vt 0.033801 0.000000
vn 0.0000 0.0000 -1.0000
vn 0.0000 -1.0000 -0.0000
vn -0.3828 -0.9238 0.0000
s 1
f 1/1/1 2/2/1 3/3/1
f 2/4/2 4/5/2 3/6/2
f 5/7/1 6/8/1 4/9/1
f 7/10/2 8/11/2 6/12/2
f 7/10/2 9/13/2 10/14/2
f 11/15/2 12/16/2 9/13/2
f 11/15/2 13/17/2 14/18/2
f 14/18/3 15/19/3 16/20/3
f 15/19/2 17/21/2 16/20/2
f 1/1/1 18/22/1 2/2/1
f 2/4/2 5/23/2 4/5/2
f 5/7/1 7/24/1 6/8/1
f 7/10/2 10/14/2 8/11/2
f 7/10/2 11/15/2 9/13/2
f 11/15/2 14/18/2 12/16/2
f 11/15/2 19/25/2 13/17/2
f 14/18/3 13/17/3 15/19/3
f 15/19/2 20/26/2 17/21/2
