# Blender v2.80 (sub 44) OBJ File: ''
# www.blender.org
o Cube.020_Cube.112
v -3.379772 -1.945419 2.053488
v -3.379772 -2.248612 -2.053488
v -3.379772 -2.248612 2.053488
v -3.379772 -1.945419 -2.053488
v 3.379774 -2.248612 -2.053488
v 3.379774 -1.945419 -2.053488
v 3.379774 -2.248612 2.053488
v 3.379774 -1.945419 2.053488
v -3.225537 -1.945419 -1.841290
v 3.225538 -1.228181 -1.841290
v 3.225538 -1.945419 -1.841290
v -3.225537 -1.945419 1.841290
v 3.225538 -1.945419 1.841290
v 3.545834 -0.876728 2.024130
v 3.225538 -1.228181 1.841290
v -3.225537 -1.228181 -1.841290
v -3.225537 -1.228181 1.841290
v -3.545834 1.105602 2.024130
v -3.545834 -0.876728 2.024130
v -3.545834 -0.876728 -2.024130
v 3.545834 -0.876728 -2.024130
v 3.221597 1.105602 -1.578043
v 3.221597 1.879452 1.578043
v 3.221597 1.105602 1.578043
v 3.545834 1.105602 -2.024130
v 3.545834 1.105602 2.024130
v -3.545834 1.105602 -2.024130
v -3.221597 1.105602 -1.578043
v -3.221597 1.105602 1.578043
v 2.970197 1.879452 -1.232164
v 2.970197 2.174367 1.232164
v 2.970197 1.879452 1.232164
v -3.221597 1.879452 -1.578043
v -3.221597 1.879452 1.578043
v 3.221597 1.879452 -1.578043
v -2.970197 1.879452 -1.232164
v -2.970197 1.879452 1.232164
v -2.970197 2.174367 1.232164
v -3.160928 2.174367 -1.311287
v -2.970197 2.174367 -1.232164
v 2.970197 2.174367 -1.232164
v 3.160928 2.174367 1.311287
v -3.160928 2.248612 1.311287
v -3.160928 2.174367 1.311287
v 3.160928 2.174367 -1.311287
v -3.160928 2.248612 -1.311287
v 3.160928 2.248612 1.311287
v 3.160928 2.248612 -1.311287
vt 0.927050 0.730635
vt 0.908621 1.000000
vt 0.908621 0.730635
vt 0.885346 0.443339
vt 0.903735 0.000000
vt 0.903735 0.443339
vt 0.945480 0.730635
vt 0.927050 1.000000
vt 0.927050 0.730635
vt 0.885346 0.000000
vt 0.866958 0.443339
vt 0.866958 0.000000
vt 0.681501 0.444114
vt 0.638002 0.021007
vt 0.681501 0.021007
vt 0.482818 0.433223
vt 0.246074 0.443339
vt 0.258972 0.433223
vt 0.495717 0.000000
vt 0.495717 0.443339
vt 0.258972 0.010116
vt 0.482818 0.010116
vt 0.246074 0.000000
vt 0.823361 0.253522
vt 0.801997 0.000000
vt 0.823361 0.011992
vt 0.866958 0.253522
vt 0.866958 0.011992
vt 1.000000 0.718643
vt 0.956403 0.477114
vt 1.000000 0.477114
vt 0.431858 0.887454
vt 0.388359 0.464346
vt 0.431858 0.464346
vt 0.366300 0.908461
vt 0.246074 0.443339
vt 0.366300 0.443339
vt 0.956403 0.718643
vt 0.935040 0.465122
vt 0.388359 0.887454
vt 0.638002 0.444114
vt 0.615943 0.000000
vt 0.861582 0.730635
vt 0.908621 0.937634
vt 0.861582 0.937634
vt 0.615943 0.465122
vt 0.495717 0.000000
vt 0.801997 0.265514
vt 0.681501 0.000000
vt 0.935040 0.730635
vt 0.814544 0.465122
vt 0.218958 0.443856
vt 0.000000 0.465122
vt 0.027116 0.443856
vt 0.218958 0.021266
vt 0.246074 0.465122
vt 0.027115 0.021266
vt 0.246074 0.000000
vt 0.000000 0.000000
vt 0.699428 0.265514
vt 0.717354 0.427142
vt 0.699428 0.427142
vt 0.814544 0.730635
vt 0.861582 0.937634
vt 0.814544 0.937634
vt 0.431858 0.443339
vt 0.478792 0.865929
vt 0.431858 0.865929
vt 0.238776 0.887712
vt 0.191843 0.465122
vt 0.238776 0.465122
vt 0.170819 0.871224
vt 0.000000 0.887712
vt 0.021024 0.871224
vt 0.170819 0.481611
vt 0.191843 0.887712
vt 0.021024 0.481611
vt 0.000000 0.465122
vt 0.650321 0.867244
vt 0.495717 0.879754
vt 0.500526 0.867244
vt 0.681501 0.265514
vt 0.699428 0.427142
vt 0.681501 0.427142
vt 0.921621 0.389613
vt 0.903735 0.000000
vt 0.921621 0.000000
vt 0.921621 0.000000
vt 0.939507 0.389613
vt 0.921621 0.389613
vt 0.478792 0.443339
vt 0.483295 0.857971
vt 0.478792 0.857971
vt 0.650321 0.477631
vt 0.655130 0.879754
vt 0.500526 0.477631
vt 0.495717 0.465122
vt 0.655130 0.465122
vt 0.814544 0.879754
vt 0.655130 0.465122
vt 0.814543 0.465122
vt 0.487798 0.857971
vt 0.483295 0.443339
vt 0.487798 0.443339
vt 0.492311 0.615346
vt 0.487798 0.443339
vt 0.492311 0.443339
vt 0.238776 0.465122
vt 0.243289 0.637129
vt 0.238776 0.637129
vt 0.927050 1.000000
vt 0.885346 0.000000
vt 0.945480 1.000000
vt 0.885346 0.443339
vt 0.246074 0.908461
vt 0.908621 0.730635
vt 0.495717 0.465122
vt 0.681501 0.265514
vt 0.814544 0.730635
vt 0.717354 0.265514
vt 0.861582 0.730635
vt 0.478792 0.443339
vt 0.699428 0.265514
vt 0.903735 0.389613
vt 0.939507 0.000000
vt 0.483295 0.443339
vt 0.655130 0.879754
vt 0.483295 0.857971
vt 0.487798 0.615346
vt 0.243289 0.465122
vn -1.0000 0.0000 0.0000
vn 0.0000 0.0000 -1.0000
vn 1.0000 0.0000 0.0000
vn 0.0000 0.0000 1.0000
vn -0.0000 1.0000 0.0000
vn 0.7391 -0.6736 -0.0000
vn -0.7391 -0.6736 -0.0000
vn 0.0000 -0.4615 0.8871
vn 0.0000 -0.4615 -0.8871
vn 0.0000 -1.0000 -0.0000
s 1
f 1/1/1 2/2/1 3/3/1
f 4/4/2 5/5/2 2/6/2
f 6/7/3 7/8/3 5/9/3
f 8/10/4 3/11/4 7/12/4
f 9/13/2 10/14/2 11/15/2
f 9/16/5 1/17/5 12/18/5
f 9/16/5 6/19/5 4/20/5
f 13/21/5 6/19/5 11/22/5
f 13/21/5 1/17/5 8/23/5
f 10/24/6 14/25/6 15/26/6
f 11/27/3 15/26/3 13/28/3
f 12/29/1 16/30/1 9/31/1
f 13/32/4 17/33/4 12/34/4
f 14/35/4 18/36/4 19/37/4
f 17/38/7 20/39/7 16/30/7
f 15/40/8 19/37/8 17/33/8
f 16/41/9 21/42/9 10/14/9
f 22/43/3 23/44/3 24/45/3
f 20/46/2 25/47/2 21/42/2
f 21/48/3 26/49/3 14/25/3
f 19/50/1 27/51/1 20/39/1
f 28/52/5 18/53/5 29/54/5
f 22/55/5 27/56/5 28/52/5
f 24/57/5 25/58/5 22/55/5
f 29/54/5 26/59/5 24/57/5
f 30/60/3 31/61/3 32/62/3
f 29/63/1 33/64/1 28/65/1
f 24/66/4 34/67/4 29/68/4
f 28/69/2 35/70/2 22/71/2
f 36/72/5 34/73/5 37/74/5
f 30/75/5 33/76/5 36/72/5
f 32/77/5 35/70/5 30/75/5
f 37/74/5 23/78/5 32/77/5
f 38/79/10 39/80/10 40/81/10
f 37/82/1 40/83/1 36/84/1
f 32/85/4 38/86/4 37/87/4
f 36/88/2 41/89/2 30/90/2
f 42/91/4 43/92/4 44/93/4
f 31/94/10 44/95/10 38/79/10
f 41/96/10 39/80/10 45/97/10
f 41/96/10 42/98/10 31/94/10
f 46/99/5 47/100/5 48/101/5
f 39/102/2 48/103/2 45/104/2
f 45/105/3 47/106/3 42/107/3
f 44/108/1 46/109/1 39/110/1
f 1/1/1 4/111/1 2/2/1
f 4/4/2 6/112/2 5/5/2
f 6/7/3 8/113/3 7/8/3
f 8/10/4 1/114/4 3/11/4
f 9/13/2 16/41/2 10/14/2
f 9/16/5 4/20/5 1/17/5
f 9/16/5 11/22/5 6/19/5
f 13/21/5 8/23/5 6/19/5
f 13/21/5 12/18/5 1/17/5
f 10/24/6 21/48/6 14/25/6
f 11/27/3 10/24/3 15/26/3
f 12/29/1 17/38/1 16/30/1
f 13/32/4 15/40/4 17/33/4
f 14/35/4 26/115/4 18/36/4
f 17/38/7 19/50/7 20/39/7
f 15/40/8 14/35/8 19/37/8
f 16/41/9 20/46/9 21/42/9
f 22/43/3 35/116/3 23/44/3
f 20/46/2 27/117/2 25/47/2
f 21/48/3 25/118/3 26/49/3
f 19/50/1 18/119/1 27/51/1
f 28/52/5 27/56/5 18/53/5
f 22/55/5 25/58/5 27/56/5
f 24/57/5 26/59/5 25/58/5
f 29/54/5 18/53/5 26/59/5
f 30/60/3 41/120/3 31/61/3
f 29/63/1 34/121/1 33/64/1
f 24/66/4 23/122/4 34/67/4
f 28/69/2 33/76/2 35/70/2
f 36/72/5 33/76/5 34/73/5
f 30/75/5 35/70/5 33/76/5
f 32/77/5 23/78/5 35/70/5
f 37/74/5 34/73/5 23/78/5
f 38/79/10 44/95/10 39/80/10
f 37/82/1 38/123/1 40/83/1
f 32/85/4 31/124/4 38/86/4
f 36/88/2 40/125/2 41/89/2
f 42/91/4 47/126/4 43/92/4
f 31/94/10 42/98/10 44/95/10
f 41/96/10 40/81/10 39/80/10
f 41/96/10 45/97/10 42/98/10
f 46/99/5 43/127/5 47/100/5
f 39/102/2 46/128/2 48/103/2
f 45/105/3 48/129/3 47/106/3
f 44/108/1 43/130/1 46/109/1
