# Blender v2.80 (sub 44) OBJ File: ''
# www.blender.org
o Cube.018_Cube.110
v -0.264083 -4.216550 -13.256226
v 0.264083 -0.607245 -13.256226
v 0.264083 -4.216550 -13.256226
v 0.264083 4.216551 0.000000
v 0.264083 3.836502 0.000000
v 0.264083 3.104507 -2.209371
v -0.264083 3.836502 0.000000
v -0.264083 3.104507 -2.209371
v 0.264083 -4.216551 13.256226
v -0.264083 -1.706903 11.046855
v 0.264083 -1.706903 11.046854
v 0.264083 -0.052863 8.837483
v -0.264083 1.265848 6.628113
v 0.264083 1.265848 6.628113
v 0.264083 2.315113 4.418741
v -0.264083 3.104506 2.209372
v 0.264083 3.104507 2.209371
v -0.264083 2.315113 4.418742
v -0.264083 -0.052863 8.837484
v 0.264083 -0.607247 13.256226
v -0.264083 -4.216551 13.256226
v -0.264083 4.216551 0.000000
v -0.264083 -1.706903 -11.046855
v 0.264083 -1.706903 -11.046854
v -0.264083 -0.052863 -8.837484
v 0.264083 -0.052863 -8.837483
v -0.264083 1.265848 -6.628113
v 0.264083 1.265848 -6.628113
v -0.264083 2.315113 -4.418742
v 0.264083 2.315113 -4.418741
v -0.264083 -0.607245 -13.256226
v -0.264083 -0.607247 13.256226
vt 0.970531 0.342922
vt 1.000000 0.206786
vt 1.000000 0.342922
vt 0.941061 0.500000
vt 0.919856 0.500000
vt 0.879014 0.416667
vt 0.970530 0.498865
vt 0.941061 0.584865
vt 0.941061 0.498865
vt 1.000000 0.206786
vt 0.970531 0.112127
vt 1.000000 0.112127
vt 1.000000 0.049739
vt 0.970531 0.000000
vt 1.000000 0.000000
vt 0.970531 0.700712
vt 0.941061 0.643329
vt 0.970531 0.643329
vt 0.970531 0.753208
vt 0.941061 0.700713
vt 0.970531 0.049739
vt 0.970530 0.584865
vt 0.970531 0.342922
vt 1.000000 0.410811
vt 0.970531 0.410811
vt 0.449326 0.500000
vt 0.408483 0.416667
vt 0.470531 0.500000
vt 0.970531 0.000000
vt 0.941061 0.119437
vt 0.941061 0.000000
vt 0.970530 0.119437
vt 0.941061 0.222781
vt 0.970530 0.222781
vt 0.941061 0.319817
vt 0.970530 0.319817
vt 0.941061 0.411785
vt 0.970530 0.411785
vt 0.970531 0.206786
vt 0.671914 1.000000
vt 0.470531 1.000000
vt 0.610558 0.916667
vt 0.702846 0.833333
vt 0.610558 0.083333
vt 0.470531 0.000000
vt 0.671914 0.000000
vt 0.702846 0.166667
vt 0.776425 0.750000
vt 0.834969 0.666667
vt 0.776425 0.250000
vt 0.834969 0.333333
vt 0.879014 0.583333
vt 0.970531 0.206786
vt 0.941061 0.753208
vt 1.000000 0.342922
vt 0.201384 1.000000
vt 0.000000 1.000000
vt 0.140028 0.916667
vt 0.232316 0.833333
vt 0.140027 0.083333
vt 0.000000 0.000000
vt 0.201384 0.000000
vt 0.232316 0.166667
vt 0.305894 0.750000
vt 0.364439 0.666667
vt 0.305894 0.250000
vt 0.364439 0.333333
vt 0.408483 0.583333
vn 0.0000 0.0000 -1.0000
vn 1.0000 -0.0000 0.0000
vn 0.0000 -0.9493 0.3145
vn -0.0000 -0.6608 -0.7506
vn 0.0000 -0.8587 -0.5125
vn -0.0000 -0.9417 -0.3365
vn -0.0000 -0.9033 -0.4290
vn 0.0000 -0.8005 -0.5993
vn 0.0000 -0.9493 -0.3145
vn 0.0000 0.0000 1.0000
vn -1.0000 0.0000 0.0000
vn -0.0000 -0.6608 0.7506
vn 0.0000 -0.8005 0.5993
vn 0.0000 -0.8587 0.5125
vn -0.0000 -0.9033 0.4290
vn -0.0000 -0.9417 0.3365
s 1
f 1/1/1 2/2/1 3/3/1
f 4/4/2 5/5/2 6/6/2
f 6/7/3 7/8/3 8/9/3
f 9/10/4 10/11/4 11/12/4
f 12/13/5 13/14/5 14/15/5
f 15/16/6 16/17/6 17/18/6
f 14/19/7 18/20/7 15/16/7
f 11/12/8 19/21/8 12/13/8
f 16/17/9 5/22/9 17/18/9
f 20/23/10 21/24/10 9/25/10
f 7/26/11 16/27/11 22/28/11
f 3/29/12 23/30/12 1/31/12
f 24/32/13 25/33/13 23/30/13
f 26/34/14 27/35/14 25/33/14
f 28/36/15 29/37/15 27/35/15
f 30/38/16 8/9/16 29/37/16
f 1/1/1 31/39/1 2/2/1
f 20/40/2 9/41/2 11/42/2
f 20/40/2 11/42/2 12/43/2
f 24/44/2 3/45/2 2/46/2
f 26/47/2 24/44/2 2/46/2
f 20/40/2 12/43/2 14/48/2
f 20/40/2 14/48/2 15/49/2
f 28/50/2 26/47/2 2/46/2
f 30/51/2 28/50/2 2/46/2
f 4/4/2 20/40/2 15/49/2
f 4/4/2 15/49/2 17/52/2
f 30/51/2 2/46/2 4/4/2
f 6/6/2 30/51/2 4/4/2
f 4/4/2 17/52/2 5/5/2
f 6/7/3 5/22/3 7/8/3
f 9/10/4 21/53/4 10/11/4
f 12/13/5 19/21/5 13/14/5
f 15/16/6 18/20/6 16/17/6
f 14/19/7 13/54/7 18/20/7
f 11/12/8 10/11/8 19/21/8
f 16/17/9 7/8/9 5/22/9
f 20/23/10 32/55/10 21/24/10
f 31/56/11 1/57/11 23/58/11
f 31/56/11 23/58/11 25/59/11
f 10/60/11 21/61/11 32/62/11
f 19/63/11 10/60/11 32/62/11
f 31/56/11 25/59/11 27/64/11
f 31/56/11 27/64/11 29/65/11
f 13/66/11 19/63/11 32/62/11
f 18/67/11 13/66/11 32/62/11
f 22/28/11 31/56/11 29/65/11
f 22/28/11 29/65/11 8/68/11
f 18/67/11 32/62/11 22/28/11
f 16/27/11 18/67/11 22/28/11
f 22/28/11 8/68/11 7/26/11
f 3/29/12 24/32/12 23/30/12
f 24/32/13 26/34/13 25/33/13
f 26/34/14 28/36/14 27/35/14
f 28/36/15 30/38/15 29/37/15
f 30/38/16 6/7/16 8/9/16
