# Blender v2.80 (sub 44) OBJ File: ''
# www.blender.org
o Cube.024_Cube.122
v 4.577564 12.399894 2.921125
v 4.577564 -13.342262 34.526398
v 4.577564 -13.342258 -34.526398
v -7.126690 12.399894 2.921125
v -7.126690 -13.342258 -34.526398
v -7.126690 -13.342262 34.526398
v 87.948135 -13.342263 34.526398
v 87.948135 -12.399894 34.526398
v 88.607895 12.399892 2.921129
v 87.948135 -12.399890 -34.526398
v 88.607895 13.342261 2.921129
v 87.948135 -13.342259 -34.526398
v -87.948120 13.342261 2.921129
v -87.948120 12.399892 2.921129
v -88.607895 -13.342263 34.526398
v -88.607895 -12.399894 34.526398
v -88.607895 -13.342259 -34.526398
v -88.607895 -12.399890 -34.526398
vt 0.882988 0.539344
vt 0.997356 0.438902
vt 0.997356 0.658352
vt 0.768621 0.557911
vt 0.882988 0.438902
vt 0.882988 0.658353
vt 0.201890 0.267050
vt 0.201890 0.002097
vt 0.204534 0.002097
vt 0.772808 0.319896
vt 0.882988 0.438902
vt 0.768621 0.319896
vt 0.939175 0.000000
vt 0.887175 0.180844
vt 0.887175 0.000000
vt 0.997356 0.438902
vt 1.000000 0.438902
vt 1.000000 0.703855
vt 0.768621 0.002097
vt 0.587523 0.267050
vt 0.587523 0.000000
vt 0.385633 0.561098
vt 0.385632 0.000000
vt 0.201890 0.002097
vt 0.000000 0.561098
vt 0.000000 0.000000
vt 0.385633 0.002097
vt 0.768621 0.269147
vt 0.587523 0.525999
vt 0.587523 0.267050
vt 0.385633 0.269147
vt 0.587523 0.525999
vt 0.385633 0.525999
vt 0.882988 0.100445
vt 0.772808 0.000000
vt 0.887175 0.100445
vt 0.204534 0.563195
vt 0.201890 0.563195
vt 0.201890 0.304246
vt 0.887175 0.438902
vt 0.882988 0.219451
vt 0.887175 0.219451
vt 0.939175 0.180844
vt 1.000000 1.000000
vt 0.997356 1.000000
vt 1.000000 0.741051
vt 0.768621 0.267050
vt 0.201890 0.563195
vt 0.385633 0.267050
vt 0.768621 0.525999
vt 0.587523 0.267050
vt 0.768621 0.000000
vt 0.772808 0.219451
vt 0.768621 0.219451
vn 1.0000 0.0000 0.0000
vn -1.0000 0.0000 0.0000
vn 0.0000 0.0000 1.0000
vn 0.9998 0.0000 -0.0176
vn 0.0000 -1.0000 -0.0000
vn 0.0000 0.0000 -1.0000
vn 0.0000 -0.7754 -0.6315
vn 0.0000 0.7754 0.6315
vn 0.0000 0.8241 -0.5665
vn -0.0000 -0.8241 0.5665
vn -0.9998 0.0000 -0.0209
vn 0.9998 0.0000 0.0209
vn -0.9998 0.0000 0.0176
s 1
f 1/1/1 2/2/1 3/3/1
f 4/4/2 5/5/2 6/6/2
f 2/7/3 7/8/3 8/9/3
f 9/10/4 10/11/4 11/12/4
f 6/13/5 3/14/5 2/15/5
f 10/16/6 12/17/6 3/18/6
f 7/19/7 1/20/7 9/21/7
f 13/22/8 8/9/8 11/23/8
f 10/24/9 13/25/9 11/26/9
f 1/20/10 12/27/10 9/21/10
f 14/28/7 6/29/7 15/30/7
f 14/31/10 5/32/10 4/33/10
f 14/34/11 16/35/11 13/36/11
f 8/9/3 16/37/3 2/7/3
f 16/37/3 15/38/3 6/39/3
f 16/37/3 6/39/3 2/7/3
f 9/10/4 12/40/4 10/11/4
f 11/12/12 8/41/12 9/10/12
f 8/41/12 7/42/12 9/10/12
f 6/13/5 5/43/5 3/14/5
f 17/44/6 18/45/6 5/46/6
f 18/45/6 10/16/6 3/18/6
f 5/46/6 18/45/6 3/18/6
f 7/19/7 2/47/7 1/20/7
f 13/22/8 16/37/8 8/9/8
f 10/24/9 18/48/9 13/25/9
f 1/20/10 3/49/10 12/27/10
f 14/28/7 4/50/7 6/29/7
f 14/31/10 17/51/10 5/32/10
f 14/34/11 15/52/11 16/35/11
f 13/36/13 18/53/13 14/34/13
f 18/53/13 17/54/13 14/34/13
