# Blender v2.80 (sub 41) OBJ File: 'AutopistaV2.blend'
# www.blender.org
o Cube.064_Cube.065
v 16.957434 -9.367484 -2.496583
v 16.957434 8.997631 -2.496583
v 16.957418 -9.367485 -16.568398
v 16.957418 8.997633 -16.568398
v 16.957428 8.997631 -7.486248
v 16.957428 8.997631 -8.247817
v 16.957428 -9.367484 -8.247817
v 16.957428 -9.367484 -7.486248
v 16.695099 -9.367484 -8.247817
v 16.695099 -9.367484 -7.486248
v 16.695099 8.997631 -7.486248
v 16.695099 8.997631 -8.247817
v 11.439322 -9.367485 -16.568398
v 11.439322 8.997633 -16.568398
v 16.957434 -3.815880 -2.496583
v 16.957418 -3.815881 -16.568398
v 16.957428 -3.815880 -7.486248
v 16.957428 -3.815880 -8.247817
v 16.695099 -3.815880 -7.486248
v 16.695099 -3.815880 -8.247817
v 11.439322 -3.815881 -16.568398
v 8.402319 8.997633 -16.568398
v 8.402319 -3.815881 -16.568398
v 11.439322 -9.367485 -17.067312
v 11.439322 -3.815881 -17.067312
v 8.402319 -3.815881 -17.067312
v 16.957418 -9.367485 -17.067312
v 16.957418 -3.815881 -17.067312
v 11.439322 3.336257 -17.067312
v 8.402319 3.336257 -17.067312
v 16.957418 3.336257 -17.067312
v 16.957434 -9.367484 7.522219
v 16.957434 8.997631 7.522219
v 16.957434 -3.815880 7.522219
v 5.982278 -9.367484 8.864182
v 5.982278 9.993504 8.864182
v 5.982278 -3.815880 8.864182
v -25.467209 -9.367484 8.864182
v -25.467209 9.993504 8.864182
v -25.467209 -3.815880 8.864182
v -25.467237 -9.367484 -5.588146
v -25.467237 9.993504 -5.588146
v -25.467237 -3.815880 -5.588146
v -25.467209 10.061288 -8.770841
v -25.467209 -3.748096 -8.770841
v 16.957418 -9.367485 -21.950521
v 16.957418 -3.815881 -21.950521
v 16.957418 3.336257 -21.950521
vt 0.518371 0.928315
vt 0.799168 0.750000
vt 0.496627 0.874227
vt 0.495649 0.871794
vt 0.375000 0.924168
vt 0.496627 0.874227
vt 0.795757 0.750000
vt 0.495649 0.871794
vt 0.375000 0.924168
vt 0.446685 0.500000
vt 0.375000 0.500000
vt 0.446685 0.500000
vt 0.625000 0.500000
vt 0.625000 0.500000
vt 0.799168 0.750000
vt 0.375000 0.920757
vt 0.375000 0.920757
vt 0.795757 0.750000
vt 0.375000 1.000000
vt 0.625000 0.500000
vt 0.446685 0.500000
vt 0.446685 0.500000
vt 0.446685 0.500000
vt 0.375000 0.500000
vt 0.446685 0.500000
vt 0.375000 0.500000
vt 0.446685 0.500000
vt 0.446685 0.500000
vt 0.446685 0.500000
vt 0.375000 1.000000
vt 0.518371 0.928315
vt 0.875000 0.750000
vt 0.375000 1.000000
vt 0.518371 0.928315
vt 0.875000 0.750000
vt 0.375000 1.000000
vt 0.518371 0.928315
vt 0.875000 0.750000
vt 0.375000 1.000000
vt 0.518371 0.928315
vt 0.875000 0.750000
vt 0.518371 0.928315
vt 0.875000 0.750000
vt 0.446685 0.500000
vt 0.446685 0.500000
vt 0.375000 0.500000
vt 0.875000 0.750000
vt 0.375000 0.500000
vn -1.0000 0.0000 0.0000
vn 0.0000 0.0000 -1.0000
vn 0.0000 0.0000 1.0000
vn 0.0000 -1.0000 0.0000
vn -0.1214 0.0000 -0.9926
vn 1.0000 0.0000 -0.0000
s off
f 15/1/1 5/2/1 17/3/1
f 20/4/1 10/5/1 19/6/1
f 20/4/2 6/7/2 18/8/2
f 19/6/3 8/9/3 17/3/3
f 21/10/3 3/11/3 16/12/3
f 14/13/3 16/12/3 4/14/3
f 11/15/3 17/3/3 5/2/3
f 9/16/2 18/8/2 7/17/2
f 12/18/1 19/6/1 11/15/1
f 1/19/1 17/3/1 8/9/1
f 16/12/1 6/7/1 4/14/1
f 22/20/3 21/10/3 14/13/3
f 26/21/4 21/10/4 23/22/4
f 25/23/1 13/24/1 21/10/1
f 28/25/2 24/26/2 25/23/2
f 30/27/2 25/23/2 26/21/2
f 28/25/2 29/28/2 31/29/2
f 32/30/1 15/1/1 1/19/1
f 34/31/1 2/32/1 15/1/1
f 35/33/5 34/31/5 32/30/5
f 37/34/5 33/35/5 34/31/5
f 38/36/2 37/34/2 35/33/2
f 40/37/2 36/38/2 37/34/2
f 41/39/6 40/37/6 38/36/6
f 43/40/6 39/41/6 40/37/6
f 45/42/6 42/43/6 43/40/6
f 16/12/1 7/17/1 18/8/1
f 48/44/1 28/25/1 31/29/1
f 47/45/1 27/46/1 28/25/1
f 15/1/1 2/32/1 5/2/1
f 20/4/1 9/16/1 10/5/1
f 20/4/2 12/18/2 6/7/2
f 19/6/3 10/5/3 8/9/3
f 21/10/3 13/24/3 3/11/3
f 14/13/3 21/10/3 16/12/3
f 11/15/3 19/6/3 17/3/3
f 9/16/2 20/4/2 18/8/2
f 12/18/1 20/4/1 19/6/1
f 1/19/1 15/1/1 17/3/1
f 16/12/1 18/8/1 6/7/1
f 22/20/3 23/22/3 21/10/3
f 26/21/4 25/23/4 21/10/4
f 25/23/1 24/26/1 13/24/1
f 28/25/2 27/46/2 24/26/2
f 30/27/2 29/28/2 25/23/2
f 28/25/2 25/23/2 29/28/2
f 32/30/1 34/31/1 15/1/1
f 34/31/1 33/35/1 2/32/1
f 35/33/5 37/34/5 34/31/5
f 37/34/5 36/38/5 33/35/5
f 38/36/2 40/37/2 37/34/2
f 40/37/2 39/41/2 36/38/2
f 41/39/6 43/40/6 40/37/6
f 43/40/6 42/43/6 39/41/6
f 45/42/6 44/47/6 42/43/6
f 16/12/1 3/11/1 7/17/1
f 48/44/1 47/45/1 28/25/1
f 47/45/1 46/48/1 27/46/1
