# Blender v2.80 (sub 44) OBJ File: ''
# www.blender.org
o Cube.016_Cube.119
v 5.464749 11.658964 -1.558254
v 8.581256 -11.658964 -1.558254
v 5.464749 -11.658964 -1.558254
v 8.581256 11.658964 -1.558254
v 8.581256 -11.658964 1.558254
v 8.581256 11.658964 1.558254
v 5.464749 -11.658964 1.558254
v -8.581256 11.658963 0.609691
v -8.581256 3.360196 -0.609690
v -8.581256 3.360196 0.609690
v 5.464740 3.360196 -0.609690
v -8.106063 3.716925 0.609690
v 4.538097 4.157144 -0.609690
v 5.464740 3.360196 0.609690
v 4.538097 4.157144 0.609690
v 5.464740 11.658963 -0.609689
v 1.052034 5.559077 -0.609690
v -1.401870 5.801601 -0.609690
v -3.855775 5.559078 0.609690
v -1.401870 5.801601 0.609690
v 2.818362 5.009835 -0.609690
v 2.818362 5.009836 0.609690
v 1.052034 5.559078 0.609690
v -3.855775 5.559077 -0.609690
v -6.142449 4.848032 -0.609690
v -6.142450 4.848033 0.609690
v -8.106063 3.716924 -0.609690
v 5.464749 11.658964 1.558254
v -8.581256 11.658963 -0.609689
v 5.464740 11.658963 0.609691
vt 0.892769 0.000000
vt 1.000000 0.880758
vt 0.892769 0.880758
vt 0.678308 0.880758
vt 0.571077 0.000000
vt 0.678308 0.000000
vt 0.892769 0.880758
vt 0.785539 0.000000
vt 0.892769 0.000000
vt 0.041956 0.530541
vt 0.083911 0.844000
vt 0.041956 0.844000
vt 0.785539 0.880758
vt 0.678308 0.880758
vt 0.752901 0.313459
vt 0.000000 1.000000
vt 0.041956 0.978265
vt 0.041956 1.000000
vt 0.752901 0.283357
vt 0.710945 0.313459
vt 0.710945 0.283357
vt 0.285538 0.000000
vt 0.495419 0.166675
vt 0.487075 0.259364
vt 0.285538 0.530541
vt 0.075658 0.352052
vt 0.084002 0.259364
vt 0.041956 0.530541
vt 0.000000 0.578269
vt 0.000000 0.530541
vt 0.041956 0.578269
vt 0.000000 0.632002
vt 0.041956 0.632002
vt 0.000000 0.714161
vt 0.041956 0.714161
vt 0.000000 0.803320
vt 0.041956 0.803320
vt 0.000000 0.893400
vt 0.041956 0.893400
vt 0.000000 0.978265
vt 1.000000 0.000000
vt 0.571077 0.880758
vt 0.785539 0.880758
vt 0.083911 0.530541
vt 0.678308 0.000000
vt 0.710945 0.000000
vt 0.752901 0.000000
vt 0.785538 0.000000
vt 0.558803 0.512592
vt 0.571077 0.530541
vt 0.285538 0.530541
vt 0.571077 0.000000
vt 0.543656 0.035001
vt 0.514317 0.099958
vt 0.519884 0.438423
vt 0.495419 0.352052
vt 0.027421 0.035001
vt 0.000000 0.000000
vt 0.285538 0.000000
vt 0.000000 0.530541
vt 0.012274 0.512592
vt 0.051193 0.438423
vt 0.056760 0.099958
vt 0.075658 0.166675
vn 0.0000 0.0000 -1.0000
vn 1.0000 0.0000 0.0000
vn 0.0000 -0.0000 1.0000
vn -1.0000 -0.0000 0.0000
vn 0.6004 -0.7997 0.0000
vn -0.6521 -0.7582 0.0000
vn -0.4442 -0.8959 0.0000
vn -0.2969 -0.9549 0.0000
vn -0.0984 -0.9952 0.0000
vn 0.0984 -0.9952 0.0000
vn 0.2969 -0.9549 0.0000
vn 0.4991 -0.8665 0.0000
s 1
f 1/1/1 2/2/1 3/3/1
f 4/4/2 5/5/2 2/6/2
f 6/7/3 7/8/3 5/9/3
f 8/10/4 9/11/4 10/12/4
f 3/13/4 7/14/4 11/15/4
f 9/16/5 12/17/5 10/18/5
f 13/19/6 14/20/6 15/21/6
f 16/22/1 17/23/1 18/24/1
f 8/25/3 19/26/3 20/27/3
f 15/28/7 21/29/7 13/30/7
f 22/31/8 17/32/8 21/29/8
f 23/33/9 18/34/9 17/32/9
f 20/35/10 24/36/10 18/34/10
f 19/37/11 25/38/11 24/36/11
f 26/39/12 27/40/12 25/38/12
f 1/1/1 4/41/1 2/2/1
f 4/4/2 6/42/2 5/5/2
f 6/7/3 28/43/3 7/8/3
f 8/10/4 29/44/4 9/11/4
f 7/14/4 28/45/4 14/20/4
f 28/45/4 30/46/4 14/20/4
f 16/47/4 1/48/4 11/15/4
f 1/48/4 3/13/4 11/15/4
f 7/14/4 14/20/4 11/15/4
f 9/16/5 27/40/5 12/17/5
f 13/19/6 11/15/6 14/20/6
f 27/49/1 9/50/1 29/51/1
f 16/22/1 11/52/1 13/53/1
f 16/22/1 13/53/1 21/54/1
f 27/49/1 29/51/1 25/55/1
f 29/51/1 16/22/1 18/24/1
f 25/55/1 29/51/1 24/56/1
f 24/56/1 29/51/1 18/24/1
f 16/22/1 21/54/1 17/23/1
f 15/57/3 14/58/3 30/59/3
f 8/25/3 10/60/3 12/61/3
f 8/25/3 12/61/3 26/62/3
f 15/57/3 30/59/3 22/63/3
f 30/59/3 8/25/3 20/27/3
f 22/63/3 30/59/3 23/64/3
f 23/64/3 30/59/3 20/27/3
f 8/25/3 26/62/3 19/26/3
f 15/28/7 22/31/7 21/29/7
f 22/31/8 23/33/8 17/32/8
f 23/33/9 20/35/9 18/34/9
f 20/35/10 19/37/10 24/36/10
f 19/37/11 26/39/11 25/38/11
f 26/39/12 12/17/12 27/40/12
