# Blender v2.79 (sub 6) OBJ File: ''
# www.blender.org
o ACERA_ZERO.005_Cube.039
v -3.718476 -0.376554 11.264481
v -3.718476 -0.500628 -5.695450
v -3.718476 -0.500628 11.264481
v -3.718476 -0.376553 -5.695450
v 2.975565 -0.500628 -5.695450
v 2.975565 -0.376553 -5.695450
v 2.975565 -0.500628 11.264481
v 2.975565 -0.376554 11.264481
v -0.196407 -0.376554 18.888168
v 6.914165 -0.376554 18.888168
v 20.250912 -0.376554 11.264481
v 23.772976 -0.500629 18.888168
v 20.250912 -0.500628 11.264481
v 4.621817 -0.376559 135.618164
v 2.596037 -0.376559 133.641083
v 3.450184 -0.376559 135.240570
v 9.754721 -0.376559 135.618164
v 4.621817 -0.500634 135.618164
v 9.754721 -0.500634 135.618164
v 4.008329 -0.500634 135.521393
v 4.008329 -0.376559 135.521393
v 3.450184 -0.500634 135.240570
v 3.002017 -0.500634 134.803177
v 3.002017 -0.376559 134.803177
v 2.707698 -0.500634 134.252029
v 2.707698 -0.376559 134.252029
v 2.596037 -0.500634 133.641083
v -0.196407 -0.500629 18.888168
v 23.772976 -0.376554 18.888168
v 62.978012 -0.500634 135.618164
v 62.978012 -0.376559 135.618164
vt 0.993867 0.846981
vt 0.991823 0.961332
vt 0.991823 0.846981
vt 0.997956 0.279395
vt 1.000000 0.233090
vt 1.000000 0.279395
vt 1.000000 0.119501
vt 0.997956 0.233090
vt 0.997956 0.119501
vt 0.881682 0.119549
vt 0.940344 0.171084
vt 0.823350 0.173619
vt 0.977424 0.000000
vt 0.867283 0.002386
vt 0.995912 0.000000
vt 0.993867 0.057154
vt 0.993867 0.000000
vt 0.993867 0.790134
vt 0.597440 0.125707
vt 0.960170 0.979198
vt 0.991823 0.964818
vt 0.979127 0.976172
vt 0.997956 0.363770
vt 0.995912 0.398852
vt 0.995912 0.363770
vt 0.997956 0.398852
vt 0.995912 0.403149
vt 0.997956 0.403149
vt 0.995912 0.407263
vt 0.993867 0.000000
vt 0.991823 0.003642
vt 0.991823 0.000000
vt 0.993867 0.003642
vt 0.991823 0.007813
vt 0.993867 0.007813
vt 0.991823 0.012105
vt 0.991823 0.790134
vt 0.993867 0.012105
vt 0.995912 0.057154
vt 0.993867 0.906790
vt 0.997956 0.119501
vt 1.000000 0.000000
vt 1.000000 0.119501
vt 0.875715 0.981028
vt 0.545961 0.179629
vt 0.997956 0.000000
vt 0.993867 0.961332
vt 0.997956 0.233090
vt 1.000000 0.233090
vt 0.991823 0.117163
vt 0.990504 0.969079
vt 0.986130 0.972991
vt 0.970182 0.978311
vt 0.997956 0.407263
vt 0.995912 0.906790
vt 0.997956 0.000000
vt 0.000000 1.000000
vt 0.995912 0.000000
vn -1.0000 0.0000 0.0000
vn 0.0000 0.0000 -1.0000
vn 1.0000 0.0000 0.0000
vn 0.0000 1.0000 0.0000
vn 0.9078 0.0000 -0.4194
vn -0.9078 0.0000 0.4194
vn 0.0000 0.0000 1.0000
vn -0.1558 0.0000 0.9878
vn -0.4495 0.0000 0.8933
vn -0.4494 0.0000 0.8933
vn -0.6984 0.0000 0.7157
vn -0.6985 0.0000 0.7156
vn -0.8821 0.0000 0.4710
vn -0.8821 0.0000 0.4711
vn -0.9837 0.0000 0.1798
vn -0.9997 0.0000 0.0243
vn 0.9480 0.0000 -0.3184
s 1
f 1/1/1 2/2/1 3/3/1
f 4/4/2 5/5/2 2/6/2
f 6/7/3 7/8/3 5/9/3
f 8/10/4 9/11/4 10/12/4
f 4/13/4 8/10/4 6/14/4
f 11/15/5 12/16/5 13/17/5
f 3/3/6 9/18/6 1/1/6
f 10/12/4 11/19/4 8/10/4
f 14/20/4 15/21/4 16/22/4
f 17/23/7 18/24/7 19/25/7
f 14/26/8 20/27/8 18/24/8
f 21/28/9 22/29/10 20/27/9
f 16/30/11 23/31/12 22/32/11
f 24/33/13 25/34/14 23/31/13
f 26/35/15 27/36/15 25/34/15
f 28/37/16 15/38/16 9/18/16
f 29/39/17 30/40/17 12/16/17
f 8/41/2 13/42/2 7/43/2
f 17/44/4 29/45/4 10/12/4
f 19/25/7 31/46/7 17/23/7
f 1/1/1 4/47/1 2/2/1
f 4/4/2 6/48/2 5/5/2
f 6/7/3 8/49/3 7/8/3
f 8/10/4 1/50/4 9/11/4
f 4/13/4 1/50/4 8/10/4
f 11/15/5 29/39/5 12/16/5
f 3/3/6 28/37/6 9/18/6
f 10/12/4 29/45/4 11/19/4
f 17/44/4 10/12/4 15/21/4
f 10/12/4 9/11/4 15/21/4
f 15/21/4 26/51/4 24/52/4
f 17/44/4 15/21/4 14/20/4
f 24/52/4 16/22/4 15/21/4
f 16/22/4 21/53/4 14/20/4
f 17/23/7 14/26/7 18/24/7
f 14/26/8 21/28/8 20/27/8
f 21/28/9 16/54/10 22/29/10
f 16/30/11 24/33/12 23/31/12
f 24/33/13 26/35/14 25/34/14
f 26/35/15 15/38/15 27/36/15
f 28/37/16 27/36/16 15/38/16
f 29/39/17 31/55/17 30/40/17
f 8/41/2 11/56/2 13/42/2
f 17/44/4 31/57/4 29/45/4
f 19/25/7 30/58/7 31/46/7
