# Blender v2.79 (sub 6) OBJ File: ''
# www.blender.org
o Acera_Cube.002
v 26.408482 0.053163 27.003738
v -20.948816 -0.053165 27.003738
v 26.408482 -0.053165 27.003738
v 26.408482 0.053164 6.334388
v 26.408482 -0.053164 6.334388
v -25.496428 0.053164 -2.674497
v -25.496428 -0.053163 -26.726845
v -25.496428 -0.053164 -2.674497
v 26.408482 0.053165 -27.494806
v -22.616295 0.053163 26.815857
v -22.616297 -0.053165 26.815857
v -24.200159 0.053163 26.261642
v -24.200161 -0.053165 26.261639
v -25.620989 0.053163 25.368874
v -25.620989 -0.053165 25.368874
v -26.807535 0.053163 24.182327
v -26.807539 -0.053165 24.182327
v -27.700302 0.053163 22.761497
v -27.700304 -0.053165 22.761497
v -28.254522 -0.053165 21.177631
v -28.254522 0.053163 21.177631
v -28.442402 -0.053165 19.510153
v -26.654644 -0.053164 6.813416
v -27.395159 0.053164 7.381633
v -26.654644 0.053164 6.813416
v -27.395159 -0.053164 7.381634
v -27.963373 0.053164 8.122147
v -27.963373 -0.053164 8.122147
v -28.320570 0.053164 8.984493
v -28.442402 -0.053164 9.909904
v -28.442402 0.053164 9.909904
v -28.442402 0.053163 19.510153
v -25.393539 -0.053163 -27.110826
v -24.728466 -0.053163 -27.494806
v -26.654644 -0.053164 6.813416
v -26.296736 -0.053164 6.224463
v -16.913607 -0.053164 6.334388
v -25.973862 -0.053164 4.811306
v -25.717625 -0.053164 2.712278
v -25.553114 -0.053164 0.132847
v -25.553114 0.053164 0.132847
v -16.913607 0.053164 6.334388
v -25.717625 0.053164 2.712279
v -25.973862 0.053164 4.811308
v -26.296736 0.053164 6.224463
v -26.654644 0.053164 6.813416
v -25.271496 -0.053163 -27.269873
v -25.393539 0.053165 -27.110826
v -25.271496 0.053165 -27.269873
v -25.470259 0.053165 -26.925611
v -25.470259 -0.053163 -26.925611
v -25.496428 0.053165 -26.726845
v -24.927229 0.053165 -27.468639
v -20.948816 0.053163 27.003738
v 26.408482 -0.053163 -27.494806
v -28.320570 -0.053164 8.984493
v -25.112446 -0.053163 -27.391922
v -24.927229 -0.053163 -27.468639
v -24.728466 0.053165 -27.494806
v -25.112446 0.053165 -27.391922
vt 0.000000 1.000000
vt 0.000974 0.576564
vt 0.000974 1.000000
vt 0.999026 0.190837
vt 1.000000 0.000000
vt 1.000000 0.190837
vt 0.998053 0.436621
vt 0.999026 0.243767
vt 0.999026 0.436621
vt 0.999026 0.503178
vt 0.000000 0.561222
vt 0.000974 0.561222
vt 0.000000 0.545784
vt 0.000974 0.545784
vt 0.000000 0.531025
vt 0.000974 0.531025
vt 0.000000 0.517685
vt 0.000974 0.517685
vt 0.000000 0.506431
vt 0.000974 0.506431
vt 0.000974 0.639091
vt 0.001947 0.628929
vt 0.001947 0.639091
vt 0.000974 0.628929
vt 0.001947 0.616419
vt 0.001947 0.506431
vt 0.000974 0.514377
vt 0.000974 0.506431
vt 0.001947 0.514377
vt 0.000974 0.522916
vt 0.001947 0.522916
vt 0.000974 0.531465
vt 0.001947 0.539443
vt 0.000974 0.539443
vt 0.000974 0.616419
vt 0.430410 0.000000
vt 0.460181 0.006852
vt 0.484056 0.026050
vt 0.991021 0.027200
vt 0.994537 0.028150
vt 0.998053 0.034290
vt 0.499026 0.069187
vt 0.505822 0.039168
vt 0.552374 0.001735
vt 0.683903 0.016506
vt 0.689296 0.019811
vt 0.688289 0.106444
vt 0.702236 0.022792
vt 0.721456 0.025158
vt 0.745075 0.026676
vt 0.770781 0.027200
vt 0.227272 0.027200
vt 0.252978 0.026676
vt 0.309763 0.106444
vt 0.276597 0.025158
vt 0.295817 0.022792
vt 0.308757 0.019811
vt 0.314150 0.016506
vt 0.998053 0.459390
vt 0.999026 0.480825
vt 0.998053 0.480825
vt 0.999026 0.498829
vt 0.998053 0.498829
vt 0.999026 0.511637
vt 0.998053 0.511637
vt 0.998053 0.517998
vt 0.000000 0.000000
vt 0.000000 0.000000
vt 0.000000 0.000000
vt 0.999026 0.238383
vt 0.998053 0.240217
vt 0.998053 0.238383
vt 0.999026 0.240217
vt 0.998053 0.242054
vt 0.999026 0.242054
vt 0.998053 0.243767
vt 0.000240 0.032455
vt 0.002060 0.029277
vt 0.005212 0.027442
vt 0.000000 0.576564
vt 0.999026 0.000000
vt 1.000000 0.503178
vt 0.001947 0.531465
vt 0.499026 0.506431
vt 0.309764 0.506431
vt 0.000000 0.000000
vt 0.499026 0.069187
vt 0.342503 0.000000
vt 0.497306 0.053792
vt 0.492231 0.039168
vt 0.473191 0.015094
vt 0.445678 0.001735
vt 0.334030 0.001125
vt 0.319353 0.009669
vt 0.326133 0.004423
vt 0.998053 0.506431
vt 0.688289 0.506431
vt 0.992841 0.027441
vt 0.995993 0.029277
vt 0.997111 0.030745
vt 0.997813 0.032455
vt 0.567643 0.000000
vt 0.655549 0.000000
vt 0.664023 0.001125
vt 0.683903 0.016506
vt 0.671919 0.004423
vt 0.678700 0.009669
vt 0.000000 0.000000
vt 0.000000 0.000000
vt 0.524861 0.015094
vt 0.537871 0.006852
vt 0.513996 0.026050
vt 0.500747 0.053792
vt 0.499026 0.506431
vt 0.999026 0.459390
vt 0.999026 0.517998
vt 0.007032 0.027200
vt 0.000000 0.034290
vt 0.000000 0.506431
vt 0.000942 0.030745
vt 0.003516 0.028150
vt 0.998053 0.234094
vt 0.999026 0.000000
vt 0.999026 0.234094
vt 0.998053 0.235214
vt 0.999026 0.235214
vt 0.998053 0.236677
vt 0.999026 0.236677
vt 0.998053 0.000000
vn 0.0000 0.0000 1.0000
vn 1.0000 0.0000 0.0000
vn -1.0000 0.0000 0.0000
vn -0.1120 0.0000 0.9937
vn -0.3303 -0.0000 0.9439
vn -0.5320 0.0000 0.8467
vn -0.7071 0.0000 0.7071
vn -0.8467 0.0000 0.5320
vn -0.9439 0.0000 0.3303
vn -0.9937 0.0000 0.1120
vn -0.6088 0.0000 -0.7934
vn -0.7934 0.0000 -0.6088
vn -0.9239 0.0000 -0.3827
vn -0.9914 0.0000 -0.1305
vn 0.0000 1.0000 0.0000
vn 0.0000 -1.0000 -0.0000
vn -0.9998 0.0000 -0.0202
vn -0.9980 0.0000 -0.0636
vn -0.9926 -0.0000 -0.1212
vn -0.9749 0.0000 -0.2227
vn -0.8546 0.0000 -0.5193
vn -0.7933 0.0000 -0.6088
vn -0.0473 0.6926 -0.7197
vn 0.5773 -0.5774 -0.5774
vn -0.0473 -0.6927 -0.7197
vn -0.1900 0.6789 -0.7092
vn -0.1900 -0.6789 -0.7092
vn -0.3668 0.6789 -0.6360
vn -0.3672 -0.6789 -0.6358
vn -0.5192 0.6789 -0.5192
vn 0.5774 0.5773 -0.5774
vn -0.5192 -0.6789 -0.5192
s off
f 1/1/1 2/2/1 3/3/1
f 4/4/2 3/5/2 5/6/2
f 6/7/3 7/8/3 8/9/3
f 5/6/2 9/10/2 4/4/2
f 2/2/4 10/11/4 11/12/4
f 11/12/5 12/13/5 13/14/5
f 13/14/6 14/15/6 15/16/6
f 15/16/7 16/17/7 17/18/7
f 17/18/8 18/19/8 19/20/8
f 18/21/9 20/22/9 19/23/9
f 21/24/10 22/25/10 20/22/10
f 23/26/11 24/27/11 25/28/11
f 26/29/12 27/30/12 24/27/12
f 28/31/13 29/32/13 27/30/13
f 29/32/14 30/33/14 31/34/14
f 32/35/3 30/33/3 22/25/3
f 32/36/15 18/37/15 14/38/15
f 7/39/16 33/40/16 34/41/16
f 2/42/16 13/43/16 20/44/16
f 35/45/16 36/46/16 37/47/16
f 36/46/16 38/48/16 37/47/16
f 38/48/16 39/49/16 37/47/16
f 39/49/16 40/50/16 37/47/16
f 40/50/16 8/51/16 37/47/16
f 6/52/15 41/53/15 42/54/15
f 41/53/15 43/55/15 42/54/15
f 43/55/15 44/56/15 42/54/15
f 44/56/15 45/57/15 42/54/15
f 45/57/15 46/58/15 42/54/15
f 8/9/17 41/59/17 6/7/17
f 41/59/18 39/60/18 43/61/18
f 43/61/19 38/62/19 44/63/19
f 44/63/20 36/64/20 45/65/20
f 36/64/21 46/66/21 45/65/21
f 35/67/1 25/68/1 46/69/1
f 47/70/22 48/71/22 49/72/22
f 33/73/13 50/74/13 48/71/13
f 51/75/14 52/76/14 50/74/14
f 53/77/15 49/78/15 50/79/15
f 1/1/1 54/80/1 2/2/1
f 4/4/2 1/81/2 3/5/2
f 6/7/3 52/76/3 7/8/3
f 5/6/2 55/82/2 9/10/2
f 2/2/4 54/80/4 10/11/4
f 11/12/5 10/11/5 12/13/5
f 13/14/6 12/13/6 14/15/6
f 15/16/7 14/15/7 16/17/7
f 17/18/8 16/17/8 18/19/8
f 18/21/9 21/24/9 20/22/9
f 21/24/10 32/35/10 22/25/10
f 23/26/11 26/29/11 24/27/11
f 26/29/12 28/31/12 27/30/12
f 28/31/13 56/83/13 29/32/13
f 29/32/14 56/83/14 30/33/14
f 32/35/3 31/34/3 30/33/3
f 1/84/15 4/85/15 42/54/15
f 46/69/1 25/68/1 24/86/1
f 1/84/15 42/54/15 54/87/15
f 42/54/15 46/58/15 31/88/15
f 54/87/15 42/54/15 32/36/15
f 10/89/15 54/87/15 32/36/15
f 42/54/15 31/88/15 32/36/15
f 14/38/15 12/90/15 10/89/15
f 18/37/15 16/91/15 14/38/15
f 32/36/15 21/92/15 18/37/15
f 29/93/15 31/88/15 24/94/15
f 24/94/15 31/88/15 46/58/15
f 24/94/15 27/95/15 29/93/15
f 14/38/15 10/89/15 32/36/15
f 55/96/16 5/97/16 37/47/16
f 37/47/16 8/51/16 34/41/16
f 8/51/16 7/39/16 34/41/16
f 7/39/16 51/98/16 33/40/16
f 33/40/16 47/99/16 34/41/16
f 47/99/16 57/100/16 34/41/16
f 57/100/16 58/101/16 34/41/16
f 34/41/16 55/96/16 37/47/16
f 22/102/16 30/103/16 37/47/16
f 30/103/16 56/104/16 23/105/16
f 37/47/16 30/103/16 23/105/16
f 56/104/16 28/106/16 23/105/16
f 28/106/16 26/107/16 23/105/16
f 23/108/1 35/67/1 37/109/1
f 20/44/16 22/102/16 2/42/16
f 17/110/16 19/111/16 20/44/16
f 13/43/16 15/112/16 20/44/16
f 15/112/16 17/110/16 20/44/16
f 2/42/16 11/113/16 13/43/16
f 5/97/16 3/114/16 37/47/16
f 3/114/16 2/42/16 37/47/16
f 22/102/16 37/47/16 2/42/16
f 8/9/17 40/115/17 41/59/17
f 41/59/18 40/115/18 39/60/18
f 43/61/19 39/60/19 38/62/19
f 44/63/20 38/62/20 36/64/20
f 36/64/21 35/116/21 46/66/21
f 35/67/1 23/108/1 25/68/1
f 47/70/22 33/73/22 48/71/22
f 33/73/13 51/75/13 50/74/13
f 51/75/14 7/8/14 52/76/14
f 52/117/15 6/52/15 59/118/15
f 6/52/15 42/54/15 59/118/15
f 42/54/15 4/85/15 9/119/15
f 9/119/15 59/118/15 42/54/15
f 59/118/15 53/77/15 52/117/15
f 53/77/15 60/120/15 49/78/15
f 49/78/15 48/121/15 50/79/15
f 50/79/15 52/117/15 53/77/15
s 1
f 59/122/23 55/123/24 34/124/25
f 34/124/25 53/125/26 59/122/23
f 58/126/27 60/127/28 53/125/26
f 57/128/29 49/72/30 60/127/28
f 59/122/23 9/129/31 55/123/24
f 34/124/25 58/126/27 53/125/26
f 58/126/27 57/128/29 60/127/28
f 57/128/29 47/70/32 49/72/30
