# Blender v2.79 (sub 6) OBJ File: ''
# www.blender.org
o Acera_IslaBus.003_Cube.015
v -5.830215 0.857612 -34.667515
v 13.894517 -0.682283 -34.667515
v -5.830215 -0.682283 -34.667515
v 13.894517 0.857612 -28.947861
v 13.615149 0.857612 -23.323660
v 13.894517 0.857612 -23.323660
v 2.627911 0.857610 18.647058
v -5.830215 -0.682285 18.647058
v 2.627912 -0.682285 18.647058
v -5.830215 0.857610 18.647058
v 4.231317 0.857610 18.567543
v 4.231317 -0.682285 18.567543
v 5.802080 0.857610 18.330622
v 5.802081 -0.682285 18.330622
v 7.308228 0.857610 17.941113
v 7.308228 -0.682285 17.941113
v 8.719098 0.857610 17.406946
v 8.719099 -0.682285 17.406948
v 10.005969 0.857610 16.738998
v 11.142643 -0.682285 15.950867
v 11.142644 0.857610 15.950865
v 12.105983 -0.682285 15.058591
v 12.105983 0.857610 15.058591
v 12.876376 0.857610 14.080340
v 12.876376 -0.682285 14.080340
v 13.438141 0.857610 13.036027
v 13.438141 -0.682285 13.036027
v 13.779838 0.857610 11.946909
v 13.779838 -0.682285 11.946909
v 13.894517 0.857611 10.835160
v 13.894517 0.857611 -0.508692
v 13.894517 -0.682284 5.115510
v 13.894517 -0.682284 -0.508693
v -5.193736 0.857610 18.207962
v -5.193736 0.857612 -34.309116
v 8.680033 0.857610 17.025431
v 13.179964 0.857610 12.857456
v 5.898456 0.857610 17.906219
v 11.909660 0.857610 14.786112
v 2.871667 0.857610 18.207962
v 9.907153 0.857610 16.388496
v 13.505796 0.857610 11.818909
v 7.334672 0.857610 17.534796
v 12.644283 0.857610 13.853282
v 13.894517 0.857612 -34.667515
v 13.615149 0.857612 -34.309116
v 4.400625 0.857610 18.132141
v 10.991050 0.857610 15.636957
v 13.615149 -0.922817 -34.309116
v 13.615149 0.857612 -28.947861
v 13.615149 -0.922817 -23.323660
v 13.666869 -0.922818 5.115510
v 13.651720 0.832253 5.179142
v 13.651720 0.832253 5.115510
v 13.615149 0.857611 5.179142
v 13.615149 -0.922818 10.758780
v 13.615149 0.857611 10.758780
v 13.615149 0.857611 -0.508692
v 13.615149 -0.922818 5.115510
v 13.615149 0.857611 5.115510
v 13.615149 0.857611 -6.196527
v 13.615149 -0.922818 -0.572324
v 13.615149 0.857611 -0.572324
v 13.615149 0.857612 -11.884360
v 13.615149 -0.922818 -6.260160
v 13.615149 0.857611 -6.260160
v 13.615149 0.857612 -17.572199
v 13.615149 -0.922817 -11.947991
v 13.615149 0.857612 -11.947991
v 13.615149 0.857612 -23.260029
v 13.615149 -0.922817 -17.635830
v 13.615149 0.857612 -17.635830
v 13.894517 0.857612 -29.011496
v 13.615149 0.857612 -29.011496
v 13.894517 -0.682283 -29.011496
v 13.894517 -0.682283 -23.323662
v 13.894517 -0.682283 -28.947861
v 13.894517 0.857612 -23.260029
v 13.894517 -0.682283 -17.635828
v 13.894517 -0.682283 -23.260031
v 13.894517 0.857612 -17.572195
v 13.894517 -0.682283 -11.947993
v 13.894517 -0.682283 -17.572197
v 13.894517 0.857612 -11.884360
v 13.894517 -0.682284 -6.260160
v 13.894517 -0.682283 -11.884362
v 13.894517 0.857611 -6.196526
v 13.894517 -0.682284 -0.572325
v 13.894517 -0.682284 -6.196527
v 13.615149 -0.922817 -29.011496
v 13.894517 0.857611 5.179142
v 13.894517 0.857611 5.115510
v 13.894517 0.857611 -0.572324
v 13.894517 0.857611 -6.260159
v 13.894517 0.857612 -11.947991
v 13.894517 0.857612 -17.635826
v 13.857945 0.832254 -11.884360
v 13.651720 0.832254 -11.884360
v 13.615149 -0.922818 -6.196527
v 13.666869 -0.922818 -6.260160
v 13.857945 0.832254 -11.947991
v 13.651720 0.832253 -6.260160
v 13.857945 0.832254 -23.323660
v 13.842796 -0.682283 -23.323662
v 13.857944 0.832253 -6.196526
v 13.651720 0.832253 -6.196527
v 13.842796 -0.682283 -23.260031
v 13.857945 0.832253 -6.260159
v 13.615149 -0.922818 -0.508692
v 13.651720 0.832253 -0.508692
v 13.666869 -0.922818 -0.508692
v 13.857945 0.832254 -23.260029
v 13.857945 0.832253 -0.508692
v 13.666869 -0.922818 -0.572324
v 13.857944 0.832253 -0.572324
v 13.651720 0.832253 -0.572324
v 13.857945 0.832254 -29.011496
v 13.842796 -0.682283 -29.011496
v 13.857945 0.832253 5.179142
v 13.842796 -0.682283 -28.947861
v 13.857945 0.832253 5.115510
v 13.615149 -0.922818 5.179142
v 13.666869 -0.922818 5.179142
v 13.857945 0.832254 -28.947861
v 13.842796 -0.682284 5.115510
v 13.894517 -0.682284 10.835159
v 13.894517 -0.682284 5.179142
v 13.666869 -0.922817 -11.947991
v 13.651720 0.832254 -11.947991
v 13.666869 -0.922817 -17.635830
v 13.651720 0.832254 -17.572199
v 13.651720 0.832255 -17.635830
v 13.666869 -0.922817 -23.323660
v 13.651720 0.832254 -23.260029
v 13.651720 0.832254 -23.323660
v 13.666869 -0.922817 -29.011496
v 13.651720 0.832254 -28.947861
v 13.651720 0.832254 -29.011496
v 13.842796 -0.682283 -17.572197
v 13.857945 0.832254 -17.635826
v 13.857944 0.832255 -17.572195
v 13.842796 -0.682283 -11.884362
v 13.842796 -0.682284 -6.196527
v 13.842796 -0.682284 -0.508693
v 13.842796 -0.682284 5.179142
v 13.666869 -0.922818 -6.196527
v 13.842796 -0.682283 -17.635828
v 13.615149 -0.922817 -11.884360
v 13.666869 -0.922817 -11.884360
v 13.842796 -0.682283 -11.947993
v 13.615149 -0.922817 -17.572199
v 13.666869 -0.922817 -17.572199
v 13.842796 -0.682284 -6.260160
v 13.615149 -0.922817 -23.260029
v 13.666869 -0.922817 -23.260029
v 13.842796 -0.682284 -0.572325
v 13.615149 -0.922817 -28.947861
v 13.666869 -0.922817 -28.947861
v 10.005969 -0.682285 16.738998
v -5.193736 -0.922817 -34.309116
vt 0.738019 0.369969
vt 0.787334 0.000000
vt 0.787334 0.369969
vt 0.903857 0.580951
vt 0.894910 0.475460
vt 0.903857 0.475460
vt 0.787334 0.158482
vt 0.836649 0.000000
vt 0.836649 0.158482
vt 0.631686 1.000000
vt 0.681000 0.000000
vt 0.681001 1.000000
vt 0.787334 0.188593
vt 0.836649 0.188593
vt 0.787334 0.218227
vt 0.836649 0.218227
vt 0.787334 0.246780
vt 0.836649 0.246780
vt 0.787334 0.273671
vt 0.836649 0.273671
vt 0.787334 0.298352
vt 0.836649 0.320322
vt 0.787334 0.320322
vt 0.836649 0.339133
vt 0.787334 0.339133
vt 0.886103 0.000000
vt 0.836714 0.019050
vt 0.836788 0.000015
vt 0.886029 0.019035
vt 0.836667 0.039131
vt 0.885982 0.039117
vt 0.836649 0.059849
vt 0.885964 0.059835
vt 0.836660 0.080782
vt 0.992435 0.000006
vt 0.943121 0.105364
vt 0.943121 0.000000
vt 0.000001 1.000000
vt 0.020383 0.008236
vt 0.020384 0.993278
vt 0.507154 0.035789
vt 0.464691 0.030416
vt 0.465942 0.023260
vt 0.628012 0.125672
vt 0.608801 0.108593
vt 0.617070 0.105244
vt 0.420759 0.013241
vt 0.375611 0.013896
vt 0.372525 0.005935
vt 0.599079 0.085656
vt 0.568120 0.072418
vt 0.574407 0.067307
vt 0.270872 0.000000
vt 0.000000 0.000000
vt 0.322221 0.001491
vt 0.278678 0.008236
vt 0.543556 0.050571
vt 0.503990 0.042363
vt 0.631685 0.146525
vt 0.619236 0.128073
vt 0.421606 0.020862
vt 0.591646 0.089915
vt 0.631686 1.000000
vt 0.622739 0.993278
vt 0.327643 0.009658
vt 0.538701 0.056459
vt 0.681001 0.000000
vt 0.738019 0.352426
vt 0.681001 0.352426
vt 0.795037 0.475460
vt 0.738019 0.369969
vt 0.795037 0.369969
vt 0.894378 0.325628
vt 0.896416 0.358548
vt 0.894378 0.358548
vt 0.893667 0.186742
vt 0.950685 0.291397
vt 0.893667 0.291397
vt 0.795037 0.369969
vt 0.852055 0.475460
vt 0.795037 0.475460
vt 0.836649 0.186742
vt 0.893667 0.292233
vt 0.836649 0.292233
vt 0.886103 0.000000
vt 0.943121 0.105491
vt 0.886103 0.105491
vt 0.738019 0.457917
vt 0.681001 0.352426
vt 0.738018 0.352426
vt 0.909073 0.475460
vt 0.852055 0.369969
vt 0.909073 0.369969
vt 0.631685 0.893912
vt 0.622739 0.893912
vt 0.958387 0.369974
vt 0.909073 0.475929
vt 0.909073 0.369969
vt 1.000000 0.186748
vt 0.950685 0.292106
vt 0.950685 0.186742
vt 0.836649 0.475465
vt 0.787334 0.580824
vt 0.787334 0.475460
vt 0.787334 0.475465
vt 0.738019 0.580824
vt 0.738019 0.475460
vt 0.885963 0.475465
vt 0.836649 0.580824
vt 0.836649 0.475460
vt 0.958387 0.475940
vt 0.909073 0.581298
vt 0.909073 0.475934
vt 0.738018 0.557282
vt 0.681001 0.457917
vt 0.738018 0.457917
vt 0.631685 0.252612
vt 0.622738 0.147957
vt 0.894910 0.580951
vt 0.885963 0.475460
vt 0.894910 0.475460
vt 0.958387 0.369969
vt 0.967334 0.475460
vt 0.958387 0.475460
vt 0.985228 0.475460
vt 0.976281 0.369969
vt 0.985228 0.369969
vt 0.976281 0.475460
vt 0.967334 0.369969
vt 0.976281 0.369969
vt 0.967334 0.580951
vt 0.958387 0.475460
vt 0.967334 0.475460
vt 0.872437 0.325628
vt 0.864661 0.325152
vt 0.871265 0.325152
vt 0.787334 0.368736
vt 0.788991 0.369929
vt 0.787334 0.369929
vt 0.863490 0.359023
vt 0.871257 0.358547
vt 0.872428 0.359023
vt 0.886103 0.105491
vt 0.887273 0.138410
vt 0.886103 0.138886
vt 0.881374 0.296745
vt 0.880204 0.325152
vt 0.879720 0.296745
vt 0.845596 0.325628
vt 0.837821 0.325152
vt 0.844425 0.325152
vt 0.797273 0.368736
vt 0.795616 0.367542
vt 0.797273 0.367542
vt 0.893870 0.138410
vt 0.895040 0.138886
vt 0.863490 0.325628
vt 0.862319 0.358547
vt 0.861834 0.325628
vt 0.845596 0.330140
vt 0.846767 0.358547
vt 0.845596 0.359023
vt 0.863490 0.359023
vt 0.855714 0.358547
vt 0.790647 0.367542
vt 0.792303 0.368736
vt 0.790647 0.368736
vt 0.881374 0.325628
vt 0.889142 0.325152
vt 0.890312 0.325628
vt 0.881374 0.292233
vt 0.882544 0.325152
vt 0.881365 0.330140
vt 0.880195 0.358547
vt 0.879710 0.330140
vt 0.863490 0.325628
vt 0.855714 0.325152
vt 0.862319 0.325152
vt 0.793960 0.369929
vt 0.792303 0.368736
vt 0.793960 0.368736
vt 0.895040 0.138886
vt 0.887273 0.139361
vt 0.886103 0.138886
vt 0.863490 0.292233
vt 0.861834 0.292233
vt 0.845596 0.296745
vt 0.846767 0.325152
vt 0.845596 0.325628
vt 0.886103 0.167769
vt 0.887757 0.167769
vt 0.836788 0.186742
vt 0.885975 0.080768
vt 0.886103 0.186727
vt 0.896425 0.292233
vt 0.894387 0.325153
vt 0.894387 0.292233
vt 0.892350 0.325153
vt 0.890312 0.292233
vt 0.892350 0.292233
vt 0.894387 0.325153
vt 0.892350 0.292233
vt 0.894387 0.292233
vt 0.894378 0.358548
vt 0.892341 0.325628
vt 0.894378 0.325628
vt 0.897078 0.138411
vt 0.895040 0.105491
vt 0.897078 0.105491
vt 0.892340 0.358548
vt 0.890303 0.325628
vt 0.892341 0.325628
vt 0.789370 0.367542
vt 0.787334 0.339133
vt 0.789370 0.339134
vt 0.793441 0.367542
vt 0.791405 0.339133
vt 0.793441 0.339134
vt 0.793441 0.339133
vt 0.795476 0.367542
vt 0.793441 0.367542
vt 0.799547 0.339133
vt 0.801582 0.367542
vt 0.799547 0.367542
vt 0.789370 0.339133
vt 0.791405 0.367542
vt 0.789370 0.367542
vt 0.795476 0.339133
vt 0.797511 0.367542
vt 0.795476 0.367542
vt 0.797511 0.339133
vt 0.799547 0.367542
vt 0.797511 0.367542
vt 0.801582 0.358474
vt 0.803620 0.354606
vt 0.803620 0.358474
vt 0.803620 0.362342
vt 0.801582 0.366210
vt 0.801582 0.362342
vt 0.803620 0.354606
vt 0.801582 0.350738
vt 0.803620 0.350738
vt 0.801582 0.358474
vt 0.803620 0.362342
vt 0.801582 0.362342
vt 0.801582 0.346870
vt 0.803620 0.343001
vt 0.803620 0.346870
vt 0.801582 0.346870
vt 0.803620 0.350738
vt 0.801582 0.350738
vt 0.801582 0.339133
vt 0.803620 0.343001
vt 0.801582 0.343001
vt 0.836649 0.330140
vt 0.837821 0.358547
vt 0.836649 0.359023
vt 0.845596 0.292233
vt 0.843940 0.292233
vt 0.890303 0.325628
vt 0.882535 0.326104
vt 0.881365 0.325628
vt 0.798929 0.369929
vt 0.797273 0.368736
vt 0.798929 0.368736
vt 0.845596 0.359023
vt 0.844425 0.358547
vt 0.881365 0.354511
vt 0.883020 0.354511
vt 0.863490 0.325628
vt 0.864660 0.358547
vt 0.872437 0.325628
vt 0.881374 0.325628
vt 0.795616 0.368736
vt 0.797273 0.369929
vt 0.795616 0.369929
vt 0.854543 0.359023
vt 0.853372 0.358547
vt 0.863490 0.296745
vt 0.863490 0.325628
vt 0.872437 0.292233
vt 0.870780 0.292233
vt 0.872428 0.359023
vt 0.881365 0.359023
vt 0.795616 0.368736
vt 0.793960 0.367542
vt 0.795616 0.367542
vt 0.854543 0.325628
vt 0.853372 0.325152
vt 0.872427 0.330140
vt 0.870773 0.330140
vt 0.890303 0.359023
vt 0.889133 0.326104
vt 0.788991 0.367542
vt 0.790647 0.368736
vt 0.788991 0.368736
vt 0.836649 0.296745
vt 0.836649 0.325628
vt 0.845596 0.325628
vt 0.843940 0.325628
vt 0.792303 0.369929
vt 0.790647 0.368736
vt 0.792303 0.368736
vt 0.895040 0.110002
vt 0.893386 0.110002
vt 0.872437 0.292233
vt 0.873607 0.325152
vt 0.797273 0.367542
vt 0.798929 0.368736
vt 0.797273 0.368736
vt 0.854543 0.330140
vt 0.854543 0.359023
vt 0.854543 0.325628
vt 0.852887 0.325628
vt 0.793960 0.368736
vt 0.792303 0.367542
vt 0.793960 0.367542
vt 0.890312 0.296745
vt 0.888657 0.296745
vt 0.872428 0.325628
vt 0.873598 0.358547
vt 0.787334 0.367542
vt 0.788991 0.368736
vt 0.787334 0.368736
vt 0.854543 0.296745
vt 0.854543 0.325628
vt 0.854543 0.292233
vt 0.852887 0.292233
vt 0.895040 0.172280
vt 0.893870 0.139361
vt 0.795616 0.369929
vt 0.793960 0.368736
vt 0.795616 0.368736
vt 0.788991 0.368736
vt 0.790647 0.369929
vt 0.788991 0.369929
vt 0.738019 0.000000
vt 0.894910 0.580951
vt 0.787334 0.000000
vt 0.631685 0.000000
vt 0.836649 0.298353
vt 0.992435 0.105369
vt 0.738019 0.000000
vt 0.738019 0.475460
vt 0.896416 0.325628
vt 0.950685 0.186742
vt 0.852055 0.369969
vt 0.893667 0.186742
vt 0.943121 0.000000
vt 0.681001 0.457917
vt 0.852055 0.475460
vt 0.958387 0.475934
vt 1.000000 0.292112
vt 0.836649 0.580829
vt 0.787334 0.580829
vt 0.885963 0.580829
vt 0.958387 0.581304
vt 0.681001 0.557282
vt 0.622738 0.252612
vt 0.885963 0.580951
vt 0.967334 0.369969
vt 0.976281 0.475460
vt 0.967334 0.475460
vt 0.958387 0.580951
vt 0.788991 0.368736
vt 0.887757 0.105491
vt 0.795616 0.368736
vt 0.847253 0.330140
vt 0.792303 0.367542
vt 0.883029 0.292233
vt 0.792303 0.369929
vt 0.847253 0.296745
vt 0.896425 0.325153
vt 0.890312 0.325153
vt 0.892350 0.325153
vt 0.892341 0.358548
vt 0.895040 0.138411
vt 0.890303 0.358548
vt 0.787334 0.367542
vt 0.791405 0.367542
vt 0.795476 0.339134
vt 0.801582 0.339134
vt 0.791405 0.339134
vt 0.797511 0.339134
vt 0.799547 0.339134
vt 0.801582 0.354606
vt 0.803620 0.366210
vt 0.801582 0.354606
vt 0.803620 0.358474
vt 0.801582 0.343001
vt 0.803620 0.346870
vt 0.803620 0.339133
vt 0.838306 0.330140
vt 0.797273 0.369929
vt 0.865145 0.325628
vt 0.797273 0.368736
vt 0.865146 0.296745
vt 0.793960 0.368736
vt 0.888648 0.359023
vt 0.790647 0.367542
vt 0.838306 0.296745
vt 0.790647 0.369929
vt 0.874091 0.292233
vt 0.798929 0.367542
vt 0.856199 0.330140
vt 0.792303 0.368736
vt 0.874082 0.325628
vt 0.788991 0.367542
vt 0.856199 0.296745
vt 0.893386 0.172280
vt 0.793960 0.369929
vt 0.790647 0.368736
vn 0.0000 0.0000 -1.0000
vn 0.0000 1.0000 0.0000
vn 0.0000 0.0000 1.0000
vn -1.0000 0.0000 0.0000
vn 0.0495 0.0000 0.9988
vn 0.1491 0.0000 0.9888
vn 0.2504 0.0000 0.9681
vn 0.3541 0.0000 0.9352
vn 0.4607 0.0000 0.8876
vn 0.5698 0.0000 0.8218
vn 0.6795 0.0000 0.7337
vn 0.7856 0.0000 0.6187
vn 0.8807 0.0000 0.4737
vn 0.9541 0.0000 0.2994
vn 0.9541 0.0000 0.2993
vn 0.9947 0.0000 0.1026
vn 1.0000 0.0000 0.0000
vn -1.0000 -0.0086 0.0000
vn 0.0001 -0.0000 1.0000
vn -0.0001 0.0000 -1.0000
vn 0.9999 -0.0100 0.0000
vn 1.0000 -0.0100 0.0000
vn 0.6795 0.0000 0.7336
s 1
f 1/1/1 2/2/1 3/3/1
f 4/4/2 5/5/2 6/6/2
f 7/7/3 8/8/3 9/9/3
f 3/10/4 10/11/4 1/12/4
f 9/9/5 11/13/5 7/7/5
f 12/14/6 13/15/6 11/13/6
f 14/16/7 15/17/7 13/15/7
f 16/18/8 17/19/8 15/17/8
f 18/20/9 19/21/9 17/19/9
f 19/21/10 20/22/10 21/23/10
f 21/23/11 22/24/11 23/25/11
f 22/26/12 24/27/12 23/28/12
f 25/29/13 26/30/13 24/27/13
f 27/31/14 28/32/15 26/30/15
f 29/33/16 30/34/16 28/32/16
f 31/35/17 32/36/17 33/37/17
f 1/38/2 34/39/2 35/40/2
f 19/41/2 36/42/2 17/43/2
f 28/44/2 37/45/2 26/46/2
f 15/47/2 38/48/2 13/49/2
f 24/50/2 39/51/2 23/52/2
f 7/53/2 34/39/2 10/54/2
f 11/55/2 40/56/2 7/53/2
f 21/57/2 41/58/2 19/41/2
f 30/59/2 42/60/2 28/44/2
f 17/43/2 43/61/2 15/47/2
f 26/46/2 44/62/2 24/50/2
f 45/63/2 35/40/2 46/64/2
f 13/49/2 47/65/2 11/55/2
f 23/52/2 48/66/2 21/57/2
f 35/67/3 49/68/3 46/69/3
f 50/70/4 51/71/4 5/72/4
f 52/73/18 53/74/18 54/75/18
f 55/76/4 56/77/4 57/78/4
f 58/79/4 59/80/4 60/81/4
f 61/82/4 62/83/4 63/84/4
f 64/85/4 65/86/4 66/87/4
f 67/88/4 68/89/4 69/90/4
f 70/91/4 71/92/4 72/93/4
f 73/94/2 46/64/2 74/95/2
f 45/96/17 75/97/17 2/98/17
f 4/99/17 76/100/17 77/101/17
f 78/102/17 79/103/17 80/104/17
f 81/105/17 82/106/17 83/107/17
f 84/108/17 85/109/17 86/110/17
f 87/111/17 88/112/17 89/113/17
f 46/114/4 90/115/4 74/116/4
f 91/117/2 57/118/2 30/59/2
f 31/119/2 60/120/2 92/121/2
f 87/122/2 63/123/2 93/124/2
f 84/125/2 66/126/2 94/127/2
f 81/128/2 69/129/2 95/130/2
f 78/131/2 72/132/2 96/133/2
f 64/134/1 97/135/1 98/136/1
f 99/137/2 100/138/2 65/139/2
f 69/140/3 101/141/3 95/142/3
f 65/143/3 102/144/3 66/145/3
f 76/146/3 103/147/19 104/148/3
f 61/149/1 105/150/1 106/151/1
f 76/152/2 107/153/2 80/154/2
f 66/145/3 108/155/3 94/156/3
f 109/157/1 110/158/1 111/159/1
f 80/160/1 112/161/20 78/162/20
f 58/163/1 113/164/1 110/158/1
f 109/165/2 114/166/2 62/167/2
f 63/168/3 115/169/3 93/170/3
f 62/171/3 116/172/3 63/168/3
f 75/173/3 117/174/3 118/175/3
f 55/176/1 119/177/1 53/178/1
f 75/179/2 120/180/2 77/181/2
f 60/182/3 121/183/3 92/184/3
f 122/185/1 53/178/1 123/186/1
f 77/187/1 124/188/1 4/189/1
f 32/190/3 121/183/3 125/191/3
f 91/192/17 126/193/17 127/194/17
f 116/195/18 111/196/18 110/197/18
f 100/198/18 106/199/18 102/200/18
f 128/201/18 98/202/18 129/203/18
f 130/204/18 131/205/18 132/206/18
f 133/207/18 134/208/18 135/209/18
f 136/210/18 137/211/18 138/212/18
f 120/213/21 117/214/21 124/215/21
f 107/216/21 103/217/21 112/218/21
f 139/219/21 140/220/21 141/221/21
f 142/222/21 101/223/21 97/224/21
f 143/225/21 108/226/21 105/227/21
f 144/228/21 115/229/21 113/230/21
f 145/231/22 121/232/21 119/233/21
f 121/234/2 53/235/2 119/236/2
f 115/237/2 110/238/2 113/239/2
f 102/240/2 105/241/2 108/242/2
f 129/243/2 97/244/2 101/245/2
f 140/246/2 131/247/2 141/248/2
f 135/249/2 112/250/2 103/251/2
f 138/252/2 124/253/2 117/254/2
f 83/255/1 141/256/1 81/257/1
f 99/258/1 106/151/1 146/259/1
f 72/260/3 140/261/3 96/262/3
f 79/263/2 139/264/2 83/265/2
f 67/266/1 141/256/1 131/267/1
f 79/268/3 140/261/3 147/269/3
f 68/270/3 129/271/3 69/140/3
f 5/272/3 103/147/19 6/273/19
f 148/274/2 128/275/2 68/276/2
f 70/277/1 112/161/20 134/278/1
f 86/279/1 97/135/1 84/280/1
f 148/281/1 98/136/1 149/282/1
f 74/283/3 117/174/3 73/284/3
f 82/285/2 142/286/2 86/287/2
f 50/288/1 124/188/1 137/289/1
f 82/290/3 101/141/3 150/291/3
f 71/292/3 132/293/3 72/260/3
f 151/294/2 130/295/2 71/296/2
f 89/297/1 105/150/1 87/298/1
f 151/299/1 131/267/1 152/300/1
f 85/301/2 143/302/2 89/303/2
f 85/304/3 108/155/3 153/305/3
f 51/306/3 135/307/3 5/272/3
f 154/308/2 133/309/2 51/310/2
f 33/311/1 113/164/1 31/312/1
f 154/313/1 134/278/1 155/314/1
f 88/315/2 144/316/2 33/317/2
f 88/318/3 115/169/3 156/319/3
f 90/320/3 138/321/3 74/283/3
f 157/322/2 136/323/2 90/324/2
f 127/325/1 119/177/1 91/326/1
f 157/327/1 137/289/1 158/328/1
f 59/329/3 54/330/3 60/182/3
f 32/331/2 145/332/2 127/333/2
f 122/334/2 52/335/2 59/336/2
f 1/1/1 45/337/1 2/2/1
f 4/4/2 50/338/2 5/5/2
f 7/7/3 10/339/3 8/8/3
f 3/10/4 8/340/4 10/11/4
f 9/9/5 12/14/5 11/13/5
f 12/14/6 14/16/6 13/15/6
f 14/16/7 16/18/7 15/17/7
f 16/18/8 18/20/8 17/19/8
f 18/20/9 159/341/9 19/21/9
f 19/21/10 159/341/10 20/22/10
f 21/23/23 20/22/23 22/24/23
f 22/26/12 25/29/12 24/27/12
f 25/29/13 27/31/13 26/30/13
f 27/31/14 29/33/14 28/32/15
f 29/33/16 126/193/16 30/34/16
f 31/35/17 92/342/17 32/36/17
f 1/38/2 10/54/2 34/39/2
f 19/41/2 41/58/2 36/42/2
f 28/44/2 42/60/2 37/45/2
f 15/47/2 43/61/2 38/48/2
f 24/50/2 44/62/2 39/51/2
f 7/53/2 40/56/2 34/39/2
f 11/55/2 47/65/2 40/56/2
f 21/57/2 48/66/2 41/58/2
f 30/59/2 57/118/2 42/60/2
f 17/43/2 36/42/2 43/61/2
f 26/46/2 37/45/2 44/62/2
f 45/63/2 1/38/2 35/40/2
f 13/49/2 38/48/2 47/65/2
f 23/52/2 39/51/2 48/66/2
f 35/67/3 160/343/3 49/68/3
f 50/70/4 157/344/4 51/71/4
f 52/73/18 123/345/18 53/74/18
f 55/76/4 122/346/4 56/77/4
f 58/79/4 109/347/4 59/80/4
f 61/82/4 99/348/4 62/83/4
f 64/85/4 148/349/4 65/86/4
f 67/88/4 151/350/4 68/89/4
f 70/91/4 154/351/4 71/92/4
f 73/94/2 45/63/2 46/64/2
f 45/96/17 73/352/17 75/97/17
f 4/99/17 6/353/17 76/100/17
f 78/102/17 96/354/17 79/103/17
f 81/105/17 95/355/17 82/106/17
f 84/108/17 94/356/17 85/109/17
f 87/111/17 93/357/17 88/112/17
f 46/114/4 49/358/4 90/115/4
f 91/117/2 55/359/2 57/118/2
f 31/119/2 58/360/2 60/120/2
f 87/122/2 61/361/2 63/123/2
f 84/125/2 64/362/2 66/126/2
f 81/128/2 67/363/2 69/129/2
f 78/131/2 70/364/2 72/132/2
f 64/134/1 84/280/1 97/135/1
f 99/137/2 146/365/2 100/138/2
f 69/140/3 129/271/3 101/141/3
f 65/143/3 100/366/3 102/144/3
f 76/146/3 6/273/19 103/147/19
f 61/149/1 87/298/1 105/150/1
f 76/152/2 104/367/2 107/153/2
f 66/145/3 102/144/3 108/155/3
f 109/157/1 58/163/1 110/158/1
f 80/160/1 107/368/1 112/161/20
f 58/163/1 31/312/1 113/164/1
f 109/165/2 111/369/2 114/166/2
f 63/168/3 116/172/3 115/169/3
f 62/171/3 114/370/3 116/172/3
f 75/173/3 73/284/3 117/174/3
f 55/176/1 91/326/1 119/177/1
f 75/179/2 118/371/2 120/180/2
f 60/182/3 54/330/3 121/183/3
f 122/185/1 55/176/1 53/178/1
f 77/187/1 120/372/1 124/188/1
f 32/190/3 92/184/3 121/183/3
f 91/192/17 30/34/17 126/193/17
f 116/195/18 114/373/18 111/196/18
f 100/198/18 146/374/18 106/199/18
f 128/201/18 149/375/18 98/202/18
f 130/204/18 152/376/18 131/205/18
f 133/207/18 155/377/18 134/208/18
f 136/210/18 158/378/18 137/211/18
f 120/213/21 118/379/21 117/214/21
f 107/216/21 104/380/21 103/217/21
f 139/219/21 147/381/21 140/220/21
f 142/222/21 150/382/21 101/223/21
f 143/225/21 153/383/21 108/226/21
f 144/228/21 156/384/21 115/229/21
f 145/231/22 125/385/21 121/232/21
f 121/234/2 54/386/2 53/235/2
f 115/237/2 116/387/2 110/238/2
f 102/240/2 106/388/2 105/241/2
f 129/243/2 98/389/2 97/244/2
f 140/246/2 132/390/2 131/247/2
f 135/249/2 134/391/2 112/250/2
f 138/252/2 137/392/2 124/253/2
f 83/255/1 139/393/1 141/256/1
f 99/258/1 61/149/1 106/151/1
f 72/260/3 132/293/3 140/261/3
f 79/263/2 147/394/2 139/264/2
f 67/266/1 81/257/1 141/256/1
f 79/268/3 96/262/3 140/261/3
f 68/270/3 128/395/3 129/271/3
f 5/272/3 135/307/3 103/147/19
f 148/274/2 149/396/2 128/275/2
f 70/277/1 78/162/20 112/161/20
f 86/279/1 142/397/1 97/135/1
f 148/281/1 64/134/1 98/136/1
f 74/283/3 138/321/3 117/174/3
f 82/285/2 150/398/2 142/286/2
f 50/288/1 4/189/1 124/188/1
f 82/290/3 95/142/3 101/141/3
f 71/292/3 130/399/3 132/293/3
f 151/294/2 152/400/2 130/295/2
f 89/297/1 143/401/1 105/150/1
f 151/299/1 67/266/1 131/267/1
f 85/301/2 153/402/2 143/302/2
f 85/304/3 94/156/3 108/155/3
f 51/306/3 133/403/3 135/307/3
f 154/308/2 155/404/2 133/309/2
f 33/311/1 144/405/1 113/164/1
f 154/313/1 70/277/1 134/278/1
f 88/315/2 156/406/2 144/316/2
f 88/318/3 93/170/3 115/169/3
f 90/320/3 136/407/3 138/321/3
f 157/322/2 158/408/2 136/323/2
f 127/325/1 145/409/1 119/177/1
f 157/327/1 50/288/1 137/289/1
f 59/329/3 52/410/3 54/330/3
f 32/331/2 125/411/2 145/332/2
f 122/334/2 123/412/2 52/335/2
