# Blender v2.79 (sub 6) OBJ File: ''
# www.blender.org
o MuroRectangular1_Cube.017
v -3.082511 0.445909 0.919572
v -3.056150 0.172241 -1.978226
v -3.085504 0.203026 0.922401
v 2.725629 0.105004 -1.915492
v 3.196912 0.338934 -1.909947
v 3.193919 0.096050 -1.907117
v 2.215949 0.403419 2.024257
v -3.100533 0.218818 1.972728
v 2.351319 0.159690 2.027871
v 3.069903 0.370707 0.972318
v 3.095756 0.162031 -1.811124
v 3.067695 0.191459 0.974404
v -2.956407 0.415086 -1.882092
v -2.984468 0.444513 0.903436
v 3.097963 0.341280 -1.813211
v 2.728622 0.347888 -1.918322
v 2.661053 0.349852 -1.821228
v -2.998591 0.459355 1.873161
v 2.181957 0.402693 1.926008
v 2.001480 0.216023 1.443231
v -3.000799 0.280107 1.875247
v 2.179749 0.223444 1.928094
v -2.991530 0.451934 1.388299
v -2.993738 0.272685 1.390385
v 2.221934 0.179174 -1.827160
v 2.224142 0.358423 -1.829246
v 2.658845 0.170603 -1.819142
v 2.260331 0.356842 -1.926696
v -3.053157 0.415125 -1.981055
v 2.257339 0.113958 -1.923867
v 2.630784 0.200030 0.725093
v -2.958615 0.235837 -1.880006
v -2.986676 0.265264 0.905522
v 2.193873 0.208602 0.958369
v 3.167558 0.369718 0.990680
v -3.090025 0.453805 1.444735
v 3.164565 0.126834 0.993510
v -3.093018 0.210922 1.447565
v -3.105823 -0.828170 1.459670
v -3.091490 -0.282741 0.928061
v -3.098309 -0.836067 0.934507
v 3.181114 -0.943042 -1.895012
v 3.158579 -0.358933 0.999169
v 3.151760 -0.912258 1.005615
v -3.062136 -0.313526 -1.972566
v 2.244534 -0.925134 -1.911761
v -3.068955 -0.866851 -1.966120
v 3.136731 -0.896465 2.055942
v 2.628099 -0.327805 2.035134
v 2.200151 -0.878557 2.039192
v -3.106519 -0.266949 1.978387
v -3.113338 -0.820274 1.984833
v 2.712824 -0.934088 -1.903386
v 3.187933 -0.389717 -1.901458
v -3.099005 -0.274845 1.453224
v -3.088498 -0.039858 0.925231
v -3.096012 -0.031961 1.450394
v 3.190925 -0.146833 -1.904288
v 3.160455 -0.114885 1.194502
v -3.059143 -0.070642 -1.975396
v 2.251352 -0.371809 -1.918207
v 2.254345 -0.128925 -1.921037
v 2.475239 -0.083969 2.031421
v -3.103526 -0.024065 1.975557
v 2.719642 -0.380763 -1.909833
v 2.722636 -0.137879 -1.912663
v 2.421676 -0.093035 1.448874
v 2.594107 -0.328531 1.936885
v 2.599262 -0.369923 1.453817
v 2.773032 -0.108281 1.002402
v 2.604417 -0.411316 0.970749
v 2.832670 -0.384629 0.975778
v 2.317328 0.158964 1.929622
v 3.066910 0.127824 0.975147
v 2.441247 -0.084695 1.933172
v 2.594108 -0.328531 1.936885
v 3.062800 -0.113895 1.176140
v 3.060924 -0.357943 0.980807
v 3.055510 -0.343535 1.950940
v 3.143550 -0.343140 2.049495
v 2.650940 0.100786 0.777528
v 2.460613 -0.101733 0.964907
v 2.221679 0.103402 1.929736
v 2.042994 0.088575 1.445265
v 2.828739 -0.360331 1.459845
v 2.234971 0.073747 0.960793
v 2.824808 -0.336033 1.943912
v -3.097540 0.461702 1.969898
v 3.058216 -0.350739 1.465872
v 3.055509 -0.343535 1.950938
v 3.066909 0.127824 0.975147
v 3.060923 -0.357943 0.980806
v 3.085452 -0.114830 1.039897
v 2.382740 -0.084338 1.932840
vt 0.501529 0.710213
vt 0.478573 1.000000
vt 0.478250 0.710213
vt 0.762155 0.046794
vt 0.739190 0.000000
vt 0.762469 0.000000
vt 0.862061 0.526332
vt 0.882296 0.001599
vt 0.882020 0.541623
vt 0.701937 0.883557
vt 0.719117 0.605291
vt 0.719117 0.883579
vt 0.369270 0.614662
vt 0.100673 0.624388
vt 0.102316 0.614611
vt 0.368620 0.009824
vt 0.378323 0.046832
vt 0.368952 0.053483
vt 0.009368 0.615040
vt 0.000000 0.094024
vt 0.009382 0.097520
vt 0.424956 0.106041
vt 0.378658 0.605269
vt 0.378658 0.087749
vt 0.701759 0.931933
vt 0.684868 0.980297
vt 0.684690 0.931876
vt 0.968066 0.000000
vt 0.982575 0.514340
vt 0.967822 0.513161
vt 0.967944 0.556511
vt 0.982698 0.557691
vt 0.982820 0.517561
vt 1.000000 0.000023
vt 1.000000 0.517584
vt 0.378658 0.093626
vt 0.378658 0.624427
vt 0.739190 0.624431
vt 0.761840 0.093589
vt 0.762469 0.624431
vt 0.738561 0.087360
vt 0.494390 0.043912
vt 0.738228 0.043701
vt 0.701581 0.883512
vt 0.684868 0.605269
vt 0.701937 0.605327
vt 0.471607 0.604838
vt 0.471607 0.087318
vt 0.100002 0.000000
vt 0.377987 0.000039
vt 0.055842 0.614826
vt 0.050337 0.624607
vt 0.600801 0.605471
vt 0.623930 0.895198
vt 0.600801 0.895151
vt 0.478412 0.657741
vt 0.378820 0.657741
vt 0.431692 0.710213
vt 0.378658 0.710213
vt 0.501853 0.605269
vt 0.554543 0.895056
vt 0.501853 0.894949
vt 0.809027 0.624431
vt 0.861432 0.093589
vt 0.862061 0.624431
vt 0.967822 0.627690
vt 0.921938 0.572804
vt 0.967577 0.534770
vt 0.922279 0.004796
vt 0.967822 0.008438
vt 0.502338 0.999841
vt 0.861746 0.046794
vt 0.809027 0.000000
vt 0.862061 0.000000
vt 0.378981 1.000000
vt 0.431853 0.657741
vt 0.454971 0.710213
vt 0.455133 0.657741
vt 0.577672 0.605424
vt 0.554543 0.605377
vt 0.577574 0.914894
vt 0.785748 0.624431
vt 0.808399 0.093589
vt 0.785119 0.093589
vt 0.901982 0.555782
vt 0.902288 0.003197
vt 0.808713 0.046794
vt 0.785748 0.000000
vt 0.785434 0.046794
vt 0.432015 1.000000
vt 0.455294 1.000000
vt 0.069476 0.674199
vt 0.097553 0.627531
vt 0.097553 0.675957
vt 0.171798 0.656586
vt 0.151333 0.679766
vt 0.146569 0.657742
vt 0.204375 0.625315
vt 0.194905 0.650420
vt 0.194910 0.624825
vt 0.248161 0.645849
vt 0.238641 0.624825
vt 0.248161 0.624949
vt 0.194878 0.675891
vt 0.204371 0.650909
vt 0.204343 0.676381
vt 0.194910 0.701674
vt 0.204375 0.702164
vt 0.229300 0.626753
vt 0.238641 0.644398
vt 0.229300 0.646326
vt 0.213515 0.655715
vt 0.222976 0.625933
vt 0.222976 0.656824
vt 0.044254 0.634543
vt 0.003393 0.625498
vt 0.052825 0.624825
vt 0.052825 0.729767
vt 0.642124 0.719830
vt 0.640460 0.693871
vt 0.665262 0.711761
vt 0.684512 0.605269
vt 0.668405 0.655081
vt 0.640923 0.629716
vt 0.119996 0.625104
vt 0.141805 0.673160
vt 0.119838 0.673501
vt 0.183026 0.624825
vt 0.193074 0.673682
vt 0.180520 0.673521
vt 0.637302 0.722101
vt 0.623930 0.678689
vt 0.181620 0.721658
vt 0.194878 0.721806
vt 0.141805 0.721495
vt 0.119679 0.721899
vt 0.066695 0.722397
vt 0.097553 0.724382
vt 0.455294 0.605269
vt 0.432015 0.605269
vt 0.378982 0.605269
vt 0.478573 0.605269
vt 0.501691 0.657741
vt 0.000000 0.624825
vt 0.684512 0.883454
vt 0.097870 0.673843
vt 0.097553 0.722302
vt 0.229300 0.624825
vt 0.222976 0.670852
vt 0.224129 0.625787
vt 0.098187 0.625383
vt 0.180520 0.624825
vt 0.163077 0.626505
vt 0.141805 0.635717
vt 0.737894 0.000042
vt 0.470940 0.000000
vt 0.968066 0.599862
vt 0.982820 0.601042
vt 0.369284 0.097142
vt 0.738876 0.046794
vt 0.501852 1.000000
vt 0.862305 0.000000
vt 0.701937 0.605269
vt 0.425133 0.605053
vt 0.701937 0.980355
vt 0.982820 0.001180
vt 0.982820 0.000000
vt 0.738561 0.093589
vt 0.738561 0.604880
vt 0.101665 0.009773
vt 0.623930 0.605518
vt 0.922279 0.624048
vt 0.555029 0.999949
vt 0.072258 0.626002
vt 0.180520 0.686667
vt 0.238641 0.645725
vt 0.238641 0.624825
vt 0.213515 0.624825
vt 0.000000 0.635263
vt 0.043442 0.731461
vt 0.052825 0.624825
vt 0.141805 0.624825
vt 0.194878 0.625000
vt 0.213515 0.624825
vt 0.213515 0.667036
vt 0.204375 0.658796
vt 0.501853 0.605269
vt 0.229300 0.672652
vt 0.684511 0.732494
vn -0.9998 0.0122 -0.0124
vn -0.9999 0.0122 -0.0102
vn 0.0177 -0.0119 -0.9998
vn -0.0101 0.0111 0.9999
vn -0.0100 0.0103 0.9999
vn -0.0100 0.0108 0.9999
vn 0.0118 0.9999 -0.0113
vn 0.0098 0.9999 -0.0118
vn 0.0114 0.9998 -0.0148
vn 0.0141 0.9998 -0.0112
vn 0.0192 0.9998 -0.0054
vn 0.0197 0.9998 -0.0080
vn 0.0111 0.9999 -0.0124
vn 0.0111 0.9999 -0.0123
vn 0.0111 0.9999 -0.0112
vn 0.0140 0.9998 -0.0147
vn 0.0112 0.9998 -0.0182
vn 0.0111 0.9997 -0.0194
vn 0.9998 -0.0121 0.0147
vn -0.0101 0.0118 0.9999
vn -0.0141 0.0118 0.9998
vn -0.0181 0.0119 0.9998
vn 0.0101 -0.0118 -0.9999
vn 0.0119 0.9999 -0.0082
vn 0.0111 0.9999 -0.0105
vn 0.0139 -0.0118 -0.9998
vn 0.0114 0.9999 -0.0103
vn 0.0200 0.9997 -0.0145
vn 0.0198 0.9997 -0.0113
vn 0.9998 -0.0122 0.0125
vn 0.9999 -0.0122 0.0102
vn 0.0109 0.9999 -0.0105
vn 0.0134 0.9999 -0.0107
vn 0.0130 0.9999 -0.0105
vn 0.0163 0.9998 -0.0075
vn 0.0112 0.9998 -0.0152
vn 0.0098 0.9998 -0.0150
vn 0.9999 -0.0120 0.0101
vn -0.9998 0.0122 -0.0145
vn 0.9998 -0.0123 0.0146
vn 0.9998 -0.0122 0.0124
vn -0.0175 0.0209 0.9996
vn -0.0100 0.0126 0.9999
vn -0.0082 0.0129 0.9999
vn 0.9998 -0.0122 0.0145
vn 0.9999 -0.0125 0.0079
vn 0.9999 -0.0128 0.0102
vn 0.9999 -0.0122 0.0100
vn -0.0099 0.0108 0.9999
vn -0.0093 0.0148 0.9998
vn -0.0099 0.0104 0.9999
vn 0.8415 0.5390 -0.0372
vn -0.0105 -0.0981 0.9951
vn 0.8376 0.4609 -0.2932
vn -0.1846 0.0137 0.9827
vn 0.8526 0.4292 -0.2981
vn 0.8526 0.4293 -0.2981
vn 0.8140 0.5059 -0.2854
vn -0.1366 0.6347 0.7606
vn -0.1515 -0.6170 0.7723
vn 0.0324 0.9992 -0.0221
vn 0.0312 0.9991 -0.0282
vn 0.0306 0.9990 -0.0313
vn 0.0121 0.9998 -0.0149
vn -0.0690 0.7117 0.6991
vn 0.4264 0.8855 -0.1844
vn -0.0404 0.9979 -0.0504
vn 0.8976 0.2871 -0.3344
vn 0.3239 0.4926 0.8078
vn 0.8956 0.2792 0.3463
vn 0.0340 0.9982 -0.0498
vn 0.6131 0.7892 0.0351
vn 0.9068 0.4207 -0.0264
vn 0.0101 0.9999 -0.0139
vn 0.0329 0.9993 -0.0147
vn -0.4299 0.0159 0.9027
vn -0.0414 0.9990 -0.0151
vn -0.1103 0.2484 0.9624
vn -0.1208 -0.2229 0.9673
vn 0.0240 0.9997 -0.0105
vn 0.0255 0.9996 -0.0103
vn 0.0190 0.9998 -0.0093
vn 0.0115 0.9998 -0.0151
vn 0.0110 0.9999 -0.0105
vn 0.0121 0.9999 -0.0104
vn -0.0275 0.0120 0.9996
vn 0.7575 0.6510 0.0495
vn 0.7563 0.6524 0.0491
vn 0.7548 0.6541 0.0490
vn -0.1198 -0.0369 0.9921
vn 0.0331 0.9993 -0.0188
vn 0.0129 0.9998 -0.0148
vn 0.3353 0.4505 0.8274
vn 0.7577 0.6508 0.0493
vn -0.1138 0.9898 -0.0860
vn 0.8901 0.3063 -0.3376
vn 0.4675 0.1581 0.8698
vn 0.8896 0.2953 0.3485
vn -0.0394 0.9955 -0.0857
vn 0.4270 0.8931 0.1419
vn 0.8399 0.5397 0.0579
vn -0.4611 0.3395 0.8198
vn -0.1149 0.9921 -0.0507
vn -0.3843 0.5628 0.7319
vn -0.0104 -0.0981 0.9951
s 1
f 1/1/1 2/2/2 3/3/1
f 4/4/3 5/5/3 6/6/3
f 7/7/4 8/8/5 9/9/6
f 10/10/2 11/11/2 12/12/2
f 13/13/7 1/14/8 14/15/9
f 15/16/10 16/17/11 17/18/12
f 18/19/13 7/20/14 19/21/15
f 20/22/16 21/23/17 22/24/18
f 23/25/19 21/26/19 24/27/19
f 13/28/20 25/29/21 26/30/21
f 17/31/22 25/29/21 27/32/22
f 18/33/23 22/34/23 21/35/23
f 13/13/7 28/36/24 29/37/25
f 29/38/23 30/39/26 2/40/23
f 25/41/27 31/42/28 27/43/29
f 14/44/30 32/45/31 13/46/31
f 25/41/27 33/47/32 34/48/33
f 15/16/10 35/49/34 5/50/35
f 23/51/36 1/14/8 36/52/37
f 6/53/31 35/54/31 37/55/38
f 38/56/39 1/1/1 3/3/1
f 39/57/39 40/58/1 41/59/1
f 42/60/31 43/61/40 44/62/41
f 45/63/23 46/64/26 47/65/23
f 48/66/42 49/67/42 50/68/42
f 50/68/43 51/69/44 52/70/20
f 43/61/40 48/71/45 44/62/41
f 53/72/3 54/73/3 42/74/3
f 40/58/1 47/75/2 41/59/1
f 55/76/39 56/77/1 40/58/1
f 57/78/39 3/3/1 56/77/1
f 58/79/46 43/61/47 54/80/31
f 58/79/46 37/55/38 59/81/48
f 60/82/23 61/83/26 45/63/23
f 2/40/23 62/84/26 60/82/23
f 63/85/49 51/69/44 49/67/50
f 9/9/6 64/86/51 63/85/49
f 65/87/3 58/88/3 54/73/3
f 66/89/3 6/6/3 58/88/3
f 56/77/1 45/90/2 40/58/1
f 3/3/1 60/91/2 56/77/1
f 67/92/52 68/93/52 69/94/52
f 70/95/53 71/96/53 72/97/53
f 7/98/54 73/99/54 19/100/54
f 74/101/55 35/102/55 10/103/55
f 75/104/56 9/105/57 63/106/56
f 76/107/58 63/106/58 49/108/58
f 37/109/59 77/110/59 59/111/59
f 43/112/60 77/113/60 78/114/60
f 79/115/61 49/116/62 80/117/63
f 43/118/64 79/115/64 80/117/64
f 81/119/65 82/120/65 70/121/65
f 83/122/66 67/123/66 84/124/66
f 72/125/67 69/126/67 85/127/67
f 22/128/68 84/129/68 20/130/68
f 31/131/69 86/132/69 81/119/69
f 34/133/70 84/129/70 86/134/70
f 85/127/71 68/135/71 87/136/71
f 86/132/72 67/123/72 82/120/72
f 82/137/73 69/94/73 71/138/73
f 64/139/39 38/56/39 57/78/39
f 51/140/39 57/78/39 55/76/39
f 52/141/39 55/76/39 39/57/39
f 8/142/39 36/143/39 38/56/39
f 18/19/13 36/52/37 88/144/74
f 14/44/30 24/27/19 33/145/30
f 33/47/32 20/22/16 34/48/33
f 89/146/75 87/136/75 90/147/75
f 12/148/76 81/149/76 91/150/76
f 92/151/77 85/127/77 89/146/77
f 91/152/78 70/95/78 93/153/78
f 70/95/79 92/154/79 93/153/79
f 62/84/26 4/4/3 66/89/3
f 61/83/26 66/89/3 65/87/3
f 46/64/26 65/87/3 53/72/3
f 11/155/80 31/42/28 12/156/81
f 15/157/22 27/32/22 11/158/22
f 17/18/12 28/36/24 26/159/82
f 30/39/26 16/160/3 4/4/3
f 1/1/1 29/161/2 2/2/2
f 4/4/3 16/160/3 5/5/3
f 7/7/4 88/162/20 8/8/5
f 10/10/2 15/163/2 11/11/2
f 13/13/7 29/37/25 1/14/8
f 15/16/10 5/50/35 16/17/11
f 18/19/13 88/144/74 7/20/14
f 20/22/16 24/164/83 21/23/17
f 23/25/19 18/165/19 21/26/19
f 13/28/20 32/166/20 25/29/21
f 17/31/22 26/30/21 25/29/21
f 18/33/23 19/167/23 22/34/23
f 13/13/7 26/159/82 28/36/24
f 29/38/23 28/168/26 30/39/26
f 25/41/27 34/48/33 31/42/28
f 14/44/30 33/145/30 32/45/31
f 25/41/27 32/169/84 33/47/32
f 15/16/10 10/170/85 35/49/34
f 23/51/36 14/15/9 1/14/8
f 6/53/31 5/171/31 35/54/31
f 38/56/39 36/143/39 1/1/1
f 39/57/39 55/76/39 40/58/1
f 42/60/31 54/80/31 43/61/47
f 45/63/23 61/83/26 46/64/26
f 48/66/86 80/172/86 49/67/86
f 50/68/43 49/67/50 51/69/44
f 43/61/40 80/173/45 48/71/45
f 53/72/3 65/87/3 54/73/3
f 40/58/1 45/90/2 47/75/2
f 55/76/39 57/78/39 56/77/1
f 57/78/39 38/56/39 3/3/1
f 58/79/46 59/81/48 43/61/47
f 58/79/46 6/53/31 37/55/38
f 60/82/23 62/84/26 61/83/26
f 2/40/23 30/39/26 62/84/26
f 63/85/49 64/86/51 51/69/44
f 9/9/6 8/8/5 64/86/51
f 65/87/3 66/89/3 58/88/3
f 66/89/3 4/4/3 6/6/3
f 56/77/1 60/91/2 45/90/2
f 3/3/1 2/2/2 60/91/2
f 67/92/87 94/174/88 68/93/89
f 70/95/90 82/175/90 71/96/90
f 7/98/54 9/105/54 73/99/54
f 74/101/55 37/176/55 35/102/55
f 75/104/56 73/99/57 9/105/57
f 76/107/58 75/104/58 63/106/58
f 37/109/59 74/177/59 77/110/59
f 43/112/60 59/178/60 77/113/60
f 79/115/61 76/179/91 49/116/62
f 43/118/92 78/180/92 79/115/92
f 81/119/93 86/132/93 82/120/93
f 83/181/94 94/174/88 67/92/87
f 72/125/95 71/182/95 69/126/95
f 22/128/96 83/183/96 84/129/96
f 31/184/97 34/185/97 86/186/97
f 34/133/98 20/130/98 84/129/98
f 85/127/99 69/126/99 68/135/99
f 86/132/100 84/124/100 67/123/100
f 82/137/101 67/92/101 69/94/101
f 64/139/39 8/142/39 38/56/39
f 51/140/39 64/139/39 57/78/39
f 52/141/39 51/140/39 55/76/39
f 8/142/39 88/187/39 36/143/39
f 18/19/13 23/51/36 36/52/37
f 14/44/30 23/25/19 24/27/19
f 33/47/32 24/164/83 20/22/16
f 89/146/67 85/127/67 87/136/67
f 12/148/102 31/188/102 81/149/102
f 92/151/103 72/125/103 85/127/103
f 91/189/104 81/119/104 70/121/104
f 70/95/53 72/97/53 92/154/105
f 62/84/26 30/39/26 4/4/3
f 61/83/26 62/84/26 66/89/3
f 46/64/26 61/83/26 65/87/3
f 11/155/80 27/43/29 31/42/28
f 15/157/22 17/31/22 27/32/22
f 17/18/12 16/17/11 28/36/24
f 30/39/26 28/168/26 16/160/3
