# Blender v2.79 (sub 6) OBJ File: ''
# www.blender.org
o Cylinder_Cylinder.004
v -0.331397 0.761323 2.352281
v 0.042111 0.743550 -2.307879
v -0.331397 0.761323 -2.307879
v 0.042111 0.743550 2.352281
v 0.330053 0.694302 -2.307879
v 0.330053 0.694302 2.352281
v 0.466464 0.624861 -2.307879
v 0.466464 0.624861 2.352281
v 0.420096 0.551135 -2.307879
v 0.420096 0.551135 2.352281
v 0.201569 0.490015 -2.307879
v 0.201569 0.490014 2.352281
v -0.139054 0.455501 -2.307879
v -0.139054 0.455501 2.352281
v -0.523740 0.455501 -2.307879
v -0.523740 0.455501 2.352281
v -0.864362 0.490015 -2.307879
v -0.864362 0.490014 2.352281
v -1.082889 0.551135 -2.307879
v -1.082889 0.551135 2.352281
v -1.129258 0.624861 -2.307879
v -1.129258 0.624861 2.352281
v -0.992846 0.694302 -2.307879
v -0.704904 0.743550 2.352281
v -0.704904 0.743550 -2.307879
v 0.253811 0.601586 2.158075
v 0.253811 -1.455376 -1.927620
v 0.253811 -1.455377 2.158075
v 0.253811 0.601586 -1.927620
v 0.281074 -1.455376 -1.927620
v 0.281074 0.601586 -1.927620
v 0.281074 -1.455377 2.158075
v 0.281074 0.601586 2.158075
v 0.059079 -0.974839 -0.966301
v 0.059079 -1.033122 -1.871990
v 0.059079 -1.033122 -0.966301
v 0.059079 -0.974839 -1.871990
v 0.324473 -1.033122 -1.871990
v 0.324473 -0.974839 -0.966301
v 0.324473 -1.033122 -0.966301
v 0.324473 -0.974839 -1.871990
v 0.059079 -0.974839 0.022081
v 0.059079 -1.033122 -0.883608
v 0.059079 -1.033123 0.022081
v 0.059079 -0.974839 -0.883608
v 0.324473 -1.033122 -0.883608
v 0.324473 -0.974839 -0.883608
v 0.324473 -1.033123 0.022081
v 0.324473 -0.974839 0.022081
v 0.059079 -0.974839 1.024719
v 0.059079 -1.033123 0.119030
v 0.059079 -1.033123 1.024719
v 0.059079 -0.974839 0.119030
v 0.324473 -1.033123 0.119030
v 0.324473 -0.974839 0.119030
v 0.324473 -1.033123 1.024719
v 0.324473 -0.974839 1.024719
v 0.275643 0.531821 -1.963392
v 0.308718 -1.372566 -1.949692
v 0.275643 -1.372566 -1.963392
v 0.308718 0.531821 -1.949692
v 0.322418 -1.372566 -1.916617
v 0.322418 0.531821 -1.916617
v 0.308718 -1.372566 -1.883542
v 0.308718 0.531821 -1.883542
v 0.275643 -1.372566 -1.869842
v 0.275643 0.531821 -1.869842
v 0.242568 -1.372566 -1.883542
v 0.242568 0.531821 -1.883542
v 0.228868 -1.372566 -1.916617
v 0.228868 0.531821 -1.916617
v 0.242568 -1.372566 -1.949692
v 0.242568 0.531821 -1.949692
v 0.275643 0.531821 -0.981198
v 0.308718 -1.372566 -0.967498
v 0.275643 -1.372566 -0.981198
v 0.308718 0.531821 -0.967498
v 0.322418 -1.372566 -0.934423
v 0.322418 0.531821 -0.934423
v 0.308718 -1.372566 -0.901348
v 0.308718 0.531821 -0.901348
v 0.275643 -1.372566 -0.887648
v 0.275643 0.531821 -0.887648
v 0.242568 -1.372566 -0.901348
v 0.242568 0.531821 -0.901348
v 0.228868 -1.372566 -0.934423
v 0.228868 0.531821 -0.934423
v 0.242568 0.531821 -0.967498
v 0.242568 -1.372566 -0.967498
v 0.275643 0.531821 0.028431
v 0.308718 -1.372566 0.042131
v 0.275643 -1.372566 0.028431
v 0.308718 0.531821 0.042131
v 0.322418 -1.372566 0.075206
v 0.322418 0.531821 0.075206
v 0.308718 -1.372566 0.108281
v 0.308718 0.531821 0.108281
v 0.275643 -1.372566 0.121981
v 0.275643 0.531821 0.121981
v 0.242568 -1.372566 0.108281
v 0.242568 0.531821 0.108281
v 0.228868 -1.372566 0.075206
v 0.228868 0.531821 0.075206
v 0.242568 -1.372566 0.042131
v 0.242568 0.531821 0.042131
v -0.992846 0.694302 2.352281
vt 0.661795 0.000000
vt 0.712175 0.758655
vt 0.661795 0.758655
vt 0.712175 0.000000
vt 0.751014 0.758655
vt 0.751014 0.000000
vt 0.769414 0.758655
vt 0.992645 0.758655
vt 0.982394 0.000000
vt 0.992645 0.000000
vt 0.769414 0.000000
vt 0.798889 0.758655
vt 0.769414 0.758655
vt 0.798889 0.000000
vt 0.844834 0.758655
vt 0.844834 0.000000
vt 0.896722 0.758655
vt 0.896722 0.000000
vt 0.942666 0.758655
vt 0.942666 0.000000
vt 0.972142 0.758655
vt 0.982394 0.758655
vt 0.972142 0.000000
vt 0.982394 0.000000
vt 0.554176 0.000000
vt 0.572576 0.758655
vt 0.554176 0.758655
vt 0.069602 0.917363
vt 0.059657 0.924912
vt 0.050291 0.902705
vt 0.611415 0.000000
vt 0.611415 0.758655
vt 0.009040 0.902705
vt 0.002397 0.855829
vt 0.036595 0.881788
vt 0.554176 0.000000
vt 0.277088 0.665135
vt 0.277088 0.000000
vt 0.404357 0.665135
vt 0.408035 1.000000
vt 0.404357 1.000000
vt 0.000000 0.665135
vt 0.277088 0.000000
vt 0.277088 0.665135
vt 0.408035 0.665135
vt 0.411712 1.000000
vt 0.408035 1.000000
vt 0.992645 0.665135
vt 0.996323 0.000000
vt 0.996323 0.665135
vt 0.996323 0.665135
vt 1.000000 0.000000
vt 1.000000 0.665135
vt 0.450968 0.665135
vt 0.443117 0.812577
vt 0.443117 0.665135
vt 0.505989 0.665135
vt 0.498127 0.708340
vt 0.498127 0.665135
vt 0.458819 0.812577
vt 0.450968 0.665135
vt 0.458819 0.665135
vt 0.498127 0.665135
vt 0.490266 0.708340
vt 0.490266 0.665135
vt 0.189893 0.812577
vt 0.225691 0.665135
vt 0.225691 0.812577
vt 0.261488 0.812577
vt 0.297286 0.665135
vt 0.297286 0.812577
vt 0.427415 0.812577
vt 0.435266 0.665135
vt 0.435266 0.812577
vt 0.490266 0.665135
vt 0.482404 0.708340
vt 0.482404 0.665135
vt 0.419563 0.812577
vt 0.427415 0.665135
vt 0.427415 0.812577
vt 0.482404 0.665135
vt 0.474543 0.708340
vt 0.474543 0.665135
vt 0.225691 0.812577
vt 0.261488 0.665135
vt 0.261488 0.812577
vt 0.118298 0.812577
vt 0.154096 0.665135
vt 0.154096 0.812577
vt 0.419563 0.665135
vt 0.411712 0.812577
vt 0.411712 0.665135
vt 0.466681 0.665135
vt 0.458819 0.708340
vt 0.458819 0.665135
vt 0.435266 0.812577
vt 0.443117 0.665135
vt 0.443117 0.812577
vt 0.474543 0.665135
vt 0.466681 0.708340
vt 0.466681 0.665135
vt 0.154096 0.812577
vt 0.189893 0.665135
vt 0.189893 0.812577
vt 0.082501 0.812577
vt 0.118298 0.665135
vt 0.118298 0.812577
vt 0.301747 0.665135
vt 0.306208 0.975161
vt 0.301747 0.975161
vt 0.368667 0.665249
vt 0.373128 0.974755
vt 0.368667 0.974869
vt 0.373128 0.665135
vt 0.377589 0.974869
vt 0.324054 0.665135
vt 0.328515 0.975161
vt 0.324054 0.975161
vt 0.328515 0.665135
vt 0.332976 0.975161
vt 0.359744 0.665249
vt 0.364205 0.974755
vt 0.359744 0.974869
vt 0.509403 0.679205
vt 0.505989 0.669256
vt 0.514232 0.665135
vt 0.364205 0.665135
vt 0.368667 0.974869
vt 0.297286 0.665135
vt 0.297286 0.975161
vt 0.529304 0.669256
vt 0.525890 0.679205
vt 0.517646 0.675084
vt 0.319592 0.665135
vt 0.324054 0.975161
vt 0.319592 0.975161
vt 0.395434 0.665249
vt 0.399896 0.974755
vt 0.395434 0.974869
vt 0.399896 0.665135
vt 0.404357 0.974869
vt 0.341899 0.665135
vt 0.346360 0.975161
vt 0.341899 0.975161
vt 0.346360 0.665135
vt 0.350821 0.975161
vt 0.386512 0.665249
vt 0.390973 0.974755
vt 0.386512 0.974869
vt 0.549206 0.665135
vt 0.552620 0.675084
vt 0.544377 0.679205
vt 0.395434 0.665249
vt 0.395434 0.974869
vt 0.315131 0.665135
vt 0.315131 0.975161
vt 0.529304 0.675084
vt 0.529304 0.669256
vt 0.532719 0.665135
vt 0.310670 0.665135
vt 0.315131 0.975161
vt 0.310670 0.975161
vt 0.359744 0.974755
vt 0.355283 0.665249
vt 0.359744 0.665135
vt 0.355283 0.974869
vt 0.350821 0.665135
vt 0.332976 0.665135
vt 0.337437 0.975161
vt 0.332976 0.975161
vt 0.337437 0.665135
vt 0.341899 0.975161
vt 0.377589 0.665249
vt 0.382051 0.974755
vt 0.377589 0.974869
vt 0.514232 0.693275
vt 0.505989 0.689154
vt 0.509403 0.679205
vt 0.382051 0.665135
vt 0.386512 0.974869
vt 0.306208 0.665135
vt 0.306208 0.975161
vt 0.521061 0.679205
vt 0.529304 0.683326
vt 0.525890 0.693275
vt 0.769413 0.000000
vt 0.982394 0.758655
vt 0.972142 0.000000
vt 0.972142 0.758655
vt 0.572576 0.000000
vt 0.043648 0.855829
vt 0.077846 0.881788
vt 0.041251 0.795023
vt 0.082501 0.826336
vt 0.043648 0.734218
vt 0.082501 0.763711
vt 0.050291 0.687342
vt 0.077846 0.708259
vt 0.059657 0.665135
vt 0.069602 0.672683
vt 0.000000 0.795023
vt 0.041251 0.826336
vt 0.002397 0.734218
vt 0.041251 0.763711
vt 0.009040 0.687342
vt 0.036595 0.708259
vt 0.018407 0.665135
vt 0.028351 0.672683
vt 0.028351 0.917363
vt 0.018407 0.924912
vt 0.554176 0.665135
vt 0.408034 0.665135
vt 0.000000 0.000000
vt 0.411712 0.665135
vt 0.992645 0.000000
vt 0.996323 0.000000
vt 0.450968 0.812577
vt 0.505989 0.708340
vt 0.450968 0.812577
vt 0.498127 0.708340
vt 0.189893 0.665135
vt 0.261488 0.665135
vt 0.427415 0.665135
vt 0.490266 0.708340
vt 0.419563 0.665135
vt 0.482404 0.708340
vt 0.225691 0.665135
vt 0.118298 0.665135
vt 0.419563 0.812577
vt 0.466681 0.708340
vt 0.435266 0.665135
vt 0.474543 0.708340
vt 0.154096 0.665135
vt 0.082501 0.665135
vt 0.306208 0.665135
vt 0.377589 0.665249
vt 0.332976 0.665135
vt 0.517646 0.669256
vt 0.517646 0.675084
vt 0.514232 0.679205
vt 0.505989 0.675084
vt 0.509403 0.665135
vt 0.368667 0.665249
vt 0.529304 0.675084
vt 0.521061 0.679205
vt 0.517646 0.669256
vt 0.521061 0.665135
vt 0.525890 0.665135
vt 0.324053 0.665135
vt 0.404357 0.665249
vt 0.350821 0.665135
vt 0.390973 0.665135
vt 0.540962 0.675084
vt 0.540962 0.669256
vt 0.544377 0.665135
vt 0.552620 0.669256
vt 0.549206 0.679205
vt 0.537548 0.665135
vt 0.540962 0.669256
vt 0.540962 0.675084
vt 0.537548 0.679205
vt 0.532719 0.679205
vt 0.315131 0.665135
vt 0.350821 0.974755
vt 0.341899 0.665135
vt 0.514232 0.679205
vt 0.517646 0.683326
vt 0.517646 0.689154
vt 0.509403 0.693275
vt 0.505989 0.683326
vt 0.386512 0.665249
vt 0.525890 0.679205
vt 0.529304 0.689154
vt 0.521061 0.693275
vt 0.517646 0.689154
vt 0.517646 0.683326
vn 0.0475 0.9989 0.0000
vn 0.1686 0.9857 0.0000
vn 0.4537 0.8912 0.0000
vn 0.8465 -0.5324 -0.0000
vn 0.2694 -0.9630 -0.0000
vn 0.1008 -0.9949 -0.0000
vn 0.0000 -1.0000 -0.0000
vn -0.1008 -0.9949 -0.0000
vn -0.2694 -0.9630 -0.0000
vn -0.8465 -0.5324 -0.0000
vn -0.4537 0.8912 0.0000
vn 0.0000 0.0000 1.0000
vn -0.1686 0.9857 0.0000
vn -0.0475 0.9989 0.0000
vn 0.0000 0.0000 -1.0000
vn -1.0000 0.0000 0.0000
vn 1.0000 0.0000 0.0000
vn 0.0000 1.0000 0.0000
vn 0.3827 0.0000 -0.9239
vn 0.9239 0.0000 -0.3827
vn 0.9239 -0.0000 0.3827
vn 0.3827 -0.0000 0.9239
vn -0.3827 -0.0000 0.9239
vn -0.9239 -0.0000 0.3827
vn -0.9239 0.0000 -0.3827
vn -0.3827 0.0000 -0.9239
s 1
f 1/1/1 2/2/1 3/3/1
f 4/4/2 5/5/2 2/2/2
f 6/6/3 7/7/3 5/5/3
f 8/8/4 9/9/4 7/10/4
f 10/11/5 11/12/5 9/13/5
f 12/14/6 13/15/6 11/12/6
f 14/16/7 15/17/7 13/15/7
f 16/18/8 17/19/8 15/17/8
f 18/20/9 19/21/9 17/19/9
f 20/22/10 21/23/10 19/24/10
f 22/25/11 23/26/11 21/27/11
f 10/28/12 8/29/12 6/30/12
f 23/26/13 24/31/13 25/32/13
f 24/31/14 3/3/14 25/32/14
f 23/33/15 25/34/15 17/35/15
f 26/36/16 27/37/16 28/38/16
f 29/39/15 30/40/15 27/41/15
f 31/42/17 32/43/17 30/44/17
f 33/45/12 28/46/12 32/47/12
f 30/48/7 28/49/7 27/50/7
f 29/51/18 33/52/18 31/53/18
f 34/54/16 35/55/16 36/56/16
f 37/57/15 38/58/15 35/59/15
f 38/60/17 39/61/17 40/62/17
f 39/63/12 36/64/12 40/65/12
f 38/66/7 36/67/7 35/68/7
f 37/69/18 39/70/18 41/71/18
f 42/72/16 43/73/16 44/74/16
f 45/75/15 46/76/15 43/77/15
f 47/78/17 48/79/17 46/80/17
f 49/81/12 44/82/12 48/83/12
f 46/84/7 44/85/7 43/86/7
f 45/87/18 49/88/18 47/89/18
f 50/90/16 51/91/16 52/92/16
f 53/93/15 54/94/15 51/95/15
f 55/96/17 56/97/17 54/98/17
f 57/99/12 52/100/12 56/101/12
f 54/102/7 52/103/7 51/104/7
f 53/105/18 57/106/18 55/107/18
f 58/108/19 59/109/19 60/110/19
f 61/111/20 62/112/20 59/113/20
f 63/114/21 64/115/21 62/112/21
f 65/116/22 66/117/22 64/118/22
f 67/119/23 68/120/23 66/117/23
f 69/121/24 70/122/24 68/123/24
f 71/124/18 67/125/18 63/126/18
f 71/127/25 72/128/25 70/122/25
f 73/129/26 60/110/26 72/130/26
f 72/131/7 59/132/7 64/133/7
f 74/134/19 75/135/19 76/136/19
f 77/137/20 78/138/20 75/139/20
f 79/140/21 80/141/21 78/138/21
f 81/142/22 82/143/22 80/144/22
f 83/145/23 84/146/23 82/143/23
f 85/147/24 86/148/24 84/149/24
f 87/150/18 83/151/18 79/152/18
f 86/148/25 88/153/25 89/154/25
f 88/155/26 76/136/26 89/156/26
f 84/157/7 86/158/7 89/159/7
f 90/160/19 91/161/19 92/162/19
f 93/163/20 94/164/20 91/165/20
f 95/166/21 96/167/21 94/164/21
f 97/168/22 98/169/22 96/170/22
f 99/171/23 100/172/23 98/169/23
f 101/173/24 102/174/24 100/175/24
f 103/176/18 99/177/18 95/178/18
f 103/179/25 104/180/25 102/174/25
f 105/181/26 92/162/26 104/182/26
f 104/183/7 91/184/7 96/185/7
f 1/1/1 4/4/1 2/2/1
f 4/4/2 6/6/2 5/5/2
f 6/6/3 8/186/3 7/7/3
f 8/8/4 10/187/4 9/9/4
f 10/11/5 12/14/5 11/12/5
f 12/14/6 14/16/6 13/15/6
f 14/16/7 16/18/7 15/17/7
f 16/18/8 18/20/8 17/19/8
f 18/20/9 20/188/9 19/21/9
f 20/22/10 22/189/10 21/23/10
f 22/25/11 106/190/11 23/26/11
f 6/30/12 4/191/12 12/192/12
f 4/191/12 1/193/12 14/194/12
f 12/192/12 4/191/12 14/194/12
f 1/193/12 24/195/12 16/196/12
f 24/195/12 106/197/12 18/198/12
f 16/196/12 24/195/12 18/198/12
f 106/197/12 22/199/12 20/200/12
f 20/200/12 18/198/12 106/197/12
f 16/196/12 14/194/12 1/193/12
f 12/192/12 10/28/12 6/30/12
f 23/26/13 106/190/13 24/31/13
f 24/31/14 1/1/14 3/3/14
f 25/34/15 3/201/15 15/202/15
f 3/201/15 2/203/15 13/204/15
f 15/202/15 3/201/15 13/204/15
f 2/203/15 5/205/15 11/206/15
f 5/205/15 7/207/15 9/208/15
f 11/206/15 5/205/15 9/208/15
f 11/206/15 13/204/15 2/203/15
f 15/202/15 17/35/15 25/34/15
f 17/35/15 19/209/15 23/33/15
f 19/209/15 21/210/15 23/33/15
f 26/36/16 29/211/16 27/37/16
f 29/39/15 31/212/15 30/40/15
f 31/42/17 33/213/17 32/43/17
f 33/45/12 26/214/12 28/46/12
f 30/48/7 32/215/7 28/49/7
f 29/51/18 26/216/18 33/52/18
f 34/54/16 37/217/16 35/55/16
f 37/57/15 41/218/15 38/58/15
f 38/60/17 41/219/17 39/61/17
f 39/63/12 34/220/12 36/64/12
f 38/66/7 40/221/7 36/67/7
f 37/69/18 34/222/18 39/70/18
f 42/72/16 45/223/16 43/73/16
f 45/75/15 47/224/15 46/76/15
f 47/78/17 49/225/17 48/79/17
f 49/81/12 42/226/12 44/82/12
f 46/84/7 48/227/7 44/85/7
f 45/87/18 42/228/18 49/88/18
f 50/90/16 53/229/16 51/91/16
f 53/93/15 55/230/15 54/94/15
f 55/96/17 57/231/17 56/97/17
f 57/99/12 50/232/12 52/100/12
f 54/102/7 56/233/7 52/103/7
f 53/105/18 50/234/18 57/106/18
f 58/108/19 61/235/19 59/109/19
f 61/111/20 63/114/20 62/112/20
f 63/114/21 65/236/21 64/115/21
f 65/116/22 67/119/22 66/117/22
f 67/119/23 69/237/23 68/120/23
f 69/121/24 71/127/24 70/122/24
f 63/126/18 61/238/18 58/239/18
f 58/239/18 73/240/18 63/126/18
f 73/240/18 71/124/18 63/126/18
f 71/124/18 69/241/18 67/125/18
f 67/125/18 65/242/18 63/126/18
f 71/127/25 73/243/25 72/128/25
f 73/129/26 58/108/26 60/110/26
f 72/131/7 60/244/7 59/132/7
f 59/132/7 62/245/7 64/133/7
f 64/133/7 66/246/7 72/131/7
f 66/246/7 68/247/7 72/131/7
f 68/247/7 70/248/7 72/131/7
f 74/134/19 77/249/19 75/135/19
f 77/137/20 79/140/20 78/138/20
f 79/140/21 81/250/21 80/141/21
f 81/142/22 83/145/22 82/143/22
f 83/145/23 85/251/23 84/146/23
f 85/147/24 87/252/24 86/148/24
f 79/152/18 77/253/18 74/254/18
f 74/254/18 88/255/18 79/152/18
f 88/255/18 87/150/18 79/152/18
f 87/150/18 85/256/18 83/151/18
f 83/151/18 81/257/18 79/152/18
f 86/148/25 87/252/25 88/153/25
f 88/155/26 74/134/26 76/136/26
f 89/159/7 76/258/7 75/259/7
f 75/259/7 78/260/7 89/159/7
f 78/260/7 80/261/7 89/159/7
f 80/261/7 82/262/7 89/159/7
f 82/262/7 84/157/7 89/159/7
f 90/160/19 93/263/19 91/161/19
f 93/163/20 95/166/20 94/164/20
f 95/166/21 97/264/21 96/167/21
f 97/168/22 99/171/22 98/169/22
f 99/171/23 101/265/23 100/172/23
f 101/173/24 103/179/24 102/174/24
f 95/178/18 93/266/18 90/267/18
f 90/267/18 105/268/18 95/178/18
f 105/268/18 103/176/18 95/178/18
f 103/176/18 101/269/18 99/177/18
f 99/177/18 97/270/18 95/178/18
f 103/179/25 105/271/25 104/180/25
f 105/181/26 90/160/26 92/162/26
f 104/183/7 92/272/7 91/184/7
f 91/184/7 94/273/7 96/185/7
f 96/185/7 98/274/7 104/183/7
f 98/274/7 100/275/7 104/183/7
f 100/275/7 102/276/7 104/183/7
