# Blender v2.79 (sub 6) OBJ File: ''
# www.blender.org
o MURO_LEON.001_Cube.156
v 0.166856 7.480814 -6.581220
v 0.163756 8.803264 6.577940
v 0.163756 7.453094 6.577940
v -0.166822 7.453094 6.577940
v -0.166822 8.803264 6.577940
v -0.163721 7.480814 -6.581220
v -0.163721 8.830983 -6.581220
v -0.188921 -8.583374 -6.581221
v -0.192021 -8.611094 6.577939
v 0.180669 8.803264 6.577940
v -0.183734 8.803264 6.577940
v 0.188956 -8.611094 6.577939
v 0.192056 -8.583374 -6.581221
v -0.183735 8.803264 -6.589818
v 0.141789 8.958679 -6.589818
v 0.180669 8.803264 -6.589818
v 0.166856 8.830983 -6.581220
v -0.144855 8.958679 6.577940
v 0.164985 8.958679 6.577940
v -0.168050 8.958679 6.577940
v -0.144856 8.958679 -6.589818
v 0.141790 8.958679 6.577940
v -0.168050 9.049561 -6.589818
v -0.168050 8.958679 -6.589818
v 0.164984 8.958679 -6.589818
v 0.164985 9.049561 6.577940
v -0.168050 9.049561 6.577940
v 0.164984 9.049561 -6.589818
vt 0.469828 0.051188
vt 0.939655 0.001047
vt 0.939655 0.052235
vt 0.954157 0.000000
vt 0.965959 0.051193
vt 0.954157 0.051193
vt 0.469828 0.661460
vt 0.000000 0.611229
vt 0.469828 0.610176
vt 0.940554 0.000000
vt 0.952357 0.051284
vt 0.940554 0.051284
vt 0.000000 0.001053
vt 0.469828 0.000000
vt 0.000000 0.000000
vt 0.000000 0.000000
vt 0.000000 0.000000
vt 0.966859 0.000003
vt 0.980461 0.499835
vt 0.966859 0.499839
vt 0.939655 0.661463
vt 0.953257 0.660284
vt 0.469828 0.660273
vt 0.475376 0.675162
vt 0.469828 0.662797
vt 0.475376 0.661320
vt 0.997400 0.999673
vt 0.998344 0.499839
vt 0.998344 0.999999
vt 0.981176 0.000000
vt 0.981669 0.499835
vt 0.981065 0.499835
vt 0.487399 0.662080
vt 0.488405 0.675162
vt 0.487399 0.674637
vt 0.000000 0.000000
vt 0.000000 0.000000
vt 0.000000 0.000000
vt 0.480915 0.675161
vt 0.475376 0.662797
vt 0.480915 0.661320
vt 0.989929 1.000000
vt 0.984373 0.499839
vt 0.989929 0.499839
vt 0.978750 0.499839
vt 0.984373 0.999999
vt 0.978750 0.999999
vt 0.989929 0.499839
vt 0.993174 1.000000
vt 0.989929 1.000000
vt 0.998344 0.499839
vt 0.999172 0.999999
vt 0.998344 0.999999
vt 1.000000 0.999999
vt 0.999172 0.499839
vt 1.000000 0.499839
vt 0.000000 0.000000
vt 0.000000 0.000000
vt 0.000000 0.000000
vt 0.978750 0.499839
vt 0.966859 1.000000
vt 0.966859 0.499839
vt 0.993174 0.499839
vt 0.996412 0.999999
vt 0.993174 0.999999
vt 0.480915 0.661320
vt 0.484160 0.673970
vt 0.480915 0.673970
vt 0.484160 0.661320
vt 0.487399 0.673970
vt 0.484160 0.673970
vt 0.469828 0.000000
vt 0.965959 0.000000
vt 0.000000 0.662513
vt 0.952357 0.000000
vt 0.000000 0.000000
vt 0.980461 0.000000
vt 0.953257 0.661463
vt 0.966859 0.660284
vt 0.939655 0.661320
vt 0.469828 0.673685
vt 0.981065 0.000000
vt 0.981065 0.499835
vt 0.980461 0.499835
vt 0.996412 0.500165
vt 0.997400 0.499839
vt 0.997400 1.000000
vt 0.488405 0.661320
vt 0.000000 0.000000
vt 0.475376 0.673685
vt 0.984373 1.000000
vt 0.984373 0.499839
vt 0.993174 0.499839
vt 0.999172 0.499839
vt 0.999172 0.999999
vt 0.000000 0.000000
vt 0.978750 1.000000
vt 0.996412 0.499839
vt 0.484160 0.661320
vt 0.487399 0.661320
vn 1.0000 0.0002 0.0002
vn 1.0000 0.0000 0.0002
vn 1.0000 0.0015 0.0001
vn -0.0000 -0.0000 1.0000
vn -1.0000 0.0000 -0.0002
vn -1.0000 0.0001 -0.0001
vn -1.0000 0.0015 -0.0001
vn 0.0000 0.0000 -1.0000
vn -1.0000 0.0016 -0.0002
vn 0.0000 -1.0000 -0.0021
vn 1.0000 0.0016 0.0002
vn 0.8108 -0.5854 -0.0000
vn 0.0000 -0.2963 0.9551
vn 0.0000 -0.2962 0.9551
vn 0.0000 -0.0001 -1.0000
vn -0.9701 0.2427 0.0000
vn 0.9701 0.2427 -0.0000
vn -1.0000 0.0000 0.0000
vn 0.0000 -1.0000 0.0000
vn -0.0000 -0.0001 1.0000
vn 0.0000 1.0000 0.0000
vn 1.0000 0.0000 -0.0000
vn -0.8950 -0.4460 0.0000
s 1
f 1/1/1 2/2/2 3/3/3
f 2/4/4 4/5/4 3/6/4
f 5/7/5 6/8/6 4/9/7
f 7/10/8 1/11/8 6/12/8
f 4/9/7 8/13/9 9/14/9
f 5/15/4 10/16/4 11/17/4
f 12/18/10 8/19/10 13/20/10
f 1/11/8 8/21/8 6/12/8
f 4/5/4 12/22/4 3/6/4
f 3/3/3 13/23/11 1/1/1
f 14/24/8 15/25/8 16/26/8
f 7/27/12 11/28/12 14/29/12
f 17/30/10 10/31/10 2/32/10
f 7/33/13 16/34/14 17/35/14
f 18/36/8 19/37/15 20/38/8
f 10/39/4 18/40/4 11/41/4
f 11/42/16 21/43/16 14/44/16
f 16/45/17 22/46/17 10/47/17
f 20/48/18 23/49/18 24/50/18
f 18/51/19 24/52/19 21/53/19
f 15/54/19 19/55/19 22/56/19
f 15/57/4 24/58/20 25/59/4
f 26/60/21 23/61/21 27/62/21
f 25/63/22 26/64/22 19/65/22
f 24/66/8 28/67/8 25/68/8
f 19/69/4 27/70/4 20/71/4
f 1/1/1 17/72/2 2/2/2
f 2/4/4 5/73/4 4/5/4
f 5/7/5 7/74/5 6/8/6
f 7/10/8 17/75/8 1/11/8
f 4/9/7 6/8/6 8/13/9
f 5/15/4 2/76/4 10/16/4
f 12/18/10 9/77/10 8/19/10
f 1/11/8 13/78/8 8/21/8
f 4/5/4 9/79/4 12/22/4
f 3/3/3 12/80/11 13/23/11
f 14/24/8 21/81/8 15/25/8
f 7/82/10 5/83/10 11/84/10
f 17/85/23 16/86/23 10/87/23
f 7/33/13 14/88/13 16/34/14
f 18/36/8 22/89/8 19/37/15
f 10/39/4 22/90/4 18/40/4
f 11/42/16 18/91/16 21/43/16
f 16/45/17 15/92/17 22/46/17
f 20/48/18 27/93/18 23/49/18
f 18/51/19 20/94/19 24/52/19
f 15/54/19 25/95/19 19/55/19
f 15/57/4 21/96/4 24/58/20
f 26/60/21 28/97/21 23/61/21
f 25/63/22 28/98/22 26/64/22
f 24/66/8 23/99/8 28/67/8
f 19/69/4 26/100/4 27/70/4
