# Blender v2.79 (sub 6) OBJ File: ''
# www.blender.org
o Cube.013_Cube.064
v 36.655910 5.844362 40.597351
v -36.566101 -5.157728 54.077011
v 44.198143 -5.157728 49.030247
v 30.533699 5.844366 -43.100964
v -30.244251 5.844362 44.777782
v -35.899796 5.844366 -42.654125
v -43.393677 -5.157723 -51.473885
v 36.807194 -5.157723 -52.013325
vt 0.478867 0.698866
vt 0.739531 0.000000
vt 0.739531 0.765062
vt 0.239443 1.000000
vt 0.000000 0.087785
vt 0.239443 0.000000
vt 0.239443 0.000000
vt 0.478867 0.873136
vt 0.239443 0.957853
vt 0.739531 0.687976
vt 1.000000 0.000000
vt 1.000000 0.758264
vt 0.478867 0.065136
vt 0.000000 0.916123
vt 0.478867 0.079709
vt 0.739531 0.059877
vn 0.0485 0.6284 0.7764
vn -0.8451 0.5318 0.0547
vn 0.8447 0.5317 -0.0618
vn -0.0052 0.6276 -0.7785
s 1
f 1/1/1 2/2/1 3/3/1
f 2/4/2 6/5/2 7/6/2
f 8/7/3 1/8/3 3/9/3
f 6/10/4 8/11/4 7/12/4
f 1/1/1 5/13/1 2/2/1
f 2/4/2 5/14/2 6/5/2
f 8/7/3 4/15/3 1/8/3
f 6/10/4 4/16/4 8/11/4
