# Blender v2.79 (sub 6) OBJ File: ''
# www.blender.org
o Acera_IslaBus.001_Cube.011
v 1.430895 -0.049473 26.126215
v 1.145216 -0.049473 31.328045
v 1.145216 -0.049473 26.126215
v 1.145216 -0.033791 -27.145277
v 1.430895 -0.049471 -27.140696
v 1.145216 -0.049471 -27.140696
v -1.159577 -0.033793 31.328045
v -1.443385 -0.049473 31.328045
v -1.159577 -0.049473 31.328045
v -1.443385 -0.049473 26.126215
v -1.443385 -0.033793 31.328045
v -1.443385 -0.033793 26.126215
v 1.430895 -0.033793 31.328045
v 1.145216 0.051073 31.328045
v 1.145216 -0.033793 31.328045
v 1.430895 -0.033793 26.126215
v 1.430895 -0.049473 31.328045
v 1.430895 -0.033793 18.996822
v 1.430895 -0.049473 24.081135
v 1.430895 -0.049473 18.996822
v -1.443385 -0.033793 18.996822
v -1.159577 -0.033793 24.081135
v -1.159577 -0.033793 18.996822
v -1.443385 -0.049473 18.996822
v -1.443385 -0.033793 24.081135
v 1.145216 -0.049473 24.081135
v 1.145216 -0.049473 18.996822
v 1.430895 -0.033793 24.081135
v 1.145216 -0.033793 18.996822
v -1.159577 0.051073 18.996822
v -1.443385 -0.049473 24.081135
v -1.159577 -0.049473 26.126215
v -1.159577 -0.049473 24.081135
v 1.145216 -0.033793 24.081135
v -1.159577 -0.049473 18.996822
v 1.430895 0.051073 31.328045
v -1.159577 0.051073 31.328045
v -1.159577 -0.033791 -27.145277
v -1.159577 -0.049471 -27.140696
v -1.443385 -0.033791 -27.145277
v -1.443385 -0.049471 -27.140696
v 1.145216 -0.033793 26.126215
v -1.443385 0.051073 18.996822
v -1.443385 0.051073 26.126215
v -1.159577 -0.049473 15.639254
v -1.443385 -0.049473 15.639252
v -1.443385 0.051073 31.328045
v 1.145216 -0.049473 15.639254
v 1.430895 -0.049473 15.639254
v -1.443385 -0.033793 15.639252
v 1.145216 0.051075 -27.145277
v 1.430895 -0.033793 15.639252
v 1.430895 0.051075 -27.145277
v 1.430895 -0.033791 -27.145277
v -1.443385 0.051073 24.081135
v -1.159577 0.051073 24.081135
v -1.159577 0.051073 26.126215
v 1.145216 0.051073 18.996822
v 1.430895 0.051073 24.081135
v 1.430895 0.051073 18.996822
v 1.145216 0.051073 26.126215
v 1.430895 0.051073 26.126215
v -1.159577 0.051073 15.639254
v 1.145216 0.051073 15.639254
v 1.430895 0.051073 15.639252
v -1.443385 0.051075 -27.145277
v -1.159577 0.051075 -27.145277
v 1.145216 0.051073 24.081135
v -1.443385 0.051073 15.639252
v -1.159577 -0.033793 26.126215
vt 0.000000 0.088961
vt 0.024245 0.000000
vt 0.024245 0.088961
vt 0.747502 0.126811
vt 0.748863 0.121926
vt 0.748863 0.126811
vt 0.739001 0.126779
vt 0.740331 0.121926
vt 0.740331 0.126779
vt 0.984264 0.911039
vt 0.982934 1.000000
vt 0.982934 0.911039
vt 0.739001 0.171081
vt 0.731798 0.166195
vt 0.739001 0.166195
vt 0.991467 0.088961
vt 0.992798 0.000000
vt 0.992798 0.088961
vt 0.991467 0.210886
vt 0.992798 0.123935
vt 0.992798 0.210886
vt 0.731798 0.121926
vt 0.755884 0.034975
vt 0.755884 0.121926
vt 0.984264 0.789114
vt 0.982934 0.876065
vt 0.982933 0.789114
vt 0.000000 0.210886
vt 0.024245 0.123935
vt 0.024245 0.210886
vt 0.991467 0.123935
vt 0.748863 0.121926
vt 0.756065 0.161342
vt 0.748863 0.161342
vt 0.984264 0.876065
vt 0.000000 0.123935
vt 0.219847 0.088961
vt 0.219847 0.123935
vt 0.951486 0.034975
vt 0.975731 0.000000
vt 0.975731 0.034975
vt 0.219847 0.210886
vt 0.984264 0.000000
vt 0.991467 0.000000
vt 0.731798 0.126779
vt 0.740331 0.166195
vt 0.740331 0.171081
vt 0.747502 0.166227
vt 0.748863 0.166227
vt 0.219846 0.000000
vt 0.243933 0.000000
vt 0.243933 0.088961
vt 0.747502 0.171081
vt 0.748863 0.171081
vt 0.243933 0.123935
vt 0.243933 0.210886
vt 0.951486 0.000000
vt 0.951486 0.121926
vt 0.756065 0.166195
vt 0.748863 0.166195
vt 0.975731 0.911039
vt 0.219847 0.268307
vt 0.243933 0.268307
vt 0.731798 0.121926
vt 0.739001 0.121926
vt 0.024245 0.268307
vt 0.000000 0.268307
vt 0.984264 0.731693
vt 0.982933 0.731693
vt 0.740331 0.126811
vt 0.992798 0.268307
vt 0.992797 0.999922
vt 0.991467 0.268307
vt 0.740331 0.121926
vt 0.747502 0.121926
vt 0.984264 0.000078
vt 0.982933 0.000000
vt 0.000000 0.999922
vt 0.024245 0.999922
vt 0.219847 0.999922
vt 0.975731 0.876065
vt 0.243933 0.999922
vt 0.502238 0.128789
vt 0.495068 0.123935
vt 0.502238 0.123935
vt 0.731798 0.034975
vt 0.707712 0.123935
vt 0.707712 0.034975
vt 0.731798 0.000000
vt 0.707712 0.000000
vt 0.463621 0.086951
vt 0.487866 0.000000
vt 0.487866 0.086951
vt 0.512111 0.034975
vt 0.487866 0.123935
vt 0.487866 0.034975
vt 0.512111 0.123935
vt 0.268019 0.144372
vt 0.463621 0.144372
vt 0.487866 0.144372
vt 0.243933 0.086951
vt 0.268019 0.086951
vt 0.243933 0.876065
vt 0.268019 0.876065
vt 0.463621 0.876065
vt 0.487865 0.876065
vt 1.000000 0.086951
vt 0.992798 0.000000
vt 1.000000 0.000000
vt 0.487866 0.123935
vt 0.495068 0.128821
vt 0.487866 0.128821
vt 0.975731 0.000000
vt 0.984264 0.123935
vt 0.763236 0.126811
vt 0.756065 0.121926
vt 0.763236 0.121926
vt 0.975731 0.731693
vt 0.740331 0.166227
vt 0.991467 1.000000
vt 0.984264 0.268307
vt 0.984264 0.210886
vt 0.763236 0.121926
vt 0.770438 0.156900
vt 0.763236 0.156900
vt 0.763236 0.166227
vt 0.756066 0.126811
vt 0.000000 0.000000
vt 0.984264 1.000000
vt 0.731798 0.171081
vt 0.731798 0.034975
vt 0.756065 0.121926
vt 0.984264 0.088961
vt 0.755884 0.000000
vt 0.975731 1.000000
vt 0.495068 0.128789
vt 0.731798 0.123935
vt 0.463621 0.000000
vt 0.243933 0.144372
vt 0.992798 0.086951
vt 0.495068 0.123935
vt 0.975731 0.789114
vt 0.740331 0.171081
vt 0.984264 1.000000
vt 0.770438 0.121926
vt 0.756066 0.166227
vn 0.0000 -1.0000 -0.0000
vn 0.0000 -0.2805 -0.9599
vn 0.0000 0.0000 1.0000
vn -1.0000 0.0000 0.0000
vn 1.0000 0.0000 0.0000
vn 0.0000 1.0000 0.0000
vn 0.0000 0.0000 -1.0000
s 1
f 1/1/1 2/2/1 3/3/1
f 4/4/2 5/5/2 6/6/2
f 7/7/3 8/8/3 9/9/3
f 10/10/4 11/11/4 12/12/4
f 13/13/3 14/14/3 15/15/3
f 16/16/5 17/17/5 1/18/5
f 18/19/5 19/20/5 20/21/5
f 21/22/6 22/23/6 23/24/6
f 24/25/4 25/26/4 21/27/4
f 20/28/1 26/29/1 27/30/1
f 28/31/5 1/18/5 19/20/5
f 29/32/3 30/33/3 23/34/3
f 31/35/4 12/12/4 25/26/4
f 19/36/1 3/3/1 26/29/1
f 26/29/1 32/37/1 33/38/1
f 34/39/6 16/40/6 28/41/6
f 27/30/1 33/38/1 35/42/1
f 16/16/5 36/43/5 13/44/5
f 15/15/3 37/45/3 7/7/3
f 13/13/3 2/46/3 17/47/3
f 38/48/2 6/6/2 39/49/2
f 3/3/1 9/50/1 32/37/1
f 32/37/1 8/51/1 10/52/1
f 40/53/2 39/49/2 41/54/2
f 35/42/1 31/55/1 24/56/1
f 33/38/1 10/52/1 31/55/1
f 22/23/6 42/57/6 34/39/6
f 23/24/6 34/39/6 29/58/6
f 23/34/3 43/59/3 21/60/3
f 15/15/3 9/9/3 2/46/3
f 11/11/4 44/61/4 12/12/4
f 45/62/1 24/56/1 46/63/1
f 7/7/3 47/64/3 11/65/3
f 48/66/1 35/42/1 45/62/1
f 49/67/1 27/30/1 48/66/1
f 46/68/4 21/27/4 50/69/4
f 38/48/7 51/70/7 4/4/7
f 49/71/5 18/19/5 20/21/5
f 5/72/5 52/73/5 49/71/5
f 4/4/7 53/74/7 54/75/7
f 41/76/4 50/69/4 40/77/4
f 5/78/1 48/66/1 6/79/1
f 6/79/1 45/62/1 39/80/1
f 12/12/4 55/81/4 25/26/4
f 39/80/1 46/63/1 41/82/1
f 25/83/7 56/84/7 22/85/7
f 44/86/6 37/87/6 57/88/6
f 55/89/6 57/88/6 56/90/6
f 58/91/6 59/92/6 60/93/6
f 61/94/6 36/95/6 62/96/6
f 57/88/6 14/97/6 61/94/6
f 63/98/6 58/91/6 64/99/6
f 64/99/6 60/93/6 65/100/6
f 63/98/6 43/101/6 30/102/6
f 66/103/6 63/98/6 67/104/6
f 51/105/6 65/100/6 53/106/6
f 67/104/6 64/99/6 51/105/6
f 34/107/4 58/108/4 29/109/4
f 28/110/3 68/111/3 34/112/3
f 50/69/4 66/113/4 40/77/4
f 18/19/5 59/114/5 28/31/5
f 42/115/7 62/116/7 16/117/7
f 21/27/4 69/118/4 50/69/4
f 40/53/7 67/119/7 38/48/7
f 54/120/5 65/121/5 52/73/5
f 52/73/5 60/122/5 18/19/5
f 22/123/5 57/124/5 70/125/5
f 70/126/7 61/127/7 42/115/7
f 1/1/1 17/128/1 2/2/1
f 4/4/2 54/75/2 5/5/2
f 7/7/3 11/65/3 8/8/3
f 10/10/4 8/129/4 11/11/4
f 13/13/3 36/130/3 14/14/3
f 16/16/5 13/44/5 17/17/5
f 18/19/5 28/31/5 19/20/5
f 21/22/6 25/131/6 22/23/6
f 24/25/4 31/35/4 25/26/4
f 20/28/1 19/36/1 26/29/1
f 28/31/5 16/16/5 1/18/5
f 29/32/3 58/132/3 30/33/3
f 31/35/4 10/10/4 12/12/4
f 19/36/1 1/1/1 3/3/1
f 26/29/1 3/3/1 32/37/1
f 34/39/6 42/57/6 16/40/6
f 27/30/1 26/29/1 33/38/1
f 16/16/5 62/133/5 36/43/5
f 15/15/3 14/14/3 37/45/3
f 13/13/3 15/15/3 2/46/3
f 38/48/2 4/4/2 6/6/2
f 3/3/1 2/2/1 9/50/1
f 32/37/1 9/50/1 8/51/1
f 40/53/2 38/48/2 39/49/2
f 35/42/1 33/38/1 31/55/1
f 33/38/1 32/37/1 10/52/1
f 22/23/6 70/134/6 42/57/6
f 23/24/6 22/23/6 34/39/6
f 23/34/3 30/33/3 43/59/3
f 15/15/3 7/7/3 9/9/3
f 11/11/4 47/135/4 44/61/4
f 45/62/1 35/42/1 24/56/1
f 7/7/3 37/45/3 47/64/3
f 48/66/1 27/30/1 35/42/1
f 49/67/1 20/28/1 27/30/1
f 46/68/4 24/25/4 21/27/4
f 38/48/7 67/119/7 51/70/7
f 49/71/5 52/73/5 18/19/5
f 5/72/5 54/120/5 52/73/5
f 4/4/7 51/70/7 53/74/7
f 41/76/4 46/68/4 50/69/4
f 5/78/1 49/67/1 48/66/1
f 6/79/1 48/66/1 45/62/1
f 12/12/4 44/61/4 55/81/4
f 39/80/1 45/62/1 46/63/1
f 25/83/7 55/136/7 56/84/7
f 44/86/6 47/137/6 37/87/6
f 55/89/6 44/86/6 57/88/6
f 58/91/6 68/138/6 59/92/6
f 61/94/6 14/97/6 36/95/6
f 57/88/6 37/87/6 14/97/6
f 63/98/6 30/102/6 58/91/6
f 64/99/6 58/91/6 60/93/6
f 63/98/6 69/139/6 43/101/6
f 66/103/6 69/139/6 63/98/6
f 51/105/6 64/99/6 65/100/6
f 67/104/6 63/98/6 64/99/6
f 34/107/4 68/140/4 58/108/4
f 28/110/3 59/141/3 68/111/3
f 50/69/4 69/118/4 66/113/4
f 18/19/5 60/122/5 59/114/5
f 42/115/7 61/127/7 62/116/7
f 21/27/4 43/142/4 69/118/4
f 40/53/7 66/143/7 67/119/7
f 54/120/5 53/144/5 65/121/5
f 52/73/5 65/121/5 60/122/5
f 22/123/5 56/145/5 57/124/5
f 70/126/7 57/146/7 61/127/7
