# Blender v2.79 (sub 6) OBJ File: ''
# www.blender.org
o ACERA_ZERO.007_Cube.177
v -102.974457 -0.062039 35.043251
v -58.279892 0.062039 -47.789104
v -58.279892 -0.062035 -47.789104
v 0.325357 -0.062034 -68.728485
v 65.266785 0.062040 -67.623337
v 65.266785 -0.062034 -67.623337
v -51.914616 0.062039 -56.598442
v -43.486214 0.062040 -63.460152
v -51.914616 -0.062035 -56.598442
v -33.569069 0.062040 -67.906624
v -43.486214 -0.062034 -63.460152
v -22.838993 0.062040 -69.634842
v -33.569069 -0.062034 -67.906624
v -11.640644 0.062040 -69.243515
v -22.838993 -0.062034 -69.634842
v 0.325357 0.062040 -68.728485
v -11.640644 -0.062034 -69.243515
v 29.979660 0.062033 88.408798
v 66.599075 -0.062034 -67.083115
v -102.974457 0.062035 35.043251
v 83.112381 -0.062037 -10.061977
v 88.160538 0.062038 -26.652542
v 83.112381 0.062037 -10.061970
v 90.037468 -0.062035 -43.314827
v 88.160538 -0.062036 -26.652538
v 81.060318 -0.062034 -57.512154
v 90.037468 0.062039 -43.314835
v 66.599083 0.062040 -67.083115
v 81.060318 0.062040 -57.512161
v 29.979660 -0.062041 88.408798
vt 0.999131 0.000000
vt 1.000000 0.543985
vt 0.999131 0.543985
vt 0.999130 0.546100
vt 0.998261 0.184552
vt 0.999129 0.184552
vt 1.000000 0.607706
vt 1.000000 0.669972
vt 0.999131 0.607706
vt 1.000000 0.726538
vt 0.999131 0.669972
vt 0.998262 0.676064
vt 0.999131 0.732070
vt 0.998263 0.732070
vt 0.998262 0.613327
vt 0.999131 0.676064
vt 0.998262 0.546100
vt 0.999131 0.613327
vt 0.996523 0.447650
vt 0.000000 0.905107
vt 0.705069 0.176189
vt 0.999129 0.176124
vt 0.997392 0.840747
vt 0.998260 0.000000
vt 0.998260 0.840747
vt 0.997391 0.644307
vt 0.996523 0.746075
vt 0.996523 0.644307
vt 0.997392 0.842731
vt 0.997391 0.746075
vt 0.999130 0.077404
vt 0.998263 0.000000
vt 0.999131 0.000000
vt 0.998261 0.176124
vt 0.998261 0.077404
vt 0.997392 0.000000
vt 0.996523 0.000000
vt 1.000000 0.000000
vt 0.999131 0.726538
vt 0.291292 0.000000
vt 0.301297 0.000923
vt 0.024051 0.148723
vt 0.000000 0.248475
vt 0.780503 0.206875
vt 0.850796 0.236061
vt 0.911158 0.274888
vt 0.957475 0.325489
vt 0.986592 0.384415
vt 0.996523 1.000000
vt 0.067878 0.057438
vt 0.170381 0.009131
vt 0.996523 0.842731
vn -0.8801 0.0000 -0.4749
vn 0.0170 0.0000 -0.9999
vn -0.8105 0.0000 -0.5857
vn -0.6313 0.0000 -0.7755
vn -0.4091 0.0000 -0.9125
vn -0.1590 0.0000 -0.9873
vn 0.0349 0.0000 -0.9994
vn 0.0430 0.0000 -0.9991
vn 0.0390 0.0000 -0.9992
vn -0.0000 1.0000 0.0000
vn 0.3758 -0.0000 -0.9267
vn -0.3725 0.0000 0.9280
vn 0.9567 -0.0001 0.2911
vn 0.9567 -0.0000 0.2911
vn 0.9937 0.0000 0.1119
vn 0.8452 0.0000 -0.5344
vn 0.5519 -0.0001 -0.8339
vn 0.5519 -0.0000 -0.8339
vn 0.8801 0.0000 0.4749
vn 0.8452 -0.0001 -0.5344
s 1
f 1/1/1 2/2/1 3/3/1
f 4/4/2 5/5/2 6/6/2
f 7/7/3 3/3/3 2/2/3
f 8/8/4 9/9/4 7/7/4
f 10/10/5 11/11/5 8/8/5
f 12/12/6 13/13/6 10/14/6
f 14/15/7 15/16/7 12/12/7
f 16/17/8 17/18/8 14/15/9
f 2/19/10 18/20/10 16/21/10
f 5/5/11 19/22/11 6/6/11
f 1/23/12 18/24/12 20/25/12
f 21/26/13 22/27/14 23/28/13
f 24/29/15 22/27/15 25/30/15
f 26/31/16 27/32/16 24/33/16
f 26/31/17 28/34/18 29/35/17
f 30/36/19 23/28/19 18/37/19
f 1/1/1 20/38/1 2/2/1
f 4/4/2 16/17/2 5/5/2
f 7/7/3 9/9/3 3/3/3
f 8/8/4 11/11/4 9/9/4
f 10/10/5 13/39/5 11/11/5
f 12/12/6 15/16/6 13/13/6
f 14/15/9 17/18/8 15/16/7
f 16/17/8 4/4/8 17/18/8
f 28/40/10 5/41/10 22/42/10
f 5/41/10 16/21/10 23/43/10
f 16/21/10 14/44/10 2/19/10
f 14/44/10 12/45/10 2/19/10
f 12/45/10 10/46/10 8/47/10
f 8/47/10 7/48/10 2/19/10
f 2/19/10 20/49/10 18/20/10
f 18/20/10 23/43/10 16/21/10
f 23/43/10 22/42/10 5/41/10
f 22/42/10 27/50/10 29/51/10
f 29/51/10 28/40/10 22/42/10
f 12/45/10 8/47/10 2/19/10
f 5/5/11 28/34/11 19/22/11
f 1/23/12 30/36/12 18/24/12
f 21/26/13 25/30/14 22/27/14
f 24/29/15 27/52/15 22/27/15
f 26/31/20 29/35/20 27/32/20
f 26/31/17 19/22/18 28/34/18
f 30/36/19 21/26/19 23/28/19
