# Blender v2.80 (sub 45) OBJ File: 'AutopistaBackup.blend'
# www.blender.org
o Cylinder.007_Cylinder.030
v 0.012707 -6.547912 2.275351
v 0.012707 5.100340 -6.242995
v 2.011874 -6.547912 3.256509
v 1.457170 5.100340 -5.534077
v 2.839956 -6.547912 5.625234
v 1.991521 5.100340 -4.005568
v 2.011874 -6.547912 7.993958
v 0.012707 -6.547912 8.975117
v -1.986459 -6.547912 7.993958
v -2.814540 -6.547912 5.625234
v -1.966105 5.100340 -4.005570
v -1.986459 -6.547912 3.256509
v -1.431755 5.100340 -5.534076
v 0.012707 -2.823513 -0.745487
v 2.011874 -2.823513 0.235670
v 2.839956 -2.823513 2.604395
v 2.011874 -2.823513 4.973120
v -1.986459 -2.823513 4.973119
v -2.814540 -2.823513 2.604395
v -1.986459 -2.823513 0.235670
v 1.366424 -2.823513 5.289896
v -1.341009 -2.823513 5.289896
v 0.012707 -4.004017 6.911778
v 1.842227 5.100340 -3.816743
v 2.011874 2.373799 0.080990
v -1.986459 2.373799 0.080990
v -1.816808 5.100340 -3.816743
v -0.887619 5.100340 -3.792368
v -1.341010 2.396170 0.379621
v 0.913034 5.100340 -3.792368
v 1.366424 2.396170 0.379621
v 2.011874 5.100340 -6.191321
v 0.012707 5.100340 -7.172479
v 2.839956 5.100340 -3.822596
v -1.986459 5.100340 -6.191321
v -2.814540 5.100340 -3.822596
v 0.921055 5.100340 -2.933637
v -0.895641 5.100340 -2.933637
v -2.137437 5.100340 -2.966212
v 2.162857 5.100340 -2.966212
v 1.457170 9.934391 -9.117908
v 0.012707 9.934391 -9.826826
v 1.991521 9.934391 -7.589400
v -1.431755 9.934391 -9.117908
v -1.966105 9.934391 -7.589402
v 0.913034 9.934391 -7.376201
v -0.887619 9.934391 -7.376201
v -1.816808 9.934391 -7.400575
v 1.842227 9.934391 -7.400575
v -1.374950 10.363142 -9.529503
v -1.909300 10.363142 -8.000997
v 0.069513 10.363142 -10.238419
v 0.969839 10.363142 -7.787795
v -0.830814 10.363142 -7.787795
v -1.760003 10.363142 -7.812170
v 0.146072 10.972201 -10.793143
v -1.298391 10.972201 -10.084228
v 1.046398 10.972201 -8.342520
v -0.754255 10.972201 -8.342520
vt 1.000000 0.750000
vt 0.875000 1.000000
vt 0.875000 0.750000
vt 0.750000 1.000000
vt 0.750000 0.750000
vt 0.625000 0.750000
vt 0.584643 0.941002
vt 0.584643 0.750000
vt 0.500000 0.670759
vt 0.625000 0.500000
vt 0.375000 0.940296
vt 0.250000 1.000000
vt 0.250000 0.750000
vt 0.415357 0.941002
vt 0.375000 0.750000
vt 0.415357 0.750000
vt 0.125000 0.750000
vt 0.125000 1.000000
vt 0.000000 0.750000
vt 0.580294 0.080294
vt 0.510000 0.250000
vt 0.919706 0.080294
vt 0.000000 0.500000
vt 0.125000 0.500000
vt 0.250000 0.500000
vt 0.375000 0.500000
vt 0.750000 0.500000
vt 0.875000 0.500000
vt 1.000000 0.500000
vt 0.433066 0.764767
vt 0.750000 1.000000
vt 0.625000 0.940296
vt 0.172892 0.247666
vt 0.364915 0.057599
vt 0.327108 0.247666
vt 0.389630 1.000000
vt 0.375000 1.000000
vt 0.610370 1.000000
vt 0.125295 0.381050
vt 0.067368 0.286746
vt 0.125295 0.381050
vt 0.250000 0.430192
vt 0.419706 0.419706
vt 0.250000 0.490000
vt 0.432632 0.286746
vt 0.374705 0.381050
vt 0.067368 0.286746
vt 0.080294 0.419706
vt 0.010000 0.250000
vt 0.166370 0.288345
vt 0.333630 0.288345
vt 0.075526 0.281367
vt 0.424474 0.281367
vt 0.490000 0.250000
vt 0.010000 0.250000
vt 0.490000 0.250000
vt 0.333630 0.288345
vt 0.250000 0.430192
vt 0.374705 0.381050
vt 0.075526 0.281367
vt 0.166370 0.288345
vt 0.432632 0.286746
vt 0.424474 0.281367
vt 0.166370 0.288345
vt 0.333630 0.288345
vt 0.067368 0.286746
vt 0.125295 0.381050
vt 0.250000 0.430192
vt 0.125295 0.381050
vt 0.250000 0.430192
vt 0.075526 0.281367
vt 0.166370 0.288345
vt 0.333630 0.288345
vt 1.000000 1.000000
vt 0.500000 0.500000
vt 0.250000 1.000000
vt 0.000000 1.000000
vt 0.580294 0.419706
vt 0.750000 0.490000
vt 0.919706 0.419706
vt 0.990000 0.250000
vt 0.750000 0.010000
vt 0.135085 0.057599
vt 0.625000 1.000000
vn 0.3562 -0.5886 -0.7257
vn 0.9119 -0.2586 -0.3188
vn 0.3366 0.6452 0.6859
vn 0.3562 0.5886 0.7257
vn -0.8460 0.3358 0.4140
vn -0.3366 0.6452 0.6859
vn 0.0000 0.6852 0.7284
vn -0.9119 -0.2586 -0.3188
vn -0.3562 -0.5886 -0.7257
vn 0.0000 -1.0000 0.0000
vn -0.9119 0.2586 0.3188
vn -0.3562 0.5886 0.7257
vn 0.9119 0.2586 0.3188
vn -0.0000 0.8085 0.5885
vn 0.6578 0.5448 0.5201
vn 0.0000 0.7747 0.6323
vn -0.0175 0.7447 0.6672
vn 0.2947 0.7593 0.5801
vn -0.9169 -0.2376 -0.3206
vn 0.0000 1.0000 0.0000
vn 0.0211 0.5954 0.8031
vn -0.3668 -0.5541 -0.7473
vn 0.3668 -0.5541 -0.7473
vn -0.7127 0.4178 0.5635
vn 0.0000 0.5956 0.8033
vn 0.9169 -0.2376 -0.3206
vn 0.7127 0.4178 0.5635
vn -0.0211 0.5954 0.8031
vn 0.0000 0.6925 0.7214
vn 0.8542 -0.4145 -0.3138
vn -0.3504 -0.6062 -0.7140
vn -0.9271 -0.1883 -0.3241
vn -0.6428 0.5731 0.5083
vn -0.0189 0.6937 0.7200
vn -0.3435 -0.6263 -0.6998
vn 0.8617 -0.3966 -0.3166
vn 0.0000 0.6734 0.7393
vn -0.8888 0.3646 0.2777
vn 0.3393 0.6448 0.6850
vn -0.9015 0.2966 0.3152
vn -0.6578 0.5448 0.5201
vn -0.3393 0.6448 0.6850
vn 0.9015 0.2966 0.3152
vn 0.8460 0.3358 0.4140
vn -0.2947 0.7593 0.5801
vn 0.0175 0.7447 0.6672
s off
f 14/1/1 32/2/1 15/3/1
f 15/3/2 34/4/2 16/5/2
f 17/6/3 31/7/3 21/8/3
f 23/9/4 7/10/4 21/8/4
f 26/11/5 36/12/5 19/13/5
f 29/14/6 18/15/6 22/16/6
f 22/16/7 31/7/7 29/14/7
f 36/12/8 20/17/8 19/13/8
f 35/18/9 14/19/9 20/17/9
f 9/20/10 10/21/10 7/22/10
f 20/17/9 1/23/9 12/24/9
f 19/13/8 12/24/8 10/25/8
f 18/15/11 10/25/11 9/26/11
f 22/16/12 18/15/12 9/26/12
f 5/27/13 17/6/13 7/10/13
f 3/28/2 16/5/2 5/27/2
f 1/29/1 15/3/1 3/28/1
f 21/8/14 22/30/14 23/9/14
f 34/4/15 40/31/15 25/32/15
f 38/33/16 31/34/16 37/35/16
f 26/11/17 38/36/17 39/37/17
f 25/32/18 37/38/18 31/7/18
f 13/39/19 45/40/19 44/41/19
f 2/42/20 32/43/20 33/44/20
f 6/45/20 32/43/20 4/46/20
f 11/47/20 35/48/20 36/49/20
f 2/42/20 35/48/20 13/39/20
f 28/50/20 37/35/20 30/51/20
f 27/52/20 38/33/20 28/50/20
f 24/53/20 37/35/20 40/54/20
f 27/52/20 36/49/20 39/55/20
f 24/53/20 34/56/20 6/45/20
f 24/53/21 46/57/21 30/51/21
f 2/42/22 44/41/22 42/58/22
f 2/42/23 41/59/23 4/46/23
f 11/47/24 48/60/24 45/40/24
f 30/51/25 47/61/25 28/50/25
f 4/46/26 43/62/26 6/45/26
f 6/45/27 49/63/27 24/53/27
f 27/52/28 47/61/28 48/60/28
f 46/57/29 54/64/29 47/61/29
f 42/58/30 53/65/30 46/57/30
f 46/57/20 43/62/20 41/59/20
f 51/66/20 54/64/20 50/67/20
f 52/68/31 57/69/31 56/70/31
f 44/41/32 51/66/32 50/67/32
f 45/40/33 55/71/33 51/66/33
f 47/61/34 55/71/34 48/60/34
f 42/58/35 50/67/35 52/68/35
f 59/72/20 56/70/20 57/69/20
f 52/68/36 58/73/36 53/65/36
f 53/65/37 59/72/37 54/64/37
f 50/67/38 59/72/38 57/69/38
f 14/1/1 33/74/1 32/2/1
f 15/3/2 32/2/2 34/4/2
f 17/6/39 25/32/39 31/7/39
f 8/75/4 7/10/4 23/9/4
f 7/10/4 17/6/4 21/8/4
f 19/13/40 18/15/40 26/11/40
f 26/11/41 39/76/41 36/12/41
f 29/14/42 26/11/42 18/15/42
f 22/16/7 21/8/7 31/7/7
f 36/12/8 35/18/8 20/17/8
f 35/18/9 33/77/9 14/19/9
f 12/78/10 1/79/10 3/80/10
f 3/80/10 5/81/10 12/78/10
f 5/81/10 7/22/10 10/21/10
f 12/78/10 5/81/10 10/21/10
f 7/22/10 8/82/10 9/20/10
f 20/17/9 14/19/9 1/23/9
f 19/13/8 20/17/8 12/24/8
f 18/15/11 19/13/11 10/25/11
f 9/26/12 8/75/12 23/9/12
f 23/9/12 22/16/12 9/26/12
f 5/27/13 16/5/13 17/6/13
f 3/28/2 15/3/2 16/5/2
f 1/29/1 14/1/1 15/3/1
f 17/6/43 16/5/43 25/32/43
f 16/5/44 34/4/44 25/32/44
f 38/33/16 29/83/16 31/34/16
f 26/11/45 29/14/45 38/36/45
f 25/32/46 40/84/46 37/38/46
f 13/39/19 11/47/19 45/40/19
f 2/42/20 4/46/20 32/43/20
f 6/45/20 34/56/20 32/43/20
f 11/47/20 13/39/20 35/48/20
f 2/42/20 33/44/20 35/48/20
f 28/50/20 38/33/20 37/35/20
f 27/52/20 39/55/20 38/33/20
f 24/53/20 30/51/20 37/35/20
f 27/52/20 11/47/20 36/49/20
f 24/53/20 40/54/20 34/56/20
f 24/53/21 49/63/21 46/57/21
f 2/42/22 13/39/22 44/41/22
f 2/42/23 42/58/23 41/59/23
f 11/47/24 27/52/24 48/60/24
f 30/51/25 46/57/25 47/61/25
f 4/46/26 41/59/26 43/62/26
f 6/45/27 43/62/27 49/63/27
f 27/52/28 28/50/28 47/61/28
f 46/57/29 53/65/29 54/64/29
f 42/58/30 52/68/30 53/65/30
f 41/59/20 42/58/20 46/57/20
f 46/57/20 49/63/20 43/62/20
f 51/66/20 55/71/20 54/64/20
f 52/68/31 50/67/31 57/69/31
f 44/41/32 45/40/32 51/66/32
f 45/40/33 48/60/33 55/71/33
f 47/61/34 54/64/34 55/71/34
f 42/58/35 44/41/35 50/67/35
f 59/72/20 58/73/20 56/70/20
f 52/68/36 56/70/36 58/73/36
f 53/65/37 58/73/37 59/72/37
f 50/67/38 54/64/38 59/72/38
