# Blender v2.79 (sub 6) OBJ File: ''
# www.blender.org
o Cylinder.003_Cylinder.013
v 9.028076 20.277243 -90.290802
v 0.000029 22.196247 8.338270
v 0.000029 22.196251 -90.290802
v 16.495119 14.852223 -90.290802
v 9.028076 20.277239 8.338270
v 21.109760 6.859019 -90.290802
v 16.495119 14.852220 8.338270
v 22.074690 -2.320182 -90.290802
v 21.109760 6.859015 8.338269
v 19.222582 -11.098122 -90.290802
v 22.074690 -2.320186 8.338269
v 13.046614 -17.957144 -90.290802
v 19.222582 -11.098125 8.338268
v 4.614964 -21.711252 -90.290802
v 13.046614 -17.957148 8.338268
v -4.614934 -21.711164 -90.290802
v 4.614964 -21.711256 8.338268
v -13.046585 -17.957148 8.338268
v -4.614934 -21.711256 8.338268
v -19.222551 -11.098122 -90.290802
v -13.046585 -17.957144 -90.290802
v -22.074631 -2.320093 -90.290802
v -19.222551 -11.098125 8.338268
v -21.109730 6.859019 -90.290802
v -22.074631 -2.320097 8.338269
v -16.495089 14.852223 -90.290802
v -21.109730 6.859015 8.338269
v -9.028047 20.277330 -90.290802
v -16.495089 14.852220 8.338270
v -9.028047 20.277239 8.338270
v 0.000029 27.153625 8.338270
v 11.044419 24.806038 -90.290802
v 0.000029 27.153629 -90.290802
v 11.044419 24.806034 8.338270
v 20.179174 18.169331 -90.290802
v 20.179174 18.169327 8.338270
v 25.824505 8.390923 -90.290802
v 25.824505 8.390919 8.338269
v 27.004908 -2.838322 -90.290802
v 27.004908 -2.838326 8.338269
v 23.515804 -13.576823 -90.290802
v 23.515804 -13.576827 8.338268
v 15.960487 -21.967743 -90.290802
v 15.960487 -21.967747 8.338268
v 5.645681 -26.560301 -90.290802
v 5.645681 -26.560305 8.338268
v -5.645652 -26.560211 -90.290802
v -15.960458 -21.967752 8.338268
v -15.960458 -21.967749 -90.290802
v -23.515774 -13.576809 -90.290802
v -23.515774 -13.576813 8.338268
v -27.004850 -2.838226 -90.290802
v -27.004850 -2.838230 8.338269
v -25.824474 8.390916 -90.290802
v -25.824474 8.390912 8.338269
v -20.179174 18.169323 -90.290802
v -20.179174 18.169319 8.338270
v -11.044391 24.806128 -90.290802
v -11.044391 24.806034 8.338270
v -5.645652 -26.560305 8.338268
v -16.635000 15.272852 0.378430
v -15.537477 -14.861734 1.175826
v -16.635000 -14.861734 0.378428
v -15.537477 15.272852 1.175828
v -15.956690 -14.861734 2.466059
v -15.956690 15.272852 2.466061
v -17.313309 -14.861734 2.466059
v -17.313309 15.272852 2.466061
v -17.732521 -14.861734 1.175826
v -17.732521 15.272852 1.175828
v 19.144789 15.272852 0.378430
v 20.242311 -14.861734 1.175826
v 19.144789 -14.861734 0.378428
v 20.242311 15.272852 1.175828
v 19.823097 -14.861734 2.466059
v 19.823097 15.272852 2.466061
v 18.466478 -14.861734 2.466059
v 18.466478 15.272852 2.466061
v 18.047266 -14.861734 1.175826
v 18.047266 15.272852 1.175828
v 5.690979 21.772018 -0.814411
v 6.788502 7.332721 -0.017014
v 5.690979 7.332721 -0.814412
v 6.788502 21.772018 -0.017013
v 6.369289 7.332721 1.273220
v 6.369289 21.772018 1.273221
v 5.012669 7.332721 1.273220
v 5.012669 21.772018 1.273221
v 4.593457 7.332721 -0.017014
v 4.593457 21.772018 -0.017013
v -11.048466 22.279209 -2.603819
v -9.950944 7.839911 -1.806422
v -11.048466 7.839911 -2.603820
v -9.950944 22.279209 -1.806421
v -10.370156 7.839911 -0.516189
v -10.370156 22.279209 -0.516188
v -11.726777 7.839911 -0.516189
v -11.726777 22.279209 -0.516188
v -12.145988 7.839911 -1.806422
v -12.145988 22.279209 -1.806421
v -9.673813 5.483726 0.209653
v -10.771336 4.881659 -0.313184
v -11.868858 5.483726 0.209653
v -11.449645 6.457902 1.055633
v -10.093025 6.457902 1.055633
v -10.651170 3.743393 2.859794
v -11.748693 4.504606 3.097277
v -11.329480 5.736291 3.481537
v -9.553648 4.504606 3.097277
v -9.972859 5.736291 3.481537
v 11.655085 20.835394 0.824455
v 12.752607 3.680138 1.621852
v 11.655085 3.680138 0.824454
v 12.752607 20.835394 1.621853
v 12.333394 3.680138 2.912086
v 12.333394 20.835394 2.912087
v 10.976774 3.680138 2.912086
v 10.976774 20.835394 2.912087
v 10.557562 3.680138 1.621852
v 10.557562 20.835394 1.621853
vt 0.685630 0.477000
vt 0.734159 0.000000
vt 0.734159 0.477000
vt 0.645492 0.477000
vt 0.685630 0.000000
vt 0.864732 0.482989
vt 0.822826 0.947386
vt 0.822826 0.478579
vt 0.913818 0.484187
vt 0.864732 0.951795
vt 0.961594 0.481967
vt 0.913818 0.952994
vt 0.999802 0.476712
vt 0.961594 0.950773
vt 0.094937 0.954981
vt 0.140260 0.479469
vt 0.140260 0.955882
vt 0.045323 0.954981
vt 0.094937 0.478568
vt 0.000000 0.479469
vt 0.045323 0.478568
vt 0.861692 0.004686
vt 0.822826 0.470148
vt 0.822826 0.000000
vt 0.909740 0.006564
vt 0.861692 0.474833
vt 0.958662 0.005310
vt 0.909740 0.476712
vt 1.000000 0.001142
vt 0.958662 0.475458
vt 0.782688 0.477000
vt 0.822826 0.000000
vt 0.822826 0.477000
vt 0.782688 0.000000
vt 0.108470 0.476413
vt 0.049103 0.000563
vt 0.108470 0.000000
vt 0.049103 0.476976
vt 0.000000 0.002155
vt 0.431572 0.005482
vt 0.485923 0.479734
vt 0.431572 0.475629
vt 0.485923 0.009586
vt 0.546562 0.480125
vt 0.546562 0.009977
vt 0.603005 0.476734
vt 0.603005 0.006586
vt 0.645491 0.470148
vt 0.645491 0.477000
vt 0.700937 0.954000
vt 0.645492 0.954000
vt 0.700937 0.477000
vt 0.761632 0.954000
vt 0.817078 0.477000
vt 0.817078 0.954000
vt 0.431572 0.479360
vt 0.388182 0.003507
vt 0.431572 0.010554
vt 0.388182 0.472313
vt 0.331281 0.000000
vt 0.331281 0.468806
vt 0.270710 0.000639
vt 0.270710 0.469446
vt 0.216940 0.005314
vt 0.216940 0.478568
vt 0.167838 0.000563
vt 0.216940 0.002155
vt 0.167838 0.476976
vt 0.251970 0.712051
vt 0.191185 0.707544
vt 0.209012 0.689729
vt 0.166753 0.838587
vt 0.168914 0.783958
vt 0.185359 0.799980
vt 0.318251 0.958447
vt 0.287718 1.000000
vt 0.282474 0.976579
vt 0.209012 0.530180
vt 0.155517 0.556537
vt 0.191185 0.512362
vt 0.405512 0.587651
vt 0.431572 0.637275
vt 0.405512 0.632289
vt 0.205628 0.958448
vt 0.238984 1.000000
vt 0.193709 0.977819
vt 0.327749 0.799980
vt 0.369078 0.831187
vt 0.348979 0.838586
vt 0.348475 0.517000
vt 0.406891 0.532781
vt 0.385337 0.546871
vt 0.304086 0.740564
vt 0.243737 0.734852
vt 0.216697 0.773777
vt 0.207251 0.751903
vt 0.169543 0.609951
vt 0.179856 0.566291
vt 0.159724 0.937291
vt 0.177847 0.925319
vt 0.376014 0.885424
vt 0.354650 0.882921
vt 0.304085 0.479360
vt 0.361796 0.496238
vt 0.301301 0.716721
vt 0.361796 0.723694
vt 0.254536 0.740565
vt 0.255349 0.764508
vt 0.179856 0.653615
vt 0.142901 0.609949
vt 0.164095 0.882922
vt 0.142901 0.885425
vt 0.343781 0.925318
vt 0.362718 0.937290
vt 0.251969 0.507865
vt 0.301300 0.503204
vt 0.385338 0.673065
vt 0.348475 0.702930
vt 0.294630 0.773777
vt 0.302589 0.751903
vt 0.155517 0.663365
vt 0.146152 0.831188
vt 0.331486 0.977818
vt 0.242637 0.976579
vt 0.243736 0.485063
vt 0.406891 0.687160
vt 0.343106 0.783958
vt 0.431572 0.582668
vt 0.540831 0.625354
vt 0.533539 0.480129
vt 0.540831 0.480125
vt 0.555340 0.480183
vt 0.562556 0.625590
vt 0.555340 0.625648
vt 0.526246 0.480125
vt 0.533539 0.625833
vt 0.526246 0.625833
vt 0.494841 0.625779
vt 0.487609 0.480125
vt 0.494841 0.480159
vt 0.487609 0.625745
vt 0.484486 0.480365
vt 0.540831 0.480129
vt 0.548123 0.625353
vt 0.540831 0.625358
vt 0.548123 0.480183
vt 0.555340 0.625590
vt 0.548123 0.625648
vt 0.518954 0.480125
vt 0.526246 0.625833
vt 0.518954 0.625833
vt 0.505196 0.625779
vt 0.497964 0.480125
vt 0.505196 0.480159
vt 0.497964 0.625745
vt 0.494841 0.480365
vt 0.619653 0.480129
vt 0.626945 0.549713
vt 0.619653 0.549717
vt 0.626945 0.480183
vt 0.634162 0.549826
vt 0.626945 0.549884
vt 0.605068 0.480125
vt 0.612360 0.549942
vt 0.605068 0.549942
vt 0.572912 0.480331
vt 0.580144 0.550141
vt 0.572912 0.550107
vt 0.580144 0.480365
vt 0.583267 0.549900
vt 0.511687 0.480125
vt 0.512463 0.550014
vt 0.505196 0.549467
vt 0.477444 0.480125
vt 0.466861 0.549419
vt 0.459819 0.547998
vt 0.612360 0.480125
vt 0.619653 0.549942
vt 0.612360 0.549942
vt 0.459819 0.567774
vt 0.434545 0.501453
vt 0.441583 0.499956
vt 0.452781 0.569271
vt 0.431572 0.502347
vt 0.467053 0.561386
vt 0.639315 0.574534
vt 0.632598 0.566799
vt 0.638705 0.564708
vt 0.512281 0.564993
vt 0.612394 0.550576
vt 0.619020 0.557959
vt 0.611762 0.558592
vt 0.442183 0.488055
vt 0.448175 0.491646
vt 0.626945 0.563850
vt 0.633332 0.551457
vt 0.455869 0.480125
vt 0.459819 0.485457
vt 0.472998 0.557724
vt 0.480603 0.569273
vt 0.639315 0.550741
vt 0.619653 0.569850
vt 0.612394 0.570484
vt 0.608631 0.565022
vt 0.608631 0.571583
vt 0.601969 0.573610
vt 0.597851 0.562802
vt 0.590559 0.480129
vt 0.597851 0.480125
vt 0.597851 0.480183
vt 0.605068 0.562936
vt 0.597851 0.562994
vt 0.583267 0.480125
vt 0.590559 0.563075
vt 0.583267 0.563075
vt 0.572912 0.563059
vt 0.565679 0.480125
vt 0.572912 0.480159
vt 0.565679 0.563025
vt 0.562556 0.480365
vt 0.645491 0.000000
vt 0.999802 0.945518
vt 0.000000 0.955882
vt 1.000000 0.471289
vt 0.000000 0.478568
vt 0.645492 0.000000
vt 0.761632 0.477000
vt 0.216941 0.474120
vt 0.533539 0.625358
vt 0.562556 0.480125
vt 0.533539 0.480125
vt 0.484486 0.625985
vt 0.548123 0.480125
vt 0.555340 0.480125
vt 0.526246 0.480125
vt 0.494841 0.625985
vt 0.626945 0.480125
vt 0.634162 0.480125
vt 0.612360 0.480125
vt 0.583267 0.480125
vt 0.518954 0.480671
vt 0.484486 0.481546
vt 0.619653 0.480125
vt 0.449808 0.570166
vt 0.633089 0.577950
vt 0.518954 0.562493
vt 0.627554 0.549884
vt 0.484486 0.563877
vt 0.597851 0.568302
vt 0.601969 0.562994
vt 0.590559 0.562806
vt 0.605068 0.480125
vt 0.590559 0.480125
vt 0.562556 0.563265
vn -0.2079 -0.9781 -0.0000
vn -0.5878 -0.8090 -0.0000
vn -0.8660 -0.5000 -0.0000
vn -0.9945 -0.1045 -0.0000
vn -0.9511 0.3090 0.0000
vn -0.7431 0.6691 0.0000
vn -0.4067 0.9135 0.0000
vn 0.0000 1.0000 0.0000
vn 0.4067 0.9135 0.0000
vn 0.7431 0.6691 0.0000
vn 0.9511 0.3090 0.0000
vn 0.9945 -0.1045 -0.0000
vn 0.8660 -0.5000 -0.0000
vn 0.5878 -0.8090 -0.0000
vn 0.2079 -0.9781 -0.0000
vn 0.2079 0.9781 0.0000
vn 0.5878 0.8090 0.0000
vn 0.8660 0.5000 0.0000
vn 0.9945 0.1045 0.0000
vn 0.9511 -0.3090 -0.0000
vn 0.7431 -0.6691 -0.0000
vn 0.4067 -0.9135 -0.0000
vn -0.0000 -1.0000 -0.0000
vn -0.4067 -0.9135 -0.0000
vn -0.7431 -0.6691 -0.0000
vn -0.9511 -0.3090 -0.0000
vn -0.9945 0.1045 0.0000
vn -0.8660 0.5000 0.0000
vn -0.5878 0.8090 0.0000
vn -0.2079 0.9781 0.0000
vn -0.0000 -0.0000 1.0000
vn -0.0000 0.0000 -1.0000
vn 0.5878 0.0000 -0.8090
vn 0.9511 0.0000 0.3090
vn -0.9511 -0.0000 0.3090
vn -0.5878 0.0000 -0.8090
vn 0.8901 0.3522 0.2892
vn -0.5865 -0.5653 -0.5801
vn 0.5104 -0.4961 -0.7024
vn 0.0000 0.7510 0.6603
vn -0.9428 0.1488 0.2984
vn -0.9407 0.1504 0.3041
vn -0.9434 0.1483 0.2967
vn 0.5642 -0.7701 -0.2976
vn -0.9498 0.2837 0.1323
vn -0.9480 0.2876 0.1363
vn -0.9503 0.2825 0.1311
vn 0.9381 0.3380 0.0756
vn -0.5878 -0.7733 -0.2377
vn 0.0000 0.9585 0.2851
vn 0.0000 -0.2978 0.9546
vn 0.9438 0.3122 0.1081
vn -0.4857 -0.5632 -0.6685
vn 0.5791 -0.4896 -0.6518
vn -0.9402 0.1508 0.3055
vn 0.5872 -0.7588 -0.2817
vn -0.9476 0.2886 0.1373
vn 0.9499 0.3093 0.0449
vn -0.5570 -0.7882 -0.2617
s 1
f 1/1/1 2/2/1 3/3/1
f 4/4/2 5/5/2 1/1/2
f 6/6/3 7/7/3 4/8/3
f 8/9/4 9/10/4 6/6/4
f 10/11/5 11/12/5 8/9/5
f 12/13/6 13/14/6 10/11/6
f 14/15/7 15/16/7 12/17/7
f 16/18/8 17/19/8 14/15/8
f 16/18/9 18/20/9 19/21/9
f 20/22/10 18/23/10 21/24/10
f 22/25/11 23/26/11 20/22/11
f 24/27/12 25/28/12 22/25/12
f 26/29/13 27/30/13 24/27/13
f 28/31/14 29/32/14 26/33/14
f 3/3/15 30/34/15 28/31/15
f 31/35/16 32/36/16 33/37/16
f 34/38/17 35/39/17 32/36/17
f 36/40/18 37/41/18 35/42/18
f 38/43/19 39/44/19 37/41/19
f 40/45/20 41/46/20 39/44/20
f 42/47/21 43/48/21 41/46/21
f 44/49/22 45/50/22 43/51/22
f 46/52/23 47/53/23 45/50/23
f 47/53/24 48/54/24 49/55/24
f 48/56/25 50/57/25 49/58/25
f 51/59/26 52/60/26 50/57/26
f 53/61/27 54/62/27 52/60/27
f 55/63/28 56/64/28 54/62/28
f 57/65/29 58/66/29 56/67/29
f 59/68/30 33/37/30 58/66/30
f 23/69/31 48/70/31 18/71/31
f 10/72/32 43/73/32 12/74/32
f 28/75/32 33/76/32 3/77/32
f 13/78/31 44/79/31 42/80/31
f 2/81/31 59/82/31 30/83/31
f 4/84/32 32/85/32 35/86/32
f 20/87/32 52/88/32 22/89/32
f 7/90/31 34/91/31 5/92/31
f 23/69/31 53/93/31 51/94/31
f 14/95/32 43/73/32 45/96/32
f 17/97/31 44/79/31 15/98/31
f 4/84/32 37/99/32 6/100/32
f 22/89/32 54/101/32 24/102/32
f 7/90/31 38/103/31 36/104/31
f 25/105/31 55/106/31 53/93/31
f 14/95/32 47/107/32 16/108/32
f 19/109/31 46/110/31 17/97/31
f 8/111/32 37/99/32 39/112/32
f 26/113/32 54/101/32 56/114/32
f 11/115/31 38/103/31 9/116/31
f 29/117/31 55/106/31 27/118/31
f 21/119/32 47/107/32 49/120/32
f 19/109/31 48/70/31 60/121/31
f 8/111/32 41/122/32 10/72/32
f 26/113/32 58/123/32 28/75/32
f 3/77/32 32/85/32 1/124/32
f 11/115/31 42/80/31 40/125/31
f 29/117/31 59/82/31 57/126/31
f 20/87/32 49/120/32 50/127/32
f 2/81/31 34/91/31 31/128/31
f 61/129/33 62/130/33 63/131/33
f 64/132/34 65/133/34 62/134/34
f 66/135/31 67/136/31 65/137/31
f 68/138/35 69/139/35 67/140/35
f 70/141/36 63/142/36 69/139/36
f 71/143/33 72/144/33 73/145/33
f 74/146/34 75/147/34 72/148/34
f 76/149/31 77/150/31 75/151/31
f 78/152/35 79/153/35 77/154/35
f 80/155/36 73/156/36 79/153/36
f 81/157/33 82/158/33 83/159/33
f 84/160/34 85/161/34 82/162/34
f 86/163/31 87/164/31 85/165/31
f 88/166/35 89/167/35 87/168/35
f 90/169/36 83/170/36 89/167/36
f 91/171/33 92/172/33 93/173/33
f 94/174/34 95/175/34 92/176/34
f 96/177/31 97/178/31 95/179/31
f 98/180/35 99/181/35 97/182/35
f 100/183/36 93/184/36 99/181/36
f 95/175/37 101/185/37 92/176/37
f 99/186/38 102/187/38 103/188/38
f 92/172/39 102/189/39 93/173/39
f 95/190/40 104/191/40 105/192/40
f 97/182/41 103/193/42 104/194/43
f 101/195/44 106/196/44 102/187/44
f 104/194/45 107/197/46 108/198/47
f 105/199/48 109/200/48 101/185/48
f 103/188/49 106/196/49 107/201/49
f 105/192/50 108/202/50 110/203/50
f 110/204/51 108/205/51 107/206/51
f 111/207/33 112/208/33 113/209/33
f 114/210/34 115/211/34 112/212/34
f 116/213/31 117/214/31 115/215/31
f 118/216/35 119/217/35 117/218/35
f 120/219/36 113/220/36 119/217/36
f 1/1/1 5/5/1 2/2/1
f 4/4/2 7/221/2 5/5/2
f 6/6/3 9/10/3 7/7/3
f 8/9/4 11/12/4 9/10/4
f 10/11/5 13/14/5 11/12/5
f 12/13/6 15/222/6 13/14/6
f 14/15/7 17/19/7 15/16/7
f 16/18/8 19/21/8 17/19/8
f 16/18/9 21/223/9 18/20/9
f 20/22/10 23/26/10 18/23/10
f 22/25/11 25/28/11 23/26/11
f 24/27/12 27/30/12 25/28/12
f 26/29/13 29/224/13 27/30/13
f 28/31/14 30/34/14 29/32/14
f 3/3/15 2/2/15 30/34/15
f 31/35/16 34/38/16 32/36/16
f 34/38/17 36/225/17 35/39/17
f 36/40/18 38/43/18 37/41/18
f 38/43/19 40/45/19 39/44/19
f 40/45/20 42/47/20 41/46/20
f 42/47/21 44/226/21 43/48/21
f 44/49/22 46/52/22 45/50/22
f 46/52/23 60/227/23 47/53/23
f 47/53/24 60/227/24 48/54/24
f 48/56/25 51/59/25 50/57/25
f 51/59/26 53/61/26 52/60/26
f 53/61/27 55/63/27 54/62/27
f 55/63/28 57/228/28 56/64/28
f 57/65/29 59/68/29 58/66/29
f 59/68/30 31/35/30 33/37/30
f 23/69/31 51/94/31 48/70/31
f 10/72/32 41/122/32 43/73/32
f 28/75/32 58/123/32 33/76/32
f 13/78/31 15/98/31 44/79/31
f 2/81/31 31/128/31 59/82/31
f 4/84/32 1/124/32 32/85/32
f 20/87/32 50/127/32 52/88/32
f 7/90/31 36/104/31 34/91/31
f 23/69/31 25/105/31 53/93/31
f 14/95/32 12/74/32 43/73/32
f 17/97/31 46/110/31 44/79/31
f 4/84/32 35/86/32 37/99/32
f 22/89/32 52/88/32 54/101/32
f 7/90/31 9/116/31 38/103/31
f 25/105/31 27/118/31 55/106/31
f 14/95/32 45/96/32 47/107/32
f 19/109/31 60/121/31 46/110/31
f 8/111/32 6/100/32 37/99/32
f 26/113/32 24/102/32 54/101/32
f 11/115/31 40/125/31 38/103/31
f 29/117/31 57/126/31 55/106/31
f 21/119/32 16/108/32 47/107/32
f 19/109/31 18/71/31 48/70/31
f 8/111/32 39/112/32 41/122/32
f 26/113/32 56/114/32 58/123/32
f 3/77/32 33/76/32 32/85/32
f 11/115/31 13/78/31 42/80/31
f 29/117/31 30/83/31 59/82/31
f 20/87/32 21/119/32 49/120/32
f 2/81/31 5/92/31 34/91/31
f 61/129/33 64/229/33 62/130/33
f 64/132/34 66/230/34 65/133/34
f 66/135/31 68/231/31 67/136/31
f 68/138/35 70/141/35 69/139/35
f 70/141/36 61/232/36 63/142/36
f 71/143/33 74/233/33 72/144/33
f 74/146/34 76/234/34 75/147/34
f 76/149/31 78/235/31 77/150/31
f 78/152/35 80/155/35 79/153/35
f 80/155/36 71/236/36 73/156/36
f 81/157/33 84/237/33 82/158/33
f 84/160/34 86/238/34 85/161/34
f 86/163/31 88/239/31 87/164/31
f 88/166/35 90/169/35 89/167/35
f 90/169/36 81/240/36 83/170/36
f 91/171/33 94/241/33 92/172/33
f 94/174/34 96/242/34 95/175/34
f 96/177/31 98/243/31 97/178/31
f 98/180/35 100/183/35 99/181/35
f 100/183/36 91/244/36 93/184/36
f 95/175/52 105/199/52 101/185/52
f 99/186/53 93/245/53 102/187/53
f 92/172/54 101/246/54 102/189/54
f 95/190/40 97/178/40 104/191/40
f 97/182/41 99/181/55 103/193/42
f 101/195/56 109/247/56 106/196/56
f 104/194/45 103/193/57 107/197/46
f 105/199/58 110/248/58 109/200/58
f 103/188/59 102/187/59 106/196/59
f 105/192/50 104/191/50 108/202/50
f 106/249/51 109/250/51 107/206/51
f 109/250/51 110/204/51 107/206/51
f 111/207/33 114/251/33 112/208/33
f 114/210/34 116/252/34 115/211/34
f 116/213/31 118/253/31 117/214/31
f 118/216/35 120/219/35 119/217/35
f 120/219/36 111/254/36 113/220/36
